ISO-10303-21;
HEADER;
/* Generated by software containing ST-Developer
 * from STEP Tools, Inc. (www.steptools.com) 
 */

FILE_DESCRIPTION(
/* description */ (''),
/* implementation_level */ '2;1');

FILE_NAME(
/* name */ 'alumount4(1x).step',
/* time_stamp */ '2025-12-01T16:00:51+05:30',
/* author */ (''),
/* organization */ (''),
/* preprocessor_version */ 'ST-DEVELOPER v20.1',
/* originating_system */ 'Autodesk Translation Framework v14.21.0.0',
/* authorisation */ '');

FILE_SCHEMA (('AUTOMOTIVE_DESIGN { 1 0 10303 214 3 1 1 }'));
ENDSEC;

DATA;
#10=MECHANICAL_DESIGN_GEOMETRIC_PRESENTATION_REPRESENTATION('',(#13),#924);
#11=SHAPE_REPRESENTATION_RELATIONSHIP('SRR','None',#931,#12);
#12=ADVANCED_BREP_SHAPE_REPRESENTATION('',(#14),#923);
#13=STYLED_ITEM('',(#940),#14);
#14=MANIFOLD_SOLID_BREP('Body1',#572);
#15=CYLINDRICAL_SURFACE('',#604,2.5);
#16=CYLINDRICAL_SURFACE('',#605,1.49999999999999);
#17=CYLINDRICAL_SURFACE('',#607,2.5);
#18=ELLIPSE('',#594,3.53553390593273,2.5);
#19=FACE_BOUND('',#65,.T.);
#20=FACE_BOUND('',#67,.T.);
#21=FACE_BOUND('',#68,.T.);
#22=FACE_BOUND('',#70,.T.);
#23=FACE_BOUND('',#72,.T.);
#24=FACE_BOUND('',#86,.T.);
#25=CIRCLE('',#592,2.5);
#26=CIRCLE('',#595,2.5);
#27=CIRCLE('',#597,2.5);
#28=CIRCLE('',#599,1.49999999999999);
#29=CIRCLE('',#606,1.49999999999999);
#30=FACE_OUTER_BOUND('',#59,.T.);
#31=FACE_OUTER_BOUND('',#60,.T.);
#32=FACE_OUTER_BOUND('',#61,.T.);
#33=FACE_OUTER_BOUND('',#62,.T.);
#34=FACE_OUTER_BOUND('',#63,.T.);
#35=FACE_OUTER_BOUND('',#64,.T.);
#36=FACE_OUTER_BOUND('',#66,.T.);
#37=FACE_OUTER_BOUND('',#69,.T.);
#38=FACE_OUTER_BOUND('',#71,.T.);
#39=FACE_OUTER_BOUND('',#73,.T.);
#40=FACE_OUTER_BOUND('',#74,.T.);
#41=FACE_OUTER_BOUND('',#75,.T.);
#42=FACE_OUTER_BOUND('',#76,.T.);
#43=FACE_OUTER_BOUND('',#77,.T.);
#44=FACE_OUTER_BOUND('',#78,.T.);
#45=FACE_OUTER_BOUND('',#79,.T.);
#46=FACE_OUTER_BOUND('',#80,.T.);
#47=FACE_OUTER_BOUND('',#81,.T.);
#48=FACE_OUTER_BOUND('',#82,.T.);
#49=FACE_OUTER_BOUND('',#83,.T.);
#50=FACE_OUTER_BOUND('',#84,.T.);
#51=FACE_OUTER_BOUND('',#85,.T.);
#52=FACE_OUTER_BOUND('',#87,.T.);
#53=FACE_OUTER_BOUND('',#88,.T.);
#54=FACE_OUTER_BOUND('',#89,.T.);
#55=FACE_OUTER_BOUND('',#90,.T.);
#56=FACE_OUTER_BOUND('',#91,.T.);
#57=FACE_OUTER_BOUND('',#92,.T.);
#58=FACE_OUTER_BOUND('',#93,.T.);
#59=EDGE_LOOP('',(#363,#364,#365,#366,#367,#368,#369,#370));
#60=EDGE_LOOP('',(#371,#372,#373,#374));
#61=EDGE_LOOP('',(#375,#376,#377,#378));
#62=EDGE_LOOP('',(#379,#380,#381,#382));
#63=EDGE_LOOP('',(#383,#384,#385,#386));
#64=EDGE_LOOP('',(#387,#388,#389,#390,#391));
#65=EDGE_LOOP('',(#392,#393,#394));
#66=EDGE_LOOP('',(#395,#396,#397,#398));
#67=EDGE_LOOP('',(#399,#400,#401));
#68=EDGE_LOOP('',(#402,#403,#404));
#69=EDGE_LOOP('',(#405,#406,#407,#408));
#70=EDGE_LOOP('',(#409,#410,#411));
#71=EDGE_LOOP('',(#412,#413,#414,#415,#416));
#72=EDGE_LOOP('',(#417,#418,#419));
#73=EDGE_LOOP('',(#420,#421,#422,#423));
#74=EDGE_LOOP('',(#424,#425,#426,#427));
#75=EDGE_LOOP('',(#428,#429,#430,#431));
#76=EDGE_LOOP('',(#432,#433,#434,#435));
#77=EDGE_LOOP('',(#436,#437,#438,#439));
#78=EDGE_LOOP('',(#440,#441,#442,#443));
#79=EDGE_LOOP('',(#444,#445,#446,#447));
#80=EDGE_LOOP('',(#448,#449,#450,#451));
#81=EDGE_LOOP('',(#452,#453,#454,#455,#456));
#82=EDGE_LOOP('',(#457,#458,#459,#460,#461,#462));
#83=EDGE_LOOP('',(#463,#464,#465,#466));
#84=EDGE_LOOP('',(#467,#468,#469,#470,#471));
#85=EDGE_LOOP('',(#472,#473,#474,#475,#476));
#86=EDGE_LOOP('',(#477,#478,#479));
#87=EDGE_LOOP('',(#480,#481,#482,#483));
#88=EDGE_LOOP('',(#484,#485,#486,#487,#488,#489));
#89=EDGE_LOOP('',(#490,#491,#492,#493,#494));
#90=EDGE_LOOP('',(#495,#496,#497,#498,#499,#500));
#91=EDGE_LOOP('',(#501,#502,#503,#504,#505,#506,#507));
#92=EDGE_LOOP('',(#508,#509,#510,#511));
#93=EDGE_LOOP('',(#512,#513,#514,#515,#516));
#94=LINE('',#768,#165);
#95=LINE('',#770,#166);
#96=LINE('',#772,#167);
#97=LINE('',#774,#168);
#98=LINE('',#776,#169);
#99=LINE('',#778,#170);
#100=LINE('',#780,#171);
#101=LINE('',#781,#172);
#102=LINE('',#784,#173);
#103=LINE('',#786,#174);
#104=LINE('',#787,#175);
#105=LINE('',#790,#176);
#106=LINE('',#792,#177);
#107=LINE('',#793,#178);
#108=LINE('',#797,#179);
#109=LINE('',#799,#180);
#110=LINE('',#801,#181);
#111=LINE('',#802,#182);
#112=LINE('',#805,#183);
#113=LINE('',#807,#184);
#114=LINE('',#808,#185);
#115=LINE('',#811,#186);
#116=LINE('',#813,#187);
#117=LINE('',#815,#188);
#118=LINE('',#816,#189);
#119=LINE('',#820,#190);
#120=LINE('',#822,#191);
#121=LINE('',#823,#192);
#122=LINE('',#827,#193);
#123=LINE('',#829,#194);
#124=LINE('',#833,#195);
#125=LINE('',#835,#196);
#126=LINE('',#836,#197);
#127=LINE('',#839,#198);
#128=LINE('',#842,#199);
#129=LINE('',#846,#200);
#130=LINE('',#848,#201);
#131=LINE('',#850,#202);
#132=LINE('',#852,#203);
#133=LINE('',#853,#204);
#134=LINE('',#856,#205);
#135=LINE('',#859,#206);
#136=LINE('',#861,#207);
#137=LINE('',#862,#208);
#138=LINE('',#864,#209);
#139=LINE('',#868,#210);
#140=LINE('',#869,#211);
#141=LINE('',#870,#212);
#142=LINE('',#873,#213);
#143=LINE('',#874,#214);
#144=LINE('',#880,#215);
#145=LINE('',#881,#216);
#146=LINE('',#884,#217);
#147=LINE('',#886,#218);
#148=LINE('',#887,#219);
#149=LINE('',#889,#220);
#150=LINE('',#891,#221);
#151=LINE('',#892,#222);
#152=LINE('',#895,#223);
#153=LINE('',#897,#224);
#154=LINE('',#899,#225);
#155=LINE('',#900,#226);
#156=LINE('',#902,#227);
#157=LINE('',#904,#228);
#158=LINE('',#905,#229);
#159=LINE('',#907,#230);
#160=LINE('',#911,#231);
#161=LINE('',#912,#232);
#162=LINE('',#913,#233);
#163=LINE('',#915,#234);
#164=LINE('',#916,#235);
#165=VECTOR('',#625,10.);
#166=VECTOR('',#626,10.);
#167=VECTOR('',#627,10.);
#168=VECTOR('',#628,10.);
#169=VECTOR('',#629,10.);
#170=VECTOR('',#630,10.);
#171=VECTOR('',#631,10.);
#172=VECTOR('',#632,10.);
#173=VECTOR('',#635,10.);
#174=VECTOR('',#636,10.);
#175=VECTOR('',#637,10.);
#176=VECTOR('',#640,10.);
#177=VECTOR('',#641,10.);
#178=VECTOR('',#642,10.);
#179=VECTOR('',#645,10.);
#180=VECTOR('',#646,10.);
#181=VECTOR('',#647,10.);
#182=VECTOR('',#648,10.);
#183=VECTOR('',#651,10.);
#184=VECTOR('',#652,10.);
#185=VECTOR('',#653,10.);
#186=VECTOR('',#656,10.);
#187=VECTOR('',#657,10.);
#188=VECTOR('',#658,10.);
#189=VECTOR('',#659,10.);
#190=VECTOR('',#664,10.);
#191=VECTOR('',#665,10.);
#192=VECTOR('',#666,10.);
#193=VECTOR('',#669,10.);
#194=VECTOR('',#670,10.);
#195=VECTOR('',#675,10.);
#196=VECTOR('',#676,10.);
#197=VECTOR('',#677,10.);
#198=VECTOR('',#678,10.);
#199=VECTOR('',#681,10.);
#200=VECTOR('',#684,10.);
#201=VECTOR('',#685,10.);
#202=VECTOR('',#686,10.);
#203=VECTOR('',#687,10.);
#204=VECTOR('',#688,10.);
#205=VECTOR('',#689,10.);
#206=VECTOR('',#692,10.);
#207=VECTOR('',#695,10.);
#208=VECTOR('',#696,10.);
#209=VECTOR('',#699,10.);
#210=VECTOR('',#702,10.);
#211=VECTOR('',#703,10.);
#212=VECTOR('',#704,10.);
#213=VECTOR('',#707,10.);
#214=VECTOR('',#708,10.);
#215=VECTOR('',#719,10.);
#216=VECTOR('',#720,10.);
#217=VECTOR('',#723,10.);
#218=VECTOR('',#724,10.);
#219=VECTOR('',#725,10.);
#220=VECTOR('',#728,10.);
#221=VECTOR('',#729,10.);
#222=VECTOR('',#730,10.);
#223=VECTOR('',#733,10.);
#224=VECTOR('',#734,10.);
#225=VECTOR('',#735,10.);
#226=VECTOR('',#736,10.);
#227=VECTOR('',#739,10.);
#228=VECTOR('',#740,10.);
#229=VECTOR('',#741,10.);
#230=VECTOR('',#744,10.);
#231=VECTOR('',#749,10.);
#232=VECTOR('',#750,10.);
#233=VECTOR('',#751,10.);
#234=VECTOR('',#754,10.);
#235=VECTOR('',#755,10.);
#236=VERTEX_POINT('',#766);
#237=VERTEX_POINT('',#767);
#238=VERTEX_POINT('',#769);
#239=VERTEX_POINT('',#771);
#240=VERTEX_POINT('',#773);
#241=VERTEX_POINT('',#775);
#242=VERTEX_POINT('',#777);
#243=VERTEX_POINT('',#779);
#244=VERTEX_POINT('',#783);
#245=VERTEX_POINT('',#785);
#246=VERTEX_POINT('',#789);
#247=VERTEX_POINT('',#791);
#248=VERTEX_POINT('',#795);
#249=VERTEX_POINT('',#796);
#250=VERTEX_POINT('',#798);
#251=VERTEX_POINT('',#800);
#252=VERTEX_POINT('',#804);
#253=VERTEX_POINT('',#806);
#254=VERTEX_POINT('',#810);
#255=VERTEX_POINT('',#812);
#256=VERTEX_POINT('',#814);
#257=VERTEX_POINT('',#819);
#258=VERTEX_POINT('',#821);
#259=VERTEX_POINT('',#825);
#260=VERTEX_POINT('',#826);
#261=VERTEX_POINT('',#828);
#262=VERTEX_POINT('',#832);
#263=VERTEX_POINT('',#834);
#264=VERTEX_POINT('',#837);
#265=VERTEX_POINT('',#838);
#266=VERTEX_POINT('',#840);
#267=VERTEX_POINT('',#844);
#268=VERTEX_POINT('',#845);
#269=VERTEX_POINT('',#847);
#270=VERTEX_POINT('',#849);
#271=VERTEX_POINT('',#851);
#272=VERTEX_POINT('',#854);
#273=VERTEX_POINT('',#855);
#274=VERTEX_POINT('',#857);
#275=VERTEX_POINT('',#866);
#276=VERTEX_POINT('',#867);
#277=VERTEX_POINT('',#872);
#278=VERTEX_POINT('',#883);
#279=VERTEX_POINT('',#885);
#280=VERTEX_POINT('',#890);
#281=VERTEX_POINT('',#894);
#282=VERTEX_POINT('',#896);
#283=VERTEX_POINT('',#898);
#284=VERTEX_POINT('',#903);
#285=VERTEX_POINT('',#910);
#286=EDGE_CURVE('',#236,#237,#94,.T.);
#287=EDGE_CURVE('',#237,#238,#95,.T.);
#288=EDGE_CURVE('',#238,#239,#96,.T.);
#289=EDGE_CURVE('',#240,#239,#97,.T.);
#290=EDGE_CURVE('',#241,#240,#98,.T.);
#291=EDGE_CURVE('',#241,#242,#99,.T.);
#292=EDGE_CURVE('',#242,#243,#100,.T.);
#293=EDGE_CURVE('',#243,#236,#101,.T.);
#294=EDGE_CURVE('',#236,#244,#102,.T.);
#295=EDGE_CURVE('',#244,#245,#103,.T.);
#296=EDGE_CURVE('',#237,#245,#104,.T.);
#297=EDGE_CURVE('',#246,#244,#105,.T.);
#298=EDGE_CURVE('',#247,#246,#106,.T.);
#299=EDGE_CURVE('',#245,#247,#107,.T.);
#300=EDGE_CURVE('',#248,#249,#108,.T.);
#301=EDGE_CURVE('',#249,#250,#109,.T.);
#302=EDGE_CURVE('',#250,#251,#110,.T.);
#303=EDGE_CURVE('',#251,#248,#111,.T.);
#304=EDGE_CURVE('',#252,#248,#112,.T.);
#305=EDGE_CURVE('',#251,#253,#113,.T.);
#306=EDGE_CURVE('',#252,#253,#114,.T.);
#307=EDGE_CURVE('',#242,#254,#115,.T.);
#308=EDGE_CURVE('',#254,#255,#116,.T.);
#309=EDGE_CURVE('',#255,#256,#117,.T.);
#310=EDGE_CURVE('',#243,#256,#118,.T.);
#311=EDGE_CURVE('',#253,#250,#25,.T.);
#312=EDGE_CURVE('',#240,#257,#119,.T.);
#313=EDGE_CURVE('',#257,#258,#120,.T.);
#314=EDGE_CURVE('',#241,#258,#121,.T.);
#315=EDGE_CURVE('',#249,#252,#18,.T.);
#316=EDGE_CURVE('',#259,#260,#122,.T.);
#317=EDGE_CURVE('',#261,#259,#123,.T.);
#318=EDGE_CURVE('',#260,#261,#26,.T.);
#319=EDGE_CURVE('',#246,#262,#124,.T.);
#320=EDGE_CURVE('',#262,#263,#125,.T.);
#321=EDGE_CURVE('',#247,#263,#126,.T.);
#322=EDGE_CURVE('',#264,#265,#127,.T.);
#323=EDGE_CURVE('',#266,#264,#27,.T.);
#324=EDGE_CURVE('',#265,#266,#128,.T.);
#325=EDGE_CURVE('',#267,#268,#129,.T.);
#326=EDGE_CURVE('',#268,#269,#130,.T.);
#327=EDGE_CURVE('',#269,#270,#131,.T.);
#328=EDGE_CURVE('',#271,#270,#132,.T.);
#329=EDGE_CURVE('',#271,#267,#133,.T.);
#330=EDGE_CURVE('',#272,#273,#134,.T.);
#331=EDGE_CURVE('',#274,#272,#28,.T.);
#332=EDGE_CURVE('',#273,#274,#135,.T.);
#333=EDGE_CURVE('',#259,#265,#136,.T.);
#334=EDGE_CURVE('',#261,#266,#137,.T.);
#335=EDGE_CURVE('',#260,#264,#138,.T.);
#336=EDGE_CURVE('',#275,#276,#139,.T.);
#337=EDGE_CURVE('',#276,#273,#140,.T.);
#338=EDGE_CURVE('',#275,#274,#141,.T.);
#339=EDGE_CURVE('',#276,#277,#142,.T.);
#340=EDGE_CURVE('',#277,#272,#143,.T.);
#341=EDGE_CURVE('',#277,#275,#29,.T.);
#342=EDGE_CURVE('',#256,#268,#144,.T.);
#343=EDGE_CURVE('',#255,#269,#145,.T.);
#344=EDGE_CURVE('',#255,#278,#146,.T.);
#345=EDGE_CURVE('',#279,#278,#147,.T.);
#346=EDGE_CURVE('',#270,#279,#148,.T.);
#347=EDGE_CURVE('',#258,#254,#149,.T.);
#348=EDGE_CURVE('',#280,#257,#150,.T.);
#349=EDGE_CURVE('',#278,#280,#151,.T.);
#350=EDGE_CURVE('',#281,#280,#152,.T.);
#351=EDGE_CURVE('',#282,#281,#153,.T.);
#352=EDGE_CURVE('',#282,#283,#154,.T.);
#353=EDGE_CURVE('',#280,#283,#155,.T.);
#354=EDGE_CURVE('',#282,#267,#156,.T.);
#355=EDGE_CURVE('',#284,#271,#157,.T.);
#356=EDGE_CURVE('',#283,#284,#158,.T.);
#357=EDGE_CURVE('',#279,#284,#159,.T.);
#358=EDGE_CURVE('',#285,#282,#160,.T.);
#359=EDGE_CURVE('',#263,#285,#161,.T.);
#360=EDGE_CURVE('',#268,#262,#162,.T.);
#361=EDGE_CURVE('',#238,#285,#163,.T.);
#362=EDGE_CURVE('',#239,#281,#164,.T.);
#363=ORIENTED_EDGE('',*,*,#286,.T.);
#364=ORIENTED_EDGE('',*,*,#287,.T.);
#365=ORIENTED_EDGE('',*,*,#288,.T.);
#366=ORIENTED_EDGE('',*,*,#289,.F.);
#367=ORIENTED_EDGE('',*,*,#290,.F.);
#368=ORIENTED_EDGE('',*,*,#291,.T.);
#369=ORIENTED_EDGE('',*,*,#292,.T.);
#370=ORIENTED_EDGE('',*,*,#293,.T.);
#371=ORIENTED_EDGE('',*,*,#286,.F.);
#372=ORIENTED_EDGE('',*,*,#294,.T.);
#373=ORIENTED_EDGE('',*,*,#295,.T.);
#374=ORIENTED_EDGE('',*,*,#296,.F.);
#375=ORIENTED_EDGE('',*,*,#295,.F.);
#376=ORIENTED_EDGE('',*,*,#297,.F.);
#377=ORIENTED_EDGE('',*,*,#298,.F.);
#378=ORIENTED_EDGE('',*,*,#299,.F.);
#379=ORIENTED_EDGE('',*,*,#300,.T.);
#380=ORIENTED_EDGE('',*,*,#301,.T.);
#381=ORIENTED_EDGE('',*,*,#302,.T.);
#382=ORIENTED_EDGE('',*,*,#303,.T.);
#383=ORIENTED_EDGE('',*,*,#304,.T.);
#384=ORIENTED_EDGE('',*,*,#303,.F.);
#385=ORIENTED_EDGE('',*,*,#305,.T.);
#386=ORIENTED_EDGE('',*,*,#306,.F.);
#387=ORIENTED_EDGE('',*,*,#292,.F.);
#388=ORIENTED_EDGE('',*,*,#307,.T.);
#389=ORIENTED_EDGE('',*,*,#308,.T.);
#390=ORIENTED_EDGE('',*,*,#309,.T.);
#391=ORIENTED_EDGE('',*,*,#310,.F.);
#392=ORIENTED_EDGE('',*,*,#302,.F.);
#393=ORIENTED_EDGE('',*,*,#311,.F.);
#394=ORIENTED_EDGE('',*,*,#305,.F.);
#395=ORIENTED_EDGE('',*,*,#290,.T.);
#396=ORIENTED_EDGE('',*,*,#312,.T.);
#397=ORIENTED_EDGE('',*,*,#313,.T.);
#398=ORIENTED_EDGE('',*,*,#314,.F.);
#399=ORIENTED_EDGE('',*,*,#304,.F.);
#400=ORIENTED_EDGE('',*,*,#315,.F.);
#401=ORIENTED_EDGE('',*,*,#300,.F.);
#402=ORIENTED_EDGE('',*,*,#316,.F.);
#403=ORIENTED_EDGE('',*,*,#317,.F.);
#404=ORIENTED_EDGE('',*,*,#318,.F.);
#405=ORIENTED_EDGE('',*,*,#298,.T.);
#406=ORIENTED_EDGE('',*,*,#319,.T.);
#407=ORIENTED_EDGE('',*,*,#320,.T.);
#408=ORIENTED_EDGE('',*,*,#321,.F.);
#409=ORIENTED_EDGE('',*,*,#322,.F.);
#410=ORIENTED_EDGE('',*,*,#323,.F.);
#411=ORIENTED_EDGE('',*,*,#324,.F.);
#412=ORIENTED_EDGE('',*,*,#325,.T.);
#413=ORIENTED_EDGE('',*,*,#326,.T.);
#414=ORIENTED_EDGE('',*,*,#327,.T.);
#415=ORIENTED_EDGE('',*,*,#328,.F.);
#416=ORIENTED_EDGE('',*,*,#329,.T.);
#417=ORIENTED_EDGE('',*,*,#330,.F.);
#418=ORIENTED_EDGE('',*,*,#331,.F.);
#419=ORIENTED_EDGE('',*,*,#332,.F.);
#420=ORIENTED_EDGE('',*,*,#317,.T.);
#421=ORIENTED_EDGE('',*,*,#333,.T.);
#422=ORIENTED_EDGE('',*,*,#324,.T.);
#423=ORIENTED_EDGE('',*,*,#334,.F.);
#424=ORIENTED_EDGE('',*,*,#316,.T.);
#425=ORIENTED_EDGE('',*,*,#335,.T.);
#426=ORIENTED_EDGE('',*,*,#322,.T.);
#427=ORIENTED_EDGE('',*,*,#333,.F.);
#428=ORIENTED_EDGE('',*,*,#336,.T.);
#429=ORIENTED_EDGE('',*,*,#337,.T.);
#430=ORIENTED_EDGE('',*,*,#332,.T.);
#431=ORIENTED_EDGE('',*,*,#338,.F.);
#432=ORIENTED_EDGE('',*,*,#339,.T.);
#433=ORIENTED_EDGE('',*,*,#340,.T.);
#434=ORIENTED_EDGE('',*,*,#330,.T.);
#435=ORIENTED_EDGE('',*,*,#337,.F.);
#436=ORIENTED_EDGE('',*,*,#335,.F.);
#437=ORIENTED_EDGE('',*,*,#318,.T.);
#438=ORIENTED_EDGE('',*,*,#334,.T.);
#439=ORIENTED_EDGE('',*,*,#323,.T.);
#440=ORIENTED_EDGE('',*,*,#340,.F.);
#441=ORIENTED_EDGE('',*,*,#341,.T.);
#442=ORIENTED_EDGE('',*,*,#338,.T.);
#443=ORIENTED_EDGE('',*,*,#331,.T.);
#444=ORIENTED_EDGE('',*,*,#301,.F.);
#445=ORIENTED_EDGE('',*,*,#315,.T.);
#446=ORIENTED_EDGE('',*,*,#306,.T.);
#447=ORIENTED_EDGE('',*,*,#311,.T.);
#448=ORIENTED_EDGE('',*,*,#342,.F.);
#449=ORIENTED_EDGE('',*,*,#309,.F.);
#450=ORIENTED_EDGE('',*,*,#343,.T.);
#451=ORIENTED_EDGE('',*,*,#326,.F.);
#452=ORIENTED_EDGE('',*,*,#344,.T.);
#453=ORIENTED_EDGE('',*,*,#345,.F.);
#454=ORIENTED_EDGE('',*,*,#346,.F.);
#455=ORIENTED_EDGE('',*,*,#327,.F.);
#456=ORIENTED_EDGE('',*,*,#343,.F.);
#457=ORIENTED_EDGE('',*,*,#344,.F.);
#458=ORIENTED_EDGE('',*,*,#308,.F.);
#459=ORIENTED_EDGE('',*,*,#347,.F.);
#460=ORIENTED_EDGE('',*,*,#313,.F.);
#461=ORIENTED_EDGE('',*,*,#348,.F.);
#462=ORIENTED_EDGE('',*,*,#349,.F.);
#463=ORIENTED_EDGE('',*,*,#350,.F.);
#464=ORIENTED_EDGE('',*,*,#351,.F.);
#465=ORIENTED_EDGE('',*,*,#352,.T.);
#466=ORIENTED_EDGE('',*,*,#353,.F.);
#467=ORIENTED_EDGE('',*,*,#354,.T.);
#468=ORIENTED_EDGE('',*,*,#329,.F.);
#469=ORIENTED_EDGE('',*,*,#355,.F.);
#470=ORIENTED_EDGE('',*,*,#356,.F.);
#471=ORIENTED_EDGE('',*,*,#352,.F.);
#472=ORIENTED_EDGE('',*,*,#349,.T.);
#473=ORIENTED_EDGE('',*,*,#353,.T.);
#474=ORIENTED_EDGE('',*,*,#356,.T.);
#475=ORIENTED_EDGE('',*,*,#357,.F.);
#476=ORIENTED_EDGE('',*,*,#345,.T.);
#477=ORIENTED_EDGE('',*,*,#339,.F.);
#478=ORIENTED_EDGE('',*,*,#336,.F.);
#479=ORIENTED_EDGE('',*,*,#341,.F.);
#480=ORIENTED_EDGE('',*,*,#357,.T.);
#481=ORIENTED_EDGE('',*,*,#355,.T.);
#482=ORIENTED_EDGE('',*,*,#328,.T.);
#483=ORIENTED_EDGE('',*,*,#346,.T.);
#484=ORIENTED_EDGE('',*,*,#325,.F.);
#485=ORIENTED_EDGE('',*,*,#354,.F.);
#486=ORIENTED_EDGE('',*,*,#358,.F.);
#487=ORIENTED_EDGE('',*,*,#359,.F.);
#488=ORIENTED_EDGE('',*,*,#320,.F.);
#489=ORIENTED_EDGE('',*,*,#360,.F.);
#490=ORIENTED_EDGE('',*,*,#288,.F.);
#491=ORIENTED_EDGE('',*,*,#361,.T.);
#492=ORIENTED_EDGE('',*,*,#358,.T.);
#493=ORIENTED_EDGE('',*,*,#351,.T.);
#494=ORIENTED_EDGE('',*,*,#362,.F.);
#495=ORIENTED_EDGE('',*,*,#287,.F.);
#496=ORIENTED_EDGE('',*,*,#296,.T.);
#497=ORIENTED_EDGE('',*,*,#299,.T.);
#498=ORIENTED_EDGE('',*,*,#321,.T.);
#499=ORIENTED_EDGE('',*,*,#359,.T.);
#500=ORIENTED_EDGE('',*,*,#361,.F.);
#501=ORIENTED_EDGE('',*,*,#294,.F.);
#502=ORIENTED_EDGE('',*,*,#293,.F.);
#503=ORIENTED_EDGE('',*,*,#310,.T.);
#504=ORIENTED_EDGE('',*,*,#342,.T.);
#505=ORIENTED_EDGE('',*,*,#360,.T.);
#506=ORIENTED_EDGE('',*,*,#319,.F.);
#507=ORIENTED_EDGE('',*,*,#297,.T.);
#508=ORIENTED_EDGE('',*,*,#291,.F.);
#509=ORIENTED_EDGE('',*,*,#314,.T.);
#510=ORIENTED_EDGE('',*,*,#347,.T.);
#511=ORIENTED_EDGE('',*,*,#307,.F.);
#512=ORIENTED_EDGE('',*,*,#289,.T.);
#513=ORIENTED_EDGE('',*,*,#362,.T.);
#514=ORIENTED_EDGE('',*,*,#350,.T.);
#515=ORIENTED_EDGE('',*,*,#348,.T.);
#516=ORIENTED_EDGE('',*,*,#312,.F.);
#517=PLANE('',#586);
#518=PLANE('',#587);
#519=PLANE('',#588);
#520=PLANE('',#589);
#521=PLANE('',#590);
#522=PLANE('',#591);
#523=PLANE('',#593);
#524=PLANE('',#596);
#525=PLANE('',#598);
#526=PLANE('',#600);
#527=PLANE('',#601);
#528=PLANE('',#602);
#529=PLANE('',#603);
#530=PLANE('',#608);
#531=PLANE('',#609);
#532=PLANE('',#610);
#533=PLANE('',#611);
#534=PLANE('',#612);
#535=PLANE('',#613);
#536=PLANE('',#614);
#537=PLANE('',#615);
#538=PLANE('',#616);
#539=PLANE('',#617);
#540=PLANE('',#618);
#541=PLANE('',#619);
#542=PLANE('',#620);
#543=ADVANCED_FACE('',(#30),#517,.T.);
#544=ADVANCED_FACE('',(#31),#518,.F.);
#545=ADVANCED_FACE('',(#32),#519,.F.);
#546=ADVANCED_FACE('',(#33),#520,.T.);
#547=ADVANCED_FACE('',(#34),#521,.T.);
#548=ADVANCED_FACE('',(#35,#19),#522,.F.);
#549=ADVANCED_FACE('',(#36,#20,#21),#523,.F.);
#550=ADVANCED_FACE('',(#37,#22),#524,.F.);
#551=ADVANCED_FACE('',(#38,#23),#525,.F.);
#552=ADVANCED_FACE('',(#39),#526,.T.);
#553=ADVANCED_FACE('',(#40),#527,.T.);
#554=ADVANCED_FACE('',(#41),#528,.T.);
#555=ADVANCED_FACE('',(#42),#529,.T.);
#556=ADVANCED_FACE('',(#43),#15,.F.);
#557=ADVANCED_FACE('',(#44),#16,.F.);
#558=ADVANCED_FACE('',(#45),#17,.F.);
#559=ADVANCED_FACE('',(#46),#530,.F.);
#560=ADVANCED_FACE('',(#47),#531,.F.);
#561=ADVANCED_FACE('',(#48),#532,.F.);
#562=ADVANCED_FACE('',(#49),#533,.F.);
#563=ADVANCED_FACE('',(#50),#534,.F.);
#564=ADVANCED_FACE('',(#51,#24),#535,.F.);
#565=ADVANCED_FACE('',(#52),#536,.F.);
#566=ADVANCED_FACE('',(#53),#537,.F.);
#567=ADVANCED_FACE('',(#54),#538,.F.);
#568=ADVANCED_FACE('',(#55),#539,.F.);
#569=ADVANCED_FACE('',(#56),#540,.F.);
#570=ADVANCED_FACE('',(#57),#541,.F.);
#571=ADVANCED_FACE('',(#58),#542,.F.);
#572=CLOSED_SHELL('',(#543,#544,#545,#546,#547,#548,#549,#550,#551,#552,
#553,#554,#555,#556,#557,#558,#559,#560,#561,#562,#563,#564,#565,#566,#567,
#568,#569,#570,#571));
#573=DERIVED_UNIT_ELEMENT(#575,1.);
#574=DERIVED_UNIT_ELEMENT(#926,-3.);
#575=(
MASS_UNIT()
NAMED_UNIT(*)
SI_UNIT(.KILO.,.GRAM.)
);
#576=DERIVED_UNIT((#573,#574));
#577=MEASURE_REPRESENTATION_ITEM('density measure',
POSITIVE_RATIO_MEASURE(7850.),#576);
#578=PROPERTY_DEFINITION_REPRESENTATION(#583,#580);
#579=PROPERTY_DEFINITION_REPRESENTATION(#584,#581);
#580=REPRESENTATION('material name',(#582),#923);
#581=REPRESENTATION('density',(#577),#923);
#582=DESCRIPTIVE_REPRESENTATION_ITEM('Steel','Steel');
#583=PROPERTY_DEFINITION('material property','material name',#933);
#584=PROPERTY_DEFINITION('material property','density of part',#933);
#585=AXIS2_PLACEMENT_3D('',#764,#621,#622);
#586=AXIS2_PLACEMENT_3D('',#765,#623,#624);
#587=AXIS2_PLACEMENT_3D('',#782,#633,#634);
#588=AXIS2_PLACEMENT_3D('',#788,#638,#639);
#589=AXIS2_PLACEMENT_3D('',#794,#643,#644);
#590=AXIS2_PLACEMENT_3D('',#803,#649,#650);
#591=AXIS2_PLACEMENT_3D('',#809,#654,#655);
#592=AXIS2_PLACEMENT_3D('',#817,#660,#661);
#593=AXIS2_PLACEMENT_3D('',#818,#662,#663);
#594=AXIS2_PLACEMENT_3D('',#824,#667,#668);
#595=AXIS2_PLACEMENT_3D('',#830,#671,#672);
#596=AXIS2_PLACEMENT_3D('',#831,#673,#674);
#597=AXIS2_PLACEMENT_3D('',#841,#679,#680);
#598=AXIS2_PLACEMENT_3D('',#843,#682,#683);
#599=AXIS2_PLACEMENT_3D('',#858,#690,#691);
#600=AXIS2_PLACEMENT_3D('',#860,#693,#694);
#601=AXIS2_PLACEMENT_3D('',#863,#697,#698);
#602=AXIS2_PLACEMENT_3D('',#865,#700,#701);
#603=AXIS2_PLACEMENT_3D('',#871,#705,#706);
#604=AXIS2_PLACEMENT_3D('',#875,#709,#710);
#605=AXIS2_PLACEMENT_3D('',#876,#711,#712);
#606=AXIS2_PLACEMENT_3D('',#877,#713,#714);
#607=AXIS2_PLACEMENT_3D('',#878,#715,#716);
#608=AXIS2_PLACEMENT_3D('',#879,#717,#718);
#609=AXIS2_PLACEMENT_3D('',#882,#721,#722);
#610=AXIS2_PLACEMENT_3D('',#888,#726,#727);
#611=AXIS2_PLACEMENT_3D('',#893,#731,#732);
#612=AXIS2_PLACEMENT_3D('',#901,#737,#738);
#613=AXIS2_PLACEMENT_3D('',#906,#742,#743);
#614=AXIS2_PLACEMENT_3D('',#908,#745,#746);
#615=AXIS2_PLACEMENT_3D('',#909,#747,#748);
#616=AXIS2_PLACEMENT_3D('',#914,#752,#753);
#617=AXIS2_PLACEMENT_3D('',#917,#756,#757);
#618=AXIS2_PLACEMENT_3D('',#918,#758,#759);
#619=AXIS2_PLACEMENT_3D('',#919,#760,#761);
#620=AXIS2_PLACEMENT_3D('',#920,#762,#763);
#621=DIRECTION('axis',(0.,0.,1.));
#622=DIRECTION('refdir',(1.,0.,0.));
#623=DIRECTION('center_axis',(1.,0.,0.));
#624=DIRECTION('ref_axis',(0.,-1.,0.));
#625=DIRECTION('',(0.,0.,1.));
#626=DIRECTION('',(0.,-1.,0.));
#627=DIRECTION('',(0.,0.,-1.));
#628=DIRECTION('',(0.,1.,0.));
#629=DIRECTION('',(0.,0.,1.));
#630=DIRECTION('',(0.,0.707106781186547,-0.707106781186547));
#631=DIRECTION('',(0.,0.707106781186547,0.707106781186548));
#632=DIRECTION('',(0.,1.,-5.56413883547126E-14));
#633=DIRECTION('center_axis',(0.,-1.,0.));
#634=DIRECTION('ref_axis',(0.,0.,1.));
#635=DIRECTION('',(-1.,0.,0.));
#636=DIRECTION('',(0.,0.,1.));
#637=DIRECTION('',(-1.,0.,0.));
#638=DIRECTION('center_axis',(1.,0.,0.));
#639=DIRECTION('ref_axis',(0.,-1.,0.));
#640=DIRECTION('',(0.,1.,-5.56413883547126E-14));
#641=DIRECTION('',(0.,5.27703322343532E-28,-1.));
#642=DIRECTION('',(0.,-1.,0.));
#643=DIRECTION('center_axis',(0.642787609686524,0.54167522041971,0.541675220419711));
#644=DIRECTION('ref_axis',(-0.766044443118991,0.454519477672033,0.454519477672033));
#645=DIRECTION('',(0.644400477571787,0.,-0.764688187763648));
#646=DIRECTION('',(0.,0.707106781186548,-0.707106781186547));
#647=DIRECTION('',(-0.766044443118991,0.454519477672033,0.454519477672033));
#648=DIRECTION('',(0.,-0.707106781186548,0.707106781186547));
#649=DIRECTION('center_axis',(0.642787609686523,-0.541675220419711,-0.541675220419712));
#650=DIRECTION('ref_axis',(0.766044443118992,0.454519477672031,0.454519477672032));
#651=DIRECTION('',(-0.644400477571789,0.,-0.764688187763647));
#652=DIRECTION('',(0.766044443118992,0.454519477672031,0.454519477672032));
#653=DIRECTION('',(0.,0.707106781186548,-0.707106781186547));
#654=DIRECTION('center_axis',(0.,-0.707106781186548,0.707106781186547));
#655=DIRECTION('ref_axis',(0.,0.707106781186547,0.707106781186548));
#656=DIRECTION('',(-1.,0.,0.));
#657=DIRECTION('',(0.,0.707106781186547,0.707106781186548));
#658=DIRECTION('',(0.,0.707106781186547,0.707106781186548));
#659=DIRECTION('',(-1.,0.,0.));
#660=DIRECTION('center_axis',(0.,0.707106781186548,-0.707106781186547));
#661=DIRECTION('ref_axis',(-1.,0.,0.));
#662=DIRECTION('center_axis',(0.,1.,0.));
#663=DIRECTION('ref_axis',(0.,0.,-1.));
#664=DIRECTION('',(-1.,0.,0.));
#665=DIRECTION('',(0.,0.,-1.));
#666=DIRECTION('',(-1.,0.,0.));
#667=DIRECTION('center_axis',(0.,-1.,0.));
#668=DIRECTION('ref_axis',(0.,0.,1.));
#669=DIRECTION('',(0.766044443118967,0.,-0.642787609686552));
#670=DIRECTION('',(-0.766044443118998,0.,-0.642787609686516));
#671=DIRECTION('center_axis',(0.,-1.,0.));
#672=DIRECTION('ref_axis',(-1.,0.,0.));
#673=DIRECTION('center_axis',(0.,-1.,-5.27703322343532E-28));
#674=DIRECTION('ref_axis',(0.,-5.27703322343532E-28,1.));
#675=DIRECTION('',(-1.,0.,0.));
#676=DIRECTION('',(0.,-5.27703322343532E-28,1.));
#677=DIRECTION('',(-1.,0.,0.));
#678=DIRECTION('',(-0.766044443118967,-3.39201157192851E-28,0.642787609686552));
#679=DIRECTION('center_axis',(0.,1.,5.27703322343532E-28));
#680=DIRECTION('ref_axis',(-1.,0.,0.));
#681=DIRECTION('',(0.766044443118998,-3.39201157192832E-28,0.642787609686516));
#682=DIRECTION('center_axis',(0.,-1.,0.));
#683=DIRECTION('ref_axis',(0.,0.,1.));
#684=DIRECTION('',(0.,0.,-1.));
#685=DIRECTION('',(0.,0.,-1.));
#686=DIRECTION('',(-1.,0.,0.));
#687=DIRECTION('',(0.,0.,-1.));
#688=DIRECTION('',(1.,0.,0.));
#689=DIRECTION('',(-0.766044443119099,0.,0.642787609686395));
#690=DIRECTION('center_axis',(0.,1.,0.));
#691=DIRECTION('ref_axis',(-1.,0.,0.));
#692=DIRECTION('',(0.766044443119067,0.,0.642787609686434));
#693=DIRECTION('center_axis',(0.642787609686516,0.,-0.766044443118998));
#694=DIRECTION('ref_axis',(-0.766044443118998,0.,-0.642787609686516));
#695=DIRECTION('',(0.,1.,0.));
#696=DIRECTION('',(0.,1.,0.));
#697=DIRECTION('center_axis',(0.642787609686552,0.,0.766044443118968));
#698=DIRECTION('ref_axis',(0.766044443118967,0.,-0.642787609686552));
#699=DIRECTION('',(0.,1.,0.));
#700=DIRECTION('center_axis',(0.642787609686434,0.,-0.766044443119067));
#701=DIRECTION('ref_axis',(-0.766044443119067,0.,-0.642787609686434));
#702=DIRECTION('',(-0.766044443119067,0.,-0.642787609686434));
#703=DIRECTION('',(0.,1.,0.));
#704=DIRECTION('',(0.,1.,0.));
#705=DIRECTION('center_axis',(0.642787609686395,0.,0.766044443119099));
#706=DIRECTION('ref_axis',(0.766044443119099,0.,-0.642787609686395));
#707=DIRECTION('',(0.766044443119099,0.,-0.642787609686395));
#708=DIRECTION('',(0.,1.,0.));
#709=DIRECTION('center_axis',(0.,1.,0.));
#710=DIRECTION('ref_axis',(1.,0.,-1.22464679914735E-16));
#711=DIRECTION('center_axis',(0.,1.,0.));
#712=DIRECTION('ref_axis',(1.,0.,-1.34237406054634E-13));
#713=DIRECTION('center_axis',(0.,-1.,0.));
#714=DIRECTION('ref_axis',(-1.,0.,0.));
#715=DIRECTION('center_axis',(0.,0.707106781186548,-0.707106781186547));
#716=DIRECTION('ref_axis',(1.,-8.65956056235493E-17,-8.65956056235494E-17));
#717=DIRECTION('center_axis',(-1.,0.,0.));
#718=DIRECTION('ref_axis',(0.,1.,0.));
#719=DIRECTION('',(0.,1.,-5.56413883547126E-14));
#720=DIRECTION('',(0.,1.,0.));
#721=DIRECTION('center_axis',(0.,0.,1.));
#722=DIRECTION('ref_axis',(1.,0.,0.));
#723=DIRECTION('',(0.,-1.,0.));
#724=DIRECTION('',(1.,0.,0.));
#725=DIRECTION('',(0.,-1.,0.));
#726=DIRECTION('center_axis',(1.,0.,0.));
#727=DIRECTION('ref_axis',(0.,0.,-1.));
#728=DIRECTION('',(0.,0.707106781186547,-0.707106781186547));
#729=DIRECTION('',(0.,-1.,0.));
#730=DIRECTION('',(0.,0.,1.));
#731=DIRECTION('center_axis',(-1.,0.,0.));
#732=DIRECTION('ref_axis',(0.,-1.,0.));
#733=DIRECTION('',(0.,-1.,0.));
#734=DIRECTION('',(0.,0.,-1.));
#735=DIRECTION('',(0.,-1.,0.));
#736=DIRECTION('',(0.,0.,1.));
#737=DIRECTION('center_axis',(0.,0.,-1.));
#738=DIRECTION('ref_axis',(-1.,0.,0.));
#739=DIRECTION('',(0.,1.,0.));
#740=DIRECTION('',(0.,1.,0.));
#741=DIRECTION('',(-1.,0.,0.));
#742=DIRECTION('center_axis',(0.,1.,0.));
#743=DIRECTION('ref_axis',(0.,0.,-1.));
#744=DIRECTION('',(0.,0.,1.));
#745=DIRECTION('center_axis',(1.,0.,0.));
#746=DIRECTION('ref_axis',(0.,0.,-1.));
#747=DIRECTION('center_axis',(1.,0.,0.));
#748=DIRECTION('ref_axis',(0.,0.,-1.));
#749=DIRECTION('',(0.,0.,-1.));
#750=DIRECTION('',(0.,-1.,0.));
#751=DIRECTION('',(0.,1.,-5.56413883547126E-14));
#752=DIRECTION('center_axis',(0.,1.,0.));
#753=DIRECTION('ref_axis',(0.,0.,-1.));
#754=DIRECTION('',(-1.,0.,0.));
#755=DIRECTION('',(-1.,0.,0.));
#756=DIRECTION('center_axis',(0.,0.,-1.));
#757=DIRECTION('ref_axis',(0.,-1.,0.));
#758=DIRECTION('center_axis',(0.,5.56413883547126E-14,1.));
#759=DIRECTION('ref_axis',(0.,1.,-5.56413883547126E-14));
#760=DIRECTION('center_axis',(0.,0.707106781186548,0.707106781186548));
#761=DIRECTION('ref_axis',(0.,0.707106781186548,-0.707106781186548));
#762=DIRECTION('center_axis',(0.,0.,-1.));
#763=DIRECTION('ref_axis',(0.,-1.,0.));
#764=CARTESIAN_POINT('',(0.,0.,0.));
#765=CARTESIAN_POINT('Origin',(492.918959466824,-57.8019140978932,-11.2219761194241));
#766=CARTESIAN_POINT('',(492.918959466824,-47.5802464374329,-21.2358924195268));
#767=CARTESIAN_POINT('',(492.918959466824,-47.5802464374329,-1.21803924661336));
#768=CARTESIAN_POINT('',(492.918959466824,-47.5802464374329,-21.2180392466134));
#769=CARTESIAN_POINT('',(492.918959466824,-70.5802464374329,-1.21803924661336));
#770=CARTESIAN_POINT('',(492.918959466824,-47.5802464374329,-1.21803924661336));
#771=CARTESIAN_POINT('',(492.918959466824,-70.5802464374331,-1.22942096297068));
#772=CARTESIAN_POINT('',(492.918959466824,-70.5802464374329,-1.21803924661336));
#773=CARTESIAN_POINT('',(492.918959466824,-83.8496245435412,-1.22942096297068));
#774=CARTESIAN_POINT('',(492.918959466824,-83.8496245435412,-1.22942096297068));
#775=CARTESIAN_POINT('',(492.918959466824,-83.8496245435412,-33.2447766656072));
#776=CARTESIAN_POINT('',(492.918959466824,-83.8496245435412,-33.2447766656072));
#777=CARTESIAN_POINT('',(492.918959466824,-81.7283041999816,-35.3660970091668));
#778=CARTESIAN_POINT('',(492.918959466824,-83.8496245435412,-33.2447766656072));
#779=CARTESIAN_POINT('',(492.918959466824,-67.5980996103405,-21.2358924195257));
#780=CARTESIAN_POINT('',(492.918959466824,-81.7315617967154,-35.3693546059006));
#781=CARTESIAN_POINT('',(492.918959466824,-67.5980996103405,-21.2358924195257));
#782=CARTESIAN_POINT('Origin',(492.918959466824,-47.5802464374329,-11.5410652357118));
#783=CARTESIAN_POINT('',(489.918959466824,-47.5802464374329,-21.2358924195268));
#784=CARTESIAN_POINT('',(492.918959466824,-47.5802464374329,-21.2358924195268));
#785=CARTESIAN_POINT('',(489.918959466824,-47.5802464374329,-1.21803924661336));
#786=CARTESIAN_POINT('',(489.918959466824,-47.5802464374329,-21.2180392466134));
#787=CARTESIAN_POINT('',(492.918959466824,-47.5802464374329,-1.21803924661336));
#788=CARTESIAN_POINT('Origin',(489.918959466824,-57.8019140978932,-11.2219761194241));
#789=CARTESIAN_POINT('',(489.918959466824,-67.5802464374318,-21.2358924195257));
#790=CARTESIAN_POINT('',(489.918959466824,-67.5980996103405,-21.2358924195257));
#791=CARTESIAN_POINT('',(489.918959466824,-67.5802464374318,-1.21803924661336));
#792=CARTESIAN_POINT('',(489.918959466824,-67.5802464374318,-14.7570221236571));
#793=CARTESIAN_POINT('',(489.918959466824,-47.5802464374329,-1.21803924661336));
#794=CARTESIAN_POINT('Origin',(478.315172584885,-76.0055023003444,-29.6432951095296));
#795=CARTESIAN_POINT('',(476.03283204195,-83.8496245435412,-19.0907967642343));
#796=CARTESIAN_POINT('',(478.315172584885,-83.8496245435412,-21.7991728663327));
#797=CARTESIAN_POINT('',(478.211923053784,-83.8496245435412,-21.6766501501444));
#798=CARTESIAN_POINT('',(478.315172584885,-76.0055023003444,-29.6432951095296));
#799=CARTESIAN_POINT('',(478.315172584885,-76.0055023003444,-29.6432951095296));
#800=CARTESIAN_POINT('',(476.03283204195,-74.6513142492952,-28.2891070584803));
#801=CARTESIAN_POINT('',(484.592676848813,-79.7301529844576,-33.3679457936428));
#802=CARTESIAN_POINT('',(476.03283204195,-74.6513142492952,-28.2891070584803));
#803=CARTESIAN_POINT('Origin',(476.03283204195,-74.6513142492952,-28.2891070584803));
#804=CARTESIAN_POINT('',(478.315172584885,-83.8496245435412,-16.3824206621358));
#805=CARTESIAN_POINT('',(481.673260542287,-83.8496245435412,-12.3974915941554));
#806=CARTESIAN_POINT('',(478.315172584885,-73.2971261982459,-26.9349190074311));
#807=CARTESIAN_POINT('',(478.523343846583,-73.1736113108484,-26.8114041200336));
#808=CARTESIAN_POINT('',(478.315172584885,-73.2971261982459,-26.9349190074311));
#809=CARTESIAN_POINT('Origin',(492.918959466824,-81.7283041999816,-35.3660970091668));
#810=CARTESIAN_POINT('',(469.918959466824,-81.7283041999816,-35.3660970091668));
#811=CARTESIAN_POINT('',(492.918959466824,-81.7283041999816,-35.3660970091668));
#812=CARTESIAN_POINT('',(469.918959466824,-67.5983555587861,-21.2361483679712));
#813=CARTESIAN_POINT('',(469.918959466824,-81.7315617967154,-35.3693546059006));
#814=CARTESIAN_POINT('',(469.918959466824,-67.5980996103405,-21.2358924195257));
#815=CARTESIAN_POINT('',(469.918959466824,-81.7315617967154,-35.3693546059006));
#816=CARTESIAN_POINT('',(492.918959466824,-67.5980996103405,-21.2358924195257));
#817=CARTESIAN_POINT('Origin',(479.922141609101,-74.6513142492951,-28.2891070584803));
#818=CARTESIAN_POINT('Origin',(492.918959466824,-83.8496245435412,-1.22942096297069));
#819=CARTESIAN_POINT('',(469.918959466824,-83.8496245435412,-1.22942096297068));
#820=CARTESIAN_POINT('',(492.918959466824,-83.8496245435412,-1.22942096297068));
#821=CARTESIAN_POINT('',(469.918959466824,-83.8496245435412,-33.2447766656071));
#822=CARTESIAN_POINT('',(469.918959466824,-83.8496245435412,-33.2447766656072));
#823=CARTESIAN_POINT('',(492.918959466824,-83.8496245435412,-33.2447766656072));
#824=CARTESIAN_POINT('Origin',(479.922141609101,-83.8496245435412,-19.0907967642342));
#825=CARTESIAN_POINT('',(476.032832041952,-83.8496245435412,-11.2180392466139));
#826=CARTESIAN_POINT('',(478.315172584887,-83.8496245435412,-13.1331503544114));
#827=CARTESIAN_POINT('',(478.528208030062,-83.8496245435412,-13.3119083178858));
#828=CARTESIAN_POINT('',(478.315172584887,-83.8496245435412,-9.30292813881662));
#829=CARTESIAN_POINT('',(484.587812665336,-83.8496245435412,-4.03955816080454));
#830=CARTESIAN_POINT('Origin',(479.922141609103,-83.8496245435412,-11.218039246614));
#831=CARTESIAN_POINT('Origin',(489.918959466824,-67.5802464374318,-21.2358924195257));
#832=CARTESIAN_POINT('',(469.918959466824,-67.5802464374318,-21.2358924195257));
#833=CARTESIAN_POINT('',(489.918959466824,-67.5802464374318,-21.2358924195257));
#834=CARTESIAN_POINT('',(469.918959466824,-67.5802464374318,-1.21803924661336));
#835=CARTESIAN_POINT('',(469.918959466824,-67.5802464374318,-14.7570221236571));
#836=CARTESIAN_POINT('',(489.918959466824,-67.5802464374318,-1.21803924661336));
#837=CARTESIAN_POINT('',(478.315172584887,-67.5802464374318,-13.1331503544114));
#838=CARTESIAN_POINT('',(476.032832041952,-67.5802464374318,-11.2180392466139));
#839=CARTESIAN_POINT('',(482.57360394702,-67.5802464374318,-16.7063985397715));
#840=CARTESIAN_POINT('',(478.315172584887,-67.5802464374318,-9.30292813881652));
#841=CARTESIAN_POINT('Origin',(479.922141609103,-67.5802464374318,-11.218039246614));
#842=CARTESIAN_POINT('',(478.781944481877,-67.5802464374318,-8.91126001220807));
#843=CARTESIAN_POINT('Origin',(469.918959466824,-67.5943605416798,-21.2331483679712));
#844=CARTESIAN_POINT('',(469.918959466824,-67.5943605416798,-1.21814836797123));
#845=CARTESIAN_POINT('',(469.918959466824,-67.5943605416798,-21.2358924195257));
#846=CARTESIAN_POINT('',(469.918959466824,-67.5943605416798,-6.22756224369768));
#847=CARTESIAN_POINT('',(469.918959466824,-67.5943605416798,-21.2361483679712));
#848=CARTESIAN_POINT('',(469.918959466824,-67.5943605416798,-21.2331483679712));
#849=CARTESIAN_POINT('',(449.918959466824,-67.5943605416798,-21.2361483679712));
#850=CARTESIAN_POINT('',(469.918959466824,-67.5943605416798,-21.2361483679712));
#851=CARTESIAN_POINT('',(449.918959466824,-67.5943605416798,-1.21814836797123));
#852=CARTESIAN_POINT('',(449.918959466824,-67.5943605416798,-21.2331483679712));
#853=CARTESIAN_POINT('',(469.918959466824,-67.5943605416798,-1.21814836797123));
#854=CARTESIAN_POINT('',(458.957960194573,-67.5943605416798,-12.3671059112923));
#855=CARTESIAN_POINT('',(457.588555868812,-67.5943605416798,-11.2180392466141));
#856=CARTESIAN_POINT('',(463.672184074483,-67.5943605416798,-16.3228094302103));
#857=CARTESIAN_POINT('',(458.957960194574,-67.5943605416798,-10.0689725819354));
#858=CARTESIAN_POINT('Origin',(459.922141609103,-67.5943605416798,-11.218039246614));
#859=CARTESIAN_POINT('',(459.425407682376,-67.5943605416798,-9.67673756732601));
#860=CARTESIAN_POINT('Origin',(478.315172584887,-83.8496245435412,-9.30292813881662));
#861=CARTESIAN_POINT('',(476.032832041952,-83.8496245435412,-11.2180392466139));
#862=CARTESIAN_POINT('',(478.315172584887,-67.5802464374318,-9.30292813881652));
#863=CARTESIAN_POINT('Origin',(476.032832041952,-83.8496245435412,-11.2180392466139));
#864=CARTESIAN_POINT('',(478.315172584887,-67.5802464374318,-13.1331503544114));
#865=CARTESIAN_POINT('Origin',(458.957960194573,-83.8496245435412,-10.0689725819357));
#866=CARTESIAN_POINT('',(458.957960194574,-70.5943605416799,-10.0689725819354));
#867=CARTESIAN_POINT('',(457.588555868812,-70.5943605416798,-11.2180392466141));
#868=CARTESIAN_POINT('',(464.349446447437,-70.5943605416798,-5.54497845566202));
#869=CARTESIAN_POINT('',(457.588555868812,-83.8496245435412,-11.2180392466141));
#870=CARTESIAN_POINT('',(458.957960194574,-67.5802464374318,-10.0689725819354));
#871=CARTESIAN_POINT('Origin',(457.588555868812,-83.8496245435412,-11.2180392466141));
#872=CARTESIAN_POINT('',(458.957960194573,-70.5943605416798,-12.3671059112923));
#873=CARTESIAN_POINT('',(458.748145309423,-70.5943605416798,-12.1910503185468));
#874=CARTESIAN_POINT('',(458.957960194574,-67.5802464374318,-12.3671059112927));
#875=CARTESIAN_POINT('Origin',(479.922141609103,-67.5802464374318,-11.218039246614));
#876=CARTESIAN_POINT('Origin',(459.922141609103,-67.5802464374318,-11.218039246614));
#877=CARTESIAN_POINT('Origin',(459.922141609103,-70.5943605416798,-11.218039246614));
#878=CARTESIAN_POINT('Origin',(479.922141609101,-74.6513142492951,-28.2891070584803));
#879=CARTESIAN_POINT('Origin',(469.918959466824,-70.5943605416798,-21.2331483679712));
#880=CARTESIAN_POINT('',(469.918959466824,-67.5980996103405,-21.2358924195257));
#881=CARTESIAN_POINT('',(469.918959466824,-64.1981373197865,-21.2361483679712));
#882=CARTESIAN_POINT('Origin',(469.918959466824,-70.5943605416798,-21.2361483679712));
#883=CARTESIAN_POINT('',(469.918959466824,-70.5943605416798,-21.2361483679712));
#884=CARTESIAN_POINT('',(469.918959466824,-64.1981373197865,-21.2361483679712));
#885=CARTESIAN_POINT('',(449.918959466824,-70.5943605416798,-21.2361483679712));
#886=CARTESIAN_POINT('',(469.918959466824,-70.5943605416798,-21.2361483679712));
#887=CARTESIAN_POINT('',(449.918959466824,-70.5943605416798,-21.2361483679712));
#888=CARTESIAN_POINT('Origin',(469.918959466824,-57.8019140978932,-11.2219761194241));
#889=CARTESIAN_POINT('',(469.918959466824,-83.8496245435412,-33.2447766656072));
#890=CARTESIAN_POINT('',(469.918959466824,-70.5943605416798,-1.22942096297068));
#891=CARTESIAN_POINT('',(469.918959466824,-83.8496245435412,-1.22942096297068));
#892=CARTESIAN_POINT('',(469.918959466824,-70.5943605416798,-16.2275622436977));
#893=CARTESIAN_POINT('Origin',(469.918959466824,-67.5943605416798,-1.23314836797123));
#894=CARTESIAN_POINT('',(469.918959466824,-70.5802464374331,-1.22942096297068));
#895=CARTESIAN_POINT('',(469.918959466824,-83.8496245435412,-1.22942096297068));
#896=CARTESIAN_POINT('',(469.918959466824,-70.5802464374329,-1.21814836797123));
#897=CARTESIAN_POINT('',(469.918959466824,-70.5802464374329,-1.21803924661336));
#898=CARTESIAN_POINT('',(469.918959466824,-70.5943605416798,-1.21814836797123));
#899=CARTESIAN_POINT('',(469.918959466824,-62.6981373197865,-1.21814836797123));
#900=CARTESIAN_POINT('',(469.918959466824,-70.5943605416798,-1.23314836797123));
#901=CARTESIAN_POINT('Origin',(469.918959466824,-67.5943605416798,-1.21814836797123));
#902=CARTESIAN_POINT('',(469.918959466824,-62.6981373197865,-1.21814836797123));
#903=CARTESIAN_POINT('',(449.918959466824,-70.5943605416798,-1.21814836797123));
#904=CARTESIAN_POINT('',(449.918959466824,-67.5943605416798,-1.21814836797123));
#905=CARTESIAN_POINT('',(469.918959466824,-70.5943605416798,-1.21814836797123));
#906=CARTESIAN_POINT('Origin',(469.918959466824,-70.5943605416798,-1.23314836797123));
#907=CARTESIAN_POINT('',(449.918959466824,-70.5943605416798,-1.23314836797123));
#908=CARTESIAN_POINT('Origin',(449.918959466824,-69.0943605416798,-11.2331483679712));
#909=CARTESIAN_POINT('Origin',(469.918959466824,-57.8019140978932,-11.2219761194241));
#910=CARTESIAN_POINT('',(469.918959466824,-70.5802464374329,-1.21803924661336));
#911=CARTESIAN_POINT('',(469.918959466824,-70.5802464374329,-1.21803924661336));
#912=CARTESIAN_POINT('',(469.918959466824,-47.5802464374329,-1.21803924661336));
#913=CARTESIAN_POINT('',(469.918959466824,-67.5980996103405,-21.2358924195257));
#914=CARTESIAN_POINT('Origin',(492.918959466824,-70.5802464374329,-1.21803924661336));
#915=CARTESIAN_POINT('',(492.918959466824,-70.5802464374329,-1.21803924661336));
#916=CARTESIAN_POINT('',(492.918959466824,-70.5802464374331,-1.22942096297068));
#917=CARTESIAN_POINT('Origin',(492.918959466824,-47.5802464374329,-1.21803924661336));
#918=CARTESIAN_POINT('Origin',(492.918959466824,-67.5980996103405,-21.2358924195257));
#919=CARTESIAN_POINT('Origin',(492.918959466824,-83.8496245435412,-33.2447766656072));
#920=CARTESIAN_POINT('Origin',(492.918959466824,-70.5802464374331,-1.22942096297068));
#921=UNCERTAINTY_MEASURE_WITH_UNIT(LENGTH_MEASURE(0.01),#925,
'DISTANCE_ACCURACY_VALUE',
'Maximum model space distance between geometric entities at asserted c
onnectivities');
#922=UNCERTAINTY_MEASURE_WITH_UNIT(LENGTH_MEASURE(0.01),#925,
'DISTANCE_ACCURACY_VALUE',
'Maximum model space distance between geometric entities at asserted c
onnectivities');
#923=(
GEOMETRIC_REPRESENTATION_CONTEXT(3)
GLOBAL_UNCERTAINTY_ASSIGNED_CONTEXT((#921))
GLOBAL_UNIT_ASSIGNED_CONTEXT((#925,#927,#928))
REPRESENTATION_CONTEXT('','3D')
);
#924=(
GEOMETRIC_REPRESENTATION_CONTEXT(3)
GLOBAL_UNCERTAINTY_ASSIGNED_CONTEXT((#922))
GLOBAL_UNIT_ASSIGNED_CONTEXT((#925,#927,#928))
REPRESENTATION_CONTEXT('','3D')
);
#925=(
LENGTH_UNIT()
NAMED_UNIT(*)
SI_UNIT(.MILLI.,.METRE.)
);
#926=(
LENGTH_UNIT()
NAMED_UNIT(*)
SI_UNIT($,.METRE.)
);
#927=(
NAMED_UNIT(*)
PLANE_ANGLE_UNIT()
SI_UNIT($,.RADIAN.)
);
#928=(
NAMED_UNIT(*)
SI_UNIT($,.STERADIAN.)
SOLID_ANGLE_UNIT()
);
#929=SHAPE_DEFINITION_REPRESENTATION(#930,#931);
#930=PRODUCT_DEFINITION_SHAPE('',$,#933);
#931=SHAPE_REPRESENTATION('',(#585),#923);
#932=PRODUCT_DEFINITION_CONTEXT('part definition',#937,'design');
#933=PRODUCT_DEFINITION('alumount4(1x)','alumount4(1x) v1',#934,#932);
#934=PRODUCT_DEFINITION_FORMATION('',$,#939);
#935=PRODUCT_RELATED_PRODUCT_CATEGORY('alumount4(1x) v1',
'alumount4(1x) v1',(#939));
#936=APPLICATION_PROTOCOL_DEFINITION('international standard',
'automotive_design',2009,#937);
#937=APPLICATION_CONTEXT(
'Core Data for Automotive Mechanical Design Process');
#938=PRODUCT_CONTEXT('part definition',#937,'mechanical');
#939=PRODUCT('alumount4(1x)','alumount4(1x) v1',$,(#938));
#940=PRESENTATION_STYLE_ASSIGNMENT((#941));
#941=SURFACE_STYLE_USAGE(.BOTH.,#942);
#942=SURFACE_SIDE_STYLE('',(#943));
#943=SURFACE_STYLE_FILL_AREA(#944);
#944=FILL_AREA_STYLE('Steel - Satin',(#945));
#945=FILL_AREA_STYLE_COLOUR('Steel - Satin',#946);
#946=COLOUR_RGB('Steel - Satin',0.627450980392157,0.627450980392157,0.627450980392157);
ENDSEC;
END-ISO-10303-21;
