ISO-10303-21;
HEADER;
/* Generated by software containing ST-Developer
 * from STEP Tools, Inc. (www.steptools.com) 
 */

FILE_DESCRIPTION(
/* description */ (''),
/* implementation_level */ '2;1');

FILE_NAME(
/* name */ 'alumount2(1x).step',
/* time_stamp */ '2025-12-01T16:00:25+05:30',
/* author */ (''),
/* organization */ (''),
/* preprocessor_version */ 'ST-DEVELOPER v20.1',
/* originating_system */ 'Autodesk Translation Framework v14.21.0.0',
/* authorisation */ '');

FILE_SCHEMA (('AUTOMOTIVE_DESIGN { 1 0 10303 214 3 1 1 }'));
ENDSEC;

DATA;
#10=MECHANICAL_DESIGN_GEOMETRIC_PRESENTATION_REPRESENTATION('',(#13),#1180);
#11=SHAPE_REPRESENTATION_RELATIONSHIP('SRR','None',#1187,#12);
#12=ADVANCED_BREP_SHAPE_REPRESENTATION('',(#14),#1179);
#13=STYLED_ITEM('',(#1196),#14);
#14=MANIFOLD_SOLID_BREP('Body1',#638);
#15=CYLINDRICAL_SURFACE('',#673,2.5);
#16=CYLINDRICAL_SURFACE('',#681,2.5);
#17=CYLINDRICAL_SURFACE('',#683,1.49999999999999);
#18=CYLINDRICAL_SURFACE('',#684,1.49999999999999);
#19=(
BOUNDED_CURVE()
B_SPLINE_CURVE(2,(#892,#893,#894,#895,#896,#897,#898,#899,#900,#901,#902,
#903,#904,#905,#906,#907,#908,#909,#910,#911,#912,#913,#914,#915,#916,#917,
#918,#919,#920,#921,#922,#923,#924,#925,#926,#927,#928,#929,#930,#931,#932,
#933,#934,#935,#936,#937,#938,#939,#940,#941,#942,#943,#944,#945,#946,#947,
#948,#949,#950,#951,#952,#953,#954,#955,#956,#957,#958,#959,#960,#961,#962,
#963,#964,#965,#966,#967,#968),.UNSPECIFIED.,.F.,.F.)
B_SPLINE_CURVE_WITH_KNOTS((3,1,1,1,1,1,1,1,1,1,1,1,1,1,1,1,1,1,1,1,1,1,
1,1,1,1,1,1,1,1,1,1,1,1,1,1,1,1,1,1,1,1,1,1,1,1,1,1,1,1,1,1,1,1,1,1,1,1,
1,1,1,1,1,1,1,1,1,1,1,1,1,1,1,1,1,3),(1.62694472500857,1.63646449690257,
1.63932665114273,1.64263608545369,1.64640388967448,1.6506394041256,1.65535057122586,
1.66054420590395,1.66622620497243,1.67240171058361,1.67907523897678,1.68625078281104,
1.69393189324174,1.7021217463243,1.7108231971899,1.7200388245954,1.72977096783739,
1.74002175755214,1.75079314158996,1.76208690688588,1.77390469805726,1.78624803330552,
1.79911831808411,1.81251685690545,1.82644486358626,1.84090347017872,1.85589373478651,
1.87141664843394,1.88747314112353,1.90406408719797,1.92119031010129,1.93885258662139,
1.95705165068036,1.97578819673127,1.99506288281125,2.01487633329137,2.03522914136107,
2.05612187127699,2.07755506040445,2.09952922107321,2.12204484226925,2.14510239117986,
2.16870231460671,2.19284504026166,2.21753097795657,2.24276052069777,2.26853404569465,
2.29485191528992,2.32171447782039,2.34912206841266,2.37707500972178,2.40557361261602,
2.43461817681404,2.46420899147759,2.49434633576388,2.52503047934109,2.55626168286984,
2.58804019845349,2.62036627005971,2.65324013391567,2.68666201887869,2.72063214678463,
2.75515073277496,2.79021798560514,2.8258341079347,2.86199929660071,2.89871374287627,
2.93597763271403,2.97379114697694,3.01215446165634,3.05106774807839,3.09053117309978,
3.13054489929343,3.17110908512451,3.21222388511787,3.25388277045763),
 .UNSPECIFIED.)
CURVE()
GEOMETRIC_REPRESENTATION_ITEM()
RATIONAL_B_SPLINE_CURVE((1.,0.999999940879323,0.999999864883678,0.999999827139622,
0.999999784035622,0.999999735521532,0.999999681578309,0.999999622214427,
0.999999557463133,0.999999487380338,0.999999412042969,0.999999331547685,
0.999999246009861,0.999999155562782,0.999999060356992,0.999998960559774,
0.999998856354723,0.999998747941395,0.999998635535026,0.999998519366291,
0.999998399681108,0.999998276740471,0.999998150820314,0.999998022211396,
0.999997891219197,0.999997758163842,0.999997623380022,0.999997487216941,
0.999997350038262,0.999997212222059,0.999997074160787,0.999996936261242,
0.999996798944539,0.999996662646087,0.999996527815566,0.999996394916913,
0.999996264428306,0.999996136842152,0.999996012665076,0.99999589241791,
0.99999577663569,0.999995665867644,0.999995560677191,0.999995461641938,
0.999995369353669,0.999995284418351,0.999995207456129,0.99999513910132,
0.99999508000242,0.999995030822098,0.999994992237197,0.999994964938735,
0.999994949631904,0.999994947036074,0.999994957884791,0.999994982925779,
0.999995022920942,0.999995078646366,0.999995150892317,0.99999524046325,
0.999995348177805,0.999995474868811,0.999995621383287,0.999995788582448,
0.999995977341703,0.999996188550659,0.999996423113126,0.999996681947113,
0.999996965984837,0.999997276172725,0.999997613471411,0.999997978855746,
0.999998373314794,0.999998797851841,0.999999253484392,0.999999741204819,
0.999999999917036))
REPRESENTATION_ITEM('')
);
#20=(
BOUNDED_CURVE()
B_SPLINE_CURVE(2,(#974,#975,#976,#977,#978,#979,#980,#981,#982,#983,#984,
#985,#986,#987,#988,#989,#990,#991,#992,#993,#994,#995,#996,#997,#998,#999,
#1000,#1001,#1002,#1003,#1004,#1005,#1006,#1007,#1008,#1009,#1010,#1011,
#1012,#1013,#1014,#1015,#1016,#1017,#1018,#1019,#1020,#1021,#1022,#1023,
#1024,#1025,#1026,#1027,#1028,#1029,#1030,#1031,#1032,#1033,#1034,#1035,
#1036,#1037,#1038,#1039,#1040,#1041,#1042,#1043,#1044,#1045,#1046,#1047,
#1048,#1049,#1050),.UNSPECIFIED.,.F.,.F.)
B_SPLINE_CURVE_WITH_KNOTS((3,1,1,1,1,1,1,1,1,1,1,1,1,1,1,1,1,1,1,1,1,1,
1,1,1,1,1,1,1,1,1,1,1,1,1,1,1,1,1,1,1,1,1,1,1,1,1,1,1,1,1,1,1,1,1,1,1,1,
1,1,1,1,1,1,1,1,1,1,1,1,1,1,1,1,1,3),(6.67955597795409E-6,0.0416647444669586,
0.0827787771461143,0.123342256271987,0.163355333203468,0.202818163365613,
0.241730906413539,0.280093726405328,0.317906791984125,0.355170276570676,
0.391884358566581,0.428049221569327,0.463665054599492,0.498732052341801,
0.53325041539996,0.567220350567546,0.600642071115204,0.633515797095673,
0.66584175566857,0.697620181445541,0.728851316858441,0.75953541255163,0.789672727801074,
0.81926353096194,0.848308099947468,0.87680672274204,0.904759697950917,0.93216733539083,
0.95902995672437,0.98534789614289,1.01112150110229,1.03635113311723,1.06103716861894,
1.08517999988385,1.10878003603982,1.13183770415875,1.15435345044431,1.17632774152539,
1.19776106586787,1.21865393531752,1.23900688678967,1.25882048412376,1.27809532012252,
1.29683201879953,1.31503123786131,1.33269367145639,1.34982005322608,1.36641115969975,
1.38246781408417,1.39799089050372,1.41298131876053,1.42744008969495,1.44136826124166,
1.45476696529697,1.46763741553373,1.47998091633094,1.49179887301745,1.50309280367752,
1.51386435281705,1.52411530726365,1.53384761476238,1.5430634058449,1.55176501970063,
1.55995503497522,1.56763630668098,1.57481201074406,1.58148569817598,1.58766136147267,
1.59334351668366,1.59853730573866,1.60324862518367,1.60748428962352,1.6112522410802,
1.61456181938018,1.61742411374359,1.62694472498559),.UNSPECIFIED.)
CURVE()
GEOMETRIC_REPRESENTATION_ITEM()
RATIONAL_B_SPLINE_CURVE((0.999999999917028,0.999999741184699,0.999999253425589,
0.999998797755877,0.999998373183199,0.999997978690106,0.999997613273359,
0.999997275943931,0.999996965727001,0.999996681661951,0.99999642280237,
0.999996188216046,0.999995976984966,0.999995788205314,0.99999562098747,
0.999995474456006,0.999995347749684,0.999995240021458,0.999995150438467,
0.999995078182036,0.999995022447674,0.999994982445071,0.999994957398098,
0.999994946544806,0.999994949137422,0.999994964442351,0.999994991740173,
0.999995030325643,0.999995079507688,0.999995138609412,0.999995206968091,
0.999995283935175,0.99999536887629,0.999995461171236,0.999995560213991,
0.999995665412714,0.999995776189744,0.999995891981608,0.999996012239023,
0.9999961364269,0.999996264024353,0.999996394524706,0.999996527435502,0.999996662278511,
0.999996798589749,0.999996935919486,0.999997073832267,0.999997211906932,
0.999997349736639,0.999997486928891,0.999997623105572,0.999997757902977,
0.999997890971866,0.999998021977506,0.999998150599739,0.999998276533047,
0.99999839948664,0.999998519184551,0.999998635365754,0.999998747784303,
0.999998856209495,0.999998960426068,0.99999906023444,0.999999155450993,
0.999999245908423,0.999999331456164,0.999999411960915,0.999999487307281,
0.999999557398589,0.999999622157897,0.999999681529283,0.999999735479488,
0.999999784000029,0.999999827109942,0.999999864859367,0.999999940868349,
1.))
REPRESENTATION_ITEM('')
);
#21=CIRCLE('',#656,2.50000002907812);
#22=CIRCLE('',#658,2.5);
#23=CIRCLE('',#662,2.50000000011669);
#24=CIRCLE('',#668,1.49999999999999);
#25=CIRCLE('',#669,1.49999999999999);
#26=CIRCLE('',#671,1.49999999999999);
#27=CIRCLE('',#672,1.49999999999999);
#28=FACE_BOUND('',#71,.T.);
#29=FACE_BOUND('',#72,.T.);
#30=FACE_BOUND('',#74,.T.);
#31=FACE_BOUND('',#78,.T.);
#32=FACE_BOUND('',#84,.T.);
#33=FACE_BOUND('',#85,.T.);
#34=FACE_BOUND('',#87,.T.);
#35=FACE_BOUND('',#88,.T.);
#36=ELLIPSE('',#655,3.53502893223051,2.5);
#37=FACE_OUTER_BOUND('',#68,.T.);
#38=FACE_OUTER_BOUND('',#69,.T.);
#39=FACE_OUTER_BOUND('',#70,.T.);
#40=FACE_OUTER_BOUND('',#73,.T.);
#41=FACE_OUTER_BOUND('',#75,.T.);
#42=FACE_OUTER_BOUND('',#76,.T.);
#43=FACE_OUTER_BOUND('',#77,.T.);
#44=FACE_OUTER_BOUND('',#79,.T.);
#45=FACE_OUTER_BOUND('',#80,.T.);
#46=FACE_OUTER_BOUND('',#81,.T.);
#47=FACE_OUTER_BOUND('',#82,.T.);
#48=FACE_OUTER_BOUND('',#83,.T.);
#49=FACE_OUTER_BOUND('',#86,.T.);
#50=FACE_OUTER_BOUND('',#89,.T.);
#51=FACE_OUTER_BOUND('',#90,.T.);
#52=FACE_OUTER_BOUND('',#91,.T.);
#53=FACE_OUTER_BOUND('',#92,.T.);
#54=FACE_OUTER_BOUND('',#93,.T.);
#55=FACE_OUTER_BOUND('',#94,.T.);
#56=FACE_OUTER_BOUND('',#95,.T.);
#57=FACE_OUTER_BOUND('',#96,.T.);
#58=FACE_OUTER_BOUND('',#97,.T.);
#59=FACE_OUTER_BOUND('',#98,.T.);
#60=FACE_OUTER_BOUND('',#99,.T.);
#61=FACE_OUTER_BOUND('',#100,.T.);
#62=FACE_OUTER_BOUND('',#101,.T.);
#63=FACE_OUTER_BOUND('',#102,.T.);
#64=FACE_OUTER_BOUND('',#103,.T.);
#65=FACE_OUTER_BOUND('',#104,.T.);
#66=FACE_OUTER_BOUND('',#105,.T.);
#67=FACE_OUTER_BOUND('',#106,.T.);
#68=EDGE_LOOP('',(#406,#407,#408,#409));
#69=EDGE_LOOP('',(#410,#411,#412,#413));
#70=EDGE_LOOP('',(#414,#415,#416,#417));
#71=EDGE_LOOP('',(#418,#419,#420));
#72=EDGE_LOOP('',(#421,#422,#423));
#73=EDGE_LOOP('',(#424,#425,#426,#427));
#74=EDGE_LOOP('',(#428,#429,#430));
#75=EDGE_LOOP('',(#431,#432,#433,#434));
#76=EDGE_LOOP('',(#435,#436,#437,#438));
#77=EDGE_LOOP('',(#439,#440,#441,#442));
#78=EDGE_LOOP('',(#443,#444,#445));
#79=EDGE_LOOP('',(#446,#447,#448,#449));
#80=EDGE_LOOP('',(#450,#451,#452,#453));
#81=EDGE_LOOP('',(#454,#455,#456,#457));
#82=EDGE_LOOP('',(#458,#459,#460,#461));
#83=EDGE_LOOP('',(#462,#463,#464,#465,#466,#467,#468,#469,#470,#471,#472,
#473));
#84=EDGE_LOOP('',(#474,#475,#476));
#85=EDGE_LOOP('',(#477,#478,#479));
#86=EDGE_LOOP('',(#480,#481,#482,#483,#484,#485,#486,#487,#488,#489,#490,
#491,#492,#493,#494));
#87=EDGE_LOOP('',(#495,#496,#497));
#88=EDGE_LOOP('',(#498,#499,#500));
#89=EDGE_LOOP('',(#501,#502,#503,#504));
#90=EDGE_LOOP('',(#505,#506,#507,#508));
#91=EDGE_LOOP('',(#509,#510,#511,#512));
#92=EDGE_LOOP('',(#513,#514,#515,#516));
#93=EDGE_LOOP('',(#517,#518,#519,#520,#521,#522));
#94=EDGE_LOOP('',(#523,#524,#525,#526));
#95=EDGE_LOOP('',(#527,#528,#529,#530,#531,#532,#533));
#96=EDGE_LOOP('',(#534,#535,#536,#537));
#97=EDGE_LOOP('',(#538,#539,#540,#541));
#98=EDGE_LOOP('',(#542,#543,#544,#545));
#99=EDGE_LOOP('',(#546,#547,#548,#549));
#100=EDGE_LOOP('',(#550,#551,#552,#553));
#101=EDGE_LOOP('',(#554,#555,#556,#557));
#102=EDGE_LOOP('',(#558,#559,#560,#561));
#103=EDGE_LOOP('',(#562,#563,#564,#565,#566,#567));
#104=EDGE_LOOP('',(#568,#569,#570,#571));
#105=EDGE_LOOP('',(#572,#573,#574,#575));
#106=EDGE_LOOP('',(#576,#577,#578,#579));
#107=LINE('',#852,#184);
#108=LINE('',#854,#185);
#109=LINE('',#856,#186);
#110=LINE('',#857,#187);
#111=LINE('',#860,#188);
#112=LINE('',#862,#189);
#113=LINE('',#863,#190);
#114=LINE('',#867,#191);
#115=LINE('',#869,#192);
#116=LINE('',#871,#193);
#117=LINE('',#872,#194);
#118=LINE('',#876,#195);
#119=LINE('',#879,#196);
#120=LINE('',#883,#197);
#121=LINE('',#885,#198);
#122=LINE('',#887,#199);
#123=LINE('',#888,#200);
#124=LINE('',#970,#201);
#125=LINE('',#971,#202);
#126=LINE('',#1051,#203);
#127=LINE('',#1054,#204);
#128=LINE('',#1056,#205);
#129=LINE('',#1057,#206);
#130=LINE('',#1062,#207);
#131=LINE('',#1064,#208);
#132=LINE('',#1066,#209);
#133=LINE('',#1067,#210);
#134=LINE('',#1070,#211);
#135=LINE('',#1072,#212);
#136=LINE('',#1073,#213);
#137=LINE('',#1077,#214);
#138=LINE('',#1079,#215);
#139=LINE('',#1081,#216);
#140=LINE('',#1082,#217);
#141=LINE('',#1085,#218);
#142=LINE('',#1087,#219);
#143=LINE('',#1088,#220);
#144=LINE('',#1092,#221);
#145=LINE('',#1094,#222);
#146=LINE('',#1096,#223);
#147=LINE('',#1098,#224);
#148=LINE('',#1099,#225);
#149=LINE('',#1101,#226);
#150=LINE('',#1103,#227);
#151=LINE('',#1105,#228);
#152=LINE('',#1107,#229);
#153=LINE('',#1109,#230);
#154=LINE('',#1110,#231);
#155=LINE('',#1116,#232);
#156=LINE('',#1118,#233);
#157=LINE('',#1120,#234);
#158=LINE('',#1122,#235);
#159=LINE('',#1124,#236);
#160=LINE('',#1126,#237);
#161=LINE('',#1128,#238);
#162=LINE('',#1130,#239);
#163=LINE('',#1131,#240);
#164=LINE('',#1133,#241);
#165=LINE('',#1135,#242);
#166=LINE('',#1137,#243);
#167=LINE('',#1138,#244);
#168=LINE('',#1143,#245);
#169=LINE('',#1144,#246);
#170=LINE('',#1146,#247);
#171=LINE('',#1148,#248);
#172=LINE('',#1150,#249);
#173=LINE('',#1151,#250);
#174=LINE('',#1153,#251);
#175=LINE('',#1156,#252);
#176=LINE('',#1158,#253);
#177=LINE('',#1159,#254);
#178=LINE('',#1161,#255);
#179=LINE('',#1164,#256);
#180=LINE('',#1168,#257);
#181=LINE('',#1171,#258);
#182=LINE('',#1173,#259);
#183=LINE('',#1175,#260);
#184=VECTOR('',#695,10.);
#185=VECTOR('',#696,10.);
#186=VECTOR('',#697,10.);
#187=VECTOR('',#698,10.);
#188=VECTOR('',#701,10.);
#189=VECTOR('',#702,10.);
#190=VECTOR('',#703,10.);
#191=VECTOR('',#706,10.);
#192=VECTOR('',#707,10.);
#193=VECTOR('',#708,10.);
#194=VECTOR('',#709,10.);
#195=VECTOR('',#712,10.);
#196=VECTOR('',#715,10.);
#197=VECTOR('',#718,10.);
#198=VECTOR('',#719,10.);
#199=VECTOR('',#720,10.);
#200=VECTOR('',#721,10.);
#201=VECTOR('',#726,10.);
#202=VECTOR('',#727,10.);
#203=VECTOR('',#730,10.);
#204=VECTOR('',#733,10.);
#205=VECTOR('',#734,10.);
#206=VECTOR('',#735,10.);
#207=VECTOR('',#740,10.);
#208=VECTOR('',#741,10.);
#209=VECTOR('',#742,10.);
#210=VECTOR('',#743,10.);
#211=VECTOR('',#746,10.);
#212=VECTOR('',#747,10.);
#213=VECTOR('',#748,10.);
#214=VECTOR('',#751,10.);
#215=VECTOR('',#752,10.);
#216=VECTOR('',#753,10.);
#217=VECTOR('',#754,10.);
#218=VECTOR('',#757,10.);
#219=VECTOR('',#758,10.);
#220=VECTOR('',#759,10.);
#221=VECTOR('',#762,10.);
#222=VECTOR('',#763,10.);
#223=VECTOR('',#764,10.);
#224=VECTOR('',#765,10.);
#225=VECTOR('',#766,10.);
#226=VECTOR('',#767,10.);
#227=VECTOR('',#768,10.);
#228=VECTOR('',#769,10.);
#229=VECTOR('',#770,10.);
#230=VECTOR('',#771,10.);
#231=VECTOR('',#772,10.);
#232=VECTOR('',#779,10.);
#233=VECTOR('',#780,10.);
#234=VECTOR('',#781,10.);
#235=VECTOR('',#782,10.);
#236=VECTOR('',#783,10.);
#237=VECTOR('',#784,10.);
#238=VECTOR('',#785,10.);
#239=VECTOR('',#786,10.);
#240=VECTOR('',#787,10.);
#241=VECTOR('',#788,10.);
#242=VECTOR('',#789,10.);
#243=VECTOR('',#790,10.);
#244=VECTOR('',#791,10.);
#245=VECTOR('',#800,10.);
#246=VECTOR('',#801,10.);
#247=VECTOR('',#804,10.);
#248=VECTOR('',#807,10.);
#249=VECTOR('',#810,10.);
#250=VECTOR('',#811,10.);
#251=VECTOR('',#814,10.);
#252=VECTOR('',#817,10.);
#253=VECTOR('',#818,10.);
#254=VECTOR('',#819,10.);
#255=VECTOR('',#822,10.);
#256=VECTOR('',#827,10.);
#257=VECTOR('',#834,10.);
#258=VECTOR('',#839,10.);
#259=VECTOR('',#842,10.);
#260=VECTOR('',#845,10.);
#261=VERTEX_POINT('',#850);
#262=VERTEX_POINT('',#851);
#263=VERTEX_POINT('',#853);
#264=VERTEX_POINT('',#855);
#265=VERTEX_POINT('',#859);
#266=VERTEX_POINT('',#861);
#267=VERTEX_POINT('',#865);
#268=VERTEX_POINT('',#866);
#269=VERTEX_POINT('',#868);
#270=VERTEX_POINT('',#870);
#271=VERTEX_POINT('',#874);
#272=VERTEX_POINT('',#875);
#273=VERTEX_POINT('',#877);
#274=VERTEX_POINT('',#881);
#275=VERTEX_POINT('',#882);
#276=VERTEX_POINT('',#884);
#277=VERTEX_POINT('',#886);
#278=VERTEX_POINT('',#891);
#279=VERTEX_POINT('',#969);
#280=VERTEX_POINT('',#973);
#281=VERTEX_POINT('',#1053);
#282=VERTEX_POINT('',#1055);
#283=VERTEX_POINT('',#1060);
#284=VERTEX_POINT('',#1061);
#285=VERTEX_POINT('',#1063);
#286=VERTEX_POINT('',#1065);
#287=VERTEX_POINT('',#1069);
#288=VERTEX_POINT('',#1071);
#289=VERTEX_POINT('',#1075);
#290=VERTEX_POINT('',#1076);
#291=VERTEX_POINT('',#1078);
#292=VERTEX_POINT('',#1080);
#293=VERTEX_POINT('',#1084);
#294=VERTEX_POINT('',#1086);
#295=VERTEX_POINT('',#1090);
#296=VERTEX_POINT('',#1091);
#297=VERTEX_POINT('',#1093);
#298=VERTEX_POINT('',#1095);
#299=VERTEX_POINT('',#1097);
#300=VERTEX_POINT('',#1100);
#301=VERTEX_POINT('',#1102);
#302=VERTEX_POINT('',#1104);
#303=VERTEX_POINT('',#1106);
#304=VERTEX_POINT('',#1108);
#305=VERTEX_POINT('',#1114);
#306=VERTEX_POINT('',#1115);
#307=VERTEX_POINT('',#1117);
#308=VERTEX_POINT('',#1119);
#309=VERTEX_POINT('',#1121);
#310=VERTEX_POINT('',#1123);
#311=VERTEX_POINT('',#1125);
#312=VERTEX_POINT('',#1127);
#313=VERTEX_POINT('',#1129);
#314=VERTEX_POINT('',#1132);
#315=VERTEX_POINT('',#1134);
#316=VERTEX_POINT('',#1136);
#317=VERTEX_POINT('',#1155);
#318=VERTEX_POINT('',#1157);
#319=EDGE_CURVE('',#261,#262,#107,.T.);
#320=EDGE_CURVE('',#263,#261,#108,.T.);
#321=EDGE_CURVE('',#264,#263,#109,.T.);
#322=EDGE_CURVE('',#262,#264,#110,.T.);
#323=EDGE_CURVE('',#265,#261,#111,.T.);
#324=EDGE_CURVE('',#265,#266,#112,.T.);
#325=EDGE_CURVE('',#263,#266,#113,.T.);
#326=EDGE_CURVE('',#267,#268,#114,.T.);
#327=EDGE_CURVE('',#267,#269,#115,.T.);
#328=EDGE_CURVE('',#270,#269,#116,.T.);
#329=EDGE_CURVE('',#268,#270,#117,.T.);
#330=EDGE_CURVE('',#262,#265,#36,.T.);
#331=EDGE_CURVE('',#271,#272,#118,.T.);
#332=EDGE_CURVE('',#272,#273,#21,.T.);
#333=EDGE_CURVE('',#273,#271,#119,.T.);
#334=EDGE_CURVE('',#274,#275,#120,.T.);
#335=EDGE_CURVE('',#274,#276,#121,.T.);
#336=EDGE_CURVE('',#277,#276,#122,.T.);
#337=EDGE_CURVE('',#275,#277,#123,.T.);
#338=EDGE_CURVE('',#266,#264,#22,.T.);
#339=EDGE_CURVE('',#278,#273,#19,.T.);
#340=EDGE_CURVE('',#279,#278,#124,.T.);
#341=EDGE_CURVE('',#279,#271,#125,.T.);
#342=EDGE_CURVE('',#272,#280,#20,.T.);
#343=EDGE_CURVE('',#280,#279,#126,.T.);
#344=EDGE_CURVE('',#275,#281,#127,.T.);
#345=EDGE_CURVE('',#277,#282,#128,.T.);
#346=EDGE_CURVE('',#282,#281,#129,.T.);
#347=EDGE_CURVE('',#280,#278,#23,.T.);
#348=EDGE_CURVE('',#283,#284,#130,.T.);
#349=EDGE_CURVE('',#285,#283,#131,.T.);
#350=EDGE_CURVE('',#286,#285,#132,.T.);
#351=EDGE_CURVE('',#284,#286,#133,.T.);
#352=EDGE_CURVE('',#287,#283,#134,.T.);
#353=EDGE_CURVE('',#287,#288,#135,.T.);
#354=EDGE_CURVE('',#285,#288,#136,.T.);
#355=EDGE_CURVE('',#289,#290,#137,.T.);
#356=EDGE_CURVE('',#291,#289,#138,.T.);
#357=EDGE_CURVE('',#292,#291,#139,.T.);
#358=EDGE_CURVE('',#290,#292,#140,.T.);
#359=EDGE_CURVE('',#293,#289,#141,.T.);
#360=EDGE_CURVE('',#293,#294,#142,.T.);
#361=EDGE_CURVE('',#291,#294,#143,.T.);
#362=EDGE_CURVE('',#295,#296,#144,.T.);
#363=EDGE_CURVE('',#296,#297,#145,.T.);
#364=EDGE_CURVE('',#298,#297,#146,.T.);
#365=EDGE_CURVE('',#298,#299,#147,.T.);
#366=EDGE_CURVE('',#299,#267,#148,.T.);
#367=EDGE_CURVE('',#268,#300,#149,.T.);
#368=EDGE_CURVE('',#301,#300,#150,.T.);
#369=EDGE_CURVE('',#302,#301,#151,.T.);
#370=EDGE_CURVE('',#303,#302,#152,.T.);
#371=EDGE_CURVE('',#303,#304,#153,.T.);
#372=EDGE_CURVE('',#295,#304,#154,.T.);
#373=EDGE_CURVE('',#286,#288,#24,.T.);
#374=EDGE_CURVE('',#292,#294,#25,.T.);
#375=EDGE_CURVE('',#305,#306,#155,.T.);
#376=EDGE_CURVE('',#306,#307,#156,.T.);
#377=EDGE_CURVE('',#307,#308,#157,.T.);
#378=EDGE_CURVE('',#308,#309,#158,.T.);
#379=EDGE_CURVE('',#309,#310,#159,.T.);
#380=EDGE_CURVE('',#310,#311,#160,.T.);
#381=EDGE_CURVE('',#311,#312,#161,.T.);
#382=EDGE_CURVE('',#312,#313,#162,.T.);
#383=EDGE_CURVE('',#313,#282,#163,.T.);
#384=EDGE_CURVE('',#276,#314,#164,.T.);
#385=EDGE_CURVE('',#314,#315,#165,.T.);
#386=EDGE_CURVE('',#315,#316,#166,.T.);
#387=EDGE_CURVE('',#316,#305,#167,.T.);
#388=EDGE_CURVE('',#284,#287,#26,.T.);
#389=EDGE_CURVE('',#290,#293,#27,.T.);
#390=EDGE_CURVE('',#297,#316,#168,.T.);
#391=EDGE_CURVE('',#296,#305,#169,.T.);
#392=EDGE_CURVE('',#306,#295,#170,.T.);
#393=EDGE_CURVE('',#304,#307,#171,.T.);
#394=EDGE_CURVE('',#269,#274,#172,.T.);
#395=EDGE_CURVE('',#314,#299,#173,.T.);
#396=EDGE_CURVE('',#315,#298,#174,.T.);
#397=EDGE_CURVE('',#317,#281,#175,.T.);
#398=EDGE_CURVE('',#317,#318,#176,.T.);
#399=EDGE_CURVE('',#318,#270,#177,.T.);
#400=EDGE_CURVE('',#313,#317,#178,.T.);
#401=EDGE_CURVE('',#312,#318,#179,.T.);
#402=EDGE_CURVE('',#303,#308,#180,.T.);
#403=EDGE_CURVE('',#300,#311,#181,.T.);
#404=EDGE_CURVE('',#301,#310,#182,.T.);
#405=EDGE_CURVE('',#302,#309,#183,.T.);
#406=ORIENTED_EDGE('',*,*,#319,.F.);
#407=ORIENTED_EDGE('',*,*,#320,.F.);
#408=ORIENTED_EDGE('',*,*,#321,.F.);
#409=ORIENTED_EDGE('',*,*,#322,.F.);
#410=ORIENTED_EDGE('',*,*,#323,.F.);
#411=ORIENTED_EDGE('',*,*,#324,.T.);
#412=ORIENTED_EDGE('',*,*,#325,.F.);
#413=ORIENTED_EDGE('',*,*,#320,.T.);
#414=ORIENTED_EDGE('',*,*,#326,.F.);
#415=ORIENTED_EDGE('',*,*,#327,.T.);
#416=ORIENTED_EDGE('',*,*,#328,.F.);
#417=ORIENTED_EDGE('',*,*,#329,.F.);
#418=ORIENTED_EDGE('',*,*,#323,.T.);
#419=ORIENTED_EDGE('',*,*,#319,.T.);
#420=ORIENTED_EDGE('',*,*,#330,.T.);
#421=ORIENTED_EDGE('',*,*,#331,.T.);
#422=ORIENTED_EDGE('',*,*,#332,.T.);
#423=ORIENTED_EDGE('',*,*,#333,.T.);
#424=ORIENTED_EDGE('',*,*,#334,.F.);
#425=ORIENTED_EDGE('',*,*,#335,.T.);
#426=ORIENTED_EDGE('',*,*,#336,.F.);
#427=ORIENTED_EDGE('',*,*,#337,.F.);
#428=ORIENTED_EDGE('',*,*,#321,.T.);
#429=ORIENTED_EDGE('',*,*,#325,.T.);
#430=ORIENTED_EDGE('',*,*,#338,.T.);
#431=ORIENTED_EDGE('',*,*,#339,.F.);
#432=ORIENTED_EDGE('',*,*,#340,.F.);
#433=ORIENTED_EDGE('',*,*,#341,.T.);
#434=ORIENTED_EDGE('',*,*,#333,.F.);
#435=ORIENTED_EDGE('',*,*,#342,.F.);
#436=ORIENTED_EDGE('',*,*,#331,.F.);
#437=ORIENTED_EDGE('',*,*,#341,.F.);
#438=ORIENTED_EDGE('',*,*,#343,.F.);
#439=ORIENTED_EDGE('',*,*,#344,.F.);
#440=ORIENTED_EDGE('',*,*,#337,.T.);
#441=ORIENTED_EDGE('',*,*,#345,.T.);
#442=ORIENTED_EDGE('',*,*,#346,.T.);
#443=ORIENTED_EDGE('',*,*,#343,.T.);
#444=ORIENTED_EDGE('',*,*,#340,.T.);
#445=ORIENTED_EDGE('',*,*,#347,.F.);
#446=ORIENTED_EDGE('',*,*,#348,.F.);
#447=ORIENTED_EDGE('',*,*,#349,.F.);
#448=ORIENTED_EDGE('',*,*,#350,.F.);
#449=ORIENTED_EDGE('',*,*,#351,.F.);
#450=ORIENTED_EDGE('',*,*,#352,.F.);
#451=ORIENTED_EDGE('',*,*,#353,.T.);
#452=ORIENTED_EDGE('',*,*,#354,.F.);
#453=ORIENTED_EDGE('',*,*,#349,.T.);
#454=ORIENTED_EDGE('',*,*,#355,.F.);
#455=ORIENTED_EDGE('',*,*,#356,.F.);
#456=ORIENTED_EDGE('',*,*,#357,.F.);
#457=ORIENTED_EDGE('',*,*,#358,.F.);
#458=ORIENTED_EDGE('',*,*,#359,.F.);
#459=ORIENTED_EDGE('',*,*,#360,.T.);
#460=ORIENTED_EDGE('',*,*,#361,.F.);
#461=ORIENTED_EDGE('',*,*,#356,.T.);
#462=ORIENTED_EDGE('',*,*,#362,.T.);
#463=ORIENTED_EDGE('',*,*,#363,.T.);
#464=ORIENTED_EDGE('',*,*,#364,.F.);
#465=ORIENTED_EDGE('',*,*,#365,.T.);
#466=ORIENTED_EDGE('',*,*,#366,.T.);
#467=ORIENTED_EDGE('',*,*,#326,.T.);
#468=ORIENTED_EDGE('',*,*,#367,.T.);
#469=ORIENTED_EDGE('',*,*,#368,.F.);
#470=ORIENTED_EDGE('',*,*,#369,.F.);
#471=ORIENTED_EDGE('',*,*,#370,.F.);
#472=ORIENTED_EDGE('',*,*,#371,.T.);
#473=ORIENTED_EDGE('',*,*,#372,.F.);
#474=ORIENTED_EDGE('',*,*,#350,.T.);
#475=ORIENTED_EDGE('',*,*,#354,.T.);
#476=ORIENTED_EDGE('',*,*,#373,.F.);
#477=ORIENTED_EDGE('',*,*,#357,.T.);
#478=ORIENTED_EDGE('',*,*,#361,.T.);
#479=ORIENTED_EDGE('',*,*,#374,.F.);
#480=ORIENTED_EDGE('',*,*,#375,.T.);
#481=ORIENTED_EDGE('',*,*,#376,.T.);
#482=ORIENTED_EDGE('',*,*,#377,.T.);
#483=ORIENTED_EDGE('',*,*,#378,.T.);
#484=ORIENTED_EDGE('',*,*,#379,.T.);
#485=ORIENTED_EDGE('',*,*,#380,.T.);
#486=ORIENTED_EDGE('',*,*,#381,.T.);
#487=ORIENTED_EDGE('',*,*,#382,.T.);
#488=ORIENTED_EDGE('',*,*,#383,.T.);
#489=ORIENTED_EDGE('',*,*,#345,.F.);
#490=ORIENTED_EDGE('',*,*,#336,.T.);
#491=ORIENTED_EDGE('',*,*,#384,.T.);
#492=ORIENTED_EDGE('',*,*,#385,.T.);
#493=ORIENTED_EDGE('',*,*,#386,.T.);
#494=ORIENTED_EDGE('',*,*,#387,.T.);
#495=ORIENTED_EDGE('',*,*,#352,.T.);
#496=ORIENTED_EDGE('',*,*,#348,.T.);
#497=ORIENTED_EDGE('',*,*,#388,.T.);
#498=ORIENTED_EDGE('',*,*,#359,.T.);
#499=ORIENTED_EDGE('',*,*,#355,.T.);
#500=ORIENTED_EDGE('',*,*,#389,.T.);
#501=ORIENTED_EDGE('',*,*,#324,.F.);
#502=ORIENTED_EDGE('',*,*,#330,.F.);
#503=ORIENTED_EDGE('',*,*,#322,.T.);
#504=ORIENTED_EDGE('',*,*,#338,.F.);
#505=ORIENTED_EDGE('',*,*,#390,.F.);
#506=ORIENTED_EDGE('',*,*,#363,.F.);
#507=ORIENTED_EDGE('',*,*,#391,.T.);
#508=ORIENTED_EDGE('',*,*,#387,.F.);
#509=ORIENTED_EDGE('',*,*,#362,.F.);
#510=ORIENTED_EDGE('',*,*,#392,.F.);
#511=ORIENTED_EDGE('',*,*,#375,.F.);
#512=ORIENTED_EDGE('',*,*,#391,.F.);
#513=ORIENTED_EDGE('',*,*,#392,.T.);
#514=ORIENTED_EDGE('',*,*,#372,.T.);
#515=ORIENTED_EDGE('',*,*,#393,.T.);
#516=ORIENTED_EDGE('',*,*,#376,.F.);
#517=ORIENTED_EDGE('',*,*,#394,.F.);
#518=ORIENTED_EDGE('',*,*,#327,.F.);
#519=ORIENTED_EDGE('',*,*,#366,.F.);
#520=ORIENTED_EDGE('',*,*,#395,.F.);
#521=ORIENTED_EDGE('',*,*,#384,.F.);
#522=ORIENTED_EDGE('',*,*,#335,.F.);
#523=ORIENTED_EDGE('',*,*,#396,.F.);
#524=ORIENTED_EDGE('',*,*,#385,.F.);
#525=ORIENTED_EDGE('',*,*,#395,.T.);
#526=ORIENTED_EDGE('',*,*,#365,.F.);
#527=ORIENTED_EDGE('',*,*,#394,.T.);
#528=ORIENTED_EDGE('',*,*,#334,.T.);
#529=ORIENTED_EDGE('',*,*,#344,.T.);
#530=ORIENTED_EDGE('',*,*,#397,.F.);
#531=ORIENTED_EDGE('',*,*,#398,.T.);
#532=ORIENTED_EDGE('',*,*,#399,.T.);
#533=ORIENTED_EDGE('',*,*,#328,.T.);
#534=ORIENTED_EDGE('',*,*,#400,.T.);
#535=ORIENTED_EDGE('',*,*,#397,.T.);
#536=ORIENTED_EDGE('',*,*,#346,.F.);
#537=ORIENTED_EDGE('',*,*,#383,.F.);
#538=ORIENTED_EDGE('',*,*,#342,.T.);
#539=ORIENTED_EDGE('',*,*,#347,.T.);
#540=ORIENTED_EDGE('',*,*,#339,.T.);
#541=ORIENTED_EDGE('',*,*,#332,.F.);
#542=ORIENTED_EDGE('',*,*,#382,.F.);
#543=ORIENTED_EDGE('',*,*,#401,.T.);
#544=ORIENTED_EDGE('',*,*,#398,.F.);
#545=ORIENTED_EDGE('',*,*,#400,.F.);
#546=ORIENTED_EDGE('',*,*,#358,.T.);
#547=ORIENTED_EDGE('',*,*,#374,.T.);
#548=ORIENTED_EDGE('',*,*,#360,.F.);
#549=ORIENTED_EDGE('',*,*,#389,.F.);
#550=ORIENTED_EDGE('',*,*,#351,.T.);
#551=ORIENTED_EDGE('',*,*,#373,.T.);
#552=ORIENTED_EDGE('',*,*,#353,.F.);
#553=ORIENTED_EDGE('',*,*,#388,.F.);
#554=ORIENTED_EDGE('',*,*,#371,.F.);
#555=ORIENTED_EDGE('',*,*,#402,.T.);
#556=ORIENTED_EDGE('',*,*,#377,.F.);
#557=ORIENTED_EDGE('',*,*,#393,.F.);
#558=ORIENTED_EDGE('',*,*,#396,.T.);
#559=ORIENTED_EDGE('',*,*,#364,.T.);
#560=ORIENTED_EDGE('',*,*,#390,.T.);
#561=ORIENTED_EDGE('',*,*,#386,.F.);
#562=ORIENTED_EDGE('',*,*,#367,.F.);
#563=ORIENTED_EDGE('',*,*,#329,.T.);
#564=ORIENTED_EDGE('',*,*,#399,.F.);
#565=ORIENTED_EDGE('',*,*,#401,.F.);
#566=ORIENTED_EDGE('',*,*,#381,.F.);
#567=ORIENTED_EDGE('',*,*,#403,.F.);
#568=ORIENTED_EDGE('',*,*,#368,.T.);
#569=ORIENTED_EDGE('',*,*,#403,.T.);
#570=ORIENTED_EDGE('',*,*,#380,.F.);
#571=ORIENTED_EDGE('',*,*,#404,.F.);
#572=ORIENTED_EDGE('',*,*,#369,.T.);
#573=ORIENTED_EDGE('',*,*,#404,.T.);
#574=ORIENTED_EDGE('',*,*,#379,.F.);
#575=ORIENTED_EDGE('',*,*,#405,.F.);
#576=ORIENTED_EDGE('',*,*,#370,.T.);
#577=ORIENTED_EDGE('',*,*,#405,.T.);
#578=ORIENTED_EDGE('',*,*,#378,.F.);
#579=ORIENTED_EDGE('',*,*,#402,.F.);
#580=PLANE('',#652);
#581=PLANE('',#653);
#582=PLANE('',#654);
#583=PLANE('',#657);
#584=PLANE('',#659);
#585=PLANE('',#660);
#586=PLANE('',#661);
#587=PLANE('',#663);
#588=PLANE('',#664);
#589=PLANE('',#665);
#590=PLANE('',#666);
#591=PLANE('',#667);
#592=PLANE('',#670);
#593=PLANE('',#674);
#594=PLANE('',#675);
#595=PLANE('',#676);
#596=PLANE('',#677);
#597=PLANE('',#678);
#598=PLANE('',#679);
#599=PLANE('',#680);
#600=PLANE('',#682);
#601=PLANE('',#685);
#602=PLANE('',#686);
#603=PLANE('',#687);
#604=PLANE('',#688);
#605=PLANE('',#689);
#606=PLANE('',#690);
#607=ADVANCED_FACE('',(#37),#580,.F.);
#608=ADVANCED_FACE('',(#38),#581,.F.);
#609=ADVANCED_FACE('',(#39,#28,#29),#582,.T.);
#610=ADVANCED_FACE('',(#40,#30),#583,.F.);
#611=ADVANCED_FACE('',(#41),#584,.F.);
#612=ADVANCED_FACE('',(#42),#585,.F.);
#613=ADVANCED_FACE('',(#43,#31),#586,.F.);
#614=ADVANCED_FACE('',(#44),#587,.F.);
#615=ADVANCED_FACE('',(#45),#588,.F.);
#616=ADVANCED_FACE('',(#46),#589,.F.);
#617=ADVANCED_FACE('',(#47),#590,.F.);
#618=ADVANCED_FACE('',(#48,#32,#33),#591,.F.);
#619=ADVANCED_FACE('',(#49,#34,#35),#592,.T.);
#620=ADVANCED_FACE('',(#50),#15,.F.);
#621=ADVANCED_FACE('',(#51),#593,.F.);
#622=ADVANCED_FACE('',(#52),#594,.F.);
#623=ADVANCED_FACE('',(#53),#595,.T.);
#624=ADVANCED_FACE('',(#54),#596,.F.);
#625=ADVANCED_FACE('',(#55),#597,.F.);
#626=ADVANCED_FACE('',(#56),#598,.T.);
#627=ADVANCED_FACE('',(#57),#599,.T.);
#628=ADVANCED_FACE('',(#58),#16,.F.);
#629=ADVANCED_FACE('',(#59),#600,.T.);
#630=ADVANCED_FACE('',(#60),#17,.F.);
#631=ADVANCED_FACE('',(#61),#18,.F.);
#632=ADVANCED_FACE('',(#62),#601,.T.);
#633=ADVANCED_FACE('',(#63),#602,.T.);
#634=ADVANCED_FACE('',(#64),#603,.T.);
#635=ADVANCED_FACE('',(#65),#604,.T.);
#636=ADVANCED_FACE('',(#66),#605,.T.);
#637=ADVANCED_FACE('',(#67),#606,.T.);
#638=CLOSED_SHELL('',(#607,#608,#609,#610,#611,#612,#613,#614,#615,#616,
#617,#618,#619,#620,#621,#622,#623,#624,#625,#626,#627,#628,#629,#630,#631,
#632,#633,#634,#635,#636,#637));
#639=DERIVED_UNIT_ELEMENT(#641,1.);
#640=DERIVED_UNIT_ELEMENT(#1182,-3.);
#641=(
MASS_UNIT()
NAMED_UNIT(*)
SI_UNIT(.KILO.,.GRAM.)
);
#642=DERIVED_UNIT((#639,#640));
#643=MEASURE_REPRESENTATION_ITEM('density measure',
POSITIVE_RATIO_MEASURE(7850.),#642);
#644=PROPERTY_DEFINITION_REPRESENTATION(#649,#646);
#645=PROPERTY_DEFINITION_REPRESENTATION(#650,#647);
#646=REPRESENTATION('material name',(#648),#1179);
#647=REPRESENTATION('density',(#643),#1179);
#648=DESCRIPTIVE_REPRESENTATION_ITEM('Steel','Steel');
#649=PROPERTY_DEFINITION('material property','material name',#1189);
#650=PROPERTY_DEFINITION('material property','density of part',#1189);
#651=AXIS2_PLACEMENT_3D('',#848,#691,#692);
#652=AXIS2_PLACEMENT_3D('',#849,#693,#694);
#653=AXIS2_PLACEMENT_3D('',#858,#699,#700);
#654=AXIS2_PLACEMENT_3D('',#864,#704,#705);
#655=AXIS2_PLACEMENT_3D('',#873,#710,#711);
#656=AXIS2_PLACEMENT_3D('',#878,#713,#714);
#657=AXIS2_PLACEMENT_3D('',#880,#716,#717);
#658=AXIS2_PLACEMENT_3D('',#889,#722,#723);
#659=AXIS2_PLACEMENT_3D('',#890,#724,#725);
#660=AXIS2_PLACEMENT_3D('',#972,#728,#729);
#661=AXIS2_PLACEMENT_3D('',#1052,#731,#732);
#662=AXIS2_PLACEMENT_3D('',#1058,#736,#737);
#663=AXIS2_PLACEMENT_3D('',#1059,#738,#739);
#664=AXIS2_PLACEMENT_3D('',#1068,#744,#745);
#665=AXIS2_PLACEMENT_3D('',#1074,#749,#750);
#666=AXIS2_PLACEMENT_3D('',#1083,#755,#756);
#667=AXIS2_PLACEMENT_3D('',#1089,#760,#761);
#668=AXIS2_PLACEMENT_3D('',#1111,#773,#774);
#669=AXIS2_PLACEMENT_3D('',#1112,#775,#776);
#670=AXIS2_PLACEMENT_3D('',#1113,#777,#778);
#671=AXIS2_PLACEMENT_3D('',#1139,#792,#793);
#672=AXIS2_PLACEMENT_3D('',#1140,#794,#795);
#673=AXIS2_PLACEMENT_3D('',#1141,#796,#797);
#674=AXIS2_PLACEMENT_3D('',#1142,#798,#799);
#675=AXIS2_PLACEMENT_3D('',#1145,#802,#803);
#676=AXIS2_PLACEMENT_3D('',#1147,#805,#806);
#677=AXIS2_PLACEMENT_3D('',#1149,#808,#809);
#678=AXIS2_PLACEMENT_3D('',#1152,#812,#813);
#679=AXIS2_PLACEMENT_3D('',#1154,#815,#816);
#680=AXIS2_PLACEMENT_3D('',#1160,#820,#821);
#681=AXIS2_PLACEMENT_3D('',#1162,#823,#824);
#682=AXIS2_PLACEMENT_3D('',#1163,#825,#826);
#683=AXIS2_PLACEMENT_3D('',#1165,#828,#829);
#684=AXIS2_PLACEMENT_3D('',#1166,#830,#831);
#685=AXIS2_PLACEMENT_3D('',#1167,#832,#833);
#686=AXIS2_PLACEMENT_3D('',#1169,#835,#836);
#687=AXIS2_PLACEMENT_3D('',#1170,#837,#838);
#688=AXIS2_PLACEMENT_3D('',#1172,#840,#841);
#689=AXIS2_PLACEMENT_3D('',#1174,#843,#844);
#690=AXIS2_PLACEMENT_3D('',#1176,#846,#847);
#691=DIRECTION('axis',(0.,0.,1.));
#692=DIRECTION('refdir',(1.,0.,0.));
#693=DIRECTION('center_axis',(-0.766044443118607,0.454454540954975,0.454584405113623));
#694=DIRECTION('ref_axis',(0.642787609686982,0.541597831853202,0.541752597930833));
#695=DIRECTION('',(-0.510327514689384,0.,-0.859980132183853));
#696=DIRECTION('',(0.,0.707207790353943,-0.707005757588079));
#697=DIRECTION('',(0.642787609686982,0.541597831853209,0.541752597930827));
#698=DIRECTION('',(0.,-0.707207790353944,0.707005757588078));
#699=DIRECTION('center_axis',(0.766044443118596,0.454454540954984,0.454584405113632));
#700=DIRECTION('ref_axis',(0.642787609686994,-0.541597831853195,-0.541752597930825));
#701=DIRECTION('',(-0.510327514689396,0.,0.859980132183845));
#702=DIRECTION('',(0.,-0.707207790353944,0.707005757588078));
#703=DIRECTION('',(0.642787609686994,-0.541597831853201,-0.541752597930819));
#704=DIRECTION('center_axis',(0.,1.,0.));
#705=DIRECTION('ref_axis',(0.,0.,1.));
#706=DIRECTION('',(0.,0.,-1.));
#707=DIRECTION('',(1.,0.,0.));
#708=DIRECTION('',(0.,0.,1.));
#709=DIRECTION('',(1.,0.,0.));
#710=DIRECTION('center_axis',(0.,-1.,0.));
#711=DIRECTION('ref_axis',(0.,0.,-1.));
#712=DIRECTION('',(-0.642787605837458,0.,-0.766044446348741));
#713=DIRECTION('center_axis',(0.,-1.,0.));
#714=DIRECTION('ref_axis',(0.,0.,-1.));
#715=DIRECTION('',(-0.642787605837457,0.,0.766044446348742));
#716=DIRECTION('center_axis',(0.,0.707207790353943,-0.707005757588079));
#717=DIRECTION('ref_axis',(0.,-0.707005757588079,-0.707207790353943));
#718=DIRECTION('',(0.,-0.707005757588079,-0.707207790353943));
#719=DIRECTION('',(-1.,0.,0.));
#720=DIRECTION('',(0.,0.707005757588022,0.707207790354));
#721=DIRECTION('',(-1.,0.,0.));
#722=DIRECTION('center_axis',(0.,0.707207790353943,-0.707005757588079));
#723=DIRECTION('ref_axis',(1.,0.,0.));
#724=DIRECTION('center_axis',(0.766044443118964,-9.18278272139654E-5,0.642787603127352));
#725=DIRECTION('ref_axis',(0.642787609686556,0.00010943614296833,-0.76604443530201));
#726=DIRECTION('',(0.642787609686556,0.000109436142982366,-0.766044435302009));
#727=DIRECTION('',(0.,0.99999998979569,0.000142858738765583));
#728=DIRECTION('center_axis',(-0.766044443118964,-9.18278272139655E-5,0.642787603127353));
#729=DIRECTION('ref_axis',(0.642787609686557,-0.00010943614296833,0.766044435302009));
#730=DIRECTION('',(0.642787609686557,-0.000109436142982366,0.766044435302009));
#731=DIRECTION('center_axis',(0.,0.99999998979569,0.000142858738765592));
#732=DIRECTION('ref_axis',(0.,0.000142858738765592,-0.99999998979569));
#733=DIRECTION('',(0.,0.000142858738765592,-0.99999998979569));
#734=DIRECTION('',(0.,0.000142858738765592,-0.99999998979569));
#735=DIRECTION('',(1.,0.,0.));
#736=DIRECTION('center_axis',(0.,-0.99999998979569,-0.000142858738765592));
#737=DIRECTION('ref_axis',(0.,0.000142858738765592,-0.99999998979569));
#738=DIRECTION('center_axis',(0.,0.766044443119692,0.642787609685689));
#739=DIRECTION('ref_axis',(0.,-0.642787609685689,0.766044443119692));
#740=DIRECTION('',(0.,0.642787609685689,-0.766044443119692));
#741=DIRECTION('',(1.,0.,0.));
#742=DIRECTION('',(0.,-0.642787609685689,0.766044443119692));
#743=DIRECTION('',(-1.,0.,0.));
#744=DIRECTION('center_axis',(0.,-0.76604444311972,0.642787609685655));
#745=DIRECTION('ref_axis',(0.,-0.642787609685655,-0.76604444311972));
#746=DIRECTION('',(0.,0.642787609685655,0.76604444311972));
#747=DIRECTION('',(-1.,0.,0.));
#748=DIRECTION('',(0.,-0.642787609685655,-0.76604444311972));
#749=DIRECTION('center_axis',(0.,0.766044443119696,0.642787609685684));
#750=DIRECTION('ref_axis',(0.,-0.642787609685684,0.766044443119695));
#751=DIRECTION('',(0.,0.642787609685684,-0.766044443119695));
#752=DIRECTION('',(1.,0.,0.));
#753=DIRECTION('',(0.,-0.642787609685684,0.766044443119695));
#754=DIRECTION('',(-1.,0.,0.));
#755=DIRECTION('center_axis',(0.,-0.766044443117424,0.642787609688392));
#756=DIRECTION('ref_axis',(0.,-0.642787609688392,-0.766044443117424));
#757=DIRECTION('',(0.,0.642787609688392,0.766044443117424));
#758=DIRECTION('',(-1.,0.,0.));
#759=DIRECTION('',(0.,-0.642787609688392,-0.766044443117424));
#760=DIRECTION('center_axis',(1.,0.,0.));
#761=DIRECTION('ref_axis',(0.,1.,0.));
#762=DIRECTION('',(0.,0.707106781183883,-0.707106781189212));
#763=DIRECTION('',(0.,0.707106781189212,0.707106781183883));
#764=DIRECTION('',(0.,-0.70710678118655,0.707106781186545));
#765=DIRECTION('',(0.,-0.774943032225361,-0.632031088480118));
#766=DIRECTION('',(0.,0.707207790353997,-0.707005757588025));
#767=DIRECTION('',(0.,-0.999999632142057,-0.000857738743011881));
#768=DIRECTION('',(0.,1.,0.));
#769=DIRECTION('',(0.,0.,-1.));
#770=DIRECTION('',(0.,0.999999988368754,0.00015252046500327));
#771=DIRECTION('',(0.,-0.000152520464951725,0.999999988368754));
#772=DIRECTION('',(0.,-0.707106781186544,-0.707106781186552));
#773=DIRECTION('center_axis',(-1.,0.,0.));
#774=DIRECTION('ref_axis',(0.,1.,0.));
#775=DIRECTION('center_axis',(-1.,0.,0.));
#776=DIRECTION('ref_axis',(0.,1.,0.));
#777=DIRECTION('center_axis',(1.,0.,0.));
#778=DIRECTION('ref_axis',(0.,1.,0.));
#779=DIRECTION('',(0.,-0.707106781183883,0.707106781189212));
#780=DIRECTION('',(0.,-0.707106781186544,-0.707106781186552));
#781=DIRECTION('',(0.,0.000152520464951725,-0.999999988368754));
#782=DIRECTION('',(0.,0.999999988368754,0.00015252046500327));
#783=DIRECTION('',(0.,0.,-1.));
#784=DIRECTION('',(0.,1.,0.));
#785=DIRECTION('',(0.,0.999999632142057,0.000857738743011881));
#786=DIRECTION('',(0.,-0.000857738744678923,0.999999632142055));
#787=DIRECTION('',(0.,-0.999999988368754,-0.000152520464510149));
#788=DIRECTION('',(0.,0.707207790353997,-0.707005757588025));
#789=DIRECTION('',(0.,0.774943032225356,0.632031088480124));
#790=DIRECTION('',(0.,-0.70710678118655,0.707106781186545));
#791=DIRECTION('',(0.,-0.707106781189212,-0.707106781183883));
#792=DIRECTION('center_axis',(-1.,0.,0.));
#793=DIRECTION('ref_axis',(0.,1.,0.));
#794=DIRECTION('center_axis',(-1.,0.,0.));
#795=DIRECTION('ref_axis',(0.,1.,0.));
#796=DIRECTION('center_axis',(0.,0.707207790353944,-0.707005757588078));
#797=DIRECTION('ref_axis',(7.61074890740843E-15,-0.707005757588078,-0.707207790353944));
#798=DIRECTION('center_axis',(0.,0.707106781183883,-0.707106781189212));
#799=DIRECTION('ref_axis',(1.,0.,0.));
#800=DIRECTION('',(1.,0.,0.));
#801=DIRECTION('',(1.,0.,0.));
#802=DIRECTION('center_axis',(0.,-0.707106781189212,-0.707106781183883));
#803=DIRECTION('ref_axis',(-1.,0.,0.));
#804=DIRECTION('',(-1.,0.,0.));
#805=DIRECTION('center_axis',(0.,-0.707106781186552,0.707106781186544));
#806=DIRECTION('ref_axis',(0.,-0.707106781186544,-0.707106781186552));
#807=DIRECTION('',(1.,0.,0.));
#808=DIRECTION('center_axis',(0.,-0.707005757588025,-0.707207790353997));
#809=DIRECTION('ref_axis',(0.,-0.707207790353997,0.707005757588025));
#810=DIRECTION('',(0.,-0.707207790353997,0.707005757588025));
#811=DIRECTION('',(-1.,0.,0.));
#812=DIRECTION('center_axis',(0.,-0.632031088480118,0.774943032225362));
#813=DIRECTION('ref_axis',(0.,0.774943032225361,0.632031088480118));
#814=DIRECTION('',(-1.,0.,0.));
#815=DIRECTION('center_axis',(1.,0.,0.));
#816=DIRECTION('ref_axis',(0.,0.,-1.));
#817=DIRECTION('',(0.,-0.999999988368754,-0.000152520464510149));
#818=DIRECTION('',(0.,0.000857738744678923,-0.999999632142055));
#819=DIRECTION('',(0.,0.999999632142057,0.000857738743011714));
#820=DIRECTION('center_axis',(0.,0.000152520464510149,-0.999999988368754));
#821=DIRECTION('ref_axis',(1.,0.,0.));
#822=DIRECTION('',(1.,0.,0.));
#823=DIRECTION('center_axis',(0.,0.999999988368754,0.000152520464510355));
#824=DIRECTION('ref_axis',(-1.72490310441696E-13,0.000152520464510355,-0.999999988368754));
#825=DIRECTION('center_axis',(0.,-0.999999632142055,-0.000857738744678923));
#826=DIRECTION('ref_axis',(0.,0.000857738744678923,-0.999999632142055));
#827=DIRECTION('',(1.,0.,0.));
#828=DIRECTION('center_axis',(1.,0.,0.));
#829=DIRECTION('ref_axis',(0.,-1.77096653654209E-12,-1.));
#830=DIRECTION('center_axis',(1.,0.,0.));
#831=DIRECTION('ref_axis',(0.,-8.26946079742758E-16,-1.));
#832=DIRECTION('center_axis',(0.,-0.999999988368754,-0.000152520464951725));
#833=DIRECTION('ref_axis',(0.,0.000152520464951725,-0.999999988368754));
#834=DIRECTION('',(1.,0.,0.));
#835=DIRECTION('center_axis',(0.,0.707106781186545,0.70710678118655));
#836=DIRECTION('ref_axis',(0.,-0.70710678118655,0.707106781186545));
#837=DIRECTION('center_axis',(0.,0.000857738743011881,-0.999999632142057));
#838=DIRECTION('ref_axis',(0.,0.999999632142057,0.000857738743011881));
#839=DIRECTION('',(1.,0.,0.));
#840=DIRECTION('center_axis',(0.,0.,-1.));
#841=DIRECTION('ref_axis',(0.,1.,0.));
#842=DIRECTION('',(1.,0.,0.));
#843=DIRECTION('center_axis',(0.,-1.,0.));
#844=DIRECTION('ref_axis',(0.,0.,-1.));
#845=DIRECTION('',(1.,0.,0.));
#846=DIRECTION('center_axis',(0.,0.00015252046500327,-0.999999988368754));
#847=DIRECTION('ref_axis',(0.,0.999999988368754,0.00015252046500327));
#848=CARTESIAN_POINT('',(0.,0.,0.));
#849=CARTESIAN_POINT('Origin',(-201.973475600227,509.806180283293,29.439428761311));
#850=CARTESIAN_POINT('',(-200.058364492431,517.882218875973,24.592953245421));
#851=CARTESIAN_POINT('',(-201.973475600227,517.882218875973,21.3656973044351));
#852=CARTESIAN_POINT('',(-206.063871165922,517.882218875973,14.4727534242463));
#853=CARTESIAN_POINT('',(-200.058364492431,511.419808187922,31.0535177735128));
#854=CARTESIAN_POINT('',(-200.058364492431,511.419808187922,31.0535177735128));
#855=CARTESIAN_POINT('',(-201.973475600227,509.806180283293,29.4394287613111));
#856=CARTESIAN_POINT('',(-200.775565434427,510.815511419698,30.449048322469));
#857=CARTESIAN_POINT('',(-201.973475600227,509.806180283293,29.4394287613113));
#858=CARTESIAN_POINT('Origin',(-200.058364492431,511.419808187922,31.0535177735128));
#859=CARTESIAN_POINT('',(-198.143253384632,517.882218875973,21.3656973044332));
#860=CARTESIAN_POINT('',(-198.042071098192,517.882218875973,21.195189633256));
#861=CARTESIAN_POINT('',(-198.143253384632,509.806180283292,29.4394287613101));
#862=CARTESIAN_POINT('',(-198.143253384634,509.806180283293,29.4394287613114));
#863=CARTESIAN_POINT('',(-196.166959992656,508.141001614522,27.7737742539089));
#864=CARTESIAN_POINT('Origin',(-213.058364492418,517.882218875973,1.22942137991756));
#865=CARTESIAN_POINT('',(-213.058364492418,517.882218875973,33.2447766656408));
#866=CARTESIAN_POINT('',(-213.058364492418,517.882218875973,1.22942137991756));
#867=CARTESIAN_POINT('',(-213.058364492418,517.882218875973,33.2447766656408));
#868=CARTESIAN_POINT('',(-190.058364492418,517.882218875973,33.2447766656408));
#869=CARTESIAN_POINT('',(-213.058364492418,517.882218875973,33.2447766656408));
#870=CARTESIAN_POINT('',(-190.058364492418,517.882218875973,1.22942137991756));
#871=CARTESIAN_POINT('',(-190.058364492418,517.882218875973,1.22942137991756));
#872=CARTESIAN_POINT('',(-213.058364492418,517.882218875973,1.22942137991756));
#873=CARTESIAN_POINT('Origin',(-200.05836449243,517.882218875973,19.0934245069127));
#874=CARTESIAN_POINT('',(-200.05836449243,517.882218875973,15.1096730794884));
#875=CARTESIAN_POINT('',(-201.958950671264,517.882218875973,12.8446426497152));
#876=CARTESIAN_POINT('',(-207.119480528075,517.882218875973,6.69456259041349));
#877=CARTESIAN_POINT('',(-198.157778313595,517.882218875973,12.8446426497145));
#878=CARTESIAN_POINT('Origin',(-200.05836449243,517.882218875973,11.2205206597813));
#879=CARTESIAN_POINT('',(-199.326090780092,517.882218875973,14.236983243143));
#880=CARTESIAN_POINT('Origin',(-190.058364492418,506.177539767367,25.8097513312271));
#881=CARTESIAN_POINT('',(-190.058364492418,515.74571972146,35.3806654721917));
#882=CARTESIAN_POINT('',(-190.058364492418,501.611715169193,21.2426220107615));
#883=CARTESIAN_POINT('',(-190.058364492418,505.300074031669,24.932034852409));
#884=CARTESIAN_POINT('',(-210.058364492418,515.74571972146,35.3806654721917));
#885=CARTESIAN_POINT('',(-190.058364492418,515.74571972146,35.3806654721917));
#886=CARTESIAN_POINT('',(-210.058364492418,501.611715169193,21.2426220107615));
#887=CARTESIAN_POINT('',(-210.058364492418,504.459135658728,24.0908561743432));
#888=CARTESIAN_POINT('',(-190.058364492418,501.611715169193,21.2426220107615));
#889=CARTESIAN_POINT('Origin',(-200.05836449243,508.670043930906,28.3029677485273));
#890=CARTESIAN_POINT('Origin',(-200.05836449243,501.612591646591,15.1073488210385));
#891=CARTESIAN_POINT('',(-198.143253384543,501.612917698882,12.825008301287));
#892=CARTESIAN_POINT('Ctrl Pts',(-198.143253384595,501.612928722083,12.8250083029244));
#893=CARTESIAN_POINT('Ctrl Pts',(-198.143295653744,501.6129287144,12.8250586773334));
#894=CARTESIAN_POINT('Ctrl Pts',(-198.143350634714,501.613653209519,12.8251243046034));
#895=CARTESIAN_POINT('Ctrl Pts',(-198.143378039687,501.614122895192,12.8251570316772));
#896=CARTESIAN_POINT('Ctrl Pts',(-198.14340946689,501.614805465778,12.8251945826704));
#897=CARTESIAN_POINT('Ctrl Pts',(-198.143445007329,501.615762699903,12.8252370748668));
#898=CARTESIAN_POINT('Ctrl Pts',(-198.143484738083,501.617065678369,12.8252846102771));
#899=CARTESIAN_POINT('Ctrl Pts',(-198.143528725058,501.618795010388,12.8253372789642));
#900=CARTESIAN_POINT('Ctrl Pts',(-198.143577025129,501.621041023846,12.8253951616101));
#901=CARTESIAN_POINT('Ctrl Pts',(-198.143629687786,501.623903926942,12.8254583315127));
#902=CARTESIAN_POINT('Ctrl Pts',(-198.143686756441,501.627493946846,12.8255268561527));
#903=CARTESIAN_POINT('Ctrl Pts',(-198.143748269445,501.631931449672,12.8256007984341));
#904=CARTESIAN_POINT('Ctrl Pts',(-198.143814260919,501.637347045114,12.8256802176757));
#905=CARTESIAN_POINT('Ctrl Pts',(-198.143884761402,501.643881678376,12.8257651704103));
#906=CARTESIAN_POINT('Ctrl Pts',(-198.143959798396,501.651686711469,12.8258557110348));
#907=CARTESIAN_POINT('Ctrl Pts',(-198.144039396797,501.660923995553,12.8259518923434));
#908=CARTESIAN_POINT('Ctrl Pts',(-198.144123579264,501.671765935661,12.8260537659681));
#909=CARTESIAN_POINT('Ctrl Pts',(-198.144212366516,501.684395548914,12.8261613827461));
#910=CARTESIAN_POINT('Ctrl Pts',(-198.144305777583,501.699006517119,12.8262747930269));
#911=CARTESIAN_POINT('Ctrl Pts',(-198.144403830023,501.715803234507,12.8263940469325));
#912=CARTESIAN_POINT('Ctrl Pts',(-198.144506540094,501.735000851228,12.8265191945776));
#913=CARTESIAN_POINT('Ctrl Pts',(-198.144613922916,501.75682531314,12.8266502862583));
#914=CARTESIAN_POINT('Ctrl Pts',(-198.144725992598,501.781513398312,12.8267873726139));
#915=CARTESIAN_POINT('Ctrl Pts',(-198.144842762349,501.809312750645,12.8269305047666));
#916=CARTESIAN_POINT('Ctrl Pts',(-198.144964244582,501.840481910917,12.8270797344429));
#917=CARTESIAN_POINT('Ctrl Pts',(-198.145090450995,501.87529034553,12.8272351140793));
#918=CARTESIAN_POINT('Ctrl Pts',(-198.145221392645,501.914018473205,12.8273966969145));
#919=CARTESIAN_POINT('Ctrl Pts',(-198.145357080017,501.95695768983,12.8275645370715));
#920=CARTESIAN_POINT('Ctrl Pts',(-198.145497523078,502.004410391638,12.8277386896286));
#921=CARTESIAN_POINT('Ctrl Pts',(-198.145642731329,502.056689996883,12.8279192106836));
#922=CARTESIAN_POINT('Ctrl Pts',(-198.14579271385,502.11412096614,12.8281061574101));
#923=CARTESIAN_POINT('Ctrl Pts',(-198.145947479342,502.177038821372,12.8282995881081));
#924=CARTESIAN_POINT('Ctrl Pts',(-198.146107036158,502.245790163848,12.8284995622488));
#925=CARTESIAN_POINT('Ctrl Pts',(-198.146271392339,502.320732691032,12.8287061405154));
#926=CARTESIAN_POINT('Ctrl Pts',(-198.146440555642,502.402235212509,12.8289193848396));
#927=CARTESIAN_POINT('Ctrl Pts',(-198.146614533566,502.49067766505,12.8291393584342));
#928=CARTESIAN_POINT('Ctrl Pts',(-198.146793333371,502.58645112685,12.8293661258232));
#929=CARTESIAN_POINT('Ctrl Pts',(-198.146976962107,502.689957831039,12.8295997528686));
#930=CARTESIAN_POINT('Ctrl Pts',(-198.147165426626,502.801611178494,12.829840306795));
#931=CARTESIAN_POINT('Ctrl Pts',(-198.147358733603,502.921835750017,12.830087856212));
#932=CARTESIAN_POINT('Ctrl Pts',(-198.14755688955,503.051067317916,12.8303424711348));
#933=CARTESIAN_POINT('Ctrl Pts',(-198.147759900831,503.189752857039,12.8306042230025));
#934=CARTESIAN_POINT('Ctrl Pts',(-198.147967773677,503.338350555291,12.8308731846959));
#935=CARTESIAN_POINT('Ctrl Pts',(-198.148180514194,503.497329823676,12.8311494305527));
#936=CARTESIAN_POINT('Ctrl Pts',(-198.148398128379,503.667171305885,12.8314330363821));
#937=CARTESIAN_POINT('Ctrl Pts',(-198.148620622126,503.84836688747,12.8317240794788));
#938=CARTESIAN_POINT('Ctrl Pts',(-198.148848001235,504.041419704625,12.8320226386344));
#939=CARTESIAN_POINT('Ctrl Pts',(-198.149080271426,504.246844152595,12.8323287941497));
#940=CARTESIAN_POINT('Ctrl Pts',(-198.149317438341,504.465165893742,12.8326426278449));
#941=CARTESIAN_POINT('Ctrl Pts',(-198.149559507556,504.696921865282,12.8329642230697));
#942=CARTESIAN_POINT('Ctrl Pts',(-198.149806484582,504.942660286718,12.833293664712));
#943=CARTESIAN_POINT('Ctrl Pts',(-198.150058374877,505.20294066698,12.833631039207));
#944=CARTESIAN_POINT('Ctrl Pts',(-198.150315183851,505.478333811294,12.8339764345449));
#945=CARTESIAN_POINT('Ctrl Pts',(-198.150576916868,505.769421827792,12.8343299402782));
#946=CARTESIAN_POINT('Ctrl Pts',(-198.150843579253,506.076798133876,12.8346916475288));
#947=CARTESIAN_POINT('Ctrl Pts',(-198.151115176298,506.401067462351,12.8350616489945));
#948=CARTESIAN_POINT('Ctrl Pts',(-198.151391713266,506.742845867336,12.8354400389552));
#949=CARTESIAN_POINT('Ctrl Pts',(-198.151673195393,507.10276072997,12.8358269132783));
#950=CARTESIAN_POINT('Ctrl Pts',(-198.151959627893,507.481450763918,12.8362223694241));
#951=CARTESIAN_POINT('Ctrl Pts',(-198.152251015963,507.879566020684,12.8366265064513));
#952=CARTESIAN_POINT('Ctrl Pts',(-198.152547364785,508.297767894751,12.8370394250212));
#953=CARTESIAN_POINT('Ctrl Pts',(-198.152848679529,508.736729128545,12.8374612274023));
#954=CARTESIAN_POINT('Ctrl Pts',(-198.153154965357,509.197133817239,12.837892017475));
#955=CARTESIAN_POINT('Ctrl Pts',(-198.153466227423,509.679677413393,12.8383319007347));
#956=CARTESIAN_POINT('Ctrl Pts',(-198.15378247088,510.18506673146,12.8387809842963));
#957=CARTESIAN_POINT('Ctrl Pts',(-198.15410370088,510.714019952131,12.8392393768974));
#958=CARTESIAN_POINT('Ctrl Pts',(-198.154429922576,511.267266626558,12.8397071889019));
#959=CARTESIAN_POINT('Ctrl Pts',(-198.154761141123,511.845547680443,12.8401845323028));
#960=CARTESIAN_POINT('Ctrl Pts',(-198.155097361685,512.449615417994,12.8406715207255));
#961=CARTESIAN_POINT('Ctrl Pts',(-198.155438589432,513.080233525767,12.8411682694309));
#962=CARTESIAN_POINT('Ctrl Pts',(-198.155784829542,513.7381770764,12.8416748953174));
#963=CARTESIAN_POINT('Ctrl Pts',(-198.156136087207,514.424232532218,12.8421915169242));
#964=CARTESIAN_POINT('Ctrl Pts',(-198.156492367631,515.139197748746,12.8427182544334));
#965=CARTESIAN_POINT('Ctrl Pts',(-198.156853676031,515.883881978114,12.8432552296723));
#966=CARTESIAN_POINT('Ctrl Pts',(-198.157220017641,516.659105872366,12.8438025661158));
#967=CARTESIAN_POINT('Ctrl Pts',(-198.157591367747,517.465636402455,12.8443603438782));
#968=CARTESIAN_POINT('Ctrl Pts',(-198.157778313595,517.882218875973,12.8446426497145));
#969=CARTESIAN_POINT('',(-200.05836449243,501.612591646591,15.1073488210385));
#970=CARTESIAN_POINT('',(-199.50300110303,501.61268619855,14.4454925132801));
#971=CARTESIAN_POINT('',(-200.05836449243,501.612591646591,15.1073488210385));
#972=CARTESIAN_POINT('Origin',(-201.973475600317,501.612917698882,12.825008301287));
#973=CARTESIAN_POINT('',(-201.973475600317,501.612917698882,12.825008301287));
#974=CARTESIAN_POINT('Ctrl Pts',(-201.958950671264,517.882218875973,12.8446426497152));
#975=CARTESIAN_POINT('Ctrl Pts',(-201.95913761343,517.465644607018,12.8443603494389));
#976=CARTESIAN_POINT('Ctrl Pts',(-201.959508956414,516.659129130973,12.8438025823147));
#977=CARTESIAN_POINT('Ctrl Pts',(-201.959875291416,515.883918430318,12.8432552556308));
#978=CARTESIAN_POINT('Ctrl Pts',(-201.960236593741,515.139245596688,12.8427182892597));
#979=CARTESIAN_POINT('Ctrl Pts',(-201.960592868594,514.424290134547,12.8421915597828));
#980=CARTESIAN_POINT('Ctrl Pts',(-201.960944121166,513.73824293775,12.8416749454258));
#981=CARTESIAN_POINT('Ctrl Pts',(-201.961290356635,513.080306286798,12.841168326057));
#982=CARTESIAN_POINT('Ctrl Pts',(-201.961631580165,512.449693845971,12.8406715831853));
#983=CARTESIAN_POINT('Ctrl Pts',(-201.961967796914,511.845630660335,12.8401845999573));
#984=CARTESIAN_POINT('Ctrl Pts',(-201.962299012028,511.267353152628,12.8397072611552));
#985=CARTESIAN_POINT('Ctrl Pts',(-201.962625230647,510.714109120003,12.839239453194));
#986=CARTESIAN_POINT('Ctrl Pts',(-201.962946457908,510.185157730641,12.8387810641189));
#987=CARTESIAN_POINT('Ctrl Pts',(-201.963262698943,509.679769520225,12.8383319836024));
#988=CARTESIAN_POINT('Ctrl Pts',(-201.963573958885,509.197226388267,12.8378921029411));
#989=CARTESIAN_POINT('Ctrl Pts',(-201.963880242867,508.736821594286,12.8374613150523));
#990=CARTESIAN_POINT('Ctrl Pts',(-201.964181556028,508.297859753832,12.8370395144708));
#991=CARTESIAN_POINT('Ctrl Pts',(-201.964477903513,507.879656834348,12.8366265973452));
#992=CARTESIAN_POINT('Ctrl Pts',(-201.964769290476,507.48154015087,12.8362224614337));
#993=CARTESIAN_POINT('Ctrl Pts',(-201.965055722084,507.102848361552,12.8358270061004));
#994=CARTESIAN_POINT('Ctrl Pts',(-201.965337203519,506.742931463008,12.8354401323105));
#995=CARTESIAN_POINT('Ctrl Pts',(-201.965613739983,506.401150785476,12.835061742626));
#996=CARTESIAN_POINT('Ctrl Pts',(-201.965885336699,506.076878987781,12.8346917412004));
#997=CARTESIAN_POINT('Ctrl Pts',(-201.966151998917,505.769500052091,12.8343300337736));
#998=CARTESIAN_POINT('Ctrl Pts',(-201.966413731917,505.478409278475,12.8339765276663));
#999=CARTESIAN_POINT('Ctrl Pts',(-201.966670541014,505.203013279223,12.8336311317736));
#1000=CARTESIAN_POINT('Ctrl Pts',(-201.966922431562,504.94272997294,12.8332937565592));
#1001=CARTESIAN_POINT('Ctrl Pts',(-201.967169408961,504.696988578402,12.8329643140479));
#1002=CARTESIAN_POINT('Ctrl Pts',(-201.967411478659,504.46522960814,12.8326427178186));
#1003=CARTESIAN_POINT('Ctrl Pts',(-201.96764864616,504.24690486177,12.8323288829962));
#1004=CARTESIAN_POINT('Ctrl Pts',(-201.96788091703,504.041477419025,12.8320227262433));
#1005=CARTESIAN_POINT('Ctrl Pts',(-201.968108296905,503.848421632499,12.8317241657511));
#1006=CARTESIAN_POINT('Ctrl Pts',(-201.968330791496,503.667223120063,12.8314331212291));
#1007=CARTESIAN_POINT('Ctrl Pts',(-201.968548406598,503.497378756952,12.8311495138952));
#1008=CARTESIAN_POINT('Ctrl Pts',(-201.968761148099,503.338396667494,12.830873266464));
#1009=CARTESIAN_POINT('Ctrl Pts',(-201.968969021987,503.189796216459,12.8306043031344));
#1010=CARTESIAN_POINT('Ctrl Pts',(-201.969172034366,503.051108000013,12.8303425495761));
#1011=CARTESIAN_POINT('Ctrl Pts',(-201.96937019146,502.921873836239,12.8300879329157));
#1012=CARTESIAN_POINT('Ctrl Pts',(-201.969563499628,502.801646755204,12.8298403817203));
#1013=CARTESIAN_POINT('Ctrl Pts',(-201.969751965378,502.689990988542,12.8295998259807));
#1014=CARTESIAN_POINT('Ctrl Pts',(-201.969935595382,502.586481958511,12.8293661970926));
#1015=CARTESIAN_POINT('Ctrl Pts',(-201.970114396487,502.490706266498,12.8291394278364));
#1016=CARTESIAN_POINT('Ctrl Pts',(-201.970288375738,502.40226168092,12.8289194523545));
#1017=CARTESIAN_POINT('Ctrl Pts',(-201.970457540394,502.320757124483,12.8287062061271));
#1018=CARTESIAN_POINT('Ctrl Pts',(-201.970621897951,502.245812660749,12.828499625945));
#1019=CARTESIAN_POINT('Ctrl Pts',(-201.970781456161,502.177059479944,12.8282996498799));
#1020=CARTESIAN_POINT('Ctrl Pts',(-201.970936223064,502.114139883962,12.8281062172516));
#1021=CARTESIAN_POINT('Ctrl Pts',(-201.971086207011,502.056707270488,12.8279192685914));
#1022=CARTESIAN_POINT('Ctrl Pts',(-201.971231416699,502.004426116157,12.8277387456019));
#1023=CARTESIAN_POINT('Ctrl Pts',(-201.971371861208,501.956971958675,12.8275645911117));
#1024=CARTESIAN_POINT('Ctrl Pts',(-201.971507550035,501.914031377802,12.8273967490248));
#1025=CARTESIAN_POINT('Ctrl Pts',(-201.971638493148,501.875301975075,12.8272351642646));
#1026=CARTESIAN_POINT('Ctrl Pts',(-201.971764701028,501.840492352178,12.8270797827098));
#1027=CARTESIAN_POINT('Ctrl Pts',(-201.971886184732,501.809322087779,12.8269305511227));
#1028=CARTESIAN_POINT('Ctrl Pts',(-201.972002955957,501.781521712722,12.8267874170682));
#1029=CARTESIAN_POINT('Ctrl Pts',(-201.972115027113,501.756832683345,12.8266503288209));
#1030=CARTESIAN_POINT('Ctrl Pts',(-201.972222411409,501.735007352761,12.8265192352593));
#1031=CARTESIAN_POINT('Ctrl Pts',(-201.972325122953,501.715808939827,12.8263940857451));
#1032=CARTESIAN_POINT('Ctrl Pts',(-201.972423176863,501.699011495543,12.826274829983));
#1033=CARTESIAN_POINT('Ctrl Pts',(-201.972516589398,501.684399866563,12.8261614178587));
#1034=CARTESIAN_POINT('Ctrl Pts',(-201.972605378113,501.671769655417,12.8260537992511));
#1035=CARTESIAN_POINT('Ctrl Pts',(-201.972689562039,501.660927177031,12.8259519238112));
#1036=CARTESIAN_POINT('Ctrl Pts',(-201.972769161893,501.651689410997,12.8258557407025));
#1037=CARTESIAN_POINT('Ctrl Pts',(-201.972844200332,501.643883948983,12.8257651982936));
#1038=CARTESIAN_POINT('Ctrl Pts',(-201.972914702254,501.637348936531,12.8256802437911));
#1039=CARTESIAN_POINT('Ctrl Pts',(-201.972980695156,501.631933008335,12.8256008227988));
#1040=CARTESIAN_POINT('Ctrl Pts',(-201.97304220958,501.627495215911,12.825526878785));
#1041=CARTESIAN_POINT('Ctrl Pts',(-201.973099279642,501.6239049463,12.825458352432));
#1042=CARTESIAN_POINT('Ctrl Pts',(-201.973151943694,501.621041830152,12.8253951808372));
#1043=CARTESIAN_POINT('Ctrl Pts',(-201.973200245144,501.618795637091,12.8253372965215));
#1044=CARTESIAN_POINT('Ctrl Pts',(-201.973244233482,501.61706615575,12.8252846261892));
#1045=CARTESIAN_POINT('Ctrl Pts',(-201.973283965578,501.615763055127,12.825237089161));
#1046=CARTESIAN_POINT('Ctrl Pts',(-201.973319507338,501.614805722941,12.8251945953773));
#1047=CARTESIAN_POINT('Ctrl Pts',(-201.973350935834,501.614123075395,12.8251570428317));
#1048=CARTESIAN_POINT('Ctrl Pts',(-201.973378342069,501.613653330944,12.8251243142457));
#1049=CARTESIAN_POINT('Ctrl Pts',(-201.973433327389,501.612928714629,12.8250586817748));
#1050=CARTESIAN_POINT('Ctrl Pts',(-201.973475600264,501.612928722313,12.8250083029244));
#1051=CARTESIAN_POINT('',(-197.439524324102,501.612145782728,18.2283609682246));
#1052=CARTESIAN_POINT('Origin',(-190.058364492418,501.611715169193,21.2426220107615));
#1053=CARTESIAN_POINT('',(-190.058364492418,501.614574295211,1.22896366600357));
#1054=CARTESIAN_POINT('',(-190.058364492418,501.612001785905,19.2363274543092));
#1055=CARTESIAN_POINT('',(-210.058364492418,501.614574295211,1.22896366600357));
#1056=CARTESIAN_POINT('',(-210.058364492418,501.611715169193,21.2426220107615));
#1057=CARTESIAN_POINT('',(-210.058364492418,501.614574295211,1.22896366600356));
#1058=CARTESIAN_POINT('Origin',(-200.05836449243,501.613147268451,11.2180392933937));
#1059=CARTESIAN_POINT('Origin',(-213.058364492418,503.497199830501,35.5890638889468));
#1060=CARTESIAN_POINT('',(-210.058364492418,502.348133165823,36.9584682147095));
#1061=CARTESIAN_POINT('',(-210.058364492418,503.4971998305,35.5890638889468));
#1062=CARTESIAN_POINT('',(-210.058364492418,505.238756888384,33.5135570085014));
#1063=CARTESIAN_POINT('',(-213.058364492418,502.348133165823,36.9584682147095));
#1064=CARTESIAN_POINT('',(-213.058364492418,502.348133165823,36.9584682147095));
#1065=CARTESIAN_POINT('',(-213.058364492418,503.4971998305,35.5890638889468));
#1066=CARTESIAN_POINT('',(-213.058364492418,505.238756888384,33.5135570085014));
#1067=CARTESIAN_POINT('',(-213.058364492418,503.497199830503,35.5890638889443));
#1068=CARTESIAN_POINT('Origin',(-213.058364492418,502.348133165823,36.9584682147095));
#1069=CARTESIAN_POINT('',(-210.058364492418,501.199066501146,35.5890638889468));
#1070=CARTESIAN_POINT('',(-210.058364492418,498.956476453196,32.9164491425804));
#1071=CARTESIAN_POINT('',(-213.058364492418,501.199066501146,35.5890638889468));
#1072=CARTESIAN_POINT('',(-213.058364492418,501.199066501143,35.5890638889442));
#1073=CARTESIAN_POINT('',(-213.058364492418,498.956476453196,32.9164491425804));
#1074=CARTESIAN_POINT('Origin',(-213.058364492418,493.212925447383,12.1623447225433));
#1075=CARTESIAN_POINT('',(-210.058364492418,492.063858782707,13.531749048305));
#1076=CARTESIAN_POINT('',(-210.058364492418,493.212925447383,12.1623447225434));
#1077=CARTESIAN_POINT('',(-210.058364492418,491.311386059051,14.4285111200531));
#1078=CARTESIAN_POINT('',(-213.058364492418,492.063858782707,13.531749048305));
#1079=CARTESIAN_POINT('',(-213.058364492418,492.063858782707,13.531749048305));
#1080=CARTESIAN_POINT('',(-213.058364492418,493.212925447383,12.1623447225434));
#1081=CARTESIAN_POINT('',(-213.058364492418,491.311386059051,14.4285111200531));
#1082=CARTESIAN_POINT('',(-213.058364492418,493.212925447382,12.1623447225447));
#1083=CARTESIAN_POINT('Origin',(-213.058364492418,492.063858782707,13.531749048305));
#1084=CARTESIAN_POINT('',(-210.058364492418,490.914792118025,12.1623447225473));
#1085=CARTESIAN_POINT('',(-210.058364492418,496.564512955232,18.8954198274106));
#1086=CARTESIAN_POINT('',(-213.058364492418,490.914792118025,12.1623447225473));
#1087=CARTESIAN_POINT('',(-213.058364492418,490.914792118026,12.1623447225489));
#1088=CARTESIAN_POINT('',(-213.058364492418,496.564512955232,18.8954198274106));
#1089=CARTESIAN_POINT('Origin',(-213.058364492418,499.744965136567,25.3668716104103));
#1090=CARTESIAN_POINT('',(-213.058364492418,501.614271696388,49.5121679708811));
#1091=CARTESIAN_POINT('',(-213.058364492418,515.777620523555,35.3488191437145));
#1092=CARTESIAN_POINT('',(-213.058364492418,514.264943560164,36.8614961071168));
#1093=CARTESIAN_POINT('',(-213.058364492418,515.777898460727,35.3490970808866));
#1094=CARTESIAN_POINT('',(-213.058364492418,509.275737560405,28.8469361806131));
#1095=CARTESIAN_POINT('',(-213.058364492418,516.719439848325,34.4075556932889));
#1096=CARTESIAN_POINT('',(-213.058364492418,517.882218875973,33.2447766656408));
#1097=CARTESIAN_POINT('',(-213.058364492418,516.719256859751,34.4074064507476));
#1098=CARTESIAN_POINT('',(-213.058364492418,509.408441126768,28.4448225790974));
#1099=CARTESIAN_POINT('',(-213.058364492418,515.316086091956,35.8101763653913));
#1100=CARTESIAN_POINT('',(-213.058364492418,504.612840769865,1.21803971603344));
#1101=CARTESIAN_POINT('',(-213.058364492418,517.882218875973,1.22942137991756));
#1102=CARTESIAN_POINT('',(-213.058364492418,501.612840769865,1.21803971603344));
#1103=CARTESIAN_POINT('',(-213.058364492418,501.612840769865,1.21803971603344));
#1104=CARTESIAN_POINT('',(-213.058364492418,501.612840769865,1.22896340160409));
#1105=CARTESIAN_POINT('',(-213.058364492418,501.612840769865,1.22896340160409));
#1106=CARTESIAN_POINT('',(-213.058364492418,481.61202462941,1.22591286779042));
#1107=CARTESIAN_POINT('',(-213.058364492418,481.61202462941,1.22591286779042));
#1108=CARTESIAN_POINT('',(-213.058364492418,481.60771139716,29.5056076716525));
#1109=CARTESIAN_POINT('',(-213.058364492418,481.61052671889,11.0469588705705));
#1110=CARTESIAN_POINT('',(-213.058364492418,501.617807230294,49.5157035047871));
#1111=CARTESIAN_POINT('Origin',(-213.058364492418,502.348133165823,34.6248824744158));
#1112=CARTESIAN_POINT('Origin',(-213.058364492418,492.063858782702,11.1981633080163));
#1113=CARTESIAN_POINT('Origin',(-210.058364492418,499.744965136567,25.3668716104103));
#1114=CARTESIAN_POINT('',(-210.058364492418,515.777620523555,35.3488191437145));
#1115=CARTESIAN_POINT('',(-210.058364492418,501.614271696388,49.5121679708811));
#1116=CARTESIAN_POINT('',(-210.058364492418,514.264943560164,36.8614961071168));
#1117=CARTESIAN_POINT('',(-210.058364492418,481.60771139716,29.5056076716525));
#1118=CARTESIAN_POINT('',(-210.058364492418,501.617807230294,49.5157035047871));
#1119=CARTESIAN_POINT('',(-210.058364492418,481.61202462941,1.22591286779042));
#1120=CARTESIAN_POINT('',(-210.058364492418,481.61052671889,11.0469588705705));
#1121=CARTESIAN_POINT('',(-210.058364492418,501.612840769865,1.22896340160409));
#1122=CARTESIAN_POINT('',(-210.058364492418,481.61202462941,1.22591286779042));
#1123=CARTESIAN_POINT('',(-210.058364492418,501.612840769865,1.21803971603344));
#1124=CARTESIAN_POINT('',(-210.058364492418,501.612840769865,1.22896340160409));
#1125=CARTESIAN_POINT('',(-210.058364492418,504.612840769865,1.21803971603344));
#1126=CARTESIAN_POINT('',(-210.058364492418,501.612840769865,1.21803971603344));
#1127=CARTESIAN_POINT('',(-210.058364492418,504.615584020785,1.2180420690269));
#1128=CARTESIAN_POINT('',(-210.058364492418,517.882218875973,1.22942137991756));
#1129=CARTESIAN_POINT('',(-210.058364492418,504.615574260306,1.22942137991756));
#1130=CARTESIAN_POINT('',(-210.058364492418,504.605220659291,13.3002264703221));
#1131=CARTESIAN_POINT('',(-210.058364492418,502.182110482627,1.22905022688751));
#1132=CARTESIAN_POINT('',(-210.058364492418,516.719256859751,34.4074064507476));
#1133=CARTESIAN_POINT('',(-210.058364492418,514.2478365147,36.8781207686668));
#1134=CARTESIAN_POINT('',(-210.058364492418,516.719439848325,34.407555693289));
#1135=CARTESIAN_POINT('',(-210.058364492418,501.337668851112,21.8624303591042));
#1136=CARTESIAN_POINT('',(-210.058364492418,515.777898460727,35.3490970808866));
#1137=CARTESIAN_POINT('',(-210.058364492418,517.882218875973,33.2447766656408));
#1138=CARTESIAN_POINT('',(-210.058364492418,509.275737560405,28.8469361806131));
#1139=CARTESIAN_POINT('Origin',(-210.058364492418,502.348133165823,34.6248824744158));
#1140=CARTESIAN_POINT('Origin',(-210.058364492418,492.063858782702,11.1981633080163));
#1141=CARTESIAN_POINT('Origin',(-200.05836449243,508.670043930906,28.3029677485272));
#1142=CARTESIAN_POINT('Origin',(-213.058364492418,515.781156057461,35.3523546776205));
#1143=CARTESIAN_POINT('',(-213.058364492418,515.777898460727,35.3490970808866));
#1144=CARTESIAN_POINT('',(-213.058364492418,515.777620523555,35.3488191437145));
#1145=CARTESIAN_POINT('Origin',(-213.058364492418,515.777620523555,35.3488191437145));
#1146=CARTESIAN_POINT('',(-213.058364492418,501.614271696442,49.5121679709345));
#1147=CARTESIAN_POINT('Origin',(-213.058364492418,501.617807230294,49.5157035047871));
#1148=CARTESIAN_POINT('',(-213.058364492418,481.60771139716,29.5056076716525));
#1149=CARTESIAN_POINT('Origin',(-190.058364492418,517.882218875973,33.2447766656408));
#1150=CARTESIAN_POINT('',(-190.058364492418,520.226398653296,30.9012665657885));
#1151=CARTESIAN_POINT('',(-190.058364492418,516.719256859751,34.4074064507476));
#1152=CARTESIAN_POINT('Origin',(-190.058364492418,516.719256859751,34.4074064507476));
#1153=CARTESIAN_POINT('',(-201.558364492418,516.719439848325,34.4075556932889));
#1154=CARTESIAN_POINT('Origin',(-190.058364492418,511.24746700513,17.2314093673339));
#1155=CARTESIAN_POINT('',(-190.058364492418,504.615574260306,1.22942137991756));
#1156=CARTESIAN_POINT('',(-190.058364492418,504.615574260306,1.22942137991756));
#1157=CARTESIAN_POINT('',(-190.058364492418,504.615584020785,1.2180420690269));
#1158=CARTESIAN_POINT('',(-190.058364492418,504.615574260306,1.22942137991756));
#1159=CARTESIAN_POINT('',(-190.058364492418,504.612840769865,1.21803971603344));
#1160=CARTESIAN_POINT('Origin',(-210.058364492418,504.615574260306,1.22942137991756));
#1161=CARTESIAN_POINT('',(-210.058364492418,504.615574260306,1.22942137991756));
#1162=CARTESIAN_POINT('Origin',(-200.05836449243,504.614050721835,11.2184969925877));
#1163=CARTESIAN_POINT('Origin',(-210.058364492418,504.615574260306,1.22942137991756));
#1164=CARTESIAN_POINT('',(-210.058364492418,504.615584020785,1.2180420690269));
#1165=CARTESIAN_POINT('Origin',(-213.058364492418,492.063858782702,11.1981633080163));
#1166=CARTESIAN_POINT('Origin',(-213.058364492418,502.348133165823,34.6248824744158));
#1167=CARTESIAN_POINT('Origin',(-213.058364492418,481.60771139716,29.5056076716525));
#1168=CARTESIAN_POINT('',(-213.058364492418,481.61202462941,1.22591286779042));
#1169=CARTESIAN_POINT('Origin',(-213.058364492418,517.882218875973,33.2447766656408));
#1170=CARTESIAN_POINT('Origin',(-213.058364492418,504.612840769865,1.21803971603344));
#1171=CARTESIAN_POINT('',(-213.058364492418,504.612840769865,1.21803971603344));
#1172=CARTESIAN_POINT('Origin',(-213.058364492418,501.612840769865,1.21803971603344));
#1173=CARTESIAN_POINT('',(-213.058364492418,501.612840769865,1.21803971603344));
#1174=CARTESIAN_POINT('Origin',(-213.058364492418,501.612840769865,1.22896340160409));
#1175=CARTESIAN_POINT('',(-213.058364492418,501.612840769865,1.22896340160409));
#1176=CARTESIAN_POINT('Origin',(-213.058364492418,481.61202462941,1.22591286779042));
#1177=UNCERTAINTY_MEASURE_WITH_UNIT(LENGTH_MEASURE(0.01),#1181,
'DISTANCE_ACCURACY_VALUE',
'Maximum model space distance between geometric entities at asserted c
onnectivities');
#1178=UNCERTAINTY_MEASURE_WITH_UNIT(LENGTH_MEASURE(0.01),#1181,
'DISTANCE_ACCURACY_VALUE',
'Maximum model space distance between geometric entities at asserted c
onnectivities');
#1179=(
GEOMETRIC_REPRESENTATION_CONTEXT(3)
GLOBAL_UNCERTAINTY_ASSIGNED_CONTEXT((#1177))
GLOBAL_UNIT_ASSIGNED_CONTEXT((#1181,#1183,#1184))
REPRESENTATION_CONTEXT('','3D')
);
#1180=(
GEOMETRIC_REPRESENTATION_CONTEXT(3)
GLOBAL_UNCERTAINTY_ASSIGNED_CONTEXT((#1178))
GLOBAL_UNIT_ASSIGNED_CONTEXT((#1181,#1183,#1184))
REPRESENTATION_CONTEXT('','3D')
);
#1181=(
LENGTH_UNIT()
NAMED_UNIT(*)
SI_UNIT(.MILLI.,.METRE.)
);
#1182=(
LENGTH_UNIT()
NAMED_UNIT(*)
SI_UNIT($,.METRE.)
);
#1183=(
NAMED_UNIT(*)
PLANE_ANGLE_UNIT()
SI_UNIT($,.RADIAN.)
);
#1184=(
NAMED_UNIT(*)
SI_UNIT($,.STERADIAN.)
SOLID_ANGLE_UNIT()
);
#1185=SHAPE_DEFINITION_REPRESENTATION(#1186,#1187);
#1186=PRODUCT_DEFINITION_SHAPE('',$,#1189);
#1187=SHAPE_REPRESENTATION('',(#651),#1179);
#1188=PRODUCT_DEFINITION_CONTEXT('part definition',#1193,'design');
#1189=PRODUCT_DEFINITION('alumount2(1x)','alumount2(1x) v1',#1190,#1188);
#1190=PRODUCT_DEFINITION_FORMATION('',$,#1195);
#1191=PRODUCT_RELATED_PRODUCT_CATEGORY('alumount2(1x) v1',
'alumount2(1x) v1',(#1195));
#1192=APPLICATION_PROTOCOL_DEFINITION('international standard',
'automotive_design',2009,#1193);
#1193=APPLICATION_CONTEXT(
'Core Data for Automotive Mechanical Design Process');
#1194=PRODUCT_CONTEXT('part definition',#1193,'mechanical');
#1195=PRODUCT('alumount2(1x)','alumount2(1x) v1',$,(#1194));
#1196=PRESENTATION_STYLE_ASSIGNMENT((#1197));
#1197=SURFACE_STYLE_USAGE(.BOTH.,#1198);
#1198=SURFACE_SIDE_STYLE('',(#1199));
#1199=SURFACE_STYLE_FILL_AREA(#1200);
#1200=FILL_AREA_STYLE('Steel - Satin',(#1201));
#1201=FILL_AREA_STYLE_COLOUR('Steel - Satin',#1202);
#1202=COLOUR_RGB('Steel - Satin',0.627450980392157,0.627450980392157,0.627450980392157);
ENDSEC;
END-ISO-10303-21;
