ISO-10303-21;
HEADER;
/* Generated by software containing ST-Developer
 * from STEP Tools, Inc. (www.steptools.com) 
 */

FILE_DESCRIPTION(
/* description */ (''),
/* implementation_level */ '2;1');

FILE_NAME(
/* name */ 'alumount3(1x).step',
/* time_stamp */ '2025-12-01T16:00:37+05:30',
/* author */ (''),
/* organization */ (''),
/* preprocessor_version */ 'ST-DEVELOPER v20.1',
/* originating_system */ 'Autodesk Translation Framework v14.21.0.0',
/* authorisation */ '');

FILE_SCHEMA (('AUTOMOTIVE_DESIGN { 1 0 10303 214 3 1 1 }'));
ENDSEC;

DATA;
#10=MECHANICAL_DESIGN_GEOMETRIC_PRESENTATION_REPRESENTATION('',(#13),#924);
#11=SHAPE_REPRESENTATION_RELATIONSHIP('SRR','None',#931,#12);
#12=ADVANCED_BREP_SHAPE_REPRESENTATION('',(#14),#923);
#13=STYLED_ITEM('',(#940),#14);
#14=MANIFOLD_SOLID_BREP('Body1',#572);
#15=CYLINDRICAL_SURFACE('',#596,2.5);
#16=CYLINDRICAL_SURFACE('',#607,2.5);
#17=CYLINDRICAL_SURFACE('',#608,1.49999999999999);
#18=ELLIPSE('',#593,3.53553390593273,2.5);
#19=FACE_BOUND('',#65,.T.);
#20=FACE_BOUND('',#66,.T.);
#21=FACE_BOUND('',#68,.T.);
#22=FACE_BOUND('',#71,.T.);
#23=FACE_BOUND('',#73,.T.);
#24=FACE_BOUND('',#79,.T.);
#25=CIRCLE('',#592,2.5);
#26=CIRCLE('',#595,2.5);
#27=CIRCLE('',#597,2.5);
#28=CIRCLE('',#600,1.49999999999999);
#29=CIRCLE('',#606,1.49999999999999);
#30=FACE_OUTER_BOUND('',#59,.T.);
#31=FACE_OUTER_BOUND('',#60,.T.);
#32=FACE_OUTER_BOUND('',#61,.T.);
#33=FACE_OUTER_BOUND('',#62,.T.);
#34=FACE_OUTER_BOUND('',#63,.T.);
#35=FACE_OUTER_BOUND('',#64,.T.);
#36=FACE_OUTER_BOUND('',#67,.T.);
#37=FACE_OUTER_BOUND('',#69,.T.);
#38=FACE_OUTER_BOUND('',#70,.T.);
#39=FACE_OUTER_BOUND('',#72,.T.);
#40=FACE_OUTER_BOUND('',#74,.T.);
#41=FACE_OUTER_BOUND('',#75,.T.);
#42=FACE_OUTER_BOUND('',#76,.T.);
#43=FACE_OUTER_BOUND('',#77,.T.);
#44=FACE_OUTER_BOUND('',#78,.T.);
#45=FACE_OUTER_BOUND('',#80,.T.);
#46=FACE_OUTER_BOUND('',#81,.T.);
#47=FACE_OUTER_BOUND('',#82,.T.);
#48=FACE_OUTER_BOUND('',#83,.T.);
#49=FACE_OUTER_BOUND('',#84,.T.);
#50=FACE_OUTER_BOUND('',#85,.T.);
#51=FACE_OUTER_BOUND('',#86,.T.);
#52=FACE_OUTER_BOUND('',#87,.T.);
#53=FACE_OUTER_BOUND('',#88,.T.);
#54=FACE_OUTER_BOUND('',#89,.T.);
#55=FACE_OUTER_BOUND('',#90,.T.);
#56=FACE_OUTER_BOUND('',#91,.T.);
#57=FACE_OUTER_BOUND('',#92,.T.);
#58=FACE_OUTER_BOUND('',#93,.T.);
#59=EDGE_LOOP('',(#363,#364,#365,#366,#367,#368,#369,#370));
#60=EDGE_LOOP('',(#371,#372,#373,#374));
#61=EDGE_LOOP('',(#375,#376,#377,#378));
#62=EDGE_LOOP('',(#379,#380,#381,#382));
#63=EDGE_LOOP('',(#383,#384,#385,#386));
#64=EDGE_LOOP('',(#387,#388,#389,#390));
#65=EDGE_LOOP('',(#391,#392,#393));
#66=EDGE_LOOP('',(#394,#395,#396));
#67=EDGE_LOOP('',(#397,#398,#399,#400,#401));
#68=EDGE_LOOP('',(#402,#403,#404));
#69=EDGE_LOOP('',(#405,#406,#407,#408));
#70=EDGE_LOOP('',(#409,#410,#411,#412));
#71=EDGE_LOOP('',(#413,#414,#415));
#72=EDGE_LOOP('',(#416,#417,#418,#419,#420));
#73=EDGE_LOOP('',(#421,#422,#423));
#74=EDGE_LOOP('',(#424,#425,#426,#427));
#75=EDGE_LOOP('',(#428,#429,#430,#431));
#76=EDGE_LOOP('',(#432,#433,#434,#435));
#77=EDGE_LOOP('',(#436,#437,#438,#439));
#78=EDGE_LOOP('',(#440,#441,#442,#443,#444));
#79=EDGE_LOOP('',(#445,#446,#447));
#80=EDGE_LOOP('',(#448,#449,#450,#451));
#81=EDGE_LOOP('',(#452,#453,#454,#455));
#82=EDGE_LOOP('',(#456,#457,#458,#459));
#83=EDGE_LOOP('',(#460,#461,#462,#463,#464));
#84=EDGE_LOOP('',(#465,#466,#467,#468,#469,#470));
#85=EDGE_LOOP('',(#471,#472,#473,#474));
#86=EDGE_LOOP('',(#475,#476,#477,#478,#479));
#87=EDGE_LOOP('',(#480,#481,#482,#483));
#88=EDGE_LOOP('',(#484,#485,#486,#487,#488,#489));
#89=EDGE_LOOP('',(#490,#491,#492,#493,#494));
#90=EDGE_LOOP('',(#495,#496,#497,#498,#499,#500));
#91=EDGE_LOOP('',(#501,#502,#503,#504,#505,#506,#507));
#92=EDGE_LOOP('',(#508,#509,#510,#511));
#93=EDGE_LOOP('',(#512,#513,#514,#515,#516));
#94=LINE('',#768,#165);
#95=LINE('',#770,#166);
#96=LINE('',#772,#167);
#97=LINE('',#774,#168);
#98=LINE('',#776,#169);
#99=LINE('',#778,#170);
#100=LINE('',#780,#171);
#101=LINE('',#781,#172);
#102=LINE('',#784,#173);
#103=LINE('',#786,#174);
#104=LINE('',#787,#175);
#105=LINE('',#790,#176);
#106=LINE('',#792,#177);
#107=LINE('',#793,#178);
#108=LINE('',#797,#179);
#109=LINE('',#799,#180);
#110=LINE('',#801,#181);
#111=LINE('',#802,#182);
#112=LINE('',#805,#183);
#113=LINE('',#807,#184);
#114=LINE('',#808,#185);
#115=LINE('',#811,#186);
#116=LINE('',#813,#187);
#117=LINE('',#814,#188);
#118=LINE('',#817,#189);
#119=LINE('',#819,#190);
#120=LINE('',#824,#191);
#121=LINE('',#826,#192);
#122=LINE('',#828,#193);
#123=LINE('',#829,#194);
#124=LINE('',#833,#195);
#125=LINE('',#836,#196);
#126=LINE('',#839,#197);
#127=LINE('',#841,#198);
#128=LINE('',#842,#199);
#129=LINE('',#844,#200);
#130=LINE('',#845,#201);
#131=LINE('',#849,#202);
#132=LINE('',#851,#203);
#133=LINE('',#853,#204);
#134=LINE('',#855,#205);
#135=LINE('',#856,#206);
#136=LINE('',#859,#207);
#137=LINE('',#861,#208);
#138=LINE('',#864,#209);
#139=LINE('',#869,#210);
#140=LINE('',#870,#211);
#141=LINE('',#871,#212);
#142=LINE('',#874,#213);
#143=LINE('',#875,#214);
#144=LINE('',#879,#215);
#145=LINE('',#881,#216);
#146=LINE('',#883,#217);
#147=LINE('',#885,#218);
#148=LINE('',#886,#219);
#149=LINE('',#891,#220);
#150=LINE('',#892,#221);
#151=LINE('',#894,#222);
#152=LINE('',#895,#223);
#153=LINE('',#897,#224);
#154=LINE('',#898,#225);
#155=LINE('',#901,#226);
#156=LINE('',#903,#227);
#157=LINE('',#904,#228);
#158=LINE('',#906,#229);
#159=LINE('',#907,#230);
#160=LINE('',#910,#231);
#161=LINE('',#912,#232);
#162=LINE('',#913,#233);
#163=LINE('',#915,#234);
#164=LINE('',#916,#235);
#165=VECTOR('',#625,10.);
#166=VECTOR('',#626,10.);
#167=VECTOR('',#627,10.);
#168=VECTOR('',#628,10.);
#169=VECTOR('',#629,10.);
#170=VECTOR('',#630,10.);
#171=VECTOR('',#631,10.);
#172=VECTOR('',#632,10.);
#173=VECTOR('',#635,10.);
#174=VECTOR('',#636,10.);
#175=VECTOR('',#637,10.);
#176=VECTOR('',#640,10.);
#177=VECTOR('',#641,10.);
#178=VECTOR('',#642,10.);
#179=VECTOR('',#645,10.);
#180=VECTOR('',#646,10.);
#181=VECTOR('',#647,10.);
#182=VECTOR('',#648,10.);
#183=VECTOR('',#651,10.);
#184=VECTOR('',#652,10.);
#185=VECTOR('',#653,10.);
#186=VECTOR('',#656,10.);
#187=VECTOR('',#657,10.);
#188=VECTOR('',#658,10.);
#189=VECTOR('',#659,10.);
#190=VECTOR('',#660,10.);
#191=VECTOR('',#667,10.);
#192=VECTOR('',#668,10.);
#193=VECTOR('',#669,10.);
#194=VECTOR('',#670,10.);
#195=VECTOR('',#675,10.);
#196=VECTOR('',#678,10.);
#197=VECTOR('',#681,10.);
#198=VECTOR('',#682,10.);
#199=VECTOR('',#683,10.);
#200=VECTOR('',#684,10.);
#201=VECTOR('',#685,10.);
#202=VECTOR('',#688,10.);
#203=VECTOR('',#689,10.);
#204=VECTOR('',#690,10.);
#205=VECTOR('',#691,10.);
#206=VECTOR('',#692,10.);
#207=VECTOR('',#693,10.);
#208=VECTOR('',#694,10.);
#209=VECTOR('',#699,10.);
#210=VECTOR('',#704,10.);
#211=VECTOR('',#705,10.);
#212=VECTOR('',#706,10.);
#213=VECTOR('',#709,10.);
#214=VECTOR('',#710,10.);
#215=VECTOR('',#713,10.);
#216=VECTOR('',#714,10.);
#217=VECTOR('',#715,10.);
#218=VECTOR('',#716,10.);
#219=VECTOR('',#717,10.);
#220=VECTOR('',#726,10.);
#221=VECTOR('',#727,10.);
#222=VECTOR('',#730,10.);
#223=VECTOR('',#731,10.);
#224=VECTOR('',#734,10.);
#225=VECTOR('',#735,10.);
#226=VECTOR('',#738,10.);
#227=VECTOR('',#739,10.);
#228=VECTOR('',#740,10.);
#229=VECTOR('',#743,10.);
#230=VECTOR('',#744,10.);
#231=VECTOR('',#749,10.);
#232=VECTOR('',#750,10.);
#233=VECTOR('',#751,10.);
#234=VECTOR('',#754,10.);
#235=VECTOR('',#755,10.);
#236=VERTEX_POINT('',#766);
#237=VERTEX_POINT('',#767);
#238=VERTEX_POINT('',#769);
#239=VERTEX_POINT('',#771);
#240=VERTEX_POINT('',#773);
#241=VERTEX_POINT('',#775);
#242=VERTEX_POINT('',#777);
#243=VERTEX_POINT('',#779);
#244=VERTEX_POINT('',#783);
#245=VERTEX_POINT('',#785);
#246=VERTEX_POINT('',#789);
#247=VERTEX_POINT('',#791);
#248=VERTEX_POINT('',#795);
#249=VERTEX_POINT('',#796);
#250=VERTEX_POINT('',#798);
#251=VERTEX_POINT('',#800);
#252=VERTEX_POINT('',#804);
#253=VERTEX_POINT('',#806);
#254=VERTEX_POINT('',#810);
#255=VERTEX_POINT('',#812);
#256=VERTEX_POINT('',#815);
#257=VERTEX_POINT('',#816);
#258=VERTEX_POINT('',#818);
#259=VERTEX_POINT('',#823);
#260=VERTEX_POINT('',#825);
#261=VERTEX_POINT('',#827);
#262=VERTEX_POINT('',#832);
#263=VERTEX_POINT('',#834);
#264=VERTEX_POINT('',#838);
#265=VERTEX_POINT('',#840);
#266=VERTEX_POINT('',#843);
#267=VERTEX_POINT('',#847);
#268=VERTEX_POINT('',#848);
#269=VERTEX_POINT('',#850);
#270=VERTEX_POINT('',#852);
#271=VERTEX_POINT('',#854);
#272=VERTEX_POINT('',#857);
#273=VERTEX_POINT('',#858);
#274=VERTEX_POINT('',#860);
#275=VERTEX_POINT('',#867);
#276=VERTEX_POINT('',#868);
#277=VERTEX_POINT('',#873);
#278=VERTEX_POINT('',#877);
#279=VERTEX_POINT('',#878);
#280=VERTEX_POINT('',#880);
#281=VERTEX_POINT('',#882);
#282=VERTEX_POINT('',#884);
#283=VERTEX_POINT('',#900);
#284=VERTEX_POINT('',#902);
#285=VERTEX_POINT('',#911);
#286=EDGE_CURVE('',#236,#237,#94,.T.);
#287=EDGE_CURVE('',#238,#236,#95,.T.);
#288=EDGE_CURVE('',#239,#238,#96,.T.);
#289=EDGE_CURVE('',#240,#239,#97,.T.);
#290=EDGE_CURVE('',#240,#241,#98,.T.);
#291=EDGE_CURVE('',#241,#242,#99,.T.);
#292=EDGE_CURVE('',#243,#242,#100,.T.);
#293=EDGE_CURVE('',#237,#243,#101,.T.);
#294=EDGE_CURVE('',#237,#244,#102,.T.);
#295=EDGE_CURVE('',#245,#244,#103,.T.);
#296=EDGE_CURVE('',#236,#245,#104,.T.);
#297=EDGE_CURVE('',#244,#246,#105,.T.);
#298=EDGE_CURVE('',#246,#247,#106,.T.);
#299=EDGE_CURVE('',#247,#245,#107,.T.);
#300=EDGE_CURVE('',#248,#249,#108,.T.);
#301=EDGE_CURVE('',#250,#248,#109,.T.);
#302=EDGE_CURVE('',#251,#250,#110,.T.);
#303=EDGE_CURVE('',#249,#251,#111,.T.);
#304=EDGE_CURVE('',#252,#248,#112,.T.);
#305=EDGE_CURVE('',#252,#253,#113,.T.);
#306=EDGE_CURVE('',#250,#253,#114,.T.);
#307=EDGE_CURVE('',#240,#254,#115,.T.);
#308=EDGE_CURVE('',#255,#254,#116,.T.);
#309=EDGE_CURVE('',#241,#255,#117,.T.);
#310=EDGE_CURVE('',#256,#257,#118,.T.);
#311=EDGE_CURVE('',#257,#258,#119,.T.);
#312=EDGE_CURVE('',#258,#256,#25,.T.);
#313=EDGE_CURVE('',#249,#252,#18,.T.);
#314=EDGE_CURVE('',#238,#259,#120,.T.);
#315=EDGE_CURVE('',#260,#259,#121,.T.);
#316=EDGE_CURVE('',#261,#260,#122,.T.);
#317=EDGE_CURVE('',#239,#261,#123,.T.);
#318=EDGE_CURVE('',#253,#251,#26,.T.);
#319=EDGE_CURVE('',#258,#262,#124,.T.);
#320=EDGE_CURVE('',#263,#262,#27,.T.);
#321=EDGE_CURVE('',#256,#263,#125,.T.);
#322=EDGE_CURVE('',#246,#264,#126,.T.);
#323=EDGE_CURVE('',#265,#264,#127,.T.);
#324=EDGE_CURVE('',#247,#265,#128,.T.);
#325=EDGE_CURVE('',#262,#266,#129,.T.);
#326=EDGE_CURVE('',#266,#263,#130,.T.);
#327=EDGE_CURVE('',#267,#268,#131,.T.);
#328=EDGE_CURVE('',#269,#267,#132,.T.);
#329=EDGE_CURVE('',#269,#270,#133,.T.);
#330=EDGE_CURVE('',#271,#270,#134,.T.);
#331=EDGE_CURVE('',#268,#271,#135,.T.);
#332=EDGE_CURVE('',#272,#273,#136,.T.);
#333=EDGE_CURVE('',#273,#274,#137,.T.);
#334=EDGE_CURVE('',#274,#272,#28,.T.);
#335=EDGE_CURVE('',#257,#266,#138,.T.);
#336=EDGE_CURVE('',#275,#276,#139,.T.);
#337=EDGE_CURVE('',#275,#273,#140,.T.);
#338=EDGE_CURVE('',#276,#272,#141,.T.);
#339=EDGE_CURVE('',#277,#275,#142,.T.);
#340=EDGE_CURVE('',#277,#274,#143,.T.);
#341=EDGE_CURVE('',#278,#279,#144,.T.);
#342=EDGE_CURVE('',#280,#278,#145,.T.);
#343=EDGE_CURVE('',#280,#281,#146,.T.);
#344=EDGE_CURVE('',#282,#281,#147,.T.);
#345=EDGE_CURVE('',#279,#282,#148,.T.);
#346=EDGE_CURVE('',#276,#277,#29,.T.);
#347=EDGE_CURVE('',#259,#268,#149,.T.);
#348=EDGE_CURVE('',#260,#271,#150,.T.);
#349=EDGE_CURVE('',#260,#278,#151,.T.);
#350=EDGE_CURVE('',#270,#280,#152,.T.);
#351=EDGE_CURVE('',#279,#255,#153,.T.);
#352=EDGE_CURVE('',#254,#261,#154,.T.);
#353=EDGE_CURVE('',#283,#279,#155,.T.);
#354=EDGE_CURVE('',#284,#282,#156,.T.);
#355=EDGE_CURVE('',#284,#283,#157,.T.);
#356=EDGE_CURVE('',#284,#267,#158,.T.);
#357=EDGE_CURVE('',#281,#269,#159,.T.);
#358=EDGE_CURVE('',#268,#265,#160,.T.);
#359=EDGE_CURVE('',#264,#285,#161,.T.);
#360=EDGE_CURVE('',#285,#284,#162,.T.);
#361=EDGE_CURVE('',#242,#283,#163,.T.);
#362=EDGE_CURVE('',#243,#285,#164,.T.);
#363=ORIENTED_EDGE('',*,*,#286,.F.);
#364=ORIENTED_EDGE('',*,*,#287,.F.);
#365=ORIENTED_EDGE('',*,*,#288,.F.);
#366=ORIENTED_EDGE('',*,*,#289,.F.);
#367=ORIENTED_EDGE('',*,*,#290,.T.);
#368=ORIENTED_EDGE('',*,*,#291,.T.);
#369=ORIENTED_EDGE('',*,*,#292,.F.);
#370=ORIENTED_EDGE('',*,*,#293,.F.);
#371=ORIENTED_EDGE('',*,*,#286,.T.);
#372=ORIENTED_EDGE('',*,*,#294,.T.);
#373=ORIENTED_EDGE('',*,*,#295,.F.);
#374=ORIENTED_EDGE('',*,*,#296,.F.);
#375=ORIENTED_EDGE('',*,*,#295,.T.);
#376=ORIENTED_EDGE('',*,*,#297,.T.);
#377=ORIENTED_EDGE('',*,*,#298,.T.);
#378=ORIENTED_EDGE('',*,*,#299,.T.);
#379=ORIENTED_EDGE('',*,*,#300,.F.);
#380=ORIENTED_EDGE('',*,*,#301,.F.);
#381=ORIENTED_EDGE('',*,*,#302,.F.);
#382=ORIENTED_EDGE('',*,*,#303,.F.);
#383=ORIENTED_EDGE('',*,*,#304,.F.);
#384=ORIENTED_EDGE('',*,*,#305,.T.);
#385=ORIENTED_EDGE('',*,*,#306,.F.);
#386=ORIENTED_EDGE('',*,*,#301,.T.);
#387=ORIENTED_EDGE('',*,*,#290,.F.);
#388=ORIENTED_EDGE('',*,*,#307,.T.);
#389=ORIENTED_EDGE('',*,*,#308,.F.);
#390=ORIENTED_EDGE('',*,*,#309,.F.);
#391=ORIENTED_EDGE('',*,*,#310,.T.);
#392=ORIENTED_EDGE('',*,*,#311,.T.);
#393=ORIENTED_EDGE('',*,*,#312,.T.);
#394=ORIENTED_EDGE('',*,*,#304,.T.);
#395=ORIENTED_EDGE('',*,*,#300,.T.);
#396=ORIENTED_EDGE('',*,*,#313,.T.);
#397=ORIENTED_EDGE('',*,*,#288,.T.);
#398=ORIENTED_EDGE('',*,*,#314,.T.);
#399=ORIENTED_EDGE('',*,*,#315,.F.);
#400=ORIENTED_EDGE('',*,*,#316,.F.);
#401=ORIENTED_EDGE('',*,*,#317,.F.);
#402=ORIENTED_EDGE('',*,*,#302,.T.);
#403=ORIENTED_EDGE('',*,*,#306,.T.);
#404=ORIENTED_EDGE('',*,*,#318,.T.);
#405=ORIENTED_EDGE('',*,*,#319,.T.);
#406=ORIENTED_EDGE('',*,*,#320,.F.);
#407=ORIENTED_EDGE('',*,*,#321,.F.);
#408=ORIENTED_EDGE('',*,*,#312,.F.);
#409=ORIENTED_EDGE('',*,*,#298,.F.);
#410=ORIENTED_EDGE('',*,*,#322,.T.);
#411=ORIENTED_EDGE('',*,*,#323,.F.);
#412=ORIENTED_EDGE('',*,*,#324,.F.);
#413=ORIENTED_EDGE('',*,*,#325,.T.);
#414=ORIENTED_EDGE('',*,*,#326,.T.);
#415=ORIENTED_EDGE('',*,*,#320,.T.);
#416=ORIENTED_EDGE('',*,*,#327,.F.);
#417=ORIENTED_EDGE('',*,*,#328,.F.);
#418=ORIENTED_EDGE('',*,*,#329,.T.);
#419=ORIENTED_EDGE('',*,*,#330,.F.);
#420=ORIENTED_EDGE('',*,*,#331,.F.);
#421=ORIENTED_EDGE('',*,*,#332,.T.);
#422=ORIENTED_EDGE('',*,*,#333,.T.);
#423=ORIENTED_EDGE('',*,*,#334,.T.);
#424=ORIENTED_EDGE('',*,*,#311,.F.);
#425=ORIENTED_EDGE('',*,*,#335,.T.);
#426=ORIENTED_EDGE('',*,*,#325,.F.);
#427=ORIENTED_EDGE('',*,*,#319,.F.);
#428=ORIENTED_EDGE('',*,*,#310,.F.);
#429=ORIENTED_EDGE('',*,*,#321,.T.);
#430=ORIENTED_EDGE('',*,*,#326,.F.);
#431=ORIENTED_EDGE('',*,*,#335,.F.);
#432=ORIENTED_EDGE('',*,*,#336,.F.);
#433=ORIENTED_EDGE('',*,*,#337,.T.);
#434=ORIENTED_EDGE('',*,*,#332,.F.);
#435=ORIENTED_EDGE('',*,*,#338,.F.);
#436=ORIENTED_EDGE('',*,*,#339,.F.);
#437=ORIENTED_EDGE('',*,*,#340,.T.);
#438=ORIENTED_EDGE('',*,*,#333,.F.);
#439=ORIENTED_EDGE('',*,*,#337,.F.);
#440=ORIENTED_EDGE('',*,*,#341,.F.);
#441=ORIENTED_EDGE('',*,*,#342,.F.);
#442=ORIENTED_EDGE('',*,*,#343,.T.);
#443=ORIENTED_EDGE('',*,*,#344,.F.);
#444=ORIENTED_EDGE('',*,*,#345,.F.);
#445=ORIENTED_EDGE('',*,*,#339,.T.);
#446=ORIENTED_EDGE('',*,*,#336,.T.);
#447=ORIENTED_EDGE('',*,*,#346,.T.);
#448=ORIENTED_EDGE('',*,*,#305,.F.);
#449=ORIENTED_EDGE('',*,*,#313,.F.);
#450=ORIENTED_EDGE('',*,*,#303,.T.);
#451=ORIENTED_EDGE('',*,*,#318,.F.);
#452=ORIENTED_EDGE('',*,*,#340,.F.);
#453=ORIENTED_EDGE('',*,*,#346,.F.);
#454=ORIENTED_EDGE('',*,*,#338,.T.);
#455=ORIENTED_EDGE('',*,*,#334,.F.);
#456=ORIENTED_EDGE('',*,*,#347,.T.);
#457=ORIENTED_EDGE('',*,*,#331,.T.);
#458=ORIENTED_EDGE('',*,*,#348,.F.);
#459=ORIENTED_EDGE('',*,*,#315,.T.);
#460=ORIENTED_EDGE('',*,*,#349,.F.);
#461=ORIENTED_EDGE('',*,*,#348,.T.);
#462=ORIENTED_EDGE('',*,*,#330,.T.);
#463=ORIENTED_EDGE('',*,*,#350,.T.);
#464=ORIENTED_EDGE('',*,*,#342,.T.);
#465=ORIENTED_EDGE('',*,*,#349,.T.);
#466=ORIENTED_EDGE('',*,*,#341,.T.);
#467=ORIENTED_EDGE('',*,*,#351,.T.);
#468=ORIENTED_EDGE('',*,*,#308,.T.);
#469=ORIENTED_EDGE('',*,*,#352,.T.);
#470=ORIENTED_EDGE('',*,*,#316,.T.);
#471=ORIENTED_EDGE('',*,*,#353,.T.);
#472=ORIENTED_EDGE('',*,*,#345,.T.);
#473=ORIENTED_EDGE('',*,*,#354,.F.);
#474=ORIENTED_EDGE('',*,*,#355,.T.);
#475=ORIENTED_EDGE('',*,*,#356,.F.);
#476=ORIENTED_EDGE('',*,*,#354,.T.);
#477=ORIENTED_EDGE('',*,*,#344,.T.);
#478=ORIENTED_EDGE('',*,*,#357,.T.);
#479=ORIENTED_EDGE('',*,*,#328,.T.);
#480=ORIENTED_EDGE('',*,*,#343,.F.);
#481=ORIENTED_EDGE('',*,*,#350,.F.);
#482=ORIENTED_EDGE('',*,*,#329,.F.);
#483=ORIENTED_EDGE('',*,*,#357,.F.);
#484=ORIENTED_EDGE('',*,*,#327,.T.);
#485=ORIENTED_EDGE('',*,*,#358,.T.);
#486=ORIENTED_EDGE('',*,*,#323,.T.);
#487=ORIENTED_EDGE('',*,*,#359,.T.);
#488=ORIENTED_EDGE('',*,*,#360,.T.);
#489=ORIENTED_EDGE('',*,*,#356,.T.);
#490=ORIENTED_EDGE('',*,*,#292,.T.);
#491=ORIENTED_EDGE('',*,*,#361,.T.);
#492=ORIENTED_EDGE('',*,*,#355,.F.);
#493=ORIENTED_EDGE('',*,*,#360,.F.);
#494=ORIENTED_EDGE('',*,*,#362,.F.);
#495=ORIENTED_EDGE('',*,*,#293,.T.);
#496=ORIENTED_EDGE('',*,*,#362,.T.);
#497=ORIENTED_EDGE('',*,*,#359,.F.);
#498=ORIENTED_EDGE('',*,*,#322,.F.);
#499=ORIENTED_EDGE('',*,*,#297,.F.);
#500=ORIENTED_EDGE('',*,*,#294,.F.);
#501=ORIENTED_EDGE('',*,*,#296,.T.);
#502=ORIENTED_EDGE('',*,*,#299,.F.);
#503=ORIENTED_EDGE('',*,*,#324,.T.);
#504=ORIENTED_EDGE('',*,*,#358,.F.);
#505=ORIENTED_EDGE('',*,*,#347,.F.);
#506=ORIENTED_EDGE('',*,*,#314,.F.);
#507=ORIENTED_EDGE('',*,*,#287,.T.);
#508=ORIENTED_EDGE('',*,*,#289,.T.);
#509=ORIENTED_EDGE('',*,*,#317,.T.);
#510=ORIENTED_EDGE('',*,*,#352,.F.);
#511=ORIENTED_EDGE('',*,*,#307,.F.);
#512=ORIENTED_EDGE('',*,*,#291,.F.);
#513=ORIENTED_EDGE('',*,*,#309,.T.);
#514=ORIENTED_EDGE('',*,*,#351,.F.);
#515=ORIENTED_EDGE('',*,*,#353,.F.);
#516=ORIENTED_EDGE('',*,*,#361,.F.);
#517=PLANE('',#586);
#518=PLANE('',#587);
#519=PLANE('',#588);
#520=PLANE('',#589);
#521=PLANE('',#590);
#522=PLANE('',#591);
#523=PLANE('',#594);
#524=PLANE('',#598);
#525=PLANE('',#599);
#526=PLANE('',#601);
#527=PLANE('',#602);
#528=PLANE('',#603);
#529=PLANE('',#604);
#530=PLANE('',#605);
#531=PLANE('',#609);
#532=PLANE('',#610);
#533=PLANE('',#611);
#534=PLANE('',#612);
#535=PLANE('',#613);
#536=PLANE('',#614);
#537=PLANE('',#615);
#538=PLANE('',#616);
#539=PLANE('',#617);
#540=PLANE('',#618);
#541=PLANE('',#619);
#542=PLANE('',#620);
#543=ADVANCED_FACE('',(#30),#517,.F.);
#544=ADVANCED_FACE('',(#31),#518,.T.);
#545=ADVANCED_FACE('',(#32),#519,.T.);
#546=ADVANCED_FACE('',(#33),#520,.F.);
#547=ADVANCED_FACE('',(#34),#521,.F.);
#548=ADVANCED_FACE('',(#35,#19,#20),#522,.T.);
#549=ADVANCED_FACE('',(#36,#21),#523,.T.);
#550=ADVANCED_FACE('',(#37),#15,.F.);
#551=ADVANCED_FACE('',(#38,#22),#524,.T.);
#552=ADVANCED_FACE('',(#39,#23),#525,.T.);
#553=ADVANCED_FACE('',(#40),#526,.F.);
#554=ADVANCED_FACE('',(#41),#527,.F.);
#555=ADVANCED_FACE('',(#42),#528,.F.);
#556=ADVANCED_FACE('',(#43),#529,.F.);
#557=ADVANCED_FACE('',(#44,#24),#530,.T.);
#558=ADVANCED_FACE('',(#45),#16,.F.);
#559=ADVANCED_FACE('',(#46),#17,.F.);
#560=ADVANCED_FACE('',(#47),#531,.T.);
#561=ADVANCED_FACE('',(#48),#532,.T.);
#562=ADVANCED_FACE('',(#49),#533,.T.);
#563=ADVANCED_FACE('',(#50),#534,.T.);
#564=ADVANCED_FACE('',(#51),#535,.T.);
#565=ADVANCED_FACE('',(#52),#536,.T.);
#566=ADVANCED_FACE('',(#53),#537,.T.);
#567=ADVANCED_FACE('',(#54),#538,.T.);
#568=ADVANCED_FACE('',(#55),#539,.T.);
#569=ADVANCED_FACE('',(#56),#540,.T.);
#570=ADVANCED_FACE('',(#57),#541,.T.);
#571=ADVANCED_FACE('',(#58),#542,.T.);
#572=CLOSED_SHELL('',(#543,#544,#545,#546,#547,#548,#549,#550,#551,#552,
#553,#554,#555,#556,#557,#558,#559,#560,#561,#562,#563,#564,#565,#566,#567,
#568,#569,#570,#571));
#573=DERIVED_UNIT_ELEMENT(#575,1.);
#574=DERIVED_UNIT_ELEMENT(#926,-3.);
#575=(
MASS_UNIT()
NAMED_UNIT(*)
SI_UNIT(.KILO.,.GRAM.)
);
#576=DERIVED_UNIT((#573,#574));
#577=MEASURE_REPRESENTATION_ITEM('density measure',
POSITIVE_RATIO_MEASURE(7850.),#576);
#578=PROPERTY_DEFINITION_REPRESENTATION(#583,#580);
#579=PROPERTY_DEFINITION_REPRESENTATION(#584,#581);
#580=REPRESENTATION('material name',(#582),#923);
#581=REPRESENTATION('density',(#577),#923);
#582=DESCRIPTIVE_REPRESENTATION_ITEM('Steel','Steel');
#583=PROPERTY_DEFINITION('material property','material name',#933);
#584=PROPERTY_DEFINITION('material property','density of part',#933);
#585=AXIS2_PLACEMENT_3D('',#764,#621,#622);
#586=AXIS2_PLACEMENT_3D('',#765,#623,#624);
#587=AXIS2_PLACEMENT_3D('',#782,#633,#634);
#588=AXIS2_PLACEMENT_3D('',#788,#638,#639);
#589=AXIS2_PLACEMENT_3D('',#794,#643,#644);
#590=AXIS2_PLACEMENT_3D('',#803,#649,#650);
#591=AXIS2_PLACEMENT_3D('',#809,#654,#655);
#592=AXIS2_PLACEMENT_3D('',#820,#661,#662);
#593=AXIS2_PLACEMENT_3D('',#821,#663,#664);
#594=AXIS2_PLACEMENT_3D('',#822,#665,#666);
#595=AXIS2_PLACEMENT_3D('',#830,#671,#672);
#596=AXIS2_PLACEMENT_3D('',#831,#673,#674);
#597=AXIS2_PLACEMENT_3D('',#835,#676,#677);
#598=AXIS2_PLACEMENT_3D('',#837,#679,#680);
#599=AXIS2_PLACEMENT_3D('',#846,#686,#687);
#600=AXIS2_PLACEMENT_3D('',#862,#695,#696);
#601=AXIS2_PLACEMENT_3D('',#863,#697,#698);
#602=AXIS2_PLACEMENT_3D('',#865,#700,#701);
#603=AXIS2_PLACEMENT_3D('',#866,#702,#703);
#604=AXIS2_PLACEMENT_3D('',#872,#707,#708);
#605=AXIS2_PLACEMENT_3D('',#876,#711,#712);
#606=AXIS2_PLACEMENT_3D('',#887,#718,#719);
#607=AXIS2_PLACEMENT_3D('',#888,#720,#721);
#608=AXIS2_PLACEMENT_3D('',#889,#722,#723);
#609=AXIS2_PLACEMENT_3D('',#890,#724,#725);
#610=AXIS2_PLACEMENT_3D('',#893,#728,#729);
#611=AXIS2_PLACEMENT_3D('',#896,#732,#733);
#612=AXIS2_PLACEMENT_3D('',#899,#736,#737);
#613=AXIS2_PLACEMENT_3D('',#905,#741,#742);
#614=AXIS2_PLACEMENT_3D('',#908,#745,#746);
#615=AXIS2_PLACEMENT_3D('',#909,#747,#748);
#616=AXIS2_PLACEMENT_3D('',#914,#752,#753);
#617=AXIS2_PLACEMENT_3D('',#917,#756,#757);
#618=AXIS2_PLACEMENT_3D('',#918,#758,#759);
#619=AXIS2_PLACEMENT_3D('',#919,#760,#761);
#620=AXIS2_PLACEMENT_3D('',#920,#762,#763);
#621=DIRECTION('axis',(0.,0.,1.));
#622=DIRECTION('refdir',(1.,0.,0.));
#623=DIRECTION('center_axis',(-1.,0.,0.));
#624=DIRECTION('ref_axis',(0.,-1.,0.));
#625=DIRECTION('',(0.,0.,-1.));
#626=DIRECTION('',(0.,1.,5.56413883547126E-14));
#627=DIRECTION('',(0.,0.707106781186547,-0.707106781186548));
#628=DIRECTION('',(0.,0.707106781186547,0.707106781186547));
#629=DIRECTION('',(0.,0.,-1.));
#630=DIRECTION('',(0.,1.,0.));
#631=DIRECTION('',(0.,0.,1.));
#632=DIRECTION('',(0.,-1.,0.));
#633=DIRECTION('center_axis',(0.,1.,0.));
#634=DIRECTION('ref_axis',(0.,0.,-1.));
#635=DIRECTION('',(-1.,0.,0.));
#636=DIRECTION('',(0.,0.,-1.));
#637=DIRECTION('',(-1.,0.,0.));
#638=DIRECTION('center_axis',(-1.,0.,0.));
#639=DIRECTION('ref_axis',(0.,-1.,0.));
#640=DIRECTION('',(0.,-1.,0.));
#641=DIRECTION('',(0.,5.27703322343532E-28,1.));
#642=DIRECTION('',(0.,1.,5.56413883547126E-14));
#643=DIRECTION('center_axis',(-0.642787609686524,-0.54167522041971,0.541675220419711));
#644=DIRECTION('ref_axis',(-0.766044443118991,0.454519477672032,-0.454519477672035));
#645=DIRECTION('',(0.644400477571787,0.,0.764688187763648));
#646=DIRECTION('',(0.,-0.707106781186548,-0.707106781186547));
#647=DIRECTION('',(-0.766044443118991,0.454519477672033,-0.454519477672033));
#648=DIRECTION('',(0.,0.707106781186548,0.707106781186547));
#649=DIRECTION('center_axis',(-0.642787609686519,0.541675220419713,-0.541675220419714));
#650=DIRECTION('ref_axis',(0.766044443118995,0.45451947767203,-0.454519477672029));
#651=DIRECTION('',(-0.644400477571792,0.,0.764688187763644));
#652=DIRECTION('',(0.,0.707106781186548,0.707106781186547));
#653=DIRECTION('',(0.766044443118995,0.454519477672029,-0.45451947767203));
#654=DIRECTION('center_axis',(0.,-1.,0.));
#655=DIRECTION('ref_axis',(0.,0.,1.));
#656=DIRECTION('',(-1.,0.,0.));
#657=DIRECTION('',(0.,0.,1.));
#658=DIRECTION('',(-1.,0.,0.));
#659=DIRECTION('',(-0.766044443118998,0.,0.642787609686516));
#660=DIRECTION('',(0.766044443118967,0.,0.642787609686552));
#661=DIRECTION('center_axis',(0.,1.,0.));
#662=DIRECTION('ref_axis',(-1.,0.,0.));
#663=DIRECTION('center_axis',(0.,1.,0.));
#664=DIRECTION('ref_axis',(0.,0.,-1.));
#665=DIRECTION('center_axis',(0.,0.707106781186548,0.707106781186547));
#666=DIRECTION('ref_axis',(0.,0.707106781186547,-0.707106781186548));
#667=DIRECTION('',(-1.,0.,0.));
#668=DIRECTION('',(0.,0.707106781186547,-0.707106781186548));
#669=DIRECTION('',(0.,0.707106781186547,-0.707106781186548));
#670=DIRECTION('',(-1.,0.,0.));
#671=DIRECTION('center_axis',(0.,-0.707106781186548,-0.707106781186547));
#672=DIRECTION('ref_axis',(-1.,0.,0.));
#673=DIRECTION('center_axis',(0.,-1.,0.));
#674=DIRECTION('ref_axis',(1.,0.,1.22464679914735E-16));
#675=DIRECTION('',(0.,1.,0.));
#676=DIRECTION('center_axis',(0.,-1.,5.27703322343532E-28));
#677=DIRECTION('ref_axis',(-1.,0.,0.));
#678=DIRECTION('',(0.,1.,0.));
#679=DIRECTION('center_axis',(0.,1.,-5.27703322343532E-28));
#680=DIRECTION('ref_axis',(0.,-5.27703322343532E-28,-1.));
#681=DIRECTION('',(-1.,0.,0.));
#682=DIRECTION('',(0.,-5.27703322343532E-28,-1.));
#683=DIRECTION('',(-1.,0.,0.));
#684=DIRECTION('',(-0.766044443118967,-3.39201157192851E-28,-0.642787609686552));
#685=DIRECTION('',(0.766044443118998,-3.39201157192832E-28,-0.642787609686516));
#686=DIRECTION('center_axis',(0.,1.,0.));
#687=DIRECTION('ref_axis',(0.,0.,-1.));
#688=DIRECTION('',(0.,0.,1.));
#689=DIRECTION('',(1.,0.,0.));
#690=DIRECTION('',(0.,0.,1.));
#691=DIRECTION('',(-1.,0.,0.));
#692=DIRECTION('',(0.,0.,1.));
#693=DIRECTION('',(-0.766044443119099,0.,-0.642787609686395));
#694=DIRECTION('',(0.766044443119067,0.,-0.642787609686434));
#695=DIRECTION('center_axis',(0.,-1.,0.));
#696=DIRECTION('ref_axis',(-1.,0.,0.));
#697=DIRECTION('center_axis',(-0.642787609686552,0.,0.766044443118968));
#698=DIRECTION('ref_axis',(0.766044443118967,0.,0.642787609686552));
#699=DIRECTION('',(0.,1.,0.));
#700=DIRECTION('center_axis',(-0.642787609686516,0.,-0.766044443118998));
#701=DIRECTION('ref_axis',(-0.766044443118998,0.,0.642787609686516));
#702=DIRECTION('center_axis',(-0.642787609686395,0.,0.766044443119099));
#703=DIRECTION('ref_axis',(0.766044443119099,0.,0.642787609686395));
#704=DIRECTION('',(0.766044443119099,0.,0.642787609686395));
#705=DIRECTION('',(0.,1.,0.));
#706=DIRECTION('',(0.,1.,0.));
#707=DIRECTION('center_axis',(-0.642787609686434,0.,-0.766044443119067));
#708=DIRECTION('ref_axis',(-0.766044443119067,0.,0.642787609686434));
#709=DIRECTION('',(-0.766044443119067,0.,0.642787609686434));
#710=DIRECTION('',(0.,1.,0.));
#711=DIRECTION('center_axis',(0.,-1.,0.));
#712=DIRECTION('ref_axis',(0.,0.,1.));
#713=DIRECTION('',(0.,0.,-1.));
#714=DIRECTION('',(1.,0.,0.));
#715=DIRECTION('',(0.,0.,-1.));
#716=DIRECTION('',(-1.,0.,0.));
#717=DIRECTION('',(0.,0.,-1.));
#718=DIRECTION('center_axis',(0.,1.,0.));
#719=DIRECTION('ref_axis',(-1.,0.,0.));
#720=DIRECTION('center_axis',(0.,-0.707106781186548,-0.707106781186547));
#721=DIRECTION('ref_axis',(1.,7.14632589097059E-16,-7.1463258909706E-16));
#722=DIRECTION('center_axis',(0.,-1.,0.));
#723=DIRECTION('ref_axis',(1.,0.,7.42705188753633E-15));
#724=DIRECTION('center_axis',(1.,0.,0.));
#725=DIRECTION('ref_axis',(0.,1.,0.));
#726=DIRECTION('',(0.,1.,5.56413883547126E-14));
#727=DIRECTION('',(0.,1.,0.));
#728=DIRECTION('center_axis',(0.,0.,1.));
#729=DIRECTION('ref_axis',(1.,0.,0.));
#730=DIRECTION('',(0.,-1.,0.));
#731=DIRECTION('',(0.,-1.,0.));
#732=DIRECTION('center_axis',(-1.,0.,0.));
#733=DIRECTION('ref_axis',(0.,0.,1.));
#734=DIRECTION('',(0.,-1.,0.));
#735=DIRECTION('',(0.,0.707106781186547,0.707106781186547));
#736=DIRECTION('center_axis',(1.,0.,0.));
#737=DIRECTION('ref_axis',(0.,-1.,0.));
#738=DIRECTION('',(0.,-1.,0.));
#739=DIRECTION('',(0.,-1.,0.));
#740=DIRECTION('',(0.,0.,1.));
#741=DIRECTION('center_axis',(0.,0.,-1.));
#742=DIRECTION('ref_axis',(-1.,0.,0.));
#743=DIRECTION('',(0.,1.,0.));
#744=DIRECTION('',(0.,1.,0.));
#745=DIRECTION('center_axis',(-1.,0.,0.));
#746=DIRECTION('ref_axis',(0.,0.,1.));
#747=DIRECTION('center_axis',(-1.,0.,0.));
#748=DIRECTION('ref_axis',(0.,0.,1.));
#749=DIRECTION('',(0.,1.,5.56413883547126E-14));
#750=DIRECTION('',(0.,-1.,0.));
#751=DIRECTION('',(0.,0.,1.));
#752=DIRECTION('center_axis',(0.,-1.,0.));
#753=DIRECTION('ref_axis',(0.,0.,1.));
#754=DIRECTION('',(-1.,0.,0.));
#755=DIRECTION('',(-1.,0.,0.));
#756=DIRECTION('center_axis',(0.,0.,-1.));
#757=DIRECTION('ref_axis',(0.,-1.,0.));
#758=DIRECTION('center_axis',(0.,-5.56413883547126E-14,1.));
#759=DIRECTION('ref_axis',(0.,1.,5.56413883547126E-14));
#760=DIRECTION('center_axis',(0.,-0.707106781186548,0.707106781186548));
#761=DIRECTION('ref_axis',(0.,0.707106781186548,0.707106781186548));
#762=DIRECTION('center_axis',(0.,0.,-1.));
#763=DIRECTION('ref_axis',(0.,-1.,0.));
#764=CARTESIAN_POINT('',(0.,0.,0.));
#765=CARTESIAN_POINT('Origin',(182.9622817331,-57.8019140978932,11.2219761194241));
#766=CARTESIAN_POINT('',(182.9622817331,-47.5802464374329,21.2358924195268));
#767=CARTESIAN_POINT('',(182.9622817331,-47.5802464374329,1.21803924661336));
#768=CARTESIAN_POINT('',(182.9622817331,-47.5802464374329,21.2180392466134));
#769=CARTESIAN_POINT('',(182.9622817331,-67.5980996103405,21.2358924195257));
#770=CARTESIAN_POINT('',(182.9622817331,-67.5980996103405,21.2358924195257));
#771=CARTESIAN_POINT('',(182.9622817331,-81.7283041999816,35.3660970091668));
#772=CARTESIAN_POINT('',(182.9622817331,-81.7315617967154,35.3693546059006));
#773=CARTESIAN_POINT('',(182.9622817331,-83.8496245435412,33.2447766656072));
#774=CARTESIAN_POINT('',(182.9622817331,-83.8496245435412,33.2447766656072));
#775=CARTESIAN_POINT('',(182.9622817331,-83.8496245435412,1.22942096297068));
#776=CARTESIAN_POINT('',(182.9622817331,-83.8496245435412,33.2447766656072));
#777=CARTESIAN_POINT('',(182.9622817331,-70.5802464374331,1.22942096297068));
#778=CARTESIAN_POINT('',(182.9622817331,-83.8496245435412,1.22942096297068));
#779=CARTESIAN_POINT('',(182.9622817331,-70.5802464374329,1.21803924661336));
#780=CARTESIAN_POINT('',(182.9622817331,-70.5802464374329,1.21803924661336));
#781=CARTESIAN_POINT('',(182.9622817331,-47.5802464374329,1.21803924661336));
#782=CARTESIAN_POINT('Origin',(182.9622817331,-47.5802464374329,11.5410652357118));
#783=CARTESIAN_POINT('',(179.9622817331,-47.5802464374329,1.21803924661336));
#784=CARTESIAN_POINT('',(182.9622817331,-47.5802464374329,1.21803924661336));
#785=CARTESIAN_POINT('',(179.9622817331,-47.5802464374329,21.2358924195268));
#786=CARTESIAN_POINT('',(179.9622817331,-47.5802464374329,21.2180392466134));
#787=CARTESIAN_POINT('',(182.9622817331,-47.5802464374329,21.2358924195268));
#788=CARTESIAN_POINT('Origin',(179.9622817331,-57.8019140978932,11.2219761194241));
#789=CARTESIAN_POINT('',(179.9622817331,-67.5802464374318,1.21803924661336));
#790=CARTESIAN_POINT('',(179.9622817331,-47.5802464374329,1.21803924661336));
#791=CARTESIAN_POINT('',(179.9622817331,-67.5802464374318,21.2358924195257));
#792=CARTESIAN_POINT('',(179.9622817331,-67.5802464374318,14.7570221236571));
#793=CARTESIAN_POINT('',(179.9622817331,-67.5980996103405,21.2358924195257));
#794=CARTESIAN_POINT('Origin',(168.358494851161,-76.0055023003444,29.6432951095296));
#795=CARTESIAN_POINT('',(166.076154308226,-83.8496245435412,19.0907967642342));
#796=CARTESIAN_POINT('',(168.358494851161,-83.8496245435412,21.7991728663327));
#797=CARTESIAN_POINT('',(168.25524532006,-83.8496245435412,21.6766501501444));
#798=CARTESIAN_POINT('',(166.076154308226,-74.6513142492952,28.2891070584803));
#799=CARTESIAN_POINT('',(166.076154308226,-74.6513142492952,28.2891070584803));
#800=CARTESIAN_POINT('',(168.358494851161,-76.0055023003444,29.6432951095296));
#801=CARTESIAN_POINT('',(174.635999115088,-79.7301529844576,33.3679457936428));
#802=CARTESIAN_POINT('',(168.358494851161,-76.0055023003444,29.6432951095296));
#803=CARTESIAN_POINT('Origin',(166.076154308226,-74.6513142492952,28.2891070584803));
#804=CARTESIAN_POINT('',(168.358494851161,-83.8496245435412,16.3824206621358));
#805=CARTESIAN_POINT('',(171.716582808562,-83.8496245435412,12.3974915941554));
#806=CARTESIAN_POINT('',(168.358494851161,-73.2971261982459,26.9349190074311));
#807=CARTESIAN_POINT('',(168.358494851161,-73.2971261982458,26.9349190074311));
#808=CARTESIAN_POINT('',(168.566666112859,-73.1736113108484,26.8114041200336));
#809=CARTESIAN_POINT('Origin',(182.9622817331,-83.8496245435412,1.22942096297069));
#810=CARTESIAN_POINT('',(159.9622817331,-83.8496245435412,33.2447766656071));
#811=CARTESIAN_POINT('',(182.9622817331,-83.8496245435412,33.2447766656072));
#812=CARTESIAN_POINT('',(159.9622817331,-83.8496245435412,1.22942096297068));
#813=CARTESIAN_POINT('',(159.9622817331,-83.8496245435412,33.2447766656072));
#814=CARTESIAN_POINT('',(182.9622817331,-83.8496245435412,1.22942096297068));
#815=CARTESIAN_POINT('',(168.358494851163,-83.8496245435412,9.30292813881663));
#816=CARTESIAN_POINT('',(166.076154308228,-83.8496245435412,11.2180392466139));
#817=CARTESIAN_POINT('',(174.631134931611,-83.8496245435412,4.03955816080454));
#818=CARTESIAN_POINT('',(168.358494851163,-83.8496245435412,13.1331503544114));
#819=CARTESIAN_POINT('',(168.571530296338,-83.8496245435412,13.3119083178858));
#820=CARTESIAN_POINT('Origin',(169.965463875379,-83.8496245435412,11.218039246614));
#821=CARTESIAN_POINT('Origin',(169.965463875377,-83.8496245435412,19.0907967642342));
#822=CARTESIAN_POINT('Origin',(182.9622817331,-81.7283041999816,35.3660970091668));
#823=CARTESIAN_POINT('',(159.9622817331,-67.5980996103405,21.2358924195257));
#824=CARTESIAN_POINT('',(182.9622817331,-67.5980996103405,21.2358924195257));
#825=CARTESIAN_POINT('',(159.9622817331,-67.5983555587861,21.2361483679712));
#826=CARTESIAN_POINT('',(159.9622817331,-81.7315617967154,35.3693546059006));
#827=CARTESIAN_POINT('',(159.9622817331,-81.7283041999816,35.3660970091668));
#828=CARTESIAN_POINT('',(159.9622817331,-81.7315617967154,35.3693546059006));
#829=CARTESIAN_POINT('',(182.9622817331,-81.7283041999816,35.3660970091668));
#830=CARTESIAN_POINT('Origin',(169.965463875377,-74.6513142492951,28.2891070584803));
#831=CARTESIAN_POINT('Origin',(169.965463875379,-67.5802464374318,11.218039246614));
#832=CARTESIAN_POINT('',(168.358494851163,-67.5802464374318,13.1331503544114));
#833=CARTESIAN_POINT('',(168.358494851163,-67.5802464374318,13.1331503544114));
#834=CARTESIAN_POINT('',(168.358494851163,-67.5802464374318,9.30292813881663));
#835=CARTESIAN_POINT('Origin',(169.965463875379,-67.5802464374318,11.218039246614));
#836=CARTESIAN_POINT('',(168.358494851163,-67.5802464374318,9.30292813881653));
#837=CARTESIAN_POINT('Origin',(179.9622817331,-67.5802464374318,21.2358924195257));
#838=CARTESIAN_POINT('',(159.9622817331,-67.5802464374318,1.21803924661336));
#839=CARTESIAN_POINT('',(179.9622817331,-67.5802464374318,1.21803924661336));
#840=CARTESIAN_POINT('',(159.9622817331,-67.5802464374318,21.2358924195257));
#841=CARTESIAN_POINT('',(159.9622817331,-67.5802464374318,14.7570221236571));
#842=CARTESIAN_POINT('',(179.9622817331,-67.5802464374318,21.2358924195257));
#843=CARTESIAN_POINT('',(166.076154308228,-67.5802464374318,11.2180392466139));
#844=CARTESIAN_POINT('',(172.616926213296,-67.5802464374318,16.7063985397715));
#845=CARTESIAN_POINT('',(168.825266748153,-67.5802464374318,8.91126001220807));
#846=CARTESIAN_POINT('Origin',(159.9622817331,-67.5943605416798,21.2331483679712));
#847=CARTESIAN_POINT('',(159.9622817331,-67.5943605416798,1.21814836797123));
#848=CARTESIAN_POINT('',(159.9622817331,-67.5943605416798,21.2358924195257));
#849=CARTESIAN_POINT('',(159.9622817331,-67.5943605416798,6.22756224369768));
#850=CARTESIAN_POINT('',(139.9622817331,-67.5943605416798,1.21814836797123));
#851=CARTESIAN_POINT('',(159.9622817331,-67.5943605416798,1.21814836797123));
#852=CARTESIAN_POINT('',(139.9622817331,-67.5943605416798,21.2361483679712));
#853=CARTESIAN_POINT('',(139.9622817331,-67.5943605416798,21.2331483679712));
#854=CARTESIAN_POINT('',(159.9622817331,-67.5943605416798,21.2361483679712));
#855=CARTESIAN_POINT('',(159.9622817331,-67.5943605416798,21.2361483679712));
#856=CARTESIAN_POINT('',(159.9622817331,-67.5943605416798,21.2331483679712));
#857=CARTESIAN_POINT('',(149.001282460849,-67.5943605416798,12.3671059112923));
#858=CARTESIAN_POINT('',(147.631878135088,-67.5943605416798,11.2180392466141));
#859=CARTESIAN_POINT('',(153.715506340759,-67.5943605416798,16.3228094302103));
#860=CARTESIAN_POINT('',(149.001282460849,-67.5943605416798,10.0689725819357));
#861=CARTESIAN_POINT('',(149.468729948652,-67.5943605416798,9.67673756732601));
#862=CARTESIAN_POINT('Origin',(149.965463875379,-67.5943605416798,11.218039246614));
#863=CARTESIAN_POINT('Origin',(166.076154308228,-83.8496245435412,11.2180392466139));
#864=CARTESIAN_POINT('',(166.076154308228,-83.8496245435412,11.2180392466139));
#865=CARTESIAN_POINT('Origin',(168.358494851163,-83.8496245435412,9.30292813881662));
#866=CARTESIAN_POINT('Origin',(147.631878135088,-83.8496245435412,11.2180392466141));
#867=CARTESIAN_POINT('',(147.631878135088,-70.5943605416798,11.2180392466141));
#868=CARTESIAN_POINT('',(149.001282460849,-70.5943605416798,12.3671059112923));
#869=CARTESIAN_POINT('',(148.791467575698,-70.5943605416798,12.1910503185468));
#870=CARTESIAN_POINT('',(147.631878135088,-83.8496245435412,11.2180392466141));
#871=CARTESIAN_POINT('',(149.001282460849,-67.5802464374318,12.3671059112927));
#872=CARTESIAN_POINT('Origin',(149.001282460849,-83.8496245435412,10.0689725819357));
#873=CARTESIAN_POINT('',(149.001282460849,-70.5943605416798,10.0689725819357));
#874=CARTESIAN_POINT('',(154.392768713712,-70.5943605416798,5.54497845566202));
#875=CARTESIAN_POINT('',(149.001282460849,-67.5802464374318,10.0689725819354));
#876=CARTESIAN_POINT('Origin',(159.9622817331,-70.5943605416798,1.23314836797123));
#877=CARTESIAN_POINT('',(159.9622817331,-70.5943605416798,21.2361483679712));
#878=CARTESIAN_POINT('',(159.9622817331,-70.5943605416798,1.22942096297068));
#879=CARTESIAN_POINT('',(159.9622817331,-70.5943605416798,16.2275622436977));
#880=CARTESIAN_POINT('',(139.9622817331,-70.5943605416798,21.2361483679712));
#881=CARTESIAN_POINT('',(159.9622817331,-70.5943605416798,21.2361483679712));
#882=CARTESIAN_POINT('',(139.9622817331,-70.5943605416798,1.21814836797123));
#883=CARTESIAN_POINT('',(139.9622817331,-70.5943605416798,1.23314836797123));
#884=CARTESIAN_POINT('',(159.9622817331,-70.5943605416798,1.21814836797123));
#885=CARTESIAN_POINT('',(159.9622817331,-70.5943605416798,1.21814836797123));
#886=CARTESIAN_POINT('',(159.9622817331,-70.5943605416798,1.23314836797123));
#887=CARTESIAN_POINT('Origin',(149.965463875379,-70.5943605416798,11.218039246614));
#888=CARTESIAN_POINT('Origin',(169.965463875377,-74.6513142492951,28.2891070584803));
#889=CARTESIAN_POINT('Origin',(149.965463875379,-67.5802464374318,11.218039246614));
#890=CARTESIAN_POINT('Origin',(159.9622817331,-70.5943605416798,21.2331483679712));
#891=CARTESIAN_POINT('',(159.9622817331,-67.5980996103405,21.2358924195257));
#892=CARTESIAN_POINT('',(159.9622817331,-64.1981373197865,21.2361483679712));
#893=CARTESIAN_POINT('Origin',(159.9622817331,-70.5943605416798,21.2361483679712));
#894=CARTESIAN_POINT('',(159.9622817331,-64.1981373197865,21.2361483679712));
#895=CARTESIAN_POINT('',(139.9622817331,-70.5943605416798,21.2361483679712));
#896=CARTESIAN_POINT('Origin',(159.9622817331,-57.8019140978932,11.2219761194241));
#897=CARTESIAN_POINT('',(159.9622817331,-83.8496245435412,1.22942096297068));
#898=CARTESIAN_POINT('',(159.9622817331,-83.8496245435412,33.2447766656072));
#899=CARTESIAN_POINT('Origin',(159.9622817331,-67.5943605416798,1.23314836797123));
#900=CARTESIAN_POINT('',(159.9622817331,-70.5802464374331,1.22942096297068));
#901=CARTESIAN_POINT('',(159.9622817331,-83.8496245435412,1.22942096297068));
#902=CARTESIAN_POINT('',(159.9622817331,-70.5802464374329,1.21814836797123));
#903=CARTESIAN_POINT('',(159.9622817331,-62.6981373197865,1.21814836797123));
#904=CARTESIAN_POINT('',(159.9622817331,-70.5802464374329,1.21803924661336));
#905=CARTESIAN_POINT('Origin',(159.9622817331,-67.5943605416798,1.21814836797123));
#906=CARTESIAN_POINT('',(159.9622817331,-62.6981373197865,1.21814836797123));
#907=CARTESIAN_POINT('',(139.9622817331,-67.5943605416798,1.21814836797123));
#908=CARTESIAN_POINT('Origin',(139.9622817331,-69.0943605416798,11.2331483679712));
#909=CARTESIAN_POINT('Origin',(159.9622817331,-57.8019140978932,11.2219761194241));
#910=CARTESIAN_POINT('',(159.9622817331,-67.5980996103405,21.2358924195257));
#911=CARTESIAN_POINT('',(159.9622817331,-70.5802464374329,1.21803924661336));
#912=CARTESIAN_POINT('',(159.9622817331,-47.5802464374329,1.21803924661336));
#913=CARTESIAN_POINT('',(159.9622817331,-70.5802464374329,1.21803924661336));
#914=CARTESIAN_POINT('Origin',(182.9622817331,-70.5802464374329,1.21803924661336));
#915=CARTESIAN_POINT('',(182.9622817331,-70.5802464374331,1.22942096297068));
#916=CARTESIAN_POINT('',(182.9622817331,-70.5802464374329,1.21803924661336));
#917=CARTESIAN_POINT('Origin',(182.9622817331,-47.5802464374329,1.21803924661336));
#918=CARTESIAN_POINT('Origin',(182.9622817331,-67.5980996103405,21.2358924195257));
#919=CARTESIAN_POINT('Origin',(182.9622817331,-83.8496245435412,33.2447766656072));
#920=CARTESIAN_POINT('Origin',(182.9622817331,-70.5802464374331,1.22942096297068));
#921=UNCERTAINTY_MEASURE_WITH_UNIT(LENGTH_MEASURE(0.01),#925,
'DISTANCE_ACCURACY_VALUE',
'Maximum model space distance between geometric entities at asserted c
onnectivities');
#922=UNCERTAINTY_MEASURE_WITH_UNIT(LENGTH_MEASURE(0.01),#925,
'DISTANCE_ACCURACY_VALUE',
'Maximum model space distance between geometric entities at asserted c
onnectivities');
#923=(
GEOMETRIC_REPRESENTATION_CONTEXT(3)
GLOBAL_UNCERTAINTY_ASSIGNED_CONTEXT((#921))
GLOBAL_UNIT_ASSIGNED_CONTEXT((#925,#927,#928))
REPRESENTATION_CONTEXT('','3D')
);
#924=(
GEOMETRIC_REPRESENTATION_CONTEXT(3)
GLOBAL_UNCERTAINTY_ASSIGNED_CONTEXT((#922))
GLOBAL_UNIT_ASSIGNED_CONTEXT((#925,#927,#928))
REPRESENTATION_CONTEXT('','3D')
);
#925=(
LENGTH_UNIT()
NAMED_UNIT(*)
SI_UNIT(.MILLI.,.METRE.)
);
#926=(
LENGTH_UNIT()
NAMED_UNIT(*)
SI_UNIT($,.METRE.)
);
#927=(
NAMED_UNIT(*)
PLANE_ANGLE_UNIT()
SI_UNIT($,.RADIAN.)
);
#928=(
NAMED_UNIT(*)
SI_UNIT($,.STERADIAN.)
SOLID_ANGLE_UNIT()
);
#929=SHAPE_DEFINITION_REPRESENTATION(#930,#931);
#930=PRODUCT_DEFINITION_SHAPE('',$,#933);
#931=SHAPE_REPRESENTATION('',(#585),#923);
#932=PRODUCT_DEFINITION_CONTEXT('part definition',#937,'design');
#933=PRODUCT_DEFINITION('alumount3(1x)','alumount3(1x) v1',#934,#932);
#934=PRODUCT_DEFINITION_FORMATION('',$,#939);
#935=PRODUCT_RELATED_PRODUCT_CATEGORY('alumount3(1x) v1',
'alumount3(1x) v1',(#939));
#936=APPLICATION_PROTOCOL_DEFINITION('international standard',
'automotive_design',2009,#937);
#937=APPLICATION_CONTEXT(
'Core Data for Automotive Mechanical Design Process');
#938=PRODUCT_CONTEXT('part definition',#937,'mechanical');
#939=PRODUCT('alumount3(1x)','alumount3(1x) v1',$,(#938));
#940=PRESENTATION_STYLE_ASSIGNMENT((#941));
#941=SURFACE_STYLE_USAGE(.BOTH.,#942);
#942=SURFACE_SIDE_STYLE('',(#943));
#943=SURFACE_STYLE_FILL_AREA(#944);
#944=FILL_AREA_STYLE('Steel - Satin',(#945));
#945=FILL_AREA_STYLE_COLOUR('Steel - Satin',#946);
#946=COLOUR_RGB('Steel - Satin',0.627450980392157,0.627450980392157,0.627450980392157);
ENDSEC;
END-ISO-10303-21;
