ISO-10303-21;
HEADER;
/* Generated by software containing ST-Developer
 * from STEP Tools, Inc. (www.steptools.com) 
 */

FILE_DESCRIPTION(
/* description */ (''),
/* implementation_level */ '2;1');

FILE_NAME(
/* name */ 'alumount(1x).step',
/* time_stamp */ '2025-12-01T15:59:54+05:30',
/* author */ (''),
/* organization */ (''),
/* preprocessor_version */ 'ST-DEVELOPER v20.1',
/* originating_system */ 'Autodesk Translation Framework v14.21.0.0',
/* authorisation */ '');

FILE_SCHEMA (('AUTOMOTIVE_DESIGN { 1 0 10303 214 3 1 1 }'));
ENDSEC;

DATA;
#10=MECHANICAL_DESIGN_GEOMETRIC_PRESENTATION_REPRESENTATION('',(#13),#1180);
#11=SHAPE_REPRESENTATION_RELATIONSHIP('SRR','None',#1187,#12);
#12=ADVANCED_BREP_SHAPE_REPRESENTATION('',(#14),#1179);
#13=STYLED_ITEM('',(#1196),#14);
#14=MANIFOLD_SOLID_BREP('Body1',#638);
#15=CYLINDRICAL_SURFACE('',#667,1.49999999999999);
#16=CYLINDRICAL_SURFACE('',#670,1.49999999999999);
#17=CYLINDRICAL_SURFACE('',#674,2.5);
#18=CYLINDRICAL_SURFACE('',#683,2.5);
#19=(
BOUNDED_CURVE()
B_SPLINE_CURVE(2,(#892,#893,#894,#895,#896,#897,#898,#899,#900,#901,#902,
#903,#904,#905,#906,#907,#908,#909,#910,#911,#912,#913,#914,#915,#916,#917,
#918,#919,#920,#921,#922,#923,#924,#925,#926,#927,#928,#929,#930,#931,#932,
#933,#934,#935,#936,#937,#938,#939,#940,#941,#942,#943,#944,#945,#946,#947,
#948,#949,#950,#951,#952,#953,#954,#955,#956,#957,#958,#959,#960,#961,#962,
#963,#964,#965,#966,#967,#968),.UNSPECIFIED.,.F.,.F.)
B_SPLINE_CURVE_WITH_KNOTS((3,1,1,1,1,1,1,1,1,1,1,1,1,1,1,1,1,1,1,1,1,1,
1,1,1,1,1,1,1,1,1,1,1,1,1,1,1,1,1,1,1,1,1,1,1,1,1,1,1,1,1,1,1,1,1,1,1,1,
1,1,1,1,1,1,1,1,1,1,1,1,1,1,1,1,1,3),(1.6269447245014,1.63646449625038,
1.63932665046866,1.64263608475801,1.64640388895751,1.65063940338748,1.65535057046752,
1.66054420512522,1.66622620417364,1.67240170976571,1.6790752381403,1.6862507819566,
1.69393189237043,1.70212174543706,1.7108231962872,1.72003882367849,1.72977096690708,
1.7400217566094,1.75079314063565,1.76208690592077,1.7739046970823,1.7862480323216,
1.7991183170922,1.8125168559065,1.82644486258141,1.84090346916894,1.85589373377277,
1.87141664741718,1.88747314010471,1.90406408617792,1.92119030908103,1.93885258560184,
1.9570516496624,1.97578819571586,1.99506288179909,2.01487633228333,2.03522914035792,
2.05612187027965,2.07755505941366,2.09952922008971,2.1220448412938,2.14510239021305,
2.16870231364918,2.19284503931392,2.21753097701913,2.24276051977106,2.26853404477905,
2.29485191438576,2.32171447692777,2.34912206753184,2.37707500885271,2.40557361175863,
2.43461817596811,2.46420899064276,2.49434633493975,2.52503047852712,2.55626168206537,
2.58804019765768,2.62036626927157,2.65324013313401,2.68666201810221,2.72063214601176,
2.755150732004,2.79021798483413,2.82583410716143,2.86199929582283,2.89871374209112,
2.93597763191874,2.97379114616838,3.01215446083108,3.05106774723271,3.09053117222963,
3.13054489839452,3.17110908419223,3.21222388414724,3.25388276944331),
 .UNSPECIFIED.)
CURVE()
GEOMETRIC_REPRESENTATION_ITEM()
RATIONAL_B_SPLINE_CURVE((1.,0.999999940886531,0.999999864900152,0.999999827160697,
0.999999784061952,0.999999735553777,0.99999968161713,0.999999622260484,
0.999999557517085,0.999999487442834,0.999999412114649,0.999999331629178,
0.999999246101783,0.99999915566573,0.999999060471546,0.999998960686495,
0.999998856494146,0.999998748094035,0.999998635701369,0.999998519546796,
0.999998399876203,0.999998276950554,0.999998151045748,0.999998022452508,
0.999997891476278,0.999997758437143,0.999997623669754,0.999997487523273,
0.999997350361317,0.999997212561915,0.999997074517473,0.999996936634739,
0.999996799334776,0.999996663052939,0.999996528238854,0.999996395356403,
0.999996264883704,0.999996137313103,0.999996013151165,0.999995892918658,
0.999995777150552,0.999995666396009,0.99999556121838,0.999995462195199,
0.999995369918181,0.999995284993218,0.999995208040377,0.999995139693902,
0.999995080602206,0.99999503142788,0.999994992847682,0.999994965552548,
0.999994950247583,0.99999494765207,0.999994958499464,0.999994983537399,
0.999995023527687,0.999995079246317,0.999995151483461,0.999995241043475,
0.999995348744898,0.999995475420459,0.999995621917075,0.999995789095853,
0.999995977832097,0.999996189015305,0.999996423549176,0.99999668235161,
0.999996966354708,0.999997276504781,0.999997613762349,0.99999797910214,
0.999998373513101,0.999998797998393,0.999999253575398,0.999999741236369,
0.999999999917046))
REPRESENTATION_ITEM('')
);
#20=(
BOUNDED_CURVE()
B_SPLINE_CURVE(2,(#974,#975,#976,#977,#978,#979,#980,#981,#982,#983,#984,
#985,#986,#987,#988,#989,#990,#991,#992,#993,#994,#995,#996,#997,#998,#999,
#1000,#1001,#1002,#1003,#1004,#1005,#1006,#1007,#1008,#1009,#1010,#1011,
#1012,#1013,#1014,#1015,#1016,#1017,#1018,#1019,#1020,#1021,#1022,#1023,
#1024,#1025,#1026,#1027,#1028,#1029,#1030,#1031,#1032,#1033,#1034,#1035,
#1036,#1037,#1038,#1039,#1040,#1041,#1042,#1043,#1044,#1045,#1046,#1047,
#1048,#1049,#1050),.UNSPECIFIED.,.F.,.F.)
B_SPLINE_CURVE_WITH_KNOTS((3,1,1,1,1,1,1,1,1,1,1,1,1,1,1,1,1,1,1,1,1,1,
1,1,1,1,1,1,1,1,1,1,1,1,1,1,1,1,1,1,1,1,1,1,1,1,1,1,1,1,1,1,1,1,1,1,1,1,
1,1,1,1,1,1,1,1,1,1,1,1,1,1,1,1,1,3),(6.67955598234148E-6,0.0416647444323268,
0.0827787770772432,0.123342256169962,0.16335533306933,0.202818163200388,
0.241730906218309,0.280093726181035,0.317906791731733,0.355170276291066,
0.391884358260729,0.42804922123807,0.463665054243805,0.498732051962515,
0.533250414998002,0.567220350143804,0.600642070670407,0.633515796630715,
0.665841755184212,0.697620180942565,0.728851316337602,0.759535412013666,
0.789672727246705,0.819263530391881,0.848308099362457,0.876806722142722,
0.904759697337921,0.932167334764827,0.959029956085977,0.985347895492763,
1.01112150044107,1.03635113244547,1.06103716793723,1.08517999919279,1.10878003534011,
1.13183770345088,1.15435344972875,1.17632774080275,1.19776106513873,1.21865393458236,
1.23900688604904,1.25882048337813,1.27809531937244,1.29683201804545,1.31503123710379,
1.33269367069589,1.34982005246298,1.36641115893456,1.38246781331731,1.39799088973564,
1.41298131799162,1.42744008892542,1.44136826047201,1.45476696452747,1.46763741476482,
1.47998091556282,1.49179887225061,1.50309280291221,1.51386435205366,1.52411530650272,
1.53384761400425,1.54306340508973,1.55176501894864,1.55995503422686,1.56763630593648,
1.5748120100039,1.5814856974405,1.58766136074222,1.59334351595858,1.5985373050189,
1.6032486244694,1.60748428891462,1.61125224037719,1.6145618186832,1.61742411305231,
1.62694472434053),.UNSPECIFIED.)
CURVE()
GEOMETRIC_REPRESENTATION_ITEM()
RATIONAL_B_SPLINE_CURVE((0.999999999917023,0.999999741168087,0.999999253377669,
0.99999879767871,0.999998373078781,0.999997978560367,0.999997613120167,
0.999997275769087,0.999996965532245,0.999996681448963,0.999996422572767,
0.999996187971385,0.999995976726747,0.999995787934978,0.999995620706401,
0.999995474165531,0.999995347451077,0.999995239715936,0.999995150127195,
0.999995077866126,0.999995022128187,0.999994982123016,0.999994957074435,
0.999994946220446,0.999994948813229,0.99999496411914,0.999994991418715,
0.99999503000666,0.999995079191862,0.99999513829738,0.999995206660446,0.999995283632471,
0.999995368579037,0.999995460879907,0.999995559929019,0.999995665134494,
0.999995775918634,0.999995891717931,0.999996011983064,0.999996136178912,
0.999996263784555,0.999996394293284,0.999996527212611,0.999996662064275,
0.999996798384262,0.999996935722814,0.999997073644447,0.999997211727974,
0.999997349566528,0.999997486767586,0.999997622953007,0.999997757759064,
0.999997890836494,0.999998021850543,0.999998150481032,0.999998276422423,
0.999998399383908,0.999998519089502,0.999998635278163,0.999998747703927,
0.999998856136078,0.99999896035934,0.999999060174119,0.999999155396783,
0.999999245860019,0.999999331413252,0.999999411923169,0.999999487274372,
0.999999557370179,0.999999622133643,0.99999968150884,0.999999735462508,
0.999999783986164,0.999999827098844,0.999999864850692,0.999999940864554,
1.))
REPRESENTATION_ITEM('')
);
#21=CIRCLE('',#656,2.50000002907812);
#22=CIRCLE('',#658,2.5);
#23=CIRCLE('',#662,2.50000000011669);
#24=CIRCLE('',#668,1.49999999999999);
#25=CIRCLE('',#669,1.49999999999999);
#26=CIRCLE('',#671,1.49999999999999);
#27=CIRCLE('',#672,1.49999999999999);
#28=FACE_BOUND('',#71,.T.);
#29=FACE_BOUND('',#72,.T.);
#30=FACE_BOUND('',#74,.T.);
#31=FACE_BOUND('',#78,.T.);
#32=FACE_BOUND('',#86,.T.);
#33=FACE_BOUND('',#87,.T.);
#34=FACE_BOUND('',#93,.T.);
#35=FACE_BOUND('',#94,.T.);
#36=ELLIPSE('',#655,3.53502893223051,2.5);
#37=FACE_OUTER_BOUND('',#68,.T.);
#38=FACE_OUTER_BOUND('',#69,.T.);
#39=FACE_OUTER_BOUND('',#70,.T.);
#40=FACE_OUTER_BOUND('',#73,.T.);
#41=FACE_OUTER_BOUND('',#75,.T.);
#42=FACE_OUTER_BOUND('',#76,.T.);
#43=FACE_OUTER_BOUND('',#77,.T.);
#44=FACE_OUTER_BOUND('',#79,.T.);
#45=FACE_OUTER_BOUND('',#80,.T.);
#46=FACE_OUTER_BOUND('',#81,.T.);
#47=FACE_OUTER_BOUND('',#82,.T.);
#48=FACE_OUTER_BOUND('',#83,.T.);
#49=FACE_OUTER_BOUND('',#84,.T.);
#50=FACE_OUTER_BOUND('',#85,.T.);
#51=FACE_OUTER_BOUND('',#88,.T.);
#52=FACE_OUTER_BOUND('',#89,.T.);
#53=FACE_OUTER_BOUND('',#90,.T.);
#54=FACE_OUTER_BOUND('',#91,.T.);
#55=FACE_OUTER_BOUND('',#92,.T.);
#56=FACE_OUTER_BOUND('',#95,.T.);
#57=FACE_OUTER_BOUND('',#96,.T.);
#58=FACE_OUTER_BOUND('',#97,.T.);
#59=FACE_OUTER_BOUND('',#98,.T.);
#60=FACE_OUTER_BOUND('',#99,.T.);
#61=FACE_OUTER_BOUND('',#100,.T.);
#62=FACE_OUTER_BOUND('',#101,.T.);
#63=FACE_OUTER_BOUND('',#102,.T.);
#64=FACE_OUTER_BOUND('',#103,.T.);
#65=FACE_OUTER_BOUND('',#104,.T.);
#66=FACE_OUTER_BOUND('',#105,.T.);
#67=FACE_OUTER_BOUND('',#106,.T.);
#68=EDGE_LOOP('',(#406,#407,#408,#409));
#69=EDGE_LOOP('',(#410,#411,#412,#413));
#70=EDGE_LOOP('',(#414,#415,#416,#417));
#71=EDGE_LOOP('',(#418,#419,#420));
#72=EDGE_LOOP('',(#421,#422,#423));
#73=EDGE_LOOP('',(#424,#425,#426,#427));
#74=EDGE_LOOP('',(#428,#429,#430));
#75=EDGE_LOOP('',(#431,#432,#433,#434));
#76=EDGE_LOOP('',(#435,#436,#437,#438));
#77=EDGE_LOOP('',(#439,#440,#441,#442));
#78=EDGE_LOOP('',(#443,#444,#445));
#79=EDGE_LOOP('',(#446,#447,#448,#449));
#80=EDGE_LOOP('',(#450,#451,#452,#453));
#81=EDGE_LOOP('',(#454,#455,#456,#457));
#82=EDGE_LOOP('',(#458,#459,#460,#461));
#83=EDGE_LOOP('',(#462,#463,#464,#465));
#84=EDGE_LOOP('',(#466,#467,#468,#469));
#85=EDGE_LOOP('',(#470,#471,#472,#473,#474,#475,#476,#477,#478,#479,#480,
#481,#482,#483,#484));
#86=EDGE_LOOP('',(#485,#486,#487));
#87=EDGE_LOOP('',(#488,#489,#490));
#88=EDGE_LOOP('',(#491,#492,#493,#494));
#89=EDGE_LOOP('',(#495,#496,#497,#498));
#90=EDGE_LOOP('',(#499,#500,#501,#502));
#91=EDGE_LOOP('',(#503,#504,#505,#506));
#92=EDGE_LOOP('',(#507,#508,#509,#510,#511,#512,#513,#514,#515,#516,#517,
#518));
#93=EDGE_LOOP('',(#519,#520,#521));
#94=EDGE_LOOP('',(#522,#523,#524));
#95=EDGE_LOOP('',(#525,#526,#527,#528,#529,#530));
#96=EDGE_LOOP('',(#531,#532,#533,#534));
#97=EDGE_LOOP('',(#535,#536,#537,#538,#539,#540,#541));
#98=EDGE_LOOP('',(#542,#543,#544,#545));
#99=EDGE_LOOP('',(#546,#547,#548,#549));
#100=EDGE_LOOP('',(#550,#551,#552,#553));
#101=EDGE_LOOP('',(#554,#555,#556,#557));
#102=EDGE_LOOP('',(#558,#559,#560,#561));
#103=EDGE_LOOP('',(#562,#563,#564,#565,#566,#567));
#104=EDGE_LOOP('',(#568,#569,#570,#571));
#105=EDGE_LOOP('',(#572,#573,#574,#575));
#106=EDGE_LOOP('',(#576,#577,#578,#579));
#107=LINE('',#852,#184);
#108=LINE('',#854,#185);
#109=LINE('',#856,#186);
#110=LINE('',#857,#187);
#111=LINE('',#860,#188);
#112=LINE('',#862,#189);
#113=LINE('',#863,#190);
#114=LINE('',#867,#191);
#115=LINE('',#869,#192);
#116=LINE('',#871,#193);
#117=LINE('',#872,#194);
#118=LINE('',#876,#195);
#119=LINE('',#879,#196);
#120=LINE('',#883,#197);
#121=LINE('',#885,#198);
#122=LINE('',#887,#199);
#123=LINE('',#888,#200);
#124=LINE('',#970,#201);
#125=LINE('',#971,#202);
#126=LINE('',#1051,#203);
#127=LINE('',#1054,#204);
#128=LINE('',#1056,#205);
#129=LINE('',#1057,#206);
#130=LINE('',#1062,#207);
#131=LINE('',#1064,#208);
#132=LINE('',#1066,#209);
#133=LINE('',#1067,#210);
#134=LINE('',#1070,#211);
#135=LINE('',#1072,#212);
#136=LINE('',#1073,#213);
#137=LINE('',#1077,#214);
#138=LINE('',#1079,#215);
#139=LINE('',#1081,#216);
#140=LINE('',#1082,#217);
#141=LINE('',#1085,#218);
#142=LINE('',#1087,#219);
#143=LINE('',#1088,#220);
#144=LINE('',#1098,#221);
#145=LINE('',#1100,#222);
#146=LINE('',#1102,#223);
#147=LINE('',#1104,#224);
#148=LINE('',#1105,#225);
#149=LINE('',#1107,#226);
#150=LINE('',#1109,#227);
#151=LINE('',#1111,#228);
#152=LINE('',#1113,#229);
#153=LINE('',#1115,#230);
#154=LINE('',#1117,#231);
#155=LINE('',#1119,#232);
#156=LINE('',#1120,#233);
#157=LINE('',#1124,#234);
#158=LINE('',#1126,#235);
#159=LINE('',#1127,#236);
#160=LINE('',#1130,#237);
#161=LINE('',#1131,#238);
#162=LINE('',#1134,#239);
#163=LINE('',#1135,#240);
#164=LINE('',#1138,#241);
#165=LINE('',#1140,#242);
#166=LINE('',#1142,#243);
#167=LINE('',#1144,#244);
#168=LINE('',#1145,#245);
#169=LINE('',#1147,#246);
#170=LINE('',#1149,#247);
#171=LINE('',#1150,#248);
#172=LINE('',#1152,#249);
#173=LINE('',#1153,#250);
#174=LINE('',#1155,#251);
#175=LINE('',#1158,#252);
#176=LINE('',#1160,#253);
#177=LINE('',#1161,#254);
#178=LINE('',#1163,#255);
#179=LINE('',#1166,#256);
#180=LINE('',#1168,#257);
#181=LINE('',#1171,#258);
#182=LINE('',#1173,#259);
#183=LINE('',#1175,#260);
#184=VECTOR('',#695,10.);
#185=VECTOR('',#696,10.);
#186=VECTOR('',#697,10.);
#187=VECTOR('',#698,10.);
#188=VECTOR('',#701,10.);
#189=VECTOR('',#702,10.);
#190=VECTOR('',#703,10.);
#191=VECTOR('',#706,10.);
#192=VECTOR('',#707,10.);
#193=VECTOR('',#708,10.);
#194=VECTOR('',#709,10.);
#195=VECTOR('',#712,10.);
#196=VECTOR('',#715,10.);
#197=VECTOR('',#718,10.);
#198=VECTOR('',#719,10.);
#199=VECTOR('',#720,10.);
#200=VECTOR('',#721,10.);
#201=VECTOR('',#726,10.);
#202=VECTOR('',#727,10.);
#203=VECTOR('',#730,10.);
#204=VECTOR('',#733,10.);
#205=VECTOR('',#734,10.);
#206=VECTOR('',#735,10.);
#207=VECTOR('',#740,10.);
#208=VECTOR('',#741,10.);
#209=VECTOR('',#742,10.);
#210=VECTOR('',#743,10.);
#211=VECTOR('',#746,10.);
#212=VECTOR('',#747,10.);
#213=VECTOR('',#748,10.);
#214=VECTOR('',#751,10.);
#215=VECTOR('',#752,10.);
#216=VECTOR('',#753,10.);
#217=VECTOR('',#754,10.);
#218=VECTOR('',#757,10.);
#219=VECTOR('',#758,10.);
#220=VECTOR('',#759,10.);
#221=VECTOR('',#774,10.);
#222=VECTOR('',#775,10.);
#223=VECTOR('',#776,10.);
#224=VECTOR('',#777,10.);
#225=VECTOR('',#778,10.);
#226=VECTOR('',#779,10.);
#227=VECTOR('',#780,10.);
#228=VECTOR('',#781,10.);
#229=VECTOR('',#782,10.);
#230=VECTOR('',#783,10.);
#231=VECTOR('',#784,10.);
#232=VECTOR('',#785,10.);
#233=VECTOR('',#786,10.);
#234=VECTOR('',#791,10.);
#235=VECTOR('',#792,10.);
#236=VECTOR('',#793,10.);
#237=VECTOR('',#796,10.);
#238=VECTOR('',#797,10.);
#239=VECTOR('',#800,10.);
#240=VECTOR('',#801,10.);
#241=VECTOR('',#804,10.);
#242=VECTOR('',#805,10.);
#243=VECTOR('',#806,10.);
#244=VECTOR('',#807,10.);
#245=VECTOR('',#808,10.);
#246=VECTOR('',#809,10.);
#247=VECTOR('',#810,10.);
#248=VECTOR('',#811,10.);
#249=VECTOR('',#814,10.);
#250=VECTOR('',#815,10.);
#251=VECTOR('',#818,10.);
#252=VECTOR('',#821,10.);
#253=VECTOR('',#822,10.);
#254=VECTOR('',#823,10.);
#255=VECTOR('',#826,10.);
#256=VECTOR('',#831,10.);
#257=VECTOR('',#834,10.);
#258=VECTOR('',#839,10.);
#259=VECTOR('',#842,10.);
#260=VECTOR('',#845,10.);
#261=VERTEX_POINT('',#850);
#262=VERTEX_POINT('',#851);
#263=VERTEX_POINT('',#853);
#264=VERTEX_POINT('',#855);
#265=VERTEX_POINT('',#859);
#266=VERTEX_POINT('',#861);
#267=VERTEX_POINT('',#865);
#268=VERTEX_POINT('',#866);
#269=VERTEX_POINT('',#868);
#270=VERTEX_POINT('',#870);
#271=VERTEX_POINT('',#874);
#272=VERTEX_POINT('',#875);
#273=VERTEX_POINT('',#877);
#274=VERTEX_POINT('',#881);
#275=VERTEX_POINT('',#882);
#276=VERTEX_POINT('',#884);
#277=VERTEX_POINT('',#886);
#278=VERTEX_POINT('',#891);
#279=VERTEX_POINT('',#969);
#280=VERTEX_POINT('',#973);
#281=VERTEX_POINT('',#1053);
#282=VERTEX_POINT('',#1055);
#283=VERTEX_POINT('',#1060);
#284=VERTEX_POINT('',#1061);
#285=VERTEX_POINT('',#1063);
#286=VERTEX_POINT('',#1065);
#287=VERTEX_POINT('',#1069);
#288=VERTEX_POINT('',#1071);
#289=VERTEX_POINT('',#1075);
#290=VERTEX_POINT('',#1076);
#291=VERTEX_POINT('',#1078);
#292=VERTEX_POINT('',#1080);
#293=VERTEX_POINT('',#1084);
#294=VERTEX_POINT('',#1086);
#295=VERTEX_POINT('',#1096);
#296=VERTEX_POINT('',#1097);
#297=VERTEX_POINT('',#1099);
#298=VERTEX_POINT('',#1101);
#299=VERTEX_POINT('',#1103);
#300=VERTEX_POINT('',#1106);
#301=VERTEX_POINT('',#1108);
#302=VERTEX_POINT('',#1110);
#303=VERTEX_POINT('',#1112);
#304=VERTEX_POINT('',#1114);
#305=VERTEX_POINT('',#1116);
#306=VERTEX_POINT('',#1118);
#307=VERTEX_POINT('',#1123);
#308=VERTEX_POINT('',#1125);
#309=VERTEX_POINT('',#1129);
#310=VERTEX_POINT('',#1133);
#311=VERTEX_POINT('',#1137);
#312=VERTEX_POINT('',#1139);
#313=VERTEX_POINT('',#1141);
#314=VERTEX_POINT('',#1143);
#315=VERTEX_POINT('',#1146);
#316=VERTEX_POINT('',#1148);
#317=VERTEX_POINT('',#1157);
#318=VERTEX_POINT('',#1159);
#319=EDGE_CURVE('',#261,#262,#107,.T.);
#320=EDGE_CURVE('',#263,#261,#108,.T.);
#321=EDGE_CURVE('',#264,#263,#109,.T.);
#322=EDGE_CURVE('',#264,#262,#110,.T.);
#323=EDGE_CURVE('',#265,#261,#111,.T.);
#324=EDGE_CURVE('',#266,#265,#112,.T.);
#325=EDGE_CURVE('',#263,#266,#113,.T.);
#326=EDGE_CURVE('',#267,#268,#114,.T.);
#327=EDGE_CURVE('',#268,#269,#115,.T.);
#328=EDGE_CURVE('',#269,#270,#116,.T.);
#329=EDGE_CURVE('',#267,#270,#117,.T.);
#330=EDGE_CURVE('',#265,#262,#36,.T.);
#331=EDGE_CURVE('',#271,#272,#118,.T.);
#332=EDGE_CURVE('',#273,#272,#21,.T.);
#333=EDGE_CURVE('',#273,#271,#119,.T.);
#334=EDGE_CURVE('',#274,#275,#120,.T.);
#335=EDGE_CURVE('',#275,#276,#121,.T.);
#336=EDGE_CURVE('',#276,#277,#122,.T.);
#337=EDGE_CURVE('',#274,#277,#123,.T.);
#338=EDGE_CURVE('',#264,#266,#22,.T.);
#339=EDGE_CURVE('',#278,#273,#19,.T.);
#340=EDGE_CURVE('',#279,#278,#124,.T.);
#341=EDGE_CURVE('',#279,#271,#125,.T.);
#342=EDGE_CURVE('',#272,#280,#20,.T.);
#343=EDGE_CURVE('',#280,#279,#126,.T.);
#344=EDGE_CURVE('',#275,#281,#127,.T.);
#345=EDGE_CURVE('',#282,#281,#128,.T.);
#346=EDGE_CURVE('',#276,#282,#129,.T.);
#347=EDGE_CURVE('',#278,#280,#23,.T.);
#348=EDGE_CURVE('',#283,#284,#130,.T.);
#349=EDGE_CURVE('',#283,#285,#131,.T.);
#350=EDGE_CURVE('',#286,#285,#132,.T.);
#351=EDGE_CURVE('',#284,#286,#133,.T.);
#352=EDGE_CURVE('',#287,#283,#134,.T.);
#353=EDGE_CURVE('',#287,#288,#135,.T.);
#354=EDGE_CURVE('',#285,#288,#136,.T.);
#355=EDGE_CURVE('',#289,#290,#137,.T.);
#356=EDGE_CURVE('',#289,#291,#138,.T.);
#357=EDGE_CURVE('',#292,#291,#139,.T.);
#358=EDGE_CURVE('',#290,#292,#140,.T.);
#359=EDGE_CURVE('',#293,#289,#141,.T.);
#360=EDGE_CURVE('',#293,#294,#142,.T.);
#361=EDGE_CURVE('',#291,#294,#143,.T.);
#362=EDGE_CURVE('',#286,#288,#24,.T.);
#363=EDGE_CURVE('',#284,#287,#25,.T.);
#364=EDGE_CURVE('',#292,#294,#26,.T.);
#365=EDGE_CURVE('',#290,#293,#27,.T.);
#366=EDGE_CURVE('',#295,#296,#144,.T.);
#367=EDGE_CURVE('',#297,#295,#145,.T.);
#368=EDGE_CURVE('',#298,#297,#146,.T.);
#369=EDGE_CURVE('',#299,#298,#147,.T.);
#370=EDGE_CURVE('',#277,#299,#148,.T.);
#371=EDGE_CURVE('',#300,#282,#149,.T.);
#372=EDGE_CURVE('',#301,#300,#150,.T.);
#373=EDGE_CURVE('',#302,#301,#151,.T.);
#374=EDGE_CURVE('',#303,#302,#152,.T.);
#375=EDGE_CURVE('',#304,#303,#153,.T.);
#376=EDGE_CURVE('',#305,#304,#154,.T.);
#377=EDGE_CURVE('',#306,#305,#155,.T.);
#378=EDGE_CURVE('',#296,#306,#156,.T.);
#379=EDGE_CURVE('',#307,#297,#157,.T.);
#380=EDGE_CURVE('',#308,#295,#158,.T.);
#381=EDGE_CURVE('',#308,#307,#159,.T.);
#382=EDGE_CURVE('',#309,#308,#160,.T.);
#383=EDGE_CURVE('',#296,#309,#161,.T.);
#384=EDGE_CURVE('',#310,#306,#162,.T.);
#385=EDGE_CURVE('',#309,#310,#163,.T.);
#386=EDGE_CURVE('',#311,#310,#164,.T.);
#387=EDGE_CURVE('',#311,#312,#165,.T.);
#388=EDGE_CURVE('',#312,#313,#166,.T.);
#389=EDGE_CURVE('',#313,#314,#167,.T.);
#390=EDGE_CURVE('',#268,#314,#168,.T.);
#391=EDGE_CURVE('',#315,#267,#169,.T.);
#392=EDGE_CURVE('',#316,#315,#170,.T.);
#393=EDGE_CURVE('',#316,#307,#171,.T.);
#394=EDGE_CURVE('',#270,#274,#172,.T.);
#395=EDGE_CURVE('',#299,#315,#173,.T.);
#396=EDGE_CURVE('',#298,#316,#174,.T.);
#397=EDGE_CURVE('',#317,#269,#175,.T.);
#398=EDGE_CURVE('',#318,#317,#176,.T.);
#399=EDGE_CURVE('',#318,#281,#177,.T.);
#400=EDGE_CURVE('',#300,#318,#178,.T.);
#401=EDGE_CURVE('',#301,#317,#179,.T.);
#402=EDGE_CURVE('',#311,#305,#180,.T.);
#403=EDGE_CURVE('',#314,#302,#181,.T.);
#404=EDGE_CURVE('',#313,#303,#182,.T.);
#405=EDGE_CURVE('',#312,#304,#183,.T.);
#406=ORIENTED_EDGE('',*,*,#319,.F.);
#407=ORIENTED_EDGE('',*,*,#320,.F.);
#408=ORIENTED_EDGE('',*,*,#321,.F.);
#409=ORIENTED_EDGE('',*,*,#322,.T.);
#410=ORIENTED_EDGE('',*,*,#323,.F.);
#411=ORIENTED_EDGE('',*,*,#324,.F.);
#412=ORIENTED_EDGE('',*,*,#325,.F.);
#413=ORIENTED_EDGE('',*,*,#320,.T.);
#414=ORIENTED_EDGE('',*,*,#326,.T.);
#415=ORIENTED_EDGE('',*,*,#327,.T.);
#416=ORIENTED_EDGE('',*,*,#328,.T.);
#417=ORIENTED_EDGE('',*,*,#329,.F.);
#418=ORIENTED_EDGE('',*,*,#323,.T.);
#419=ORIENTED_EDGE('',*,*,#319,.T.);
#420=ORIENTED_EDGE('',*,*,#330,.F.);
#421=ORIENTED_EDGE('',*,*,#331,.T.);
#422=ORIENTED_EDGE('',*,*,#332,.F.);
#423=ORIENTED_EDGE('',*,*,#333,.T.);
#424=ORIENTED_EDGE('',*,*,#334,.T.);
#425=ORIENTED_EDGE('',*,*,#335,.T.);
#426=ORIENTED_EDGE('',*,*,#336,.T.);
#427=ORIENTED_EDGE('',*,*,#337,.F.);
#428=ORIENTED_EDGE('',*,*,#321,.T.);
#429=ORIENTED_EDGE('',*,*,#325,.T.);
#430=ORIENTED_EDGE('',*,*,#338,.F.);
#431=ORIENTED_EDGE('',*,*,#339,.F.);
#432=ORIENTED_EDGE('',*,*,#340,.F.);
#433=ORIENTED_EDGE('',*,*,#341,.T.);
#434=ORIENTED_EDGE('',*,*,#333,.F.);
#435=ORIENTED_EDGE('',*,*,#342,.F.);
#436=ORIENTED_EDGE('',*,*,#331,.F.);
#437=ORIENTED_EDGE('',*,*,#341,.F.);
#438=ORIENTED_EDGE('',*,*,#343,.F.);
#439=ORIENTED_EDGE('',*,*,#344,.T.);
#440=ORIENTED_EDGE('',*,*,#345,.F.);
#441=ORIENTED_EDGE('',*,*,#346,.F.);
#442=ORIENTED_EDGE('',*,*,#335,.F.);
#443=ORIENTED_EDGE('',*,*,#343,.T.);
#444=ORIENTED_EDGE('',*,*,#340,.T.);
#445=ORIENTED_EDGE('',*,*,#347,.T.);
#446=ORIENTED_EDGE('',*,*,#348,.F.);
#447=ORIENTED_EDGE('',*,*,#349,.T.);
#448=ORIENTED_EDGE('',*,*,#350,.F.);
#449=ORIENTED_EDGE('',*,*,#351,.F.);
#450=ORIENTED_EDGE('',*,*,#352,.F.);
#451=ORIENTED_EDGE('',*,*,#353,.T.);
#452=ORIENTED_EDGE('',*,*,#354,.F.);
#453=ORIENTED_EDGE('',*,*,#349,.F.);
#454=ORIENTED_EDGE('',*,*,#355,.F.);
#455=ORIENTED_EDGE('',*,*,#356,.T.);
#456=ORIENTED_EDGE('',*,*,#357,.F.);
#457=ORIENTED_EDGE('',*,*,#358,.F.);
#458=ORIENTED_EDGE('',*,*,#359,.F.);
#459=ORIENTED_EDGE('',*,*,#360,.T.);
#460=ORIENTED_EDGE('',*,*,#361,.F.);
#461=ORIENTED_EDGE('',*,*,#356,.F.);
#462=ORIENTED_EDGE('',*,*,#351,.T.);
#463=ORIENTED_EDGE('',*,*,#362,.T.);
#464=ORIENTED_EDGE('',*,*,#353,.F.);
#465=ORIENTED_EDGE('',*,*,#363,.F.);
#466=ORIENTED_EDGE('',*,*,#358,.T.);
#467=ORIENTED_EDGE('',*,*,#364,.T.);
#468=ORIENTED_EDGE('',*,*,#360,.F.);
#469=ORIENTED_EDGE('',*,*,#365,.F.);
#470=ORIENTED_EDGE('',*,*,#366,.F.);
#471=ORIENTED_EDGE('',*,*,#367,.F.);
#472=ORIENTED_EDGE('',*,*,#368,.F.);
#473=ORIENTED_EDGE('',*,*,#369,.F.);
#474=ORIENTED_EDGE('',*,*,#370,.F.);
#475=ORIENTED_EDGE('',*,*,#336,.F.);
#476=ORIENTED_EDGE('',*,*,#346,.T.);
#477=ORIENTED_EDGE('',*,*,#371,.F.);
#478=ORIENTED_EDGE('',*,*,#372,.F.);
#479=ORIENTED_EDGE('',*,*,#373,.F.);
#480=ORIENTED_EDGE('',*,*,#374,.F.);
#481=ORIENTED_EDGE('',*,*,#375,.F.);
#482=ORIENTED_EDGE('',*,*,#376,.F.);
#483=ORIENTED_EDGE('',*,*,#377,.F.);
#484=ORIENTED_EDGE('',*,*,#378,.F.);
#485=ORIENTED_EDGE('',*,*,#357,.T.);
#486=ORIENTED_EDGE('',*,*,#361,.T.);
#487=ORIENTED_EDGE('',*,*,#364,.F.);
#488=ORIENTED_EDGE('',*,*,#350,.T.);
#489=ORIENTED_EDGE('',*,*,#354,.T.);
#490=ORIENTED_EDGE('',*,*,#362,.F.);
#491=ORIENTED_EDGE('',*,*,#324,.T.);
#492=ORIENTED_EDGE('',*,*,#330,.T.);
#493=ORIENTED_EDGE('',*,*,#322,.F.);
#494=ORIENTED_EDGE('',*,*,#338,.T.);
#495=ORIENTED_EDGE('',*,*,#379,.T.);
#496=ORIENTED_EDGE('',*,*,#367,.T.);
#497=ORIENTED_EDGE('',*,*,#380,.F.);
#498=ORIENTED_EDGE('',*,*,#381,.T.);
#499=ORIENTED_EDGE('',*,*,#382,.T.);
#500=ORIENTED_EDGE('',*,*,#380,.T.);
#501=ORIENTED_EDGE('',*,*,#366,.T.);
#502=ORIENTED_EDGE('',*,*,#383,.T.);
#503=ORIENTED_EDGE('',*,*,#383,.F.);
#504=ORIENTED_EDGE('',*,*,#378,.T.);
#505=ORIENTED_EDGE('',*,*,#384,.F.);
#506=ORIENTED_EDGE('',*,*,#385,.F.);
#507=ORIENTED_EDGE('',*,*,#382,.F.);
#508=ORIENTED_EDGE('',*,*,#385,.T.);
#509=ORIENTED_EDGE('',*,*,#386,.F.);
#510=ORIENTED_EDGE('',*,*,#387,.T.);
#511=ORIENTED_EDGE('',*,*,#388,.T.);
#512=ORIENTED_EDGE('',*,*,#389,.T.);
#513=ORIENTED_EDGE('',*,*,#390,.F.);
#514=ORIENTED_EDGE('',*,*,#326,.F.);
#515=ORIENTED_EDGE('',*,*,#391,.F.);
#516=ORIENTED_EDGE('',*,*,#392,.F.);
#517=ORIENTED_EDGE('',*,*,#393,.T.);
#518=ORIENTED_EDGE('',*,*,#381,.F.);
#519=ORIENTED_EDGE('',*,*,#348,.T.);
#520=ORIENTED_EDGE('',*,*,#363,.T.);
#521=ORIENTED_EDGE('',*,*,#352,.T.);
#522=ORIENTED_EDGE('',*,*,#355,.T.);
#523=ORIENTED_EDGE('',*,*,#365,.T.);
#524=ORIENTED_EDGE('',*,*,#359,.T.);
#525=ORIENTED_EDGE('',*,*,#394,.T.);
#526=ORIENTED_EDGE('',*,*,#337,.T.);
#527=ORIENTED_EDGE('',*,*,#370,.T.);
#528=ORIENTED_EDGE('',*,*,#395,.T.);
#529=ORIENTED_EDGE('',*,*,#391,.T.);
#530=ORIENTED_EDGE('',*,*,#329,.T.);
#531=ORIENTED_EDGE('',*,*,#396,.T.);
#532=ORIENTED_EDGE('',*,*,#392,.T.);
#533=ORIENTED_EDGE('',*,*,#395,.F.);
#534=ORIENTED_EDGE('',*,*,#369,.T.);
#535=ORIENTED_EDGE('',*,*,#394,.F.);
#536=ORIENTED_EDGE('',*,*,#328,.F.);
#537=ORIENTED_EDGE('',*,*,#397,.F.);
#538=ORIENTED_EDGE('',*,*,#398,.F.);
#539=ORIENTED_EDGE('',*,*,#399,.T.);
#540=ORIENTED_EDGE('',*,*,#344,.F.);
#541=ORIENTED_EDGE('',*,*,#334,.F.);
#542=ORIENTED_EDGE('',*,*,#400,.F.);
#543=ORIENTED_EDGE('',*,*,#371,.T.);
#544=ORIENTED_EDGE('',*,*,#345,.T.);
#545=ORIENTED_EDGE('',*,*,#399,.F.);
#546=ORIENTED_EDGE('',*,*,#342,.T.);
#547=ORIENTED_EDGE('',*,*,#347,.F.);
#548=ORIENTED_EDGE('',*,*,#339,.T.);
#549=ORIENTED_EDGE('',*,*,#332,.T.);
#550=ORIENTED_EDGE('',*,*,#372,.T.);
#551=ORIENTED_EDGE('',*,*,#400,.T.);
#552=ORIENTED_EDGE('',*,*,#398,.T.);
#553=ORIENTED_EDGE('',*,*,#401,.F.);
#554=ORIENTED_EDGE('',*,*,#386,.T.);
#555=ORIENTED_EDGE('',*,*,#384,.T.);
#556=ORIENTED_EDGE('',*,*,#377,.T.);
#557=ORIENTED_EDGE('',*,*,#402,.F.);
#558=ORIENTED_EDGE('',*,*,#396,.F.);
#559=ORIENTED_EDGE('',*,*,#368,.T.);
#560=ORIENTED_EDGE('',*,*,#379,.F.);
#561=ORIENTED_EDGE('',*,*,#393,.F.);
#562=ORIENTED_EDGE('',*,*,#390,.T.);
#563=ORIENTED_EDGE('',*,*,#403,.T.);
#564=ORIENTED_EDGE('',*,*,#373,.T.);
#565=ORIENTED_EDGE('',*,*,#401,.T.);
#566=ORIENTED_EDGE('',*,*,#397,.T.);
#567=ORIENTED_EDGE('',*,*,#327,.F.);
#568=ORIENTED_EDGE('',*,*,#389,.F.);
#569=ORIENTED_EDGE('',*,*,#404,.T.);
#570=ORIENTED_EDGE('',*,*,#374,.T.);
#571=ORIENTED_EDGE('',*,*,#403,.F.);
#572=ORIENTED_EDGE('',*,*,#388,.F.);
#573=ORIENTED_EDGE('',*,*,#405,.T.);
#574=ORIENTED_EDGE('',*,*,#375,.T.);
#575=ORIENTED_EDGE('',*,*,#404,.F.);
#576=ORIENTED_EDGE('',*,*,#387,.F.);
#577=ORIENTED_EDGE('',*,*,#402,.T.);
#578=ORIENTED_EDGE('',*,*,#376,.T.);
#579=ORIENTED_EDGE('',*,*,#405,.F.);
#580=PLANE('',#652);
#581=PLANE('',#653);
#582=PLANE('',#654);
#583=PLANE('',#657);
#584=PLANE('',#659);
#585=PLANE('',#660);
#586=PLANE('',#661);
#587=PLANE('',#663);
#588=PLANE('',#664);
#589=PLANE('',#665);
#590=PLANE('',#666);
#591=PLANE('',#673);
#592=PLANE('',#675);
#593=PLANE('',#676);
#594=PLANE('',#677);
#595=PLANE('',#678);
#596=PLANE('',#679);
#597=PLANE('',#680);
#598=PLANE('',#681);
#599=PLANE('',#682);
#600=PLANE('',#684);
#601=PLANE('',#685);
#602=PLANE('',#686);
#603=PLANE('',#687);
#604=PLANE('',#688);
#605=PLANE('',#689);
#606=PLANE('',#690);
#607=ADVANCED_FACE('',(#37),#580,.F.);
#608=ADVANCED_FACE('',(#38),#581,.F.);
#609=ADVANCED_FACE('',(#39,#28,#29),#582,.F.);
#610=ADVANCED_FACE('',(#40,#30),#583,.T.);
#611=ADVANCED_FACE('',(#41),#584,.F.);
#612=ADVANCED_FACE('',(#42),#585,.F.);
#613=ADVANCED_FACE('',(#43,#31),#586,.T.);
#614=ADVANCED_FACE('',(#44),#587,.F.);
#615=ADVANCED_FACE('',(#45),#588,.F.);
#616=ADVANCED_FACE('',(#46),#589,.F.);
#617=ADVANCED_FACE('',(#47),#590,.F.);
#618=ADVANCED_FACE('',(#48),#15,.F.);
#619=ADVANCED_FACE('',(#49),#16,.F.);
#620=ADVANCED_FACE('',(#50,#32,#33),#591,.F.);
#621=ADVANCED_FACE('',(#51),#17,.F.);
#622=ADVANCED_FACE('',(#52),#592,.T.);
#623=ADVANCED_FACE('',(#53),#593,.T.);
#624=ADVANCED_FACE('',(#54),#594,.F.);
#625=ADVANCED_FACE('',(#55,#34,#35),#595,.T.);
#626=ADVANCED_FACE('',(#56),#596,.T.);
#627=ADVANCED_FACE('',(#57),#597,.T.);
#628=ADVANCED_FACE('',(#58),#598,.F.);
#629=ADVANCED_FACE('',(#59),#599,.F.);
#630=ADVANCED_FACE('',(#60),#18,.F.);
#631=ADVANCED_FACE('',(#61),#600,.F.);
#632=ADVANCED_FACE('',(#62),#601,.F.);
#633=ADVANCED_FACE('',(#63),#602,.F.);
#634=ADVANCED_FACE('',(#64),#603,.F.);
#635=ADVANCED_FACE('',(#65),#604,.F.);
#636=ADVANCED_FACE('',(#66),#605,.F.);
#637=ADVANCED_FACE('',(#67),#606,.F.);
#638=CLOSED_SHELL('',(#607,#608,#609,#610,#611,#612,#613,#614,#615,#616,
#617,#618,#619,#620,#621,#622,#623,#624,#625,#626,#627,#628,#629,#630,#631,
#632,#633,#634,#635,#636,#637));
#639=DERIVED_UNIT_ELEMENT(#641,1.);
#640=DERIVED_UNIT_ELEMENT(#1182,-3.);
#641=(
MASS_UNIT()
NAMED_UNIT(*)
SI_UNIT(.KILO.,.GRAM.)
);
#642=DERIVED_UNIT((#639,#640));
#643=MEASURE_REPRESENTATION_ITEM('density measure',
POSITIVE_RATIO_MEASURE(7850.),#642);
#644=PROPERTY_DEFINITION_REPRESENTATION(#649,#646);
#645=PROPERTY_DEFINITION_REPRESENTATION(#650,#647);
#646=REPRESENTATION('material name',(#648),#1179);
#647=REPRESENTATION('density',(#643),#1179);
#648=DESCRIPTIVE_REPRESENTATION_ITEM('Steel','Steel');
#649=PROPERTY_DEFINITION('material property','material name',#1189);
#650=PROPERTY_DEFINITION('material property','density of part',#1189);
#651=AXIS2_PLACEMENT_3D('',#848,#691,#692);
#652=AXIS2_PLACEMENT_3D('',#849,#693,#694);
#653=AXIS2_PLACEMENT_3D('',#858,#699,#700);
#654=AXIS2_PLACEMENT_3D('',#864,#704,#705);
#655=AXIS2_PLACEMENT_3D('',#873,#710,#711);
#656=AXIS2_PLACEMENT_3D('',#878,#713,#714);
#657=AXIS2_PLACEMENT_3D('',#880,#716,#717);
#658=AXIS2_PLACEMENT_3D('',#889,#722,#723);
#659=AXIS2_PLACEMENT_3D('',#890,#724,#725);
#660=AXIS2_PLACEMENT_3D('',#972,#728,#729);
#661=AXIS2_PLACEMENT_3D('',#1052,#731,#732);
#662=AXIS2_PLACEMENT_3D('',#1058,#736,#737);
#663=AXIS2_PLACEMENT_3D('',#1059,#738,#739);
#664=AXIS2_PLACEMENT_3D('',#1068,#744,#745);
#665=AXIS2_PLACEMENT_3D('',#1074,#749,#750);
#666=AXIS2_PLACEMENT_3D('',#1083,#755,#756);
#667=AXIS2_PLACEMENT_3D('',#1089,#760,#761);
#668=AXIS2_PLACEMENT_3D('',#1090,#762,#763);
#669=AXIS2_PLACEMENT_3D('',#1091,#764,#765);
#670=AXIS2_PLACEMENT_3D('',#1092,#766,#767);
#671=AXIS2_PLACEMENT_3D('',#1093,#768,#769);
#672=AXIS2_PLACEMENT_3D('',#1094,#770,#771);
#673=AXIS2_PLACEMENT_3D('',#1095,#772,#773);
#674=AXIS2_PLACEMENT_3D('',#1121,#787,#788);
#675=AXIS2_PLACEMENT_3D('',#1122,#789,#790);
#676=AXIS2_PLACEMENT_3D('',#1128,#794,#795);
#677=AXIS2_PLACEMENT_3D('',#1132,#798,#799);
#678=AXIS2_PLACEMENT_3D('',#1136,#802,#803);
#679=AXIS2_PLACEMENT_3D('',#1151,#812,#813);
#680=AXIS2_PLACEMENT_3D('',#1154,#816,#817);
#681=AXIS2_PLACEMENT_3D('',#1156,#819,#820);
#682=AXIS2_PLACEMENT_3D('',#1162,#824,#825);
#683=AXIS2_PLACEMENT_3D('',#1164,#827,#828);
#684=AXIS2_PLACEMENT_3D('',#1165,#829,#830);
#685=AXIS2_PLACEMENT_3D('',#1167,#832,#833);
#686=AXIS2_PLACEMENT_3D('',#1169,#835,#836);
#687=AXIS2_PLACEMENT_3D('',#1170,#837,#838);
#688=AXIS2_PLACEMENT_3D('',#1172,#840,#841);
#689=AXIS2_PLACEMENT_3D('',#1174,#843,#844);
#690=AXIS2_PLACEMENT_3D('',#1176,#846,#847);
#691=DIRECTION('axis',(0.,0.,1.));
#692=DIRECTION('refdir',(1.,0.,0.));
#693=DIRECTION('center_axis',(-0.766044443118689,0.454454540954906,0.454584405113554));
#694=DIRECTION('ref_axis',(0.642787609686884,0.541597831853261,0.541752597930891));
#695=DIRECTION('',(-0.510327514689286,0.,-0.859980132183911));
#696=DIRECTION('',(0.,0.707207790353943,-0.707005757588079));
#697=DIRECTION('',(0.642787609686884,0.541597831853267,0.541752597930885));
#698=DIRECTION('',(0.,0.707207790353944,-0.707005757588078));
#699=DIRECTION('center_axis',(0.766044443118693,0.454454540954902,0.454584405113551));
#700=DIRECTION('ref_axis',(0.642787609686879,-0.54159783185328,-0.541752597930877));
#701=DIRECTION('',(-0.510327514689281,0.,0.859980132183914));
#702=DIRECTION('',(0.,0.707207790353944,-0.707005757588078));
#703=DIRECTION('',(0.642787609686879,-0.541597831853269,-0.541752597930888));
#704=DIRECTION('center_axis',(0.,-1.,0.));
#705=DIRECTION('ref_axis',(0.,0.,1.));
#706=DIRECTION('',(0.,0.,-1.));
#707=DIRECTION('',(-1.,0.,0.));
#708=DIRECTION('',(0.,0.,1.));
#709=DIRECTION('',(-1.,0.,0.));
#710=DIRECTION('center_axis',(0.,1.,0.));
#711=DIRECTION('ref_axis',(0.,0.,-1.));
#712=DIRECTION('',(-0.642787605837377,0.,-0.766044446348809));
#713=DIRECTION('center_axis',(0.,1.,0.));
#714=DIRECTION('ref_axis',(0.,0.,-1.));
#715=DIRECTION('',(-0.642787605837367,0.,0.766044446348817));
#716=DIRECTION('center_axis',(0.,-0.707207790353943,0.707005757588079));
#717=DIRECTION('ref_axis',(0.,-0.707005757588079,-0.707207790353943));
#718=DIRECTION('',(0.,-0.707005757588079,-0.707207790353943));
#719=DIRECTION('',(1.,0.,0.));
#720=DIRECTION('',(0.,0.707005757588022,0.707207790354));
#721=DIRECTION('',(1.,0.,0.));
#722=DIRECTION('center_axis',(0.,-0.707207790353943,0.707005757588079));
#723=DIRECTION('ref_axis',(-1.,0.,0.));
#724=DIRECTION('center_axis',(0.76604444311904,-9.18278272139526E-5,0.642787603127262));
#725=DIRECTION('ref_axis',(0.642787609686466,0.000109436142968326,-0.766044435302085));
#726=DIRECTION('',(0.642787609686466,0.000109436142982376,-0.766044435302085));
#727=DIRECTION('',(0.,0.99999998979569,0.000142858738765583));
#728=DIRECTION('center_axis',(-0.766044443119032,-9.1827827213954E-5,0.642787603127272));
#729=DIRECTION('ref_axis',(0.642787609686476,-0.000109436142968325,0.766044435302077));
#730=DIRECTION('',(0.642787609686476,-0.000109436142982375,0.766044435302077));
#731=DIRECTION('center_axis',(0.,-0.99999998979569,-0.000142858738765592));
#732=DIRECTION('ref_axis',(0.,0.000142858738765592,-0.99999998979569));
#733=DIRECTION('',(0.,0.000142858738765592,-0.99999998979569));
#734=DIRECTION('',(-1.,0.,0.));
#735=DIRECTION('',(0.,0.000142858738765592,-0.99999998979569));
#736=DIRECTION('center_axis',(0.,0.99999998979569,0.000142858738765592));
#737=DIRECTION('ref_axis',(0.,0.000142858738765592,-0.99999998979569));
#738=DIRECTION('center_axis',(0.,0.766044443118943,0.642787609686582));
#739=DIRECTION('ref_axis',(0.,0.642787609686582,-0.766044443118943));
#740=DIRECTION('',(0.,0.642787609686582,-0.766044443118943));
#741=DIRECTION('',(-1.,0.,0.));
#742=DIRECTION('',(0.,-0.642787609686582,0.766044443118943));
#743=DIRECTION('',(-1.,0.,0.));
#744=DIRECTION('center_axis',(0.,-0.766044443118953,0.642787609686569));
#745=DIRECTION('ref_axis',(0.,0.642787609686569,0.766044443118953));
#746=DIRECTION('',(0.,0.642787609686569,0.766044443118953));
#747=DIRECTION('',(-1.,0.,0.));
#748=DIRECTION('',(0.,-0.642787609686569,-0.766044443118953));
#749=DIRECTION('center_axis',(0.,0.766044443118948,0.642787609686575));
#750=DIRECTION('ref_axis',(0.,0.642787609686575,-0.766044443118948));
#751=DIRECTION('',(0.,0.642787609686575,-0.766044443118948));
#752=DIRECTION('',(-1.,0.,0.));
#753=DIRECTION('',(0.,-0.642787609686575,0.766044443118948));
#754=DIRECTION('',(-1.,0.,0.));
#755=DIRECTION('center_axis',(0.,-0.766044443118964,0.642787609686556));
#756=DIRECTION('ref_axis',(0.,0.642787609686556,0.766044443118964));
#757=DIRECTION('',(0.,0.642787609686556,0.766044443118964));
#758=DIRECTION('',(-1.,0.,0.));
#759=DIRECTION('',(0.,-0.642787609686556,-0.766044443118964));
#760=DIRECTION('center_axis',(1.,0.,0.));
#761=DIRECTION('ref_axis',(0.,3.55883691279624E-14,-1.));
#762=DIRECTION('center_axis',(-1.,0.,0.));
#763=DIRECTION('ref_axis',(0.,1.,0.));
#764=DIRECTION('center_axis',(-1.,0.,0.));
#765=DIRECTION('ref_axis',(0.,1.,0.));
#766=DIRECTION('center_axis',(1.,0.,0.));
#767=DIRECTION('ref_axis',(0.,2.72576759905774E-15,-1.));
#768=DIRECTION('center_axis',(-1.,0.,0.));
#769=DIRECTION('ref_axis',(0.,1.,0.));
#770=DIRECTION('center_axis',(-1.,0.,0.));
#771=DIRECTION('ref_axis',(0.,1.,0.));
#772=DIRECTION('center_axis',(1.,0.,0.));
#773=DIRECTION('ref_axis',(0.,1.,0.));
#774=DIRECTION('',(0.,-0.707106781183883,0.707106781189212));
#775=DIRECTION('',(0.,-0.707106781189212,-0.707106781183883));
#776=DIRECTION('',(0.,-0.70710678118655,0.707106781186545));
#777=DIRECTION('',(0.,0.774943032225356,0.632031088480124));
#778=DIRECTION('',(0.,0.707207790353997,-0.707005757588025));
#779=DIRECTION('',(0.,-0.999999988368754,-0.000152520464510149));
#780=DIRECTION('',(0.,-0.000857738744678923,0.999999632142055));
#781=DIRECTION('',(0.,0.999999632142057,0.000857738743011881));
#782=DIRECTION('',(0.,1.,0.));
#783=DIRECTION('',(0.,0.,-1.));
#784=DIRECTION('',(0.,0.999999988368754,0.00015252046500327));
#785=DIRECTION('',(0.,0.000152520464951725,-0.999999988368754));
#786=DIRECTION('',(0.,-0.707106781186544,-0.707106781186552));
#787=DIRECTION('center_axis',(0.,-0.707207790353944,0.707005757588078));
#788=DIRECTION('ref_axis',(-2.48083823922827E-15,-0.707005757588078,-0.707207790353944));
#789=DIRECTION('center_axis',(0.,-0.707106781183883,0.707106781189212));
#790=DIRECTION('ref_axis',(-1.,0.,0.));
#791=DIRECTION('',(-1.,0.,0.));
#792=DIRECTION('',(-1.,0.,0.));
#793=DIRECTION('',(0.,0.707106781189212,0.707106781183883));
#794=DIRECTION('center_axis',(0.,0.707106781189212,0.707106781183883));
#795=DIRECTION('ref_axis',(1.,0.,0.));
#796=DIRECTION('',(0.,0.707106781183883,-0.707106781189212));
#797=DIRECTION('',(1.,0.,0.));
#798=DIRECTION('center_axis',(0.,0.707106781186552,-0.707106781186544));
#799=DIRECTION('ref_axis',(0.,-0.707106781186544,-0.707106781186552));
#800=DIRECTION('',(-1.,0.,0.));
#801=DIRECTION('',(0.,-0.707106781186544,-0.707106781186552));
#802=DIRECTION('center_axis',(1.,0.,0.));
#803=DIRECTION('ref_axis',(0.,1.,0.));
#804=DIRECTION('',(0.,-0.000152520464951725,0.999999988368754));
#805=DIRECTION('',(0.,0.999999988368754,0.00015252046500327));
#806=DIRECTION('',(0.,0.,-1.));
#807=DIRECTION('',(0.,1.,0.));
#808=DIRECTION('',(0.,-0.999999632142057,-0.000857738743011881));
#809=DIRECTION('',(0.,0.707207790353997,-0.707005757588025));
#810=DIRECTION('',(0.,-0.774943032225361,-0.632031088480118));
#811=DIRECTION('',(0.,-0.70710678118655,0.707106781186545));
#812=DIRECTION('center_axis',(0.,0.707005757588025,0.707207790353997));
#813=DIRECTION('ref_axis',(0.,-0.707207790353997,0.707005757588025));
#814=DIRECTION('',(0.,-0.707207790353997,0.707005757588025));
#815=DIRECTION('',(1.,0.,0.));
#816=DIRECTION('center_axis',(0.,0.632031088480118,-0.774943032225362));
#817=DIRECTION('ref_axis',(0.,0.774943032225361,0.632031088480118));
#818=DIRECTION('',(1.,0.,0.));
#819=DIRECTION('center_axis',(1.,0.,0.));
#820=DIRECTION('ref_axis',(0.,0.,-1.));
#821=DIRECTION('',(0.,0.999999632142057,0.000857738743011714));
#822=DIRECTION('',(0.,0.000857738744678923,-0.999999632142055));
#823=DIRECTION('',(0.,-0.999999988368754,-0.000152520464510149));
#824=DIRECTION('center_axis',(0.,-0.000152520464510149,0.999999988368754));
#825=DIRECTION('ref_axis',(-1.,0.,0.));
#826=DIRECTION('',(-1.,0.,0.));
#827=DIRECTION('center_axis',(0.,-0.999999988368754,-0.000152520464510355));
#828=DIRECTION('ref_axis',(1.12392855779055E-12,0.000152520464510355,-0.999999988368754));
#829=DIRECTION('center_axis',(0.,0.999999632142055,0.000857738744678923));
#830=DIRECTION('ref_axis',(0.,0.000857738744678923,-0.999999632142055));
#831=DIRECTION('',(-1.,0.,0.));
#832=DIRECTION('center_axis',(0.,0.999999988368754,0.000152520464951725));
#833=DIRECTION('ref_axis',(0.,0.000152520464951725,-0.999999988368754));
#834=DIRECTION('',(-1.,0.,0.));
#835=DIRECTION('center_axis',(0.,-0.707106781186545,-0.70710678118655));
#836=DIRECTION('ref_axis',(0.,-0.70710678118655,0.707106781186545));
#837=DIRECTION('center_axis',(0.,-0.000857738743011881,0.999999632142057));
#838=DIRECTION('ref_axis',(0.,0.999999632142057,0.000857738743011881));
#839=DIRECTION('',(-1.,0.,0.));
#840=DIRECTION('center_axis',(0.,0.,1.));
#841=DIRECTION('ref_axis',(0.,1.,0.));
#842=DIRECTION('',(-1.,0.,0.));
#843=DIRECTION('center_axis',(0.,1.,0.));
#844=DIRECTION('ref_axis',(0.,0.,-1.));
#845=DIRECTION('',(-1.,0.,0.));
#846=DIRECTION('center_axis',(0.,-0.00015252046500327,0.999999988368754));
#847=DIRECTION('ref_axis',(0.,0.999999988368754,0.00015252046500327));
#848=CARTESIAN_POINT('',(0.,0.,0.));
#849=CARTESIAN_POINT('Origin',(168.039187053953,509.806180283292,29.43942876131));
#850=CARTESIAN_POINT('',(169.954298161752,517.882218875973,24.5929532454219));
#851=CARTESIAN_POINT('',(168.039187053953,517.882218875973,21.3656973044331));
#852=CARTESIAN_POINT('',(167.334435727494,517.882218875973,20.1780832302546));
#853=CARTESIAN_POINT('',(169.954298161752,511.419808187923,31.0535177735132));
#854=CARTESIAN_POINT('',(169.954298161752,511.419808187923,31.0535177735132));
#855=CARTESIAN_POINT('',(168.039187053953,509.806180283292,29.43942876131));
#856=CARTESIAN_POINT('',(165.105338108079,507.334187662207,26.9667297478074));
#857=CARTESIAN_POINT('',(168.039187053955,509.806180283293,29.4394287613111));
#858=CARTESIAN_POINT('Origin',(169.954298161752,511.419808187923,31.0535177735132));
#859=CARTESIAN_POINT('',(171.86940926955,517.882218875973,21.3656973044329));
#860=CARTESIAN_POINT('',(175.356235795223,517.882218875973,15.4898598272458));
#861=CARTESIAN_POINT('',(171.86940926955,509.806180283292,29.43942876131));
#862=CARTESIAN_POINT('',(171.869409269548,509.806180283293,29.4394287613111));
#863=CARTESIAN_POINT('',(169.713943549851,511.622325372012,31.2560928285697));
#864=CARTESIAN_POINT('Origin',(182.954298161739,517.882218875973,1.22942137991752));
#865=CARTESIAN_POINT('',(182.954298161739,517.882218875973,33.2447766656408));
#866=CARTESIAN_POINT('',(182.954298161739,517.882218875973,1.22942137991752));
#867=CARTESIAN_POINT('',(182.954298161739,517.882218875973,33.2447766656408));
#868=CARTESIAN_POINT('',(159.954298161739,517.882218875973,1.22942137991752));
#869=CARTESIAN_POINT('',(182.954298161739,517.882218875973,1.22942137991752));
#870=CARTESIAN_POINT('',(159.954298161739,517.882218875973,33.2447766656408));
#871=CARTESIAN_POINT('',(159.954298161739,517.882218875973,1.22942137991752));
#872=CARTESIAN_POINT('',(182.954298161739,517.882218875973,33.2447766656408));
#873=CARTESIAN_POINT('Origin',(169.954298161752,517.882218875973,19.0934245069127));
#874=CARTESIAN_POINT('',(169.954298161751,517.882218875973,15.1096730794888));
#875=CARTESIAN_POINT('',(168.053711982914,517.882218875973,12.8446426497118));
#876=CARTESIAN_POINT('',(168.264468906937,517.882218875973,13.0958129736439));
#877=CARTESIAN_POINT('',(171.854884340584,517.882218875973,12.8446426497161));
#878=CARTESIAN_POINT('Origin',(169.954298161751,517.882218875973,11.2205206597813));
#879=CARTESIAN_POINT('',(176.05785865492,517.882218875973,7.83573285991161));
#880=CARTESIAN_POINT('Origin',(159.954298161739,506.177539767367,25.8097513312271));
#881=CARTESIAN_POINT('',(159.954298161739,515.74571972146,35.3806654721917));
#882=CARTESIAN_POINT('',(159.954298161739,501.611715169192,21.2426220107615));
#883=CARTESIAN_POINT('',(159.954298161739,505.300074031669,24.9320348524089));
#884=CARTESIAN_POINT('',(179.954298161739,501.611715169192,21.2426220107615));
#885=CARTESIAN_POINT('',(159.954298161739,501.611715169192,21.2426220107615));
#886=CARTESIAN_POINT('',(179.954298161739,515.74571972146,35.3806654721917));
#887=CARTESIAN_POINT('',(179.954298161739,504.459135658727,24.0908561743432));
#888=CARTESIAN_POINT('',(159.954298161739,515.74571972146,35.3806654721917));
#889=CARTESIAN_POINT('Origin',(169.954298161752,508.670043930906,28.3029677485272));
#890=CARTESIAN_POINT('Origin',(169.954298161751,501.612591646591,15.107348821039));
#891=CARTESIAN_POINT('',(171.869409269637,501.612917698882,12.8250083012872));
#892=CARTESIAN_POINT('Ctrl Pts',(171.869409269585,501.612928727155,12.8250083029249));
#893=CARTESIAN_POINT('Ctrl Pts',(171.869367000437,501.612928719472,12.8250586773332));
#894=CARTESIAN_POINT('Ctrl Pts',(171.869312019468,501.61365321457,12.8251243046025));
#895=CARTESIAN_POINT('Ctrl Pts',(171.869284614495,501.614122900234,12.8251570316761));
#896=CARTESIAN_POINT('Ctrl Pts',(171.869253187292,501.614805470807,12.8251945826692));
#897=CARTESIAN_POINT('Ctrl Pts',(171.869217646853,501.615762704918,12.8252370748654));
#898=CARTESIAN_POINT('Ctrl Pts',(171.8691779161,501.617065683364,12.8252846102756));
#899=CARTESIAN_POINT('Ctrl Pts',(171.869133929124,501.618795015362,12.8253372789626));
#900=CARTESIAN_POINT('Ctrl Pts',(171.869085629054,501.621041028794,12.8253951616084));
#901=CARTESIAN_POINT('Ctrl Pts',(171.869032966396,501.62390393186,12.8254583315109));
#902=CARTESIAN_POINT('Ctrl Pts',(171.868975897742,501.62749395173,12.8255268561508));
#903=CARTESIAN_POINT('Ctrl Pts',(171.868914384737,501.631931454517,12.8256007984322));
#904=CARTESIAN_POINT('Ctrl Pts',(171.868848393264,501.637347049916,12.8256802176738));
#905=CARTESIAN_POINT('Ctrl Pts',(171.86877789278,501.64388168313,12.8257651704084));
#906=CARTESIAN_POINT('Ctrl Pts',(171.868702855787,501.65168671617,12.8258557110328));
#907=CARTESIAN_POINT('Ctrl Pts',(171.868623257386,501.660924000196,12.8259518923414));
#908=CARTESIAN_POINT('Ctrl Pts',(171.868539074918,501.671765940242,12.8260537659661));
#909=CARTESIAN_POINT('Ctrl Pts',(171.868450287667,501.684395553428,12.8261613827441));
#910=CARTESIAN_POINT('Ctrl Pts',(171.868356876599,501.699006521561,12.826274793025));
#911=CARTESIAN_POINT('Ctrl Pts',(171.86825882416,501.715803238872,12.8263940469306));
#912=CARTESIAN_POINT('Ctrl Pts',(171.868156114089,501.735000855512,12.8265191945758));
#913=CARTESIAN_POINT('Ctrl Pts',(171.868048731266,501.756825317338,12.8266502862566));
#914=CARTESIAN_POINT('Ctrl Pts',(171.867936661585,501.781513402419,12.8267873726123));
#915=CARTESIAN_POINT('Ctrl Pts',(171.867819891833,501.809312754657,12.8269305047651));
#916=CARTESIAN_POINT('Ctrl Pts',(171.8676984096,501.84048191483,12.8270797344415));
#917=CARTESIAN_POINT('Ctrl Pts',(171.867572203187,501.875290349341,12.827235114078));
#918=CARTESIAN_POINT('Ctrl Pts',(171.867441261537,501.91401847691,12.8273966969134));
#919=CARTESIAN_POINT('Ctrl Pts',(171.867305574165,501.956957693426,12.8275645370704));
#920=CARTESIAN_POINT('Ctrl Pts',(171.867165131104,502.004410395121,12.8277386896277));
#921=CARTESIAN_POINT('Ctrl Pts',(171.867019922853,502.056690000249,12.8279192106828));
#922=CARTESIAN_POINT('Ctrl Pts',(171.866869940331,502.114120969388,12.8281061574095));
#923=CARTESIAN_POINT('Ctrl Pts',(171.866715174839,502.177038824499,12.8282995881076));
#924=CARTESIAN_POINT('Ctrl Pts',(171.866555618023,502.245790166852,12.8284995622484));
#925=CARTESIAN_POINT('Ctrl Pts',(171.866391261842,502.32073269391,12.8287061405152));
#926=CARTESIAN_POINT('Ctrl Pts',(171.866222098538,502.402235215261,12.8289193848396));
#927=CARTESIAN_POINT('Ctrl Pts',(171.866048120615,502.490677667672,12.8291393584343));
#928=CARTESIAN_POINT('Ctrl Pts',(171.865869320809,502.586451129342,12.8293661258235));
#929=CARTESIAN_POINT('Ctrl Pts',(171.865685692073,502.689957833401,12.829599752869));
#930=CARTESIAN_POINT('Ctrl Pts',(171.865497227554,502.801611180725,12.8298403067956));
#931=CARTESIAN_POINT('Ctrl Pts',(171.865303920577,502.921835752118,12.8300878562127));
#932=CARTESIAN_POINT('Ctrl Pts',(171.86510576463,503.051067319886,12.8303424711356));
#933=CARTESIAN_POINT('Ctrl Pts',(171.864902753349,503.189752858879,12.8306042230035));
#934=CARTESIAN_POINT('Ctrl Pts',(171.864694880503,503.338350557003,12.8308731846971));
#935=CARTESIAN_POINT('Ctrl Pts',(171.864482139985,503.49732982526,12.8311494305539));
#936=CARTESIAN_POINT('Ctrl Pts',(171.8642645258,503.667171307342,12.8314330363835));
#937=CARTESIAN_POINT('Ctrl Pts',(171.864042032054,503.848366888802,12.8317240794803));
#938=CARTESIAN_POINT('Ctrl Pts',(171.863814652944,504.041419705835,12.832022638636));
#939=CARTESIAN_POINT('Ctrl Pts',(171.863582382753,504.246844153685,12.8323287941514));
#940=CARTESIAN_POINT('Ctrl Pts',(171.863345215837,504.465165894715,12.8326426278468));
#941=CARTESIAN_POINT('Ctrl Pts',(171.863103146623,504.696921866141,12.8329642230716));
#942=CARTESIAN_POINT('Ctrl Pts',(171.862856169597,504.942660287466,12.833293664714));
#943=CARTESIAN_POINT('Ctrl Pts',(171.862604279301,505.202940667621,12.8336310392091));
#944=CARTESIAN_POINT('Ctrl Pts',(171.862347470328,505.478333811831,12.833976434547));
#945=CARTESIAN_POINT('Ctrl Pts',(171.862085737311,505.769421828229,12.8343299402803));
#946=CARTESIAN_POINT('Ctrl Pts',(171.861819074926,506.076798134218,12.8346916475309));
#947=CARTESIAN_POINT('Ctrl Pts',(171.86154747788,506.401067462602,12.8350616489967));
#948=CARTESIAN_POINT('Ctrl Pts',(171.861270940912,506.742845867501,12.8354400389574));
#949=CARTESIAN_POINT('Ctrl Pts',(171.860989458786,507.102760730055,12.8358269132804));
#950=CARTESIAN_POINT('Ctrl Pts',(171.860703026285,507.481450763928,12.8362223694263));
#951=CARTESIAN_POINT('Ctrl Pts',(171.860411638215,507.879566020625,12.8366265064535));
#952=CARTESIAN_POINT('Ctrl Pts',(171.860115289393,508.297767894629,12.8370394250233));
#953=CARTESIAN_POINT('Ctrl Pts',(171.859813974649,508.736729128367,12.8374612274045));
#954=CARTESIAN_POINT('Ctrl Pts',(171.859507688822,509.197133817011,12.8378920174771));
#955=CARTESIAN_POINT('Ctrl Pts',(171.859196426756,509.679677413123,12.8383319007367));
#956=CARTESIAN_POINT('Ctrl Pts',(171.858880183298,510.185066731154,12.8387809842983));
#957=CARTESIAN_POINT('Ctrl Pts',(171.858558953298,510.714019951796,12.8392393768994));
#958=CARTESIAN_POINT('Ctrl Pts',(171.858232731603,511.267266626204,12.8397071889037));
#959=CARTESIAN_POINT('Ctrl Pts',(171.857901513056,511.845547680077,12.8401845323046));
#960=CARTESIAN_POINT('Ctrl Pts',(171.857565292494,512.449615417625,12.8406715207273));
#961=CARTESIAN_POINT('Ctrl Pts',(171.857224064747,513.080233525406,12.8411682694326));
#962=CARTESIAN_POINT('Ctrl Pts',(171.856877824637,513.738177076057,12.841674895319));
#963=CARTESIAN_POINT('Ctrl Pts',(171.856526566972,514.424232531904,12.8421915169258));
#964=CARTESIAN_POINT('Ctrl Pts',(171.856170286548,515.139197748473,12.8427182544349));
#965=CARTESIAN_POINT('Ctrl Pts',(171.855808978148,515.883881977896,12.8432552296738));
#966=CARTESIAN_POINT('Ctrl Pts',(171.855442636538,516.659105872218,12.8438025661173));
#967=CARTESIAN_POINT('Ctrl Pts',(171.855071286432,517.465636402392,12.8443603438797));
#968=CARTESIAN_POINT('Ctrl Pts',(171.854884340584,517.882218875973,12.8446426497161));
#969=CARTESIAN_POINT('',(169.954298161751,501.612591646591,15.107348821039));
#970=CARTESIAN_POINT('',(166.377902439481,501.611982756582,19.3695312281009));
#971=CARTESIAN_POINT('',(169.954298161751,501.612591646591,15.107348821039));
#972=CARTESIAN_POINT('Origin',(168.039187053864,501.612917698882,12.8250083012872));
#973=CARTESIAN_POINT('',(168.039187053864,501.612917698882,12.8250083012872));
#974=CARTESIAN_POINT('Ctrl Pts',(168.053711982914,517.882218875973,12.8446426497118));
#975=CARTESIAN_POINT('Ctrl Pts',(168.053525040748,517.465644607627,12.8443603494359));
#976=CARTESIAN_POINT('Ctrl Pts',(168.053153697765,516.659129132702,12.8438025823135));
#977=CARTESIAN_POINT('Ctrl Pts',(168.052787362763,515.883918433049,12.8432552556302));
#978=CARTESIAN_POINT('Ctrl Pts',(168.052426060439,515.139245600306,12.8427182892597));
#979=CARTESIAN_POINT('Ctrl Pts',(168.052069785586,514.424290138949,12.8421915597832));
#980=CARTESIAN_POINT('Ctrl Pts',(168.051718533014,513.738242942842,12.8416749454267));
#981=CARTESIAN_POINT('Ctrl Pts',(168.051372297546,513.080306292493,12.8411683260583));
#982=CARTESIAN_POINT('Ctrl Pts',(168.051031074016,512.449693852191,12.840671583187));
#983=CARTESIAN_POINT('Ctrl Pts',(168.050694857267,511.845630667011,12.8401845999593));
#984=CARTESIAN_POINT('Ctrl Pts',(168.050363642153,511.267353159697,12.8397072611574));
#985=CARTESIAN_POINT('Ctrl Pts',(168.050037423534,510.714109127406,12.8392394531964));
#986=CARTESIAN_POINT('Ctrl Pts',(168.049716196273,510.185157738326,12.8387810641215));
#987=CARTESIAN_POINT('Ctrl Pts',(168.049399955238,509.679769528146,12.8383319836052));
#988=CARTESIAN_POINT('Ctrl Pts',(168.049088695297,509.197226396383,12.837892102944));
#989=CARTESIAN_POINT('Ctrl Pts',(168.048782411315,508.736821602558,12.8374613150553));
#990=CARTESIAN_POINT('Ctrl Pts',(168.048481098154,508.297859762227,12.8370395144739));
#991=CARTESIAN_POINT('Ctrl Pts',(168.048184750669,507.879656842837,12.8366265973483));
#992=CARTESIAN_POINT('Ctrl Pts',(168.047893363706,507.481540159428,12.8362224614369));
#993=CARTESIAN_POINT('Ctrl Pts',(168.047606932098,507.102848370155,12.8358270061036));
#994=CARTESIAN_POINT('Ctrl Pts',(168.047325450663,506.742931471636,12.8354401323137));
#995=CARTESIAN_POINT('Ctrl Pts',(168.047048914199,506.401150794113,12.8350617426292));
#996=CARTESIAN_POINT('Ctrl Pts',(168.046777317483,506.07687899641,12.8346917412036));
#997=CARTESIAN_POINT('Ctrl Pts',(168.046510655265,505.7695000607,12.8343300337768));
#998=CARTESIAN_POINT('Ctrl Pts',(168.046248922265,505.478409287053,12.8339765276694));
#999=CARTESIAN_POINT('Ctrl Pts',(168.045992113168,505.20301328776,12.8336311317767));
#1000=CARTESIAN_POINT('Ctrl Pts',(168.04574022262,504.942729981429,12.8332937565622));
#1001=CARTESIAN_POINT('Ctrl Pts',(168.045493245221,504.696988586836,12.8329643140509));
#1002=CARTESIAN_POINT('Ctrl Pts',(168.045251175523,504.465229616515,12.8326427178215));
#1003=CARTESIAN_POINT('Ctrl Pts',(168.045014008022,504.24690487008,12.8323288829991));
#1004=CARTESIAN_POINT('Ctrl Pts',(168.044781737152,504.041477427267,12.8320227262462));
#1005=CARTESIAN_POINT('Ctrl Pts',(168.044554357277,503.848421640671,12.8317241657539));
#1006=CARTESIAN_POINT('Ctrl Pts',(168.044331862686,503.667223128163,12.8314331212318));
#1007=CARTESIAN_POINT('Ctrl Pts',(168.044114247584,503.49737876498,12.8311495138979));
#1008=CARTESIAN_POINT('Ctrl Pts',(168.043901506083,503.338396675447,12.8308732664667));
#1009=CARTESIAN_POINT('Ctrl Pts',(168.043693632194,503.189796224338,12.830604303137));
#1010=CARTESIAN_POINT('Ctrl Pts',(168.043490619815,503.051108007819,12.8303425495787));
#1011=CARTESIAN_POINT('Ctrl Pts',(168.043292462722,502.921873843973,12.8300879329183));
#1012=CARTESIAN_POINT('Ctrl Pts',(168.043099154554,502.801646762867,12.8298403817228));
#1013=CARTESIAN_POINT('Ctrl Pts',(168.042910688803,502.689990996134,12.8295998259831));
#1014=CARTESIAN_POINT('Ctrl Pts',(168.0427270588,502.586481966034,12.829366197095));
#1015=CARTESIAN_POINT('Ctrl Pts',(168.042548257695,502.490706273954,12.8291394278388));
#1016=CARTESIAN_POINT('Ctrl Pts',(168.042374278443,502.402261688311,12.8289194523569));
#1017=CARTESIAN_POINT('Ctrl Pts',(168.042205113787,502.320757131812,12.8287062061294));
#1018=CARTESIAN_POINT('Ctrl Pts',(168.04204075623,502.245812668017,12.8284996259473));
#1019=CARTESIAN_POINT('Ctrl Pts',(168.04188119802,502.177059487153,12.8282996498821));
#1020=CARTESIAN_POINT('Ctrl Pts',(168.041726431117,502.114139891115,12.8281062172537));
#1021=CARTESIAN_POINT('Ctrl Pts',(168.04157644717,502.056707277587,12.8279192685935));
#1022=CARTESIAN_POINT('Ctrl Pts',(168.041431237482,502.004426123204,12.827738745604));
#1023=CARTESIAN_POINT('Ctrl Pts',(168.041290792974,501.956971965673,12.8275645911138));
#1024=CARTESIAN_POINT('Ctrl Pts',(168.041155104146,501.914031384753,12.8273967490269));
#1025=CARTESIAN_POINT('Ctrl Pts',(168.041024161033,501.875301981983,12.8272351642667));
#1026=CARTESIAN_POINT('Ctrl Pts',(168.040897953153,501.840492359043,12.8270797827118));
#1027=CARTESIAN_POINT('Ctrl Pts',(168.040776469449,501.809322094606,12.8269305511247));
#1028=CARTESIAN_POINT('Ctrl Pts',(168.040659698224,501.781521719512,12.8267874170702));
#1029=CARTESIAN_POINT('Ctrl Pts',(168.040547627069,501.756832690101,12.8266503288228));
#1030=CARTESIAN_POINT('Ctrl Pts',(168.040440242772,501.735007359485,12.8265192352613));
#1031=CARTESIAN_POINT('Ctrl Pts',(168.040337531228,501.71580894652,12.8263940857471));
#1032=CARTESIAN_POINT('Ctrl Pts',(168.040239477318,501.699011502209,12.8262748299849));
#1033=CARTESIAN_POINT('Ctrl Pts',(168.040146064783,501.684399873203,12.8261614178606));
#1034=CARTESIAN_POINT('Ctrl Pts',(168.040057276068,501.671769662033,12.8260537992529));
#1035=CARTESIAN_POINT('Ctrl Pts',(168.039973092142,501.660927183625,12.825951923813));
#1036=CARTESIAN_POINT('Ctrl Pts',(168.039893492288,501.651689417571,12.8258557407043));
#1037=CARTESIAN_POINT('Ctrl Pts',(168.039818453849,501.643883955539,12.8257651982954));
#1038=CARTESIAN_POINT('Ctrl Pts',(168.039747951927,501.637348943071,12.8256802437928));
#1039=CARTESIAN_POINT('Ctrl Pts',(168.039681959025,501.63193301486,12.8256008228005));
#1040=CARTESIAN_POINT('Ctrl Pts',(168.039620444601,501.627495222423,12.8255268787867));
#1041=CARTESIAN_POINT('Ctrl Pts',(168.039563374539,501.623904952801,12.8254583524336));
#1042=CARTESIAN_POINT('Ctrl Pts',(168.039510710487,501.621041836643,12.8253951808387));
#1043=CARTESIAN_POINT('Ctrl Pts',(168.039462409037,501.618795643573,12.825337296523));
#1044=CARTESIAN_POINT('Ctrl Pts',(168.039418420699,501.617066162225,12.8252846261907));
#1045=CARTESIAN_POINT('Ctrl Pts',(168.039378688602,501.615763061596,12.8252370891624));
#1046=CARTESIAN_POINT('Ctrl Pts',(168.039343146842,501.614805729405,12.8251945953786));
#1047=CARTESIAN_POINT('Ctrl Pts',(168.039311718346,501.614123081856,12.8251570428329));
#1048=CARTESIAN_POINT('Ctrl Pts',(168.039284312112,501.613653337401,12.825124314247));
#1049=CARTESIAN_POINT('Ctrl Pts',(168.039229326792,501.61292872108,12.8250586817758));
#1050=CARTESIAN_POINT('Ctrl Pts',(168.039187053916,501.612928728764,12.8250083029251));
#1051=CARTESIAN_POINT('',(168.441379218408,501.612849224695,13.3043222534049));
#1052=CARTESIAN_POINT('Origin',(159.954298161739,501.611715169192,21.2426220107615));
#1053=CARTESIAN_POINT('',(159.954298161739,501.614574295211,1.22896366600353));
#1054=CARTESIAN_POINT('',(159.954298161739,501.612001785905,19.2363274543092));
#1055=CARTESIAN_POINT('',(179.954298161739,501.614574295211,1.22896366600353));
#1056=CARTESIAN_POINT('',(179.954298161739,501.614574295211,1.22896366600352));
#1057=CARTESIAN_POINT('',(179.954298161739,501.611715169192,21.2426220107615));
#1058=CARTESIAN_POINT('Origin',(169.954298161751,501.613147268451,11.2180392933937));
#1059=CARTESIAN_POINT('Origin',(182.954298161739,492.063858782702,13.5317490483067));
#1060=CARTESIAN_POINT('',(182.954298161739,492.063858782702,13.5317490483067));
#1061=CARTESIAN_POINT('',(182.954298161739,493.212925447381,12.1623447225463));
#1062=CARTESIAN_POINT('',(182.954298161739,490.736852726713,15.1132132829265));
#1063=CARTESIAN_POINT('',(179.954298161739,492.063858782702,13.5317490483067));
#1064=CARTESIAN_POINT('',(182.954298161739,492.063858782702,13.5317490483067));
#1065=CARTESIAN_POINT('',(179.954298161739,493.212925447381,12.1623447225463));
#1066=CARTESIAN_POINT('',(179.954298161739,490.736852726713,15.1132132829265));
#1067=CARTESIAN_POINT('',(182.954298161739,493.212925447381,12.1623447225461));
#1068=CARTESIAN_POINT('Origin',(182.954298161739,490.914792118024,12.1623447225462));
#1069=CARTESIAN_POINT('',(182.954298161739,490.914792118024,12.1623447225462));
#1070=CARTESIAN_POINT('',(182.954298161739,495.989979622878,18.2107176645448));
#1071=CARTESIAN_POINT('',(179.954298161739,490.914792118024,12.1623447225462));
#1072=CARTESIAN_POINT('',(182.954298161739,490.914792118024,12.1623447225461));
#1073=CARTESIAN_POINT('',(179.954298161739,495.989979622878,18.2107176645448));
#1074=CARTESIAN_POINT('Origin',(182.954298161739,502.348133165823,36.9584682147062));
#1075=CARTESIAN_POINT('',(182.954298161739,502.348133165823,36.9584682147062));
#1076=CARTESIAN_POINT('',(182.954298161739,503.497199830501,35.5890638889454));
#1077=CARTESIAN_POINT('',(182.954298161739,504.664223556044,34.1982591713872));
#1078=CARTESIAN_POINT('',(179.954298161739,502.348133165823,36.9584682147062));
#1079=CARTESIAN_POINT('',(182.954298161739,502.348133165823,36.9584682147062));
#1080=CARTESIAN_POINT('',(179.954298161739,503.497199830501,35.5890638889454));
#1081=CARTESIAN_POINT('',(179.954298161739,504.664223556044,34.1982591713872));
#1082=CARTESIAN_POINT('',(182.954298161739,503.497199830501,35.5890638889456));
#1083=CARTESIAN_POINT('Origin',(182.954298161739,501.199066501144,35.5890638889454));
#1084=CARTESIAN_POINT('',(182.954298161739,501.199066501144,35.5890638889454));
#1085=CARTESIAN_POINT('',(182.954298161739,498.381943120855,32.2317469797041));
#1086=CARTESIAN_POINT('',(179.954298161739,501.199066501144,35.5890638889454));
#1087=CARTESIAN_POINT('',(182.954298161739,501.199066501145,35.5890638889455));
#1088=CARTESIAN_POINT('',(179.954298161739,498.381943120855,32.2317469797041));
#1089=CARTESIAN_POINT('Origin',(182.954298161739,492.063858782702,11.1981633080163));
#1090=CARTESIAN_POINT('Origin',(179.954298161739,492.063858782702,11.1981633080163));
#1091=CARTESIAN_POINT('Origin',(182.954298161739,492.063858782702,11.1981633080163));
#1092=CARTESIAN_POINT('Origin',(182.954298161739,502.348133165823,34.6248824744157));
#1093=CARTESIAN_POINT('Origin',(179.954298161739,502.348133165823,34.6248824744157));
#1094=CARTESIAN_POINT('Origin',(182.954298161739,502.348133165823,34.6248824744157));
#1095=CARTESIAN_POINT('Origin',(179.954298161739,499.744965136567,25.3668716104102));
#1096=CARTESIAN_POINT('',(179.954298161739,515.777620523555,35.3488191437145));
#1097=CARTESIAN_POINT('',(179.954298161739,501.614271696388,49.5121679708811));
#1098=CARTESIAN_POINT('',(179.954298161739,514.264943560164,36.8614961071168));
#1099=CARTESIAN_POINT('',(179.954298161739,515.777898460727,35.3490970808866));
#1100=CARTESIAN_POINT('',(179.954298161739,509.275737560405,28.8469361806131));
#1101=CARTESIAN_POINT('',(179.954298161739,516.719439848325,34.4075556932889));
#1102=CARTESIAN_POINT('',(179.954298161739,517.882218875973,33.2447766656408));
#1103=CARTESIAN_POINT('',(179.954298161739,516.719256859751,34.4074064507475));
#1104=CARTESIAN_POINT('',(179.954298161739,501.337668851112,21.8624303591042));
#1105=CARTESIAN_POINT('',(179.954298161739,514.247836514699,36.8781207686668));
#1106=CARTESIAN_POINT('',(179.954298161739,504.615574260305,1.22942137991752));
#1107=CARTESIAN_POINT('',(179.954298161739,502.182110482626,1.22905022688747));
#1108=CARTESIAN_POINT('',(179.954298161739,504.615584020785,1.21804206902686));
#1109=CARTESIAN_POINT('',(179.954298161739,504.605220659291,13.3002264703221));
#1110=CARTESIAN_POINT('',(179.954298161739,504.612840769865,1.2180397160334));
#1111=CARTESIAN_POINT('',(179.954298161739,517.882218875973,1.22942137991752));
#1112=CARTESIAN_POINT('',(179.954298161739,501.612840769865,1.2180397160334));
#1113=CARTESIAN_POINT('',(179.954298161739,501.612840769865,1.2180397160334));
#1114=CARTESIAN_POINT('',(179.954298161739,501.612840769865,1.22896340160405));
#1115=CARTESIAN_POINT('',(179.954298161739,501.612840769865,1.22896340160405));
#1116=CARTESIAN_POINT('',(179.954298161739,481.61202462941,1.22591286779038));
#1117=CARTESIAN_POINT('',(179.954298161739,481.61202462941,1.22591286779038));
#1118=CARTESIAN_POINT('',(179.954298161739,481.60771139716,29.5056076716525));
#1119=CARTESIAN_POINT('',(179.954298161739,481.61052671889,11.0469588705705));
#1120=CARTESIAN_POINT('',(179.954298161739,501.617807230294,49.515703504787));
#1121=CARTESIAN_POINT('Origin',(169.954298161752,508.670043930906,28.3029677485272));
#1122=CARTESIAN_POINT('Origin',(182.954298161739,515.781156057461,35.3523546776204));
#1123=CARTESIAN_POINT('',(182.954298161739,515.777898460727,35.3490970808866));
#1124=CARTESIAN_POINT('',(182.954298161739,515.777898460727,35.3490970808866));
#1125=CARTESIAN_POINT('',(182.954298161739,515.777620523555,35.3488191437145));
#1126=CARTESIAN_POINT('',(182.954298161739,515.777620523555,35.3488191437145));
#1127=CARTESIAN_POINT('',(182.954298161739,509.275737560405,28.8469361806131));
#1128=CARTESIAN_POINT('Origin',(182.954298161739,515.777620523555,35.3488191437145));
#1129=CARTESIAN_POINT('',(182.954298161739,501.614271696388,49.5121679708811));
#1130=CARTESIAN_POINT('',(182.954298161739,514.264943560164,36.8614961071168));
#1131=CARTESIAN_POINT('',(182.954298161739,501.614271696442,49.5121679709345));
#1132=CARTESIAN_POINT('Origin',(182.954298161739,501.617807230294,49.515703504787));
#1133=CARTESIAN_POINT('',(182.954298161739,481.60771139716,29.5056076716525));
#1134=CARTESIAN_POINT('',(182.954298161739,481.60771139716,29.5056076716525));
#1135=CARTESIAN_POINT('',(182.954298161739,501.617807230294,49.515703504787));
#1136=CARTESIAN_POINT('Origin',(182.954298161739,499.744965136567,25.3668716104102));
#1137=CARTESIAN_POINT('',(182.954298161739,481.61202462941,1.22591286779038));
#1138=CARTESIAN_POINT('',(182.954298161739,481.61052671889,11.0469588705705));
#1139=CARTESIAN_POINT('',(182.954298161739,501.612840769865,1.22896340160405));
#1140=CARTESIAN_POINT('',(182.954298161739,481.61202462941,1.22591286779038));
#1141=CARTESIAN_POINT('',(182.954298161739,501.612840769865,1.2180397160334));
#1142=CARTESIAN_POINT('',(182.954298161739,501.612840769865,1.22896340160405));
#1143=CARTESIAN_POINT('',(182.954298161739,504.612840769865,1.2180397160334));
#1144=CARTESIAN_POINT('',(182.954298161739,501.612840769865,1.2180397160334));
#1145=CARTESIAN_POINT('',(182.954298161739,517.882218875973,1.22942137991752));
#1146=CARTESIAN_POINT('',(182.954298161739,516.719256859751,34.4074064507476));
#1147=CARTESIAN_POINT('',(182.954298161739,515.316086091956,35.8101763653913));
#1148=CARTESIAN_POINT('',(182.954298161739,516.719439848325,34.4075556932889));
#1149=CARTESIAN_POINT('',(182.954298161739,509.408441126768,28.4448225790973));
#1150=CARTESIAN_POINT('',(182.954298161739,517.882218875973,33.2447766656408));
#1151=CARTESIAN_POINT('Origin',(159.954298161739,517.882218875973,33.2447766656408));
#1152=CARTESIAN_POINT('',(159.954298161739,520.226398653296,30.9012665657884));
#1153=CARTESIAN_POINT('',(159.954298161739,516.719256859751,34.4074064507476));
#1154=CARTESIAN_POINT('Origin',(159.954298161739,516.719256859751,34.4074064507476));
#1155=CARTESIAN_POINT('',(171.454298161739,516.719439848325,34.4075556932889));
#1156=CARTESIAN_POINT('Origin',(159.954298161739,511.24746700513,17.2314093673338));
#1157=CARTESIAN_POINT('',(159.954298161739,504.615584020785,1.21804206902686));
#1158=CARTESIAN_POINT('',(159.954298161739,504.612840769865,1.2180397160334));
#1159=CARTESIAN_POINT('',(159.954298161739,504.615574260305,1.22942137991752));
#1160=CARTESIAN_POINT('',(159.954298161739,504.615574260305,1.22942137991752));
#1161=CARTESIAN_POINT('',(159.954298161739,504.615574260305,1.22942137991752));
#1162=CARTESIAN_POINT('Origin',(179.954298161739,504.615574260305,1.22942137991752));
#1163=CARTESIAN_POINT('',(179.954298161739,504.615574260305,1.22942137991752));
#1164=CARTESIAN_POINT('Origin',(169.954298161751,504.614050721835,11.2184969925877));
#1165=CARTESIAN_POINT('Origin',(179.954298161739,504.615574260305,1.22942137991752));
#1166=CARTESIAN_POINT('',(179.954298161739,504.615584020785,1.21804206902686));
#1167=CARTESIAN_POINT('Origin',(182.954298161739,481.60771139716,29.5056076716525));
#1168=CARTESIAN_POINT('',(182.954298161739,481.61202462941,1.22591286779038));
#1169=CARTESIAN_POINT('Origin',(182.954298161739,517.882218875973,33.2447766656408));
#1170=CARTESIAN_POINT('Origin',(182.954298161739,504.612840769865,1.2180397160334));
#1171=CARTESIAN_POINT('',(182.954298161739,504.612840769865,1.2180397160334));
#1172=CARTESIAN_POINT('Origin',(182.954298161739,501.612840769865,1.2180397160334));
#1173=CARTESIAN_POINT('',(182.954298161739,501.612840769865,1.2180397160334));
#1174=CARTESIAN_POINT('Origin',(182.954298161739,501.612840769865,1.22896340160405));
#1175=CARTESIAN_POINT('',(182.954298161739,501.612840769865,1.22896340160405));
#1176=CARTESIAN_POINT('Origin',(182.954298161739,481.61202462941,1.22591286779038));
#1177=UNCERTAINTY_MEASURE_WITH_UNIT(LENGTH_MEASURE(0.01),#1181,
'DISTANCE_ACCURACY_VALUE',
'Maximum model space distance between geometric entities at asserted c
onnectivities');
#1178=UNCERTAINTY_MEASURE_WITH_UNIT(LENGTH_MEASURE(0.01),#1181,
'DISTANCE_ACCURACY_VALUE',
'Maximum model space distance between geometric entities at asserted c
onnectivities');
#1179=(
GEOMETRIC_REPRESENTATION_CONTEXT(3)
GLOBAL_UNCERTAINTY_ASSIGNED_CONTEXT((#1177))
GLOBAL_UNIT_ASSIGNED_CONTEXT((#1181,#1183,#1184))
REPRESENTATION_CONTEXT('','3D')
);
#1180=(
GEOMETRIC_REPRESENTATION_CONTEXT(3)
GLOBAL_UNCERTAINTY_ASSIGNED_CONTEXT((#1178))
GLOBAL_UNIT_ASSIGNED_CONTEXT((#1181,#1183,#1184))
REPRESENTATION_CONTEXT('','3D')
);
#1181=(
LENGTH_UNIT()
NAMED_UNIT(*)
SI_UNIT(.MILLI.,.METRE.)
);
#1182=(
LENGTH_UNIT()
NAMED_UNIT(*)
SI_UNIT($,.METRE.)
);
#1183=(
NAMED_UNIT(*)
PLANE_ANGLE_UNIT()
SI_UNIT($,.RADIAN.)
);
#1184=(
NAMED_UNIT(*)
SI_UNIT($,.STERADIAN.)
SOLID_ANGLE_UNIT()
);
#1185=SHAPE_DEFINITION_REPRESENTATION(#1186,#1187);
#1186=PRODUCT_DEFINITION_SHAPE('',$,#1189);
#1187=SHAPE_REPRESENTATION('',(#651),#1179);
#1188=PRODUCT_DEFINITION_CONTEXT('part definition',#1193,'design');
#1189=PRODUCT_DEFINITION('alumount(1x)','alumount(1x) v1',#1190,#1188);
#1190=PRODUCT_DEFINITION_FORMATION('',$,#1195);
#1191=PRODUCT_RELATED_PRODUCT_CATEGORY('alumount(1x) v1',
'alumount(1x) v1',(#1195));
#1192=APPLICATION_PROTOCOL_DEFINITION('international standard',
'automotive_design',2009,#1193);
#1193=APPLICATION_CONTEXT(
'Core Data for Automotive Mechanical Design Process');
#1194=PRODUCT_CONTEXT('part definition',#1193,'mechanical');
#1195=PRODUCT('alumount(1x)','alumount(1x) v1',$,(#1194));
#1196=PRESENTATION_STYLE_ASSIGNMENT((#1197));
#1197=SURFACE_STYLE_USAGE(.BOTH.,#1198);
#1198=SURFACE_SIDE_STYLE('',(#1199));
#1199=SURFACE_STYLE_FILL_AREA(#1200);
#1200=FILL_AREA_STYLE('Steel - Satin',(#1201));
#1201=FILL_AREA_STYLE_COLOUR('Steel - Satin',#1202);
#1202=COLOUR_RGB('Steel - Satin',0.627450980392157,0.627450980392157,0.627450980392157);
ENDSEC;
END-ISO-10303-21;
