ISO-10303-21;
HEADER;
/* Generated by software containing ST-Developer
 * from STEP Tools, Inc. (www.steptools.com) 
 */

FILE_DESCRIPTION(
/* description */ (''),
/* implementation_level */ '2;1');

FILE_NAME(
/* name */ 'doubleshear3(1x).step',
/* time_stamp */ '2025-12-01T16:02:24+05:30',
/* author */ (''),
/* organization */ (''),
/* preprocessor_version */ 'ST-DEVELOPER v20.1',
/* originating_system */ 'Autodesk Translation Framework v14.21.0.0',
/* authorisation */ '');

FILE_SCHEMA (('AUTOMOTIVE_DESIGN { 1 0 10303 214 3 1 1 }'));
ENDSEC;

DATA;
#10=MECHANICAL_DESIGN_GEOMETRIC_PRESENTATION_REPRESENTATION('',(#22,#23,
#24),#1066);
#11=SHAPE_REPRESENTATION_RELATIONSHIP('SRR','None',#1073,#12);
#12=ADVANCED_BREP_SHAPE_REPRESENTATION('',(#25,#26,#27),#1065);
#13=B_SPLINE_CURVE_WITH_KNOTS('',3,(#813,#814,#815,#816),.UNSPECIFIED.,
 .F.,.F.,(4,4),(-1.,0.),.UNSPECIFIED.);
#14=B_SPLINE_CURVE_WITH_KNOTS('',3,(#860,#861,#862,#863,#864,#865,#866,
#867,#868,#869),.UNSPECIFIED.,.F.,.F.,(4,1,1,1,1,1,1,4),(-1.,-0.857142857142857,
-0.714285714285714,-0.571428571428571,-0.428571428571429,-0.285714285714286,
-0.142857142857143,0.),.UNSPECIFIED.);
#15=B_SPLINE_CURVE_WITH_KNOTS('',3,(#888,#889,#890,#891),.UNSPECIFIED.,
 .F.,.F.,(4,4),(-1.,0.),.UNSPECIFIED.);
#16=B_SPLINE_CURVE_WITH_KNOTS('',3,(#952,#953,#954,#955),.UNSPECIFIED.,
 .F.,.F.,(4,4),(-1.,0.),.UNSPECIFIED.);
#17=B_SPLINE_SURFACE_WITH_KNOTS('',3,3,((#795,#796,#797,#798),(#799,#800,
#801,#802),(#803,#804,#805,#806),(#807,#808,#809,#810)),.UNSPECIFIED.,.F.,
 .F.,.F.,(4,4),(4,4),(0.,1.),(0.,1.),.UNSPECIFIED.);
#18=B_SPLINE_SURFACE_WITH_KNOTS('',3,3,((#819,#820,#821,#822),(#823,#824,
#825,#826),(#827,#828,#829,#830),(#831,#832,#833,#834),(#835,#836,#837,
#838),(#839,#840,#841,#842),(#843,#844,#845,#846),(#847,#848,#849,#850),
(#851,#852,#853,#854),(#855,#856,#857,#858)),.UNSPECIFIED.,.F.,.F.,.F.,
(4,1,1,1,1,1,1,4),(4,4),(0.,0.142857142857143,0.285714285714286,0.428571428571429,
0.571428571428571,0.714285714285714,0.857142857142857,1.),(0.,1.),
 .UNSPECIFIED.);
#19=B_SPLINE_SURFACE_WITH_KNOTS('',3,3,((#871,#872,#873,#874),(#875,#876,
#877,#878),(#879,#880,#881,#882),(#883,#884,#885,#886)),.UNSPECIFIED.,.F.,
 .F.,.F.,(4,4),(4,4),(0.,1.),(0.,1.),.UNSPECIFIED.);
#20=B_SPLINE_SURFACE_WITH_KNOTS('',3,3,((#893,#894,#895,#896),(#897,#898,
#899,#900),(#901,#902,#903,#904),(#905,#906,#907,#908),(#909,#910,#911,
#912),(#913,#914,#915,#916),(#917,#918,#919,#920),(#921,#922,#923,#924),
(#925,#926,#927,#928),(#929,#930,#931,#932)),.UNSPECIFIED.,.F.,.F.,.F.,
(4,1,1,1,1,1,1,4),(4,4),(0.,0.142857142857143,0.285714285714286,0.428571428571429,
0.571428571428571,0.785714285714286,0.857142857142857,1.),(0.,1.),
 .UNSPECIFIED.);
#21=B_SPLINE_SURFACE_WITH_KNOTS('',3,3,((#936,#937,#938,#939),(#940,#941,
#942,#943),(#944,#945,#946,#947),(#948,#949,#950,#951)),.UNSPECIFIED.,.F.,
 .F.,.F.,(4,4),(4,4),(0.,1.),(0.,1.),.UNSPECIFIED.);
#22=STYLED_ITEM('',(#1082),#25);
#23=STYLED_ITEM('',(#1082),#26);
#24=STYLED_ITEM('',(#1082),#27);
#25=MANIFOLD_SOLID_BREP('Body1',#546);
#26=MANIFOLD_SOLID_BREP('Body1',#547);
#27=MANIFOLD_SOLID_BREP('Body1',#548);
#28=FACE_BOUND('',#85,.T.);
#29=FACE_BOUND('',#88,.T.);
#30=FACE_BOUND('',#96,.T.);
#31=FACE_BOUND('',#97,.T.);
#32=FACE_BOUND('',#98,.T.);
#33=FACE_BOUND('',#114,.T.);
#34=FACE_BOUND('',#115,.T.);
#35=FACE_BOUND('',#116,.T.);
#36=FACE_BOUND('',#118,.T.);
#37=FACE_BOUND('',#120,.T.);
#38=PLANE('',#565);
#39=PLANE('',#569);
#40=PLANE('',#570);
#41=PLANE('',#576);
#42=PLANE('',#592);
#43=PLANE('',#593);
#44=PLANE('',#596);
#45=PLANE('',#599);
#46=PLANE('',#600);
#47=PLANE('',#601);
#48=PLANE('',#602);
#49=PLANE('',#603);
#50=PLANE('',#604);
#51=PLANE('',#605);
#52=PLANE('',#608);
#53=FACE_OUTER_BOUND('',#83,.T.);
#54=FACE_OUTER_BOUND('',#84,.T.);
#55=FACE_OUTER_BOUND('',#86,.T.);
#56=FACE_OUTER_BOUND('',#87,.T.);
#57=FACE_OUTER_BOUND('',#89,.T.);
#58=FACE_OUTER_BOUND('',#90,.T.);
#59=FACE_OUTER_BOUND('',#91,.T.);
#60=FACE_OUTER_BOUND('',#92,.T.);
#61=FACE_OUTER_BOUND('',#93,.T.);
#62=FACE_OUTER_BOUND('',#94,.T.);
#63=FACE_OUTER_BOUND('',#95,.T.);
#64=FACE_OUTER_BOUND('',#99,.T.);
#65=FACE_OUTER_BOUND('',#100,.T.);
#66=FACE_OUTER_BOUND('',#101,.T.);
#67=FACE_OUTER_BOUND('',#102,.T.);
#68=FACE_OUTER_BOUND('',#103,.T.);
#69=FACE_OUTER_BOUND('',#104,.T.);
#70=FACE_OUTER_BOUND('',#105,.T.);
#71=FACE_OUTER_BOUND('',#106,.T.);
#72=FACE_OUTER_BOUND('',#107,.T.);
#73=FACE_OUTER_BOUND('',#108,.T.);
#74=FACE_OUTER_BOUND('',#109,.T.);
#75=FACE_OUTER_BOUND('',#110,.T.);
#76=FACE_OUTER_BOUND('',#111,.T.);
#77=FACE_OUTER_BOUND('',#112,.T.);
#78=FACE_OUTER_BOUND('',#113,.T.);
#79=FACE_OUTER_BOUND('',#117,.T.);
#80=FACE_OUTER_BOUND('',#119,.T.);
#81=FACE_OUTER_BOUND('',#121,.T.);
#82=FACE_OUTER_BOUND('',#122,.T.);
#83=EDGE_LOOP('',(#358,#359,#360,#361));
#84=EDGE_LOOP('',(#362));
#85=EDGE_LOOP('',(#363));
#86=EDGE_LOOP('',(#364,#365,#366,#367));
#87=EDGE_LOOP('',(#368));
#88=EDGE_LOOP('',(#369));
#89=EDGE_LOOP('',(#370,#371,#372,#373,#374,#375));
#90=EDGE_LOOP('',(#376,#377,#378,#379));
#91=EDGE_LOOP('',(#380,#381,#382,#383));
#92=EDGE_LOOP('',(#384,#385,#386,#387));
#93=EDGE_LOOP('',(#388,#389,#390,#391,#392));
#94=EDGE_LOOP('',(#393,#394,#395,#396));
#95=EDGE_LOOP('',(#397,#398,#399,#400,#401,#402,#403,#404,#405,#406,#407,
#408,#409,#410,#411,#412));
#96=EDGE_LOOP('',(#413));
#97=EDGE_LOOP('',(#414));
#98=EDGE_LOOP('',(#415));
#99=EDGE_LOOP('',(#416,#417,#418,#419));
#100=EDGE_LOOP('',(#420,#421,#422,#423));
#101=EDGE_LOOP('',(#424,#425,#426,#427));
#102=EDGE_LOOP('',(#428,#429,#430,#431,#432,#433));
#103=EDGE_LOOP('',(#434,#435,#436,#437));
#104=EDGE_LOOP('',(#438,#439,#440,#441));
#105=EDGE_LOOP('',(#442,#443,#444,#445));
#106=EDGE_LOOP('',(#446,#447,#448,#449));
#107=EDGE_LOOP('',(#450,#451,#452,#453));
#108=EDGE_LOOP('',(#454,#455,#456,#457));
#109=EDGE_LOOP('',(#458,#459,#460,#461));
#110=EDGE_LOOP('',(#462,#463,#464,#465));
#111=EDGE_LOOP('',(#466,#467,#468,#469));
#112=EDGE_LOOP('',(#470,#471,#472,#473));
#113=EDGE_LOOP('',(#474,#475,#476,#477,#478,#479,#480,#481,#482,#483,#484));
#114=EDGE_LOOP('',(#485));
#115=EDGE_LOOP('',(#486));
#116=EDGE_LOOP('',(#487));
#117=EDGE_LOOP('',(#488));
#118=EDGE_LOOP('',(#489));
#119=EDGE_LOOP('',(#490,#491,#492,#493));
#120=EDGE_LOOP('',(#494));
#121=EDGE_LOOP('',(#495,#496,#497,#498,#499,#500,#501));
#122=EDGE_LOOP('',(#502,#503,#504,#505));
#123=LINE('',#772,#164);
#124=LINE('',#779,#165);
#125=LINE('',#785,#166);
#126=LINE('',#789,#167);
#127=LINE('',#817,#168);
#128=LINE('',#818,#169);
#129=LINE('',#870,#170);
#130=LINE('',#892,#171);
#131=LINE('',#935,#172);
#132=LINE('',#960,#173);
#133=LINE('',#962,#174);
#134=LINE('',#964,#175);
#135=LINE('',#966,#176);
#136=LINE('',#968,#177);
#137=LINE('',#972,#178);
#138=LINE('',#976,#179);
#139=LINE('',#978,#180);
#140=LINE('',#988,#181);
#141=LINE('',#992,#182);
#142=LINE('',#996,#183);
#143=LINE('',#1002,#184);
#144=LINE('',#1003,#185);
#145=LINE('',#1006,#186);
#146=LINE('',#1007,#187);
#147=LINE('',#1010,#188);
#148=LINE('',#1011,#189);
#149=LINE('',#1015,#190);
#150=LINE('',#1018,#191);
#151=LINE('',#1019,#192);
#152=LINE('',#1023,#193);
#153=LINE('',#1026,#194);
#154=LINE('',#1027,#195);
#155=LINE('',#1030,#196);
#156=LINE('',#1031,#197);
#157=LINE('',#1034,#198);
#158=LINE('',#1035,#199);
#159=LINE('',#1038,#200);
#160=LINE('',#1039,#201);
#161=LINE('',#1041,#202);
#162=LINE('',#1060,#203);
#163=LINE('',#1062,#204);
#164=VECTOR('',#622,2.5);
#165=VECTOR('',#631,6.16225313463296);
#166=VECTOR('',#638,10.);
#167=VECTOR('',#641,10.);
#168=VECTOR('',#648,16.5726668969634);
#169=VECTOR('',#649,17.0582847771525);
#170=VECTOR('',#650,16.7609577802648);
#171=VECTOR('',#651,16.5160762238827);
#172=VECTOR('',#654,16.6039463899151);
#173=VECTOR('',#659,10.);
#174=VECTOR('',#660,10.);
#175=VECTOR('',#661,10.);
#176=VECTOR('',#662,10.);
#177=VECTOR('',#663,10.);
#178=VECTOR('',#666,10.);
#179=VECTOR('',#669,10.);
#180=VECTOR('',#670,10.);
#181=VECTOR('',#681,1.70000000000002);
#182=VECTOR('',#686,1.70000000000002);
#183=VECTOR('',#691,1.70000000000002);
#184=VECTOR('',#698,10.);
#185=VECTOR('',#699,10.);
#186=VECTOR('',#702,10.);
#187=VECTOR('',#703,10.);
#188=VECTOR('',#706,10.);
#189=VECTOR('',#707,10.);
#190=VECTOR('',#712,10.);
#191=VECTOR('',#715,10.);
#192=VECTOR('',#716,10.);
#193=VECTOR('',#721,10.);
#194=VECTOR('',#724,10.);
#195=VECTOR('',#725,10.);
#196=VECTOR('',#728,10.);
#197=VECTOR('',#729,10.);
#198=VECTOR('',#732,10.);
#199=VECTOR('',#733,10.);
#200=VECTOR('',#736,10.);
#201=VECTOR('',#737,10.);
#202=VECTOR('',#740,10.);
#203=VECTOR('',#763,8.17531952866517);
#204=VECTOR('',#766,6.16225313463296);
#205=CIRCLE('',#563,2.5);
#206=CIRCLE('',#564,2.5);
#207=CIRCLE('',#566,6.16225313463296);
#208=CIRCLE('',#568,6.16225313463296);
#209=CIRCLE('',#571,9.74911222293656);
#210=CIRCLE('',#572,8.17531952866517);
#211=CIRCLE('',#573,8.17531952866517);
#212=CIRCLE('',#574,8.17531952866517);
#213=CIRCLE('',#575,11.8917701702289);
#214=CIRCLE('',#577,11.8917701702289);
#215=CIRCLE('',#578,26.7999999999999);
#216=CIRCLE('',#579,26.7999999999969);
#217=CIRCLE('',#580,11.8917701702289);
#218=CIRCLE('',#581,1.70000000000002);
#219=CIRCLE('',#582,1.70000000000002);
#220=CIRCLE('',#583,1.70000000000002);
#221=CIRCLE('',#585,1.70000000000002);
#222=CIRCLE('',#587,1.70000000000002);
#223=CIRCLE('',#589,1.70000000000002);
#224=CIRCLE('',#591,11.8917701702289);
#225=CIRCLE('',#595,26.7999999999969);
#226=CIRCLE('',#598,26.7999999999999);
#227=CIRCLE('',#606,8.17531952866517);
#228=CIRCLE('',#607,6.16225313463296);
#229=CIRCLE('',#609,8.17531952866517);
#230=CIRCLE('',#610,8.17531952866517);
#231=CIRCLE('',#611,8.17531952866517);
#232=CIRCLE('',#612,8.17531952866517);
#233=CIRCLE('',#613,6.16225313463296);
#234=VERTEX_POINT('',#769);
#235=VERTEX_POINT('',#771);
#236=VERTEX_POINT('',#775);
#237=VERTEX_POINT('',#778);
#238=VERTEX_POINT('',#783);
#239=VERTEX_POINT('',#784);
#240=VERTEX_POINT('',#786);
#241=VERTEX_POINT('',#788);
#242=VERTEX_POINT('',#790);
#243=VERTEX_POINT('',#792);
#244=VERTEX_POINT('',#811);
#245=VERTEX_POINT('',#812);
#246=VERTEX_POINT('',#859);
#247=VERTEX_POINT('',#887);
#248=VERTEX_POINT('',#933);
#249=VERTEX_POINT('',#957);
#250=VERTEX_POINT('',#959);
#251=VERTEX_POINT('',#961);
#252=VERTEX_POINT('',#963);
#253=VERTEX_POINT('',#965);
#254=VERTEX_POINT('',#967);
#255=VERTEX_POINT('',#969);
#256=VERTEX_POINT('',#971);
#257=VERTEX_POINT('',#973);
#258=VERTEX_POINT('',#975);
#259=VERTEX_POINT('',#977);
#260=VERTEX_POINT('',#980);
#261=VERTEX_POINT('',#982);
#262=VERTEX_POINT('',#984);
#263=VERTEX_POINT('',#987);
#264=VERTEX_POINT('',#991);
#265=VERTEX_POINT('',#995);
#266=VERTEX_POINT('',#999);
#267=VERTEX_POINT('',#1000);
#268=VERTEX_POINT('',#1005);
#269=VERTEX_POINT('',#1009);
#270=VERTEX_POINT('',#1013);
#271=VERTEX_POINT('',#1017);
#272=VERTEX_POINT('',#1021);
#273=VERTEX_POINT('',#1025);
#274=VERTEX_POINT('',#1029);
#275=VERTEX_POINT('',#1033);
#276=VERTEX_POINT('',#1037);
#277=VERTEX_POINT('',#1044);
#278=VERTEX_POINT('',#1046);
#279=VERTEX_POINT('',#1049);
#280=VERTEX_POINT('',#1050);
#281=VERTEX_POINT('',#1052);
#282=VERTEX_POINT('',#1054);
#283=VERTEX_POINT('',#1057);
#284=EDGE_CURVE('',#234,#234,#205,.T.);
#285=EDGE_CURVE('',#234,#235,#123,.T.);
#286=EDGE_CURVE('',#235,#235,#206,.T.);
#287=EDGE_CURVE('',#236,#236,#207,.T.);
#288=EDGE_CURVE('',#236,#237,#124,.T.);
#289=EDGE_CURVE('',#237,#237,#208,.T.);
#290=EDGE_CURVE('',#238,#239,#125,.T.);
#291=EDGE_CURVE('',#239,#240,#209,.T.);
#292=EDGE_CURVE('',#240,#241,#126,.T.);
#293=EDGE_CURVE('',#242,#241,#210,.T.);
#294=EDGE_CURVE('',#243,#242,#211,.T.);
#295=EDGE_CURVE('',#238,#243,#212,.T.);
#296=EDGE_CURVE('',#244,#245,#13,.T.);
#297=EDGE_CURVE('',#244,#239,#127,.T.);
#298=EDGE_CURVE('',#245,#238,#128,.T.);
#299=EDGE_CURVE('',#246,#244,#14,.T.);
#300=EDGE_CURVE('',#246,#240,#129,.T.);
#301=EDGE_CURVE('',#247,#246,#15,.T.);
#302=EDGE_CURVE('',#247,#241,#130,.T.);
#303=EDGE_CURVE('',#247,#248,#213,.T.);
#304=EDGE_CURVE('',#248,#243,#131,.T.);
#305=EDGE_CURVE('',#245,#248,#16,.T.);
#306=EDGE_CURVE('',#248,#249,#214,.T.);
#307=EDGE_CURVE('',#249,#250,#132,.T.);
#308=EDGE_CURVE('',#250,#251,#133,.T.);
#309=EDGE_CURVE('',#251,#252,#134,.T.);
#310=EDGE_CURVE('',#252,#253,#135,.T.);
#311=EDGE_CURVE('',#253,#254,#136,.T.);
#312=EDGE_CURVE('',#254,#255,#215,.T.);
#313=EDGE_CURVE('',#255,#256,#137,.T.);
#314=EDGE_CURVE('',#256,#257,#216,.T.);
#315=EDGE_CURVE('',#257,#258,#138,.T.);
#316=EDGE_CURVE('',#258,#259,#139,.T.);
#317=EDGE_CURVE('',#259,#247,#217,.T.);
#318=EDGE_CURVE('',#260,#260,#218,.T.);
#319=EDGE_CURVE('',#261,#261,#219,.T.);
#320=EDGE_CURVE('',#262,#262,#220,.T.);
#321=EDGE_CURVE('',#260,#263,#140,.T.);
#322=EDGE_CURVE('',#263,#263,#221,.T.);
#323=EDGE_CURVE('',#261,#264,#141,.T.);
#324=EDGE_CURVE('',#264,#264,#222,.T.);
#325=EDGE_CURVE('',#262,#265,#142,.T.);
#326=EDGE_CURVE('',#265,#265,#223,.T.);
#327=EDGE_CURVE('',#266,#267,#224,.T.);
#328=EDGE_CURVE('',#266,#249,#143,.T.);
#329=EDGE_CURVE('',#267,#259,#144,.T.);
#330=EDGE_CURVE('',#267,#268,#145,.T.);
#331=EDGE_CURVE('',#268,#258,#146,.T.);
#332=EDGE_CURVE('',#268,#269,#147,.T.);
#333=EDGE_CURVE('',#269,#257,#148,.T.);
#334=EDGE_CURVE('',#270,#269,#225,.T.);
#335=EDGE_CURVE('',#270,#256,#149,.T.);
#336=EDGE_CURVE('',#271,#270,#150,.T.);
#337=EDGE_CURVE('',#271,#255,#151,.T.);
#338=EDGE_CURVE('',#272,#271,#226,.T.);
#339=EDGE_CURVE('',#272,#254,#152,.T.);
#340=EDGE_CURVE('',#273,#272,#153,.T.);
#341=EDGE_CURVE('',#273,#253,#154,.T.);
#342=EDGE_CURVE('',#274,#273,#155,.T.);
#343=EDGE_CURVE('',#274,#252,#156,.T.);
#344=EDGE_CURVE('',#275,#274,#157,.T.);
#345=EDGE_CURVE('',#275,#251,#158,.T.);
#346=EDGE_CURVE('',#276,#275,#159,.T.);
#347=EDGE_CURVE('',#276,#250,#160,.T.);
#348=EDGE_CURVE('',#266,#276,#161,.T.);
#349=EDGE_CURVE('',#277,#277,#227,.T.);
#350=EDGE_CURVE('',#278,#278,#228,.T.);
#351=EDGE_CURVE('',#279,#280,#229,.T.);
#352=EDGE_CURVE('',#280,#281,#230,.T.);
#353=EDGE_CURVE('',#281,#282,#231,.T.);
#354=EDGE_CURVE('',#282,#279,#232,.T.);
#355=EDGE_CURVE('',#283,#283,#233,.T.);
#356=EDGE_CURVE('',#280,#277,#162,.T.);
#357=EDGE_CURVE('',#283,#278,#163,.T.);
#358=ORIENTED_EDGE('',*,*,#284,.F.);
#359=ORIENTED_EDGE('',*,*,#285,.T.);
#360=ORIENTED_EDGE('',*,*,#286,.F.);
#361=ORIENTED_EDGE('',*,*,#285,.F.);
#362=ORIENTED_EDGE('',*,*,#287,.F.);
#363=ORIENTED_EDGE('',*,*,#284,.T.);
#364=ORIENTED_EDGE('',*,*,#287,.T.);
#365=ORIENTED_EDGE('',*,*,#288,.T.);
#366=ORIENTED_EDGE('',*,*,#289,.F.);
#367=ORIENTED_EDGE('',*,*,#288,.F.);
#368=ORIENTED_EDGE('',*,*,#289,.T.);
#369=ORIENTED_EDGE('',*,*,#286,.T.);
#370=ORIENTED_EDGE('',*,*,#290,.T.);
#371=ORIENTED_EDGE('',*,*,#291,.T.);
#372=ORIENTED_EDGE('',*,*,#292,.T.);
#373=ORIENTED_EDGE('',*,*,#293,.F.);
#374=ORIENTED_EDGE('',*,*,#294,.F.);
#375=ORIENTED_EDGE('',*,*,#295,.F.);
#376=ORIENTED_EDGE('',*,*,#296,.F.);
#377=ORIENTED_EDGE('',*,*,#297,.T.);
#378=ORIENTED_EDGE('',*,*,#290,.F.);
#379=ORIENTED_EDGE('',*,*,#298,.F.);
#380=ORIENTED_EDGE('',*,*,#299,.F.);
#381=ORIENTED_EDGE('',*,*,#300,.T.);
#382=ORIENTED_EDGE('',*,*,#291,.F.);
#383=ORIENTED_EDGE('',*,*,#297,.F.);
#384=ORIENTED_EDGE('',*,*,#301,.F.);
#385=ORIENTED_EDGE('',*,*,#302,.T.);
#386=ORIENTED_EDGE('',*,*,#292,.F.);
#387=ORIENTED_EDGE('',*,*,#300,.F.);
#388=ORIENTED_EDGE('',*,*,#303,.T.);
#389=ORIENTED_EDGE('',*,*,#304,.T.);
#390=ORIENTED_EDGE('',*,*,#294,.T.);
#391=ORIENTED_EDGE('',*,*,#293,.T.);
#392=ORIENTED_EDGE('',*,*,#302,.F.);
#393=ORIENTED_EDGE('',*,*,#305,.F.);
#394=ORIENTED_EDGE('',*,*,#298,.T.);
#395=ORIENTED_EDGE('',*,*,#295,.T.);
#396=ORIENTED_EDGE('',*,*,#304,.F.);
#397=ORIENTED_EDGE('',*,*,#301,.T.);
#398=ORIENTED_EDGE('',*,*,#299,.T.);
#399=ORIENTED_EDGE('',*,*,#296,.T.);
#400=ORIENTED_EDGE('',*,*,#305,.T.);
#401=ORIENTED_EDGE('',*,*,#306,.T.);
#402=ORIENTED_EDGE('',*,*,#307,.T.);
#403=ORIENTED_EDGE('',*,*,#308,.T.);
#404=ORIENTED_EDGE('',*,*,#309,.T.);
#405=ORIENTED_EDGE('',*,*,#310,.T.);
#406=ORIENTED_EDGE('',*,*,#311,.T.);
#407=ORIENTED_EDGE('',*,*,#312,.T.);
#408=ORIENTED_EDGE('',*,*,#313,.T.);
#409=ORIENTED_EDGE('',*,*,#314,.T.);
#410=ORIENTED_EDGE('',*,*,#315,.T.);
#411=ORIENTED_EDGE('',*,*,#316,.T.);
#412=ORIENTED_EDGE('',*,*,#317,.T.);
#413=ORIENTED_EDGE('',*,*,#318,.T.);
#414=ORIENTED_EDGE('',*,*,#319,.T.);
#415=ORIENTED_EDGE('',*,*,#320,.T.);
#416=ORIENTED_EDGE('',*,*,#318,.F.);
#417=ORIENTED_EDGE('',*,*,#321,.T.);
#418=ORIENTED_EDGE('',*,*,#322,.T.);
#419=ORIENTED_EDGE('',*,*,#321,.F.);
#420=ORIENTED_EDGE('',*,*,#319,.F.);
#421=ORIENTED_EDGE('',*,*,#323,.T.);
#422=ORIENTED_EDGE('',*,*,#324,.T.);
#423=ORIENTED_EDGE('',*,*,#323,.F.);
#424=ORIENTED_EDGE('',*,*,#320,.F.);
#425=ORIENTED_EDGE('',*,*,#325,.T.);
#426=ORIENTED_EDGE('',*,*,#326,.T.);
#427=ORIENTED_EDGE('',*,*,#325,.F.);
#428=ORIENTED_EDGE('',*,*,#327,.F.);
#429=ORIENTED_EDGE('',*,*,#328,.T.);
#430=ORIENTED_EDGE('',*,*,#306,.F.);
#431=ORIENTED_EDGE('',*,*,#303,.F.);
#432=ORIENTED_EDGE('',*,*,#317,.F.);
#433=ORIENTED_EDGE('',*,*,#329,.F.);
#434=ORIENTED_EDGE('',*,*,#330,.F.);
#435=ORIENTED_EDGE('',*,*,#329,.T.);
#436=ORIENTED_EDGE('',*,*,#316,.F.);
#437=ORIENTED_EDGE('',*,*,#331,.F.);
#438=ORIENTED_EDGE('',*,*,#332,.F.);
#439=ORIENTED_EDGE('',*,*,#331,.T.);
#440=ORIENTED_EDGE('',*,*,#315,.F.);
#441=ORIENTED_EDGE('',*,*,#333,.F.);
#442=ORIENTED_EDGE('',*,*,#334,.T.);
#443=ORIENTED_EDGE('',*,*,#333,.T.);
#444=ORIENTED_EDGE('',*,*,#314,.F.);
#445=ORIENTED_EDGE('',*,*,#335,.F.);
#446=ORIENTED_EDGE('',*,*,#336,.T.);
#447=ORIENTED_EDGE('',*,*,#335,.T.);
#448=ORIENTED_EDGE('',*,*,#313,.F.);
#449=ORIENTED_EDGE('',*,*,#337,.F.);
#450=ORIENTED_EDGE('',*,*,#338,.T.);
#451=ORIENTED_EDGE('',*,*,#337,.T.);
#452=ORIENTED_EDGE('',*,*,#312,.F.);
#453=ORIENTED_EDGE('',*,*,#339,.F.);
#454=ORIENTED_EDGE('',*,*,#340,.T.);
#455=ORIENTED_EDGE('',*,*,#339,.T.);
#456=ORIENTED_EDGE('',*,*,#311,.F.);
#457=ORIENTED_EDGE('',*,*,#341,.F.);
#458=ORIENTED_EDGE('',*,*,#342,.T.);
#459=ORIENTED_EDGE('',*,*,#341,.T.);
#460=ORIENTED_EDGE('',*,*,#310,.F.);
#461=ORIENTED_EDGE('',*,*,#343,.F.);
#462=ORIENTED_EDGE('',*,*,#344,.T.);
#463=ORIENTED_EDGE('',*,*,#343,.T.);
#464=ORIENTED_EDGE('',*,*,#309,.F.);
#465=ORIENTED_EDGE('',*,*,#345,.F.);
#466=ORIENTED_EDGE('',*,*,#346,.T.);
#467=ORIENTED_EDGE('',*,*,#345,.T.);
#468=ORIENTED_EDGE('',*,*,#308,.F.);
#469=ORIENTED_EDGE('',*,*,#347,.F.);
#470=ORIENTED_EDGE('',*,*,#348,.T.);
#471=ORIENTED_EDGE('',*,*,#347,.T.);
#472=ORIENTED_EDGE('',*,*,#307,.F.);
#473=ORIENTED_EDGE('',*,*,#328,.F.);
#474=ORIENTED_EDGE('',*,*,#348,.F.);
#475=ORIENTED_EDGE('',*,*,#327,.T.);
#476=ORIENTED_EDGE('',*,*,#330,.T.);
#477=ORIENTED_EDGE('',*,*,#332,.T.);
#478=ORIENTED_EDGE('',*,*,#334,.F.);
#479=ORIENTED_EDGE('',*,*,#336,.F.);
#480=ORIENTED_EDGE('',*,*,#338,.F.);
#481=ORIENTED_EDGE('',*,*,#340,.F.);
#482=ORIENTED_EDGE('',*,*,#342,.F.);
#483=ORIENTED_EDGE('',*,*,#344,.F.);
#484=ORIENTED_EDGE('',*,*,#346,.F.);
#485=ORIENTED_EDGE('',*,*,#326,.F.);
#486=ORIENTED_EDGE('',*,*,#324,.F.);
#487=ORIENTED_EDGE('',*,*,#322,.F.);
#488=ORIENTED_EDGE('',*,*,#349,.F.);
#489=ORIENTED_EDGE('',*,*,#350,.F.);
#490=ORIENTED_EDGE('',*,*,#351,.T.);
#491=ORIENTED_EDGE('',*,*,#352,.T.);
#492=ORIENTED_EDGE('',*,*,#353,.T.);
#493=ORIENTED_EDGE('',*,*,#354,.T.);
#494=ORIENTED_EDGE('',*,*,#355,.T.);
#495=ORIENTED_EDGE('',*,*,#351,.F.);
#496=ORIENTED_EDGE('',*,*,#354,.F.);
#497=ORIENTED_EDGE('',*,*,#353,.F.);
#498=ORIENTED_EDGE('',*,*,#352,.F.);
#499=ORIENTED_EDGE('',*,*,#356,.T.);
#500=ORIENTED_EDGE('',*,*,#349,.T.);
#501=ORIENTED_EDGE('',*,*,#356,.F.);
#502=ORIENTED_EDGE('',*,*,#355,.F.);
#503=ORIENTED_EDGE('',*,*,#357,.T.);
#504=ORIENTED_EDGE('',*,*,#350,.T.);
#505=ORIENTED_EDGE('',*,*,#357,.F.);
#506=CYLINDRICAL_SURFACE('',#562,2.5);
#507=CYLINDRICAL_SURFACE('',#567,6.16225313463296);
#508=CYLINDRICAL_SURFACE('',#584,1.70000000000002);
#509=CYLINDRICAL_SURFACE('',#586,1.70000000000002);
#510=CYLINDRICAL_SURFACE('',#588,1.70000000000002);
#511=CYLINDRICAL_SURFACE('',#590,11.8917701702289);
#512=CYLINDRICAL_SURFACE('',#594,26.7999999999969);
#513=CYLINDRICAL_SURFACE('',#597,26.7999999999999);
#514=CYLINDRICAL_SURFACE('',#614,8.17531952866517);
#515=CYLINDRICAL_SURFACE('',#615,6.16225313463296);
#516=ADVANCED_FACE('',(#53),#506,.F.);
#517=ADVANCED_FACE('',(#54,#28),#38,.T.);
#518=ADVANCED_FACE('',(#55),#507,.T.);
#519=ADVANCED_FACE('',(#56,#29),#39,.F.);
#520=ADVANCED_FACE('',(#57),#40,.F.);
#521=ADVANCED_FACE('',(#58),#17,.T.);
#522=ADVANCED_FACE('',(#59),#18,.T.);
#523=ADVANCED_FACE('',(#60),#19,.T.);
#524=ADVANCED_FACE('',(#61),#20,.T.);
#525=ADVANCED_FACE('',(#62),#21,.T.);
#526=ADVANCED_FACE('',(#63,#30,#31,#32),#41,.T.);
#527=ADVANCED_FACE('',(#64),#508,.F.);
#528=ADVANCED_FACE('',(#65),#509,.F.);
#529=ADVANCED_FACE('',(#66),#510,.F.);
#530=ADVANCED_FACE('',(#67),#511,.F.);
#531=ADVANCED_FACE('',(#68),#42,.T.);
#532=ADVANCED_FACE('',(#69),#43,.T.);
#533=ADVANCED_FACE('',(#70),#512,.T.);
#534=ADVANCED_FACE('',(#71),#44,.T.);
#535=ADVANCED_FACE('',(#72),#513,.T.);
#536=ADVANCED_FACE('',(#73),#45,.T.);
#537=ADVANCED_FACE('',(#74),#46,.T.);
#538=ADVANCED_FACE('',(#75),#47,.T.);
#539=ADVANCED_FACE('',(#76),#48,.T.);
#540=ADVANCED_FACE('',(#77),#49,.T.);
#541=ADVANCED_FACE('',(#78,#33,#34,#35),#50,.F.);
#542=ADVANCED_FACE('',(#79,#36),#51,.F.);
#543=ADVANCED_FACE('',(#80,#37),#52,.T.);
#544=ADVANCED_FACE('',(#81),#514,.T.);
#545=ADVANCED_FACE('',(#82),#515,.F.);
#546=CLOSED_SHELL('',(#516,#517,#518,#519));
#547=CLOSED_SHELL('',(#520,#521,#522,#523,#524,#525,#526,#527,#528,#529,
#530,#531,#532,#533,#534,#535,#536,#537,#538,#539,#540,#541));
#548=CLOSED_SHELL('',(#542,#543,#544,#545));
#549=DERIVED_UNIT_ELEMENT(#551,1.);
#550=DERIVED_UNIT_ELEMENT(#1068,-3.);
#551=(
MASS_UNIT()
NAMED_UNIT(*)
SI_UNIT(.KILO.,.GRAM.)
);
#552=DERIVED_UNIT((#549,#550));
#553=MEASURE_REPRESENTATION_ITEM('density measure',
POSITIVE_RATIO_MEASURE(7850.),#552);
#554=PROPERTY_DEFINITION_REPRESENTATION(#559,#556);
#555=PROPERTY_DEFINITION_REPRESENTATION(#560,#557);
#556=REPRESENTATION('material name',(#558),#1065);
#557=REPRESENTATION('density',(#553),#1065);
#558=DESCRIPTIVE_REPRESENTATION_ITEM('Steel','Steel');
#559=PROPERTY_DEFINITION('material property','material name',#1075);
#560=PROPERTY_DEFINITION('material property','density of part',#1075);
#561=AXIS2_PLACEMENT_3D('',#767,#616,#617);
#562=AXIS2_PLACEMENT_3D('',#768,#618,#619);
#563=AXIS2_PLACEMENT_3D('',#770,#620,#621);
#564=AXIS2_PLACEMENT_3D('',#773,#623,#624);
#565=AXIS2_PLACEMENT_3D('',#774,#625,#626);
#566=AXIS2_PLACEMENT_3D('',#776,#627,#628);
#567=AXIS2_PLACEMENT_3D('',#777,#629,#630);
#568=AXIS2_PLACEMENT_3D('',#780,#632,#633);
#569=AXIS2_PLACEMENT_3D('',#781,#634,#635);
#570=AXIS2_PLACEMENT_3D('',#782,#636,#637);
#571=AXIS2_PLACEMENT_3D('',#787,#639,#640);
#572=AXIS2_PLACEMENT_3D('',#791,#642,#643);
#573=AXIS2_PLACEMENT_3D('',#793,#644,#645);
#574=AXIS2_PLACEMENT_3D('',#794,#646,#647);
#575=AXIS2_PLACEMENT_3D('',#934,#652,#653);
#576=AXIS2_PLACEMENT_3D('',#956,#655,#656);
#577=AXIS2_PLACEMENT_3D('',#958,#657,#658);
#578=AXIS2_PLACEMENT_3D('',#970,#664,#665);
#579=AXIS2_PLACEMENT_3D('',#974,#667,#668);
#580=AXIS2_PLACEMENT_3D('',#979,#671,#672);
#581=AXIS2_PLACEMENT_3D('',#981,#673,#674);
#582=AXIS2_PLACEMENT_3D('',#983,#675,#676);
#583=AXIS2_PLACEMENT_3D('',#985,#677,#678);
#584=AXIS2_PLACEMENT_3D('',#986,#679,#680);
#585=AXIS2_PLACEMENT_3D('',#989,#682,#683);
#586=AXIS2_PLACEMENT_3D('',#990,#684,#685);
#587=AXIS2_PLACEMENT_3D('',#993,#687,#688);
#588=AXIS2_PLACEMENT_3D('',#994,#689,#690);
#589=AXIS2_PLACEMENT_3D('',#997,#692,#693);
#590=AXIS2_PLACEMENT_3D('',#998,#694,#695);
#591=AXIS2_PLACEMENT_3D('',#1001,#696,#697);
#592=AXIS2_PLACEMENT_3D('',#1004,#700,#701);
#593=AXIS2_PLACEMENT_3D('',#1008,#704,#705);
#594=AXIS2_PLACEMENT_3D('',#1012,#708,#709);
#595=AXIS2_PLACEMENT_3D('',#1014,#710,#711);
#596=AXIS2_PLACEMENT_3D('',#1016,#713,#714);
#597=AXIS2_PLACEMENT_3D('',#1020,#717,#718);
#598=AXIS2_PLACEMENT_3D('',#1022,#719,#720);
#599=AXIS2_PLACEMENT_3D('',#1024,#722,#723);
#600=AXIS2_PLACEMENT_3D('',#1028,#726,#727);
#601=AXIS2_PLACEMENT_3D('',#1032,#730,#731);
#602=AXIS2_PLACEMENT_3D('',#1036,#734,#735);
#603=AXIS2_PLACEMENT_3D('',#1040,#738,#739);
#604=AXIS2_PLACEMENT_3D('',#1042,#741,#742);
#605=AXIS2_PLACEMENT_3D('',#1043,#743,#744);
#606=AXIS2_PLACEMENT_3D('',#1045,#745,#746);
#607=AXIS2_PLACEMENT_3D('',#1047,#747,#748);
#608=AXIS2_PLACEMENT_3D('',#1048,#749,#750);
#609=AXIS2_PLACEMENT_3D('',#1051,#751,#752);
#610=AXIS2_PLACEMENT_3D('',#1053,#753,#754);
#611=AXIS2_PLACEMENT_3D('',#1055,#755,#756);
#612=AXIS2_PLACEMENT_3D('',#1056,#757,#758);
#613=AXIS2_PLACEMENT_3D('',#1058,#759,#760);
#614=AXIS2_PLACEMENT_3D('',#1059,#761,#762);
#615=AXIS2_PLACEMENT_3D('',#1061,#764,#765);
#616=DIRECTION('axis',(0.,0.,1.));
#617=DIRECTION('refdir',(1.,0.,0.));
#618=DIRECTION('center_axis',(1.,0.,0.));
#619=DIRECTION('ref_axis',(0.,-1.,0.));
#620=DIRECTION('center_axis',(1.,0.,0.));
#621=DIRECTION('ref_axis',(0.,-1.,0.));
#622=DIRECTION('',(1.,0.,0.));
#623=DIRECTION('center_axis',(-1.,0.,0.));
#624=DIRECTION('ref_axis',(0.,-1.,0.));
#625=DIRECTION('center_axis',(-1.,0.,0.));
#626=DIRECTION('ref_axis',(0.,-1.,0.));
#627=DIRECTION('center_axis',(1.,0.,0.));
#628=DIRECTION('ref_axis',(0.,-1.,0.));
#629=DIRECTION('center_axis',(-1.,0.,0.));
#630=DIRECTION('ref_axis',(0.,-1.,0.));
#631=DIRECTION('',(1.,0.,0.));
#632=DIRECTION('center_axis',(1.,0.,0.));
#633=DIRECTION('ref_axis',(0.,-1.,0.));
#634=DIRECTION('center_axis',(-1.,0.,0.));
#635=DIRECTION('ref_axis',(0.,-1.,0.));
#636=DIRECTION('center_axis',(1.,7.79673384341702E-29,1.18890162962215E-28));
#637=DIRECTION('ref_axis',(1.18890162962215E-28,0.,-1.));
#638=DIRECTION('',(0.,-0.333972107887453,0.942582957173114));
#639=DIRECTION('center_axis',(-1.,0.,0.));
#640=DIRECTION('ref_axis',(0.,-1.,0.));
#641=DIRECTION('',(0.,-1.,-5.57549540751126E-15));
#642=DIRECTION('center_axis',(-1.,0.,0.));
#643=DIRECTION('ref_axis',(0.,-1.,0.));
#644=DIRECTION('center_axis',(-1.,0.,0.));
#645=DIRECTION('ref_axis',(0.,-1.,0.));
#646=DIRECTION('center_axis',(-1.,0.,0.));
#647=DIRECTION('ref_axis',(0.,-1.,0.));
#648=DIRECTION('',(-0.971022100176081,0.216344339762698,-0.10154411663053));
#649=DIRECTION('',(-0.943378893366926,0.328932906586913,-0.0428883027651963));
#650=DIRECTION('',(-0.960113737340003,-0.186868195761765,0.207994924899035));
#651=DIRECTION('',(-0.974349209683223,-0.222400976204712,0.0343718398237452));
#652=DIRECTION('center_axis',(1.,2.44319815097853E-45,1.25584651120619E-74));
#653=DIRECTION('ref_axis',(2.44319815097853E-45,-1.,0.));
#654=DIRECTION('',(-0.969192831505539,0.243761317889122,-0.0352941249960022));
#655=DIRECTION('center_axis',(-1.,9.35933959137928E-13,-7.80310967404013E-14));
#656=DIRECTION('ref_axis',(-9.35933959137928E-13,-1.,0.));
#657=DIRECTION('center_axis',(1.,2.44319815097853E-45,1.25584651120619E-74));
#658=DIRECTION('ref_axis',(2.44319815097853E-45,-1.,0.));
#659=DIRECTION('',(0.,0.,-1.));
#660=DIRECTION('',(0.,-1.,0.));
#661=DIRECTION('',(0.,0.,1.));
#662=DIRECTION('',(-2.21319752472476E-15,0.0807355799369889,0.996735554764772));
#663=DIRECTION('',(-7.80310967748723E-14,-3.68306776777397E-11,1.));
#664=DIRECTION('center_axis',(-1.,5.19373658211936E-16,-4.11802111858612E-16));
#665=DIRECTION('ref_axis',(-6.62819716194126E-16,-0.783582089552422,0.621288265568133));
#666=DIRECTION('',(2.47200283064825E-31,1.,-3.17387075365475E-14));
#667=DIRECTION('center_axis',(-1.,-6.57967625823187E-31,2.01803004080945E-31));
#668=DIRECTION('ref_axis',(-2.50658345432471E-31,0.621288265568749,0.783582089551935));
#669=DIRECTION('',(0.,0.,-1.));
#670=DIRECTION('',(0.,-1.,0.));
#671=DIRECTION('center_axis',(1.,2.44319815097853E-45,1.25584651120619E-74));
#672=DIRECTION('ref_axis',(2.44319815097853E-45,-1.,0.));
#673=DIRECTION('center_axis',(1.,-5.61159354225676E-46,6.62508713952407E-76));
#674=DIRECTION('ref_axis',(-5.61159354225676E-46,-1.,0.));
#675=DIRECTION('center_axis',(1.,-5.61159354225676E-46,6.62508713952407E-76));
#676=DIRECTION('ref_axis',(-5.61159354225676E-46,-1.,0.));
#677=DIRECTION('center_axis',(1.,-5.61159354225676E-46,6.62508713952407E-76));
#678=DIRECTION('ref_axis',(0.,-1.,0.));
#679=DIRECTION('center_axis',(-1.,9.47390314346798E-13,-7.69754630406773E-14));
#680=DIRECTION('ref_axis',(-9.47390314346798E-13,-1.,-7.29258081270976E-26));
#681=DIRECTION('',(1.,-9.47390314346798E-13,7.69754630406773E-14));
#682=DIRECTION('center_axis',(1.,-5.61159354225676E-46,6.62508713952407E-76));
#683=DIRECTION('ref_axis',(-5.61159354225676E-46,-1.,0.));
#684=DIRECTION('center_axis',(-1.,9.47390314346798E-13,-7.69754630406773E-14));
#685=DIRECTION('ref_axis',(-9.47390314346798E-13,-1.,-7.29258081270976E-26));
#686=DIRECTION('',(1.,-9.47390314346798E-13,7.69754630406773E-14));
#687=DIRECTION('center_axis',(1.,-5.61159354225676E-46,6.62508713952407E-76));
#688=DIRECTION('ref_axis',(-5.61159354225676E-46,-1.,0.));
#689=DIRECTION('center_axis',(-1.,9.47390314346798E-13,-7.69754630406773E-14));
#690=DIRECTION('ref_axis',(-9.47390314346798E-13,-1.,-7.29258081270976E-26));
#691=DIRECTION('',(1.,-9.47390314346798E-13,7.69754630406773E-14));
#692=DIRECTION('center_axis',(1.,-5.61159354225676E-46,6.62508713952407E-76));
#693=DIRECTION('ref_axis',(0.,-1.,0.));
#694=DIRECTION('center_axis',(-1.,9.47390314346798E-13,-7.69754630406773E-14));
#695=DIRECTION('ref_axis',(-2.7920725199475E-14,0.0516702706676118,0.998664199382924));
#696=DIRECTION('center_axis',(-1.,-2.44319815097853E-45,-1.25584651120619E-74));
#697=DIRECTION('ref_axis',(2.44319815097853E-45,-1.,0.));
#698=DIRECTION('',(-1.,9.47390314346798E-13,-7.69754630406773E-14));
#699=DIRECTION('',(-1.,9.47390314346798E-13,-7.69754630406773E-14));
#700=DIRECTION('center_axis',(7.69754630406773E-14,0.,-1.));
#701=DIRECTION('ref_axis',(0.,-1.,0.));
#702=DIRECTION('',(0.,1.,0.));
#703=DIRECTION('',(-1.,9.47390314346798E-13,-7.69754630406773E-14));
#704=DIRECTION('center_axis',(9.47390314346798E-13,1.,0.));
#705=DIRECTION('ref_axis',(0.,0.,-1.));
#706=DIRECTION('',(0.,0.,1.));
#707=DIRECTION('',(-1.,9.47390314346798E-13,-7.69754630406773E-14));
#708=DIRECTION('center_axis',(-1.,9.47390314346798E-13,-7.69754630406773E-14));
#709=DIRECTION('ref_axis',(5.28285891043512E-13,0.621288265568749,0.783582089551935));
#710=DIRECTION('center_axis',(-1.,-6.57967625823187E-31,2.01803004080945E-31));
#711=DIRECTION('ref_axis',(-2.50658345432471E-31,0.621288265568749,0.783582089551935));
#712=DIRECTION('',(-1.,9.47390314346798E-13,-7.69754630406773E-14));
#713=DIRECTION('center_axis',(-7.69754630406473E-14,3.17387075365475E-14,
1.));
#714=DIRECTION('ref_axis',(2.47200283064825E-31,1.,-3.17387075365475E-14));
#715=DIRECTION('',(2.47200283064825E-31,1.,-3.17387075365475E-14));
#716=DIRECTION('',(-1.,9.47390314346798E-13,-7.69754630406773E-14));
#717=DIRECTION('center_axis',(-1.,9.47390314346798E-13,-7.69754630406773E-14));
#718=DIRECTION('ref_axis',(-7.90182034061437E-13,-0.783582089552422,0.621288265568133));
#719=DIRECTION('center_axis',(-1.,5.19373658211936E-16,-4.11802111858612E-16));
#720=DIRECTION('ref_axis',(-6.62819716194126E-16,-0.783582089552422,0.621288265568133));
#721=DIRECTION('',(-1.,9.47390314346798E-13,-7.69754630406773E-14));
#722=DIRECTION('center_axis',(-9.47390314343963E-13,-1.,-3.68306776777398E-11));
#723=DIRECTION('ref_axis',(-7.80310967748723E-14,-3.68306776777397E-11,
1.));
#724=DIRECTION('',(-7.80310967748723E-14,-3.68306776777397E-11,1.));
#725=DIRECTION('',(-1.,9.47390314346798E-13,-7.69754630406773E-14));
#726=DIRECTION('center_axis',(-9.50512269198735E-13,-0.996735554764772,
0.0807355799369889));
#727=DIRECTION('ref_axis',(-2.21319752472476E-15,0.0807355799369889,0.996735554764772));
#728=DIRECTION('',(-2.21319752472476E-15,0.0807355799369889,0.996735554764772));
#729=DIRECTION('',(-1.,9.47390314346798E-13,-7.69754630406773E-14));
#730=DIRECTION('center_axis',(-9.47390314346798E-13,-1.,0.));
#731=DIRECTION('ref_axis',(0.,0.,1.));
#732=DIRECTION('',(0.,0.,1.));
#733=DIRECTION('',(-1.,9.47390314346798E-13,-7.69754630406773E-14));
#734=DIRECTION('center_axis',(7.69754630406773E-14,0.,-1.));
#735=DIRECTION('ref_axis',(0.,-1.,0.));
#736=DIRECTION('',(0.,-1.,0.));
#737=DIRECTION('',(-1.,9.47390314346798E-13,-7.69754630406773E-14));
#738=DIRECTION('center_axis',(9.47390314346798E-13,1.,0.));
#739=DIRECTION('ref_axis',(0.,0.,-1.));
#740=DIRECTION('',(0.,0.,-1.));
#741=DIRECTION('center_axis',(-1.,9.35933959137928E-13,-7.80310967404013E-14));
#742=DIRECTION('ref_axis',(-9.35933959137928E-13,-1.,0.));
#743=DIRECTION('center_axis',(-1.,0.,0.));
#744=DIRECTION('ref_axis',(0.,-1.,0.));
#745=DIRECTION('center_axis',(-1.,0.,0.));
#746=DIRECTION('ref_axis',(0.,-1.,0.));
#747=DIRECTION('center_axis',(1.,0.,0.));
#748=DIRECTION('ref_axis',(0.,-1.,0.));
#749=DIRECTION('center_axis',(-1.,0.,0.));
#750=DIRECTION('ref_axis',(0.,-1.,0.));
#751=DIRECTION('center_axis',(-1.,0.,0.));
#752=DIRECTION('ref_axis',(0.,-1.,0.));
#753=DIRECTION('center_axis',(-1.,0.,0.));
#754=DIRECTION('ref_axis',(0.,-1.,0.));
#755=DIRECTION('center_axis',(-1.,0.,0.));
#756=DIRECTION('ref_axis',(0.,-1.,0.));
#757=DIRECTION('center_axis',(-1.,0.,0.));
#758=DIRECTION('ref_axis',(0.,-1.,0.));
#759=DIRECTION('center_axis',(1.,0.,0.));
#760=DIRECTION('ref_axis',(0.,-1.,0.));
#761=DIRECTION('center_axis',(-1.,0.,0.));
#762=DIRECTION('ref_axis',(0.,-1.,0.));
#763=DIRECTION('',(1.,0.,0.));
#764=DIRECTION('center_axis',(-1.,0.,0.));
#765=DIRECTION('ref_axis',(0.,-1.,0.));
#766=DIRECTION('',(1.,0.,0.));
#767=CARTESIAN_POINT('',(0.,0.,0.));
#768=CARTESIAN_POINT('Origin',(135.831314583464,428.806304923661,42.1863650705981));
#769=CARTESIAN_POINT('',(135.831314583464,431.306304923661,42.1863650705981));
#770=CARTESIAN_POINT('Origin',(135.831314583464,428.806304923661,42.1863650705981));
#771=CARTESIAN_POINT('',(137.831314583464,431.306304923661,42.1863650705981));
#772=CARTESIAN_POINT('',(135.831314583464,431.306304923661,42.1863650705981));
#773=CARTESIAN_POINT('Origin',(137.831314583464,428.806304923661,42.1863650705981));
#774=CARTESIAN_POINT('Origin',(135.831314583464,428.806304923661,42.1863650705981));
#775=CARTESIAN_POINT('',(135.831314583464,434.968558058294,42.1863650705981));
#776=CARTESIAN_POINT('Origin',(135.831314583464,428.806304923661,42.1863650705981));
#777=CARTESIAN_POINT('Origin',(137.831314583464,428.806304923661,42.1863650705981));
#778=CARTESIAN_POINT('',(137.831314583464,434.968558058294,42.1863650705981));
#779=CARTESIAN_POINT('',(137.831314583464,434.968558058294,42.1863650705981));
#780=CARTESIAN_POINT('Origin',(137.831314583464,428.806304923661,42.1863650705981));
#781=CARTESIAN_POINT('Origin',(137.831314583464,428.806304923661,42.1863650705981));
#782=CARTESIAN_POINT('Origin',(137.831314583464,430.593886385598,47.5538160117246));
#783=CARTESIAN_POINT('',(137.831314583464,421.391919748865,45.6305982037546));
#784=CARTESIAN_POINT('',(137.831314583464,420.695618550367,47.5957971747542));
#785=CARTESIAN_POINT('',(137.831314583464,420.695618550367,47.5957971747542));
#786=CARTESIAN_POINT('',(137.831314583464,438.456942367177,40.8041979066038));
#787=CARTESIAN_POINT('Origin',(137.831314583464,428.806304923661,42.1863650705981));
#788=CARTESIAN_POINT('',(137.831314583464,436.863938777749,40.8041979066038));
#789=CARTESIAN_POINT('',(137.831314583464,438.456942367177,40.8041979066038));
#790=CARTESIAN_POINT('',(137.831314583464,436.981624452326,42.1863650705981));
#791=CARTESIAN_POINT('Origin',(137.831314583464,428.806304923661,42.1863650705981));
#792=CARTESIAN_POINT('',(137.831314583464,422.393491866791,47.2570334775654));
#793=CARTESIAN_POINT('Origin',(137.831314583464,428.806304923661,42.1863650705981));
#794=CARTESIAN_POINT('Origin',(137.831314583464,428.806304923661,42.1863650705981));
#795=CARTESIAN_POINT('Ctrl Pts',(153.923740399272,415.780888555729,46.3621990859321));
#796=CARTESIAN_POINT('Ctrl Pts',(148.559598460669,417.651232286774,46.1183321252063));
#797=CARTESIAN_POINT('Ctrl Pts',(143.195456522067,419.521576017819,45.8744651644804));
#798=CARTESIAN_POINT('Ctrl Pts',(137.831314583464,421.391919748865,45.6305982037546));
#799=CARTESIAN_POINT('Ctrl Pts',(153.923740399272,416.107799610855,47.3819121762205));
#800=CARTESIAN_POINT('Ctrl Pts',(148.559598460669,417.791844090329,47.0164798597317));
#801=CARTESIAN_POINT('Ctrl Pts',(143.195456522067,419.475774869892,46.6510968439099));
#802=CARTESIAN_POINT('Ctrl Pts',(137.831314583464,421.159819349366,46.2856645274211));
#803=CARTESIAN_POINT('Ctrl Pts',(153.923740399272,416.554986031635,48.3630091684871));
#804=CARTESIAN_POINT('Ctrl Pts',(148.559598460669,418.012600935976,47.8888985692301));
#805=CARTESIAN_POINT('Ctrl Pts',(143.195456522067,419.470104045526,47.4148414503447));
#806=CARTESIAN_POINT('Ctrl Pts',(137.831314583464,420.927718949866,46.9407308510877));
#807=CARTESIAN_POINT('Ctrl Pts',(153.923740399272,417.110215872437,49.2786539950184));
#808=CARTESIAN_POINT('Ctrl Pts',(148.559598460669,418.305350098413,48.717701721597));
#809=CARTESIAN_POINT('Ctrl Pts',(143.195456522067,419.50048432439,48.1567494481756));
#810=CARTESIAN_POINT('Ctrl Pts',(137.831314583464,420.695618550367,47.5957971747542));
#811=CARTESIAN_POINT('',(153.923740399272,417.110215872437,49.2786539950184));
#812=CARTESIAN_POINT('',(153.923740399272,415.780888555729,46.3621990859321));
#813=CARTESIAN_POINT('Ctrl Pts',(153.923740399272,417.110215872437,49.2786539950184));
#814=CARTESIAN_POINT('Ctrl Pts',(153.923740399272,416.554986031635,48.3630091684871));
#815=CARTESIAN_POINT('Ctrl Pts',(153.923740399272,416.107799610855,47.3819121762205));
#816=CARTESIAN_POINT('Ctrl Pts',(153.923740399272,415.780888555729,46.3621990859321));
#817=CARTESIAN_POINT('',(153.923740399272,417.110215872437,49.2786539950184));
#818=CARTESIAN_POINT('',(153.923740399272,415.780888555729,46.3621990859321));
#819=CARTESIAN_POINT('Ctrl Pts',(153.923740399272,417.110215872437,49.2786539950184));
#820=CARTESIAN_POINT('Ctrl Pts',(148.559598460669,418.305350098413,48.717701721597));
#821=CARTESIAN_POINT('Ctrl Pts',(143.195456522067,419.50048432439,48.1567494481756));
#822=CARTESIAN_POINT('Ctrl Pts',(137.831314583464,420.695618550367,47.5957971747542));
#823=CARTESIAN_POINT('Ctrl Pts',(153.923740399272,418.110021885502,50.9274616348911));
#824=CARTESIAN_POINT('Ctrl Pts',(148.559598460669,419.20362843401,50.1638432016429));
#825=CARTESIAN_POINT('Ctrl Pts',(143.195456522067,420.296388862518,49.4005365303522));
#826=CARTESIAN_POINT('Ctrl Pts',(137.831314583464,421.389995411025,48.636918097104));
#827=CARTESIAN_POINT('Ctrl Pts',(153.923740399272,420.816776250802,53.7946004319933));
#828=CARTESIAN_POINT('Ctrl Pts',(148.559598460669,421.605906479615,52.6789044404099));
#829=CARTESIAN_POINT('Ctrl Pts',(143.195456522067,422.39523991862,51.5635314531353));
#830=CARTESIAN_POINT('Ctrl Pts',(137.831314583464,423.184370147433,50.447835461552));
#831=CARTESIAN_POINT('Ctrl Pts',(153.923740399272,426.284846768568,56.0535515364919));
#832=CARTESIAN_POINT('Ctrl Pts',(148.559598460669,426.423081594372,54.687933204574));
#833=CARTESIAN_POINT('Ctrl Pts',(143.195456522067,426.561165053944,53.3215381214319));
#834=CARTESIAN_POINT('Ctrl Pts',(137.831314583464,426.699399879748,51.955919789514));
#835=CARTESIAN_POINT('Ctrl Pts',(153.923740399272,432.19718283922,55.8638582800147));
#836=CARTESIAN_POINT('Ctrl Pts',(148.559598460669,431.639000377111,54.5858828201432));
#837=CARTESIAN_POINT('Ctrl Pts',(143.195456522067,431.081311933233,53.3084324490296));
#838=CARTESIAN_POINT('Ctrl Pts',(137.831314583464,430.523129471124,52.0304569891581));
#839=CARTESIAN_POINT('Ctrl Pts',(153.923740399272,437.513472206589,53.2694165684285));
#840=CARTESIAN_POINT('Ctrl Pts',(148.559598460669,436.37443279179,52.4017584107398));
#841=CARTESIAN_POINT('Ctrl Pts',(143.195456522067,435.234970896792,51.5334440087575));
#842=CARTESIAN_POINT('Ctrl Pts',(137.831314583464,434.095931481993,50.6657858510688));
#843=CARTESIAN_POINT('Ctrl Pts',(153.923740399272,441.292404562378,48.7178215601131));
#844=CARTESIAN_POINT('Ctrl Pts',(148.559598460669,439.825460761346,48.4974660869418));
#845=CARTESIAN_POINT('Ctrl Pts',(143.195456522067,438.359562686533,48.2771748115557));
#846=CARTESIAN_POINT('Ctrl Pts',(137.831314583464,436.892618885501,48.0568193383844));
#847=CARTESIAN_POINT('Ctrl Pts',(153.923740399272,442.875112398226,43.0182960785161));
#848=CARTESIAN_POINT('Ctrl Pts',(148.559598460669,441.41915804197,43.542178718394));
#849=CARTESIAN_POINT('Ctrl Pts',(143.195456522067,439.962594373782,44.065826517821));
#850=CARTESIAN_POINT('Ctrl Pts',(137.831314583464,438.506640017526,44.5897091576989));
#851=CARTESIAN_POINT('Ctrl Pts',(153.923740399272,442.275329350282,39.1199957233179));
#852=CARTESIAN_POINT('Ctrl Pts',(148.559598460669,441.061430776236,40.0945012528396));
#853=CARTESIAN_POINT('Ctrl Pts',(143.195456522067,439.848261579426,41.0684877260848));
#854=CARTESIAN_POINT('Ctrl Pts',(137.831314583464,438.63436300538,42.0429932556065));
#855=CARTESIAN_POINT('Ctrl Pts',(153.923740399272,441.589032306814,37.3180037518617));
#856=CARTESIAN_POINT('Ctrl Pts',(148.559598460669,440.545002326935,38.4800684701091));
#857=CARTESIAN_POINT('Ctrl Pts',(143.195456522067,439.500972347056,39.6421331883564));
#858=CARTESIAN_POINT('Ctrl Pts',(137.831314583464,438.456942367177,40.8041979066038));
#859=CARTESIAN_POINT('',(153.923740399272,441.589032306814,37.3180037518617));
#860=CARTESIAN_POINT('Ctrl Pts',(153.923740399272,441.589032306814,37.3180037518617));
#861=CARTESIAN_POINT('Ctrl Pts',(153.923740399272,442.275329350282,39.1199957233179));
#862=CARTESIAN_POINT('Ctrl Pts',(153.923740399272,442.875112398226,43.0182960785161));
#863=CARTESIAN_POINT('Ctrl Pts',(153.923740399272,441.292404562378,48.7178215601131));
#864=CARTESIAN_POINT('Ctrl Pts',(153.923740399272,437.513472206589,53.2694165684285));
#865=CARTESIAN_POINT('Ctrl Pts',(153.923740399272,432.19718283922,55.8638582800147));
#866=CARTESIAN_POINT('Ctrl Pts',(153.923740399272,426.284846768568,56.0535515364919));
#867=CARTESIAN_POINT('Ctrl Pts',(153.923740399272,420.816776250802,53.7946004319933));
#868=CARTESIAN_POINT('Ctrl Pts',(153.923740399272,418.110021885502,50.9274616348911));
#869=CARTESIAN_POINT('Ctrl Pts',(153.923740399272,417.110215872437,49.2786539950184));
#870=CARTESIAN_POINT('',(153.923740399272,441.589032306814,37.3180037518617));
#871=CARTESIAN_POINT('Ctrl Pts',(153.923740399272,441.589032306814,37.3180037518617));
#872=CARTESIAN_POINT('Ctrl Pts',(148.559598460669,440.545002326935,38.4800684701091));
#873=CARTESIAN_POINT('Ctrl Pts',(143.195456522067,439.500972347056,39.6421331883564));
#874=CARTESIAN_POINT('Ctrl Pts',(137.831314583464,438.456942367177,40.8041979066038));
#875=CARTESIAN_POINT('Ctrl Pts',(153.923740399272,441.23839828888,38.290839161281));
#876=CARTESIAN_POINT('Ctrl Pts',(148.559598460669,440.134245916154,39.128625409722));
#877=CARTESIAN_POINT('Ctrl Pts',(143.195456522067,439.030093543427,39.9664116581629));
#878=CARTESIAN_POINT('Ctrl Pts',(137.831314583464,437.925941170701,40.8041979066038));
#879=CARTESIAN_POINT('Ctrl Pts',(153.923740399272,440.887764270946,39.2636745707004));
#880=CARTESIAN_POINT('Ctrl Pts',(148.559598460669,439.723489505373,39.7771823493349));
#881=CARTESIAN_POINT('Ctrl Pts',(143.195456522067,438.559214739799,40.2906901279693));
#882=CARTESIAN_POINT('Ctrl Pts',(137.831314583464,437.394939974225,40.8041979066038));
#883=CARTESIAN_POINT('Ctrl Pts',(153.923740399272,440.537130253012,40.2365099801197));
#884=CARTESIAN_POINT('Ctrl Pts',(148.559598460669,439.312733094592,40.4257392889477));
#885=CARTESIAN_POINT('Ctrl Pts',(143.195456522067,438.08833593617,40.6149685977758));
#886=CARTESIAN_POINT('Ctrl Pts',(137.831314583464,436.863938777749,40.8041979066038));
#887=CARTESIAN_POINT('',(153.923740399272,440.537130253012,40.2365099801197));
#888=CARTESIAN_POINT('Ctrl Pts',(153.923740399272,440.537130253012,40.2365099801197));
#889=CARTESIAN_POINT('Ctrl Pts',(153.923740399272,440.887764270946,39.2636745707004));
#890=CARTESIAN_POINT('Ctrl Pts',(153.923740399272,441.23839828888,38.290839161281));
#891=CARTESIAN_POINT('Ctrl Pts',(153.923740399272,441.589032306814,37.3180037518617));
#892=CARTESIAN_POINT('',(153.923740399272,440.537130253012,40.2365099801197));
#893=CARTESIAN_POINT('Ctrl Pts',(153.923740399272,440.537130253012,40.2365099801197));
#894=CARTESIAN_POINT('Ctrl Pts',(148.559598460669,439.312733094591,40.4257392889477));
#895=CARTESIAN_POINT('Ctrl Pts',(143.195456522067,438.08833593617,40.6149685977758));
#896=CARTESIAN_POINT('Ctrl Pts',(137.831314583464,436.863938777749,40.8041979066038));
#897=CARTESIAN_POINT('Ctrl Pts',(153.923740399272,440.79809189401,41.8065217431254));
#898=CARTESIAN_POINT('Ctrl Pts',(148.559598460669,439.544549228778,41.8103228273262));
#899=CARTESIAN_POINT('Ctrl Pts',(143.195456522067,438.291399176501,41.814286787331));
#900=CARTESIAN_POINT('Ctrl Pts',(137.831314583464,437.037856511268,41.8180878715318));
#901=CARTESIAN_POINT('Ctrl Pts',(153.923740399272,440.681005549621,45.0509701504099));
#902=CARTESIAN_POINT('Ctrl Pts',(148.559598460669,439.45336256322,44.6711006884608));
#903=CARTESIAN_POINT('Ctrl Pts',(143.195456522067,438.225906395067,44.2912391284957));
#904=CARTESIAN_POINT('Ctrl Pts',(137.831314583464,436.998263408667,43.9113696665465));
#905=CARTESIAN_POINT('Ctrl Pts',(153.923740399272,438.617539238574,49.4670758613756));
#906=CARTESIAN_POINT('Ctrl Pts',(148.559598460669,437.673838863607,48.5817844539916));
#907=CARTESIAN_POINT('Ctrl Pts',(143.195456522067,436.729775838802,47.6963896209732));
#908=CARTESIAN_POINT('Ctrl Pts',(137.831314583464,435.786075463834,46.8110982135891));
#909=CARTESIAN_POINT('Ctrl Pts',(153.923740399272,434.992760646022,52.715831289971));
#910=CARTESIAN_POINT('Ctrl Pts',(148.559598460669,434.525225701542,51.4951034437466));
#911=CARTESIAN_POINT('Ctrl Pts',(143.195456522067,434.057609707931,50.2752969543802));
#912=CARTESIAN_POINT('Ctrl Pts',(137.831314583464,433.59007476345,49.0545691081557));
#913=CARTESIAN_POINT('Ctrl Pts',(153.923740399272,429.613841537503,54.5718193530159));
#914=CARTESIAN_POINT('Ctrl Pts',(148.559598460669,429.823308163423,53.2330066399436));
#915=CARTESIAN_POINT('Ctrl Pts',(143.195456522067,430.032861430096,51.8931824101303));
#916=CARTESIAN_POINT('Ctrl Pts',(137.831314583464,430.242328056016,50.5543696970581));
#917=CARTESIAN_POINT('Ctrl Pts',(153.923740399272,424.697393821953,53.7193538149366));
#918=CARTESIAN_POINT('Ctrl Pts',(148.559598460669,425.477738585177,52.6077970997578));
#919=CARTESIAN_POINT('Ctrl Pts',(143.195456522067,426.2572880976,51.4977732674339));
#920=CARTESIAN_POINT('Ctrl Pts',(137.831314583464,427.037632860824,50.386216552255));
#921=CARTESIAN_POINT('Ctrl Pts',(153.923740399272,420.667647218368,51.1053731406577));
#922=CARTESIAN_POINT('Ctrl Pts',(148.559598460669,421.85170427686,50.4332294078386));
#923=CARTESIAN_POINT('Ctrl Pts',(143.195456522067,423.036130181582,49.7601322856669));
#924=CARTESIAN_POINT('Ctrl Pts',(137.831314583464,424.220187240074,49.0879885528479));
#925=CARTESIAN_POINT('Ctrl Pts',(153.923740399272,419.103163220439,49.2430127720726));
#926=CARTESIAN_POINT('Ctrl Pts',(148.559598460669,420.413211626089,48.8491152892122));
#927=CARTESIAN_POINT('Ctrl Pts',(143.195456522067,421.721484343415,48.4578535537155));
#928=CARTESIAN_POINT('Ctrl Pts',(137.831314583464,423.031532749065,48.063956070855));
#929=CARTESIAN_POINT('Ctrl Pts',(153.923740399272,418.346092012625,47.843055236878));
#930=CARTESIAN_POINT('Ctrl Pts',(148.559598460669,419.695225297348,47.6477146504404));
#931=CARTESIAN_POINT('Ctrl Pts',(143.195456522067,421.044358582069,47.4523740640029));
#932=CARTESIAN_POINT('Ctrl Pts',(137.831314583464,422.393491866791,47.2570334775654));
#933=CARTESIAN_POINT('',(153.923740399272,418.346092012625,47.843055236878));
#934=CARTESIAN_POINT('Origin',(153.923740399649,428.806304923664,42.1863650705979));
#935=CARTESIAN_POINT('',(153.923740399272,418.346092012625,47.843055236878));
#936=CARTESIAN_POINT('Ctrl Pts',(153.923740399272,418.346092012625,47.843055236878));
#937=CARTESIAN_POINT('Ctrl Pts',(148.559598460669,419.695225297347,47.6477146504404));
#938=CARTESIAN_POINT('Ctrl Pts',(143.195456522067,421.044358582069,47.4523740640029));
#939=CARTESIAN_POINT('Ctrl Pts',(137.831314583464,422.393491866791,47.2570334775654));
#940=CARTESIAN_POINT('Ctrl Pts',(153.923740399272,417.49102419366,47.349436519896));
#941=CARTESIAN_POINT('Ctrl Pts',(148.559598460669,418.993223257586,47.1517904555846));
#942=CARTESIAN_POINT('Ctrl Pts',(143.195456522067,420.495483940582,46.9541048569721));
#943=CARTESIAN_POINT('Ctrl Pts',(137.831314583464,421.997683004508,46.7564587926606));
#944=CARTESIAN_POINT('Ctrl Pts',(153.923740399272,416.635956374694,46.855817802914));
#945=CARTESIAN_POINT('Ctrl Pts',(148.559598460669,418.31087373175,46.6403423201131));
#946=CARTESIAN_POINT('Ctrl Pts',(143.195456522067,419.985854126621,46.424829606886));
#947=CARTESIAN_POINT('Ctrl Pts',(137.831314583464,421.660771483677,46.2093541240851));
#948=CARTESIAN_POINT('Ctrl Pts',(153.923740399272,415.780888555729,46.3621990859321));
#949=CARTESIAN_POINT('Ctrl Pts',(148.559598460669,417.651232286774,46.1183321252062));
#950=CARTESIAN_POINT('Ctrl Pts',(143.195456522067,419.521576017819,45.8744651644804));
#951=CARTESIAN_POINT('Ctrl Pts',(137.831314583464,421.391919748865,45.6305982037546));
#952=CARTESIAN_POINT('Ctrl Pts',(153.923740399272,415.780888555729,46.3621990859321));
#953=CARTESIAN_POINT('Ctrl Pts',(153.923740399272,416.635956374694,46.855817802914));
#954=CARTESIAN_POINT('Ctrl Pts',(153.923740399272,417.49102419366,47.349436519896));
#955=CARTESIAN_POINT('Ctrl Pts',(153.923740399272,418.346092012625,47.843055236878));
#956=CARTESIAN_POINT('Origin',(153.92374039967,428.695662551366,43.5295271731356));
#957=CARTESIAN_POINT('',(153.923740399649,420.422196484174,33.7530428630443));
#958=CARTESIAN_POINT('Origin',(153.923740399649,428.806304923664,42.1863650705979));
#959=CARTESIAN_POINT('',(153.923740399649,420.422196484174,23.8726892756829));
#960=CARTESIAN_POINT('',(153.923740399649,420.422196484174,41.9929362687465));
#961=CARTESIAN_POINT('',(153.923740399649,407.781425378234,23.8726892756829));
#962=CARTESIAN_POINT('',(153.923740399649,420.422196484174,23.8726892756829));
#963=CARTESIAN_POINT('',(153.923740399649,407.781425378234,58.3020884072526));
#964=CARTESIAN_POINT('',(153.923740399649,407.781425378234,23.8726892756829));
#965=CARTESIAN_POINT('',(153.923740399649,407.806304923668,58.6092432891417));
#966=CARTESIAN_POINT('',(153.923740399649,407.158304923659,50.6092432891417));
#967=CARTESIAN_POINT('',(153.923740399649,407.806304923659,58.8368905878238));
#968=CARTESIAN_POINT('',(153.923740399649,407.806304923668,58.6092432891417));
#969=CARTESIAN_POINT('',(153.923740399649,412.15577940642,63.1863650705883));
#970=CARTESIAN_POINT('Origin',(153.923740399649,428.806304923664,42.1863650705979));
#971=CARTESIAN_POINT('',(153.923740399649,445.456830440905,63.1863650705873));
#972=CARTESIAN_POINT('',(153.923740399649,412.15577940642,63.1863650705883));
#973=CARTESIAN_POINT('',(153.923740399649,449.609899724498,59.0816438005435));
#974=CARTESIAN_POINT('Origin',(153.923740399649,428.806304923664,42.1863650705979));
#975=CARTESIAN_POINT('',(153.923740399649,449.609899724498,32.9328127722147));
#976=CARTESIAN_POINT('',(153.923740399649,449.609899724498,41.9929362687465));
#977=CARTESIAN_POINT('',(153.923740399649,436.275305368344,32.9328127722147));
#978=CARTESIAN_POINT('',(153.923740399649,420.422196484174,32.9328127722147));
#979=CARTESIAN_POINT('Origin',(153.923740399649,428.806304923664,42.1863650705979));
#980=CARTESIAN_POINT('',(153.923740399649,415.006304923664,26.6863650705984));
#981=CARTESIAN_POINT('Origin',(153.923740399649,413.306304923664,26.6863650705984));
#982=CARTESIAN_POINT('',(153.923740399649,415.006304923665,57.6863650705983));
#983=CARTESIAN_POINT('Origin',(153.923740399649,413.306304923665,57.6863650705983));
#984=CARTESIAN_POINT('',(153.923740399649,446.006304923664,57.6863650705973));
#985=CARTESIAN_POINT('Origin',(153.923740399649,444.306304923664,57.6863650705973));
#986=CARTESIAN_POINT('Origin',(156.923740399649,413.306304923661,26.6863650705987));
#987=CARTESIAN_POINT('',(156.923740399649,415.006304923661,26.6863650705987));
#988=CARTESIAN_POINT('',(156.923740399651,415.006304923661,26.6863650705987));
#989=CARTESIAN_POINT('Origin',(156.923740399649,413.306304923661,26.6863650705987));
#990=CARTESIAN_POINT('Origin',(156.923740399649,413.306304923662,57.6863650705985));
#991=CARTESIAN_POINT('',(156.923740399649,415.006304923662,57.6863650705985));
#992=CARTESIAN_POINT('',(156.923740399651,415.006304923662,57.6863650705985));
#993=CARTESIAN_POINT('Origin',(156.923740399649,413.306304923662,57.6863650705985));
#994=CARTESIAN_POINT('Origin',(156.923740399649,444.306304923662,57.6863650705975));
#995=CARTESIAN_POINT('',(156.923740399649,446.006304923662,57.6863650705975));
#996=CARTESIAN_POINT('',(156.923740399651,446.006304923662,57.6863650705975));
#997=CARTESIAN_POINT('Origin',(156.923740399649,444.306304923662,57.6863650705975));
#998=CARTESIAN_POINT('Origin',(156.923740399649,428.806304923661,42.1863650705981));
#999=CARTESIAN_POINT('',(156.923740399649,420.422196484171,33.7530428630446));
#1000=CARTESIAN_POINT('',(156.923740399649,436.275305368341,32.9328127722149));
#1001=CARTESIAN_POINT('Origin',(156.923740399649,428.806304923661,42.1863650705981));
#1002=CARTESIAN_POINT('',(156.923740399649,420.422196484171,33.7530428630446));
#1003=CARTESIAN_POINT('',(156.923740399649,436.275305368341,32.9328127722149));
#1004=CARTESIAN_POINT('Origin',(156.923740399649,449.609899724495,32.9328127722149));
#1005=CARTESIAN_POINT('',(156.923740399649,449.609899724495,32.9328127722149));
#1006=CARTESIAN_POINT('',(156.923740399649,420.422196484171,32.9328127722149));
#1007=CARTESIAN_POINT('',(156.923740399649,449.609899724495,32.9328127722149));
#1008=CARTESIAN_POINT('Origin',(156.923740399649,449.609899724495,59.0816438005437));
#1009=CARTESIAN_POINT('',(156.923740399649,449.609899724495,59.0816438005437));
#1010=CARTESIAN_POINT('',(156.923740399649,449.609899724495,41.9929362687467));
#1011=CARTESIAN_POINT('',(156.923740399649,449.609899724495,59.0816438005437));
#1012=CARTESIAN_POINT('Origin',(156.923740399649,428.806304923661,42.1863650705981));
#1013=CARTESIAN_POINT('',(156.923740399649,445.456830440902,63.1863650705875));
#1014=CARTESIAN_POINT('Origin',(156.923740399649,428.806304923661,42.1863650705981));
#1015=CARTESIAN_POINT('',(156.923740399649,445.456830440902,63.1863650705875));
#1016=CARTESIAN_POINT('Origin',(156.923740399649,412.155779406417,63.1863650705886));
#1017=CARTESIAN_POINT('',(156.923740399649,412.155779406417,63.1863650705886));
#1018=CARTESIAN_POINT('',(156.923740399649,412.155779406417,63.1863650705886));
#1019=CARTESIAN_POINT('',(156.923740399649,412.155779406417,63.1863650705886));
#1020=CARTESIAN_POINT('Origin',(156.923740399649,428.806304923661,42.1863650705981));
#1021=CARTESIAN_POINT('',(156.923740399649,407.806304923656,58.836890587824));
#1022=CARTESIAN_POINT('Origin',(156.923740399649,428.806304923661,42.1863650705981));
#1023=CARTESIAN_POINT('',(156.923740399649,407.806304923656,58.836890587824));
#1024=CARTESIAN_POINT('Origin',(156.923740399649,407.806304923665,58.6092432891419));
#1025=CARTESIAN_POINT('',(156.923740399649,407.806304923665,58.6092432891419));
#1026=CARTESIAN_POINT('',(156.923740399649,407.806304923665,58.6092432891419));
#1027=CARTESIAN_POINT('',(156.923740399649,407.806304923665,58.6092432891419));
#1028=CARTESIAN_POINT('Origin',(156.923740399649,407.781425378231,58.3020884072528));
#1029=CARTESIAN_POINT('',(156.923740399649,407.781425378231,58.3020884072528));
#1030=CARTESIAN_POINT('',(156.923740399649,407.158304923656,50.6092432891419));
#1031=CARTESIAN_POINT('',(156.923740399649,407.781425378231,58.3020884072528));
#1032=CARTESIAN_POINT('Origin',(156.923740399649,407.781425378231,23.8726892756831));
#1033=CARTESIAN_POINT('',(156.923740399649,407.781425378231,23.8726892756831));
#1034=CARTESIAN_POINT('',(156.923740399649,407.781425378231,23.8726892756831));
#1035=CARTESIAN_POINT('',(156.923740399649,407.781425378231,23.8726892756831));
#1036=CARTESIAN_POINT('Origin',(156.923740399649,420.422196484171,23.8726892756831));
#1037=CARTESIAN_POINT('',(156.923740399649,420.422196484171,23.8726892756831));
#1038=CARTESIAN_POINT('',(156.923740399649,420.422196484171,23.8726892756831));
#1039=CARTESIAN_POINT('',(156.923740399649,420.422196484171,23.8726892756831));
#1040=CARTESIAN_POINT('Origin',(156.923740399649,420.422196484171,33.7530428630446));
#1041=CARTESIAN_POINT('',(156.923740399649,420.422196484171,41.9929362687467));
#1042=CARTESIAN_POINT('Origin',(156.92374039967,428.695662551363,43.5295271731358));
#1043=CARTESIAN_POINT('Origin',(140.831314583464,428.806304923661,42.1863650705981));
#1044=CARTESIAN_POINT('',(140.831314583464,436.981624452326,42.1863650705981));
#1045=CARTESIAN_POINT('Origin',(140.831314583464,428.806304923661,42.1863650705981));
#1046=CARTESIAN_POINT('',(140.831314583464,434.968558058294,42.1863650705981));
#1047=CARTESIAN_POINT('Origin',(140.831314583464,428.806304923661,42.1863650705981));
#1048=CARTESIAN_POINT('Origin',(137.831314583464,428.806304923661,42.1863650705981));
#1049=CARTESIAN_POINT('',(137.831314583464,422.393491866791,47.2570334775654));
#1050=CARTESIAN_POINT('',(137.831314583464,436.981624452326,42.1863650705981));
#1051=CARTESIAN_POINT('Origin',(137.831314583464,428.806304923661,42.1863650705981));
#1052=CARTESIAN_POINT('',(137.831314583464,436.863938777749,40.8041979066038));
#1053=CARTESIAN_POINT('Origin',(137.831314583464,428.806304923661,42.1863650705981));
#1054=CARTESIAN_POINT('',(137.831314583464,421.391919748865,45.6305982037546));
#1055=CARTESIAN_POINT('Origin',(137.831314583464,428.806304923661,42.1863650705981));
#1056=CARTESIAN_POINT('Origin',(137.831314583464,428.806304923661,42.1863650705981));
#1057=CARTESIAN_POINT('',(137.831314583464,434.968558058294,42.1863650705981));
#1058=CARTESIAN_POINT('Origin',(137.831314583464,428.806304923661,42.1863650705981));
#1059=CARTESIAN_POINT('Origin',(140.831314583464,428.806304923661,42.1863650705981));
#1060=CARTESIAN_POINT('',(140.831314583464,436.981624452326,42.1863650705981));
#1061=CARTESIAN_POINT('Origin',(140.831314583464,428.806304923661,42.1863650705981));
#1062=CARTESIAN_POINT('',(140.831314583464,434.968558058294,42.1863650705981));
#1063=UNCERTAINTY_MEASURE_WITH_UNIT(LENGTH_MEASURE(0.01),#1067,
'DISTANCE_ACCURACY_VALUE',
'Maximum model space distance between geometric entities at asserted c
onnectivities');
#1064=UNCERTAINTY_MEASURE_WITH_UNIT(LENGTH_MEASURE(0.01),#1067,
'DISTANCE_ACCURACY_VALUE',
'Maximum model space distance between geometric entities at asserted c
onnectivities');
#1065=(
GEOMETRIC_REPRESENTATION_CONTEXT(3)
GLOBAL_UNCERTAINTY_ASSIGNED_CONTEXT((#1063))
GLOBAL_UNIT_ASSIGNED_CONTEXT((#1067,#1069,#1070))
REPRESENTATION_CONTEXT('','3D')
);
#1066=(
GEOMETRIC_REPRESENTATION_CONTEXT(3)
GLOBAL_UNCERTAINTY_ASSIGNED_CONTEXT((#1064))
GLOBAL_UNIT_ASSIGNED_CONTEXT((#1067,#1069,#1070))
REPRESENTATION_CONTEXT('','3D')
);
#1067=(
LENGTH_UNIT()
NAMED_UNIT(*)
SI_UNIT(.MILLI.,.METRE.)
);
#1068=(
LENGTH_UNIT()
NAMED_UNIT(*)
SI_UNIT($,.METRE.)
);
#1069=(
NAMED_UNIT(*)
PLANE_ANGLE_UNIT()
SI_UNIT($,.RADIAN.)
);
#1070=(
NAMED_UNIT(*)
SI_UNIT($,.STERADIAN.)
SOLID_ANGLE_UNIT()
);
#1071=SHAPE_DEFINITION_REPRESENTATION(#1072,#1073);
#1072=PRODUCT_DEFINITION_SHAPE('',$,#1075);
#1073=SHAPE_REPRESENTATION('',(#561),#1065);
#1074=PRODUCT_DEFINITION_CONTEXT('part definition',#1079,'design');
#1075=PRODUCT_DEFINITION('doubleshear3(1x)','doubleshear3(1x) v1',#1076,
#1074);
#1076=PRODUCT_DEFINITION_FORMATION('',$,#1081);
#1077=PRODUCT_RELATED_PRODUCT_CATEGORY('doubleshear3(1x) v1',
'doubleshear3(1x) v1',(#1081));
#1078=APPLICATION_PROTOCOL_DEFINITION('international standard',
'automotive_design',2009,#1079);
#1079=APPLICATION_CONTEXT(
'Core Data for Automotive Mechanical Design Process');
#1080=PRODUCT_CONTEXT('part definition',#1079,'mechanical');
#1081=PRODUCT('doubleshear3(1x)','doubleshear3(1x) v1',$,(#1080));
#1082=PRESENTATION_STYLE_ASSIGNMENT((#1083));
#1083=SURFACE_STYLE_USAGE(.BOTH.,#1084);
#1084=SURFACE_SIDE_STYLE('',(#1085));
#1085=SURFACE_STYLE_FILL_AREA(#1086);
#1086=FILL_AREA_STYLE('Steel - Satin',(#1087));
#1087=FILL_AREA_STYLE_COLOUR('Steel - Satin',#1088);
#1088=COLOUR_RGB('Steel - Satin',0.627450980392157,0.627450980392157,0.627450980392157);
ENDSEC;
END-ISO-10303-21;
