ISO-10303-21;
HEADER;
/* Generated by software containing ST-Developer
 * from STEP Tools, Inc. (www.steptools.com) 
 */

FILE_DESCRIPTION(
/* description */ (''),
/* implementation_level */ '2;1');

FILE_NAME(
/* name */ 'nemamountconv-z(1x).step',
/* time_stamp */ '2025-12-01T16:04:36+05:30',
/* author */ (''),
/* organization */ (''),
/* preprocessor_version */ 'ST-DEVELOPER v20.1',
/* originating_system */ 'Autodesk Translation Framework v14.21.0.0',
/* authorisation */ '');

FILE_SCHEMA (('AUTOMOTIVE_DESIGN { 1 0 10303 214 3 1 1 }'));
ENDSEC;

DATA;
#10=MECHANICAL_DESIGN_GEOMETRIC_PRESENTATION_REPRESENTATION('',(#13),#1446);
#11=SHAPE_REPRESENTATION_RELATIONSHIP('SRR','None',#1453,#12);
#12=ADVANCED_BREP_SHAPE_REPRESENTATION('',(#14),#1445);
#13=STYLED_ITEM('',(#1462),#14);
#14=MANIFOLD_SOLID_BREP('nemamountconv',#884);
#15=CYLINDRICAL_SURFACE('',#909,3.327);
#16=CYLINDRICAL_SURFACE('',#930,1.50000000000002);
#17=CYLINDRICAL_SURFACE('',#932,1.49999999999999);
#18=CYLINDRICAL_SURFACE('',#934,1.49999999999999);
#19=CYLINDRICAL_SURFACE('',#936,1.49999999999999);
#20=CYLINDRICAL_SURFACE('',#941,1.70000000000002);
#21=CYLINDRICAL_SURFACE('',#943,1.70000000000002);
#22=CYLINDRICAL_SURFACE('',#945,26.7999999999969);
#23=CYLINDRICAL_SURFACE('',#949,26.7999999999999);
#24=CYLINDRICAL_SURFACE('',#957,1.70000000000002);
#25=CYLINDRICAL_SURFACE('',#959,1.70000000000002);
#26=CYLINDRICAL_SURFACE('',#961,11.8917701702289);
#27=FACE_BOUND('',#114,.T.);
#28=FACE_BOUND('',#115,.T.);
#29=FACE_BOUND('',#116,.T.);
#30=FACE_BOUND('',#117,.T.);
#31=FACE_BOUND('',#126,.T.);
#32=FACE_BOUND('',#127,.T.);
#33=FACE_BOUND('',#128,.T.);
#34=FACE_BOUND('',#129,.T.);
#35=FACE_BOUND('',#130,.T.);
#36=FACE_BOUND('',#146,.T.);
#37=FACE_BOUND('',#147,.T.);
#38=FACE_BOUND('',#149,.T.);
#39=FACE_BOUND('',#150,.T.);
#40=FACE_BOUND('',#168,.T.);
#41=FACE_BOUND('',#169,.T.);
#42=FACE_BOUND('',#170,.T.);
#43=FACE_BOUND('',#171,.T.);
#44=FACE_BOUND('',#172,.T.);
#45=CIRCLE('',#900,1.49999999999999);
#46=CIRCLE('',#901,1.50000000000002);
#47=CIRCLE('',#902,1.49999999999999);
#48=CIRCLE('',#903,1.49999999999999);
#49=CIRCLE('',#910,3.327);
#50=CIRCLE('',#911,3.327);
#51=CIRCLE('',#914,26.7999999999999);
#52=CIRCLE('',#915,26.7999999999969);
#53=CIRCLE('',#916,1.70000000000002);
#54=CIRCLE('',#917,1.70000000000002);
#55=CIRCLE('',#918,1.70000000000002);
#56=CIRCLE('',#919,11.8917701702289);
#57=CIRCLE('',#920,1.70000000000002);
#58=CIRCLE('',#931,1.50000000000002);
#59=CIRCLE('',#933,1.49999999999999);
#60=CIRCLE('',#935,1.49999999999999);
#61=CIRCLE('',#937,1.49999999999999);
#62=CIRCLE('',#942,1.70000000000002);
#63=CIRCLE('',#944,1.70000000000002);
#64=CIRCLE('',#946,26.7999999999969);
#65=CIRCLE('',#950,26.7999999999999);
#66=CIRCLE('',#958,1.70000000000002);
#67=CIRCLE('',#960,1.70000000000002);
#68=CIRCLE('',#962,11.8917701702289);
#69=FACE_OUTER_BOUND('',#112,.T.);
#70=FACE_OUTER_BOUND('',#113,.T.);
#71=FACE_OUTER_BOUND('',#118,.T.);
#72=FACE_OUTER_BOUND('',#119,.T.);
#73=FACE_OUTER_BOUND('',#120,.T.);
#74=FACE_OUTER_BOUND('',#121,.T.);
#75=FACE_OUTER_BOUND('',#122,.T.);
#76=FACE_OUTER_BOUND('',#123,.T.);
#77=FACE_OUTER_BOUND('',#124,.T.);
#78=FACE_OUTER_BOUND('',#125,.T.);
#79=FACE_OUTER_BOUND('',#131,.T.);
#80=FACE_OUTER_BOUND('',#132,.T.);
#81=FACE_OUTER_BOUND('',#133,.T.);
#82=FACE_OUTER_BOUND('',#134,.T.);
#83=FACE_OUTER_BOUND('',#135,.T.);
#84=FACE_OUTER_BOUND('',#136,.T.);
#85=FACE_OUTER_BOUND('',#137,.T.);
#86=FACE_OUTER_BOUND('',#138,.T.);
#87=FACE_OUTER_BOUND('',#139,.T.);
#88=FACE_OUTER_BOUND('',#140,.T.);
#89=FACE_OUTER_BOUND('',#141,.T.);
#90=FACE_OUTER_BOUND('',#142,.T.);
#91=FACE_OUTER_BOUND('',#143,.T.);
#92=FACE_OUTER_BOUND('',#144,.T.);
#93=FACE_OUTER_BOUND('',#145,.T.);
#94=FACE_OUTER_BOUND('',#148,.T.);
#95=FACE_OUTER_BOUND('',#151,.T.);
#96=FACE_OUTER_BOUND('',#152,.T.);
#97=FACE_OUTER_BOUND('',#153,.T.);
#98=FACE_OUTER_BOUND('',#154,.T.);
#99=FACE_OUTER_BOUND('',#155,.T.);
#100=FACE_OUTER_BOUND('',#156,.T.);
#101=FACE_OUTER_BOUND('',#157,.T.);
#102=FACE_OUTER_BOUND('',#158,.T.);
#103=FACE_OUTER_BOUND('',#159,.T.);
#104=FACE_OUTER_BOUND('',#160,.T.);
#105=FACE_OUTER_BOUND('',#161,.T.);
#106=FACE_OUTER_BOUND('',#162,.T.);
#107=FACE_OUTER_BOUND('',#163,.T.);
#108=FACE_OUTER_BOUND('',#164,.T.);
#109=FACE_OUTER_BOUND('',#165,.T.);
#110=FACE_OUTER_BOUND('',#166,.T.);
#111=FACE_OUTER_BOUND('',#167,.T.);
#112=EDGE_LOOP('',(#568,#569,#570,#571));
#113=EDGE_LOOP('',(#572,#573,#574,#575,#576,#577,#578,#579,#580,#581));
#114=EDGE_LOOP('',(#582,#583,#584));
#115=EDGE_LOOP('',(#585,#586,#587));
#116=EDGE_LOOP('',(#588,#589,#590));
#117=EDGE_LOOP('',(#591,#592,#593));
#118=EDGE_LOOP('',(#594,#595,#596,#597));
#119=EDGE_LOOP('',(#598,#599,#600,#601,#602,#603));
#120=EDGE_LOOP('',(#604,#605,#606,#607));
#121=EDGE_LOOP('',(#608,#609,#610,#611));
#122=EDGE_LOOP('',(#612,#613,#614,#615,#616,#617,#618));
#123=EDGE_LOOP('',(#619,#620,#621,#622));
#124=EDGE_LOOP('',(#623,#624,#625));
#125=EDGE_LOOP('',(#626,#627,#628,#629,#630,#631,#632,#633,#634,#635,#636,
#637,#638,#639,#640,#641,#642));
#126=EDGE_LOOP('',(#643));
#127=EDGE_LOOP('',(#644));
#128=EDGE_LOOP('',(#645));
#129=EDGE_LOOP('',(#646));
#130=EDGE_LOOP('',(#647));
#131=EDGE_LOOP('',(#648,#649,#650));
#132=EDGE_LOOP('',(#651,#652,#653,#654));
#133=EDGE_LOOP('',(#655,#656,#657,#658));
#134=EDGE_LOOP('',(#659,#660,#661,#662));
#135=EDGE_LOOP('',(#663,#664,#665,#666));
#136=EDGE_LOOP('',(#667,#668,#669,#670));
#137=EDGE_LOOP('',(#671,#672,#673,#674));
#138=EDGE_LOOP('',(#675,#676,#677,#678));
#139=EDGE_LOOP('',(#679,#680,#681,#682));
#140=EDGE_LOOP('',(#683,#684,#685,#686));
#141=EDGE_LOOP('',(#687,#688,#689,#690));
#142=EDGE_LOOP('',(#691,#692,#693,#694));
#143=EDGE_LOOP('',(#695,#696,#697,#698));
#144=EDGE_LOOP('',(#699,#700,#701,#702));
#145=EDGE_LOOP('',(#703,#704,#705,#706));
#146=EDGE_LOOP('',(#707,#708,#709));
#147=EDGE_LOOP('',(#710,#711,#712));
#148=EDGE_LOOP('',(#713,#714,#715,#716));
#149=EDGE_LOOP('',(#717,#718,#719));
#150=EDGE_LOOP('',(#720,#721,#722));
#151=EDGE_LOOP('',(#723,#724,#725,#726));
#152=EDGE_LOOP('',(#727,#728,#729,#730));
#153=EDGE_LOOP('',(#731,#732,#733,#734));
#154=EDGE_LOOP('',(#735,#736,#737,#738));
#155=EDGE_LOOP('',(#739,#740,#741,#742));
#156=EDGE_LOOP('',(#743,#744,#745,#746));
#157=EDGE_LOOP('',(#747,#748,#749,#750));
#158=EDGE_LOOP('',(#751,#752,#753,#754));
#159=EDGE_LOOP('',(#755,#756,#757,#758));
#160=EDGE_LOOP('',(#759,#760,#761,#762));
#161=EDGE_LOOP('',(#763,#764,#765,#766,#767,#768));
#162=EDGE_LOOP('',(#769,#770,#771,#772));
#163=EDGE_LOOP('',(#773,#774,#775,#776));
#164=EDGE_LOOP('',(#777,#778,#779,#780));
#165=EDGE_LOOP('',(#781,#782,#783,#784));
#166=EDGE_LOOP('',(#785,#786,#787,#788,#789,#790));
#167=EDGE_LOOP('',(#791,#792,#793,#794,#795,#796,#797,#798,#799,#800,#801,
#802,#803,#804));
#168=EDGE_LOOP('',(#805));
#169=EDGE_LOOP('',(#806));
#170=EDGE_LOOP('',(#807));
#171=EDGE_LOOP('',(#808));
#172=EDGE_LOOP('',(#809));
#173=LINE('',#1202,#270);
#174=LINE('',#1204,#271);
#175=LINE('',#1206,#272);
#176=LINE('',#1207,#273);
#177=LINE('',#1210,#274);
#178=LINE('',#1212,#275);
#179=LINE('',#1214,#276);
#180=LINE('',#1216,#277);
#181=LINE('',#1218,#278);
#182=LINE('',#1220,#279);
#183=LINE('',#1222,#280);
#184=LINE('',#1224,#281);
#185=LINE('',#1225,#282);
#186=LINE('',#1228,#283);
#187=LINE('',#1230,#284);
#188=LINE('',#1234,#285);
#189=LINE('',#1236,#286);
#190=LINE('',#1240,#287);
#191=LINE('',#1242,#288);
#192=LINE('',#1246,#289);
#193=LINE('',#1248,#290);
#194=LINE('',#1252,#291);
#195=LINE('',#1254,#292);
#196=LINE('',#1255,#293);
#197=LINE('',#1258,#294);
#198=LINE('',#1260,#295);
#199=LINE('',#1261,#296);
#200=LINE('',#1264,#297);
#201=LINE('',#1266,#298);
#202=LINE('',#1267,#299);
#203=LINE('',#1270,#300);
#204=LINE('',#1272,#301);
#205=LINE('',#1273,#302);
#206=LINE('',#1276,#303);
#207=LINE('',#1278,#304);
#208=LINE('',#1280,#305);
#209=LINE('',#1281,#306);
#210=LINE('',#1286,#307);
#211=LINE('',#1289,#308);
#212=LINE('',#1292,#309);
#213=LINE('',#1294,#310);
#214=LINE('',#1296,#311);
#215=LINE('',#1298,#312);
#216=LINE('',#1300,#313);
#217=LINE('',#1302,#314);
#218=LINE('',#1306,#315);
#219=LINE('',#1310,#316);
#220=LINE('',#1312,#317);
#221=LINE('',#1314,#318);
#222=LINE('',#1316,#319);
#223=LINE('',#1317,#320);
#224=LINE('',#1329,#321);
#225=LINE('',#1333,#322);
#226=LINE('',#1334,#323);
#227=LINE('',#1335,#324);
#228=LINE('',#1338,#325);
#229=LINE('',#1339,#326);
#230=LINE('',#1343,#327);
#231=LINE('',#1344,#328);
#232=LINE('',#1345,#329);
#233=LINE('',#1348,#330);
#234=LINE('',#1349,#331);
#235=LINE('',#1353,#332);
#236=LINE('',#1354,#333);
#237=LINE('',#1355,#334);
#238=LINE('',#1358,#335);
#239=LINE('',#1359,#336);
#240=LINE('',#1363,#337);
#241=LINE('',#1364,#338);
#242=LINE('',#1365,#339);
#243=LINE('',#1368,#340);
#244=LINE('',#1369,#341);
#245=LINE('',#1379,#342);
#246=LINE('',#1380,#343);
#247=LINE('',#1383,#344);
#248=LINE('',#1386,#345);
#249=LINE('',#1390,#346);
#250=LINE('',#1394,#347);
#251=LINE('',#1397,#348);
#252=LINE('',#1400,#349);
#253=LINE('',#1401,#350);
#254=LINE('',#1404,#351);
#255=LINE('',#1405,#352);
#256=LINE('',#1408,#353);
#257=LINE('',#1412,#354);
#258=LINE('',#1413,#355);
#259=LINE('',#1416,#356);
#260=LINE('',#1417,#357);
#261=LINE('',#1419,#358);
#262=LINE('',#1422,#359);
#263=LINE('',#1423,#360);
#264=LINE('',#1425,#361);
#265=LINE('',#1426,#362);
#266=LINE('',#1430,#363);
#267=LINE('',#1434,#364);
#268=LINE('',#1438,#365);
#269=LINE('',#1441,#366);
#270=VECTOR('',#969,10.);
#271=VECTOR('',#970,10.);
#272=VECTOR('',#971,10.);
#273=VECTOR('',#972,10.);
#274=VECTOR('',#975,10.);
#275=VECTOR('',#976,10.);
#276=VECTOR('',#977,10.);
#277=VECTOR('',#978,10.);
#278=VECTOR('',#979,10.);
#279=VECTOR('',#980,10.);
#280=VECTOR('',#981,10.);
#281=VECTOR('',#982,10.);
#282=VECTOR('',#983,10.);
#283=VECTOR('',#984,10.);
#284=VECTOR('',#985,10.);
#285=VECTOR('',#988,10.);
#286=VECTOR('',#989,10.);
#287=VECTOR('',#992,10.);
#288=VECTOR('',#993,10.);
#289=VECTOR('',#996,10.);
#290=VECTOR('',#997,10.);
#291=VECTOR('',#1002,10.);
#292=VECTOR('',#1003,10.);
#293=VECTOR('',#1004,10.);
#294=VECTOR('',#1007,10.);
#295=VECTOR('',#1008,10.);
#296=VECTOR('',#1009,10.);
#297=VECTOR('',#1012,10.);
#298=VECTOR('',#1013,10.);
#299=VECTOR('',#1014,10.);
#300=VECTOR('',#1017,10.);
#301=VECTOR('',#1018,10.);
#302=VECTOR('',#1019,10.);
#303=VECTOR('',#1022,10.);
#304=VECTOR('',#1023,10.);
#305=VECTOR('',#1024,10.);
#306=VECTOR('',#1025,10.);
#307=VECTOR('',#1030,10.);
#308=VECTOR('',#1035,10.);
#309=VECTOR('',#1038,10.);
#310=VECTOR('',#1039,10.);
#311=VECTOR('',#1040,10.);
#312=VECTOR('',#1041,10.);
#313=VECTOR('',#1042,10.);
#314=VECTOR('',#1043,10.);
#315=VECTOR('',#1046,10.);
#316=VECTOR('',#1049,10.);
#317=VECTOR('',#1050,10.);
#318=VECTOR('',#1051,10.);
#319=VECTOR('',#1052,10.);
#320=VECTOR('',#1053,10.);
#321=VECTOR('',#1066,10.);
#322=VECTOR('',#1069,10.);
#323=VECTOR('',#1070,10.);
#324=VECTOR('',#1071,10.);
#325=VECTOR('',#1074,10.);
#326=VECTOR('',#1075,10.);
#327=VECTOR('',#1078,10.);
#328=VECTOR('',#1079,10.);
#329=VECTOR('',#1080,10.);
#330=VECTOR('',#1083,10.);
#331=VECTOR('',#1084,10.);
#332=VECTOR('',#1087,10.);
#333=VECTOR('',#1088,10.);
#334=VECTOR('',#1089,10.);
#335=VECTOR('',#1092,10.);
#336=VECTOR('',#1093,10.);
#337=VECTOR('',#1096,10.);
#338=VECTOR('',#1097,10.);
#339=VECTOR('',#1098,10.);
#340=VECTOR('',#1101,10.);
#341=VECTOR('',#1102,10.);
#342=VECTOR('',#1121,10.);
#343=VECTOR('',#1122,10.);
#344=VECTOR('',#1127,10.);
#345=VECTOR('',#1130,1.70000000000002);
#346=VECTOR('',#1135,1.70000000000002);
#347=VECTOR('',#1140,10.);
#348=VECTOR('',#1143,10.);
#349=VECTOR('',#1146,10.);
#350=VECTOR('',#1147,10.);
#351=VECTOR('',#1150,10.);
#352=VECTOR('',#1151,10.);
#353=VECTOR('',#1154,10.);
#354=VECTOR('',#1159,10.);
#355=VECTOR('',#1160,10.);
#356=VECTOR('',#1163,10.);
#357=VECTOR('',#1164,10.);
#358=VECTOR('',#1167,10.);
#359=VECTOR('',#1170,10.);
#360=VECTOR('',#1171,10.);
#361=VECTOR('',#1174,10.);
#362=VECTOR('',#1175,10.);
#363=VECTOR('',#1180,1.70000000000002);
#364=VECTOR('',#1185,1.70000000000002);
#365=VECTOR('',#1190,11.8917701702289);
#366=VECTOR('',#1195,10.);
#367=VERTEX_POINT('',#1200);
#368=VERTEX_POINT('',#1201);
#369=VERTEX_POINT('',#1203);
#370=VERTEX_POINT('',#1205);
#371=VERTEX_POINT('',#1209);
#372=VERTEX_POINT('',#1211);
#373=VERTEX_POINT('',#1213);
#374=VERTEX_POINT('',#1215);
#375=VERTEX_POINT('',#1217);
#376=VERTEX_POINT('',#1219);
#377=VERTEX_POINT('',#1221);
#378=VERTEX_POINT('',#1223);
#379=VERTEX_POINT('',#1226);
#380=VERTEX_POINT('',#1227);
#381=VERTEX_POINT('',#1229);
#382=VERTEX_POINT('',#1232);
#383=VERTEX_POINT('',#1233);
#384=VERTEX_POINT('',#1235);
#385=VERTEX_POINT('',#1238);
#386=VERTEX_POINT('',#1239);
#387=VERTEX_POINT('',#1241);
#388=VERTEX_POINT('',#1244);
#389=VERTEX_POINT('',#1245);
#390=VERTEX_POINT('',#1247);
#391=VERTEX_POINT('',#1251);
#392=VERTEX_POINT('',#1253);
#393=VERTEX_POINT('',#1257);
#394=VERTEX_POINT('',#1259);
#395=VERTEX_POINT('',#1263);
#396=VERTEX_POINT('',#1265);
#397=VERTEX_POINT('',#1269);
#398=VERTEX_POINT('',#1271);
#399=VERTEX_POINT('',#1275);
#400=VERTEX_POINT('',#1277);
#401=VERTEX_POINT('',#1279);
#402=VERTEX_POINT('',#1283);
#403=VERTEX_POINT('',#1285);
#404=VERTEX_POINT('',#1291);
#405=VERTEX_POINT('',#1293);
#406=VERTEX_POINT('',#1295);
#407=VERTEX_POINT('',#1297);
#408=VERTEX_POINT('',#1299);
#409=VERTEX_POINT('',#1301);
#410=VERTEX_POINT('',#1303);
#411=VERTEX_POINT('',#1305);
#412=VERTEX_POINT('',#1307);
#413=VERTEX_POINT('',#1309);
#414=VERTEX_POINT('',#1311);
#415=VERTEX_POINT('',#1313);
#416=VERTEX_POINT('',#1315);
#417=VERTEX_POINT('',#1318);
#418=VERTEX_POINT('',#1320);
#419=VERTEX_POINT('',#1322);
#420=VERTEX_POINT('',#1324);
#421=VERTEX_POINT('',#1326);
#422=VERTEX_POINT('',#1331);
#423=VERTEX_POINT('',#1332);
#424=VERTEX_POINT('',#1337);
#425=VERTEX_POINT('',#1341);
#426=VERTEX_POINT('',#1342);
#427=VERTEX_POINT('',#1347);
#428=VERTEX_POINT('',#1351);
#429=VERTEX_POINT('',#1352);
#430=VERTEX_POINT('',#1357);
#431=VERTEX_POINT('',#1361);
#432=VERTEX_POINT('',#1362);
#433=VERTEX_POINT('',#1367);
#434=VERTEX_POINT('',#1385);
#435=VERTEX_POINT('',#1389);
#436=VERTEX_POINT('',#1393);
#437=VERTEX_POINT('',#1395);
#438=VERTEX_POINT('',#1399);
#439=VERTEX_POINT('',#1403);
#440=VERTEX_POINT('',#1407);
#441=VERTEX_POINT('',#1411);
#442=VERTEX_POINT('',#1415);
#443=VERTEX_POINT('',#1421);
#444=VERTEX_POINT('',#1429);
#445=VERTEX_POINT('',#1433);
#446=VERTEX_POINT('',#1437);
#447=EDGE_CURVE('',#367,#368,#173,.T.);
#448=EDGE_CURVE('',#367,#369,#174,.T.);
#449=EDGE_CURVE('',#369,#370,#175,.T.);
#450=EDGE_CURVE('',#370,#368,#176,.T.);
#451=EDGE_CURVE('',#371,#368,#177,.T.);
#452=EDGE_CURVE('',#372,#371,#178,.T.);
#453=EDGE_CURVE('',#373,#372,#179,.T.);
#454=EDGE_CURVE('',#374,#373,#180,.T.);
#455=EDGE_CURVE('',#374,#375,#181,.T.);
#456=EDGE_CURVE('',#375,#376,#182,.T.);
#457=EDGE_CURVE('',#377,#376,#183,.T.);
#458=EDGE_CURVE('',#378,#377,#184,.T.);
#459=EDGE_CURVE('',#378,#367,#185,.T.);
#460=EDGE_CURVE('',#379,#380,#186,.T.);
#461=EDGE_CURVE('',#380,#381,#187,.T.);
#462=EDGE_CURVE('',#381,#379,#45,.T.);
#463=EDGE_CURVE('',#382,#383,#188,.T.);
#464=EDGE_CURVE('',#383,#384,#189,.T.);
#465=EDGE_CURVE('',#384,#382,#46,.T.);
#466=EDGE_CURVE('',#385,#386,#190,.T.);
#467=EDGE_CURVE('',#386,#387,#191,.T.);
#468=EDGE_CURVE('',#387,#385,#47,.T.);
#469=EDGE_CURVE('',#388,#389,#192,.T.);
#470=EDGE_CURVE('',#389,#390,#193,.T.);
#471=EDGE_CURVE('',#390,#388,#48,.T.);
#472=EDGE_CURVE('',#391,#371,#194,.T.);
#473=EDGE_CURVE('',#392,#391,#195,.T.);
#474=EDGE_CURVE('',#392,#372,#196,.T.);
#475=EDGE_CURVE('',#393,#370,#197,.T.);
#476=EDGE_CURVE('',#393,#394,#198,.T.);
#477=EDGE_CURVE('',#394,#391,#199,.T.);
#478=EDGE_CURVE('',#395,#375,#200,.T.);
#479=EDGE_CURVE('',#395,#396,#201,.T.);
#480=EDGE_CURVE('',#396,#376,#202,.T.);
#481=EDGE_CURVE('',#377,#397,#203,.T.);
#482=EDGE_CURVE('',#398,#397,#204,.T.);
#483=EDGE_CURVE('',#378,#398,#205,.T.);
#484=EDGE_CURVE('',#396,#399,#206,.T.);
#485=EDGE_CURVE('',#399,#400,#207,.T.);
#486=EDGE_CURVE('',#400,#401,#208,.T.);
#487=EDGE_CURVE('',#397,#401,#209,.T.);
#488=EDGE_CURVE('',#373,#402,#49,.T.);
#489=EDGE_CURVE('',#403,#402,#210,.T.);
#490=EDGE_CURVE('',#403,#374,#50,.T.);
#491=EDGE_CURVE('',#372,#402,#211,.T.);
#492=EDGE_CURVE('',#404,#398,#212,.T.);
#493=EDGE_CURVE('',#405,#404,#213,.T.);
#494=EDGE_CURVE('',#406,#405,#214,.T.);
#495=EDGE_CURVE('',#406,#407,#215,.T.);
#496=EDGE_CURVE('',#408,#407,#216,.T.);
#497=EDGE_CURVE('',#409,#408,#217,.T.);
#498=EDGE_CURVE('',#409,#410,#51,.T.);
#499=EDGE_CURVE('',#410,#411,#218,.T.);
#500=EDGE_CURVE('',#411,#412,#52,.T.);
#501=EDGE_CURVE('',#412,#413,#219,.T.);
#502=EDGE_CURVE('',#414,#413,#220,.T.);
#503=EDGE_CURVE('',#415,#414,#221,.T.);
#504=EDGE_CURVE('',#416,#415,#222,.T.);
#505=EDGE_CURVE('',#416,#369,#223,.T.);
#506=EDGE_CURVE('',#417,#417,#53,.T.);
#507=EDGE_CURVE('',#418,#418,#54,.T.);
#508=EDGE_CURVE('',#419,#419,#55,.T.);
#509=EDGE_CURVE('',#420,#420,#56,.T.);
#510=EDGE_CURVE('',#421,#421,#57,.T.);
#511=EDGE_CURVE('',#375,#403,#224,.T.);
#512=EDGE_CURVE('',#422,#423,#225,.T.);
#513=EDGE_CURVE('',#422,#383,#226,.T.);
#514=EDGE_CURVE('',#382,#423,#227,.T.);
#515=EDGE_CURVE('',#424,#422,#228,.T.);
#516=EDGE_CURVE('',#384,#424,#229,.T.);
#517=EDGE_CURVE('',#425,#426,#230,.T.);
#518=EDGE_CURVE('',#425,#380,#231,.T.);
#519=EDGE_CURVE('',#379,#426,#232,.T.);
#520=EDGE_CURVE('',#427,#425,#233,.T.);
#521=EDGE_CURVE('',#381,#427,#234,.T.);
#522=EDGE_CURVE('',#428,#429,#235,.T.);
#523=EDGE_CURVE('',#428,#386,#236,.T.);
#524=EDGE_CURVE('',#385,#429,#237,.T.);
#525=EDGE_CURVE('',#430,#428,#238,.T.);
#526=EDGE_CURVE('',#387,#430,#239,.T.);
#527=EDGE_CURVE('',#431,#432,#240,.T.);
#528=EDGE_CURVE('',#431,#389,#241,.T.);
#529=EDGE_CURVE('',#388,#432,#242,.T.);
#530=EDGE_CURVE('',#433,#431,#243,.T.);
#531=EDGE_CURVE('',#390,#433,#244,.T.);
#532=EDGE_CURVE('',#423,#424,#58,.T.);
#533=EDGE_CURVE('',#426,#427,#59,.T.);
#534=EDGE_CURVE('',#429,#430,#60,.T.);
#535=EDGE_CURVE('',#432,#433,#61,.T.);
#536=EDGE_CURVE('',#400,#405,#245,.T.);
#537=EDGE_CURVE('',#401,#404,#246,.T.);
#538=EDGE_CURVE('',#393,#416,#247,.T.);
#539=EDGE_CURVE('',#418,#434,#248,.T.);
#540=EDGE_CURVE('',#434,#434,#62,.T.);
#541=EDGE_CURVE('',#419,#435,#249,.T.);
#542=EDGE_CURVE('',#435,#435,#63,.T.);
#543=EDGE_CURVE('',#411,#436,#250,.T.);
#544=EDGE_CURVE('',#436,#437,#64,.T.);
#545=EDGE_CURVE('',#412,#437,#251,.T.);
#546=EDGE_CURVE('',#437,#438,#252,.T.);
#547=EDGE_CURVE('',#413,#438,#253,.T.);
#548=EDGE_CURVE('',#410,#439,#254,.T.);
#549=EDGE_CURVE('',#439,#436,#255,.T.);
#550=EDGE_CURVE('',#409,#440,#256,.T.);
#551=EDGE_CURVE('',#440,#439,#65,.T.);
#552=EDGE_CURVE('',#441,#408,#257,.T.);
#553=EDGE_CURVE('',#440,#441,#258,.T.);
#554=EDGE_CURVE('',#442,#441,#259,.T.);
#555=EDGE_CURVE('',#407,#442,#260,.T.);
#556=EDGE_CURVE('',#406,#399,#261,.T.);
#557=EDGE_CURVE('',#443,#438,#262,.F.);
#558=EDGE_CURVE('',#443,#414,#263,.T.);
#559=EDGE_CURVE('',#443,#392,#264,.T.);
#560=EDGE_CURVE('',#415,#394,#265,.T.);
#561=EDGE_CURVE('',#417,#444,#266,.T.);
#562=EDGE_CURVE('',#444,#444,#66,.T.);
#563=EDGE_CURVE('',#421,#445,#267,.T.);
#564=EDGE_CURVE('',#445,#445,#67,.T.);
#565=EDGE_CURVE('',#420,#446,#268,.T.);
#566=EDGE_CURVE('',#446,#446,#68,.T.);
#567=EDGE_CURVE('',#395,#442,#269,.T.);
#568=ORIENTED_EDGE('',*,*,#447,.F.);
#569=ORIENTED_EDGE('',*,*,#448,.T.);
#570=ORIENTED_EDGE('',*,*,#449,.T.);
#571=ORIENTED_EDGE('',*,*,#450,.T.);
#572=ORIENTED_EDGE('',*,*,#447,.T.);
#573=ORIENTED_EDGE('',*,*,#451,.F.);
#574=ORIENTED_EDGE('',*,*,#452,.F.);
#575=ORIENTED_EDGE('',*,*,#453,.F.);
#576=ORIENTED_EDGE('',*,*,#454,.F.);
#577=ORIENTED_EDGE('',*,*,#455,.T.);
#578=ORIENTED_EDGE('',*,*,#456,.T.);
#579=ORIENTED_EDGE('',*,*,#457,.F.);
#580=ORIENTED_EDGE('',*,*,#458,.F.);
#581=ORIENTED_EDGE('',*,*,#459,.T.);
#582=ORIENTED_EDGE('',*,*,#460,.T.);
#583=ORIENTED_EDGE('',*,*,#461,.T.);
#584=ORIENTED_EDGE('',*,*,#462,.T.);
#585=ORIENTED_EDGE('',*,*,#463,.T.);
#586=ORIENTED_EDGE('',*,*,#464,.T.);
#587=ORIENTED_EDGE('',*,*,#465,.T.);
#588=ORIENTED_EDGE('',*,*,#466,.T.);
#589=ORIENTED_EDGE('',*,*,#467,.T.);
#590=ORIENTED_EDGE('',*,*,#468,.T.);
#591=ORIENTED_EDGE('',*,*,#469,.T.);
#592=ORIENTED_EDGE('',*,*,#470,.T.);
#593=ORIENTED_EDGE('',*,*,#471,.T.);
#594=ORIENTED_EDGE('',*,*,#452,.T.);
#595=ORIENTED_EDGE('',*,*,#472,.F.);
#596=ORIENTED_EDGE('',*,*,#473,.F.);
#597=ORIENTED_EDGE('',*,*,#474,.T.);
#598=ORIENTED_EDGE('',*,*,#451,.T.);
#599=ORIENTED_EDGE('',*,*,#450,.F.);
#600=ORIENTED_EDGE('',*,*,#475,.F.);
#601=ORIENTED_EDGE('',*,*,#476,.T.);
#602=ORIENTED_EDGE('',*,*,#477,.T.);
#603=ORIENTED_EDGE('',*,*,#472,.T.);
#604=ORIENTED_EDGE('',*,*,#456,.F.);
#605=ORIENTED_EDGE('',*,*,#478,.F.);
#606=ORIENTED_EDGE('',*,*,#479,.T.);
#607=ORIENTED_EDGE('',*,*,#480,.T.);
#608=ORIENTED_EDGE('',*,*,#458,.T.);
#609=ORIENTED_EDGE('',*,*,#481,.T.);
#610=ORIENTED_EDGE('',*,*,#482,.F.);
#611=ORIENTED_EDGE('',*,*,#483,.F.);
#612=ORIENTED_EDGE('',*,*,#457,.T.);
#613=ORIENTED_EDGE('',*,*,#480,.F.);
#614=ORIENTED_EDGE('',*,*,#484,.T.);
#615=ORIENTED_EDGE('',*,*,#485,.T.);
#616=ORIENTED_EDGE('',*,*,#486,.T.);
#617=ORIENTED_EDGE('',*,*,#487,.F.);
#618=ORIENTED_EDGE('',*,*,#481,.F.);
#619=ORIENTED_EDGE('',*,*,#454,.T.);
#620=ORIENTED_EDGE('',*,*,#488,.T.);
#621=ORIENTED_EDGE('',*,*,#489,.F.);
#622=ORIENTED_EDGE('',*,*,#490,.T.);
#623=ORIENTED_EDGE('',*,*,#453,.T.);
#624=ORIENTED_EDGE('',*,*,#491,.T.);
#625=ORIENTED_EDGE('',*,*,#488,.F.);
#626=ORIENTED_EDGE('',*,*,#459,.F.);
#627=ORIENTED_EDGE('',*,*,#483,.T.);
#628=ORIENTED_EDGE('',*,*,#492,.F.);
#629=ORIENTED_EDGE('',*,*,#493,.F.);
#630=ORIENTED_EDGE('',*,*,#494,.F.);
#631=ORIENTED_EDGE('',*,*,#495,.T.);
#632=ORIENTED_EDGE('',*,*,#496,.F.);
#633=ORIENTED_EDGE('',*,*,#497,.F.);
#634=ORIENTED_EDGE('',*,*,#498,.T.);
#635=ORIENTED_EDGE('',*,*,#499,.T.);
#636=ORIENTED_EDGE('',*,*,#500,.T.);
#637=ORIENTED_EDGE('',*,*,#501,.T.);
#638=ORIENTED_EDGE('',*,*,#502,.F.);
#639=ORIENTED_EDGE('',*,*,#503,.F.);
#640=ORIENTED_EDGE('',*,*,#504,.F.);
#641=ORIENTED_EDGE('',*,*,#505,.T.);
#642=ORIENTED_EDGE('',*,*,#448,.F.);
#643=ORIENTED_EDGE('',*,*,#506,.F.);
#644=ORIENTED_EDGE('',*,*,#507,.T.);
#645=ORIENTED_EDGE('',*,*,#508,.T.);
#646=ORIENTED_EDGE('',*,*,#509,.T.);
#647=ORIENTED_EDGE('',*,*,#510,.F.);
#648=ORIENTED_EDGE('',*,*,#455,.F.);
#649=ORIENTED_EDGE('',*,*,#490,.F.);
#650=ORIENTED_EDGE('',*,*,#511,.F.);
#651=ORIENTED_EDGE('',*,*,#512,.F.);
#652=ORIENTED_EDGE('',*,*,#513,.T.);
#653=ORIENTED_EDGE('',*,*,#463,.F.);
#654=ORIENTED_EDGE('',*,*,#514,.T.);
#655=ORIENTED_EDGE('',*,*,#515,.F.);
#656=ORIENTED_EDGE('',*,*,#516,.F.);
#657=ORIENTED_EDGE('',*,*,#464,.F.);
#658=ORIENTED_EDGE('',*,*,#513,.F.);
#659=ORIENTED_EDGE('',*,*,#517,.F.);
#660=ORIENTED_EDGE('',*,*,#518,.T.);
#661=ORIENTED_EDGE('',*,*,#460,.F.);
#662=ORIENTED_EDGE('',*,*,#519,.T.);
#663=ORIENTED_EDGE('',*,*,#520,.F.);
#664=ORIENTED_EDGE('',*,*,#521,.F.);
#665=ORIENTED_EDGE('',*,*,#461,.F.);
#666=ORIENTED_EDGE('',*,*,#518,.F.);
#667=ORIENTED_EDGE('',*,*,#522,.F.);
#668=ORIENTED_EDGE('',*,*,#523,.T.);
#669=ORIENTED_EDGE('',*,*,#466,.F.);
#670=ORIENTED_EDGE('',*,*,#524,.T.);
#671=ORIENTED_EDGE('',*,*,#525,.F.);
#672=ORIENTED_EDGE('',*,*,#526,.F.);
#673=ORIENTED_EDGE('',*,*,#467,.F.);
#674=ORIENTED_EDGE('',*,*,#523,.F.);
#675=ORIENTED_EDGE('',*,*,#527,.F.);
#676=ORIENTED_EDGE('',*,*,#528,.T.);
#677=ORIENTED_EDGE('',*,*,#469,.F.);
#678=ORIENTED_EDGE('',*,*,#529,.T.);
#679=ORIENTED_EDGE('',*,*,#530,.F.);
#680=ORIENTED_EDGE('',*,*,#531,.F.);
#681=ORIENTED_EDGE('',*,*,#470,.F.);
#682=ORIENTED_EDGE('',*,*,#528,.F.);
#683=ORIENTED_EDGE('',*,*,#514,.F.);
#684=ORIENTED_EDGE('',*,*,#465,.F.);
#685=ORIENTED_EDGE('',*,*,#516,.T.);
#686=ORIENTED_EDGE('',*,*,#532,.F.);
#687=ORIENTED_EDGE('',*,*,#519,.F.);
#688=ORIENTED_EDGE('',*,*,#462,.F.);
#689=ORIENTED_EDGE('',*,*,#521,.T.);
#690=ORIENTED_EDGE('',*,*,#533,.F.);
#691=ORIENTED_EDGE('',*,*,#524,.F.);
#692=ORIENTED_EDGE('',*,*,#468,.F.);
#693=ORIENTED_EDGE('',*,*,#526,.T.);
#694=ORIENTED_EDGE('',*,*,#534,.F.);
#695=ORIENTED_EDGE('',*,*,#529,.F.);
#696=ORIENTED_EDGE('',*,*,#471,.F.);
#697=ORIENTED_EDGE('',*,*,#531,.T.);
#698=ORIENTED_EDGE('',*,*,#535,.F.);
#699=ORIENTED_EDGE('',*,*,#536,.T.);
#700=ORIENTED_EDGE('',*,*,#493,.T.);
#701=ORIENTED_EDGE('',*,*,#537,.F.);
#702=ORIENTED_EDGE('',*,*,#486,.F.);
#703=ORIENTED_EDGE('',*,*,#482,.T.);
#704=ORIENTED_EDGE('',*,*,#487,.T.);
#705=ORIENTED_EDGE('',*,*,#537,.T.);
#706=ORIENTED_EDGE('',*,*,#492,.T.);
#707=ORIENTED_EDGE('',*,*,#522,.T.);
#708=ORIENTED_EDGE('',*,*,#534,.T.);
#709=ORIENTED_EDGE('',*,*,#525,.T.);
#710=ORIENTED_EDGE('',*,*,#527,.T.);
#711=ORIENTED_EDGE('',*,*,#535,.T.);
#712=ORIENTED_EDGE('',*,*,#530,.T.);
#713=ORIENTED_EDGE('',*,*,#538,.F.);
#714=ORIENTED_EDGE('',*,*,#475,.T.);
#715=ORIENTED_EDGE('',*,*,#449,.F.);
#716=ORIENTED_EDGE('',*,*,#505,.F.);
#717=ORIENTED_EDGE('',*,*,#512,.T.);
#718=ORIENTED_EDGE('',*,*,#532,.T.);
#719=ORIENTED_EDGE('',*,*,#515,.T.);
#720=ORIENTED_EDGE('',*,*,#517,.T.);
#721=ORIENTED_EDGE('',*,*,#533,.T.);
#722=ORIENTED_EDGE('',*,*,#520,.T.);
#723=ORIENTED_EDGE('',*,*,#507,.F.);
#724=ORIENTED_EDGE('',*,*,#539,.T.);
#725=ORIENTED_EDGE('',*,*,#540,.T.);
#726=ORIENTED_EDGE('',*,*,#539,.F.);
#727=ORIENTED_EDGE('',*,*,#508,.F.);
#728=ORIENTED_EDGE('',*,*,#541,.T.);
#729=ORIENTED_EDGE('',*,*,#542,.T.);
#730=ORIENTED_EDGE('',*,*,#541,.F.);
#731=ORIENTED_EDGE('',*,*,#500,.F.);
#732=ORIENTED_EDGE('',*,*,#543,.T.);
#733=ORIENTED_EDGE('',*,*,#544,.T.);
#734=ORIENTED_EDGE('',*,*,#545,.F.);
#735=ORIENTED_EDGE('',*,*,#545,.T.);
#736=ORIENTED_EDGE('',*,*,#546,.T.);
#737=ORIENTED_EDGE('',*,*,#547,.F.);
#738=ORIENTED_EDGE('',*,*,#501,.F.);
#739=ORIENTED_EDGE('',*,*,#499,.F.);
#740=ORIENTED_EDGE('',*,*,#548,.T.);
#741=ORIENTED_EDGE('',*,*,#549,.T.);
#742=ORIENTED_EDGE('',*,*,#543,.F.);
#743=ORIENTED_EDGE('',*,*,#498,.F.);
#744=ORIENTED_EDGE('',*,*,#550,.T.);
#745=ORIENTED_EDGE('',*,*,#551,.T.);
#746=ORIENTED_EDGE('',*,*,#548,.F.);
#747=ORIENTED_EDGE('',*,*,#497,.T.);
#748=ORIENTED_EDGE('',*,*,#552,.F.);
#749=ORIENTED_EDGE('',*,*,#553,.F.);
#750=ORIENTED_EDGE('',*,*,#550,.F.);
#751=ORIENTED_EDGE('',*,*,#554,.T.);
#752=ORIENTED_EDGE('',*,*,#552,.T.);
#753=ORIENTED_EDGE('',*,*,#496,.T.);
#754=ORIENTED_EDGE('',*,*,#555,.T.);
#755=ORIENTED_EDGE('',*,*,#536,.F.);
#756=ORIENTED_EDGE('',*,*,#485,.F.);
#757=ORIENTED_EDGE('',*,*,#556,.F.);
#758=ORIENTED_EDGE('',*,*,#494,.T.);
#759=ORIENTED_EDGE('',*,*,#557,.F.);
#760=ORIENTED_EDGE('',*,*,#558,.T.);
#761=ORIENTED_EDGE('',*,*,#502,.T.);
#762=ORIENTED_EDGE('',*,*,#547,.T.);
#763=ORIENTED_EDGE('',*,*,#558,.F.);
#764=ORIENTED_EDGE('',*,*,#559,.T.);
#765=ORIENTED_EDGE('',*,*,#473,.T.);
#766=ORIENTED_EDGE('',*,*,#477,.F.);
#767=ORIENTED_EDGE('',*,*,#560,.F.);
#768=ORIENTED_EDGE('',*,*,#503,.T.);
#769=ORIENTED_EDGE('',*,*,#504,.T.);
#770=ORIENTED_EDGE('',*,*,#560,.T.);
#771=ORIENTED_EDGE('',*,*,#476,.F.);
#772=ORIENTED_EDGE('',*,*,#538,.T.);
#773=ORIENTED_EDGE('',*,*,#506,.T.);
#774=ORIENTED_EDGE('',*,*,#561,.T.);
#775=ORIENTED_EDGE('',*,*,#562,.T.);
#776=ORIENTED_EDGE('',*,*,#561,.F.);
#777=ORIENTED_EDGE('',*,*,#510,.T.);
#778=ORIENTED_EDGE('',*,*,#563,.T.);
#779=ORIENTED_EDGE('',*,*,#564,.T.);
#780=ORIENTED_EDGE('',*,*,#563,.F.);
#781=ORIENTED_EDGE('',*,*,#509,.F.);
#782=ORIENTED_EDGE('',*,*,#565,.T.);
#783=ORIENTED_EDGE('',*,*,#566,.F.);
#784=ORIENTED_EDGE('',*,*,#565,.F.);
#785=ORIENTED_EDGE('',*,*,#555,.F.);
#786=ORIENTED_EDGE('',*,*,#495,.F.);
#787=ORIENTED_EDGE('',*,*,#556,.T.);
#788=ORIENTED_EDGE('',*,*,#484,.F.);
#789=ORIENTED_EDGE('',*,*,#479,.F.);
#790=ORIENTED_EDGE('',*,*,#567,.T.);
#791=ORIENTED_EDGE('',*,*,#511,.T.);
#792=ORIENTED_EDGE('',*,*,#489,.T.);
#793=ORIENTED_EDGE('',*,*,#491,.F.);
#794=ORIENTED_EDGE('',*,*,#474,.F.);
#795=ORIENTED_EDGE('',*,*,#559,.F.);
#796=ORIENTED_EDGE('',*,*,#557,.T.);
#797=ORIENTED_EDGE('',*,*,#546,.F.);
#798=ORIENTED_EDGE('',*,*,#544,.F.);
#799=ORIENTED_EDGE('',*,*,#549,.F.);
#800=ORIENTED_EDGE('',*,*,#551,.F.);
#801=ORIENTED_EDGE('',*,*,#553,.T.);
#802=ORIENTED_EDGE('',*,*,#554,.F.);
#803=ORIENTED_EDGE('',*,*,#567,.F.);
#804=ORIENTED_EDGE('',*,*,#478,.T.);
#805=ORIENTED_EDGE('',*,*,#566,.T.);
#806=ORIENTED_EDGE('',*,*,#564,.F.);
#807=ORIENTED_EDGE('',*,*,#540,.F.);
#808=ORIENTED_EDGE('',*,*,#542,.F.);
#809=ORIENTED_EDGE('',*,*,#562,.F.);
#810=PLANE('',#898);
#811=PLANE('',#899);
#812=PLANE('',#904);
#813=PLANE('',#905);
#814=PLANE('',#906);
#815=PLANE('',#907);
#816=PLANE('',#908);
#817=PLANE('',#912);
#818=PLANE('',#913);
#819=PLANE('',#921);
#820=PLANE('',#922);
#821=PLANE('',#923);
#822=PLANE('',#924);
#823=PLANE('',#925);
#824=PLANE('',#926);
#825=PLANE('',#927);
#826=PLANE('',#928);
#827=PLANE('',#929);
#828=PLANE('',#938);
#829=PLANE('',#939);
#830=PLANE('',#940);
#831=PLANE('',#947);
#832=PLANE('',#948);
#833=PLANE('',#951);
#834=PLANE('',#952);
#835=PLANE('',#953);
#836=PLANE('',#954);
#837=PLANE('',#955);
#838=PLANE('',#956);
#839=PLANE('',#963);
#840=PLANE('',#964);
#841=ADVANCED_FACE('',(#69),#810,.F.);
#842=ADVANCED_FACE('',(#70,#27,#28,#29,#30),#811,.T.);
#843=ADVANCED_FACE('',(#71),#812,.T.);
#844=ADVANCED_FACE('',(#72),#813,.T.);
#845=ADVANCED_FACE('',(#73),#814,.F.);
#846=ADVANCED_FACE('',(#74),#815,.T.);
#847=ADVANCED_FACE('',(#75),#816,.T.);
#848=ADVANCED_FACE('',(#76),#15,.T.);
#849=ADVANCED_FACE('',(#77),#817,.T.);
#850=ADVANCED_FACE('',(#78,#31,#32,#33,#34,#35),#818,.T.);
#851=ADVANCED_FACE('',(#79),#819,.T.);
#852=ADVANCED_FACE('',(#80),#820,.F.);
#853=ADVANCED_FACE('',(#81),#821,.F.);
#854=ADVANCED_FACE('',(#82),#822,.F.);
#855=ADVANCED_FACE('',(#83),#823,.F.);
#856=ADVANCED_FACE('',(#84),#824,.F.);
#857=ADVANCED_FACE('',(#85),#825,.F.);
#858=ADVANCED_FACE('',(#86),#826,.F.);
#859=ADVANCED_FACE('',(#87),#827,.F.);
#860=ADVANCED_FACE('',(#88),#16,.F.);
#861=ADVANCED_FACE('',(#89),#17,.F.);
#862=ADVANCED_FACE('',(#90),#18,.F.);
#863=ADVANCED_FACE('',(#91),#19,.F.);
#864=ADVANCED_FACE('',(#92),#828,.T.);
#865=ADVANCED_FACE('',(#93,#36,#37),#829,.T.);
#866=ADVANCED_FACE('',(#94,#38,#39),#830,.T.);
#867=ADVANCED_FACE('',(#95),#20,.F.);
#868=ADVANCED_FACE('',(#96),#21,.F.);
#869=ADVANCED_FACE('',(#97),#22,.T.);
#870=ADVANCED_FACE('',(#98),#831,.T.);
#871=ADVANCED_FACE('',(#99),#832,.T.);
#872=ADVANCED_FACE('',(#100),#23,.T.);
#873=ADVANCED_FACE('',(#101),#833,.T.);
#874=ADVANCED_FACE('',(#102),#834,.T.);
#875=ADVANCED_FACE('',(#103),#835,.T.);
#876=ADVANCED_FACE('',(#104),#836,.T.);
#877=ADVANCED_FACE('',(#105),#837,.T.);
#878=ADVANCED_FACE('',(#106),#838,.T.);
#879=ADVANCED_FACE('',(#107),#24,.F.);
#880=ADVANCED_FACE('',(#108),#25,.F.);
#881=ADVANCED_FACE('',(#109),#26,.F.);
#882=ADVANCED_FACE('',(#110),#839,.F.);
#883=ADVANCED_FACE('',(#111,#40,#41,#42,#43,#44),#840,.F.);
#884=CLOSED_SHELL('',(#841,#842,#843,#844,#845,#846,#847,#848,#849,#850,
#851,#852,#853,#854,#855,#856,#857,#858,#859,#860,#861,#862,#863,#864,#865,
#866,#867,#868,#869,#870,#871,#872,#873,#874,#875,#876,#877,#878,#879,#880,
#881,#882,#883));
#885=DERIVED_UNIT_ELEMENT(#887,1.);
#886=DERIVED_UNIT_ELEMENT(#1448,-3.);
#887=(
MASS_UNIT()
NAMED_UNIT(*)
SI_UNIT(.KILO.,.GRAM.)
);
#888=DERIVED_UNIT((#885,#886));
#889=MEASURE_REPRESENTATION_ITEM('density measure',
POSITIVE_RATIO_MEASURE(7850.),#888);
#890=PROPERTY_DEFINITION_REPRESENTATION(#895,#892);
#891=PROPERTY_DEFINITION_REPRESENTATION(#896,#893);
#892=REPRESENTATION('material name',(#894),#1445);
#893=REPRESENTATION('density',(#889),#1445);
#894=DESCRIPTIVE_REPRESENTATION_ITEM('Steel','Steel');
#895=PROPERTY_DEFINITION('material property','material name',#1455);
#896=PROPERTY_DEFINITION('material property','density of part',#1455);
#897=AXIS2_PLACEMENT_3D('',#1198,#965,#966);
#898=AXIS2_PLACEMENT_3D('',#1199,#967,#968);
#899=AXIS2_PLACEMENT_3D('',#1208,#973,#974);
#900=AXIS2_PLACEMENT_3D('',#1231,#986,#987);
#901=AXIS2_PLACEMENT_3D('',#1237,#990,#991);
#902=AXIS2_PLACEMENT_3D('',#1243,#994,#995);
#903=AXIS2_PLACEMENT_3D('',#1249,#998,#999);
#904=AXIS2_PLACEMENT_3D('',#1250,#1000,#1001);
#905=AXIS2_PLACEMENT_3D('',#1256,#1005,#1006);
#906=AXIS2_PLACEMENT_3D('',#1262,#1010,#1011);
#907=AXIS2_PLACEMENT_3D('',#1268,#1015,#1016);
#908=AXIS2_PLACEMENT_3D('',#1274,#1020,#1021);
#909=AXIS2_PLACEMENT_3D('',#1282,#1026,#1027);
#910=AXIS2_PLACEMENT_3D('',#1284,#1028,#1029);
#911=AXIS2_PLACEMENT_3D('',#1287,#1031,#1032);
#912=AXIS2_PLACEMENT_3D('',#1288,#1033,#1034);
#913=AXIS2_PLACEMENT_3D('',#1290,#1036,#1037);
#914=AXIS2_PLACEMENT_3D('',#1304,#1044,#1045);
#915=AXIS2_PLACEMENT_3D('',#1308,#1047,#1048);
#916=AXIS2_PLACEMENT_3D('',#1319,#1054,#1055);
#917=AXIS2_PLACEMENT_3D('',#1321,#1056,#1057);
#918=AXIS2_PLACEMENT_3D('',#1323,#1058,#1059);
#919=AXIS2_PLACEMENT_3D('',#1325,#1060,#1061);
#920=AXIS2_PLACEMENT_3D('',#1327,#1062,#1063);
#921=AXIS2_PLACEMENT_3D('',#1328,#1064,#1065);
#922=AXIS2_PLACEMENT_3D('',#1330,#1067,#1068);
#923=AXIS2_PLACEMENT_3D('',#1336,#1072,#1073);
#924=AXIS2_PLACEMENT_3D('',#1340,#1076,#1077);
#925=AXIS2_PLACEMENT_3D('',#1346,#1081,#1082);
#926=AXIS2_PLACEMENT_3D('',#1350,#1085,#1086);
#927=AXIS2_PLACEMENT_3D('',#1356,#1090,#1091);
#928=AXIS2_PLACEMENT_3D('',#1360,#1094,#1095);
#929=AXIS2_PLACEMENT_3D('',#1366,#1099,#1100);
#930=AXIS2_PLACEMENT_3D('',#1370,#1103,#1104);
#931=AXIS2_PLACEMENT_3D('',#1371,#1105,#1106);
#932=AXIS2_PLACEMENT_3D('',#1372,#1107,#1108);
#933=AXIS2_PLACEMENT_3D('',#1373,#1109,#1110);
#934=AXIS2_PLACEMENT_3D('',#1374,#1111,#1112);
#935=AXIS2_PLACEMENT_3D('',#1375,#1113,#1114);
#936=AXIS2_PLACEMENT_3D('',#1376,#1115,#1116);
#937=AXIS2_PLACEMENT_3D('',#1377,#1117,#1118);
#938=AXIS2_PLACEMENT_3D('',#1378,#1119,#1120);
#939=AXIS2_PLACEMENT_3D('',#1381,#1123,#1124);
#940=AXIS2_PLACEMENT_3D('',#1382,#1125,#1126);
#941=AXIS2_PLACEMENT_3D('',#1384,#1128,#1129);
#942=AXIS2_PLACEMENT_3D('',#1387,#1131,#1132);
#943=AXIS2_PLACEMENT_3D('',#1388,#1133,#1134);
#944=AXIS2_PLACEMENT_3D('',#1391,#1136,#1137);
#945=AXIS2_PLACEMENT_3D('',#1392,#1138,#1139);
#946=AXIS2_PLACEMENT_3D('',#1396,#1141,#1142);
#947=AXIS2_PLACEMENT_3D('',#1398,#1144,#1145);
#948=AXIS2_PLACEMENT_3D('',#1402,#1148,#1149);
#949=AXIS2_PLACEMENT_3D('',#1406,#1152,#1153);
#950=AXIS2_PLACEMENT_3D('',#1409,#1155,#1156);
#951=AXIS2_PLACEMENT_3D('',#1410,#1157,#1158);
#952=AXIS2_PLACEMENT_3D('',#1414,#1161,#1162);
#953=AXIS2_PLACEMENT_3D('',#1418,#1165,#1166);
#954=AXIS2_PLACEMENT_3D('',#1420,#1168,#1169);
#955=AXIS2_PLACEMENT_3D('',#1424,#1172,#1173);
#956=AXIS2_PLACEMENT_3D('',#1427,#1176,#1177);
#957=AXIS2_PLACEMENT_3D('',#1428,#1178,#1179);
#958=AXIS2_PLACEMENT_3D('',#1431,#1181,#1182);
#959=AXIS2_PLACEMENT_3D('',#1432,#1183,#1184);
#960=AXIS2_PLACEMENT_3D('',#1435,#1186,#1187);
#961=AXIS2_PLACEMENT_3D('',#1436,#1188,#1189);
#962=AXIS2_PLACEMENT_3D('',#1439,#1191,#1192);
#963=AXIS2_PLACEMENT_3D('',#1440,#1193,#1194);
#964=AXIS2_PLACEMENT_3D('',#1442,#1196,#1197);
#965=DIRECTION('axis',(0.,0.,1.));
#966=DIRECTION('refdir',(1.,0.,0.));
#967=DIRECTION('center_axis',(-1.42686837107796E-14,-1.,0.));
#968=DIRECTION('ref_axis',(0.,0.,1.));
#969=DIRECTION('',(1.,-1.42686837107796E-14,0.));
#970=DIRECTION('',(0.,0.,1.));
#971=DIRECTION('',(1.,0.,0.));
#972=DIRECTION('',(0.,0.,-1.));
#973=DIRECTION('center_axis',(0.,0.,-1.));
#974=DIRECTION('ref_axis',(-1.,0.,0.));
#975=DIRECTION('',(0.,1.,0.));
#976=DIRECTION('',(1.,0.,0.));
#977=DIRECTION('',(1.,0.,0.));
#978=DIRECTION('',(-1.08142661492401E-14,1.,0.));
#979=DIRECTION('',(1.,0.,0.));
#980=DIRECTION('',(1.,0.,0.));
#981=DIRECTION('',(0.,1.,0.));
#982=DIRECTION('',(1.,1.42686837107796E-14,0.));
#983=DIRECTION('',(-1.08142661492401E-14,1.,0.));
#984=DIRECTION('',(0.766044443119387,0.642787609686052,0.));
#985=DIRECTION('',(-0.766044443119396,0.642787609686042,0.));
#986=DIRECTION('center_axis',(0.,0.,1.));
#987=DIRECTION('ref_axis',(-1.,0.,0.));
#988=DIRECTION('',(0.766044443119437,0.642787609685993,0.));
#989=DIRECTION('',(-0.766044443119464,0.64278760968596,0.));
#990=DIRECTION('center_axis',(0.,0.,1.));
#991=DIRECTION('ref_axis',(-1.,0.,0.));
#992=DIRECTION('',(0.766044443119349,0.642787609686097,0.));
#993=DIRECTION('',(-0.766044443119358,0.642787609686087,0.));
#994=DIRECTION('center_axis',(0.,0.,1.));
#995=DIRECTION('ref_axis',(-1.,0.,0.));
#996=DIRECTION('',(0.766044443119562,0.642787609685843,0.));
#997=DIRECTION('',(-0.766044443119579,0.642787609685823,0.));
#998=DIRECTION('center_axis',(0.,0.,1.));
#999=DIRECTION('ref_axis',(-1.,0.,0.));
#1000=DIRECTION('center_axis',(0.,-1.,0.));
#1001=DIRECTION('ref_axis',(0.,0.,-1.));
#1002=DIRECTION('',(0.,0.,-1.));
#1003=DIRECTION('',(1.,0.,0.));
#1004=DIRECTION('',(-4.75314232406283E-16,-3.01248794761566E-14,-1.));
#1005=DIRECTION('center_axis',(1.,0.,0.));
#1006=DIRECTION('ref_axis',(0.,0.,-1.));
#1007=DIRECTION('',(0.,1.,0.));
#1008=DIRECTION('',(0.,-0.0849527985078814,0.996384976816531));
#1009=DIRECTION('',(0.,-1.,0.));
#1010=DIRECTION('center_axis',(0.,-1.,0.));
#1011=DIRECTION('ref_axis',(0.,0.,-1.));
#1012=DIRECTION('',(0.,0.,-1.));
#1013=DIRECTION('',(1.,0.,0.));
#1014=DIRECTION('',(0.,0.,-1.));
#1015=DIRECTION('center_axis',(1.42686837107796E-14,-1.,0.));
#1016=DIRECTION('ref_axis',(0.,0.,1.));
#1017=DIRECTION('',(0.,0.,1.));
#1018=DIRECTION('',(1.,1.36642833800019E-14,0.));
#1019=DIRECTION('',(0.,0.,1.));
#1020=DIRECTION('center_axis',(1.,0.,0.));
#1021=DIRECTION('ref_axis',(0.,0.,-1.));
#1022=DIRECTION('',(0.,-1.,0.));
#1023=DIRECTION('',(0.,-0.0886736522220081,-0.99606073278772));
#1024=DIRECTION('',(0.,0.,1.));
#1025=DIRECTION('',(-1.42071868373315E-14,1.,0.));
#1026=DIRECTION('center_axis',(-1.08142661492401E-14,1.,0.));
#1027=DIRECTION('ref_axis',(-0.098286744815144,-2.13568601070063E-14,-0.995158136073681));
#1028=DIRECTION('center_axis',(0.,-1.,3.01248794761566E-14));
#1029=DIRECTION('ref_axis',(-0.098286744815144,-2.13568601070063E-14,-0.995158136073681));
#1030=DIRECTION('',(-1.08142661492401E-14,1.,0.));
#1031=DIRECTION('center_axis',(0.,1.,0.));
#1032=DIRECTION('ref_axis',(-0.098286744815144,-2.13568601070063E-14,-0.995158136073681));
#1033=DIRECTION('center_axis',(0.,1.,-3.01248794761566E-14));
#1034=DIRECTION('ref_axis',(-4.75314232406283E-16,-3.01248794761566E-14,
-1.));
#1035=DIRECTION('',(-4.75314232406283E-16,-3.01248794761566E-14,-1.));
#1036=DIRECTION('center_axis',(-1.,-1.08142661492401E-14,4.75314232406609E-16));
#1037=DIRECTION('ref_axis',(1.08142661492401E-14,-1.,6.32078170685644E-30));
#1038=DIRECTION('',(1.42071868373313E-14,-1.,0.));
#1039=DIRECTION('',(0.,0.,1.));
#1040=DIRECTION('',(4.85498632918595E-16,-0.0886736522220081,-0.99606073278772));
#1041=DIRECTION('',(0.,1.,0.));
#1042=DIRECTION('',(3.99333454015194E-16,-0.0807355799359511,-0.996735554764856));
#1043=DIRECTION('',(-4.75314232406609E-16,-1.14609563206233E-29,-1.));
#1044=DIRECTION('center_axis',(-1.,-1.08142661492401E-14,4.75314232406609E-16));
#1045=DIRECTION('ref_axis',(8.73566693565838E-15,-0.780303030302856,0.625401615684018));
#1046=DIRECTION('',(-1.08142661492401E-14,1.,-3.14697401670392E-14));
#1047=DIRECTION('center_axis',(-1.,-1.08142661492401E-14,4.75314232406609E-16));
#1048=DIRECTION('ref_axis',(-6.39237038627978E-15,0.625401615684104,0.780303030302787));
#1049=DIRECTION('',(-4.75314232406283E-16,-3.01248794761566E-14,-1.));
#1050=DIRECTION('',(1.5622712381393E-15,-0.100734971170393,0.994913295510368));
#1051=DIRECTION('',(0.,-1.,0.));
#1052=DIRECTION('',(1.39229813362403E-15,-0.0849527985078814,0.996384976816531));
#1053=DIRECTION('',(0.,1.,0.));
#1054=DIRECTION('center_axis',(-1.,-1.08142661492401E-14,4.75314232406609E-16));
#1055=DIRECTION('ref_axis',(0.,-1.,6.32078170685644E-30));
#1056=DIRECTION('center_axis',(1.,1.08142661492401E-14,-4.75314232406609E-16));
#1057=DIRECTION('ref_axis',(0.,-1.,6.32078170685644E-30));
#1058=DIRECTION('center_axis',(1.,1.08142661492401E-14,-4.75314232406609E-16));
#1059=DIRECTION('ref_axis',(0.,-1.,6.32078170685644E-30));
#1060=DIRECTION('center_axis',(1.,1.08142661492401E-14,-4.75314232406609E-16));
#1061=DIRECTION('ref_axis',(0.,-1.,0.));
#1062=DIRECTION('center_axis',(-1.,-1.08142661492401E-14,4.75314232406609E-16));
#1063=DIRECTION('ref_axis',(0.,-1.,6.32078170685644E-30));
#1064=DIRECTION('center_axis',(0.,-1.,0.));
#1065=DIRECTION('ref_axis',(0.,0.,-1.));
#1066=DIRECTION('',(0.,0.,-1.));
#1067=DIRECTION('center_axis',(0.642787609685993,-0.766044443119437,0.));
#1068=DIRECTION('ref_axis',(-0.766044443119437,-0.642787609685993,0.));
#1069=DIRECTION('',(-0.766044443119437,-0.642787609685993,0.));
#1070=DIRECTION('',(0.,0.,-1.));
#1071=DIRECTION('',(0.,0.,1.));
#1072=DIRECTION('center_axis',(0.64278760968596,0.766044443119464,0.));
#1073=DIRECTION('ref_axis',(0.766044443119464,-0.64278760968596,0.));
#1074=DIRECTION('',(0.766044443119464,-0.64278760968596,0.));
#1075=DIRECTION('',(0.,0.,1.));
#1076=DIRECTION('center_axis',(0.642787609686052,-0.766044443119387,0.));
#1077=DIRECTION('ref_axis',(-0.766044443119387,-0.642787609686052,0.));
#1078=DIRECTION('',(-0.766044443119387,-0.642787609686052,0.));
#1079=DIRECTION('',(0.,0.,-1.));
#1080=DIRECTION('',(0.,0.,1.));
#1081=DIRECTION('center_axis',(0.642787609686042,0.766044443119396,0.));
#1082=DIRECTION('ref_axis',(0.766044443119396,-0.642787609686042,0.));
#1083=DIRECTION('',(0.766044443119396,-0.642787609686042,0.));
#1084=DIRECTION('',(0.,0.,1.));
#1085=DIRECTION('center_axis',(0.642787609686097,-0.766044443119349,0.));
#1086=DIRECTION('ref_axis',(-0.766044443119349,-0.642787609686097,0.));
#1087=DIRECTION('',(-0.766044443119349,-0.642787609686097,0.));
#1088=DIRECTION('',(0.,0.,-1.));
#1089=DIRECTION('',(0.,0.,1.));
#1090=DIRECTION('center_axis',(0.642787609686087,0.766044443119358,0.));
#1091=DIRECTION('ref_axis',(0.766044443119358,-0.642787609686087,0.));
#1092=DIRECTION('',(0.766044443119358,-0.642787609686087,0.));
#1093=DIRECTION('',(0.,0.,1.));
#1094=DIRECTION('center_axis',(0.642787609685843,-0.766044443119562,0.));
#1095=DIRECTION('ref_axis',(-0.766044443119562,-0.642787609685843,0.));
#1096=DIRECTION('',(-0.766044443119562,-0.642787609685843,0.));
#1097=DIRECTION('',(0.,0.,-1.));
#1098=DIRECTION('',(0.,0.,1.));
#1099=DIRECTION('center_axis',(0.642787609685824,0.766044443119579,0.));
#1100=DIRECTION('ref_axis',(0.766044443119579,-0.642787609685823,0.));
#1101=DIRECTION('',(0.766044443119579,-0.642787609685823,0.));
#1102=DIRECTION('',(0.,0.,1.));
#1103=DIRECTION('center_axis',(0.,0.,-1.));
#1104=DIRECTION('ref_axis',(-1.,0.,0.));
#1105=DIRECTION('center_axis',(0.,0.,-1.));
#1106=DIRECTION('ref_axis',(-1.,0.,0.));
#1107=DIRECTION('center_axis',(0.,0.,-1.));
#1108=DIRECTION('ref_axis',(-1.,0.,0.));
#1109=DIRECTION('center_axis',(0.,0.,-1.));
#1110=DIRECTION('ref_axis',(-1.,0.,0.));
#1111=DIRECTION('center_axis',(0.,0.,-1.));
#1112=DIRECTION('ref_axis',(-1.,0.,0.));
#1113=DIRECTION('center_axis',(0.,0.,-1.));
#1114=DIRECTION('ref_axis',(1.,0.,0.));
#1115=DIRECTION('center_axis',(0.,0.,-1.));
#1116=DIRECTION('ref_axis',(-1.,0.,0.));
#1117=DIRECTION('center_axis',(0.,0.,-1.));
#1118=DIRECTION('ref_axis',(1.,0.,0.));
#1119=DIRECTION('center_axis',(-2.73285667600038E-15,1.,0.));
#1120=DIRECTION('ref_axis',(-1.,-2.73285667600038E-15,0.));
#1121=DIRECTION('',(-1.,0.,0.));
#1122=DIRECTION('',(-1.,-2.73285667600038E-15,0.));
#1123=DIRECTION('center_axis',(0.,0.,1.));
#1124=DIRECTION('ref_axis',(-1.,0.,0.));
#1125=DIRECTION('center_axis',(0.,0.,1.));
#1126=DIRECTION('ref_axis',(1.,0.,0.));
#1127=DIRECTION('',(-1.,0.,0.));
#1128=DIRECTION('center_axis',(-1.,0.,0.));
#1129=DIRECTION('ref_axis',(0.,-1.,6.32078170685644E-30));
#1130=DIRECTION('',(1.,0.,0.));
#1131=DIRECTION('center_axis',(1.,1.08142661492401E-14,-4.75314232406609E-16));
#1132=DIRECTION('ref_axis',(1.08142661492401E-14,-1.,6.32078170685644E-30));
#1133=DIRECTION('center_axis',(-1.,0.,0.));
#1134=DIRECTION('ref_axis',(0.,-1.,6.32078170685644E-30));
#1135=DIRECTION('',(1.,0.,0.));
#1136=DIRECTION('center_axis',(1.,1.08142661492401E-14,-4.75314232406609E-16));
#1137=DIRECTION('ref_axis',(1.08142661492401E-14,-1.,6.32078170685644E-30));
#1138=DIRECTION('center_axis',(-1.,0.,0.));
#1139=DIRECTION('ref_axis',(0.,0.625401615684104,0.780303030302787));
#1140=DIRECTION('',(1.,0.,0.));
#1141=DIRECTION('center_axis',(-1.,-1.08142661492401E-14,4.75314232406609E-16));
#1142=DIRECTION('ref_axis',(-6.39237038627978E-15,0.625401615684104,0.780303030302787));
#1143=DIRECTION('',(1.,0.,0.));
#1144=DIRECTION('center_axis',(0.,1.,-3.01248794761566E-14));
#1145=DIRECTION('ref_axis',(-4.75314232406283E-16,-3.01248794761566E-14,
-1.));
#1146=DIRECTION('',(-4.75314232406283E-16,-3.01248794761566E-14,-1.));
#1147=DIRECTION('',(1.,0.,0.));
#1148=DIRECTION('center_axis',(0.,3.14697401670392E-14,1.));
#1149=DIRECTION('ref_axis',(-1.08142661492401E-14,1.,-3.14697401670392E-14));
#1150=DIRECTION('',(1.,0.,0.));
#1151=DIRECTION('',(-1.08142661492401E-14,1.,-3.14697401670392E-14));
#1152=DIRECTION('center_axis',(-1.,0.,0.));
#1153=DIRECTION('ref_axis',(0.,-0.780303030302856,0.625401615684018));
#1154=DIRECTION('',(1.,0.,0.));
#1155=DIRECTION('center_axis',(-1.,-1.08142661492401E-14,4.75314232406609E-16));
#1156=DIRECTION('ref_axis',(8.73566693565838E-15,-0.780303030302856,0.625401615684018));
#1157=DIRECTION('center_axis',(0.,-1.,0.));
#1158=DIRECTION('ref_axis',(0.,0.,-1.));
#1159=DIRECTION('',(-1.,0.,0.));
#1160=DIRECTION('',(0.,0.,-1.));
#1161=DIRECTION('center_axis',(0.,-0.996735554764856,0.0807355799359511));
#1162=DIRECTION('ref_axis',(0.,-0.0807355799359511,-0.996735554764856));
#1163=DIRECTION('',(-3.99333454015194E-16,0.0807355799359511,0.996735554764856));
#1164=DIRECTION('',(1.,0.,0.));
#1165=DIRECTION('center_axis',(0.,-0.99606073278772,0.0886736522220081));
#1166=DIRECTION('ref_axis',(0.,-0.0886736522220081,-0.99606073278772));
#1167=DIRECTION('',(1.,0.,0.));
#1168=DIRECTION('center_axis',(0.,0.994913295510368,0.100734971170393));
#1169=DIRECTION('ref_axis',(0.,-0.100734971170393,0.994913295510368));
#1170=DIRECTION('',(-1.5622712381393E-15,0.100734971170393,-0.994913295510368));
#1171=DIRECTION('',(-1.,0.,0.));
#1172=DIRECTION('center_axis',(0.,0.,1.));
#1173=DIRECTION('ref_axis',(0.,-1.,0.));
#1174=DIRECTION('',(1.08142661492401E-14,-1.,0.));
#1175=DIRECTION('',(1.,0.,0.));
#1176=DIRECTION('center_axis',(0.,0.996384976816531,0.0849527985078814));
#1177=DIRECTION('ref_axis',(0.,-0.0849527985078814,0.996384976816531));
#1178=DIRECTION('center_axis',(-1.,0.,0.));
#1179=DIRECTION('ref_axis',(0.,-1.,6.32078170685644E-30));
#1180=DIRECTION('',(1.,0.,0.));
#1181=DIRECTION('center_axis',(1.,1.08142661492401E-14,-4.75314232406609E-16));
#1182=DIRECTION('ref_axis',(1.08142661492401E-14,-1.,6.32078170685644E-30));
#1183=DIRECTION('center_axis',(-1.,0.,0.));
#1184=DIRECTION('ref_axis',(0.,-1.,6.32078170685644E-30));
#1185=DIRECTION('',(1.,0.,0.));
#1186=DIRECTION('center_axis',(1.,1.08142661492401E-14,-4.75314232406609E-16));
#1187=DIRECTION('ref_axis',(1.08142661492401E-14,-1.,6.32078170685644E-30));
#1188=DIRECTION('center_axis',(1.,0.,0.));
#1189=DIRECTION('ref_axis',(0.,-1.,0.));
#1190=DIRECTION('',(1.,0.,0.));
#1191=DIRECTION('center_axis',(-1.,-1.08142661492401E-14,4.75314232406609E-16));
#1192=DIRECTION('ref_axis',(0.,-1.,0.));
#1193=DIRECTION('center_axis',(0.,0.,-1.));
#1194=DIRECTION('ref_axis',(0.,1.,0.));
#1195=DIRECTION('',(1.08142661492401E-14,-1.,0.));
#1196=DIRECTION('center_axis',(-1.,-1.08142661492401E-14,4.75314232406609E-16));
#1197=DIRECTION('ref_axis',(1.08142661492401E-14,-1.,6.32078170685644E-30));
#1198=CARTESIAN_POINT('',(0.,0.,0.));
#1199=CARTESIAN_POINT('Origin',(169.96424039965,472.806304923667,23.0732432891418));
#1200=CARTESIAN_POINT('',(156.923740399649,472.806304923666,21.2362432891418));
#1201=CARTESIAN_POINT('',(182.923740399649,472.806304923666,21.2362432891418));
#1202=CARTESIAN_POINT('',(169.96424039965,472.806304923667,21.2362432891418));
#1203=CARTESIAN_POINT('',(156.923740399649,472.806304923666,25.0172432891418));
#1204=CARTESIAN_POINT('',(156.923740399649,472.806304923666,24.9102432891418));
#1205=CARTESIAN_POINT('',(182.923740399649,472.806304923666,25.0172432891418));
#1206=CARTESIAN_POINT('',(168.423740399649,472.806304923666,25.0172432891418));
#1207=CARTESIAN_POINT('',(182.923740399649,472.806304923666,33.1294932891418));
#1208=CARTESIAN_POINT('Origin',(168.423740399649,406.306304923666,21.2362432891418));
#1209=CARTESIAN_POINT('',(182.923740399649,449.806304923666,21.2362432891418));
#1210=CARTESIAN_POINT('',(182.923740399649,428.806304923666,21.2362432891418));
#1211=CARTESIAN_POINT('',(159.923740399649,449.806304923675,21.2362432891418));
#1212=CARTESIAN_POINT('',(164.173740399649,449.806304923652,21.2362432891418));
#1213=CARTESIAN_POINT('',(159.923223730929,449.806304923652,21.2362432891418));
#1214=CARTESIAN_POINT('',(164.173740399649,449.806304923652,21.2362432891418));
#1215=CARTESIAN_POINT('',(159.92322373093,407.806304923658,21.2362432891418));
#1216=CARTESIAN_POINT('',(159.923223730929,418.306304923659,21.2362432891418));
#1217=CARTESIAN_POINT('',(159.923740399649,407.806304923658,21.2362432891418));
#1218=CARTESIAN_POINT('',(162.673740399649,407.806304923658,21.2362432891418));
#1219=CARTESIAN_POINT('',(182.923740399649,407.806304923666,21.2362432891418));
#1220=CARTESIAN_POINT('',(164.173740399649,407.806304923666,21.2362432891418));
#1221=CARTESIAN_POINT('',(182.92374039965,384.806304923666,21.2362432891418));
#1222=CARTESIAN_POINT('',(182.92374039965,406.306304923666,21.2362432891418));
#1223=CARTESIAN_POINT('',(156.923740399649,384.806304923666,21.2362432891418));
#1224=CARTESIAN_POINT('',(169.96424039965,384.806304923666,21.2362432891418));
#1225=CARTESIAN_POINT('',(156.923740399649,417.556304923663,21.2362432891418));
#1226=CARTESIAN_POINT('',(170.92842181418,455.439733383294,21.2362432891418));
#1227=CARTESIAN_POINT('',(172.297826139942,456.588800047972,21.2362432891418));
#1228=CARTESIAN_POINT('',(169.86056218422,454.543692761647,21.2362432891418));
#1229=CARTESIAN_POINT('',(170.92842181418,457.73786671265,21.2362432891418));
#1230=CARTESIAN_POINT('',(171.776981098171,457.025840930422,21.2362432891418));
#1231=CARTESIAN_POINT('Origin',(169.964240399649,456.588800047972,21.2362432891418));
#1232=CARTESIAN_POINT('',(170.92842181418,466.408950228346,21.2362432891418));
#1233=CARTESIAN_POINT('',(172.297826139942,467.558016893024,21.2362432891418));
#1234=CARTESIAN_POINT('',(167.15991973585,463.246801524334,21.2362432891418));
#1235=CARTESIAN_POINT('',(170.92842181418,468.707083557702,21.2362432891418));
#1236=CARTESIAN_POINT('',(174.47762354654,465.72894969311,21.2362432891418));
#1237=CARTESIAN_POINT('Origin',(169.964240399649,467.558016893024,21.2362432891418));
#1238=CARTESIAN_POINT('',(170.92842181418,399.672528619124,21.2362432891418));
#1239=CARTESIAN_POINT('',(172.297826139942,400.821595283802,21.2362432891418));
#1240=CARTESIAN_POINT('',(172.511468866725,401.00086281705,21.2362432891418));
#1241=CARTESIAN_POINT('',(170.92842181418,401.97066194848,21.2362432891418));
#1242=CARTESIAN_POINT('',(169.126074415665,403.483010985825,21.2362432891418));
#1243=CARTESIAN_POINT('Origin',(169.964240399649,400.821595283802,21.2362432891418));
#1244=CARTESIAN_POINT('',(170.92842181418,387.564047487831,21.2362432891418));
#1245=CARTESIAN_POINT('',(172.297826139942,388.713114152509,21.2362432891418));
#1246=CARTESIAN_POINT('',(175.492600390549,391.393848047882,21.2362432891418));
#1247=CARTESIAN_POINT('',(170.92842181418,389.862180817186,21.2362432891418));
#1248=CARTESIAN_POINT('',(166.144942891841,393.875996216658,21.2362432891418));
#1249=CARTESIAN_POINT('Origin',(169.964240399649,388.713114152509,21.2362432891418));
#1250=CARTESIAN_POINT('Origin',(168.423740399649,449.806304923666,43.1857432891418));
#1251=CARTESIAN_POINT('',(182.923740399649,449.806304923666,50.6092432891418));
#1252=CARTESIAN_POINT('',(182.923740399649,449.806304923666,35.7622432891418));
#1253=CARTESIAN_POINT('',(159.923740399649,449.806304923666,50.6092432891418));
#1254=CARTESIAN_POINT('',(168.423740399649,449.806304923666,50.6092432891418));
#1255=CARTESIAN_POINT('',(159.923740399649,449.806304923653,58.6969677246543));
#1256=CARTESIAN_POINT('Origin',(182.923740399649,451.306304923666,43.1857432891418));
#1257=CARTESIAN_POINT('',(182.923740399649,452.806304923666,25.0172432891418));
#1258=CARTESIAN_POINT('',(182.923740399649,457.056304923667,25.0172432891418));
#1259=CARTESIAN_POINT('',(182.923740399649,450.624304923666,50.6092432891418));
#1260=CARTESIAN_POINT('',(182.923740399649,451.486449561074,40.4974167261074));
#1261=CARTESIAN_POINT('',(182.923740399649,451.306304923666,50.6092432891418));
#1262=CARTESIAN_POINT('Origin',(168.423740399649,407.806304923666,43.1857432891418));
#1263=CARTESIAN_POINT('',(159.923740399649,407.806304923666,50.6092432891418));
#1264=CARTESIAN_POINT('',(159.923740399649,407.806304923658,21.1851922196736));
#1265=CARTESIAN_POINT('',(182.923740399649,407.806304923666,50.6092432891418));
#1266=CARTESIAN_POINT('',(179.923740399649,407.806304923666,50.6092432891418));
#1267=CARTESIAN_POINT('',(182.923740399649,407.806304923666,21.2362432891418));
#1268=CARTESIAN_POINT('Origin',(169.96424039965,384.806304923666,23.0732432891418));
#1269=CARTESIAN_POINT('',(182.92374039965,384.806304923666,25.0172432891418));
#1270=CARTESIAN_POINT('',(182.92374039965,384.806304923666,33.1294932891418));
#1271=CARTESIAN_POINT('',(156.92374039965,384.806304923666,25.0172432891418));
#1272=CARTESIAN_POINT('',(156.92374039965,384.806304923666,25.0172432891418));
#1273=CARTESIAN_POINT('',(156.92374039965,384.806304923666,23.0732432891418));
#1274=CARTESIAN_POINT('Origin',(182.92374039965,406.306304923666,43.1857432891418));
#1275=CARTESIAN_POINT('',(182.923740399649,407.099304923666,50.6092432891418));
#1276=CARTESIAN_POINT('',(182.923740399649,406.306304923666,50.6092432891418));
#1277=CARTESIAN_POINT('',(182.923740399649,404.811468335554,24.9102432891418));
#1278=CARTESIAN_POINT('',(182.923740399649,406.195099357413,40.452408238997));
#1279=CARTESIAN_POINT('',(182.923740399649,404.811468335554,25.0172432891418));
#1280=CARTESIAN_POINT('',(182.923740399649,404.811468335554,24.9102432891418));
#1281=CARTESIAN_POINT('',(182.92374039965,384.806304923666,25.0172432891418));
#1282=CARTESIAN_POINT('Origin',(160.250740399649,418.306304923659,24.5470833383908));
#1283=CARTESIAN_POINT('',(159.923740399649,449.806304923651,21.2361922196736));
#1284=CARTESIAN_POINT('Origin',(160.250740399649,449.806304923653,24.5470833383908));
#1285=CARTESIAN_POINT('',(159.923740399649,407.806304923658,21.2361922196736));
#1286=CARTESIAN_POINT('',(159.923740399649,418.306304923659,21.2361922196736));
#1287=CARTESIAN_POINT('Origin',(160.250740399649,407.806304923658,24.5470833383908));
#1288=CARTESIAN_POINT('Origin',(159.923740399649,449.806304923653,58.6969677246543));
#1289=CARTESIAN_POINT('',(159.923740399649,449.806304923653,58.6969677246543));
#1290=CARTESIAN_POINT('Origin',(156.923740399649,428.80630492366,42.1863650705965));
#1291=CARTESIAN_POINT('',(156.923740399649,404.811468335554,25.0172432891418));
#1292=CARTESIAN_POINT('',(156.923740399649,404.811468335554,25.0172432891418));
#1293=CARTESIAN_POINT('',(156.923740399649,404.811468335554,24.9102432891418));
#1294=CARTESIAN_POINT('',(156.923740399649,404.811468335554,24.9102432891418));
#1295=CARTESIAN_POINT('',(156.923740399649,407.099304923666,50.6092432891418));
#1296=CARTESIAN_POINT('',(156.923740399649,406.239423581859,40.9502970523604));
#1297=CARTESIAN_POINT('',(156.923740399649,407.158304923658,50.6092432891418));
#1298=CARTESIAN_POINT('',(156.923740399649,406.306304923666,50.6092432891418));
#1299=CARTESIAN_POINT('',(156.923740399649,407.806304923666,58.6092432891418));
#1300=CARTESIAN_POINT('',(156.923740399649,407.051955261938,49.2962845024686));
#1301=CARTESIAN_POINT('',(156.923740399649,407.806304923658,58.8368905878239));
#1302=CARTESIAN_POINT('',(156.923740399649,407.806304923666,42.1988218578638));
#1303=CARTESIAN_POINT('',(156.923740399649,412.155779406419,63.1863650705885));
#1304=CARTESIAN_POINT('Origin',(156.923740399649,428.806304923663,42.186365070598));
#1305=CARTESIAN_POINT('',(156.923740399649,445.456830440903,63.1863650705874));
#1306=CARTESIAN_POINT('',(156.923740399649,412.295702269598,63.1863650705885));
#1307=CARTESIAN_POINT('',(156.923740399649,449.806304923653,58.8368905878372));
#1308=CARTESIAN_POINT('Origin',(156.923740399649,428.806304923663,42.186365070598));
#1309=CARTESIAN_POINT('',(156.923740399649,449.806304923653,58.6092432891418));
#1310=CARTESIAN_POINT('',(156.923740399649,449.806304923653,58.6969677246543));
#1311=CARTESIAN_POINT('',(156.923740399649,450.616304923653,50.6092432891418));
#1312=CARTESIAN_POINT('',(156.923740399649,450.725227278668,49.5334669433137));
#1313=CARTESIAN_POINT('',(156.923740399649,450.624304923666,50.6092432891418));
#1314=CARTESIAN_POINT('',(156.923740399649,451.306304923666,50.6092432891418));
#1315=CARTESIAN_POINT('',(156.923740399649,452.806304923666,25.0172432891418));
#1316=CARTESIAN_POINT('',(156.923740399649,451.447555089388,40.9535978990632));
#1317=CARTESIAN_POINT('',(156.923740399649,452.806304923666,25.0172432891418));
#1318=CARTESIAN_POINT('',(156.923740399649,415.006304923663,57.6863650705985));
#1319=CARTESIAN_POINT('Origin',(156.923740399649,413.306304923663,57.6863650705985));
#1320=CARTESIAN_POINT('',(156.923740399649,415.006304923662,26.6863650705986));
#1321=CARTESIAN_POINT('Origin',(156.923740399649,413.306304923662,26.6863650705986));
#1322=CARTESIAN_POINT('',(156.923740399649,446.006304923662,26.6863650705976));
#1323=CARTESIAN_POINT('Origin',(156.923740399649,444.306304923662,26.6863650705976));
#1324=CARTESIAN_POINT('',(156.923740399649,440.69807509389,42.1863650705981));
#1325=CARTESIAN_POINT('Origin',(156.923740399649,428.806304923661,42.1863650705981));
#1326=CARTESIAN_POINT('',(156.923740399649,446.006304923663,57.6863650705975));
#1327=CARTESIAN_POINT('Origin',(156.923740399649,444.306304923663,57.6863650705975));
#1328=CARTESIAN_POINT('Origin',(156.923740399649,407.806304923658,25.6757624165488));
#1329=CARTESIAN_POINT('',(159.923740399649,407.806304923658,21.1851922196736));
#1330=CARTESIAN_POINT('Origin',(172.297826139942,467.558016893024,25.0172432891418));
#1331=CARTESIAN_POINT('',(172.297826139942,467.558016893024,25.0172432891418));
#1332=CARTESIAN_POINT('',(170.92842181418,466.408950228346,25.0172432891418));
#1333=CARTESIAN_POINT('',(164.154984132434,460.725361167799,25.0172432891418));
#1334=CARTESIAN_POINT('',(172.297826139942,467.558016893024,25.0172432891418));
#1335=CARTESIAN_POINT('',(170.928421814178,466.408950228345,24.9102432891418));
#1336=CARTESIAN_POINT('Origin',(170.92842181418,468.707083557702,25.0172432891418));
#1337=CARTESIAN_POINT('',(170.92842181418,468.707083557702,25.0172432891418));
#1338=CARTESIAN_POINT('',(170.734082128363,468.870153916393,25.0172432891418));
#1339=CARTESIAN_POINT('',(170.928421814178,468.707083557703,24.9102432891418));
#1340=CARTESIAN_POINT('Origin',(172.297826139942,456.588800047972,25.0172432891418));
#1341=CARTESIAN_POINT('',(172.297826139942,456.588800047972,25.0172432891418));
#1342=CARTESIAN_POINT('',(170.92842181418,455.439733383294,25.0172432891418));
#1343=CARTESIAN_POINT('',(166.855626580803,452.022252405112,25.0172432891418));
#1344=CARTESIAN_POINT('',(172.297826139942,456.588800047972,25.0172432891418));
#1345=CARTESIAN_POINT('',(170.928421814178,455.439733383293,24.9102432891418));
#1346=CARTESIAN_POINT('Origin',(170.92842181418,457.73786671265,25.0172432891418));
#1347=CARTESIAN_POINT('',(170.92842181418,457.73786671265,25.0172432891418));
#1348=CARTESIAN_POINT('',(168.033439679995,460.167045153706,25.0172432891418));
#1349=CARTESIAN_POINT('',(170.928421814178,457.737866712651,24.9102432891418));
#1350=CARTESIAN_POINT('Origin',(172.297826139942,400.821595283802,25.0172432891418));
#1351=CARTESIAN_POINT('',(172.297826139942,400.821595283802,25.0172432891418));
#1352=CARTESIAN_POINT('',(170.92842181418,399.672528619124,25.0172432891418));
#1353=CARTESIAN_POINT('',(170.120900264449,398.994937584578,25.0172432891418));
#1354=CARTESIAN_POINT('',(172.297826139942,400.821595283802,25.0172432891418));
#1355=CARTESIAN_POINT('',(170.928421814179,399.672528619123,24.9102432891418));
#1356=CARTESIAN_POINT('Origin',(170.92842181418,401.97066194848,25.0172432891418));
#1357=CARTESIAN_POINT('',(170.92842181418,401.97066194848,25.0172432891418));
#1358=CARTESIAN_POINT('',(172.396879151193,400.738479938594,25.0172432891418));
#1359=CARTESIAN_POINT('',(170.928421814178,401.970661948481,24.9102432891418));
#1360=CARTESIAN_POINT('Origin',(172.297826139942,388.713114152509,25.0172432891418));
#1361=CARTESIAN_POINT('',(172.297826139942,388.713114152509,25.0172432891418));
#1362=CARTESIAN_POINT('',(170.92842181418,387.564047487831,25.0172432891418));
#1363=CARTESIAN_POINT('',(173.102031788273,389.387922815412,25.0172432891418));
#1364=CARTESIAN_POINT('',(172.297826139942,388.713114152509,25.0172432891418));
#1365=CARTESIAN_POINT('',(170.928421814178,387.56404748783,24.9102432891418));
#1366=CARTESIAN_POINT('Origin',(170.92842181418,389.862180817186,25.0172432891418));
#1367=CARTESIAN_POINT('',(170.92842181418,389.862180817186,25.0172432891418));
#1368=CARTESIAN_POINT('',(169.415747627369,391.131465169429,25.0172432891418));
#1369=CARTESIAN_POINT('',(170.928421814178,389.862180817188,24.9102432891418));
#1370=CARTESIAN_POINT('Origin',(169.964240399649,467.558016893024,24.9102432891418));
#1371=CARTESIAN_POINT('Origin',(169.964240399649,467.558016893024,25.0172432891418));
#1372=CARTESIAN_POINT('Origin',(169.964240399649,456.588800047972,24.9102432891418));
#1373=CARTESIAN_POINT('Origin',(169.964240399649,456.588800047972,25.0172432891418));
#1374=CARTESIAN_POINT('Origin',(169.964240399649,400.821595283802,24.9102432891418));
#1375=CARTESIAN_POINT('Origin',(169.964240399649,400.821595283802,25.0172432891418));
#1376=CARTESIAN_POINT('Origin',(169.964240399649,388.713114152509,24.9102432891418));
#1377=CARTESIAN_POINT('Origin',(169.964240399649,388.713114152509,25.0172432891418));
#1378=CARTESIAN_POINT('Origin',(182.923740399649,404.811468335554,24.9102432891418));
#1379=CARTESIAN_POINT('',(174.943990399649,404.811468335554,24.9102432891418));
#1380=CARTESIAN_POINT('',(182.923740399649,404.811468335554,25.0172432891418));
#1381=CARTESIAN_POINT('Origin',(169.923740399649,394.80888662961,25.0172432891418));
#1382=CARTESIAN_POINT('Origin',(156.923740399649,452.806304923666,25.0172432891418));
#1383=CARTESIAN_POINT('',(168.423740399649,452.806304923666,25.0172432891418));
#1384=CARTESIAN_POINT('Origin',(159.923740399649,413.306304923662,26.6863650705986));
#1385=CARTESIAN_POINT('',(159.923740399649,415.006304923662,26.6863650705986));
#1386=CARTESIAN_POINT('',(159.923740399649,415.006304923662,26.6863650705986));
#1387=CARTESIAN_POINT('Origin',(159.923740399649,413.306304923662,26.6863650705986));
#1388=CARTESIAN_POINT('Origin',(159.923740399649,444.306304923662,26.6863650705976));
#1389=CARTESIAN_POINT('',(159.923740399649,446.006304923662,26.6863650705976));
#1390=CARTESIAN_POINT('',(159.923740399649,446.006304923662,26.6863650705976));
#1391=CARTESIAN_POINT('Origin',(159.923740399649,444.306304923662,26.6863650705976));
#1392=CARTESIAN_POINT('Origin',(159.923740399649,428.806304923663,42.186365070598));
#1393=CARTESIAN_POINT('',(159.923740399649,445.456830440903,63.1863650705874));
#1394=CARTESIAN_POINT('',(159.923740399649,445.456830440903,63.1863650705874));
#1395=CARTESIAN_POINT('',(159.923740399649,449.806304923653,58.8368905878372));
#1396=CARTESIAN_POINT('Origin',(159.923740399649,428.806304923663,42.186365070598));
#1397=CARTESIAN_POINT('',(159.923740399649,449.806304923653,58.8368905878372));
#1398=CARTESIAN_POINT('Origin',(159.923740399649,449.806304923653,58.6969677246543));
#1399=CARTESIAN_POINT('',(159.923740399649,449.806304923653,58.6092432891418));
#1400=CARTESIAN_POINT('',(159.923740399649,449.806304923653,58.6969677246543));
#1401=CARTESIAN_POINT('',(164.173740399649,449.806304923653,58.6092432891418));
#1402=CARTESIAN_POINT('Origin',(159.923740399649,412.295702269598,63.1863650705885));
#1403=CARTESIAN_POINT('',(159.923740399649,412.155779406419,63.1863650705885));
#1404=CARTESIAN_POINT('',(159.923740399649,412.155779406419,63.1863650705885));
#1405=CARTESIAN_POINT('',(159.923740399649,412.295702269598,63.1863650705885));
#1406=CARTESIAN_POINT('Origin',(159.923740399649,428.806304923663,42.186365070598));
#1407=CARTESIAN_POINT('',(159.923740399649,407.806304923658,58.8368905878239));
#1408=CARTESIAN_POINT('',(159.923740399649,407.806304923658,58.8368905878239));
#1409=CARTESIAN_POINT('Origin',(159.923740399649,428.806304923663,42.186365070598));
#1410=CARTESIAN_POINT('Origin',(156.923740399649,407.806304923658,25.6757624165488));
#1411=CARTESIAN_POINT('',(159.923740399649,407.806304923658,58.6092432891418));
#1412=CARTESIAN_POINT('',(162.673740399649,407.806304923658,58.6092432891418));
#1413=CARTESIAN_POINT('',(159.923740399649,407.806304923658,21.1851922196736));
#1414=CARTESIAN_POINT('Origin',(162.673740399649,407.482304923658,54.6092432891418));
#1415=CARTESIAN_POINT('',(159.923740399649,407.158304923658,50.6092432891418));
#1416=CARTESIAN_POINT('',(159.923740399649,407.051955261938,49.2962845024686));
#1417=CARTESIAN_POINT('',(162.673740399649,407.158304923658,50.6092432891418));
#1418=CARTESIAN_POINT('Origin',(168.423740399649,405.952804923666,37.7307432891418));
#1419=CARTESIAN_POINT('',(179.923740399649,407.099304923666,50.6092432891418));
#1420=CARTESIAN_POINT('Origin',(164.173740399649,450.211304923653,54.6092432891418));
#1421=CARTESIAN_POINT('',(159.923740399649,450.616304923653,50.6092432891418));
#1422=CARTESIAN_POINT('',(159.923740399649,450.725227278668,49.5334669433137));
#1423=CARTESIAN_POINT('',(164.173740399649,450.616304923653,50.6092432891418));
#1424=CARTESIAN_POINT('Origin',(168.423740399649,451.306304923666,50.6092432891418));
#1425=CARTESIAN_POINT('',(159.923740399649,440.056304923663,50.6092432891418));
#1426=CARTESIAN_POINT('',(168.423740399649,450.624304923666,50.6092432891418));
#1427=CARTESIAN_POINT('Origin',(168.423740399649,451.715304923666,37.8132432891418));
#1428=CARTESIAN_POINT('Origin',(159.923740399649,413.306304923663,57.6863650705985));
#1429=CARTESIAN_POINT('',(159.923740399649,415.006304923663,57.6863650705985));
#1430=CARTESIAN_POINT('',(159.923740399649,415.006304923663,57.6863650705985));
#1431=CARTESIAN_POINT('Origin',(159.923740399649,413.306304923663,57.6863650705985));
#1432=CARTESIAN_POINT('Origin',(159.923740399649,444.306304923663,57.6863650705975));
#1433=CARTESIAN_POINT('',(159.923740399649,446.006304923663,57.6863650705975));
#1434=CARTESIAN_POINT('',(159.923740399649,446.006304923663,57.6863650705975));
#1435=CARTESIAN_POINT('Origin',(159.923740399649,444.306304923663,57.6863650705975));
#1436=CARTESIAN_POINT('Origin',(156.923740399649,428.806304923661,42.1863650705981));
#1437=CARTESIAN_POINT('',(159.923740399649,440.69807509389,42.1863650705981));
#1438=CARTESIAN_POINT('',(156.923740399649,440.69807509389,42.1863650705981));
#1439=CARTESIAN_POINT('Origin',(159.923740399649,428.806304923661,42.1863650705981));
#1440=CARTESIAN_POINT('Origin',(168.423740399649,406.306304923666,50.6092432891418));
#1441=CARTESIAN_POINT('',(159.923740399649,417.556304923663,50.6092432891418));
#1442=CARTESIAN_POINT('Origin',(159.923740399649,428.80630492366,42.1863650705965));
#1443=UNCERTAINTY_MEASURE_WITH_UNIT(LENGTH_MEASURE(0.01),#1447,
'DISTANCE_ACCURACY_VALUE',
'Maximum model space distance between geometric entities at asserted c
onnectivities');
#1444=UNCERTAINTY_MEASURE_WITH_UNIT(LENGTH_MEASURE(0.01),#1447,
'DISTANCE_ACCURACY_VALUE',
'Maximum model space distance between geometric entities at asserted c
onnectivities');
#1445=(
GEOMETRIC_REPRESENTATION_CONTEXT(3)
GLOBAL_UNCERTAINTY_ASSIGNED_CONTEXT((#1443))
GLOBAL_UNIT_ASSIGNED_CONTEXT((#1447,#1449,#1450))
REPRESENTATION_CONTEXT('','3D')
);
#1446=(
GEOMETRIC_REPRESENTATION_CONTEXT(3)
GLOBAL_UNCERTAINTY_ASSIGNED_CONTEXT((#1444))
GLOBAL_UNIT_ASSIGNED_CONTEXT((#1447,#1449,#1450))
REPRESENTATION_CONTEXT('','3D')
);
#1447=(
LENGTH_UNIT()
NAMED_UNIT(*)
SI_UNIT(.MILLI.,.METRE.)
);
#1448=(
LENGTH_UNIT()
NAMED_UNIT(*)
SI_UNIT($,.METRE.)
);
#1449=(
NAMED_UNIT(*)
PLANE_ANGLE_UNIT()
SI_UNIT($,.RADIAN.)
);
#1450=(
NAMED_UNIT(*)
SI_UNIT($,.STERADIAN.)
SOLID_ANGLE_UNIT()
);
#1451=SHAPE_DEFINITION_REPRESENTATION(#1452,#1453);
#1452=PRODUCT_DEFINITION_SHAPE('',$,#1455);
#1453=SHAPE_REPRESENTATION('',(#897),#1445);
#1454=PRODUCT_DEFINITION_CONTEXT('part definition',#1459,'design');
#1455=PRODUCT_DEFINITION('nemamountconv-z(1x)','nemamountconv-z(1x) v2',
#1456,#1454);
#1456=PRODUCT_DEFINITION_FORMATION('',$,#1461);
#1457=PRODUCT_RELATED_PRODUCT_CATEGORY('nemamountconv-z(1x) v2',
'nemamountconv-z(1x) v2',(#1461));
#1458=APPLICATION_PROTOCOL_DEFINITION('international standard',
'automotive_design',2009,#1459);
#1459=APPLICATION_CONTEXT(
'Core Data for Automotive Mechanical Design Process');
#1460=PRODUCT_CONTEXT('part definition',#1459,'mechanical');
#1461=PRODUCT('nemamountconv-z(1x)','nemamountconv-z(1x) v2',$,(#1460));
#1462=PRESENTATION_STYLE_ASSIGNMENT((#1463));
#1463=SURFACE_STYLE_USAGE(.BOTH.,#1464);
#1464=SURFACE_SIDE_STYLE('',(#1465));
#1465=SURFACE_STYLE_FILL_AREA(#1466);
#1466=FILL_AREA_STYLE('Steel - Satin',(#1467));
#1467=FILL_AREA_STYLE_COLOUR('Steel - Satin',#1468);
#1468=COLOUR_RGB('Steel - Satin',0.627450980392157,0.627450980392157,0.627450980392157);
ENDSEC;
END-ISO-10303-21;
