ISO-10303-21;
HEADER;
/* Generated by software containing ST-Developer
 * from STEP Tools, Inc. (www.steptools.com) 
 */

FILE_DESCRIPTION(
/* description */ (''),
/* implementation_level */ '2;1');

FILE_NAME(
/* name */ 'tensionerinner2(1x).step',
/* time_stamp */ '2025-12-01T16:06:01+05:30',
/* author */ (''),
/* organization */ (''),
/* preprocessor_version */ 'ST-DEVELOPER v20.1',
/* originating_system */ 'Autodesk Translation Framework v14.21.0.0',
/* authorisation */ '');

FILE_SCHEMA (('AUTOMOTIVE_DESIGN { 1 0 10303 214 3 1 1 }'));
ENDSEC;

DATA;
#10=MECHANICAL_DESIGN_GEOMETRIC_PRESENTATION_REPRESENTATION('',(#13),#828);
#11=SHAPE_REPRESENTATION_RELATIONSHIP('SRR','None',#835,#12);
#12=ADVANCED_BREP_SHAPE_REPRESENTATION('',(#14),#827);
#13=STYLED_ITEM('',(#844),#14);
#14=MANIFOLD_SOLID_BREP('Body1',#512);
#15=CYLINDRICAL_SURFACE('',#542,1.49999999999999);
#16=CYLINDRICAL_SURFACE('',#552,1.49999999999999);
#17=CYLINDRICAL_SURFACE('',#553,1.49999999999999);
#18=FACE_BOUND('',#60,.T.);
#19=FACE_BOUND('',#62,.T.);
#20=FACE_BOUND('',#64,.T.);
#21=FACE_BOUND('',#66,.T.);
#22=FACE_BOUND('',#75,.T.);
#23=FACE_BOUND('',#85,.T.);
#24=CIRCLE('',#531,1.49999999999999);
#25=CIRCLE('',#533,1.49999999999999);
#26=CIRCLE('',#535,1.49999999999999);
#27=CIRCLE('',#537,1.49999999999999);
#28=CIRCLE('',#543,1.49999999999999);
#29=CIRCLE('',#544,1.49999999999999);
#30=FACE_OUTER_BOUND('',#55,.T.);
#31=FACE_OUTER_BOUND('',#56,.T.);
#32=FACE_OUTER_BOUND('',#57,.T.);
#33=FACE_OUTER_BOUND('',#58,.T.);
#34=FACE_OUTER_BOUND('',#59,.T.);
#35=FACE_OUTER_BOUND('',#61,.T.);
#36=FACE_OUTER_BOUND('',#63,.T.);
#37=FACE_OUTER_BOUND('',#65,.T.);
#38=FACE_OUTER_BOUND('',#67,.T.);
#39=FACE_OUTER_BOUND('',#68,.T.);
#40=FACE_OUTER_BOUND('',#69,.T.);
#41=FACE_OUTER_BOUND('',#70,.T.);
#42=FACE_OUTER_BOUND('',#71,.T.);
#43=FACE_OUTER_BOUND('',#72,.T.);
#44=FACE_OUTER_BOUND('',#73,.T.);
#45=FACE_OUTER_BOUND('',#74,.T.);
#46=FACE_OUTER_BOUND('',#76,.T.);
#47=FACE_OUTER_BOUND('',#77,.T.);
#48=FACE_OUTER_BOUND('',#78,.T.);
#49=FACE_OUTER_BOUND('',#79,.T.);
#50=FACE_OUTER_BOUND('',#80,.T.);
#51=FACE_OUTER_BOUND('',#81,.T.);
#52=FACE_OUTER_BOUND('',#82,.T.);
#53=FACE_OUTER_BOUND('',#83,.T.);
#54=FACE_OUTER_BOUND('',#84,.T.);
#55=EDGE_LOOP('',(#327,#328,#329,#330));
#56=EDGE_LOOP('',(#331,#332,#333,#334));
#57=EDGE_LOOP('',(#335,#336,#337,#338));
#58=EDGE_LOOP('',(#339,#340,#341,#342));
#59=EDGE_LOOP('',(#343,#344,#345,#346,#347,#348,#349,#350));
#60=EDGE_LOOP('',(#351,#352,#353));
#61=EDGE_LOOP('',(#354,#355,#356,#357));
#62=EDGE_LOOP('',(#358,#359,#360));
#63=EDGE_LOOP('',(#361,#362,#363,#364,#365,#366,#367,#368));
#64=EDGE_LOOP('',(#369,#370,#371));
#65=EDGE_LOOP('',(#372,#373,#374,#375));
#66=EDGE_LOOP('',(#376,#377,#378));
#67=EDGE_LOOP('',(#379,#380,#381,#382));
#68=EDGE_LOOP('',(#383,#384,#385,#386));
#69=EDGE_LOOP('',(#387,#388,#389,#390));
#70=EDGE_LOOP('',(#391,#392,#393,#394));
#71=EDGE_LOOP('',(#395,#396,#397,#398));
#72=EDGE_LOOP('',(#399,#400,#401,#402));
#73=EDGE_LOOP('',(#403,#404,#405,#406));
#74=EDGE_LOOP('',(#407,#408,#409,#410,#411,#412,#413,#414,#415,#416,#417,
#418));
#75=EDGE_LOOP('',(#419));
#76=EDGE_LOOP('',(#420,#421,#422,#423,#424,#425,#426,#427));
#77=EDGE_LOOP('',(#428,#429,#430,#431));
#78=EDGE_LOOP('',(#432,#433,#434,#435,#436,#437,#438,#439));
#79=EDGE_LOOP('',(#440,#441,#442,#443));
#80=EDGE_LOOP('',(#444,#445,#446,#447));
#81=EDGE_LOOP('',(#448,#449,#450,#451));
#82=EDGE_LOOP('',(#452,#453,#454,#455));
#83=EDGE_LOOP('',(#456,#457,#458,#459));
#84=EDGE_LOOP('',(#460,#461,#462,#463));
#85=EDGE_LOOP('',(#464));
#86=LINE('',#688,#149);
#87=LINE('',#690,#150);
#88=LINE('',#692,#151);
#89=LINE('',#693,#152);
#90=LINE('',#697,#153);
#91=LINE('',#699,#154);
#92=LINE('',#701,#155);
#93=LINE('',#702,#156);
#94=LINE('',#705,#157);
#95=LINE('',#707,#158);
#96=LINE('',#708,#159);
#97=LINE('',#711,#160);
#98=LINE('',#713,#161);
#99=LINE('',#714,#162);
#100=LINE('',#718,#163);
#101=LINE('',#720,#164);
#102=LINE('',#722,#165);
#103=LINE('',#724,#166);
#104=LINE('',#726,#167);
#105=LINE('',#728,#168);
#106=LINE('',#730,#169);
#107=LINE('',#731,#170);
#108=LINE('',#736,#171);
#109=LINE('',#738,#172);
#110=LINE('',#740,#173);
#111=LINE('',#741,#174);
#112=LINE('',#746,#175);
#113=LINE('',#748,#176);
#114=LINE('',#750,#177);
#115=LINE('',#752,#178);
#116=LINE('',#754,#179);
#117=LINE('',#756,#180);
#118=LINE('',#758,#181);
#119=LINE('',#759,#182);
#120=LINE('',#764,#183);
#121=LINE('',#766,#184);
#122=LINE('',#768,#185);
#123=LINE('',#769,#186);
#124=LINE('',#773,#187);
#125=LINE('',#775,#188);
#126=LINE('',#776,#189);
#127=LINE('',#779,#190);
#128=LINE('',#780,#191);
#129=LINE('',#783,#192);
#130=LINE('',#784,#193);
#131=LINE('',#786,#194);
#132=LINE('',#791,#195);
#133=LINE('',#795,#196);
#134=LINE('',#797,#197);
#135=LINE('',#798,#198);
#136=LINE('',#801,#199);
#137=LINE('',#802,#200);
#138=LINE('',#805,#201);
#139=LINE('',#806,#202);
#140=LINE('',#807,#203);
#141=LINE('',#808,#204);
#142=LINE('',#810,#205);
#143=LINE('',#811,#206);
#144=LINE('',#812,#207);
#145=LINE('',#814,#208);
#146=LINE('',#816,#209);
#147=LINE('',#817,#210);
#148=LINE('',#818,#211);
#149=VECTOR('',#561,10.);
#150=VECTOR('',#562,10.);
#151=VECTOR('',#563,10.);
#152=VECTOR('',#564,10.);
#153=VECTOR('',#567,10.);
#154=VECTOR('',#568,10.);
#155=VECTOR('',#569,10.);
#156=VECTOR('',#570,10.);
#157=VECTOR('',#573,10.);
#158=VECTOR('',#574,10.);
#159=VECTOR('',#575,10.);
#160=VECTOR('',#578,10.);
#161=VECTOR('',#579,10.);
#162=VECTOR('',#580,10.);
#163=VECTOR('',#583,10.);
#164=VECTOR('',#584,10.);
#165=VECTOR('',#585,10.);
#166=VECTOR('',#586,10.);
#167=VECTOR('',#587,10.);
#168=VECTOR('',#588,10.);
#169=VECTOR('',#589,10.);
#170=VECTOR('',#590,10.);
#171=VECTOR('',#595,10.);
#172=VECTOR('',#596,10.);
#173=VECTOR('',#597,10.);
#174=VECTOR('',#598,10.);
#175=VECTOR('',#603,10.);
#176=VECTOR('',#604,10.);
#177=VECTOR('',#605,10.);
#178=VECTOR('',#606,10.);
#179=VECTOR('',#607,10.);
#180=VECTOR('',#608,10.);
#181=VECTOR('',#609,10.);
#182=VECTOR('',#610,10.);
#183=VECTOR('',#615,10.);
#184=VECTOR('',#616,10.);
#185=VECTOR('',#617,10.);
#186=VECTOR('',#618,10.);
#187=VECTOR('',#623,10.);
#188=VECTOR('',#624,10.);
#189=VECTOR('',#625,10.);
#190=VECTOR('',#628,10.);
#191=VECTOR('',#629,10.);
#192=VECTOR('',#632,10.);
#193=VECTOR('',#633,10.);
#194=VECTOR('',#636,10.);
#195=VECTOR('',#641,1.49999999999999);
#196=VECTOR('',#646,10.);
#197=VECTOR('',#647,10.);
#198=VECTOR('',#648,10.);
#199=VECTOR('',#651,10.);
#200=VECTOR('',#652,10.);
#201=VECTOR('',#655,10.);
#202=VECTOR('',#656,10.);
#203=VECTOR('',#657,10.);
#204=VECTOR('',#658,10.);
#205=VECTOR('',#661,10.);
#206=VECTOR('',#662,10.);
#207=VECTOR('',#663,10.);
#208=VECTOR('',#666,10.);
#209=VECTOR('',#669,10.);
#210=VECTOR('',#670,10.);
#211=VECTOR('',#671,10.);
#212=VERTEX_POINT('',#686);
#213=VERTEX_POINT('',#687);
#214=VERTEX_POINT('',#689);
#215=VERTEX_POINT('',#691);
#216=VERTEX_POINT('',#695);
#217=VERTEX_POINT('',#696);
#218=VERTEX_POINT('',#698);
#219=VERTEX_POINT('',#700);
#220=VERTEX_POINT('',#704);
#221=VERTEX_POINT('',#706);
#222=VERTEX_POINT('',#710);
#223=VERTEX_POINT('',#712);
#224=VERTEX_POINT('',#716);
#225=VERTEX_POINT('',#717);
#226=VERTEX_POINT('',#719);
#227=VERTEX_POINT('',#721);
#228=VERTEX_POINT('',#723);
#229=VERTEX_POINT('',#725);
#230=VERTEX_POINT('',#727);
#231=VERTEX_POINT('',#729);
#232=VERTEX_POINT('',#734);
#233=VERTEX_POINT('',#735);
#234=VERTEX_POINT('',#737);
#235=VERTEX_POINT('',#739);
#236=VERTEX_POINT('',#744);
#237=VERTEX_POINT('',#745);
#238=VERTEX_POINT('',#747);
#239=VERTEX_POINT('',#749);
#240=VERTEX_POINT('',#751);
#241=VERTEX_POINT('',#753);
#242=VERTEX_POINT('',#755);
#243=VERTEX_POINT('',#757);
#244=VERTEX_POINT('',#762);
#245=VERTEX_POINT('',#763);
#246=VERTEX_POINT('',#765);
#247=VERTEX_POINT('',#767);
#248=VERTEX_POINT('',#772);
#249=VERTEX_POINT('',#774);
#250=VERTEX_POINT('',#778);
#251=VERTEX_POINT('',#782);
#252=VERTEX_POINT('',#788);
#253=VERTEX_POINT('',#790);
#254=VERTEX_POINT('',#794);
#255=VERTEX_POINT('',#796);
#256=VERTEX_POINT('',#800);
#257=VERTEX_POINT('',#804);
#258=EDGE_CURVE('',#212,#213,#86,.T.);
#259=EDGE_CURVE('',#214,#212,#87,.T.);
#260=EDGE_CURVE('',#215,#214,#88,.T.);
#261=EDGE_CURVE('',#213,#215,#89,.T.);
#262=EDGE_CURVE('',#216,#217,#90,.T.);
#263=EDGE_CURVE('',#218,#216,#91,.T.);
#264=EDGE_CURVE('',#219,#218,#92,.T.);
#265=EDGE_CURVE('',#217,#219,#93,.T.);
#266=EDGE_CURVE('',#220,#212,#94,.T.);
#267=EDGE_CURVE('',#220,#221,#95,.T.);
#268=EDGE_CURVE('',#214,#221,#96,.T.);
#269=EDGE_CURVE('',#222,#216,#97,.T.);
#270=EDGE_CURVE('',#222,#223,#98,.T.);
#271=EDGE_CURVE('',#218,#223,#99,.T.);
#272=EDGE_CURVE('',#224,#225,#100,.T.);
#273=EDGE_CURVE('',#226,#225,#101,.T.);
#274=EDGE_CURVE('',#226,#227,#102,.T.);
#275=EDGE_CURVE('',#227,#228,#103,.T.);
#276=EDGE_CURVE('',#228,#229,#104,.T.);
#277=EDGE_CURVE('',#230,#229,#105,.T.);
#278=EDGE_CURVE('',#230,#231,#106,.T.);
#279=EDGE_CURVE('',#231,#224,#107,.T.);
#280=EDGE_CURVE('',#223,#219,#24,.T.);
#281=EDGE_CURVE('',#232,#233,#108,.T.);
#282=EDGE_CURVE('',#234,#232,#109,.T.);
#283=EDGE_CURVE('',#235,#234,#110,.T.);
#284=EDGE_CURVE('',#233,#235,#111,.T.);
#285=EDGE_CURVE('',#217,#222,#25,.T.);
#286=EDGE_CURVE('',#236,#237,#112,.T.);
#287=EDGE_CURVE('',#237,#238,#113,.T.);
#288=EDGE_CURVE('',#238,#239,#114,.T.);
#289=EDGE_CURVE('',#240,#239,#115,.T.);
#290=EDGE_CURVE('',#241,#240,#116,.T.);
#291=EDGE_CURVE('',#242,#241,#117,.T.);
#292=EDGE_CURVE('',#243,#242,#118,.T.);
#293=EDGE_CURVE('',#236,#243,#119,.T.);
#294=EDGE_CURVE('',#213,#220,#26,.T.);
#295=EDGE_CURVE('',#244,#245,#120,.T.);
#296=EDGE_CURVE('',#246,#244,#121,.T.);
#297=EDGE_CURVE('',#247,#246,#122,.T.);
#298=EDGE_CURVE('',#245,#247,#123,.T.);
#299=EDGE_CURVE('',#221,#215,#27,.T.);
#300=EDGE_CURVE('',#236,#248,#124,.T.);
#301=EDGE_CURVE('',#249,#248,#125,.T.);
#302=EDGE_CURVE('',#237,#249,#126,.T.);
#303=EDGE_CURVE('',#250,#249,#127,.T.);
#304=EDGE_CURVE('',#238,#250,#128,.T.);
#305=EDGE_CURVE('',#251,#250,#129,.T.);
#306=EDGE_CURVE('',#239,#251,#130,.T.);
#307=EDGE_CURVE('',#248,#251,#131,.T.);
#308=EDGE_CURVE('',#252,#252,#28,.T.);
#309=EDGE_CURVE('',#252,#253,#132,.T.);
#310=EDGE_CURVE('',#253,#253,#29,.T.);
#311=EDGE_CURVE('',#254,#224,#133,.T.);
#312=EDGE_CURVE('',#231,#255,#134,.T.);
#313=EDGE_CURVE('',#255,#254,#135,.T.);
#314=EDGE_CURVE('',#256,#254,#136,.T.);
#315=EDGE_CURVE('',#225,#256,#137,.T.);
#316=EDGE_CURVE('',#257,#256,#138,.T.);
#317=EDGE_CURVE('',#257,#230,#139,.T.);
#318=EDGE_CURVE('',#229,#240,#140,.T.);
#319=EDGE_CURVE('',#243,#226,#141,.T.);
#320=EDGE_CURVE('',#242,#246,#142,.T.);
#321=EDGE_CURVE('',#235,#244,#143,.T.);
#322=EDGE_CURVE('',#234,#227,#144,.T.);
#323=EDGE_CURVE('',#257,#255,#145,.T.);
#324=EDGE_CURVE('',#232,#228,#146,.T.);
#325=EDGE_CURVE('',#233,#245,#147,.T.);
#326=EDGE_CURVE('',#241,#247,#148,.T.);
#327=ORIENTED_EDGE('',*,*,#258,.F.);
#328=ORIENTED_EDGE('',*,*,#259,.F.);
#329=ORIENTED_EDGE('',*,*,#260,.F.);
#330=ORIENTED_EDGE('',*,*,#261,.F.);
#331=ORIENTED_EDGE('',*,*,#262,.F.);
#332=ORIENTED_EDGE('',*,*,#263,.F.);
#333=ORIENTED_EDGE('',*,*,#264,.F.);
#334=ORIENTED_EDGE('',*,*,#265,.F.);
#335=ORIENTED_EDGE('',*,*,#266,.F.);
#336=ORIENTED_EDGE('',*,*,#267,.T.);
#337=ORIENTED_EDGE('',*,*,#268,.F.);
#338=ORIENTED_EDGE('',*,*,#259,.T.);
#339=ORIENTED_EDGE('',*,*,#269,.F.);
#340=ORIENTED_EDGE('',*,*,#270,.T.);
#341=ORIENTED_EDGE('',*,*,#271,.F.);
#342=ORIENTED_EDGE('',*,*,#263,.T.);
#343=ORIENTED_EDGE('',*,*,#272,.T.);
#344=ORIENTED_EDGE('',*,*,#273,.F.);
#345=ORIENTED_EDGE('',*,*,#274,.T.);
#346=ORIENTED_EDGE('',*,*,#275,.T.);
#347=ORIENTED_EDGE('',*,*,#276,.T.);
#348=ORIENTED_EDGE('',*,*,#277,.F.);
#349=ORIENTED_EDGE('',*,*,#278,.T.);
#350=ORIENTED_EDGE('',*,*,#279,.T.);
#351=ORIENTED_EDGE('',*,*,#264,.T.);
#352=ORIENTED_EDGE('',*,*,#271,.T.);
#353=ORIENTED_EDGE('',*,*,#280,.T.);
#354=ORIENTED_EDGE('',*,*,#281,.F.);
#355=ORIENTED_EDGE('',*,*,#282,.F.);
#356=ORIENTED_EDGE('',*,*,#283,.F.);
#357=ORIENTED_EDGE('',*,*,#284,.F.);
#358=ORIENTED_EDGE('',*,*,#269,.T.);
#359=ORIENTED_EDGE('',*,*,#262,.T.);
#360=ORIENTED_EDGE('',*,*,#285,.T.);
#361=ORIENTED_EDGE('',*,*,#286,.T.);
#362=ORIENTED_EDGE('',*,*,#287,.T.);
#363=ORIENTED_EDGE('',*,*,#288,.T.);
#364=ORIENTED_EDGE('',*,*,#289,.F.);
#365=ORIENTED_EDGE('',*,*,#290,.F.);
#366=ORIENTED_EDGE('',*,*,#291,.F.);
#367=ORIENTED_EDGE('',*,*,#292,.F.);
#368=ORIENTED_EDGE('',*,*,#293,.F.);
#369=ORIENTED_EDGE('',*,*,#266,.T.);
#370=ORIENTED_EDGE('',*,*,#258,.T.);
#371=ORIENTED_EDGE('',*,*,#294,.T.);
#372=ORIENTED_EDGE('',*,*,#295,.F.);
#373=ORIENTED_EDGE('',*,*,#296,.F.);
#374=ORIENTED_EDGE('',*,*,#297,.F.);
#375=ORIENTED_EDGE('',*,*,#298,.F.);
#376=ORIENTED_EDGE('',*,*,#260,.T.);
#377=ORIENTED_EDGE('',*,*,#268,.T.);
#378=ORIENTED_EDGE('',*,*,#299,.T.);
#379=ORIENTED_EDGE('',*,*,#286,.F.);
#380=ORIENTED_EDGE('',*,*,#300,.T.);
#381=ORIENTED_EDGE('',*,*,#301,.F.);
#382=ORIENTED_EDGE('',*,*,#302,.F.);
#383=ORIENTED_EDGE('',*,*,#287,.F.);
#384=ORIENTED_EDGE('',*,*,#302,.T.);
#385=ORIENTED_EDGE('',*,*,#303,.F.);
#386=ORIENTED_EDGE('',*,*,#304,.F.);
#387=ORIENTED_EDGE('',*,*,#288,.F.);
#388=ORIENTED_EDGE('',*,*,#304,.T.);
#389=ORIENTED_EDGE('',*,*,#305,.F.);
#390=ORIENTED_EDGE('',*,*,#306,.F.);
#391=ORIENTED_EDGE('',*,*,#305,.T.);
#392=ORIENTED_EDGE('',*,*,#303,.T.);
#393=ORIENTED_EDGE('',*,*,#301,.T.);
#394=ORIENTED_EDGE('',*,*,#307,.T.);
#395=ORIENTED_EDGE('',*,*,#308,.F.);
#396=ORIENTED_EDGE('',*,*,#309,.T.);
#397=ORIENTED_EDGE('',*,*,#310,.F.);
#398=ORIENTED_EDGE('',*,*,#309,.F.);
#399=ORIENTED_EDGE('',*,*,#311,.T.);
#400=ORIENTED_EDGE('',*,*,#279,.F.);
#401=ORIENTED_EDGE('',*,*,#312,.T.);
#402=ORIENTED_EDGE('',*,*,#313,.T.);
#403=ORIENTED_EDGE('',*,*,#272,.F.);
#404=ORIENTED_EDGE('',*,*,#311,.F.);
#405=ORIENTED_EDGE('',*,*,#314,.F.);
#406=ORIENTED_EDGE('',*,*,#315,.F.);
#407=ORIENTED_EDGE('',*,*,#273,.T.);
#408=ORIENTED_EDGE('',*,*,#315,.T.);
#409=ORIENTED_EDGE('',*,*,#316,.F.);
#410=ORIENTED_EDGE('',*,*,#317,.T.);
#411=ORIENTED_EDGE('',*,*,#277,.T.);
#412=ORIENTED_EDGE('',*,*,#318,.T.);
#413=ORIENTED_EDGE('',*,*,#289,.T.);
#414=ORIENTED_EDGE('',*,*,#306,.T.);
#415=ORIENTED_EDGE('',*,*,#307,.F.);
#416=ORIENTED_EDGE('',*,*,#300,.F.);
#417=ORIENTED_EDGE('',*,*,#293,.T.);
#418=ORIENTED_EDGE('',*,*,#319,.T.);
#419=ORIENTED_EDGE('',*,*,#308,.T.);
#420=ORIENTED_EDGE('',*,*,#274,.F.);
#421=ORIENTED_EDGE('',*,*,#319,.F.);
#422=ORIENTED_EDGE('',*,*,#292,.T.);
#423=ORIENTED_EDGE('',*,*,#320,.T.);
#424=ORIENTED_EDGE('',*,*,#296,.T.);
#425=ORIENTED_EDGE('',*,*,#321,.F.);
#426=ORIENTED_EDGE('',*,*,#283,.T.);
#427=ORIENTED_EDGE('',*,*,#322,.T.);
#428=ORIENTED_EDGE('',*,*,#278,.F.);
#429=ORIENTED_EDGE('',*,*,#317,.F.);
#430=ORIENTED_EDGE('',*,*,#323,.T.);
#431=ORIENTED_EDGE('',*,*,#312,.F.);
#432=ORIENTED_EDGE('',*,*,#276,.F.);
#433=ORIENTED_EDGE('',*,*,#324,.F.);
#434=ORIENTED_EDGE('',*,*,#281,.T.);
#435=ORIENTED_EDGE('',*,*,#325,.T.);
#436=ORIENTED_EDGE('',*,*,#298,.T.);
#437=ORIENTED_EDGE('',*,*,#326,.F.);
#438=ORIENTED_EDGE('',*,*,#290,.T.);
#439=ORIENTED_EDGE('',*,*,#318,.F.);
#440=ORIENTED_EDGE('',*,*,#314,.T.);
#441=ORIENTED_EDGE('',*,*,#313,.F.);
#442=ORIENTED_EDGE('',*,*,#323,.F.);
#443=ORIENTED_EDGE('',*,*,#316,.T.);
#444=ORIENTED_EDGE('',*,*,#267,.F.);
#445=ORIENTED_EDGE('',*,*,#294,.F.);
#446=ORIENTED_EDGE('',*,*,#261,.T.);
#447=ORIENTED_EDGE('',*,*,#299,.F.);
#448=ORIENTED_EDGE('',*,*,#265,.T.);
#449=ORIENTED_EDGE('',*,*,#280,.F.);
#450=ORIENTED_EDGE('',*,*,#270,.F.);
#451=ORIENTED_EDGE('',*,*,#285,.F.);
#452=ORIENTED_EDGE('',*,*,#282,.T.);
#453=ORIENTED_EDGE('',*,*,#324,.T.);
#454=ORIENTED_EDGE('',*,*,#275,.F.);
#455=ORIENTED_EDGE('',*,*,#322,.F.);
#456=ORIENTED_EDGE('',*,*,#297,.T.);
#457=ORIENTED_EDGE('',*,*,#320,.F.);
#458=ORIENTED_EDGE('',*,*,#291,.T.);
#459=ORIENTED_EDGE('',*,*,#326,.T.);
#460=ORIENTED_EDGE('',*,*,#321,.T.);
#461=ORIENTED_EDGE('',*,*,#295,.T.);
#462=ORIENTED_EDGE('',*,*,#325,.F.);
#463=ORIENTED_EDGE('',*,*,#284,.T.);
#464=ORIENTED_EDGE('',*,*,#310,.T.);
#465=PLANE('',#526);
#466=PLANE('',#527);
#467=PLANE('',#528);
#468=PLANE('',#529);
#469=PLANE('',#530);
#470=PLANE('',#532);
#471=PLANE('',#534);
#472=PLANE('',#536);
#473=PLANE('',#538);
#474=PLANE('',#539);
#475=PLANE('',#540);
#476=PLANE('',#541);
#477=PLANE('',#545);
#478=PLANE('',#546);
#479=PLANE('',#547);
#480=PLANE('',#548);
#481=PLANE('',#549);
#482=PLANE('',#550);
#483=PLANE('',#551);
#484=PLANE('',#554);
#485=PLANE('',#555);
#486=PLANE('',#556);
#487=ADVANCED_FACE('',(#30),#465,.F.);
#488=ADVANCED_FACE('',(#31),#466,.F.);
#489=ADVANCED_FACE('',(#32),#467,.F.);
#490=ADVANCED_FACE('',(#33),#468,.F.);
#491=ADVANCED_FACE('',(#34,#18),#469,.T.);
#492=ADVANCED_FACE('',(#35,#19),#470,.F.);
#493=ADVANCED_FACE('',(#36,#20),#471,.F.);
#494=ADVANCED_FACE('',(#37,#21),#472,.F.);
#495=ADVANCED_FACE('',(#38),#473,.T.);
#496=ADVANCED_FACE('',(#39),#474,.T.);
#497=ADVANCED_FACE('',(#40),#475,.T.);
#498=ADVANCED_FACE('',(#41),#476,.T.);
#499=ADVANCED_FACE('',(#42),#15,.F.);
#500=ADVANCED_FACE('',(#43),#477,.T.);
#501=ADVANCED_FACE('',(#44),#478,.F.);
#502=ADVANCED_FACE('',(#45,#22),#479,.T.);
#503=ADVANCED_FACE('',(#46),#480,.T.);
#504=ADVANCED_FACE('',(#47),#481,.F.);
#505=ADVANCED_FACE('',(#48),#482,.T.);
#506=ADVANCED_FACE('',(#49),#483,.T.);
#507=ADVANCED_FACE('',(#50),#16,.F.);
#508=ADVANCED_FACE('',(#51),#17,.F.);
#509=ADVANCED_FACE('',(#52),#484,.T.);
#510=ADVANCED_FACE('',(#53),#485,.T.);
#511=ADVANCED_FACE('',(#54,#23),#486,.T.);
#512=CLOSED_SHELL('',(#487,#488,#489,#490,#491,#492,#493,#494,#495,#496,
#497,#498,#499,#500,#501,#502,#503,#504,#505,#506,#507,#508,#509,#510,#511));
#513=DERIVED_UNIT_ELEMENT(#515,1.);
#514=DERIVED_UNIT_ELEMENT(#830,-3.);
#515=(
MASS_UNIT()
NAMED_UNIT(*)
SI_UNIT(.KILO.,.GRAM.)
);
#516=DERIVED_UNIT((#513,#514));
#517=MEASURE_REPRESENTATION_ITEM('density measure',
POSITIVE_RATIO_MEASURE(7850.),#516);
#518=PROPERTY_DEFINITION_REPRESENTATION(#523,#520);
#519=PROPERTY_DEFINITION_REPRESENTATION(#524,#521);
#520=REPRESENTATION('material name',(#522),#827);
#521=REPRESENTATION('density',(#517),#827);
#522=DESCRIPTIVE_REPRESENTATION_ITEM('Steel','Steel');
#523=PROPERTY_DEFINITION('material property','material name',#837);
#524=PROPERTY_DEFINITION('material property','density of part',#837);
#525=AXIS2_PLACEMENT_3D('',#684,#557,#558);
#526=AXIS2_PLACEMENT_3D('',#685,#559,#560);
#527=AXIS2_PLACEMENT_3D('',#694,#565,#566);
#528=AXIS2_PLACEMENT_3D('',#703,#571,#572);
#529=AXIS2_PLACEMENT_3D('',#709,#576,#577);
#530=AXIS2_PLACEMENT_3D('',#715,#581,#582);
#531=AXIS2_PLACEMENT_3D('',#732,#591,#592);
#532=AXIS2_PLACEMENT_3D('',#733,#593,#594);
#533=AXIS2_PLACEMENT_3D('',#742,#599,#600);
#534=AXIS2_PLACEMENT_3D('',#743,#601,#602);
#535=AXIS2_PLACEMENT_3D('',#760,#611,#612);
#536=AXIS2_PLACEMENT_3D('',#761,#613,#614);
#537=AXIS2_PLACEMENT_3D('',#770,#619,#620);
#538=AXIS2_PLACEMENT_3D('',#771,#621,#622);
#539=AXIS2_PLACEMENT_3D('',#777,#626,#627);
#540=AXIS2_PLACEMENT_3D('',#781,#630,#631);
#541=AXIS2_PLACEMENT_3D('',#785,#634,#635);
#542=AXIS2_PLACEMENT_3D('',#787,#637,#638);
#543=AXIS2_PLACEMENT_3D('',#789,#639,#640);
#544=AXIS2_PLACEMENT_3D('',#792,#642,#643);
#545=AXIS2_PLACEMENT_3D('',#793,#644,#645);
#546=AXIS2_PLACEMENT_3D('',#799,#649,#650);
#547=AXIS2_PLACEMENT_3D('',#803,#653,#654);
#548=AXIS2_PLACEMENT_3D('',#809,#659,#660);
#549=AXIS2_PLACEMENT_3D('',#813,#664,#665);
#550=AXIS2_PLACEMENT_3D('',#815,#667,#668);
#551=AXIS2_PLACEMENT_3D('',#819,#672,#673);
#552=AXIS2_PLACEMENT_3D('',#820,#674,#675);
#553=AXIS2_PLACEMENT_3D('',#821,#676,#677);
#554=AXIS2_PLACEMENT_3D('',#822,#678,#679);
#555=AXIS2_PLACEMENT_3D('',#823,#680,#681);
#556=AXIS2_PLACEMENT_3D('',#824,#682,#683);
#557=DIRECTION('axis',(0.,0.,1.));
#558=DIRECTION('refdir',(1.,0.,0.));
#559=DIRECTION('center_axis',(0.642787609686859,0.541675220400667,0.541675220438358));
#560=DIRECTION('ref_axis',(0.76604444311871,-0.45451947764653,-0.454519477698009));
#561=DIRECTION('',(-0.76604444311871,0.454519477649432,0.454519477695107));
#562=DIRECTION('',(-1.07531357226904E-11,0.707106781217529,-0.707106781155566));
#563=DIRECTION('',(0.76604444311871,-0.45451947764933,-0.454519477695209));
#564=DIRECTION('',(5.38408411415578E-12,-0.707106781221353,0.707106781151742));
#565=DIRECTION('center_axis',(0.642787609686859,0.541675220400667,0.541675220438358));
#566=DIRECTION('ref_axis',(0.76604444311871,-0.45451947764653,-0.454519477698009));
#567=DIRECTION('',(-0.76604444311871,0.45451947764933,0.454519477695209));
#568=DIRECTION('',(-1.07531357226904E-11,0.707106781217529,-0.707106781155566));
#569=DIRECTION('',(0.76604444311871,-0.454519477649432,-0.454519477695107));
#570=DIRECTION('',(5.38408411415578E-12,-0.707106781221353,0.707106781151742));
#571=DIRECTION('center_axis',(0.642787609686864,-0.541675220390889,-0.54167522044813));
#572=DIRECTION('ref_axis',(-0.766044443118706,-0.454519477658183,-0.454519477686363));
#573=DIRECTION('',(0.766044443118706,0.454519477655269,0.454519477689278));
#574=DIRECTION('',(5.38408411415578E-12,-0.707106781221353,0.707106781151742));
#575=DIRECTION('',(-0.766044443118706,-0.454519477655312,-0.454519477689234));
#576=DIRECTION('center_axis',(0.642787609686864,-0.541675220390889,-0.54167522044813));
#577=DIRECTION('ref_axis',(-0.766044443118706,-0.454519477658183,-0.454519477686363));
#578=DIRECTION('',(0.766044443118706,0.454519477655312,0.454519477689234));
#579=DIRECTION('',(5.38408411415578E-12,-0.707106781221353,0.707106781151742));
#580=DIRECTION('',(-0.766044443118706,-0.454519477655269,-0.454519477689278));
#581=DIRECTION('center_axis',(5.38408411415577E-12,-0.707106781217539,0.707106781155556));
#582=DIRECTION('ref_axis',(5.39430318273905E-12,0.707106781155556,0.707106781217539));
#583=DIRECTION('',(-1.,-7.62317867380455E-12,-8.93389894242779E-15));
#584=DIRECTION('',(-5.39668725418575E-12,0.707106781155556,0.707106781217539));
#585=DIRECTION('',(1.,7.6267081521169E-12,5.36015497259637E-15));
#586=DIRECTION('',(-5.39671855473254E-12,0.707106781155558,0.707106781217537));
#587=DIRECTION('',(-1.,-7.6267081521169E-12,-5.36015497259637E-15));
#588=DIRECTION('',(-5.39668725418575E-12,0.707106781155556,0.707106781217539));
#589=DIRECTION('',(1.,3.8072089833708E-12,-3.80703579182582E-12));
#590=DIRECTION('',(1.22464679916247E-16,-0.707106781155556,-0.707106781217539));
#591=DIRECTION('center_axis',(-5.38408411415577E-12,0.707106781217539,-0.707106781155556));
#592=DIRECTION('ref_axis',(9.95799831487847E-17,0.707106781151742,0.707106781221353));
#593=DIRECTION('center_axis',(5.51797701092557E-12,-0.707106781217585,0.70710678115551));
#594=DIRECTION('ref_axis',(5.32917009862253E-12,0.70710678115551,0.707106781217585));
#595=DIRECTION('',(-1.,-7.71791297359786E-12,8.58446664923671E-14));
#596=DIRECTION('',(-5.39671855473217E-12,0.70710678115551,0.707106781217585));
#597=DIRECTION('',(1.,7.71791297359786E-12,-8.58446664923671E-14));
#598=DIRECTION('',(5.39671855473254E-12,-0.707106781155558,-0.707106781217537));
#599=DIRECTION('center_axis',(5.51797701092557E-12,-0.707106781217585,0.70710678115551));
#600=DIRECTION('ref_axis',(9.95799831487847E-17,0.707106781151742,0.707106781221353));
#601=DIRECTION('center_axis',(5.38408411415577E-12,-0.707106781217539,0.707106781155556));
#602=DIRECTION('ref_axis',(5.39430318273905E-12,0.707106781155556,0.707106781217539));
#603=DIRECTION('',(1.,3.80720898337083E-12,-3.80703579182579E-12));
#604=DIRECTION('',(4.62348062301614E-12,0.707106781155556,0.707106781217539));
#605=DIRECTION('',(-1.,-3.8151063361963E-12,3.79913843899963E-12));
#606=DIRECTION('',(5.39671855473254E-12,-0.707106781155558,-0.707106781217537));
#607=DIRECTION('',(-1.,-7.6267081521169E-12,-5.36015497259637E-15));
#608=DIRECTION('',(-5.39671855473254E-12,0.707106781155558,0.707106781217537));
#609=DIRECTION('',(1.,7.6267081521169E-12,5.36015497259637E-15));
#610=DIRECTION('',(5.39671855473254E-12,-0.707106781155558,-0.707106781217537));
#611=DIRECTION('center_axis',(5.38408411415577E-12,-0.707106781217539,0.707106781155556));
#612=DIRECTION('ref_axis',(9.95799831487847E-17,0.707106781151742,0.707106781221353));
#613=DIRECTION('center_axis',(-5.51797701092557E-12,0.707106781217585,-0.70710678115551));
#614=DIRECTION('ref_axis',(-5.32917009862253E-12,-0.70710678115551,-0.707106781217585));
#615=DIRECTION('',(-5.39671855473254E-12,0.707106781155558,0.707106781217537));
#616=DIRECTION('',(-1.,-7.71791297359786E-12,8.58446664923671E-14));
#617=DIRECTION('',(5.39671855473217E-12,-0.70710678115551,-0.707106781217585));
#618=DIRECTION('',(1.,7.71791297359786E-12,-8.58446664923671E-14));
#619=DIRECTION('center_axis',(-5.51797701092557E-12,0.707106781217585,-0.70710678115551));
#620=DIRECTION('ref_axis',(9.95799831487847E-17,0.707106781151742,0.707106781221353));
#621=DIRECTION('center_axis',(1.22464680007528E-16,-0.707106781155562,-0.707106781217533));
#622=DIRECTION('ref_axis',(-1.,-7.62143459341846E-12,7.62126140153915E-12));
#623=DIRECTION('',(-1.07782137015996E-11,0.707106781217533,-0.707106781155562));
#624=DIRECTION('',(-1.,-7.62143459341846E-12,7.62126140153915E-12));
#625=DIRECTION('',(-1.07782137015996E-11,0.707106781217533,-0.707106781155562));
#626=DIRECTION('center_axis',(1.,4.35205349673678E-12,-1.08906424985074E-11));
#627=DIRECTION('ref_axis',(-4.62348062301614E-12,-0.707106781155556,-0.707106781217539));
#628=DIRECTION('',(-4.62348062301614E-12,-0.707106781155556,-0.707106781217539));
#629=DIRECTION('',(-1.07782137015996E-11,0.707106781217533,-0.707106781155562));
#630=DIRECTION('center_axis',(-1.1291008153131E-14,0.707106781155562,0.707106781217533));
#631=DIRECTION('ref_axis',(1.,7.63130628445048E-12,-7.61533838691935E-12));
#632=DIRECTION('',(1.,7.63130628445048E-12,-7.61533838691935E-12));
#633=DIRECTION('',(-1.07782137015996E-11,0.707106781217533,-0.707106781155562));
#634=DIRECTION('center_axis',(-1.07782137015996E-11,0.707106781217533,-0.707106781155562));
#635=DIRECTION('ref_axis',(1.,7.62143459341846E-12,-7.62126140153915E-12));
#636=DIRECTION('',(4.62348062301622E-12,0.707106781155554,0.707106781217541));
#637=DIRECTION('center_axis',(1.,7.62143459341846E-12,-7.62126140153915E-12));
#638=DIRECTION('ref_axis',(-7.62126140220722E-12,8.7656881753162E-11,-1.));
#639=DIRECTION('center_axis',(1.,7.62709673017556E-12,4.97157691401001E-15));
#640=DIRECTION('ref_axis',(-7.62126140220722E-12,8.7656881753162E-11,-1.));
#641=DIRECTION('',(1.,7.62143459341846E-12,-7.62126140153915E-12));
#642=DIRECTION('center_axis',(-1.,-7.62709673017556E-12,-4.97157691401001E-15));
#643=DIRECTION('ref_axis',(-7.62126140220722E-12,8.7656881753162E-11,-1.));
#644=DIRECTION('center_axis',(1.,7.62143459341846E-12,-7.62126140153915E-12));
#645=DIRECTION('ref_axis',(7.6214345927504E-12,-1.,-8.76568817532201E-11));
#646=DIRECTION('',(-1.07782137015996E-11,0.707106781217539,-0.707106781155556));
#647=DIRECTION('',(1.07782137015996E-11,-0.707106781217539,0.707106781155556));
#648=DIRECTION('',(1.22464679916247E-16,-0.707106781155556,-0.707106781217539));
#649=DIRECTION('center_axis',(-5.39432606699202E-12,0.707106781155556,0.707106781217539));
#650=DIRECTION('ref_axis',(1.,1.52499904856757E-11,-7.62126140087045E-12));
#651=DIRECTION('',(1.,7.62143459341846E-12,-7.62126140153915E-12));
#652=DIRECTION('',(5.38965638316032E-12,-0.707106781217539,0.707106781155556));
#653=DIRECTION('center_axis',(-1.,-7.62709673017556E-12,-4.97157691401001E-15));
#654=DIRECTION('ref_axis',(-5.39671855473254E-12,0.707106781155558,0.707106781217537));
#655=DIRECTION('',(1.22464679916247E-16,-0.707106781155556,-0.707106781217539));
#656=DIRECTION('',(-5.38965638316032E-12,0.707106781217539,-0.707106781155556));
#657=DIRECTION('',(-5.38957971812767E-12,0.707106781217537,-0.707106781155558));
#658=DIRECTION('',(5.384139625307E-12,-0.707106781217539,0.707106781155556));
#659=DIRECTION('center_axis',(5.39671855473252E-12,-0.707106781155556,-0.707106781217539));
#660=DIRECTION('ref_axis',(1.,7.6267081521169E-12,5.36015497259637E-15));
#661=DIRECTION('',(5.384139625307E-12,-0.707106781217539,0.707106781155556));
#662=DIRECTION('',(-5.38957971812767E-12,0.707106781217537,-0.707106781155558));
#663=DIRECTION('',(5.384139625307E-12,-0.707106781217539,0.707106781155556));
#664=DIRECTION('center_axis',(5.39432606699202E-12,-0.707106781155556,-0.707106781217539));
#665=DIRECTION('ref_axis',(-1.,-1.52499904856757E-11,7.62126140087045E-12));
#666=DIRECTION('',(1.,7.62143459341846E-12,-7.62126140153915E-12));
#667=DIRECTION('center_axis',(-5.39671855473252E-12,0.707106781155556,0.707106781217539));
#668=DIRECTION('ref_axis',(-1.,-7.6267081521169E-12,-5.36015497259637E-15));
#669=DIRECTION('',(5.384139625307E-12,-0.707106781217539,0.707106781155556));
#670=DIRECTION('',(-5.51797701092557E-12,0.707106781217539,-0.707106781155556));
#671=DIRECTION('',(5.384139625307E-12,-0.707106781217539,0.707106781155556));
#672=DIRECTION('center_axis',(1.07782137015996E-11,-0.707106781217539,0.707106781155556));
#673=DIRECTION('ref_axis',(-1.22464679916247E-16,0.707106781155556,0.707106781217539));
#674=DIRECTION('center_axis',(-5.38408411415577E-12,0.707106781221353,-0.707106781151742));
#675=DIRECTION('ref_axis',(-1.,-3.81222831080667E-12,3.80200500712158E-12));
#676=DIRECTION('center_axis',(-5.38408411415577E-12,0.707106781221353,-0.707106781151742));
#677=DIRECTION('ref_axis',(-1.,-3.8050581204393E-12,3.80908267890356E-12));
#678=DIRECTION('center_axis',(1.,7.62321094958903E-12,8.85735749985744E-15));
#679=DIRECTION('ref_axis',(-5.39671855473254E-12,0.707106781155558,0.707106781217537));
#680=DIRECTION('center_axis',(1.,7.62321094958903E-12,8.85735749985744E-15));
#681=DIRECTION('ref_axis',(-5.39671855473254E-12,0.707106781155558,0.707106781217537));
#682=DIRECTION('center_axis',(1.,7.62709673017556E-12,4.97157691401001E-15));
#683=DIRECTION('ref_axis',(5.39671855473254E-12,-0.707106781155558,-0.707106781217537));
#684=CARTESIAN_POINT('',(0.,0.,0.));
#685=CARTESIAN_POINT('Origin',(-10.7745692561749,195.084026169497,315.746372384959));
#686=CARTESIAN_POINT('',(-9.40516493057617,204.878115056687,304.327257837439));
#687=CARTESIAN_POINT('',(-10.7745692563362,205.690627887276,305.13977066811));
#688=CARTESIAN_POINT('',(-10.846627636348,205.733382504893,305.182525285731));
#689=CARTESIAN_POINT('',(-9.40516493054497,202.827505391157,306.377867502789));
#690=CARTESIAN_POINT('',(-9.40516493041486,194.271513338913,314.933859554283));
#691=CARTESIAN_POINT('',(-10.7745692563051,203.640018221746,307.19038033346));
#692=CARTESIAN_POINT('',(-10.8466276363265,203.682772839369,307.233134951087));
#693=CARTESIAN_POINT('',(-10.774569256174,195.084026169565,315.74637238489));
#694=CARTESIAN_POINT('Origin',(-10.7745692561749,195.084026169497,315.746372384959));
#695=CARTESIAN_POINT('',(-9.40516493044605,196.322123003956,312.88324988942));
#696=CARTESIAN_POINT('',(-10.7745692562061,197.134635834545,313.695762720091));
#697=CARTESIAN_POINT('',(-10.846627636256,197.177390452184,313.738517337735));
#698=CARTESIAN_POINT('',(-9.40516493041486,194.271513338913,314.933859554283));
#699=CARTESIAN_POINT('',(-9.40516493041486,194.271513338913,314.933859554283));
#700=CARTESIAN_POINT('',(-10.7745692561749,195.084026169497,315.746372384959));
#701=CARTESIAN_POINT('',(-10.8466276362338,195.126780786658,315.789127003093));
#702=CARTESIAN_POINT('',(-10.774569256174,195.084026169565,315.74637238489));
#703=CARTESIAN_POINT('Origin',(-9.40516493041486,194.271513338914,314.933859554283));
#704=CARTESIAN_POINT('',(-10.7745692563362,204.065602226088,303.514745006779));
#705=CARTESIAN_POINT('',(-10.0871357913865,204.473479213145,303.922621993867));
#706=CARTESIAN_POINT('',(-10.774569256305,202.014992560558,305.565354672129));
#707=CARTESIAN_POINT('',(-10.774569256174,193.459000508386,314.121346723552));
#708=CARTESIAN_POINT('',(-10.0871357913648,202.42286954761,305.973231659212));
#709=CARTESIAN_POINT('Origin',(-9.40516493041486,194.271513338914,314.933859554283));
#710=CARTESIAN_POINT('',(-10.7745692562061,195.509610173357,312.07073705876));
#711=CARTESIAN_POINT('',(-10.0871357912946,195.917487160392,312.478614045826));
#712=CARTESIAN_POINT('',(-10.7745692561749,193.459000508309,314.121346723628));
#713=CARTESIAN_POINT('',(-10.774569256174,193.459000508386,314.121346723552));
#714=CARTESIAN_POINT('',(-10.0871357912725,193.866877494854,314.529223711173));
#715=CARTESIAN_POINT('Origin',(-11.8568901257073,194.37891357201,315.041259788387));
#716=CARTESIAN_POINT('',(-15.1965697403432,191.90403983846,312.566386053557));
#717=CARTESIAN_POINT('',(-21.5585697403432,191.904039837892,312.566386054125));
#718=CARTESIAN_POINT('',(-15.9577299330158,191.904039837935,312.566386054125));
#719=CARTESIAN_POINT('',(-21.558569740327,189.782719494425,310.445065710473));
#720=CARTESIAN_POINT('',(-21.558569740327,189.782719494425,310.445065710473));
#721=CARTESIAN_POINT('',(-5.15521051101755,189.78271949455,310.445065710473));
#722=CARTESIAN_POINT('',(-18.5585697403268,189.782719494448,310.445065710473));
#723=CARTESIAN_POINT('',(-5.15521051108776,198.975107649572,319.637453866301));
#724=CARTESIAN_POINT('',(-5.15521051108761,198.975107649572,319.637453866301));
#725=CARTESIAN_POINT('',(-21.5585697403971,198.975107649448,319.6374538663));
#726=CARTESIAN_POINT('',(-21.1552105110876,198.97510764945,319.637453866301));
#727=CARTESIAN_POINT('',(-21.5585697403809,196.853787305981,317.516133522648));
#728=CARTESIAN_POINT('',(-21.558569740362,194.378913571937,315.041259788386));
#729=CARTESIAN_POINT('',(-15.1965697403108,196.853787306549,317.51613352208));
#730=CARTESIAN_POINT('',(-14.7077299330172,196.853787306007,317.516133522622));
#731=CARTESIAN_POINT('',(-15.1965697403432,194.378913571979,315.041259788381));
#732=CARTESIAN_POINT('Origin',(-11.7387506707043,194.271513338416,314.933859554781));
#733=CARTESIAN_POINT('Origin',(-11.856890125723,196.429523237542,312.990650123035));
#734=CARTESIAN_POINT('',(-5.15521051110332,201.025717315103,317.58684420095));
#735=CARTESIAN_POINT('',(-18.5585697404127,201.025717315001,317.58684420095));
#736=CARTESIAN_POINT('',(-8.50605031843065,201.025717315079,317.586844200949));
#737=CARTESIAN_POINT('',(-5.15521051103319,191.833329160081,308.394456045122));
#738=CARTESIAN_POINT('',(-5.15521051105074,194.131426198838,310.692553084077));
#739=CARTESIAN_POINT('',(-18.5585697403426,191.833329159979,308.394456045122));
#740=CARTESIAN_POINT('',(-15.2077299330153,191.833329160005,308.394456045121));
#741=CARTESIAN_POINT('',(-18.5585697404126,201.025717315001,317.58684420095));
#742=CARTESIAN_POINT('Origin',(-11.7387506707199,196.322123003958,312.88324988944));
#743=CARTESIAN_POINT('Origin',(-11.8568901257882,204.985515290273,304.434658071053));
#744=CARTESIAN_POINT('',(-21.5585697405048,202.510641556674,301.959784336273));
#745=CARTESIAN_POINT('',(-15.1965697405048,202.510641556723,301.959784336224));
#746=CARTESIAN_POINT('',(-13.5267299331465,202.510641556186,301.959784336762));
#747=CARTESIAN_POINT('',(-15.1965697404725,207.460389024812,306.909531804747));
#748=CARTESIAN_POINT('',(-15.1965697404806,206.22295215727,305.672094938184));
#749=CARTESIAN_POINT('',(-21.5585697404725,207.460389024763,306.909531804795));
#750=CARTESIAN_POINT('',(-16.7077299331303,207.460389024262,306.909531805296));
#751=CARTESIAN_POINT('',(-21.558569740478,209.58170936771,309.030852148967));
#752=CARTESIAN_POINT('',(-21.5585697404077,200.389321212688,299.838463993139));
#753=CARTESIAN_POINT('',(-5.15521051116858,209.581709367835,309.030852148968));
#754=CARTESIAN_POINT('',(-21.1552105111685,209.581709367714,309.030852148967));
#755=CARTESIAN_POINT('',(-5.15521051109838,200.389321212813,299.838463993139));
#756=CARTESIAN_POINT('',(-5.15521051116851,209.581709367835,309.030852148967));
#757=CARTESIAN_POINT('',(-21.5585697404078,200.389321212688,299.838463993139));
#758=CARTESIAN_POINT('',(-18.5585697404077,200.389321212711,299.838463993139));
#759=CARTESIAN_POINT('',(-21.5585697404077,200.389321212688,299.838463993139));
#760=CARTESIAN_POINT('Origin',(-11.7387506707851,204.878115056736,304.327257837505));
#761=CARTESIAN_POINT('Origin',(-11.8568901257726,202.934905624743,306.485267736404));
#762=CARTESIAN_POINT('',(-18.5585697403921,198.33871154718,301.889073658491));
#763=CARTESIAN_POINT('',(-18.5585697404623,207.531099702202,311.081461814319));
#764=CARTESIAN_POINT('',(-18.5585697404623,207.531099702202,311.081461814319));
#765=CARTESIAN_POINT('',(-5.15521051108282,198.338711547282,301.889073658491));
#766=CARTESIAN_POINT('',(-15.2077299330655,198.338711547207,301.88907365849));
#767=CARTESIAN_POINT('',(-5.15521051115302,207.531099702305,311.081461814319));
#768=CARTESIAN_POINT('',(-5.15521051110023,200.63680858604,304.187170697446));
#769=CARTESIAN_POINT('',(-8.50605031848085,207.53109970228,311.081461814318));
#770=CARTESIAN_POINT('Origin',(-11.7387506707694,202.827505391195,306.377867502844));
#771=CARTESIAN_POINT('Origin',(-15.1965697405048,202.510641556723,301.959784336224));
#772=CARTESIAN_POINT('',(-21.5585697405264,203.924855119109,300.545570773962));
#773=CARTESIAN_POINT('',(-21.5585697405048,202.510641556674,301.959784336273));
#774=CARTESIAN_POINT('',(-15.1965697405264,203.924855119158,300.545570773913));
#775=CARTESIAN_POINT('',(-21.5585697405264,203.92485511911,300.545570773962));
#776=CARTESIAN_POINT('',(-15.1965697405048,202.510641556723,301.959784336224));
#777=CARTESIAN_POINT('Origin',(-15.1965697404725,207.460389024812,306.909531804747));
#778=CARTESIAN_POINT('',(-15.196569740494,208.874602587247,305.495318242436));
#779=CARTESIAN_POINT('',(-15.1965697405264,203.924855119158,300.545570773913));
#780=CARTESIAN_POINT('',(-15.1965697404725,207.460389024812,306.909531804747));
#781=CARTESIAN_POINT('Origin',(-21.5585697404725,207.460389024763,306.909531804795));
#782=CARTESIAN_POINT('',(-21.558569740494,208.874602587198,305.495318242484));
#783=CARTESIAN_POINT('',(-15.196569740494,208.874602587247,305.495318242436));
#784=CARTESIAN_POINT('',(-21.5585697404725,207.460389024763,306.909531804795));
#785=CARTESIAN_POINT('Origin',(-18.3775697405102,206.399728853178,303.020444508199));
#786=CARTESIAN_POINT('',(-21.558569740494,208.874602587198,305.495318242484));
#787=CARTESIAN_POINT('Origin',(-34.5585697404078,199.682214430969,309.73795892878));
#788=CARTESIAN_POINT('',(-21.5585697403802,199.682214430936,311.237958928681));
#789=CARTESIAN_POINT('Origin',(-21.5585697403917,199.682214431068,309.737958928681));
#790=CARTESIAN_POINT('',(-18.5585697403964,199.682214430959,311.237958928658));
#791=CARTESIAN_POINT('',(-34.5585697403964,199.682214430837,311.23795892878));
#792=CARTESIAN_POINT('Origin',(-18.5585697404618,199.68221443109,309.737958928658));
#793=CARTESIAN_POINT('Origin',(-15.1965697403324,193.671806791287,315.748366568974));
#794=CARTESIAN_POINT('',(-15.1965697403216,190.489826276025,313.980599615869));
#795=CARTESIAN_POINT('',(-15.1965697403378,192.611146619427,311.859279272683));
#796=CARTESIAN_POINT('',(-15.1965697402893,195.439573744114,318.930347084391));
#797=CARTESIAN_POINT('',(-15.1965697403378,197.560894087475,316.809026741216));
#798=CARTESIAN_POINT('',(-15.1965697403054,192.964700010069,316.45547335013));
#799=CARTESIAN_POINT('Origin',(-18.5585697403594,194.025360181567,310.445065710659));
#800=CARTESIAN_POINT('',(-21.5585697403216,190.489826275976,313.980599615917));
#801=CARTESIAN_POINT('',(-17.5585697403216,190.489826276007,313.980599615887));
#802=CARTESIAN_POINT('',(-21.5585697403593,194.025360181544,310.445065710659));
#803=CARTESIAN_POINT('Origin',(-21.5585697403431,191.904039838078,308.323745367006));
#804=CARTESIAN_POINT('',(-21.5585697402893,195.439573744065,318.93034708444));
#805=CARTESIAN_POINT('',(-21.5585697403054,192.964700010021,316.455473350178));
#806=CARTESIAN_POINT('',(-21.5585697403971,198.975107649618,315.394813179166));
#807=CARTESIAN_POINT('',(-21.5585697404133,201.0964279931,317.516133522834));
#808=CARTESIAN_POINT('',(-21.5585697403431,191.904039838078,308.323745367006));
#809=CARTESIAN_POINT('Origin',(-18.5585697403432,191.904039838101,308.323745367006));
#810=CARTESIAN_POINT('',(-5.15521051109838,200.389321212813,299.838463993139));
#811=CARTESIAN_POINT('',(-18.5585697403432,191.904039838101,308.323745367006));
#812=CARTESIAN_POINT('',(-5.1552105110337,191.904039838203,308.323745367006));
#813=CARTESIAN_POINT('Origin',(-5.15521051108772,198.975107649743,315.394813179166));
#814=CARTESIAN_POINT('',(-17.5585697402893,195.439573744096,318.930347084409));
#815=CARTESIAN_POINT('Origin',(-5.15521051110392,201.096427993225,317.516133522834));
#816=CARTESIAN_POINT('',(-5.15521051110392,201.096427993225,317.516133522834));
#817=CARTESIAN_POINT('',(-18.5585697404133,201.096427993122,317.516133522835));
#818=CARTESIAN_POINT('',(-5.15521051116858,209.581709367835,309.030852148968));
#819=CARTESIAN_POINT('Origin',(-19.5585697403054,192.964700010036,316.455473350163));
#820=CARTESIAN_POINT('Origin',(-11.7387506707043,194.271513338972,314.933859554225));
#821=CARTESIAN_POINT('Origin',(-11.7387506707043,194.271513338972,314.933859554225));
#822=CARTESIAN_POINT('Origin',(-5.1552105110337,191.904039838203,308.323745367006));
#823=CARTESIAN_POINT('Origin',(-5.15521051109831,200.389321212813,299.838463993139));
#824=CARTESIAN_POINT('Origin',(-18.5585697404133,201.096427993123,317.516133522834));
#825=UNCERTAINTY_MEASURE_WITH_UNIT(LENGTH_MEASURE(0.01),#829,
'DISTANCE_ACCURACY_VALUE',
'Maximum model space distance between geometric entities at asserted c
onnectivities');
#826=UNCERTAINTY_MEASURE_WITH_UNIT(LENGTH_MEASURE(0.01),#829,
'DISTANCE_ACCURACY_VALUE',
'Maximum model space distance between geometric entities at asserted c
onnectivities');
#827=(
GEOMETRIC_REPRESENTATION_CONTEXT(3)
GLOBAL_UNCERTAINTY_ASSIGNED_CONTEXT((#825))
GLOBAL_UNIT_ASSIGNED_CONTEXT((#829,#831,#832))
REPRESENTATION_CONTEXT('','3D')
);
#828=(
GEOMETRIC_REPRESENTATION_CONTEXT(3)
GLOBAL_UNCERTAINTY_ASSIGNED_CONTEXT((#826))
GLOBAL_UNIT_ASSIGNED_CONTEXT((#829,#831,#832))
REPRESENTATION_CONTEXT('','3D')
);
#829=(
LENGTH_UNIT()
NAMED_UNIT(*)
SI_UNIT(.MILLI.,.METRE.)
);
#830=(
LENGTH_UNIT()
NAMED_UNIT(*)
SI_UNIT($,.METRE.)
);
#831=(
NAMED_UNIT(*)
PLANE_ANGLE_UNIT()
SI_UNIT($,.RADIAN.)
);
#832=(
NAMED_UNIT(*)
SI_UNIT($,.STERADIAN.)
SOLID_ANGLE_UNIT()
);
#833=SHAPE_DEFINITION_REPRESENTATION(#834,#835);
#834=PRODUCT_DEFINITION_SHAPE('',$,#837);
#835=SHAPE_REPRESENTATION('',(#525),#827);
#836=PRODUCT_DEFINITION_CONTEXT('part definition',#841,'design');
#837=PRODUCT_DEFINITION('tensionerinner2(1x)','tensionerinner2(1x) v1',
#838,#836);
#838=PRODUCT_DEFINITION_FORMATION('',$,#843);
#839=PRODUCT_RELATED_PRODUCT_CATEGORY('tensionerinner2(1x) v1',
'tensionerinner2(1x) v1',(#843));
#840=APPLICATION_PROTOCOL_DEFINITION('international standard',
'automotive_design',2009,#841);
#841=APPLICATION_CONTEXT(
'Core Data for Automotive Mechanical Design Process');
#842=PRODUCT_CONTEXT('part definition',#841,'mechanical');
#843=PRODUCT('tensionerinner2(1x)','tensionerinner2(1x) v1',$,(#842));
#844=PRESENTATION_STYLE_ASSIGNMENT((#845));
#845=SURFACE_STYLE_USAGE(.BOTH.,#846);
#846=SURFACE_SIDE_STYLE('',(#847));
#847=SURFACE_STYLE_FILL_AREA(#848);
#848=FILL_AREA_STYLE('Steel - Satin',(#849));
#849=FILL_AREA_STYLE_COLOUR('Steel - Satin',#850);
#850=COLOUR_RGB('Steel - Satin',0.627450980392157,0.627450980392157,0.627450980392157);
ENDSEC;
END-ISO-10303-21;
