ISO-10303-21;
HEADER;
/* Generated by software containing ST-Developer
 * from STEP Tools, Inc. (www.steptools.com) 
 */

FILE_DESCRIPTION(
/* description */ (''),
/* implementation_level */ '2;1');

FILE_NAME(
/* name */ 'tensionerouter3(1x).step',
/* time_stamp */ '2025-12-01T16:07:30+05:30',
/* author */ (''),
/* organization */ (''),
/* preprocessor_version */ 'ST-DEVELOPER v20.1',
/* originating_system */ 'Autodesk Translation Framework v14.21.0.0',
/* authorisation */ '');

FILE_SCHEMA (('AUTOMOTIVE_DESIGN { 1 0 10303 214 3 1 1 }'));
ENDSEC;

DATA;
#10=MECHANICAL_DESIGN_GEOMETRIC_PRESENTATION_REPRESENTATION('',(#13),#990);
#11=SHAPE_REPRESENTATION_RELATIONSHIP('SRR','None',#997,#12);
#12=ADVANCED_BREP_SHAPE_REPRESENTATION('',(#14),#989);
#13=STYLED_ITEM('',(#1006),#14);
#14=MANIFOLD_SOLID_BREP('Body1',#620);
#15=CIRCLE('',#640,1.49999999999999);
#16=CIRCLE('',#641,1.49999999999999);
#17=CIRCLE('',#647,1.49999999999999);
#18=CIRCLE('',#653,1.49999999999999);
#19=CIRCLE('',#656,1.49999999999999);
#20=CIRCLE('',#662,1.49999999999999);
#21=CYLINDRICAL_SURFACE('',#639,1.49999999999999);
#22=CYLINDRICAL_SURFACE('',#655,1.49999999999999);
#23=CYLINDRICAL_SURFACE('',#665,1.49999999999999);
#24=FACE_BOUND('',#64,.T.);
#25=FACE_BOUND('',#69,.T.);
#26=FACE_BOUND('',#72,.T.);
#27=FACE_BOUND('',#74,.T.);
#28=FACE_BOUND('',#76,.T.);
#29=FACE_BOUND('',#77,.T.);
#30=FACE_BOUND('',#83,.T.);
#31=FACE_BOUND('',#87,.T.);
#32=FACE_BOUND('',#92,.T.);
#33=FACE_OUTER_BOUND('',#61,.T.);
#34=FACE_OUTER_BOUND('',#62,.T.);
#35=FACE_OUTER_BOUND('',#63,.T.);
#36=FACE_OUTER_BOUND('',#65,.T.);
#37=FACE_OUTER_BOUND('',#66,.T.);
#38=FACE_OUTER_BOUND('',#67,.T.);
#39=FACE_OUTER_BOUND('',#68,.T.);
#40=FACE_OUTER_BOUND('',#70,.T.);
#41=FACE_OUTER_BOUND('',#71,.T.);
#42=FACE_OUTER_BOUND('',#73,.T.);
#43=FACE_OUTER_BOUND('',#75,.T.);
#44=FACE_OUTER_BOUND('',#78,.T.);
#45=FACE_OUTER_BOUND('',#79,.T.);
#46=FACE_OUTER_BOUND('',#80,.T.);
#47=FACE_OUTER_BOUND('',#81,.T.);
#48=FACE_OUTER_BOUND('',#82,.T.);
#49=FACE_OUTER_BOUND('',#84,.T.);
#50=FACE_OUTER_BOUND('',#85,.T.);
#51=FACE_OUTER_BOUND('',#86,.T.);
#52=FACE_OUTER_BOUND('',#88,.T.);
#53=FACE_OUTER_BOUND('',#89,.T.);
#54=FACE_OUTER_BOUND('',#90,.T.);
#55=FACE_OUTER_BOUND('',#91,.T.);
#56=FACE_OUTER_BOUND('',#93,.T.);
#57=FACE_OUTER_BOUND('',#94,.T.);
#58=FACE_OUTER_BOUND('',#95,.T.);
#59=FACE_OUTER_BOUND('',#96,.T.);
#60=FACE_OUTER_BOUND('',#97,.T.);
#61=EDGE_LOOP('',(#397,#398,#399,#400));
#62=EDGE_LOOP('',(#401,#402,#403,#404));
#63=EDGE_LOOP('',(#405,#406,#407,#408));
#64=EDGE_LOOP('',(#409,#410,#411,#412));
#65=EDGE_LOOP('',(#413,#414,#415,#416,#417,#418,#419,#420,#421,#422));
#66=EDGE_LOOP('',(#423,#424,#425,#426,#427,#428,#429,#430,#431,#432,#433,
#434,#435));
#67=EDGE_LOOP('',(#436,#437,#438,#439));
#68=EDGE_LOOP('',(#440,#441,#442,#443));
#69=EDGE_LOOP('',(#444));
#70=EDGE_LOOP('',(#445,#446,#447,#448));
#71=EDGE_LOOP('',(#449,#450,#451,#452));
#72=EDGE_LOOP('',(#453,#454,#455,#456));
#73=EDGE_LOOP('',(#457,#458,#459,#460));
#74=EDGE_LOOP('',(#461));
#75=EDGE_LOOP('',(#462,#463,#464,#465));
#76=EDGE_LOOP('',(#466,#467,#468,#469));
#77=EDGE_LOOP('',(#470,#471,#472));
#78=EDGE_LOOP('',(#473,#474,#475,#476));
#79=EDGE_LOOP('',(#477,#478,#479,#480));
#80=EDGE_LOOP('',(#481,#482,#483,#484));
#81=EDGE_LOOP('',(#485,#486,#487,#488));
#82=EDGE_LOOP('',(#489,#490,#491,#492,#493,#494));
#83=EDGE_LOOP('',(#495));
#84=EDGE_LOOP('',(#496,#497,#498,#499,#500,#501,#502,#503,#504,#505,#506,
#507,#508));
#85=EDGE_LOOP('',(#509,#510,#511,#512));
#86=EDGE_LOOP('',(#513,#514,#515,#516,#517,#518));
#87=EDGE_LOOP('',(#519));
#88=EDGE_LOOP('',(#520,#521,#522,#523));
#89=EDGE_LOOP('',(#524,#525,#526,#527));
#90=EDGE_LOOP('',(#528,#529,#530,#531));
#91=EDGE_LOOP('',(#532,#533,#534,#535,#536,#537,#538,#539));
#92=EDGE_LOOP('',(#540,#541,#542));
#93=EDGE_LOOP('',(#543,#544,#545,#546));
#94=EDGE_LOOP('',(#547,#548,#549,#550,#551,#552));
#95=EDGE_LOOP('',(#553,#554,#555,#556));
#96=EDGE_LOOP('',(#557,#558,#559,#560,#561,#562));
#97=EDGE_LOOP('',(#563,#564,#565,#566));
#98=LINE('',#821,#177);
#99=LINE('',#823,#178);
#100=LINE('',#825,#179);
#101=LINE('',#826,#180);
#102=LINE('',#830,#181);
#103=LINE('',#832,#182);
#104=LINE('',#834,#183);
#105=LINE('',#835,#184);
#106=LINE('',#839,#185);
#107=LINE('',#841,#186);
#108=LINE('',#843,#187);
#109=LINE('',#844,#188);
#110=LINE('',#847,#189);
#111=LINE('',#849,#190);
#112=LINE('',#851,#191);
#113=LINE('',#852,#192);
#114=LINE('',#856,#193);
#115=LINE('',#858,#194);
#116=LINE('',#860,#195);
#117=LINE('',#862,#196);
#118=LINE('',#864,#197);
#119=LINE('',#865,#198);
#120=LINE('',#866,#199);
#121=LINE('',#867,#200);
#122=LINE('',#868,#201);
#123=LINE('',#870,#202);
#124=LINE('',#872,#203);
#125=LINE('',#874,#204);
#126=LINE('',#876,#205);
#127=LINE('',#878,#206);
#128=LINE('',#880,#207);
#129=LINE('',#882,#208);
#130=LINE('',#884,#209);
#131=LINE('',#886,#210);
#132=LINE('',#887,#211);
#133=LINE('',#892,#212);
#134=LINE('',#896,#213);
#135=LINE('',#898,#214);
#136=LINE('',#899,#215);
#137=LINE('',#902,#216);
#138=LINE('',#904,#217);
#139=LINE('',#905,#218);
#140=LINE('',#908,#219);
#141=LINE('',#909,#220);
#142=LINE('',#911,#221);
#143=LINE('',#913,#222);
#144=LINE('',#914,#223);
#145=LINE('',#916,#224);
#146=LINE('',#919,#225);
#147=LINE('',#920,#226);
#148=LINE('',#922,#227);
#149=LINE('',#924,#228);
#150=LINE('',#925,#229);
#151=LINE('',#928,#230);
#152=LINE('',#930,#231);
#153=LINE('',#933,#232);
#154=LINE('',#934,#233);
#155=LINE('',#938,#234);
#156=LINE('',#941,#235);
#157=LINE('',#942,#236);
#158=LINE('',#948,#237);
#159=LINE('',#949,#238);
#160=LINE('',#951,#239);
#161=LINE('',#952,#240);
#162=LINE('',#955,#241);
#163=LINE('',#958,#242);
#164=LINE('',#959,#243);
#165=LINE('',#960,#244);
#166=LINE('',#965,#245);
#167=LINE('',#966,#246);
#168=LINE('',#967,#247);
#169=LINE('',#970,#248);
#170=LINE('',#971,#249);
#171=LINE('',#973,#250);
#172=LINE('',#975,#251);
#173=LINE('',#977,#252);
#174=LINE('',#978,#253);
#175=LINE('',#981,#254);
#176=LINE('',#982,#255);
#177=VECTOR('',#672,10.);
#178=VECTOR('',#673,10.);
#179=VECTOR('',#674,10.);
#180=VECTOR('',#675,10.);
#181=VECTOR('',#678,10.);
#182=VECTOR('',#679,10.);
#183=VECTOR('',#680,10.);
#184=VECTOR('',#681,10.);
#185=VECTOR('',#684,10.);
#186=VECTOR('',#685,10.);
#187=VECTOR('',#686,10.);
#188=VECTOR('',#687,10.);
#189=VECTOR('',#688,10.);
#190=VECTOR('',#689,10.);
#191=VECTOR('',#690,10.);
#192=VECTOR('',#691,10.);
#193=VECTOR('',#694,10.);
#194=VECTOR('',#695,10.);
#195=VECTOR('',#696,10.);
#196=VECTOR('',#697,10.);
#197=VECTOR('',#698,10.);
#198=VECTOR('',#699,10.);
#199=VECTOR('',#700,10.);
#200=VECTOR('',#701,10.);
#201=VECTOR('',#702,10.);
#202=VECTOR('',#705,10.);
#203=VECTOR('',#706,10.);
#204=VECTOR('',#707,10.);
#205=VECTOR('',#708,10.);
#206=VECTOR('',#709,10.);
#207=VECTOR('',#710,10.);
#208=VECTOR('',#711,10.);
#209=VECTOR('',#712,10.);
#210=VECTOR('',#713,10.);
#211=VECTOR('',#714,10.);
#212=VECTOR('',#719,1.49999999999999);
#213=VECTOR('',#724,10.);
#214=VECTOR('',#725,10.);
#215=VECTOR('',#726,10.);
#216=VECTOR('',#729,10.);
#217=VECTOR('',#730,10.);
#218=VECTOR('',#731,10.);
#219=VECTOR('',#734,10.);
#220=VECTOR('',#735,10.);
#221=VECTOR('',#736,10.);
#222=VECTOR('',#737,10.);
#223=VECTOR('',#738,10.);
#224=VECTOR('',#741,10.);
#225=VECTOR('',#744,10.);
#226=VECTOR('',#745,10.);
#227=VECTOR('',#746,10.);
#228=VECTOR('',#747,10.);
#229=VECTOR('',#748,10.);
#230=VECTOR('',#749,10.);
#231=VECTOR('',#750,10.);
#232=VECTOR('',#755,10.);
#233=VECTOR('',#756,10.);
#234=VECTOR('',#763,10.);
#235=VECTOR('',#766,10.);
#236=VECTOR('',#767,10.);
#237=VECTOR('',#772,10.);
#238=VECTOR('',#773,10.);
#239=VECTOR('',#774,10.);
#240=VECTOR('',#775,10.);
#241=VECTOR('',#778,1.49999999999999);
#242=VECTOR('',#783,10.);
#243=VECTOR('',#784,10.);
#244=VECTOR('',#785,10.);
#245=VECTOR('',#790,10.);
#246=VECTOR('',#791,10.);
#247=VECTOR('',#792,10.);
#248=VECTOR('',#795,10.);
#249=VECTOR('',#796,10.);
#250=VECTOR('',#799,10.);
#251=VECTOR('',#800,10.);
#252=VECTOR('',#801,10.);
#253=VECTOR('',#802,10.);
#254=VECTOR('',#807,10.);
#255=VECTOR('',#808,10.);
#256=VERTEX_POINT('',#819);
#257=VERTEX_POINT('',#820);
#258=VERTEX_POINT('',#822);
#259=VERTEX_POINT('',#824);
#260=VERTEX_POINT('',#828);
#261=VERTEX_POINT('',#829);
#262=VERTEX_POINT('',#831);
#263=VERTEX_POINT('',#833);
#264=VERTEX_POINT('',#837);
#265=VERTEX_POINT('',#838);
#266=VERTEX_POINT('',#840);
#267=VERTEX_POINT('',#842);
#268=VERTEX_POINT('',#845);
#269=VERTEX_POINT('',#846);
#270=VERTEX_POINT('',#848);
#271=VERTEX_POINT('',#850);
#272=VERTEX_POINT('',#854);
#273=VERTEX_POINT('',#855);
#274=VERTEX_POINT('',#857);
#275=VERTEX_POINT('',#859);
#276=VERTEX_POINT('',#861);
#277=VERTEX_POINT('',#863);
#278=VERTEX_POINT('',#871);
#279=VERTEX_POINT('',#873);
#280=VERTEX_POINT('',#875);
#281=VERTEX_POINT('',#877);
#282=VERTEX_POINT('',#879);
#283=VERTEX_POINT('',#881);
#284=VERTEX_POINT('',#883);
#285=VERTEX_POINT('',#885);
#286=VERTEX_POINT('',#889);
#287=VERTEX_POINT('',#891);
#288=VERTEX_POINT('',#895);
#289=VERTEX_POINT('',#897);
#290=VERTEX_POINT('',#901);
#291=VERTEX_POINT('',#903);
#292=VERTEX_POINT('',#907);
#293=VERTEX_POINT('',#910);
#294=VERTEX_POINT('',#912);
#295=VERTEX_POINT('',#918);
#296=VERTEX_POINT('',#921);
#297=VERTEX_POINT('',#923);
#298=VERTEX_POINT('',#926);
#299=VERTEX_POINT('',#927);
#300=VERTEX_POINT('',#929);
#301=VERTEX_POINT('',#940);
#302=VERTEX_POINT('',#943);
#303=VERTEX_POINT('',#946);
#304=VERTEX_POINT('',#947);
#305=VERTEX_POINT('',#950);
#306=VERTEX_POINT('',#954);
#307=VERTEX_POINT('',#963);
#308=VERTEX_POINT('',#964);
#309=VERTEX_POINT('',#969);
#310=VERTEX_POINT('',#974);
#311=VERTEX_POINT('',#976);
#312=EDGE_CURVE('',#256,#257,#98,.T.);
#313=EDGE_CURVE('',#257,#258,#99,.T.);
#314=EDGE_CURVE('',#258,#259,#100,.T.);
#315=EDGE_CURVE('',#256,#259,#101,.T.);
#316=EDGE_CURVE('',#260,#261,#102,.T.);
#317=EDGE_CURVE('',#261,#262,#103,.T.);
#318=EDGE_CURVE('',#262,#263,#104,.T.);
#319=EDGE_CURVE('',#263,#260,#105,.T.);
#320=EDGE_CURVE('',#264,#265,#106,.T.);
#321=EDGE_CURVE('',#264,#266,#107,.T.);
#322=EDGE_CURVE('',#266,#267,#108,.T.);
#323=EDGE_CURVE('',#265,#267,#109,.T.);
#324=EDGE_CURVE('',#268,#269,#110,.T.);
#325=EDGE_CURVE('',#269,#270,#111,.T.);
#326=EDGE_CURVE('',#270,#271,#112,.T.);
#327=EDGE_CURVE('',#268,#271,#113,.T.);
#328=EDGE_CURVE('',#272,#273,#114,.T.);
#329=EDGE_CURVE('',#273,#274,#115,.T.);
#330=EDGE_CURVE('',#274,#275,#116,.T.);
#331=EDGE_CURVE('',#275,#276,#117,.T.);
#332=EDGE_CURVE('',#276,#277,#118,.T.);
#333=EDGE_CURVE('',#259,#277,#119,.T.);
#334=EDGE_CURVE('',#259,#262,#120,.T.);
#335=EDGE_CURVE('',#256,#261,#121,.T.);
#336=EDGE_CURVE('',#272,#256,#122,.T.);
#337=EDGE_CURVE('',#274,#266,#123,.T.);
#338=EDGE_CURVE('',#272,#278,#124,.T.);
#339=EDGE_CURVE('',#279,#278,#125,.T.);
#340=EDGE_CURVE('',#280,#279,#126,.T.);
#341=EDGE_CURVE('',#281,#280,#127,.T.);
#342=EDGE_CURVE('',#282,#281,#128,.T.);
#343=EDGE_CURVE('',#282,#283,#129,.T.);
#344=EDGE_CURVE('',#284,#283,#130,.T.);
#345=EDGE_CURVE('',#284,#285,#131,.T.);
#346=EDGE_CURVE('',#267,#285,#132,.T.);
#347=EDGE_CURVE('',#286,#286,#15,.T.);
#348=EDGE_CURVE('',#286,#287,#133,.T.);
#349=EDGE_CURVE('',#287,#287,#16,.T.);
#350=EDGE_CURVE('',#283,#288,#134,.T.);
#351=EDGE_CURVE('',#289,#288,#135,.T.);
#352=EDGE_CURVE('',#289,#284,#136,.T.);
#353=EDGE_CURVE('',#290,#268,#137,.T.);
#354=EDGE_CURVE('',#271,#291,#138,.T.);
#355=EDGE_CURVE('',#291,#290,#139,.T.);
#356=EDGE_CURVE('',#292,#289,#140,.T.);
#357=EDGE_CURVE('',#285,#292,#141,.T.);
#358=EDGE_CURVE('',#293,#291,#142,.T.);
#359=EDGE_CURVE('',#294,#293,#143,.T.);
#360=EDGE_CURVE('',#294,#290,#144,.T.);
#361=EDGE_CURVE('',#264,#275,#145,.T.);
#362=EDGE_CURVE('',#295,#282,#146,.T.);
#363=EDGE_CURVE('',#288,#295,#147,.T.);
#364=EDGE_CURVE('',#296,#263,#148,.T.);
#365=EDGE_CURVE('',#297,#296,#149,.T.);
#366=EDGE_CURVE('',#297,#260,#150,.T.);
#367=EDGE_CURVE('',#298,#299,#151,.T.);
#368=EDGE_CURVE('',#299,#300,#152,.T.);
#369=EDGE_CURVE('',#300,#298,#17,.T.);
#370=EDGE_CURVE('',#293,#270,#153,.T.);
#371=EDGE_CURVE('',#269,#294,#154,.T.);
#372=EDGE_CURVE('',#292,#265,#155,.T.);
#373=EDGE_CURVE('',#277,#301,#156,.T.);
#374=EDGE_CURVE('',#278,#301,#157,.T.);
#375=EDGE_CURVE('',#302,#302,#18,.T.);
#376=EDGE_CURVE('',#303,#304,#158,.T.);
#377=EDGE_CURVE('',#301,#304,#159,.T.);
#378=EDGE_CURVE('',#305,#295,#160,.T.);
#379=EDGE_CURVE('',#305,#303,#161,.T.);
#380=EDGE_CURVE('',#302,#306,#162,.T.);
#381=EDGE_CURVE('',#306,#306,#19,.T.);
#382=EDGE_CURVE('',#280,#257,#163,.T.);
#383=EDGE_CURVE('',#304,#279,#164,.T.);
#384=EDGE_CURVE('',#258,#303,#165,.T.);
#385=EDGE_CURVE('',#307,#308,#166,.T.);
#386=EDGE_CURVE('',#299,#307,#167,.T.);
#387=EDGE_CURVE('',#308,#298,#168,.T.);
#388=EDGE_CURVE('',#309,#307,#169,.T.);
#389=EDGE_CURVE('',#309,#300,#170,.T.);
#390=EDGE_CURVE('',#305,#281,#171,.T.);
#391=EDGE_CURVE('',#310,#257,#172,.T.);
#392=EDGE_CURVE('',#311,#310,#173,.T.);
#393=EDGE_CURVE('',#311,#258,#174,.T.);
#394=EDGE_CURVE('',#308,#309,#20,.T.);
#395=EDGE_CURVE('',#311,#296,#175,.T.);
#396=EDGE_CURVE('',#297,#310,#176,.T.);
#397=ORIENTED_EDGE('',*,*,#312,.T.);
#398=ORIENTED_EDGE('',*,*,#313,.T.);
#399=ORIENTED_EDGE('',*,*,#314,.T.);
#400=ORIENTED_EDGE('',*,*,#315,.F.);
#401=ORIENTED_EDGE('',*,*,#316,.T.);
#402=ORIENTED_EDGE('',*,*,#317,.T.);
#403=ORIENTED_EDGE('',*,*,#318,.T.);
#404=ORIENTED_EDGE('',*,*,#319,.T.);
#405=ORIENTED_EDGE('',*,*,#320,.F.);
#406=ORIENTED_EDGE('',*,*,#321,.T.);
#407=ORIENTED_EDGE('',*,*,#322,.T.);
#408=ORIENTED_EDGE('',*,*,#323,.F.);
#409=ORIENTED_EDGE('',*,*,#324,.T.);
#410=ORIENTED_EDGE('',*,*,#325,.T.);
#411=ORIENTED_EDGE('',*,*,#326,.T.);
#412=ORIENTED_EDGE('',*,*,#327,.F.);
#413=ORIENTED_EDGE('',*,*,#328,.T.);
#414=ORIENTED_EDGE('',*,*,#329,.T.);
#415=ORIENTED_EDGE('',*,*,#330,.T.);
#416=ORIENTED_EDGE('',*,*,#331,.T.);
#417=ORIENTED_EDGE('',*,*,#332,.T.);
#418=ORIENTED_EDGE('',*,*,#333,.F.);
#419=ORIENTED_EDGE('',*,*,#334,.T.);
#420=ORIENTED_EDGE('',*,*,#317,.F.);
#421=ORIENTED_EDGE('',*,*,#335,.F.);
#422=ORIENTED_EDGE('',*,*,#336,.F.);
#423=ORIENTED_EDGE('',*,*,#322,.F.);
#424=ORIENTED_EDGE('',*,*,#337,.F.);
#425=ORIENTED_EDGE('',*,*,#329,.F.);
#426=ORIENTED_EDGE('',*,*,#328,.F.);
#427=ORIENTED_EDGE('',*,*,#338,.T.);
#428=ORIENTED_EDGE('',*,*,#339,.F.);
#429=ORIENTED_EDGE('',*,*,#340,.F.);
#430=ORIENTED_EDGE('',*,*,#341,.F.);
#431=ORIENTED_EDGE('',*,*,#342,.F.);
#432=ORIENTED_EDGE('',*,*,#343,.T.);
#433=ORIENTED_EDGE('',*,*,#344,.F.);
#434=ORIENTED_EDGE('',*,*,#345,.T.);
#435=ORIENTED_EDGE('',*,*,#346,.F.);
#436=ORIENTED_EDGE('',*,*,#347,.F.);
#437=ORIENTED_EDGE('',*,*,#348,.T.);
#438=ORIENTED_EDGE('',*,*,#349,.F.);
#439=ORIENTED_EDGE('',*,*,#348,.F.);
#440=ORIENTED_EDGE('',*,*,#344,.T.);
#441=ORIENTED_EDGE('',*,*,#350,.T.);
#442=ORIENTED_EDGE('',*,*,#351,.F.);
#443=ORIENTED_EDGE('',*,*,#352,.T.);
#444=ORIENTED_EDGE('',*,*,#349,.T.);
#445=ORIENTED_EDGE('',*,*,#353,.T.);
#446=ORIENTED_EDGE('',*,*,#327,.T.);
#447=ORIENTED_EDGE('',*,*,#354,.T.);
#448=ORIENTED_EDGE('',*,*,#355,.T.);
#449=ORIENTED_EDGE('',*,*,#356,.F.);
#450=ORIENTED_EDGE('',*,*,#357,.F.);
#451=ORIENTED_EDGE('',*,*,#345,.F.);
#452=ORIENTED_EDGE('',*,*,#352,.F.);
#453=ORIENTED_EDGE('',*,*,#355,.F.);
#454=ORIENTED_EDGE('',*,*,#358,.F.);
#455=ORIENTED_EDGE('',*,*,#359,.F.);
#456=ORIENTED_EDGE('',*,*,#360,.T.);
#457=ORIENTED_EDGE('',*,*,#330,.F.);
#458=ORIENTED_EDGE('',*,*,#337,.T.);
#459=ORIENTED_EDGE('',*,*,#321,.F.);
#460=ORIENTED_EDGE('',*,*,#361,.T.);
#461=ORIENTED_EDGE('',*,*,#347,.T.);
#462=ORIENTED_EDGE('',*,*,#343,.F.);
#463=ORIENTED_EDGE('',*,*,#362,.F.);
#464=ORIENTED_EDGE('',*,*,#363,.F.);
#465=ORIENTED_EDGE('',*,*,#350,.F.);
#466=ORIENTED_EDGE('',*,*,#319,.F.);
#467=ORIENTED_EDGE('',*,*,#364,.F.);
#468=ORIENTED_EDGE('',*,*,#365,.F.);
#469=ORIENTED_EDGE('',*,*,#366,.T.);
#470=ORIENTED_EDGE('',*,*,#367,.T.);
#471=ORIENTED_EDGE('',*,*,#368,.T.);
#472=ORIENTED_EDGE('',*,*,#369,.T.);
#473=ORIENTED_EDGE('',*,*,#359,.T.);
#474=ORIENTED_EDGE('',*,*,#370,.T.);
#475=ORIENTED_EDGE('',*,*,#325,.F.);
#476=ORIENTED_EDGE('',*,*,#371,.T.);
#477=ORIENTED_EDGE('',*,*,#358,.T.);
#478=ORIENTED_EDGE('',*,*,#354,.F.);
#479=ORIENTED_EDGE('',*,*,#326,.F.);
#480=ORIENTED_EDGE('',*,*,#370,.F.);
#481=ORIENTED_EDGE('',*,*,#360,.F.);
#482=ORIENTED_EDGE('',*,*,#371,.F.);
#483=ORIENTED_EDGE('',*,*,#324,.F.);
#484=ORIENTED_EDGE('',*,*,#353,.F.);
#485=ORIENTED_EDGE('',*,*,#346,.T.);
#486=ORIENTED_EDGE('',*,*,#357,.T.);
#487=ORIENTED_EDGE('',*,*,#372,.T.);
#488=ORIENTED_EDGE('',*,*,#323,.T.);
#489=ORIENTED_EDGE('',*,*,#336,.T.);
#490=ORIENTED_EDGE('',*,*,#315,.T.);
#491=ORIENTED_EDGE('',*,*,#333,.T.);
#492=ORIENTED_EDGE('',*,*,#373,.T.);
#493=ORIENTED_EDGE('',*,*,#374,.F.);
#494=ORIENTED_EDGE('',*,*,#338,.F.);
#495=ORIENTED_EDGE('',*,*,#375,.T.);
#496=ORIENTED_EDGE('',*,*,#376,.T.);
#497=ORIENTED_EDGE('',*,*,#377,.F.);
#498=ORIENTED_EDGE('',*,*,#373,.F.);
#499=ORIENTED_EDGE('',*,*,#332,.F.);
#500=ORIENTED_EDGE('',*,*,#331,.F.);
#501=ORIENTED_EDGE('',*,*,#361,.F.);
#502=ORIENTED_EDGE('',*,*,#320,.T.);
#503=ORIENTED_EDGE('',*,*,#372,.F.);
#504=ORIENTED_EDGE('',*,*,#356,.T.);
#505=ORIENTED_EDGE('',*,*,#351,.T.);
#506=ORIENTED_EDGE('',*,*,#363,.T.);
#507=ORIENTED_EDGE('',*,*,#378,.F.);
#508=ORIENTED_EDGE('',*,*,#379,.T.);
#509=ORIENTED_EDGE('',*,*,#375,.F.);
#510=ORIENTED_EDGE('',*,*,#380,.T.);
#511=ORIENTED_EDGE('',*,*,#381,.F.);
#512=ORIENTED_EDGE('',*,*,#380,.F.);
#513=ORIENTED_EDGE('',*,*,#382,.F.);
#514=ORIENTED_EDGE('',*,*,#340,.T.);
#515=ORIENTED_EDGE('',*,*,#383,.F.);
#516=ORIENTED_EDGE('',*,*,#376,.F.);
#517=ORIENTED_EDGE('',*,*,#384,.F.);
#518=ORIENTED_EDGE('',*,*,#313,.F.);
#519=ORIENTED_EDGE('',*,*,#381,.T.);
#520=ORIENTED_EDGE('',*,*,#383,.T.);
#521=ORIENTED_EDGE('',*,*,#339,.T.);
#522=ORIENTED_EDGE('',*,*,#374,.T.);
#523=ORIENTED_EDGE('',*,*,#377,.T.);
#524=ORIENTED_EDGE('',*,*,#385,.F.);
#525=ORIENTED_EDGE('',*,*,#386,.F.);
#526=ORIENTED_EDGE('',*,*,#367,.F.);
#527=ORIENTED_EDGE('',*,*,#387,.F.);
#528=ORIENTED_EDGE('',*,*,#388,.F.);
#529=ORIENTED_EDGE('',*,*,#389,.T.);
#530=ORIENTED_EDGE('',*,*,#368,.F.);
#531=ORIENTED_EDGE('',*,*,#386,.T.);
#532=ORIENTED_EDGE('',*,*,#379,.F.);
#533=ORIENTED_EDGE('',*,*,#390,.T.);
#534=ORIENTED_EDGE('',*,*,#341,.T.);
#535=ORIENTED_EDGE('',*,*,#382,.T.);
#536=ORIENTED_EDGE('',*,*,#391,.F.);
#537=ORIENTED_EDGE('',*,*,#392,.F.);
#538=ORIENTED_EDGE('',*,*,#393,.T.);
#539=ORIENTED_EDGE('',*,*,#384,.T.);
#540=ORIENTED_EDGE('',*,*,#388,.T.);
#541=ORIENTED_EDGE('',*,*,#385,.T.);
#542=ORIENTED_EDGE('',*,*,#394,.T.);
#543=ORIENTED_EDGE('',*,*,#365,.T.);
#544=ORIENTED_EDGE('',*,*,#395,.F.);
#545=ORIENTED_EDGE('',*,*,#392,.T.);
#546=ORIENTED_EDGE('',*,*,#396,.F.);
#547=ORIENTED_EDGE('',*,*,#396,.T.);
#548=ORIENTED_EDGE('',*,*,#391,.T.);
#549=ORIENTED_EDGE('',*,*,#312,.F.);
#550=ORIENTED_EDGE('',*,*,#335,.T.);
#551=ORIENTED_EDGE('',*,*,#316,.F.);
#552=ORIENTED_EDGE('',*,*,#366,.F.);
#553=ORIENTED_EDGE('',*,*,#389,.F.);
#554=ORIENTED_EDGE('',*,*,#394,.F.);
#555=ORIENTED_EDGE('',*,*,#387,.T.);
#556=ORIENTED_EDGE('',*,*,#369,.F.);
#557=ORIENTED_EDGE('',*,*,#395,.T.);
#558=ORIENTED_EDGE('',*,*,#364,.T.);
#559=ORIENTED_EDGE('',*,*,#318,.F.);
#560=ORIENTED_EDGE('',*,*,#334,.F.);
#561=ORIENTED_EDGE('',*,*,#314,.F.);
#562=ORIENTED_EDGE('',*,*,#393,.F.);
#563=ORIENTED_EDGE('',*,*,#342,.T.);
#564=ORIENTED_EDGE('',*,*,#390,.F.);
#565=ORIENTED_EDGE('',*,*,#378,.T.);
#566=ORIENTED_EDGE('',*,*,#362,.T.);
#567=PLANE('',#634);
#568=PLANE('',#635);
#569=PLANE('',#636);
#570=PLANE('',#637);
#571=PLANE('',#638);
#572=PLANE('',#642);
#573=PLANE('',#643);
#574=PLANE('',#644);
#575=PLANE('',#645);
#576=PLANE('',#646);
#577=PLANE('',#648);
#578=PLANE('',#649);
#579=PLANE('',#650);
#580=PLANE('',#651);
#581=PLANE('',#652);
#582=PLANE('',#654);
#583=PLANE('',#657);
#584=PLANE('',#658);
#585=PLANE('',#659);
#586=PLANE('',#660);
#587=PLANE('',#661);
#588=PLANE('',#663);
#589=PLANE('',#664);
#590=PLANE('',#666);
#591=PLANE('',#667);
#592=ADVANCED_FACE('',(#33),#567,.F.);
#593=ADVANCED_FACE('',(#34),#568,.F.);
#594=ADVANCED_FACE('',(#35,#24),#569,.T.);
#595=ADVANCED_FACE('',(#36),#570,.T.);
#596=ADVANCED_FACE('',(#37),#571,.F.);
#597=ADVANCED_FACE('',(#38),#21,.F.);
#598=ADVANCED_FACE('',(#39,#25),#572,.T.);
#599=ADVANCED_FACE('',(#40),#573,.F.);
#600=ADVANCED_FACE('',(#41,#26),#574,.F.);
#601=ADVANCED_FACE('',(#42,#27),#575,.T.);
#602=ADVANCED_FACE('',(#43,#28,#29),#576,.F.);
#603=ADVANCED_FACE('',(#44),#577,.F.);
#604=ADVANCED_FACE('',(#45),#578,.F.);
#605=ADVANCED_FACE('',(#46),#579,.F.);
#606=ADVANCED_FACE('',(#47),#580,.T.);
#607=ADVANCED_FACE('',(#48,#30),#581,.T.);
#608=ADVANCED_FACE('',(#49),#582,.T.);
#609=ADVANCED_FACE('',(#50),#22,.F.);
#610=ADVANCED_FACE('',(#51,#31),#583,.T.);
#611=ADVANCED_FACE('',(#52),#584,.T.);
#612=ADVANCED_FACE('',(#53),#585,.F.);
#613=ADVANCED_FACE('',(#54),#586,.F.);
#614=ADVANCED_FACE('',(#55,#32),#587,.T.);
#615=ADVANCED_FACE('',(#56),#588,.T.);
#616=ADVANCED_FACE('',(#57),#589,.F.);
#617=ADVANCED_FACE('',(#58),#23,.F.);
#618=ADVANCED_FACE('',(#59),#590,.F.);
#619=ADVANCED_FACE('',(#60),#591,.T.);
#620=CLOSED_SHELL('',(#592,#593,#594,#595,#596,#597,#598,#599,#600,#601,
#602,#603,#604,#605,#606,#607,#608,#609,#610,#611,#612,#613,#614,#615,#616,
#617,#618,#619));
#621=DERIVED_UNIT_ELEMENT(#623,1.);
#622=DERIVED_UNIT_ELEMENT(#992,-3.);
#623=(
MASS_UNIT()
NAMED_UNIT(*)
SI_UNIT(.KILO.,.GRAM.)
);
#624=DERIVED_UNIT((#621,#622));
#625=MEASURE_REPRESENTATION_ITEM('density measure',
POSITIVE_RATIO_MEASURE(7850.),#624);
#626=PROPERTY_DEFINITION_REPRESENTATION(#631,#628);
#627=PROPERTY_DEFINITION_REPRESENTATION(#632,#629);
#628=REPRESENTATION('material name',(#630),#989);
#629=REPRESENTATION('density',(#625),#989);
#630=DESCRIPTIVE_REPRESENTATION_ITEM('Steel','Steel');
#631=PROPERTY_DEFINITION('material property','material name',#999);
#632=PROPERTY_DEFINITION('material property','density of part',#999);
#633=AXIS2_PLACEMENT_3D('',#817,#668,#669);
#634=AXIS2_PLACEMENT_3D('',#818,#670,#671);
#635=AXIS2_PLACEMENT_3D('',#827,#676,#677);
#636=AXIS2_PLACEMENT_3D('',#836,#682,#683);
#637=AXIS2_PLACEMENT_3D('',#853,#692,#693);
#638=AXIS2_PLACEMENT_3D('',#869,#703,#704);
#639=AXIS2_PLACEMENT_3D('',#888,#715,#716);
#640=AXIS2_PLACEMENT_3D('',#890,#717,#718);
#641=AXIS2_PLACEMENT_3D('',#893,#720,#721);
#642=AXIS2_PLACEMENT_3D('',#894,#722,#723);
#643=AXIS2_PLACEMENT_3D('',#900,#727,#728);
#644=AXIS2_PLACEMENT_3D('',#906,#732,#733);
#645=AXIS2_PLACEMENT_3D('',#915,#739,#740);
#646=AXIS2_PLACEMENT_3D('',#917,#742,#743);
#647=AXIS2_PLACEMENT_3D('',#931,#751,#752);
#648=AXIS2_PLACEMENT_3D('',#932,#753,#754);
#649=AXIS2_PLACEMENT_3D('',#935,#757,#758);
#650=AXIS2_PLACEMENT_3D('',#936,#759,#760);
#651=AXIS2_PLACEMENT_3D('',#937,#761,#762);
#652=AXIS2_PLACEMENT_3D('',#939,#764,#765);
#653=AXIS2_PLACEMENT_3D('',#944,#768,#769);
#654=AXIS2_PLACEMENT_3D('',#945,#770,#771);
#655=AXIS2_PLACEMENT_3D('',#953,#776,#777);
#656=AXIS2_PLACEMENT_3D('',#956,#779,#780);
#657=AXIS2_PLACEMENT_3D('',#957,#781,#782);
#658=AXIS2_PLACEMENT_3D('',#961,#786,#787);
#659=AXIS2_PLACEMENT_3D('',#962,#788,#789);
#660=AXIS2_PLACEMENT_3D('',#968,#793,#794);
#661=AXIS2_PLACEMENT_3D('',#972,#797,#798);
#662=AXIS2_PLACEMENT_3D('',#979,#803,#804);
#663=AXIS2_PLACEMENT_3D('',#980,#805,#806);
#664=AXIS2_PLACEMENT_3D('',#983,#809,#810);
#665=AXIS2_PLACEMENT_3D('',#984,#811,#812);
#666=AXIS2_PLACEMENT_3D('',#985,#813,#814);
#667=AXIS2_PLACEMENT_3D('',#986,#815,#816);
#668=DIRECTION('axis',(0.,0.,1.));
#669=DIRECTION('refdir',(1.,0.,0.));
#670=DIRECTION('center_axis',(-4.97169267341945E-24,0.707106781155557,0.707106781217538));
#671=DIRECTION('ref_axis',(1.,0.,7.03103520639258E-24));
#672=DIRECTION('',(4.19082355898662E-30,-0.707106781217538,0.707106781155557));
#673=DIRECTION('',(-1.,3.10145061080523E-11,-3.10145061053408E-11));
#674=DIRECTION('',(-4.19082355898663E-30,0.707106781217538,-0.707106781155557));
#675=DIRECTION('',(-1.,1.04942401474982E-16,-1.04942408496818E-16));
#676=DIRECTION('center_axis',(1.4841097239911E-16,0.707106781217538,-0.707106781155557));
#677=DIRECTION('ref_axis',(1.,-1.83186798594631E-15,-1.55431222979002E-15));
#678=DIRECTION('',(-6.66133819746787E-16,0.707106781155557,0.707106781217538));
#679=DIRECTION('',(-1.,1.04942400305297E-16,-1.04942409666504E-16));
#680=DIRECTION('',(6.66133819746787E-16,-0.707106781155557,-0.707106781217538));
#681=DIRECTION('',(1.,-9.43104899172035E-14,-9.41006051154882E-14));
#682=DIRECTION('center_axis',(6.62587718424467E-24,-0.707106781155557,-0.707106781217538));
#683=DIRECTION('ref_axis',(1.4841097239911E-16,0.707106781217538,-0.707106781155557));
#684=DIRECTION('',(-1.4841097239911E-16,-0.707106781217538,0.707106781155557));
#685=DIRECTION('',(1.,-5.55111465460551E-17,2.22044609610234E-16));
#686=DIRECTION('',(-2.46495000083235E-31,-0.707106781217538,0.707106781155557));
#687=DIRECTION('',(1.,-5.55111477157402E-17,2.22044608440549E-16));
#688=DIRECTION('',(-1.4841097239911E-16,-0.707106781217538,0.707106781155557));
#689=DIRECTION('',(1.,-5.55111477157402E-17,2.22044608440549E-16));
#690=DIRECTION('',(0.,0.707106781217534,-0.707106781155561));
#691=DIRECTION('',(1.,-1.04942400305297E-16,1.04942409666504E-16));
#692=DIRECTION('center_axis',(-6.62587718424467E-24,0.707106781155557,0.707106781217538));
#693=DIRECTION('ref_axis',(-1.4841097239911E-16,-0.707106781217538,0.707106781155557));
#694=DIRECTION('',(0.,0.707106781217534,-0.707106781155561));
#695=DIRECTION('',(2.46446534267479E-31,0.707106781217538,-0.707106781155557));
#696=DIRECTION('',(-1.,1.04942400305297E-16,-1.04942409666503E-16));
#697=DIRECTION('',(-1.96261557302786E-16,-0.707106781217538,0.707106781155557));
#698=DIRECTION('',(-1.4841097239911E-16,-0.707106781217538,0.707106781155557));
#699=DIRECTION('',(-1.,1.04942401474982E-16,-1.04942408496818E-16));
#700=DIRECTION('',(0.,0.707106781217534,-0.707106781155561));
#701=DIRECTION('',(0.,0.707106781217534,-0.707106781155561));
#702=DIRECTION('',(-1.,1.04942401474982E-16,-1.04942408496818E-16));
#703=DIRECTION('center_axis',(-1.,-5.27355941365121E-16,-5.27355941411347E-16));
#704=DIRECTION('ref_axis',(-7.45793924509272E-16,0.707106781155557,0.707106781217538));
#705=DIRECTION('',(7.45793924509272E-16,-0.707106781155557,-0.707106781217538));
#706=DIRECTION('',(-1.49104531783292E-15,0.707106781186557,0.707106781186538));
#707=DIRECTION('',(4.38611351663934E-11,0.707106781186538,-0.707106781186557));
#708=DIRECTION('',(-1.49104531783292E-15,0.707106781186557,0.707106781186538));
#709=DIRECTION('',(2.46495000083235E-31,0.707106781217538,-0.707106781155557));
#710=DIRECTION('',(-7.45793922855087E-16,0.707106781155557,0.707106781217538));
#711=DIRECTION('',(1.4841097239911E-16,0.707106781217538,-0.707106781155557));
#712=DIRECTION('',(-6.66133821400971E-16,0.707106781155557,0.707106781217538));
#713=DIRECTION('',(-1.4841097239911E-16,-0.707106781217538,0.707106781155557));
#714=DIRECTION('',(-7.45793922855087E-16,0.707106781155557,0.707106781217538));
#715=DIRECTION('center_axis',(-1.4841097239911E-16,-0.707106781217538,0.707106781155557));
#716=DIRECTION('ref_axis',(0.707106781155555,0.500000000000001,0.500000000043828));
#717=DIRECTION('center_axis',(-1.4841097239911E-16,-0.707106781217538,0.707106781155557));
#718=DIRECTION('ref_axis',(0.707106781155555,0.500000000000001,0.500000000043828));
#719=DIRECTION('',(-1.4841097239911E-16,-0.707106781217538,0.707106781155557));
#720=DIRECTION('center_axis',(1.4841097239911E-16,0.707106781217538,-0.707106781155557));
#721=DIRECTION('ref_axis',(0.707106781155555,0.500000000000001,0.500000000043828));
#722=DIRECTION('center_axis',(-1.4841097239911E-16,-0.707106781217538,0.707106781155557));
#723=DIRECTION('ref_axis',(6.66133821400971E-16,-0.707106781155557,-0.707106781217538));
#724=DIRECTION('',(-1.,5.55111465460551E-17,-2.22044609610234E-16));
#725=DIRECTION('',(-6.66133821400971E-16,0.707106781155557,0.707106781217538));
#726=DIRECTION('',(1.,-5.55111465460551E-17,2.22044609610234E-16));
#727=DIRECTION('center_axis',(1.4841097239911E-16,0.707106781217534,-0.707106781155561));
#728=DIRECTION('ref_axis',(-1.,5.55111465460551E-17,-2.22044609610234E-16));
#729=DIRECTION('',(6.66133819746787E-16,-0.707106781155561,-0.707106781217534));
#730=DIRECTION('',(-6.66133819746787E-16,0.707106781155561,0.707106781217534));
#731=DIRECTION('',(-1.,9.43104899172035E-14,9.41006051154882E-14));
#732=DIRECTION('center_axis',(-1.33226762948393E-13,-0.707106781155557,
-0.707106781217538));
#733=DIRECTION('ref_axis',(1.4841097239911E-16,0.707106781217538,-0.707106781155557));
#734=DIRECTION('',(1.88197169085898E-16,0.707106781217538,-0.707106781155557));
#735=DIRECTION('',(-1.,9.43134459383915E-14,9.40358901822352E-14));
#736=DIRECTION('',(1.4841097239911E-16,0.707106781217538,-0.707106781155557));
#737=DIRECTION('',(1.,-9.43134459383915E-14,-9.40358901822352E-14));
#738=DIRECTION('',(0.,0.707106781217534,-0.707106781155561));
#739=DIRECTION('center_axis',(1.4841097239911E-16,0.707106781217538,-0.707106781155557));
#740=DIRECTION('ref_axis',(-6.66133821400971E-16,0.707106781155557,0.707106781217538));
#741=DIRECTION('',(-6.66133821400971E-16,0.707106781155557,0.707106781217538));
#742=DIRECTION('center_axis',(1.33226762948393E-13,0.707106781155557,0.707106781217538));
#743=DIRECTION('ref_axis',(-1.4841097239911E-16,-0.707106781217538,0.707106781155557));
#744=DIRECTION('',(1.,-9.43134459383915E-14,-9.40358901822352E-14));
#745=DIRECTION('',(-1.88197169085898E-16,-0.707106781217538,0.707106781155557));
#746=DIRECTION('',(1.4841097239911E-16,0.707106781217538,-0.707106781155557));
#747=DIRECTION('',(-1.,9.43134459383915E-14,9.40358901822352E-14));
#748=DIRECTION('',(0.,0.707106781217534,-0.707106781155561));
#749=DIRECTION('',(0.642787609651805,-0.541675220464112,0.54167522041651));
#750=DIRECTION('',(0.642787609719008,0.541675220424117,-0.541675220376757));
#751=DIRECTION('center_axis',(1.33226762950047E-13,0.707106781155557,0.707106781217538));
#752=DIRECTION('ref_axis',(1.,-3.10145061066959E-11,3.10145061066972E-11));
#753=DIRECTION('center_axis',(-1.4841097239911E-16,-0.707106781217534,0.707106781155561));
#754=DIRECTION('ref_axis',(1.,-5.55111477157402E-17,2.22044608440549E-16));
#755=DIRECTION('',(6.66133819746787E-16,-0.707106781155561,-0.707106781217534));
#756=DIRECTION('',(-6.66133819746787E-16,0.707106781155561,0.707106781217534));
#757=DIRECTION('center_axis',(1.,-9.43134459383915E-14,-9.40358901822352E-14));
#758=DIRECTION('ref_axis',(1.4841097239911E-16,0.707106781217538,-0.707106781155557));
#759=DIRECTION('center_axis',(-1.,9.43134459383915E-14,9.40358901822352E-14));
#760=DIRECTION('ref_axis',(-1.4841097239911E-16,-0.707106781217538,0.707106781155557));
#761=DIRECTION('center_axis',(-1.4841097239911E-16,-0.707106781217538,0.707106781155557));
#762=DIRECTION('ref_axis',(6.66133819746786E-16,-0.707106781155557,-0.707106781217538));
#763=DIRECTION('',(6.66133819746787E-16,-0.707106781155557,-0.707106781217538));
#764=DIRECTION('center_axis',(1.4841097239911E-16,0.707106781217538,-0.707106781155557));
#765=DIRECTION('ref_axis',(-6.66133819746786E-16,0.707106781155557,0.707106781217538));
#766=DIRECTION('',(-1.49104531783292E-15,0.707106781186557,0.707106781186538));
#767=DIRECTION('',(-1.,3.10136398161854E-11,-3.10153723972077E-11));
#768=DIRECTION('center_axis',(-1.4841097239911E-16,-0.707106781217538,0.707106781155557));
#769=DIRECTION('ref_axis',(-1.82277921336304E-14,0.707106781186566,0.707106781186529));
#770=DIRECTION('center_axis',(-1.,-3.88578062134322E-16,-6.66133818290611E-16));
#771=DIRECTION('ref_axis',(1.88197169085898E-16,0.707106781217538,-0.707106781155557));
#772=DIRECTION('',(-1.49104531783292E-15,0.707106781186557,0.707106781186538));
#773=DIRECTION('',(-4.38611351663934E-11,-0.707106781186534,0.707106781186561));
#774=DIRECTION('',(6.66133819746787E-16,-0.707106781155557,-0.707106781217538));
#775=DIRECTION('',(0.,0.707106781217534,-0.707106781155561));
#776=DIRECTION('center_axis',(0.,-0.707106781186529,0.707106781186566));
#777=DIRECTION('ref_axis',(-1.82277921336304E-14,0.707106781186566,0.707106781186529));
#778=DIRECTION('',(0.,-0.707106781186529,0.707106781186566));
#779=DIRECTION('center_axis',(4.38611351663934E-11,0.707106781186538,-0.707106781186557));
#780=DIRECTION('ref_axis',(-1.82277921336304E-14,0.707106781186566,0.707106781186529));
#781=DIRECTION('center_axis',(-4.38611351663934E-11,-0.707106781186538,
0.707106781186557));
#782=DIRECTION('ref_axis',(1.,-3.10143248044558E-11,3.10146874089373E-11));
#783=DIRECTION('',(-1.,3.10145061080523E-11,-3.10145061053408E-11));
#784=DIRECTION('',(1.,-3.10143248044558E-11,3.10146874089373E-11));
#785=DIRECTION('',(-1.,3.10145061080523E-11,-3.10145061053408E-11));
#786=DIRECTION('center_axis',(-1.49104531783292E-15,0.707106781186557,0.707106781186538));
#787=DIRECTION('ref_axis',(1.,0.,2.10865651059225E-15));
#788=DIRECTION('center_axis',(-0.766044443148123,-0.454519477647473,0.454519477647492));
#789=DIRECTION('ref_axis',(0.642787609651805,-0.541675220440294,0.541675220440328));
#790=DIRECTION('',(-0.642787609651805,0.541675220464051,-0.54167522041657));
#791=DIRECTION('',(0.,0.707106781186562,0.707106781186533));
#792=DIRECTION('',(0.,-0.707106781186562,-0.707106781186533));
#793=DIRECTION('center_axis',(0.766044443091734,-0.454519477694993,0.454519477695012));
#794=DIRECTION('ref_axis',(0.642787609719008,0.541675220400419,-0.541675220400455));
#795=DIRECTION('',(-0.642787609719008,-0.541675220424177,0.541675220376697));
#796=DIRECTION('',(0.,-0.707106781186562,-0.707106781186533));
#797=DIRECTION('center_axis',(-4.97169267341945E-24,0.707106781155557,0.707106781217538));
#798=DIRECTION('ref_axis',(-1.4841097239911E-16,-0.707106781217538,0.707106781155557));
#799=DIRECTION('',(1.,-5.55111477157402E-17,2.22044608440549E-16));
#800=DIRECTION('',(0.,0.707106781217534,-0.707106781155561));
#801=DIRECTION('',(1.,-5.55111477157402E-17,2.22044608440549E-16));
#802=DIRECTION('',(1.4841097239911E-16,0.707106781217538,-0.707106781155557));
#803=DIRECTION('center_axis',(4.97169267341945E-24,-0.707106781155557,-0.707106781217538));
#804=DIRECTION('ref_axis',(1.,-3.10145061066959E-11,3.10145061066972E-11));
#805=DIRECTION('center_axis',(0.,0.707106781217532,-0.707106781155563));
#806=DIRECTION('ref_axis',(-1.,0.,0.));
#807=DIRECTION('',(7.45793922855086E-16,-0.707106781155563,-0.707106781217532));
#808=DIRECTION('',(-7.45793922855086E-16,0.707106781155563,0.707106781217532));
#809=DIRECTION('center_axis',(1.,3.88578062134322E-16,6.66133818290611E-16));
#810=DIRECTION('ref_axis',(-1.4841097239911E-16,-0.707106781217538,0.707106781155557));
#811=DIRECTION('center_axis',(0.,0.707106781186562,0.707106781186533));
#812=DIRECTION('ref_axis',(4.33726982678983E-11,0.707106781186533,-0.707106781186562));
#813=DIRECTION('center_axis',(-1.,-3.88578062134322E-16,-6.66133818290611E-16));
#814=DIRECTION('ref_axis',(1.4841097239911E-16,0.707106781217538,-0.707106781155557));
#815=DIRECTION('center_axis',(-1.4841097239911E-16,-0.707106781217538,0.707106781155557));
#816=DIRECTION('ref_axis',(6.66133819746786E-16,-0.707106781155557,-0.707106781217538));
#817=CARTESIAN_POINT('',(0.,0.,0.));
#818=CARTESIAN_POINT('Origin',(-164.208668224305,243.584044972652,273.038036212932));
#819=CARTESIAN_POINT('',(-160.798668974098,251.03924757344,265.582833612797));
#820=CARTESIAN_POINT('',(-160.798668974098,249.327522284077,267.294558902009));
#821=CARTESIAN_POINT('',(-160.798668974098,246.122999773825,270.499081411981));
#822=CARTESIAN_POINT('',(-167.998668974098,249.327522284301,267.294558901786));
#823=CARTESIAN_POINT('',(-170.898668050066,249.327522284391,267.294558901696));
#824=CARTESIAN_POINT('',(-167.998668974098,251.03924757344,265.582833612797));
#825=CARTESIAN_POINT('',(-167.998668974098,246.122999773825,270.499081411981));
#826=CARTESIAN_POINT('',(-167.553668598834,251.03924757344,265.582833612797));
#827=CARTESIAN_POINT('Origin',(-167.998668974098,254.31880882449,262.303272361538));
#828=CARTESIAN_POINT('',(-160.798668974098,252.268199159387,260.252662696255));
#829=CARTESIAN_POINT('',(-160.798668974098,254.318808824738,262.303272361786));
#830=CARTESIAN_POINT('',(-160.798668974098,253.293503991939,261.277967528897));
#831=CARTESIAN_POINT('',(-167.998668974098,254.318808824738,262.303272361786));
#832=CARTESIAN_POINT('',(-167.553668598834,254.31880882449,262.303272361538));
#833=CARTESIAN_POINT('',(-167.998668974098,252.268199159387,260.252662696255));
#834=CARTESIAN_POINT('',(-167.998668974098,254.318808824614,262.303272361662));
#835=CARTESIAN_POINT('',(-167.553668598833,252.26819915914,260.252662696008));
#836=CARTESIAN_POINT('Origin',(-170.898668973363,218.512335638487,268.41126073587));
#837=CARTESIAN_POINT('',(-170.898668973363,241.846859418665,245.076736957736));
#838=CARTESIAN_POINT('',(-170.898668973363,212.855481388994,274.068114985362));
#839=CARTESIAN_POINT('',(-170.898668973363,236.190005169173,250.733591207229));
#840=CARTESIAN_POINT('',(-157.518668973363,241.846859418665,245.076736957736));
#841=CARTESIAN_POINT('',(-170.898668973363,241.846859418665,245.076736957736));
#842=CARTESIAN_POINT('',(-157.518668973363,212.855481388994,274.068114985362));
#843=CARTESIAN_POINT('',(-157.518668973363,212.855481388994,274.068114985362));
#844=CARTESIAN_POINT('',(-170.898668973363,212.855481388994,274.068114985362));
#845=CARTESIAN_POINT('',(-167.998668974098,239.469566420471,247.454029956218));
#846=CARTESIAN_POINT('',(-167.998668974098,216.842149421487,270.081446953219));
#847=CARTESIAN_POINT('',(-167.998668974098,223.334096779863,263.589499595412));
#848=CARTESIAN_POINT('',(-160.798668974098,216.842149421487,270.081446953219));
#849=CARTESIAN_POINT('',(-169.398668973731,216.842149421487,270.081446953219));
#850=CARTESIAN_POINT('',(-160.798668974098,239.469566420471,247.454029956218));
#851=CARTESIAN_POINT('',(-160.798668974098,233.812712170731,253.110884205462));
#852=CARTESIAN_POINT('',(-167.553668598834,239.469566420223,247.45402995597));
#853=CARTESIAN_POINT('Origin',(-170.898668973363,256.696101822932,259.925979363305));
#854=CARTESIAN_POINT('',(-157.518668973363,251.03924757344,265.582833612797));
#855=CARTESIAN_POINT('',(-157.518667127386,254.984379183971,261.637707303122));
#856=CARTESIAN_POINT('',(-157.518668973363,248.661954574998,267.960126611031));
#857=CARTESIAN_POINT('',(-157.518668973363,256.696101822932,259.925979363305));
#858=CARTESIAN_POINT('',(-157.518668973363,241.301238632449,275.320842552439));
#859=CARTESIAN_POINT('',(-170.898668973363,256.696101822932,259.925979363305));
#860=CARTESIAN_POINT('',(-167.553668598834,256.696101822932,259.925979363305));
#861=CARTESIAN_POINT('',(-170.898667126663,254.984379184386,261.637707302707));
#862=CARTESIAN_POINT('',(-170.898668973363,247.134869577493,269.487211607905));
#863=CARTESIAN_POINT('',(-170.898668973363,251.03924757344,265.582833612797));
#864=CARTESIAN_POINT('',(-170.898668973363,256.696101822932,259.925979363305));
#865=CARTESIAN_POINT('',(-167.553668598834,251.03924757344,265.582833612797));
#866=CARTESIAN_POINT('',(-167.998668974098,248.661954574998,267.960126611031));
#867=CARTESIAN_POINT('',(-160.798668974098,248.661954574998,267.960126611031));
#868=CARTESIAN_POINT('',(-167.553668598834,251.03924757344,265.582833612797));
#869=CARTESIAN_POINT('Origin',(-157.518668973363,218.512335638487,268.41126073587));
#870=CARTESIAN_POINT('',(-157.518668973363,241.846859418665,245.076736957736));
#871=CARTESIAN_POINT('',(-157.51866712728,267.887484728753,282.431068309003));
#872=CARTESIAN_POINT('',(-157.51866712728,251.039251453421,265.582835033672));
#873=CARTESIAN_POINT('',(-157.518667127386,266.175758209811,284.142794827946));
#874=CARTESIAN_POINT('',(-157.518667127386,266.175758209811,284.142794827946));
#875=CARTESIAN_POINT('',(-157.518667127386,249.327524934479,267.294561552614));
#876=CARTESIAN_POINT('',(-157.518667127386,249.327524934479,267.294561552614));
#877=CARTESIAN_POINT('',(-157.518668973363,227.704723793261,288.917357390931));
#878=CARTESIAN_POINT('',(-157.518668973363,239.37198568335,277.250095501864));
#879=CARTESIAN_POINT('',(-157.518668973363,225.65411412791,286.8667477254));
#880=CARTESIAN_POINT('',(-157.518668973363,217.628452161794,278.841085758581));
#881=CARTESIAN_POINT('',(-157.518668973363,252.524171813928,259.99669004124));
#882=CARTESIAN_POINT('',(-157.518668973363,236.260715846173,276.260146008066));
#883=CARTESIAN_POINT('',(-157.518668973363,241.776148740364,249.248666966734));
#884=CARTESIAN_POINT('',(-157.518668973363,252.453461135813,259.925979363119));
#885=CARTESIAN_POINT('',(-157.518668973363,214.906091054345,276.118724650893));
#886=CARTESIAN_POINT('',(-157.518668973363,241.776148740364,249.248666966734));
#887=CARTESIAN_POINT('',(-157.518668973363,217.628452161794,278.841085758581));
#888=CARTESIAN_POINT('Origin',(-164.398668973363,249.271480620799,252.501358160521));
#889=CARTESIAN_POINT('',(-165.459329145097,248.521480620799,251.751358160455));
#890=CARTESIAN_POINT('Origin',(-164.398668973363,249.271480620799,252.501358160521));
#891=CARTESIAN_POINT('',(-165.459329145097,246.400160277146,253.872678503921));
#892=CARTESIAN_POINT('',(-165.459329145097,248.521480620799,251.751358160455));
#893=CARTESIAN_POINT('Origin',(-164.398668973363,247.150160277146,254.622678503987));
#894=CARTESIAN_POINT('Origin',(-170.898668973363,252.453461135813,259.925979363119));
#895=CARTESIAN_POINT('',(-170.898668973363,252.524171813928,259.996690041241));
#896=CARTESIAN_POINT('',(-170.898668973363,252.524171813928,259.996690041241));
#897=CARTESIAN_POINT('',(-170.898668973363,241.776148740364,249.248666966734));
#898=CARTESIAN_POINT('',(-170.898668973363,244.498509847813,251.971028074421));
#899=CARTESIAN_POINT('',(-170.898668973363,241.776148740364,249.248666966734));
#900=CARTESIAN_POINT('Origin',(-160.898668974098,239.469566420223,247.45402995597));
#901=CARTESIAN_POINT('',(-167.998668974098,241.520176085823,249.504639621749));
#902=CARTESIAN_POINT('',(-167.998668974098,240.494871253023,248.479334788859));
#903=CARTESIAN_POINT('',(-160.798668974098,241.520176085822,249.504639621749));
#904=CARTESIAN_POINT('',(-160.798668974098,239.469566420347,247.454029956094));
#905=CARTESIAN_POINT('',(-167.553668598834,241.520176085576,249.504639621502));
#906=CARTESIAN_POINT('Origin',(-170.898668973363,241.776148740365,249.248666966735));
#907=CARTESIAN_POINT('',(-170.898668973363,214.906091054345,276.118724650893));
#908=CARTESIAN_POINT('',(-170.898668973363,231.346323717654,259.678491989028));
#909=CARTESIAN_POINT('',(-170.898668973363,214.906091054347,276.118724650894));
#910=CARTESIAN_POINT('',(-160.798668974098,218.892759086838,272.132056618749));
#911=CARTESIAN_POINT('',(-160.798668974098,227.506026788855,263.518788917488));
#912=CARTESIAN_POINT('',(-167.998668974098,218.892759086838,272.13205661875));
#913=CARTESIAN_POINT('',(-169.398668973731,218.89275908684,272.132056618751));
#914=CARTESIAN_POINT('',(-167.998668974098,235.863321836082,255.161493870993));
#915=CARTESIAN_POINT('Origin',(-170.898668973363,241.846859418665,245.076736957736));
#916=CARTESIAN_POINT('',(-170.898668973363,254.574781479465,257.804659019652));
#917=CARTESIAN_POINT('Origin',(-170.898668973363,231.310968377404,281.209893475909));
#918=CARTESIAN_POINT('',(-170.898668973363,225.65411412791,286.8667477254));
#919=CARTESIAN_POINT('',(-170.898668973362,225.654114127911,286.866747725401));
#920=CARTESIAN_POINT('',(-170.898668973363,231.487745072956,281.033116780868));
#921=CARTESIAN_POINT('',(-167.998668974098,231.489866393287,281.030995460534));
#922=CARTESIAN_POINT('',(-167.998668974098,227.647448144157,284.873413709329));
#923=CARTESIAN_POINT('',(-160.798668974098,231.489866393287,281.030995460534));
#924=CARTESIAN_POINT('',(-165.848668973731,231.489866393288,281.030995460535));
#925=CARTESIAN_POINT('',(-160.798668974098,246.611344909647,265.9095169455));
#926=CARTESIAN_POINT('',(-165.129885591055,228.391506834759,284.129360321371));
#927=CARTESIAN_POINT('',(-163.980818926438,227.423189098458,285.097672755008));
#928=CARTESIAN_POINT('',(-165.368536482888,228.592614585267,283.928247268302));
#929=CARTESIAN_POINT('',(-162.831752261701,228.391506834687,284.129360321442));
#930=CARTESIAN_POINT('',(-166.025923698758,225.699785346446,286.821076506869));
#931=CARTESIAN_POINT('Origin',(-163.980818926337,229.073283399824,283.447578453488));
#932=CARTESIAN_POINT('Origin',(-167.898668974098,216.842149421487,270.081446953219));
#933=CARTESIAN_POINT('',(-160.798668974098,216.842149421487,270.081446953219));
#934=CARTESIAN_POINT('',(-167.998668974098,216.842149421487,270.081446953219));
#935=CARTESIAN_POINT('Origin',(-160.798668974098,216.842149421487,270.081446953219));
#936=CARTESIAN_POINT('Origin',(-167.998668974098,233.812712170731,253.110884205462));
#937=CARTESIAN_POINT('Origin',(-170.898668973363,214.976801732461,276.189435329015));
#938=CARTESIAN_POINT('',(-170.898668973363,214.976801732461,276.189435329015));
#939=CARTESIAN_POINT('Origin',(-170.898668973363,236.190005169173,250.733591207229));
#940=CARTESIAN_POINT('',(-170.898667126557,267.887484729168,282.431068308588));
#941=CARTESIAN_POINT('',(-170.898667126557,251.039251453836,265.582835033257));
#942=CARTESIAN_POINT('',(-157.51866712728,267.887484728753,282.431068309003));
#943=CARTESIAN_POINT('',(-164.39866703697,259.755439660423,274.299023240673));
#944=CARTESIAN_POINT('Origin',(-164.39866703697,260.816098603301,275.359684641355));
#945=CARTESIAN_POINT('Origin',(-170.898668973363,231.947364481217,269.82547429908));
#946=CARTESIAN_POINT('',(-170.898667126663,249.327524934894,267.294561552199));
#947=CARTESIAN_POINT('',(-170.898667126663,266.175758210226,284.142794827531));
#948=CARTESIAN_POINT('',(-170.898667126663,249.327524934894,267.294561552199));
#949=CARTESIAN_POINT('',(-170.898667126557,267.887484729168,282.431068308588));
#950=CARTESIAN_POINT('',(-170.898668973363,227.704723793261,288.917357390931));
#951=CARTESIAN_POINT('',(-170.898668973363,227.704723793261,288.917357390931));
#952=CARTESIAN_POINT('',(-170.898668973363,248.661954574998,267.960126611031));
#953=CARTESIAN_POINT('Origin',(-164.39866703697,260.816099832203,275.359683412453));
#954=CARTESIAN_POINT('',(-164.39866703697,258.043713141895,276.010749759201));
#955=CARTESIAN_POINT('',(-164.39866703697,259.755439660423,274.299023240673));
#956=CARTESIAN_POINT('Origin',(-164.39866703697,259.104373313675,277.07140993098));
#957=CARTESIAN_POINT('Origin',(-170.898667126663,249.327524934894,267.294561552199));
#958=CARTESIAN_POINT('',(-170.898668050066,249.327522284391,267.294558901696));
#959=CARTESIAN_POINT('',(-170.898667126663,266.175758210226,284.142794827531));
#960=CARTESIAN_POINT('',(-170.898668050066,249.327522284391,267.294558901696));
#961=CARTESIAN_POINT('Origin',(-164.208667126971,267.031621469489,283.286931568267));
#962=CARTESIAN_POINT('Origin',(-165.129885591055,228.391506834759,284.129360321371));
#963=CARTESIAN_POINT('',(-163.980818926438,229.473798763898,287.148282420448));
#964=CARTESIAN_POINT('',(-165.129885591055,230.44211384891,286.179967335522));
#965=CARTESIAN_POINT('',(-173.493200445046,237.489854579008,279.132226606041));
#966=CARTESIAN_POINT('',(-163.980818926438,227.42319174979,285.09767540634));
#967=CARTESIAN_POINT('',(-165.129885591058,228.391506834761,284.129360321368));
#968=CARTESIAN_POINT('Origin',(-163.980818926438,227.42319174979,285.09767540634));
#969=CARTESIAN_POINT('',(-162.831752261701,230.442113848839,286.179967335593));
#970=CARTESIAN_POINT('',(-157.901259736348,234.597025339179,282.025055845616));
#971=CARTESIAN_POINT('',(-162.831752261699,228.391506834689,284.12936032144));
#972=CARTESIAN_POINT('Origin',(-170.898668973363,251.03924757344,265.582833612797));
#973=CARTESIAN_POINT('',(-170.898668973363,227.704723793261,288.917357390931));
#974=CARTESIAN_POINT('',(-160.798668974098,233.540476058638,283.081605126065));
#975=CARTESIAN_POINT('',(-160.798668974098,248.661954574998,267.960126611031));
#976=CARTESIAN_POINT('',(-167.998668974098,233.540476058638,283.081605126065));
#977=CARTESIAN_POINT('',(-165.848668973731,233.540476058638,283.081605126065));
#978=CARTESIAN_POINT('',(-167.998668974098,241.365319699597,275.256761485792));
#979=CARTESIAN_POINT('Origin',(-163.980818926337,231.123893066287,285.498188119951));
#980=CARTESIAN_POINT('Origin',(-160.798668974098,233.540476058638,283.081605126065));
#981=CARTESIAN_POINT('',(-167.998668974098,233.540476058638,283.081605126065));
#982=CARTESIAN_POINT('',(-160.798668974098,233.540476058638,283.081605126065));
#983=CARTESIAN_POINT('Origin',(-160.798668974098,248.661954574998,267.960126611031));
#984=CARTESIAN_POINT('Origin',(-163.980818926337,229.073286051232,283.447581104897));
#985=CARTESIAN_POINT('Origin',(-167.998668974098,231.691391825754,284.930689358787));
#986=CARTESIAN_POINT('Origin',(-170.898668973363,214.976801732461,276.189435329015));
#987=UNCERTAINTY_MEASURE_WITH_UNIT(LENGTH_MEASURE(0.01),#991,
'DISTANCE_ACCURACY_VALUE',
'Maximum model space distance between geometric entities at asserted c
onnectivities');
#988=UNCERTAINTY_MEASURE_WITH_UNIT(LENGTH_MEASURE(0.01),#991,
'DISTANCE_ACCURACY_VALUE',
'Maximum model space distance between geometric entities at asserted c
onnectivities');
#989=(
GEOMETRIC_REPRESENTATION_CONTEXT(3)
GLOBAL_UNCERTAINTY_ASSIGNED_CONTEXT((#987))
GLOBAL_UNIT_ASSIGNED_CONTEXT((#991,#993,#994))
REPRESENTATION_CONTEXT('','3D')
);
#990=(
GEOMETRIC_REPRESENTATION_CONTEXT(3)
GLOBAL_UNCERTAINTY_ASSIGNED_CONTEXT((#988))
GLOBAL_UNIT_ASSIGNED_CONTEXT((#991,#993,#994))
REPRESENTATION_CONTEXT('','3D')
);
#991=(
LENGTH_UNIT()
NAMED_UNIT(*)
SI_UNIT(.MILLI.,.METRE.)
);
#992=(
LENGTH_UNIT()
NAMED_UNIT(*)
SI_UNIT($,.METRE.)
);
#993=(
NAMED_UNIT(*)
PLANE_ANGLE_UNIT()
SI_UNIT($,.RADIAN.)
);
#994=(
NAMED_UNIT(*)
SI_UNIT($,.STERADIAN.)
SOLID_ANGLE_UNIT()
);
#995=SHAPE_DEFINITION_REPRESENTATION(#996,#997);
#996=PRODUCT_DEFINITION_SHAPE('',$,#999);
#997=SHAPE_REPRESENTATION('',(#633),#989);
#998=PRODUCT_DEFINITION_CONTEXT('part definition',#1003,'design');
#999=PRODUCT_DEFINITION('tensionerouter3(1x)','tensionerouter3(1x) v2',
#1000,#998);
#1000=PRODUCT_DEFINITION_FORMATION('',$,#1005);
#1001=PRODUCT_RELATED_PRODUCT_CATEGORY('tensionerouter3(1x) v2',
'tensionerouter3(1x) v2',(#1005));
#1002=APPLICATION_PROTOCOL_DEFINITION('international standard',
'automotive_design',2009,#1003);
#1003=APPLICATION_CONTEXT(
'Core Data for Automotive Mechanical Design Process');
#1004=PRODUCT_CONTEXT('part definition',#1003,'mechanical');
#1005=PRODUCT('tensionerouter3(1x)','tensionerouter3(1x) v2',$,(#1004));
#1006=PRESENTATION_STYLE_ASSIGNMENT((#1007));
#1007=SURFACE_STYLE_USAGE(.BOTH.,#1008);
#1008=SURFACE_SIDE_STYLE('',(#1009));
#1009=SURFACE_STYLE_FILL_AREA(#1010);
#1010=FILL_AREA_STYLE('Steel - Satin',(#1011));
#1011=FILL_AREA_STYLE_COLOUR('Steel - Satin',#1012);
#1012=COLOUR_RGB('Steel - Satin',0.627450980392157,0.627450980392157,0.627450980392157);
ENDSEC;
END-ISO-10303-21;
