ISO-10303-21;
HEADER;
/* Generated by software containing ST-Developer
 * from STEP Tools, Inc. (www.steptools.com) 
 */

FILE_DESCRIPTION(
/* description */ (''),
/* implementation_level */ '2;1');

FILE_NAME(
/* name */ 'tensionerouter2(1x).step',
/* time_stamp */ '2025-12-01T16:07:08+05:30',
/* author */ (''),
/* organization */ (''),
/* preprocessor_version */ 'ST-DEVELOPER v20.1',
/* originating_system */ 'Autodesk Translation Framework v14.21.0.0',
/* authorisation */ '');

FILE_SCHEMA (('AUTOMOTIVE_DESIGN { 1 0 10303 214 3 1 1 }'));
ENDSEC;

DATA;
#10=MECHANICAL_DESIGN_GEOMETRIC_PRESENTATION_REPRESENTATION('',(#13),#1394);
#11=SHAPE_REPRESENTATION_RELATIONSHIP('SRR','None',#1401,#12);
#12=ADVANCED_BREP_SHAPE_REPRESENTATION('',(#14),#1393);
#13=STYLED_ITEM('',(#1410),#14);
#14=MANIFOLD_SOLID_BREP('Body1',#850);
#15=FACE_BOUND('',#115,.T.);
#16=FACE_BOUND('',#116,.T.);
#17=FACE_BOUND('',#128,.T.);
#18=FACE_BOUND('',#129,.T.);
#19=FACE_BOUND('',#130,.T.);
#20=FACE_BOUND('',#137,.T.);
#21=FACE_BOUND('',#142,.T.);
#22=FACE_BOUND('',#147,.T.);
#23=FACE_BOUND('',#148,.T.);
#24=FACE_BOUND('',#149,.T.);
#25=FACE_BOUND('',#151,.T.);
#26=FACE_BOUND('',#158,.T.);
#27=FACE_BOUND('',#160,.T.);
#28=FACE_BOUND('',#161,.T.);
#29=FACE_BOUND('',#162,.T.);
#30=FACE_BOUND('',#164,.T.);
#31=CIRCLE('',#869,1.5);
#32=CIRCLE('',#870,1.5);
#33=CIRCLE('',#872,1.5);
#34=CIRCLE('',#873,1.5);
#35=CIRCLE('',#876,1.50000000000001);
#36=CIRCLE('',#877,1.50000000000001);
#37=CIRCLE('',#882,1.49999999999999);
#38=CIRCLE('',#883,1.49999999999999);
#39=CIRCLE('',#887,1.5);
#40=CIRCLE('',#888,1.5);
#41=CIRCLE('',#890,1.5);
#42=CIRCLE('',#891,1.5);
#43=CIRCLE('',#893,1.5);
#44=CIRCLE('',#894,1.5);
#45=CIRCLE('',#896,1.5);
#46=CIRCLE('',#897,1.5);
#47=CIRCLE('',#898,1.5);
#48=CIRCLE('',#899,1.49999999999999);
#49=CIRCLE('',#901,1.49999999999999);
#50=CIRCLE('',#903,1.5);
#51=CIRCLE('',#905,1.5);
#52=CIRCLE('',#907,1.5);
#53=CIRCLE('',#919,1.49999999999999);
#54=CIRCLE('',#923,1.49999999999999);
#55=CYLINDRICAL_SURFACE('',#868,1.5);
#56=CYLINDRICAL_SURFACE('',#871,1.5);
#57=CYLINDRICAL_SURFACE('',#875,1.50000000000001);
#58=CYLINDRICAL_SURFACE('',#881,1.49999999999999);
#59=CYLINDRICAL_SURFACE('',#886,1.5);
#60=CYLINDRICAL_SURFACE('',#889,1.5);
#61=CYLINDRICAL_SURFACE('',#892,1.5);
#62=CYLINDRICAL_SURFACE('',#900,1.49999999999999);
#63=CYLINDRICAL_SURFACE('',#902,1.5);
#64=CYLINDRICAL_SURFACE('',#904,1.5);
#65=CYLINDRICAL_SURFACE('',#906,1.5);
#66=CYLINDRICAL_SURFACE('',#922,1.49999999999999);
#67=FACE_OUTER_BOUND('',#108,.T.);
#68=FACE_OUTER_BOUND('',#109,.T.);
#69=FACE_OUTER_BOUND('',#110,.T.);
#70=FACE_OUTER_BOUND('',#111,.T.);
#71=FACE_OUTER_BOUND('',#112,.T.);
#72=FACE_OUTER_BOUND('',#113,.T.);
#73=FACE_OUTER_BOUND('',#114,.T.);
#74=FACE_OUTER_BOUND('',#117,.T.);
#75=FACE_OUTER_BOUND('',#118,.T.);
#76=FACE_OUTER_BOUND('',#119,.T.);
#77=FACE_OUTER_BOUND('',#120,.T.);
#78=FACE_OUTER_BOUND('',#121,.T.);
#79=FACE_OUTER_BOUND('',#122,.T.);
#80=FACE_OUTER_BOUND('',#123,.T.);
#81=FACE_OUTER_BOUND('',#124,.T.);
#82=FACE_OUTER_BOUND('',#125,.T.);
#83=FACE_OUTER_BOUND('',#126,.T.);
#84=FACE_OUTER_BOUND('',#127,.T.);
#85=FACE_OUTER_BOUND('',#131,.T.);
#86=FACE_OUTER_BOUND('',#132,.T.);
#87=FACE_OUTER_BOUND('',#133,.T.);
#88=FACE_OUTER_BOUND('',#134,.T.);
#89=FACE_OUTER_BOUND('',#135,.T.);
#90=FACE_OUTER_BOUND('',#136,.T.);
#91=FACE_OUTER_BOUND('',#138,.T.);
#92=FACE_OUTER_BOUND('',#139,.T.);
#93=FACE_OUTER_BOUND('',#140,.T.);
#94=FACE_OUTER_BOUND('',#141,.T.);
#95=FACE_OUTER_BOUND('',#143,.T.);
#96=FACE_OUTER_BOUND('',#144,.T.);
#97=FACE_OUTER_BOUND('',#145,.T.);
#98=FACE_OUTER_BOUND('',#146,.T.);
#99=FACE_OUTER_BOUND('',#150,.T.);
#100=FACE_OUTER_BOUND('',#152,.T.);
#101=FACE_OUTER_BOUND('',#153,.T.);
#102=FACE_OUTER_BOUND('',#154,.T.);
#103=FACE_OUTER_BOUND('',#155,.T.);
#104=FACE_OUTER_BOUND('',#156,.T.);
#105=FACE_OUTER_BOUND('',#157,.T.);
#106=FACE_OUTER_BOUND('',#159,.T.);
#107=FACE_OUTER_BOUND('',#163,.T.);
#108=EDGE_LOOP('',(#546,#547,#548,#549));
#109=EDGE_LOOP('',(#550,#551,#552,#553));
#110=EDGE_LOOP('',(#554,#555,#556,#557));
#111=EDGE_LOOP('',(#558,#559,#560,#561));
#112=EDGE_LOOP('',(#562,#563,#564,#565));
#113=EDGE_LOOP('',(#566,#567,#568,#569));
#114=EDGE_LOOP('',(#570,#571,#572,#573));
#115=EDGE_LOOP('',(#574,#575,#576));
#116=EDGE_LOOP('',(#577,#578,#579));
#117=EDGE_LOOP('',(#580,#581,#582,#583));
#118=EDGE_LOOP('',(#584,#585,#586,#587));
#119=EDGE_LOOP('',(#588,#589,#590,#591));
#120=EDGE_LOOP('',(#592,#593,#594,#595));
#121=EDGE_LOOP('',(#596,#597,#598,#599));
#122=EDGE_LOOP('',(#600,#601,#602,#603));
#123=EDGE_LOOP('',(#604,#605,#606,#607));
#124=EDGE_LOOP('',(#608,#609,#610,#611));
#125=EDGE_LOOP('',(#612,#613,#614,#615));
#126=EDGE_LOOP('',(#616,#617,#618,#619));
#127=EDGE_LOOP('',(#620,#621,#622,#623));
#128=EDGE_LOOP('',(#624,#625,#626,#627,#628,#629,#630,#631));
#129=EDGE_LOOP('',(#632,#633,#634));
#130=EDGE_LOOP('',(#635,#636,#637));
#131=EDGE_LOOP('',(#638,#639,#640,#641));
#132=EDGE_LOOP('',(#642,#643,#644,#645));
#133=EDGE_LOOP('',(#646,#647,#648,#649));
#134=EDGE_LOOP('',(#650,#651,#652,#653));
#135=EDGE_LOOP('',(#654,#655,#656,#657));
#136=EDGE_LOOP('',(#658,#659,#660,#661));
#137=EDGE_LOOP('',(#662,#663,#664,#665));
#138=EDGE_LOOP('',(#666,#667,#668,#669));
#139=EDGE_LOOP('',(#670,#671,#672,#673));
#140=EDGE_LOOP('',(#674,#675,#676,#677,#678,#679,#680,#681,#682,#683));
#141=EDGE_LOOP('',(#684,#685,#686,#687));
#142=EDGE_LOOP('',(#688,#689,#690,#691));
#143=EDGE_LOOP('',(#692,#693,#694,#695));
#144=EDGE_LOOP('',(#696,#697,#698,#699));
#145=EDGE_LOOP('',(#700,#701,#702,#703,#704,#705,#706,#707));
#146=EDGE_LOOP('',(#708,#709,#710,#711));
#147=EDGE_LOOP('',(#712,#713,#714,#715,#716,#717,#718,#719));
#148=EDGE_LOOP('',(#720,#721,#722));
#149=EDGE_LOOP('',(#723,#724,#725));
#150=EDGE_LOOP('',(#726,#727,#728,#729));
#151=EDGE_LOOP('',(#730));
#152=EDGE_LOOP('',(#731,#732,#733,#734));
#153=EDGE_LOOP('',(#735,#736,#737,#738));
#154=EDGE_LOOP('',(#739,#740,#741,#742));
#155=EDGE_LOOP('',(#743,#744,#745,#746));
#156=EDGE_LOOP('',(#747,#748,#749,#750));
#157=EDGE_LOOP('',(#751,#752,#753,#754));
#158=EDGE_LOOP('',(#755,#756,#757,#758));
#159=EDGE_LOOP('',(#759,#760,#761,#762));
#160=EDGE_LOOP('',(#763,#764,#765));
#161=EDGE_LOOP('',(#766,#767,#768));
#162=EDGE_LOOP('',(#769,#770,#771,#772));
#163=EDGE_LOOP('',(#773,#774,#775,#776,#777,#778));
#164=EDGE_LOOP('',(#779));
#165=LINE('',#1158,#258);
#166=LINE('',#1160,#259);
#167=LINE('',#1162,#260);
#168=LINE('',#1163,#261);
#169=LINE('',#1166,#262);
#170=LINE('',#1168,#263);
#171=LINE('',#1169,#264);
#172=LINE('',#1173,#265);
#173=LINE('',#1175,#266);
#174=LINE('',#1177,#267);
#175=LINE('',#1178,#268);
#176=LINE('',#1181,#269);
#177=LINE('',#1183,#270);
#178=LINE('',#1184,#271);
#179=LINE('',#1194,#272);
#180=LINE('',#1196,#273);
#181=LINE('',#1198,#274);
#182=LINE('',#1199,#275);
#183=LINE('',#1203,#276);
#184=LINE('',#1207,#277);
#185=LINE('',#1212,#278);
#186=LINE('',#1214,#279);
#187=LINE('',#1216,#280);
#188=LINE('',#1217,#281);
#189=LINE('',#1221,#282);
#190=LINE('',#1223,#283);
#191=LINE('',#1225,#284);
#192=LINE('',#1226,#285);
#193=LINE('',#1228,#286);
#194=LINE('',#1229,#287);
#195=LINE('',#1235,#288);
#196=LINE('',#1238,#289);
#197=LINE('',#1241,#290);
#198=LINE('',#1243,#291);
#199=LINE('',#1244,#292);
#200=LINE('',#1246,#293);
#201=LINE('',#1247,#294);
#202=LINE('',#1252,#295);
#203=LINE('',#1261,#296);
#204=LINE('',#1265,#297);
#205=LINE('',#1267,#298);
#206=LINE('',#1268,#299);
#207=LINE('',#1280,#300);
#208=LINE('',#1281,#301);
#209=LINE('',#1284,#302);
#210=LINE('',#1292,#303);
#211=LINE('',#1294,#304);
#212=LINE('',#1295,#305);
#213=LINE('',#1299,#306);
#214=LINE('',#1301,#307);
#215=LINE('',#1303,#308);
#216=LINE('',#1304,#309);
#217=LINE('',#1307,#310);
#218=LINE('',#1309,#311);
#219=LINE('',#1311,#312);
#220=LINE('',#1312,#313);
#221=LINE('',#1315,#314);
#222=LINE('',#1317,#315);
#223=LINE('',#1318,#316);
#224=LINE('',#1321,#317);
#225=LINE('',#1322,#318);
#226=LINE('',#1325,#319);
#227=LINE('',#1327,#320);
#228=LINE('',#1328,#321);
#229=LINE('',#1330,#322);
#230=LINE('',#1332,#323);
#231=LINE('',#1333,#324);
#232=LINE('',#1336,#325);
#233=LINE('',#1338,#326);
#234=LINE('',#1339,#327);
#235=LINE('',#1342,#328);
#236=LINE('',#1344,#329);
#237=LINE('',#1346,#330);
#238=LINE('',#1347,#331);
#239=LINE('',#1350,#332);
#240=LINE('',#1352,#333);
#241=LINE('',#1353,#334);
#242=LINE('',#1356,#335);
#243=LINE('',#1357,#336);
#244=LINE('',#1359,#337);
#245=LINE('',#1361,#338);
#246=LINE('',#1363,#339);
#247=LINE('',#1364,#340);
#248=LINE('',#1366,#341);
#249=LINE('',#1372,#342);
#250=LINE('',#1373,#343);
#251=LINE('',#1375,#344);
#252=LINE('',#1379,#345);
#253=LINE('',#1382,#346);
#254=LINE('',#1383,#347);
#255=LINE('',#1385,#348);
#256=LINE('',#1387,#349);
#257=LINE('',#1389,#350);
#258=VECTOR('',#933,10.);
#259=VECTOR('',#934,10.);
#260=VECTOR('',#935,10.);
#261=VECTOR('',#936,10.);
#262=VECTOR('',#939,10.);
#263=VECTOR('',#940,10.);
#264=VECTOR('',#941,10.);
#265=VECTOR('',#944,10.);
#266=VECTOR('',#945,10.);
#267=VECTOR('',#946,10.);
#268=VECTOR('',#947,10.);
#269=VECTOR('',#950,10.);
#270=VECTOR('',#951,10.);
#271=VECTOR('',#952,10.);
#272=VECTOR('',#967,10.);
#273=VECTOR('',#968,10.);
#274=VECTOR('',#969,10.);
#275=VECTOR('',#970,10.);
#276=VECTOR('',#973,10.);
#277=VECTOR('',#976,10.);
#278=VECTOR('',#981,10.);
#279=VECTOR('',#982,10.);
#280=VECTOR('',#983,10.);
#281=VECTOR('',#984,10.);
#282=VECTOR('',#987,10.);
#283=VECTOR('',#988,10.);
#284=VECTOR('',#989,10.);
#285=VECTOR('',#990,10.);
#286=VECTOR('',#993,10.);
#287=VECTOR('',#994,10.);
#288=VECTOR('',#999,10.);
#289=VECTOR('',#1002,10.);
#290=VECTOR('',#1005,10.);
#291=VECTOR('',#1006,10.);
#292=VECTOR('',#1007,10.);
#293=VECTOR('',#1010,10.);
#294=VECTOR('',#1011,10.);
#295=VECTOR('',#1016,10.);
#296=VECTOR('',#1029,10.);
#297=VECTOR('',#1034,10.);
#298=VECTOR('',#1035,10.);
#299=VECTOR('',#1036,10.);
#300=VECTOR('',#1049,10.);
#301=VECTOR('',#1050,10.);
#302=VECTOR('',#1053,10.);
#303=VECTOR('',#1066,10.);
#304=VECTOR('',#1067,10.);
#305=VECTOR('',#1068,10.);
#306=VECTOR('',#1071,10.);
#307=VECTOR('',#1072,10.);
#308=VECTOR('',#1073,10.);
#309=VECTOR('',#1074,10.);
#310=VECTOR('',#1075,10.);
#311=VECTOR('',#1076,10.);
#312=VECTOR('',#1077,10.);
#313=VECTOR('',#1078,10.);
#314=VECTOR('',#1081,10.);
#315=VECTOR('',#1082,10.);
#316=VECTOR('',#1083,10.);
#317=VECTOR('',#1086,10.);
#318=VECTOR('',#1087,10.);
#319=VECTOR('',#1090,10.);
#320=VECTOR('',#1091,10.);
#321=VECTOR('',#1092,10.);
#322=VECTOR('',#1093,10.);
#323=VECTOR('',#1094,10.);
#324=VECTOR('',#1095,10.);
#325=VECTOR('',#1098,10.);
#326=VECTOR('',#1099,10.);
#327=VECTOR('',#1100,10.);
#328=VECTOR('',#1101,10.);
#329=VECTOR('',#1102,10.);
#330=VECTOR('',#1103,10.);
#331=VECTOR('',#1104,10.);
#332=VECTOR('',#1107,10.);
#333=VECTOR('',#1108,10.);
#334=VECTOR('',#1109,10.);
#335=VECTOR('',#1112,10.);
#336=VECTOR('',#1113,10.);
#337=VECTOR('',#1116,10.);
#338=VECTOR('',#1117,10.);
#339=VECTOR('',#1118,10.);
#340=VECTOR('',#1119,10.);
#341=VECTOR('',#1122,10.);
#342=VECTOR('',#1129,10.);
#343=VECTOR('',#1130,10.);
#344=VECTOR('',#1133,10.);
#345=VECTOR('',#1138,1.49999999999999);
#346=VECTOR('',#1141,10.);
#347=VECTOR('',#1142,10.);
#348=VECTOR('',#1145,10.);
#349=VECTOR('',#1148,10.);
#350=VECTOR('',#1151,10.);
#351=VERTEX_POINT('',#1156);
#352=VERTEX_POINT('',#1157);
#353=VERTEX_POINT('',#1159);
#354=VERTEX_POINT('',#1161);
#355=VERTEX_POINT('',#1165);
#356=VERTEX_POINT('',#1167);
#357=VERTEX_POINT('',#1171);
#358=VERTEX_POINT('',#1172);
#359=VERTEX_POINT('',#1174);
#360=VERTEX_POINT('',#1176);
#361=VERTEX_POINT('',#1180);
#362=VERTEX_POINT('',#1182);
#363=VERTEX_POINT('',#1192);
#364=VERTEX_POINT('',#1193);
#365=VERTEX_POINT('',#1195);
#366=VERTEX_POINT('',#1197);
#367=VERTEX_POINT('',#1201);
#368=VERTEX_POINT('',#1202);
#369=VERTEX_POINT('',#1204);
#370=VERTEX_POINT('',#1206);
#371=VERTEX_POINT('',#1210);
#372=VERTEX_POINT('',#1211);
#373=VERTEX_POINT('',#1213);
#374=VERTEX_POINT('',#1215);
#375=VERTEX_POINT('',#1219);
#376=VERTEX_POINT('',#1220);
#377=VERTEX_POINT('',#1222);
#378=VERTEX_POINT('',#1224);
#379=VERTEX_POINT('',#1231);
#380=VERTEX_POINT('',#1232);
#381=VERTEX_POINT('',#1234);
#382=VERTEX_POINT('',#1236);
#383=VERTEX_POINT('',#1240);
#384=VERTEX_POINT('',#1242);
#385=VERTEX_POINT('',#1249);
#386=VERTEX_POINT('',#1251);
#387=VERTEX_POINT('',#1258);
#388=VERTEX_POINT('',#1260);
#389=VERTEX_POINT('',#1264);
#390=VERTEX_POINT('',#1266);
#391=VERTEX_POINT('',#1270);
#392=VERTEX_POINT('',#1271);
#393=VERTEX_POINT('',#1273);
#394=VERTEX_POINT('',#1277);
#395=VERTEX_POINT('',#1278);
#396=VERTEX_POINT('',#1283);
#397=VERTEX_POINT('',#1291);
#398=VERTEX_POINT('',#1293);
#399=VERTEX_POINT('',#1297);
#400=VERTEX_POINT('',#1298);
#401=VERTEX_POINT('',#1300);
#402=VERTEX_POINT('',#1302);
#403=VERTEX_POINT('',#1305);
#404=VERTEX_POINT('',#1306);
#405=VERTEX_POINT('',#1308);
#406=VERTEX_POINT('',#1310);
#407=VERTEX_POINT('',#1314);
#408=VERTEX_POINT('',#1316);
#409=VERTEX_POINT('',#1320);
#410=VERTEX_POINT('',#1324);
#411=VERTEX_POINT('',#1326);
#412=VERTEX_POINT('',#1329);
#413=VERTEX_POINT('',#1331);
#414=VERTEX_POINT('',#1335);
#415=VERTEX_POINT('',#1337);
#416=VERTEX_POINT('',#1340);
#417=VERTEX_POINT('',#1341);
#418=VERTEX_POINT('',#1343);
#419=VERTEX_POINT('',#1345);
#420=VERTEX_POINT('',#1349);
#421=VERTEX_POINT('',#1351);
#422=VERTEX_POINT('',#1355);
#423=VERTEX_POINT('',#1360);
#424=VERTEX_POINT('',#1362);
#425=VERTEX_POINT('',#1368);
#426=VERTEX_POINT('',#1371);
#427=VERTEX_POINT('',#1377);
#428=VERTEX_POINT('',#1381);
#429=EDGE_CURVE('',#351,#352,#165,.T.);
#430=EDGE_CURVE('',#351,#353,#166,.T.);
#431=EDGE_CURVE('',#354,#353,#167,.T.);
#432=EDGE_CURVE('',#352,#354,#168,.T.);
#433=EDGE_CURVE('',#355,#351,#169,.T.);
#434=EDGE_CURVE('',#355,#356,#170,.T.);
#435=EDGE_CURVE('',#353,#356,#171,.T.);
#436=EDGE_CURVE('',#357,#358,#172,.T.);
#437=EDGE_CURVE('',#357,#359,#173,.T.);
#438=EDGE_CURVE('',#360,#359,#174,.T.);
#439=EDGE_CURVE('',#358,#360,#175,.T.);
#440=EDGE_CURVE('',#361,#357,#176,.T.);
#441=EDGE_CURVE('',#361,#362,#177,.T.);
#442=EDGE_CURVE('',#359,#362,#178,.T.);
#443=EDGE_CURVE('',#352,#355,#31,.T.);
#444=EDGE_CURVE('',#356,#354,#32,.T.);
#445=EDGE_CURVE('',#358,#361,#33,.T.);
#446=EDGE_CURVE('',#362,#360,#34,.T.);
#447=EDGE_CURVE('',#363,#364,#179,.T.);
#448=EDGE_CURVE('',#363,#365,#180,.T.);
#449=EDGE_CURVE('',#365,#366,#181,.T.);
#450=EDGE_CURVE('',#366,#364,#182,.T.);
#451=EDGE_CURVE('',#367,#368,#183,.T.);
#452=EDGE_CURVE('',#369,#367,#35,.T.);
#453=EDGE_CURVE('',#370,#369,#184,.T.);
#454=EDGE_CURVE('',#368,#370,#36,.T.);
#455=EDGE_CURVE('',#371,#372,#185,.T.);
#456=EDGE_CURVE('',#373,#371,#186,.T.);
#457=EDGE_CURVE('',#373,#374,#187,.T.);
#458=EDGE_CURVE('',#372,#374,#188,.T.);
#459=EDGE_CURVE('',#375,#376,#189,.T.);
#460=EDGE_CURVE('',#377,#375,#190,.T.);
#461=EDGE_CURVE('',#378,#377,#191,.T.);
#462=EDGE_CURVE('',#376,#378,#192,.T.);
#463=EDGE_CURVE('',#370,#373,#193,.T.);
#464=EDGE_CURVE('',#374,#369,#194,.T.);
#465=EDGE_CURVE('',#379,#380,#37,.T.);
#466=EDGE_CURVE('',#379,#381,#195,.T.);
#467=EDGE_CURVE('',#382,#381,#38,.T.);
#468=EDGE_CURVE('',#380,#382,#196,.T.);
#469=EDGE_CURVE('',#383,#379,#197,.T.);
#470=EDGE_CURVE('',#383,#384,#198,.T.);
#471=EDGE_CURVE('',#381,#384,#199,.T.);
#472=EDGE_CURVE('',#380,#383,#200,.T.);
#473=EDGE_CURVE('',#384,#382,#201,.T.);
#474=EDGE_CURVE('',#385,#376,#39,.T.);
#475=EDGE_CURVE('',#386,#385,#202,.T.);
#476=EDGE_CURVE('',#375,#386,#40,.T.);
#477=EDGE_CURVE('',#386,#372,#41,.T.);
#478=EDGE_CURVE('',#371,#385,#42,.T.);
#479=EDGE_CURVE('',#387,#368,#43,.T.);
#480=EDGE_CURVE('',#387,#388,#203,.T.);
#481=EDGE_CURVE('',#367,#388,#44,.T.);
#482=EDGE_CURVE('',#364,#389,#204,.T.);
#483=EDGE_CURVE('',#389,#390,#205,.T.);
#484=EDGE_CURVE('',#390,#363,#206,.T.);
#485=EDGE_CURVE('',#378,#387,#45,.T.);
#486=EDGE_CURVE('',#391,#392,#46,.T.);
#487=EDGE_CURVE('',#392,#393,#47,.T.);
#488=EDGE_CURVE('',#393,#391,#48,.T.);
#489=EDGE_CURVE('',#394,#395,#49,.T.);
#490=EDGE_CURVE('',#391,#395,#207,.T.);
#491=EDGE_CURVE('',#394,#393,#208,.T.);
#492=EDGE_CURVE('',#396,#392,#209,.T.);
#493=EDGE_CURVE('',#394,#396,#50,.T.);
#494=EDGE_CURVE('',#396,#395,#51,.T.);
#495=EDGE_CURVE('',#377,#388,#52,.T.);
#496=EDGE_CURVE('',#397,#365,#210,.T.);
#497=EDGE_CURVE('',#397,#398,#211,.T.);
#498=EDGE_CURVE('',#398,#366,#212,.T.);
#499=EDGE_CURVE('',#399,#400,#213,.T.);
#500=EDGE_CURVE('',#401,#399,#214,.T.);
#501=EDGE_CURVE('',#402,#401,#215,.T.);
#502=EDGE_CURVE('',#400,#402,#216,.T.);
#503=EDGE_CURVE('',#403,#404,#217,.T.);
#504=EDGE_CURVE('',#405,#403,#218,.T.);
#505=EDGE_CURVE('',#406,#405,#219,.T.);
#506=EDGE_CURVE('',#404,#406,#220,.T.);
#507=EDGE_CURVE('',#405,#407,#221,.T.);
#508=EDGE_CURVE('',#408,#407,#222,.T.);
#509=EDGE_CURVE('',#408,#406,#223,.T.);
#510=EDGE_CURVE('',#409,#403,#224,.T.);
#511=EDGE_CURVE('',#407,#409,#225,.T.);
#512=EDGE_CURVE('',#410,#400,#226,.T.);
#513=EDGE_CURVE('',#402,#411,#227,.T.);
#514=EDGE_CURVE('',#411,#389,#228,.T.);
#515=EDGE_CURVE('',#412,#398,#229,.T.);
#516=EDGE_CURVE('',#412,#413,#230,.T.);
#517=EDGE_CURVE('',#413,#410,#231,.T.);
#518=EDGE_CURVE('',#410,#414,#232,.T.);
#519=EDGE_CURVE('',#415,#413,#233,.T.);
#520=EDGE_CURVE('',#414,#415,#234,.T.);
#521=EDGE_CURVE('',#416,#417,#235,.T.);
#522=EDGE_CURVE('',#418,#416,#236,.T.);
#523=EDGE_CURVE('',#419,#418,#237,.T.);
#524=EDGE_CURVE('',#417,#419,#238,.T.);
#525=EDGE_CURVE('',#420,#416,#239,.T.);
#526=EDGE_CURVE('',#421,#420,#240,.T.);
#527=EDGE_CURVE('',#421,#418,#241,.T.);
#528=EDGE_CURVE('',#422,#417,#242,.T.);
#529=EDGE_CURVE('',#420,#422,#243,.T.);
#530=EDGE_CURVE('',#401,#415,#244,.T.);
#531=EDGE_CURVE('',#423,#412,#245,.T.);
#532=EDGE_CURVE('',#424,#423,#246,.T.);
#533=EDGE_CURVE('',#424,#411,#247,.T.);
#534=EDGE_CURVE('',#399,#414,#248,.T.);
#535=EDGE_CURVE('',#425,#425,#53,.T.);
#536=EDGE_CURVE('',#426,#421,#249,.T.);
#537=EDGE_CURVE('',#426,#419,#250,.T.);
#538=EDGE_CURVE('',#422,#426,#251,.T.);
#539=EDGE_CURVE('',#427,#427,#54,.T.);
#540=EDGE_CURVE('',#427,#425,#252,.T.);
#541=EDGE_CURVE('',#428,#408,#253,.T.);
#542=EDGE_CURVE('',#404,#428,#254,.T.);
#543=EDGE_CURVE('',#409,#428,#255,.T.);
#544=EDGE_CURVE('',#424,#390,#256,.T.);
#545=EDGE_CURVE('',#423,#397,#257,.T.);
#546=ORIENTED_EDGE('',*,*,#429,.F.);
#547=ORIENTED_EDGE('',*,*,#430,.T.);
#548=ORIENTED_EDGE('',*,*,#431,.F.);
#549=ORIENTED_EDGE('',*,*,#432,.F.);
#550=ORIENTED_EDGE('',*,*,#433,.F.);
#551=ORIENTED_EDGE('',*,*,#434,.T.);
#552=ORIENTED_EDGE('',*,*,#435,.F.);
#553=ORIENTED_EDGE('',*,*,#430,.F.);
#554=ORIENTED_EDGE('',*,*,#436,.F.);
#555=ORIENTED_EDGE('',*,*,#437,.T.);
#556=ORIENTED_EDGE('',*,*,#438,.F.);
#557=ORIENTED_EDGE('',*,*,#439,.F.);
#558=ORIENTED_EDGE('',*,*,#440,.F.);
#559=ORIENTED_EDGE('',*,*,#441,.T.);
#560=ORIENTED_EDGE('',*,*,#442,.F.);
#561=ORIENTED_EDGE('',*,*,#437,.F.);
#562=ORIENTED_EDGE('',*,*,#434,.F.);
#563=ORIENTED_EDGE('',*,*,#443,.F.);
#564=ORIENTED_EDGE('',*,*,#432,.T.);
#565=ORIENTED_EDGE('',*,*,#444,.F.);
#566=ORIENTED_EDGE('',*,*,#441,.F.);
#567=ORIENTED_EDGE('',*,*,#445,.F.);
#568=ORIENTED_EDGE('',*,*,#439,.T.);
#569=ORIENTED_EDGE('',*,*,#446,.F.);
#570=ORIENTED_EDGE('',*,*,#447,.F.);
#571=ORIENTED_EDGE('',*,*,#448,.T.);
#572=ORIENTED_EDGE('',*,*,#449,.T.);
#573=ORIENTED_EDGE('',*,*,#450,.T.);
#574=ORIENTED_EDGE('',*,*,#433,.T.);
#575=ORIENTED_EDGE('',*,*,#429,.T.);
#576=ORIENTED_EDGE('',*,*,#443,.T.);
#577=ORIENTED_EDGE('',*,*,#440,.T.);
#578=ORIENTED_EDGE('',*,*,#436,.T.);
#579=ORIENTED_EDGE('',*,*,#445,.T.);
#580=ORIENTED_EDGE('',*,*,#451,.F.);
#581=ORIENTED_EDGE('',*,*,#452,.F.);
#582=ORIENTED_EDGE('',*,*,#453,.F.);
#583=ORIENTED_EDGE('',*,*,#454,.F.);
#584=ORIENTED_EDGE('',*,*,#455,.F.);
#585=ORIENTED_EDGE('',*,*,#456,.F.);
#586=ORIENTED_EDGE('',*,*,#457,.T.);
#587=ORIENTED_EDGE('',*,*,#458,.F.);
#588=ORIENTED_EDGE('',*,*,#459,.F.);
#589=ORIENTED_EDGE('',*,*,#460,.F.);
#590=ORIENTED_EDGE('',*,*,#461,.F.);
#591=ORIENTED_EDGE('',*,*,#462,.F.);
#592=ORIENTED_EDGE('',*,*,#463,.F.);
#593=ORIENTED_EDGE('',*,*,#453,.T.);
#594=ORIENTED_EDGE('',*,*,#464,.F.);
#595=ORIENTED_EDGE('',*,*,#457,.F.);
#596=ORIENTED_EDGE('',*,*,#465,.F.);
#597=ORIENTED_EDGE('',*,*,#466,.T.);
#598=ORIENTED_EDGE('',*,*,#467,.F.);
#599=ORIENTED_EDGE('',*,*,#468,.F.);
#600=ORIENTED_EDGE('',*,*,#469,.F.);
#601=ORIENTED_EDGE('',*,*,#470,.T.);
#602=ORIENTED_EDGE('',*,*,#471,.F.);
#603=ORIENTED_EDGE('',*,*,#466,.F.);
#604=ORIENTED_EDGE('',*,*,#472,.F.);
#605=ORIENTED_EDGE('',*,*,#468,.T.);
#606=ORIENTED_EDGE('',*,*,#473,.F.);
#607=ORIENTED_EDGE('',*,*,#470,.F.);
#608=ORIENTED_EDGE('',*,*,#459,.T.);
#609=ORIENTED_EDGE('',*,*,#474,.F.);
#610=ORIENTED_EDGE('',*,*,#475,.F.);
#611=ORIENTED_EDGE('',*,*,#476,.F.);
#612=ORIENTED_EDGE('',*,*,#455,.T.);
#613=ORIENTED_EDGE('',*,*,#477,.F.);
#614=ORIENTED_EDGE('',*,*,#475,.T.);
#615=ORIENTED_EDGE('',*,*,#478,.F.);
#616=ORIENTED_EDGE('',*,*,#451,.T.);
#617=ORIENTED_EDGE('',*,*,#479,.F.);
#618=ORIENTED_EDGE('',*,*,#480,.T.);
#619=ORIENTED_EDGE('',*,*,#481,.F.);
#620=ORIENTED_EDGE('',*,*,#447,.T.);
#621=ORIENTED_EDGE('',*,*,#482,.T.);
#622=ORIENTED_EDGE('',*,*,#483,.T.);
#623=ORIENTED_EDGE('',*,*,#484,.T.);
#624=ORIENTED_EDGE('',*,*,#462,.T.);
#625=ORIENTED_EDGE('',*,*,#485,.T.);
#626=ORIENTED_EDGE('',*,*,#479,.T.);
#627=ORIENTED_EDGE('',*,*,#454,.T.);
#628=ORIENTED_EDGE('',*,*,#463,.T.);
#629=ORIENTED_EDGE('',*,*,#456,.T.);
#630=ORIENTED_EDGE('',*,*,#478,.T.);
#631=ORIENTED_EDGE('',*,*,#474,.T.);
#632=ORIENTED_EDGE('',*,*,#486,.T.);
#633=ORIENTED_EDGE('',*,*,#487,.T.);
#634=ORIENTED_EDGE('',*,*,#488,.T.);
#635=ORIENTED_EDGE('',*,*,#465,.T.);
#636=ORIENTED_EDGE('',*,*,#472,.T.);
#637=ORIENTED_EDGE('',*,*,#469,.T.);
#638=ORIENTED_EDGE('',*,*,#489,.T.);
#639=ORIENTED_EDGE('',*,*,#490,.F.);
#640=ORIENTED_EDGE('',*,*,#488,.F.);
#641=ORIENTED_EDGE('',*,*,#491,.F.);
#642=ORIENTED_EDGE('',*,*,#492,.F.);
#643=ORIENTED_EDGE('',*,*,#493,.F.);
#644=ORIENTED_EDGE('',*,*,#491,.T.);
#645=ORIENTED_EDGE('',*,*,#487,.F.);
#646=ORIENTED_EDGE('',*,*,#492,.T.);
#647=ORIENTED_EDGE('',*,*,#486,.F.);
#648=ORIENTED_EDGE('',*,*,#490,.T.);
#649=ORIENTED_EDGE('',*,*,#494,.F.);
#650=ORIENTED_EDGE('',*,*,#461,.T.);
#651=ORIENTED_EDGE('',*,*,#495,.T.);
#652=ORIENTED_EDGE('',*,*,#480,.F.);
#653=ORIENTED_EDGE('',*,*,#485,.F.);
#654=ORIENTED_EDGE('',*,*,#496,.F.);
#655=ORIENTED_EDGE('',*,*,#497,.T.);
#656=ORIENTED_EDGE('',*,*,#498,.T.);
#657=ORIENTED_EDGE('',*,*,#449,.F.);
#658=ORIENTED_EDGE('',*,*,#499,.F.);
#659=ORIENTED_EDGE('',*,*,#500,.F.);
#660=ORIENTED_EDGE('',*,*,#501,.F.);
#661=ORIENTED_EDGE('',*,*,#502,.F.);
#662=ORIENTED_EDGE('',*,*,#503,.F.);
#663=ORIENTED_EDGE('',*,*,#504,.F.);
#664=ORIENTED_EDGE('',*,*,#505,.F.);
#665=ORIENTED_EDGE('',*,*,#506,.F.);
#666=ORIENTED_EDGE('',*,*,#505,.T.);
#667=ORIENTED_EDGE('',*,*,#507,.T.);
#668=ORIENTED_EDGE('',*,*,#508,.F.);
#669=ORIENTED_EDGE('',*,*,#509,.T.);
#670=ORIENTED_EDGE('',*,*,#504,.T.);
#671=ORIENTED_EDGE('',*,*,#510,.F.);
#672=ORIENTED_EDGE('',*,*,#511,.F.);
#673=ORIENTED_EDGE('',*,*,#507,.F.);
#674=ORIENTED_EDGE('',*,*,#512,.T.);
#675=ORIENTED_EDGE('',*,*,#502,.T.);
#676=ORIENTED_EDGE('',*,*,#513,.T.);
#677=ORIENTED_EDGE('',*,*,#514,.T.);
#678=ORIENTED_EDGE('',*,*,#482,.F.);
#679=ORIENTED_EDGE('',*,*,#450,.F.);
#680=ORIENTED_EDGE('',*,*,#498,.F.);
#681=ORIENTED_EDGE('',*,*,#515,.F.);
#682=ORIENTED_EDGE('',*,*,#516,.T.);
#683=ORIENTED_EDGE('',*,*,#517,.T.);
#684=ORIENTED_EDGE('',*,*,#518,.F.);
#685=ORIENTED_EDGE('',*,*,#517,.F.);
#686=ORIENTED_EDGE('',*,*,#519,.F.);
#687=ORIENTED_EDGE('',*,*,#520,.F.);
#688=ORIENTED_EDGE('',*,*,#521,.F.);
#689=ORIENTED_EDGE('',*,*,#522,.F.);
#690=ORIENTED_EDGE('',*,*,#523,.F.);
#691=ORIENTED_EDGE('',*,*,#524,.F.);
#692=ORIENTED_EDGE('',*,*,#522,.T.);
#693=ORIENTED_EDGE('',*,*,#525,.F.);
#694=ORIENTED_EDGE('',*,*,#526,.F.);
#695=ORIENTED_EDGE('',*,*,#527,.T.);
#696=ORIENTED_EDGE('',*,*,#521,.T.);
#697=ORIENTED_EDGE('',*,*,#528,.F.);
#698=ORIENTED_EDGE('',*,*,#529,.F.);
#699=ORIENTED_EDGE('',*,*,#525,.T.);
#700=ORIENTED_EDGE('',*,*,#530,.T.);
#701=ORIENTED_EDGE('',*,*,#519,.T.);
#702=ORIENTED_EDGE('',*,*,#516,.F.);
#703=ORIENTED_EDGE('',*,*,#531,.F.);
#704=ORIENTED_EDGE('',*,*,#532,.F.);
#705=ORIENTED_EDGE('',*,*,#533,.T.);
#706=ORIENTED_EDGE('',*,*,#513,.F.);
#707=ORIENTED_EDGE('',*,*,#501,.T.);
#708=ORIENTED_EDGE('',*,*,#534,.F.);
#709=ORIENTED_EDGE('',*,*,#499,.T.);
#710=ORIENTED_EDGE('',*,*,#512,.F.);
#711=ORIENTED_EDGE('',*,*,#518,.T.);
#712=ORIENTED_EDGE('',*,*,#460,.T.);
#713=ORIENTED_EDGE('',*,*,#476,.T.);
#714=ORIENTED_EDGE('',*,*,#477,.T.);
#715=ORIENTED_EDGE('',*,*,#458,.T.);
#716=ORIENTED_EDGE('',*,*,#464,.T.);
#717=ORIENTED_EDGE('',*,*,#452,.T.);
#718=ORIENTED_EDGE('',*,*,#481,.T.);
#719=ORIENTED_EDGE('',*,*,#495,.F.);
#720=ORIENTED_EDGE('',*,*,#467,.T.);
#721=ORIENTED_EDGE('',*,*,#471,.T.);
#722=ORIENTED_EDGE('',*,*,#473,.T.);
#723=ORIENTED_EDGE('',*,*,#494,.T.);
#724=ORIENTED_EDGE('',*,*,#489,.F.);
#725=ORIENTED_EDGE('',*,*,#493,.T.);
#726=ORIENTED_EDGE('',*,*,#534,.T.);
#727=ORIENTED_EDGE('',*,*,#520,.T.);
#728=ORIENTED_EDGE('',*,*,#530,.F.);
#729=ORIENTED_EDGE('',*,*,#500,.T.);
#730=ORIENTED_EDGE('',*,*,#535,.T.);
#731=ORIENTED_EDGE('',*,*,#523,.T.);
#732=ORIENTED_EDGE('',*,*,#527,.F.);
#733=ORIENTED_EDGE('',*,*,#536,.F.);
#734=ORIENTED_EDGE('',*,*,#537,.T.);
#735=ORIENTED_EDGE('',*,*,#524,.T.);
#736=ORIENTED_EDGE('',*,*,#537,.F.);
#737=ORIENTED_EDGE('',*,*,#538,.F.);
#738=ORIENTED_EDGE('',*,*,#528,.T.);
#739=ORIENTED_EDGE('',*,*,#539,.F.);
#740=ORIENTED_EDGE('',*,*,#540,.T.);
#741=ORIENTED_EDGE('',*,*,#535,.F.);
#742=ORIENTED_EDGE('',*,*,#540,.F.);
#743=ORIENTED_EDGE('',*,*,#506,.T.);
#744=ORIENTED_EDGE('',*,*,#509,.F.);
#745=ORIENTED_EDGE('',*,*,#541,.F.);
#746=ORIENTED_EDGE('',*,*,#542,.F.);
#747=ORIENTED_EDGE('',*,*,#503,.T.);
#748=ORIENTED_EDGE('',*,*,#542,.T.);
#749=ORIENTED_EDGE('',*,*,#543,.F.);
#750=ORIENTED_EDGE('',*,*,#510,.T.);
#751=ORIENTED_EDGE('',*,*,#533,.F.);
#752=ORIENTED_EDGE('',*,*,#544,.T.);
#753=ORIENTED_EDGE('',*,*,#483,.F.);
#754=ORIENTED_EDGE('',*,*,#514,.F.);
#755=ORIENTED_EDGE('',*,*,#543,.T.);
#756=ORIENTED_EDGE('',*,*,#541,.T.);
#757=ORIENTED_EDGE('',*,*,#508,.T.);
#758=ORIENTED_EDGE('',*,*,#511,.T.);
#759=ORIENTED_EDGE('',*,*,#531,.T.);
#760=ORIENTED_EDGE('',*,*,#515,.T.);
#761=ORIENTED_EDGE('',*,*,#497,.F.);
#762=ORIENTED_EDGE('',*,*,#545,.F.);
#763=ORIENTED_EDGE('',*,*,#435,.T.);
#764=ORIENTED_EDGE('',*,*,#444,.T.);
#765=ORIENTED_EDGE('',*,*,#431,.T.);
#766=ORIENTED_EDGE('',*,*,#442,.T.);
#767=ORIENTED_EDGE('',*,*,#446,.T.);
#768=ORIENTED_EDGE('',*,*,#438,.T.);
#769=ORIENTED_EDGE('',*,*,#529,.T.);
#770=ORIENTED_EDGE('',*,*,#538,.T.);
#771=ORIENTED_EDGE('',*,*,#536,.T.);
#772=ORIENTED_EDGE('',*,*,#526,.T.);
#773=ORIENTED_EDGE('',*,*,#532,.T.);
#774=ORIENTED_EDGE('',*,*,#545,.T.);
#775=ORIENTED_EDGE('',*,*,#496,.T.);
#776=ORIENTED_EDGE('',*,*,#448,.F.);
#777=ORIENTED_EDGE('',*,*,#484,.F.);
#778=ORIENTED_EDGE('',*,*,#544,.F.);
#779=ORIENTED_EDGE('',*,*,#539,.T.);
#780=PLANE('',#864);
#781=PLANE('',#865);
#782=PLANE('',#866);
#783=PLANE('',#867);
#784=PLANE('',#874);
#785=PLANE('',#878);
#786=PLANE('',#879);
#787=PLANE('',#880);
#788=PLANE('',#884);
#789=PLANE('',#885);
#790=PLANE('',#895);
#791=PLANE('',#908);
#792=PLANE('',#909);
#793=PLANE('',#910);
#794=PLANE('',#911);
#795=PLANE('',#912);
#796=PLANE('',#913);
#797=PLANE('',#914);
#798=PLANE('',#915);
#799=PLANE('',#916);
#800=PLANE('',#917);
#801=PLANE('',#918);
#802=PLANE('',#920);
#803=PLANE('',#921);
#804=PLANE('',#924);
#805=PLANE('',#925);
#806=PLANE('',#926);
#807=PLANE('',#927);
#808=PLANE('',#928);
#809=ADVANCED_FACE('',(#67),#780,.F.);
#810=ADVANCED_FACE('',(#68),#781,.F.);
#811=ADVANCED_FACE('',(#69),#782,.F.);
#812=ADVANCED_FACE('',(#70),#783,.F.);
#813=ADVANCED_FACE('',(#71),#55,.F.);
#814=ADVANCED_FACE('',(#72),#56,.F.);
#815=ADVANCED_FACE('',(#73,#15,#16),#784,.T.);
#816=ADVANCED_FACE('',(#74),#57,.T.);
#817=ADVANCED_FACE('',(#75),#785,.F.);
#818=ADVANCED_FACE('',(#76),#786,.F.);
#819=ADVANCED_FACE('',(#77),#787,.F.);
#820=ADVANCED_FACE('',(#78),#58,.T.);
#821=ADVANCED_FACE('',(#79),#788,.F.);
#822=ADVANCED_FACE('',(#80),#789,.F.);
#823=ADVANCED_FACE('',(#81),#59,.T.);
#824=ADVANCED_FACE('',(#82),#60,.F.);
#825=ADVANCED_FACE('',(#83),#61,.F.);
#826=ADVANCED_FACE('',(#84,#17,#18,#19),#790,.T.);
#827=ADVANCED_FACE('',(#85),#62,.F.);
#828=ADVANCED_FACE('',(#86),#63,.T.);
#829=ADVANCED_FACE('',(#87),#64,.F.);
#830=ADVANCED_FACE('',(#88),#65,.F.);
#831=ADVANCED_FACE('',(#89),#791,.T.);
#832=ADVANCED_FACE('',(#90,#20),#792,.F.);
#833=ADVANCED_FACE('',(#91),#793,.F.);
#834=ADVANCED_FACE('',(#92),#794,.F.);
#835=ADVANCED_FACE('',(#93),#795,.T.);
#836=ADVANCED_FACE('',(#94,#21),#796,.F.);
#837=ADVANCED_FACE('',(#95),#797,.F.);
#838=ADVANCED_FACE('',(#96),#798,.F.);
#839=ADVANCED_FACE('',(#97),#799,.T.);
#840=ADVANCED_FACE('',(#98,#22,#23,#24),#800,.T.);
#841=ADVANCED_FACE('',(#99,#25),#801,.T.);
#842=ADVANCED_FACE('',(#100),#802,.F.);
#843=ADVANCED_FACE('',(#101),#803,.F.);
#844=ADVANCED_FACE('',(#102),#66,.F.);
#845=ADVANCED_FACE('',(#103),#804,.F.);
#846=ADVANCED_FACE('',(#104),#805,.F.);
#847=ADVANCED_FACE('',(#105,#26),#806,.T.);
#848=ADVANCED_FACE('',(#106,#27,#28,#29),#807,.T.);
#849=ADVANCED_FACE('',(#107,#30),#808,.T.);
#850=CLOSED_SHELL('',(#809,#810,#811,#812,#813,#814,#815,#816,#817,#818,
#819,#820,#821,#822,#823,#824,#825,#826,#827,#828,#829,#830,#831,#832,#833,
#834,#835,#836,#837,#838,#839,#840,#841,#842,#843,#844,#845,#846,#847,#848,
#849));
#851=DERIVED_UNIT_ELEMENT(#853,1.);
#852=DERIVED_UNIT_ELEMENT(#1396,-3.);
#853=(
MASS_UNIT()
NAMED_UNIT(*)
SI_UNIT(.KILO.,.GRAM.)
);
#854=DERIVED_UNIT((#851,#852));
#855=MEASURE_REPRESENTATION_ITEM('density measure',
POSITIVE_RATIO_MEASURE(7850.),#854);
#856=PROPERTY_DEFINITION_REPRESENTATION(#861,#858);
#857=PROPERTY_DEFINITION_REPRESENTATION(#862,#859);
#858=REPRESENTATION('material name',(#860),#1393);
#859=REPRESENTATION('density',(#855),#1393);
#860=DESCRIPTIVE_REPRESENTATION_ITEM('Steel','Steel');
#861=PROPERTY_DEFINITION('material property','material name',#1403);
#862=PROPERTY_DEFINITION('material property','density of part',#1403);
#863=AXIS2_PLACEMENT_3D('',#1154,#929,#930);
#864=AXIS2_PLACEMENT_3D('',#1155,#931,#932);
#865=AXIS2_PLACEMENT_3D('',#1164,#937,#938);
#866=AXIS2_PLACEMENT_3D('',#1170,#942,#943);
#867=AXIS2_PLACEMENT_3D('',#1179,#948,#949);
#868=AXIS2_PLACEMENT_3D('',#1185,#953,#954);
#869=AXIS2_PLACEMENT_3D('',#1186,#955,#956);
#870=AXIS2_PLACEMENT_3D('',#1187,#957,#958);
#871=AXIS2_PLACEMENT_3D('',#1188,#959,#960);
#872=AXIS2_PLACEMENT_3D('',#1189,#961,#962);
#873=AXIS2_PLACEMENT_3D('',#1190,#963,#964);
#874=AXIS2_PLACEMENT_3D('',#1191,#965,#966);
#875=AXIS2_PLACEMENT_3D('',#1200,#971,#972);
#876=AXIS2_PLACEMENT_3D('',#1205,#974,#975);
#877=AXIS2_PLACEMENT_3D('',#1208,#977,#978);
#878=AXIS2_PLACEMENT_3D('',#1209,#979,#980);
#879=AXIS2_PLACEMENT_3D('',#1218,#985,#986);
#880=AXIS2_PLACEMENT_3D('',#1227,#991,#992);
#881=AXIS2_PLACEMENT_3D('',#1230,#995,#996);
#882=AXIS2_PLACEMENT_3D('',#1233,#997,#998);
#883=AXIS2_PLACEMENT_3D('',#1237,#1000,#1001);
#884=AXIS2_PLACEMENT_3D('',#1239,#1003,#1004);
#885=AXIS2_PLACEMENT_3D('',#1245,#1008,#1009);
#886=AXIS2_PLACEMENT_3D('',#1248,#1012,#1013);
#887=AXIS2_PLACEMENT_3D('',#1250,#1014,#1015);
#888=AXIS2_PLACEMENT_3D('',#1253,#1017,#1018);
#889=AXIS2_PLACEMENT_3D('',#1254,#1019,#1020);
#890=AXIS2_PLACEMENT_3D('',#1255,#1021,#1022);
#891=AXIS2_PLACEMENT_3D('',#1256,#1023,#1024);
#892=AXIS2_PLACEMENT_3D('',#1257,#1025,#1026);
#893=AXIS2_PLACEMENT_3D('',#1259,#1027,#1028);
#894=AXIS2_PLACEMENT_3D('',#1262,#1030,#1031);
#895=AXIS2_PLACEMENT_3D('',#1263,#1032,#1033);
#896=AXIS2_PLACEMENT_3D('',#1269,#1037,#1038);
#897=AXIS2_PLACEMENT_3D('',#1272,#1039,#1040);
#898=AXIS2_PLACEMENT_3D('',#1274,#1041,#1042);
#899=AXIS2_PLACEMENT_3D('',#1275,#1043,#1044);
#900=AXIS2_PLACEMENT_3D('',#1276,#1045,#1046);
#901=AXIS2_PLACEMENT_3D('',#1279,#1047,#1048);
#902=AXIS2_PLACEMENT_3D('',#1282,#1051,#1052);
#903=AXIS2_PLACEMENT_3D('',#1285,#1054,#1055);
#904=AXIS2_PLACEMENT_3D('',#1286,#1056,#1057);
#905=AXIS2_PLACEMENT_3D('',#1287,#1058,#1059);
#906=AXIS2_PLACEMENT_3D('',#1288,#1060,#1061);
#907=AXIS2_PLACEMENT_3D('',#1289,#1062,#1063);
#908=AXIS2_PLACEMENT_3D('',#1290,#1064,#1065);
#909=AXIS2_PLACEMENT_3D('',#1296,#1069,#1070);
#910=AXIS2_PLACEMENT_3D('',#1313,#1079,#1080);
#911=AXIS2_PLACEMENT_3D('',#1319,#1084,#1085);
#912=AXIS2_PLACEMENT_3D('',#1323,#1088,#1089);
#913=AXIS2_PLACEMENT_3D('',#1334,#1096,#1097);
#914=AXIS2_PLACEMENT_3D('',#1348,#1105,#1106);
#915=AXIS2_PLACEMENT_3D('',#1354,#1110,#1111);
#916=AXIS2_PLACEMENT_3D('',#1358,#1114,#1115);
#917=AXIS2_PLACEMENT_3D('',#1365,#1120,#1121);
#918=AXIS2_PLACEMENT_3D('',#1367,#1123,#1124);
#919=AXIS2_PLACEMENT_3D('',#1369,#1125,#1126);
#920=AXIS2_PLACEMENT_3D('',#1370,#1127,#1128);
#921=AXIS2_PLACEMENT_3D('',#1374,#1131,#1132);
#922=AXIS2_PLACEMENT_3D('',#1376,#1134,#1135);
#923=AXIS2_PLACEMENT_3D('',#1378,#1136,#1137);
#924=AXIS2_PLACEMENT_3D('',#1380,#1139,#1140);
#925=AXIS2_PLACEMENT_3D('',#1384,#1143,#1144);
#926=AXIS2_PLACEMENT_3D('',#1386,#1146,#1147);
#927=AXIS2_PLACEMENT_3D('',#1388,#1149,#1150);
#928=AXIS2_PLACEMENT_3D('',#1390,#1152,#1153);
#929=DIRECTION('axis',(0.,0.,1.));
#930=DIRECTION('refdir',(1.,0.,0.));
#931=DIRECTION('center_axis',(0.642787609686067,0.541675220396242,0.541675220443722));
#932=DIRECTION('ref_axis',(-0.766044443119374,0.454519477651776,0.454519477691643));
#933=DIRECTION('',(-0.766044443119374,0.454519477651786,0.454519477691633));
#934=DIRECTION('',(1.58745025862399E-14,-0.707106781217547,0.707106781155548));
#935=DIRECTION('',(0.766044443119374,-0.454519477651789,-0.454519477691631));
#936=DIRECTION('',(-1.22464679914735E-16,-0.70710678121754,0.707106781155555));
#937=DIRECTION('center_axis',(0.642787609686119,-0.541675220396197,-0.541675220443706));
#938=DIRECTION('ref_axis',(0.766044443119331,0.454519477651829,0.454519477691664));
#939=DIRECTION('',(0.766044443119331,0.454519477651823,0.45451947769167));
#940=DIRECTION('',(-1.22464679914735E-16,-0.70710678121754,0.707106781155555));
#941=DIRECTION('',(-0.766044443119331,-0.454519477651826,-0.454519477691667));
#942=DIRECTION('center_axis',(0.642787609686753,0.541675220395834,0.541675220443316));
#943=DIRECTION('ref_axis',(-0.766044443118798,0.454519477652301,0.454519477692089));
#944=DIRECTION('',(-0.766044443118798,0.454519477652272,0.454519477692119));
#945=DIRECTION('',(1.42870523276159E-14,-0.707106781217547,0.707106781155548));
#946=DIRECTION('',(0.766044443118798,-0.454519477652274,-0.454519477692116));
#947=DIRECTION('',(-1.22464679914735E-16,-0.70710678121754,0.707106781155555));
#948=DIRECTION('center_axis',(0.642787609686828,-0.541675220395777,-0.541675220443284));
#949=DIRECTION('ref_axis',(0.766044443118736,0.454519477652296,0.4545194776922));
#950=DIRECTION('',(0.766044443118736,0.454519477652324,0.454519477692172));
#951=DIRECTION('',(-1.22464679914735E-16,-0.70710678121754,0.707106781155555));
#952=DIRECTION('',(-0.766044443118735,-0.454519477652327,-0.454519477692169));
#953=DIRECTION('center_axis',(1.22464679914735E-16,0.70710678121754,-0.707106781155555));
#954=DIRECTION('ref_axis',(-1.,-1.54431722733662E-14,-1.56163634859747E-14));
#955=DIRECTION('center_axis',(-1.22464679914735E-16,-0.707106781217543,
0.707106781155552));
#956=DIRECTION('ref_axis',(1.,-3.03294266801114E-17,1.42861784571919E-16));
#957=DIRECTION('center_axis',(1.22464679914735E-16,0.707106781217539,-0.707106781155556));
#958=DIRECTION('ref_axis',(1.,-3.03294266801114E-17,1.42861784571919E-16));
#959=DIRECTION('center_axis',(1.22464679914735E-16,0.70710678121754,-0.707106781155555));
#960=DIRECTION('ref_axis',(-1.,-4.08786701029286E-14,-4.10518613177666E-14));
#961=DIRECTION('center_axis',(-1.22464679914735E-16,-0.707106781217543,
0.707106781155552));
#962=DIRECTION('ref_axis',(1.,-3.03294266801114E-17,1.42861784571919E-16));
#963=DIRECTION('center_axis',(1.22464679914735E-16,0.707106781217539,-0.707106781155556));
#964=DIRECTION('ref_axis',(1.,-3.03294266801114E-17,1.42861784571919E-16));
#965=DIRECTION('center_axis',(1.22464679914735E-16,0.707106781217543,-0.707106781155552));
#966=DIRECTION('ref_axis',(-1.,3.03294266801114E-17,-1.42861784571919E-16));
#967=DIRECTION('',(1.,-3.03294266801114E-17,1.42861784571919E-16));
#968=DIRECTION('',(-7.95723933735771E-17,0.707106781155552,0.707106781217543));
#969=DIRECTION('',(1.,-3.03294266801114E-17,1.42861784571919E-16));
#970=DIRECTION('',(7.95723933735771E-17,-0.707106781155552,-0.707106781217543));
#971=DIRECTION('center_axis',(4.97379915032071E-14,-0.707106781155547,-0.707106781217549));
#972=DIRECTION('ref_axis',(0.642787609686733,-0.541675220443313,0.541675220395861));
#973=DIRECTION('',(-4.97379915032071E-14,0.707106781155547,0.707106781217549));
#974=DIRECTION('center_axis',(7.95723933735764E-17,-0.707106781155556,-0.707106781217539));
#975=DIRECTION('ref_axis',(0.642787609686733,-0.541675220443313,0.541675220395861));
#976=DIRECTION('',(4.97379915032071E-14,-0.707106781155547,-0.707106781217549));
#977=DIRECTION('center_axis',(-7.95723933735771E-17,0.707106781155552,0.707106781217543));
#978=DIRECTION('ref_axis',(0.642787609686733,-0.541675220443313,0.541675220395861));
#979=DIRECTION('center_axis',(0.642787609686396,-0.541675220443512,0.541675220396061));
#980=DIRECTION('ref_axis',(-0.766044443119098,-0.454519477691896,0.454519477651989));
#981=DIRECTION('',(7.95723933735765E-17,-0.707106781155556,-0.707106781217539));
#982=DIRECTION('',(-0.766044443119098,-0.454519477691866,0.454519477652019));
#983=DIRECTION('',(4.97379915032071E-14,-0.707106781155547,-0.707106781217549));
#984=DIRECTION('',(0.766044443119098,0.454519477691864,-0.454519477652021));
#985=DIRECTION('center_axis',(0.642787609686396,-0.541675220443512,0.541675220396061));
#986=DIRECTION('ref_axis',(-0.766044443119098,-0.454519477691896,0.454519477651989));
#987=DIRECTION('',(-8.71576399248719E-33,0.707106781155561,0.707106781217534));
#988=DIRECTION('',(0.766044443119098,0.454519477691864,-0.454519477652021));
#989=DIRECTION('',(8.71576399248719E-33,-0.707106781155561,-0.707106781217534));
#990=DIRECTION('',(-0.766044443119098,-0.454519477691866,0.454519477652019));
#991=DIRECTION('center_axis',(0.642787609686385,0.541675220443565,-0.541675220396023));
#992=DIRECTION('ref_axis',(0.766044443119108,-0.454519477691836,0.454519477652032));
#993=DIRECTION('',(0.766044443119108,-0.454519477691858,0.454519477652011));
#994=DIRECTION('',(-0.766044443119108,0.454519477691855,-0.454519477652013));
#995=DIRECTION('center_axis',(4.61852778244066E-14,-0.707106781155547,-0.707106781217549));
#996=DIRECTION('ref_axis',(0.642787609686922,-0.541675220443202,0.541675220395748));
#997=DIRECTION('center_axis',(-7.95723933735771E-17,0.707106781155552,0.707106781217543));
#998=DIRECTION('ref_axis',(0.642787609686922,-0.541675220443202,0.541675220395748));
#999=DIRECTION('',(4.61852778244066E-14,-0.707106781155547,-0.707106781217549));
#1000=DIRECTION('center_axis',(7.95723933735764E-17,-0.707106781155556,
-0.707106781217539));
#1001=DIRECTION('ref_axis',(0.642787609686922,-0.541675220443202,0.541675220395748));
#1002=DIRECTION('',(4.61852778244066E-14,-0.707106781155547,-0.707106781217549));
#1003=DIRECTION('center_axis',(0.642787609686068,-0.541675220443709,0.541675220396254));
#1004=DIRECTION('ref_axis',(-0.766044443119373,-0.454519477691634,0.454519477651787));
#1005=DIRECTION('',(-0.766044443119373,-0.454519477691634,0.454519477651787));
#1006=DIRECTION('',(4.61852778244066E-14,-0.707106781155547,-0.707106781217549));
#1007=DIRECTION('',(0.766044443119373,0.454519477691632,-0.454519477651789));
#1008=DIRECTION('center_axis',(0.64278760968613,0.541675220443714,-0.541675220396176));
#1009=DIRECTION('ref_axis',(0.766044443119322,-0.454519477691678,0.45451947765183));
#1010=DIRECTION('',(0.766044443119322,-0.454519477691677,0.45451947765183));
#1011=DIRECTION('',(-0.766044443119322,0.454519477691675,-0.454519477651833));
#1012=DIRECTION('center_axis',(-8.71576399248719E-33,0.707106781155561,
0.707106781217534));
#1013=DIRECTION('ref_axis',(0.810653997412738,0.414029042766807,-0.41402904273052));
#1014=DIRECTION('center_axis',(-7.50890836115606E-18,0.707106781155556,
0.707106781217539));
#1015=DIRECTION('ref_axis',(0.810653997412738,0.41402904276681,-0.414029042730517));
#1016=DIRECTION('',(-8.71576399248719E-33,0.707106781155561,0.707106781217534));
#1017=DIRECTION('center_axis',(7.50890836115606E-18,-0.707106781155556,
-0.707106781217539));
#1018=DIRECTION('ref_axis',(0.810653997412738,0.41402904276681,-0.414029042730517));
#1019=DIRECTION('center_axis',(-7.95723933735765E-17,0.707106781155556,
0.707106781217539));
#1020=DIRECTION('ref_axis',(0.879461876484309,-0.336561144393227,0.336561144363724));
#1021=DIRECTION('center_axis',(-7.95723933735764E-17,0.707106781155556,
0.707106781217539));
#1022=DIRECTION('ref_axis',(-1.,3.03294266801114E-17,-1.42861784571919E-16));
#1023=DIRECTION('center_axis',(7.95723933735771E-17,-0.707106781155552,
-0.707106781217543));
#1024=DIRECTION('ref_axis',(-1.,3.03294266801114E-17,-1.42861784571919E-16));
#1025=DIRECTION('center_axis',(-7.95723933735765E-17,0.707106781155556,
0.707106781217539));
#1026=DIRECTION('ref_axis',(-1.,3.03294266801114E-17,-1.42861784571919E-16));
#1027=DIRECTION('center_axis',(7.95723933735771E-17,-0.707106781155552,
-0.707106781217543));
#1028=DIRECTION('ref_axis',(-1.,3.03294266801114E-17,-1.42861784571919E-16));
#1029=DIRECTION('',(8.71576399248719E-33,-0.707106781155561,-0.707106781217534));
#1030=DIRECTION('center_axis',(-7.95723933735764E-17,0.707106781155556,
0.707106781217539));
#1031=DIRECTION('ref_axis',(-1.,3.03294266801114E-17,-1.42861784571919E-16));
#1032=DIRECTION('center_axis',(-7.95723933735771E-17,0.707106781155552,
0.707106781217543));
#1033=DIRECTION('ref_axis',(-1.,3.03294266801114E-17,-1.42861784571919E-16));
#1034=DIRECTION('',(1.22464679914735E-16,0.707106781217539,-0.707106781155556));
#1035=DIRECTION('',(-1.,3.03294266801114E-17,-1.42861784571919E-16));
#1036=DIRECTION('',(-1.22464679914735E-16,-0.707106781217539,0.707106781155556));
#1037=DIRECTION('center_axis',(-9.3706779751466E-17,-0.707106781155556,
-0.707106781217539));
#1038=DIRECTION('ref_axis',(0.84403563674157,-0.379212238684001,0.37921223865076));
#1039=DIRECTION('center_axis',(7.95723933735771E-17,-0.707106781155552,
-0.707106781217543));
#1040=DIRECTION('ref_axis',(-1.,3.03294266801114E-17,-1.42861784571919E-16));
#1041=DIRECTION('center_axis',(-2.03742500071424E-17,0.707106781155556,
0.707106781217539));
#1042=DIRECTION('ref_axis',(0.944701075584183,0.231883459737338,-0.231883459717011));
#1043=DIRECTION('center_axis',(-3.3754924407657E-17,-0.707106781155556,
-0.707106781217539));
#1044=DIRECTION('ref_axis',(0.608074659936967,-0.561357821713472,0.561357821664264));
#1045=DIRECTION('center_axis',(-8.71576399248719E-33,0.707106781155561,
0.707106781217534));
#1046=DIRECTION('ref_axis',(0.608074659936968,-0.561357821713468,0.561357821664268));
#1047=DIRECTION('center_axis',(-3.3754924407657E-17,-0.707106781155556,
-0.707106781217539));
#1048=DIRECTION('ref_axis',(0.608074659936967,-0.561357821713472,0.561357821664264));
#1049=DIRECTION('',(8.71576399248719E-33,-0.707106781155561,-0.707106781217534));
#1050=DIRECTION('',(-8.71576399248719E-33,0.707106781155561,0.707106781217534));
#1051=DIRECTION('center_axis',(-8.71576399248719E-33,0.707106781155561,
0.707106781217534));
#1052=DIRECTION('ref_axis',(0.944701075584183,0.231883459737336,-0.231883459717013));
#1053=DIRECTION('',(-8.71576399248719E-33,0.707106781155561,0.707106781217534));
#1054=DIRECTION('center_axis',(2.03742500071424E-17,-0.707106781155556,
-0.707106781217539));
#1055=DIRECTION('ref_axis',(0.944701075584183,0.231883459737338,-0.231883459717011));
#1056=DIRECTION('center_axis',(-7.95723933735765E-17,0.707106781155556,
0.707106781217539));
#1057=DIRECTION('ref_axis',(0.94706846645779,0.227003656193379,-0.22700365617348));
#1058=DIRECTION('center_axis',(-7.95723933735764E-17,0.707106781155556,
0.707106781217539));
#1059=DIRECTION('ref_axis',(-1.,3.03294266801114E-17,-1.42861784571919E-16));
#1060=DIRECTION('center_axis',(-8.71576399248719E-33,0.707106781155561,
0.707106781217534));
#1061=DIRECTION('ref_axis',(0.84403563674157,-0.379212238683998,0.379212238650763));
#1062=DIRECTION('center_axis',(-9.3706779751466E-17,-0.707106781155556,
-0.707106781217539));
#1063=DIRECTION('ref_axis',(0.84403563674157,-0.379212238684001,0.37921223865076));
#1064=DIRECTION('center_axis',(-7.95723933735771E-17,0.707106781155552,
0.707106781217543));
#1065=DIRECTION('ref_axis',(-1.,3.03294266801114E-17,-1.42861784571919E-16));
#1066=DIRECTION('',(8.71576399172326E-33,0.707106781217538,-0.707106781155557));
#1067=DIRECTION('',(1.,4.51008023718556E-15,4.68327144883564E-15));
#1068=DIRECTION('',(1.22464679914735E-16,0.707106781217543,-0.707106781155552));
#1069=DIRECTION('center_axis',(1.22464679914746E-16,0.707106781217445,-0.707106781155651));
#1070=DIRECTION('ref_axis',(-1.,3.03294266801114E-17,-1.42861784571919E-16));
#1071=DIRECTION('',(1.,-3.03294266801114E-17,1.42861784571919E-16));
#1072=DIRECTION('',(-7.95723933735763E-17,0.707106781155556,0.707106781217539));
#1073=DIRECTION('',(-1.,5.84625161537318E-17,-1.1472869509584E-16));
#1074=DIRECTION('',(7.957239337356E-17,-0.707106781155651,-0.707106781217444));
#1075=DIRECTION('',(-7.95723933727708E-17,0.707106781155651,0.707106781217444));
#1076=DIRECTION('',(1.,-3.03294266801114E-17,1.42861784571919E-16));
#1077=DIRECTION('',(7.95723933727708E-17,-0.707106781155651,-0.707106781217444));
#1078=DIRECTION('',(-1.,3.03294266801114E-17,-1.42861784571919E-16));
#1079=DIRECTION('center_axis',(-1.,4.21724265002036E-15,-4.32977500754516E-15));
#1080=DIRECTION('ref_axis',(7.95723933735763E-17,-0.707106781155556,-0.707106781217539));
#1081=DIRECTION('',(6.04365414458225E-15,0.707106781217539,-0.707106781155556));
#1082=DIRECTION('',(7.95723933743652E-17,-0.707106781155556,-0.707106781217539));
#1083=DIRECTION('',(-6.04365414458225E-15,-0.707106781217539,0.707106781155556));
#1084=DIRECTION('center_axis',(7.957239337356E-17,-0.707106781155651,-0.707106781217445));
#1085=DIRECTION('ref_axis',(1.,-3.03294266801114E-17,1.42861784571919E-16));
#1086=DIRECTION('',(-6.04365414458225E-15,-0.707106781217539,0.707106781155556));
#1087=DIRECTION('',(1.,-3.03294266801114E-17,1.42861784571919E-16));
#1088=DIRECTION('center_axis',(1.,-3.03294266801114E-17,1.42861784571919E-16));
#1089=DIRECTION('ref_axis',(1.22464679914735E-16,0.707106781217539,-0.707106781155556));
#1090=DIRECTION('',(1.22464679914746E-16,0.707106781217444,-0.707106781155651));
#1091=DIRECTION('',(1.22464679914735E-16,0.707106781217539,-0.707106781155556));
#1092=DIRECTION('',(-7.95723933735763E-17,0.707106781155556,0.707106781217539));
#1093=DIRECTION('',(-7.95723933735763E-17,0.707106781155556,0.707106781217539));
#1094=DIRECTION('',(1.22464679914735E-16,0.707106781217539,-0.707106781155556));
#1095=DIRECTION('',(-7.957239337356E-17,0.707106781155651,0.707106781217444));
#1096=DIRECTION('center_axis',(-1.22464679914746E-16,-0.707106781217445,
0.707106781155651));
#1097=DIRECTION('ref_axis',(1.,-3.03294266801114E-17,1.42861784571919E-16));
#1098=DIRECTION('',(-1.,3.03294266801114E-17,-1.42861784571919E-16));
#1099=DIRECTION('',(1.,-5.84625161537318E-17,1.1472869509584E-16));
#1100=DIRECTION('',(7.95723933735763E-17,-0.707106781155556,-0.707106781217539));
#1101=DIRECTION('',(-1.,3.03294266801114E-17,-1.42861784571919E-16));
#1102=DIRECTION('',(7.957239337356E-17,-0.707106781155651,-0.707106781217444));
#1103=DIRECTION('',(1.,-3.03294266801114E-17,1.42861784571919E-16));
#1104=DIRECTION('',(-7.957239337356E-17,0.707106781155651,0.707106781217444));
#1105=DIRECTION('center_axis',(1.,-3.03294266801114E-17,1.42861784571919E-16));
#1106=DIRECTION('ref_axis',(7.9572393373576E-17,-0.707106781155558,-0.707106781217537));
#1107=DIRECTION('',(1.22464679914735E-16,0.707106781217539,-0.707106781155556));
#1108=DIRECTION('',(7.95723933735763E-17,-0.707106781155556,-0.707106781217539));
#1109=DIRECTION('',(1.22464679914735E-16,0.707106781217539,-0.707106781155556));
#1110=DIRECTION('center_axis',(7.95723933735764E-17,-0.707106781155556,
-0.707106781217539));
#1111=DIRECTION('ref_axis',(-1.,3.03294266801114E-17,-1.42861784571919E-16));
#1112=DIRECTION('',(1.22464679914735E-16,0.707106781217539,-0.707106781155556));
#1113=DIRECTION('',(-1.,3.03294266801114E-17,-1.42861784571919E-16));
#1114=DIRECTION('center_axis',(3.97861966867882E-17,-0.707106781155556,
-0.707106781217539));
#1115=DIRECTION('ref_axis',(-1.,5.8462516153728E-17,-1.14728695095837E-16));
#1116=DIRECTION('',(-1.22464679914735E-16,-0.707106781217539,0.707106781155556));
#1117=DIRECTION('',(1.,-3.03294266801114E-17,1.42861784571919E-16));
#1118=DIRECTION('',(-1.22464679914735E-16,-0.707106781217539,0.707106781155556));
#1119=DIRECTION('',(1.,-3.03294266801114E-17,1.42861784571919E-16));
#1120=DIRECTION('center_axis',(7.95723933735764E-17,-0.707106781155556,
-0.707106781217539));
#1121=DIRECTION('ref_axis',(1.22464679914735E-16,0.707106781217539,-0.707106781155556));
#1122=DIRECTION('',(-1.22464679914735E-16,-0.707106781217539,0.707106781155556));
#1123=DIRECTION('center_axis',(1.,-3.03294266801114E-17,1.42861784571919E-16));
#1124=DIRECTION('ref_axis',(1.22464679914735E-16,0.707106781217539,-0.707106781155556));
#1125=DIRECTION('center_axis',(-1.,3.03294266801114E-17,-1.42861784571919E-16));
#1126=DIRECTION('ref_axis',(-1.42861784574578E-16,-8.76575478869767E-11,
1.));
#1127=DIRECTION('center_axis',(-7.95723933735764E-17,0.707106781155556,
0.707106781217539));
#1128=DIRECTION('ref_axis',(1.,-3.03294266801114E-17,1.42861784571919E-16));
#1129=DIRECTION('',(1.,-3.03294266801114E-17,1.42861784571919E-16));
#1130=DIRECTION('',(1.22464679914735E-16,0.707106781217539,-0.707106781155556));
#1131=DIRECTION('center_axis',(-1.,3.03294266801114E-17,-1.42861784571919E-16));
#1132=DIRECTION('ref_axis',(-7.9572393373576E-17,0.707106781155558,0.707106781217537));
#1133=DIRECTION('',(-7.95723933735763E-17,0.707106781155556,0.707106781217539));
#1134=DIRECTION('center_axis',(1.,-3.03294266801114E-17,1.42861784571919E-16));
#1135=DIRECTION('ref_axis',(-1.42861784574578E-16,-8.76575478869767E-11,
1.));
#1136=DIRECTION('center_axis',(1.,-3.03294266801114E-17,1.42861784571919E-16));
#1137=DIRECTION('ref_axis',(-1.42861784574578E-16,-8.76575478869767E-11,
1.));
#1138=DIRECTION('',(1.,-3.03294266801114E-17,1.42861784571919E-16));
#1139=DIRECTION('center_axis',(-7.957239337356E-17,0.707106781155651,0.707106781217445));
#1140=DIRECTION('ref_axis',(-1.,3.03294266801114E-17,-1.42861784571919E-16));
#1141=DIRECTION('',(-1.,3.03294266801114E-17,-1.42861784571919E-16));
#1142=DIRECTION('',(6.04365414458225E-15,0.707106781217539,-0.707106781155556));
#1143=DIRECTION('center_axis',(1.,-4.21724265002036E-15,4.32977500754516E-15));
#1144=DIRECTION('ref_axis',(-7.95723933735763E-17,0.707106781155556,0.707106781217539));
#1145=DIRECTION('',(-7.95723933743652E-17,0.707106781155556,0.707106781217539));
#1146=DIRECTION('center_axis',(1.22464679914735E-16,0.707106781217539,-0.707106781155556));
#1147=DIRECTION('ref_axis',(-1.,3.03294266801114E-17,-1.42861784571919E-16));
#1148=DIRECTION('',(-7.95723933735763E-17,0.707106781155556,0.707106781217539));
#1149=DIRECTION('center_axis',(-1.22464679914735E-16,-0.707106781217539,
0.707106781155556));
#1150=DIRECTION('ref_axis',(1.,-3.03294266801114E-17,1.42861784571919E-16));
#1151=DIRECTION('',(-7.95723933735763E-17,0.707106781155556,0.707106781217539));
#1152=DIRECTION('center_axis',(-1.,3.03294266801114E-17,-1.42861784571919E-16));
#1153=DIRECTION('ref_axis',(-1.22464679914735E-16,-0.707106781217539,0.707106781155556));
#1154=CARTESIAN_POINT('',(0.,0.,0.));
#1155=CARTESIAN_POINT('Origin',(-90.5366583497783,209.898048197636,326.966693871867));
#1156=CARTESIAN_POINT('',(-90.5366583497783,209.898048197636,326.966693871867));
#1157=CARTESIAN_POINT('',(-91.90606267554,210.710561028229,327.779206702531));
#1158=CARTESIAN_POINT('',(-81.5177989673474,204.546860949511,321.615506623272));
#1159=CARTESIAN_POINT('',(-90.5366583497782,205.941785756723,330.922956312432));
#1160=CARTESIAN_POINT('',(-90.5366583497783,209.898048197636,326.966693871867));
#1161=CARTESIAN_POINT('',(-91.9060626755399,206.754298587317,331.735469143097));
#1162=CARTESIAN_POINT('',(-87.2907096536519,204.015857151537,328.997027707076));
#1163=CARTESIAN_POINT('',(-91.9060554253219,206.754294285523,331.735464841303));
#1164=CARTESIAN_POINT('Origin',(-91.90606267554,209.085535367042,326.154181041202));
#1165=CARTESIAN_POINT('',(-91.90606267554,209.085535367042,326.154181041202));
#1166=CARTESIAN_POINT('',(-87.1266279950575,211.921331872005,328.989977546413));
#1167=CARTESIAN_POINT('',(-91.9060626755399,205.12927292613,330.110443481767));
#1168=CARTESIAN_POINT('',(-91.9060554253218,205.129277227924,330.110447783561));
#1169=CARTESIAN_POINT('',(-100.718912240276,199.900318109256,324.881488664435));
#1170=CARTESIAN_POINT('Origin',(-75.0648756994843,209.898048197636,326.966693871867));
#1171=CARTESIAN_POINT('',(-75.0648756994843,209.898048197636,326.966693871867));
#1172=CARTESIAN_POINT('',(-76.4342800252446,210.71056102823,327.779206702532));
#1173=CARTESIAN_POINT('',(-70.5856236952544,207.240359992306,324.309005666304));
#1174=CARTESIAN_POINT('',(-75.0648756994842,205.941785756724,330.922956312432));
#1175=CARTESIAN_POINT('',(-75.0648756994843,209.898048197636,326.966693871867));
#1176=CARTESIAN_POINT('',(-76.4342800252445,206.754298587318,331.735469143098));
#1177=CARTESIAN_POINT('',(-76.3585343815432,206.709356194329,331.690526750104));
#1178=CARTESIAN_POINT('',(-76.4342727750243,206.754294285523,331.735464841302));
#1179=CARTESIAN_POINT('Origin',(-76.4342800252446,209.085535367042,326.154181041202));
#1180=CARTESIAN_POINT('',(-76.4342800252446,209.085535367042,326.154181041201));
#1181=CARTESIAN_POINT('',(-76.1944527229651,209.227832829203,326.296478503376));
#1182=CARTESIAN_POINT('',(-76.4342800252445,205.129272926129,330.110443481767));
#1183=CARTESIAN_POINT('',(-76.4342727750242,205.129277227925,330.110447783562));
#1184=CARTESIAN_POINT('',(-89.7867369681701,197.206819066448,322.18798962139));
#1185=CARTESIAN_POINT('Origin',(-92.870231735057,205.941785756724,330.922956312432));
#1186=CARTESIAN_POINT('Origin',(-92.870231735057,209.898048197636,326.966693871867));
#1187=CARTESIAN_POINT('Origin',(-92.870231735057,205.941785756724,330.922956312432));
#1188=CARTESIAN_POINT('Origin',(-77.3984490847605,205.941785756724,330.922956312432));
#1189=CARTESIAN_POINT('Origin',(-77.3984490847605,209.898048197636,326.966693871867));
#1190=CARTESIAN_POINT('Origin',(-77.3984490847605,205.941785756724,330.922956312432));
#1191=CARTESIAN_POINT('Origin',(-68.1899412508126,202.826853872162,319.895499545773));
#1192=CARTESIAN_POINT('',(-101.189941250813,202.826853872162,319.895499545773));
#1193=CARTESIAN_POINT('',(-68.1899412508126,202.826853872162,319.895499545773));
#1194=CARTESIAN_POINT('',(-76.4399412508126,202.826853872162,319.895499545773));
#1195=CARTESIAN_POINT('',(-101.189941250813,216.968989495273,334.037635170124));
#1196=CARTESIAN_POINT('',(-101.189941250813,202.826853872162,319.895499545773));
#1197=CARTESIAN_POINT('',(-68.1899412508126,216.968989495273,334.037635170124));
#1198=CARTESIAN_POINT('',(-68.1899412508126,216.968989495273,334.037635170124));
#1199=CARTESIAN_POINT('',(-68.1899412508126,202.826853872162,319.895499545773));
#1200=CARTESIAN_POINT('Origin',(-94.3038854805893,209.897671262111,312.824682156443));
#1201=CARTESIAN_POINT('',(-93.0378262434355,207.561092385967,311.625727126605));
#1202=CARTESIAN_POINT('',(-93.0378262434356,209.328859338856,313.393494079649));
#1203=CARTESIAN_POINT('',(-93.0378262434356,209.328859338856,313.393494079649));
#1204=CARTESIAN_POINT('',(-93.3397040660591,208.942417139887,310.244402372806));
#1205=CARTESIAN_POINT('Origin',(-94.3038854805892,208.129904309223,311.0569152034));
#1206=CARTESIAN_POINT('',(-93.3397040660592,210.710184092776,312.01216932585));
#1207=CARTESIAN_POINT('',(-93.3397040660592,210.710184092776,312.01216932585));
#1208=CARTESIAN_POINT('Origin',(-94.3038854805893,209.897671262111,312.824682156443));
#1209=CARTESIAN_POINT('Origin',(-91.9702997402982,209.897671262111,312.824682156443));
#1210=CARTESIAN_POINT('',(-92.998013380509,209.287894804412,313.434458614089));
#1211=CARTESIAN_POINT('',(-92.998013380509,207.520127851523,311.666691661045));
#1212=CARTESIAN_POINT('',(-92.998013380509,207.520127851523,311.666691661045));
#1213=CARTESIAN_POINT('',(-91.9702997402982,209.897671262111,312.824682156443));
#1214=CARTESIAN_POINT('',(-91.0884665546684,210.420892026316,312.301461392284));
#1215=CARTESIAN_POINT('',(-91.970299740298,208.129904309222,311.0569152034));
#1216=CARTESIAN_POINT('',(-91.9702997402982,209.897671262111,312.824682156443));
#1217=CARTESIAN_POINT('',(-96.8960436911932,205.207297679914,313.979521832452));
#1218=CARTESIAN_POINT('Origin',(-91.9702997402982,209.897671262111,312.824682156443));
#1219=CARTESIAN_POINT('',(-92.9980213609944,207.520123116437,311.666696396131));
#1220=CARTESIAN_POINT('',(-92.9980213609944,209.287890069326,313.434463349175));
#1221=CARTESIAN_POINT('',(-92.9980213609944,207.520123116437,311.666696396131));
#1222=CARTESIAN_POINT('',(-93.3397040660591,207.317391478557,311.869428033993));
#1223=CARTESIAN_POINT('',(-96.8960436911932,205.207297679914,313.979521832452));
#1224=CARTESIAN_POINT('',(-93.3397040660592,209.085158431446,313.637194987037));
#1225=CARTESIAN_POINT('',(-93.3397040660597,207.317391478557,311.869428033994));
#1226=CARTESIAN_POINT('',(-91.0884665546684,210.420892026316,312.301461392284));
#1227=CARTESIAN_POINT('Origin',(-93.3397040660592,210.710184092776,312.01216932585));
#1228=CARTESIAN_POINT('',(-89.2645453518337,208.292257787144,314.43009563127));
#1229=CARTESIAN_POINT('',(-91.3790934145631,207.779122063108,311.407697449484));
#1230=CARTESIAN_POINT('Origin',(-77.5395256448771,209.897671262111,312.824682156443));
#1231=CARTESIAN_POINT('',(-76.5753442303467,209.085158431447,313.637194987037));
#1232=CARTESIAN_POINT('',(-76.5753442303468,210.710184092776,312.01216932585));
#1233=CARTESIAN_POINT('Origin',(-77.5395256448771,209.897671262112,312.824682156444));
#1234=CARTESIAN_POINT('',(-76.5753442303466,207.317391478558,311.869428033993));
#1235=CARTESIAN_POINT('',(-76.5753442303467,209.085158431447,313.637194987037));
#1236=CARTESIAN_POINT('',(-76.5753442303466,208.942417139887,310.244402372806));
#1237=CARTESIAN_POINT('Origin',(-77.539525644877,208.129904309223,311.0569152034));
#1238=CARTESIAN_POINT('',(-76.5753442303468,210.710184092776,312.01216932585));
#1239=CARTESIAN_POINT('Origin',(-75.2059399045849,209.897671262111,312.824682156443));
#1240=CARTESIAN_POINT('',(-75.2059399045849,209.897671262111,312.824682156443));
#1241=CARTESIAN_POINT('',(-79.2429718116929,207.502366850828,315.219986567517));
#1242=CARTESIAN_POINT('',(-75.2059399045848,208.129904309222,311.056915203399));
#1243=CARTESIAN_POINT('',(-75.2059399045849,209.897671262111,312.824682156443));
#1244=CARTESIAN_POINT('',(-85.0505489482204,202.288772504427,316.898047007683));
#1245=CARTESIAN_POINT('Origin',(-76.5753442303468,210.710184092776,312.01216932585));
#1246=CARTESIAN_POINT('',(-77.4190506088585,211.210782962634,311.511570456036));
#1247=CARTESIAN_POINT('',(-79.5335986715904,210.697647238598,308.489172274249));
#1248=CARTESIAN_POINT('Origin',(-94.2538130215961,206.940042387046,312.246777125472));
#1249=CARTESIAN_POINT('',(-94.2538068235822,207.647149168118,315.07520425024));
#1250=CARTESIAN_POINT('Origin',(-94.2538130215961,208.707809339935,314.014544078515));
#1251=CARTESIAN_POINT('',(-94.2538068235822,205.879382215229,313.307437297196));
#1252=CARTESIAN_POINT('',(-94.2538068235822,205.879382215229,313.307437297196));
#1253=CARTESIAN_POINT('Origin',(-94.2538130215961,206.940042387046,312.246777125472));
#1254=CARTESIAN_POINT('Origin',(-94.2538006665828,206.940042387046,312.246777125471));
#1255=CARTESIAN_POINT('Origin',(-94.2538006665828,206.940042387046,312.246777125471));
#1256=CARTESIAN_POINT('Origin',(-94.2538006665828,208.707809339935,314.014544078515));
#1257=CARTESIAN_POINT('Origin',(-94.2538006665828,206.940042387046,312.246777125471));
#1258=CARTESIAN_POINT('',(-95.5198599037365,209.27662126319,313.44573215531));
#1259=CARTESIAN_POINT('Origin',(-94.2538006665828,208.707809339935,314.014544078515));
#1260=CARTESIAN_POINT('',(-95.5198599037365,207.508854310301,311.677965202266));
#1261=CARTESIAN_POINT('',(-95.5198599037365,207.508854310301,311.677965202266));
#1262=CARTESIAN_POINT('Origin',(-94.2538006665828,206.940042387046,312.246777125471));
#1263=CARTESIAN_POINT('Origin',(-84.6899412508125,206.295212634034,316.427140784205));
#1264=CARTESIAN_POINT('',(-68.1899412508126,213.719833836818,309.002519582072));
#1265=CARTESIAN_POINT('',(-68.1899412508125,198.87059143125,323.851761986338));
#1266=CARTESIAN_POINT('',(-101.189941250813,213.719833836818,309.002519582071));
#1267=CARTESIAN_POINT('',(-101.189941250813,213.719833836818,309.002519582071));
#1268=CARTESIAN_POINT('',(-101.189941250813,200.991911774903,321.730441642871));
#1269=CARTESIAN_POINT('Origin',(-94.3038854805894,209.897671262111,312.824682156443));
#1270=CARTESIAN_POINT('',(-78.9565772582534,209.549846072506,313.172507346019));
#1271=CARTESIAN_POINT('',(-78.0444590787117,207.647149168118,315.075204250239));
#1272=CARTESIAN_POINT('Origin',(-78.0444529133346,208.707809339935,314.014544078515));
#1273=CARTESIAN_POINT('',(-76.6274136549717,209.055634529541,313.66671888894));
#1274=CARTESIAN_POINT('Origin',(-78.044465268348,208.707809339935,314.014544078515));
#1275=CARTESIAN_POINT('Origin',(-77.5395256448771,209.897671262111,312.824682156443));
#1276=CARTESIAN_POINT('Origin',(-77.5395256448771,208.129904309223,311.0569152034));
#1277=CARTESIAN_POINT('',(-76.6274136549717,207.287867576652,311.898951935896));
#1278=CARTESIAN_POINT('',(-78.9565772582534,207.782079119617,311.404740392975));
#1279=CARTESIAN_POINT('Origin',(-77.5395256448771,208.129904309223,311.0569152034));
#1280=CARTESIAN_POINT('',(-78.9565746631924,207.782073833478,311.404745679113));
#1281=CARTESIAN_POINT('',(-76.6274136549717,207.287867576652,311.898951935896));
#1282=CARTESIAN_POINT('Origin',(-78.044465268348,206.940042387046,312.246777125471));
#1283=CARTESIAN_POINT('',(-78.0444590756617,205.879382215229,313.307437297196));
#1284=CARTESIAN_POINT('',(-78.0444590756617,205.879382215229,313.307437297196));
#1285=CARTESIAN_POINT('Origin',(-78.044465268348,206.940042387046,312.246777125471));
#1286=CARTESIAN_POINT('Origin',(-78.0444529133346,206.940042387047,312.246777125471));
#1287=CARTESIAN_POINT('Origin',(-78.0444529133346,206.940042387046,312.246777125471));
#1288=CARTESIAN_POINT('Origin',(-94.3038854805894,208.129904309222,311.0569152034));
#1289=CARTESIAN_POINT('Origin',(-94.3038854805894,208.129904309222,311.0569152034));
#1290=CARTESIAN_POINT('Origin',(-84.6899412508125,214.320874599613,336.685750065551));
#1291=CARTESIAN_POINT('',(-101.189941250813,213.012727054361,337.993897610689));
#1292=CARTESIAN_POINT('',(-101.189941250813,215.629022144866,335.377602520414));
#1293=CARTESIAN_POINT('',(-68.1899412508126,213.012727054361,337.993897610689));
#1294=CARTESIAN_POINT('',(-101.189941250813,213.012727054361,337.993897610689));
#1295=CARTESIAN_POINT('',(-68.1899412508126,213.012727054361,337.993897610689));
#1296=CARTESIAN_POINT('Origin',(-98.1899412508125,200.440368486536,299.824273561689));
#1297=CARTESIAN_POINT('',(-98.1899412508125,209.901457218399,309.285362294379));
#1298=CARTESIAN_POINT('',(-68.1899412508125,209.901457218399,309.285362294379));
#1299=CARTESIAN_POINT('',(-98.1899412508125,209.901457218398,309.285362294379));
#1300=CARTESIAN_POINT('',(-98.1899412508125,200.440368486537,299.824273561688));
#1301=CARTESIAN_POINT('',(-98.1899412508125,200.440368486537,299.824273561688));
#1302=CARTESIAN_POINT('',(-68.1899412508126,200.440368486537,299.824273561688));
#1303=CARTESIAN_POINT('',(-91.4399412508126,200.440368486536,299.824273561689));
#1304=CARTESIAN_POINT('',(-68.1899412508126,200.440368486536,299.824273561689));
#1305=CARTESIAN_POINT('',(-73.8279412507964,202.490978151369,301.874883226699));
#1306=CARTESIAN_POINT('',(-73.8279412507964,207.582146975689,306.966052051466));
#1307=CARTESIAN_POINT('',(-73.8279412507964,201.50102865801,300.884933733256));
#1308=CARTESIAN_POINT('',(-97.8279412508287,202.490978151369,301.874883226699));
#1309=CARTESIAN_POINT('',(-98.0089412508206,202.490978151368,301.874883226701));
#1310=CARTESIAN_POINT('',(-97.8279412508287,207.582146975689,306.966052051465));
#1311=CARTESIAN_POINT('',(-97.8279412508287,203.975902392054,303.359807467517));
#1312=CARTESIAN_POINT('',(-86.0089412508045,207.582146975689,306.966052051466));
#1313=CARTESIAN_POINT('Origin',(-97.8279412508287,209.562045963104,304.844731707993));
#1314=CARTESIAN_POINT('',(-97.8279412508287,204.541587816899,299.824273561348));
#1315=CARTESIAN_POINT('',(-97.8279412508287,204.541587816899,299.824273561348));
#1316=CARTESIAN_POINT('',(-97.8279412508287,209.632756641219,304.915442386114));
#1317=CARTESIAN_POINT('',(-97.8279412508287,203.551638323542,298.834324067903));
#1318=CARTESIAN_POINT('',(-97.8279412508287,209.632756641219,304.915442386114));
#1319=CARTESIAN_POINT('Origin',(-97.8279412508287,204.541587816899,299.824273561348));
#1320=CARTESIAN_POINT('',(-73.8279412507964,204.541587816899,299.824273561348));
#1321=CARTESIAN_POINT('',(-73.8279412507964,204.541587816899,299.824273561348));
#1322=CARTESIAN_POINT('',(-83.0089412508207,204.541587816899,299.824273561348));
#1323=CARTESIAN_POINT('Origin',(-68.1899412508126,200.369657808415,299.894984239804));
#1324=CARTESIAN_POINT('',(-68.1899412508125,199.153434143892,320.033385367943));
#1325=CARTESIAN_POINT('',(-68.1899412508126,209.830746540277,309.356072972494));
#1326=CARTESIAN_POINT('',(-68.1899412508126,202.490978152068,297.773663896337));
#1327=CARTESIAN_POINT('',(-68.1899412508126,200.369657808415,299.894984239804));
#1328=CARTESIAN_POINT('',(-68.1899412508126,202.490978152068,297.773663896337));
#1329=CARTESIAN_POINT('',(-68.1899412508126,187.6417357465,312.622906300604));
#1330=CARTESIAN_POINT('',(-68.1899412508126,187.6417357465,312.622906300604));
#1331=CARTESIAN_POINT('',(-68.1899412508125,189.692345412031,310.572296635253));
#1332=CARTESIAN_POINT('',(-68.1899412508126,187.6417357465,312.622906300604));
#1333=CARTESIAN_POINT('',(-68.1899412508126,189.69234541203,310.572296635255));
#1334=CARTESIAN_POINT('Origin',(-68.1899412508125,189.692345412029,310.572296635254));
#1335=CARTESIAN_POINT('',(-98.1899412508125,199.153434143892,320.033385367943));
#1336=CARTESIAN_POINT('',(-83.1899412508125,199.153434143892,320.033385367943));
#1337=CARTESIAN_POINT('',(-98.1899412508125,189.692345412031,310.572296635253));
#1338=CARTESIAN_POINT('',(-76.4399412508126,189.692345412029,310.572296635254));
#1339=CARTESIAN_POINT('',(-98.1899412508125,189.692345412031,310.572296635253));
#1340=CARTESIAN_POINT('',(-73.8279412507964,191.742955076862,312.622906300264));
#1341=CARTESIAN_POINT('',(-97.8279412508287,191.742955076862,312.622906300264));
#1342=CARTESIAN_POINT('',(-71.0089412508045,191.742955076861,312.622906300265));
#1343=CARTESIAN_POINT('',(-73.8279412507964,196.834123901182,317.71407512503));
#1344=CARTESIAN_POINT('',(-73.8279412507964,193.263234656605,314.143185880142));
#1345=CARTESIAN_POINT('',(-97.8279412508287,196.834123901182,317.71407512503));
#1346=CARTESIAN_POINT('',(-83.0089412508206,196.834123901182,317.71407512503));
#1347=CARTESIAN_POINT('',(-97.8279412508287,190.717650244445,311.597601467759));
#1348=CARTESIAN_POINT('Origin',(-73.8279412507964,194.783514235651,319.764684790381));
#1349=CARTESIAN_POINT('',(-73.8279412507964,189.692345411331,314.673515965615));
#1350=CARTESIAN_POINT('',(-73.8279412507964,189.692345411331,314.673515965615));
#1351=CARTESIAN_POINT('',(-73.8279412507964,194.783514235651,319.764684790381));
#1352=CARTESIAN_POINT('',(-73.8279412507964,191.212624991075,316.193795545492));
#1353=CARTESIAN_POINT('',(-73.8279412507964,194.783514235651,319.764684790381));
#1354=CARTESIAN_POINT('Origin',(-73.8279412507964,189.692345411331,314.673515965615));
#1355=CARTESIAN_POINT('',(-97.8279412508287,189.692345411331,314.673515965615));
#1356=CARTESIAN_POINT('',(-97.8279412508287,189.692345411331,314.673515965615));
#1357=CARTESIAN_POINT('',(-87.5089412508044,189.692345411331,314.673515965615));
#1358=CARTESIAN_POINT('Origin',(-84.6899412508125,195.066356949284,305.19828509847));
#1359=CARTESIAN_POINT('',(-98.1899412508126,197.71800737885,302.546634669137));
#1360=CARTESIAN_POINT('',(-101.189941250813,187.6417357465,312.622906300604));
#1361=CARTESIAN_POINT('',(-101.189941250813,187.6417357465,312.622906300604));
#1362=CARTESIAN_POINT('',(-101.189941250813,202.490978152068,297.773663896337));
#1363=CARTESIAN_POINT('',(-101.189941250813,189.763056090152,310.501585957137));
#1364=CARTESIAN_POINT('',(-101.189941250813,202.490978152068,297.773663896337));
#1365=CARTESIAN_POINT('Origin',(-98.1899412508125,199.224144822014,319.962674689828));
#1366=CARTESIAN_POINT('',(-98.1899412508125,199.224144822014,319.962674689828));
#1367=CARTESIAN_POINT('Origin',(-98.1899412508125,189.763056090152,310.501585957137));
#1368=CARTESIAN_POINT('',(-98.1899412508125,199.662551026926,308.294479176384));
#1369=CARTESIAN_POINT('Origin',(-98.1899412508125,199.662551026795,309.794479176384));
#1370=CARTESIAN_POINT('Origin',(-97.8279412508287,194.783514235651,319.764684790381));
#1371=CARTESIAN_POINT('',(-97.8279412508287,194.783514235651,319.764684790381));
#1372=CARTESIAN_POINT('',(-99.5089412508206,194.783514235651,319.764684790381));
#1373=CARTESIAN_POINT('',(-97.8279412508287,194.783514235651,319.764684790381));
#1374=CARTESIAN_POINT('Origin',(-97.8279412508287,189.692345411331,314.673515965615));
#1375=CARTESIAN_POINT('',(-97.8279412508287,188.667040578915,313.648211133109));
#1376=CARTESIAN_POINT('Origin',(-101.189941250813,199.662551026795,309.794479176384));
#1377=CARTESIAN_POINT('',(-101.189941250813,199.662551026926,308.294479176384));
#1378=CARTESIAN_POINT('Origin',(-101.189941250813,199.662551026795,309.794479176384));
#1379=CARTESIAN_POINT('',(-101.189941250813,199.662551026926,308.294479176384));
#1380=CARTESIAN_POINT('Origin',(-73.8279412507964,209.632756641219,304.915442386114));
#1381=CARTESIAN_POINT('',(-73.8279412507964,209.632756641219,304.915442386114));
#1382=CARTESIAN_POINT('',(-71.0089412508045,209.632756641219,304.915442386114));
#1383=CARTESIAN_POINT('',(-73.8279412507964,209.632756641219,304.915442386114));
#1384=CARTESIAN_POINT('Origin',(-73.8279412507964,204.612298495015,299.89498423947));
#1385=CARTESIAN_POINT('',(-73.8279412507964,203.551638323542,298.834324067903));
#1386=CARTESIAN_POINT('Origin',(-68.1899412508126,202.490978152068,297.773663896337));
#1387=CARTESIAN_POINT('',(-101.189941250813,202.490978152068,297.773663896337));
#1388=CARTESIAN_POINT('Origin',(-101.189941250813,187.6417357465,312.622906300604));
#1389=CARTESIAN_POINT('',(-101.189941250813,187.6417357465,312.622906300604));
#1390=CARTESIAN_POINT('Origin',(-101.189941250813,202.490978152068,297.773663896337));
#1391=UNCERTAINTY_MEASURE_WITH_UNIT(LENGTH_MEASURE(0.01),#1395,
'DISTANCE_ACCURACY_VALUE',
'Maximum model space distance between geometric entities at asserted c
onnectivities');
#1392=UNCERTAINTY_MEASURE_WITH_UNIT(LENGTH_MEASURE(0.01),#1395,
'DISTANCE_ACCURACY_VALUE',
'Maximum model space distance between geometric entities at asserted c
onnectivities');
#1393=(
GEOMETRIC_REPRESENTATION_CONTEXT(3)
GLOBAL_UNCERTAINTY_ASSIGNED_CONTEXT((#1391))
GLOBAL_UNIT_ASSIGNED_CONTEXT((#1395,#1397,#1398))
REPRESENTATION_CONTEXT('','3D')
);
#1394=(
GEOMETRIC_REPRESENTATION_CONTEXT(3)
GLOBAL_UNCERTAINTY_ASSIGNED_CONTEXT((#1392))
GLOBAL_UNIT_ASSIGNED_CONTEXT((#1395,#1397,#1398))
REPRESENTATION_CONTEXT('','3D')
);
#1395=(
LENGTH_UNIT()
NAMED_UNIT(*)
SI_UNIT(.MILLI.,.METRE.)
);
#1396=(
LENGTH_UNIT()
NAMED_UNIT(*)
SI_UNIT($,.METRE.)
);
#1397=(
NAMED_UNIT(*)
PLANE_ANGLE_UNIT()
SI_UNIT($,.RADIAN.)
);
#1398=(
NAMED_UNIT(*)
SI_UNIT($,.STERADIAN.)
SOLID_ANGLE_UNIT()
);
#1399=SHAPE_DEFINITION_REPRESENTATION(#1400,#1401);
#1400=PRODUCT_DEFINITION_SHAPE('',$,#1403);
#1401=SHAPE_REPRESENTATION('',(#863),#1393);
#1402=PRODUCT_DEFINITION_CONTEXT('part definition',#1407,'design');
#1403=PRODUCT_DEFINITION('tensionerouter2(1x)','tensionerouter2(1x) v1',
#1404,#1402);
#1404=PRODUCT_DEFINITION_FORMATION('',$,#1409);
#1405=PRODUCT_RELATED_PRODUCT_CATEGORY('tensionerouter2(1x) v1',
'tensionerouter2(1x) v1',(#1409));
#1406=APPLICATION_PROTOCOL_DEFINITION('international standard',
'automotive_design',2009,#1407);
#1407=APPLICATION_CONTEXT(
'Core Data for Automotive Mechanical Design Process');
#1408=PRODUCT_CONTEXT('part definition',#1407,'mechanical');
#1409=PRODUCT('tensionerouter2(1x)','tensionerouter2(1x) v1',$,(#1408));
#1410=PRESENTATION_STYLE_ASSIGNMENT((#1411));
#1411=SURFACE_STYLE_USAGE(.BOTH.,#1412);
#1412=SURFACE_SIDE_STYLE('',(#1413));
#1413=SURFACE_STYLE_FILL_AREA(#1414);
#1414=FILL_AREA_STYLE('Steel - Satin',(#1415));
#1415=FILL_AREA_STYLE_COLOUR('Steel - Satin',#1416);
#1416=COLOUR_RGB('Steel - Satin',0.627450980392157,0.627450980392157,0.627450980392157);
ENDSEC;
END-ISO-10303-21;
