ISO-10303-21;
HEADER;
/* Generated by software containing ST-Developer
 * from STEP Tools, Inc. (www.steptools.com) 
 */

FILE_DESCRIPTION(
/* description */ (''),
/* implementation_level */ '2;1');

FILE_NAME(
/* name */ 'tensionerouter1(1x).step',
/* time_stamp */ '2025-12-01T16:06:43+05:30',
/* author */ (''),
/* organization */ (''),
/* preprocessor_version */ 'ST-DEVELOPER v20.1',
/* originating_system */ 'Autodesk Translation Framework v14.21.0.0',
/* authorisation */ '');

FILE_SCHEMA (('AUTOMOTIVE_DESIGN { 1 0 10303 214 3 1 1 }'));
ENDSEC;

DATA;
#10=MECHANICAL_DESIGN_GEOMETRIC_PRESENTATION_REPRESENTATION('',(#13),#1112);
#11=SHAPE_REPRESENTATION_RELATIONSHIP('SRR','None',#1119,#12);
#12=ADVANCED_BREP_SHAPE_REPRESENTATION('',(#14),#1111);
#13=STYLED_ITEM('',(#1128),#14);
#14=MANIFOLD_SOLID_BREP('Body1',#692);
#15=CYLINDRICAL_SURFACE('',#720,1.5);
#16=CYLINDRICAL_SURFACE('',#723,1.5);
#17=CYLINDRICAL_SURFACE('',#727,1.5);
#18=CYLINDRICAL_SURFACE('',#728,1.5);
#19=CYLINDRICAL_SURFACE('',#743,1.49999999999999);
#20=FACE_BOUND('',#82,.T.);
#21=FACE_BOUND('',#83,.T.);
#22=FACE_BOUND('',#85,.T.);
#23=FACE_BOUND('',#86,.T.);
#24=FACE_BOUND('',#87,.T.);
#25=FACE_BOUND('',#95,.T.);
#26=FACE_BOUND('',#96,.T.);
#27=FACE_BOUND('',#101,.T.);
#28=FACE_BOUND('',#106,.T.);
#29=FACE_BOUND('',#111,.T.);
#30=FACE_BOUND('',#112,.T.);
#31=FACE_BOUND('',#114,.T.);
#32=FACE_BOUND('',#121,.T.);
#33=FACE_BOUND('',#123,.T.);
#34=CIRCLE('',#711,1.5);
#35=CIRCLE('',#712,1.5);
#36=CIRCLE('',#714,1.5);
#37=CIRCLE('',#715,1.5);
#38=CIRCLE('',#721,1.5);
#39=CIRCLE('',#722,1.5);
#40=CIRCLE('',#724,1.5);
#41=CIRCLE('',#725,1.5);
#42=CIRCLE('',#740,1.49999999999999);
#43=CIRCLE('',#744,1.49999999999999);
#44=FACE_OUTER_BOUND('',#77,.T.);
#45=FACE_OUTER_BOUND('',#78,.T.);
#46=FACE_OUTER_BOUND('',#79,.T.);
#47=FACE_OUTER_BOUND('',#80,.T.);
#48=FACE_OUTER_BOUND('',#81,.T.);
#49=FACE_OUTER_BOUND('',#84,.T.);
#50=FACE_OUTER_BOUND('',#88,.T.);
#51=FACE_OUTER_BOUND('',#89,.T.);
#52=FACE_OUTER_BOUND('',#90,.T.);
#53=FACE_OUTER_BOUND('',#91,.T.);
#54=FACE_OUTER_BOUND('',#92,.T.);
#55=FACE_OUTER_BOUND('',#93,.T.);
#56=FACE_OUTER_BOUND('',#94,.T.);
#57=FACE_OUTER_BOUND('',#97,.T.);
#58=FACE_OUTER_BOUND('',#98,.T.);
#59=FACE_OUTER_BOUND('',#99,.T.);
#60=FACE_OUTER_BOUND('',#100,.T.);
#61=FACE_OUTER_BOUND('',#102,.T.);
#62=FACE_OUTER_BOUND('',#103,.T.);
#63=FACE_OUTER_BOUND('',#104,.T.);
#64=FACE_OUTER_BOUND('',#105,.T.);
#65=FACE_OUTER_BOUND('',#107,.T.);
#66=FACE_OUTER_BOUND('',#108,.T.);
#67=FACE_OUTER_BOUND('',#109,.T.);
#68=FACE_OUTER_BOUND('',#110,.T.);
#69=FACE_OUTER_BOUND('',#113,.T.);
#70=FACE_OUTER_BOUND('',#115,.T.);
#71=FACE_OUTER_BOUND('',#116,.T.);
#72=FACE_OUTER_BOUND('',#117,.T.);
#73=FACE_OUTER_BOUND('',#118,.T.);
#74=FACE_OUTER_BOUND('',#119,.T.);
#75=FACE_OUTER_BOUND('',#120,.T.);
#76=FACE_OUTER_BOUND('',#122,.T.);
#77=EDGE_LOOP('',(#445,#446,#447,#448));
#78=EDGE_LOOP('',(#449,#450,#451,#452));
#79=EDGE_LOOP('',(#453,#454,#455,#456));
#80=EDGE_LOOP('',(#457,#458,#459,#460));
#81=EDGE_LOOP('',(#461,#462,#463,#464));
#82=EDGE_LOOP('',(#465,#466,#467));
#83=EDGE_LOOP('',(#468,#469,#470));
#84=EDGE_LOOP('',(#471,#472,#473,#474));
#85=EDGE_LOOP('',(#475,#476,#477));
#86=EDGE_LOOP('',(#478,#479,#480));
#87=EDGE_LOOP('',(#481,#482,#483,#484));
#88=EDGE_LOOP('',(#485,#486,#487,#488));
#89=EDGE_LOOP('',(#489,#490,#491,#492));
#90=EDGE_LOOP('',(#493,#494,#495,#496));
#91=EDGE_LOOP('',(#497,#498,#499,#500));
#92=EDGE_LOOP('',(#501,#502,#503,#504));
#93=EDGE_LOOP('',(#505,#506,#507,#508));
#94=EDGE_LOOP('',(#509,#510,#511,#512));
#95=EDGE_LOOP('',(#513,#514,#515));
#96=EDGE_LOOP('',(#516,#517,#518));
#97=EDGE_LOOP('',(#519,#520,#521,#522));
#98=EDGE_LOOP('',(#523,#524,#525,#526));
#99=EDGE_LOOP('',(#527,#528,#529,#530));
#100=EDGE_LOOP('',(#531,#532,#533,#534));
#101=EDGE_LOOP('',(#535,#536,#537,#538));
#102=EDGE_LOOP('',(#539,#540,#541,#542));
#103=EDGE_LOOP('',(#543,#544,#545,#546));
#104=EDGE_LOOP('',(#547,#548,#549,#550,#551,#552,#553,#554,#555,#556));
#105=EDGE_LOOP('',(#557,#558,#559,#560));
#106=EDGE_LOOP('',(#561,#562,#563,#564));
#107=EDGE_LOOP('',(#565,#566,#567,#568));
#108=EDGE_LOOP('',(#569,#570,#571,#572));
#109=EDGE_LOOP('',(#573,#574,#575,#576,#577,#578,#579,#580));
#110=EDGE_LOOP('',(#581,#582,#583,#584));
#111=EDGE_LOOP('',(#585,#586,#587));
#112=EDGE_LOOP('',(#588,#589,#590));
#113=EDGE_LOOP('',(#591,#592,#593,#594));
#114=EDGE_LOOP('',(#595));
#115=EDGE_LOOP('',(#596,#597,#598,#599));
#116=EDGE_LOOP('',(#600,#601,#602,#603));
#117=EDGE_LOOP('',(#604,#605,#606,#607));
#118=EDGE_LOOP('',(#608,#609,#610,#611));
#119=EDGE_LOOP('',(#612,#613,#614,#615));
#120=EDGE_LOOP('',(#616,#617,#618,#619));
#121=EDGE_LOOP('',(#620,#621,#622,#623));
#122=EDGE_LOOP('',(#624,#625,#626,#627,#628,#629));
#123=EDGE_LOOP('',(#630));
#124=LINE('',#924,#207);
#125=LINE('',#926,#208);
#126=LINE('',#928,#209);
#127=LINE('',#929,#210);
#128=LINE('',#932,#211);
#129=LINE('',#934,#212);
#130=LINE('',#935,#213);
#131=LINE('',#939,#214);
#132=LINE('',#941,#215);
#133=LINE('',#943,#216);
#134=LINE('',#944,#217);
#135=LINE('',#947,#218);
#136=LINE('',#949,#219);
#137=LINE('',#950,#220);
#138=LINE('',#954,#221);
#139=LINE('',#956,#222);
#140=LINE('',#958,#223);
#141=LINE('',#959,#224);
#142=LINE('',#965,#225);
#143=LINE('',#967,#226);
#144=LINE('',#969,#227);
#145=LINE('',#970,#228);
#146=LINE('',#975,#229);
#147=LINE('',#977,#230);
#148=LINE('',#979,#231);
#149=LINE('',#980,#232);
#150=LINE('',#984,#233);
#151=LINE('',#986,#234);
#152=LINE('',#988,#235);
#153=LINE('',#989,#236);
#154=LINE('',#992,#237);
#155=LINE('',#994,#238);
#156=LINE('',#995,#239);
#157=LINE('',#999,#240);
#158=LINE('',#1001,#241);
#159=LINE('',#1003,#242);
#160=LINE('',#1004,#243);
#161=LINE('',#1007,#244);
#162=LINE('',#1009,#245);
#163=LINE('',#1010,#246);
#164=LINE('',#1019,#247);
#165=LINE('',#1021,#248);
#166=LINE('',#1022,#249);
#167=LINE('',#1026,#250);
#168=LINE('',#1027,#251);
#169=LINE('',#1031,#252);
#170=LINE('',#1033,#253);
#171=LINE('',#1035,#254);
#172=LINE('',#1036,#255);
#173=LINE('',#1039,#256);
#174=LINE('',#1041,#257);
#175=LINE('',#1043,#258);
#176=LINE('',#1044,#259);
#177=LINE('',#1047,#260);
#178=LINE('',#1049,#261);
#179=LINE('',#1050,#262);
#180=LINE('',#1053,#263);
#181=LINE('',#1054,#264);
#182=LINE('',#1057,#265);
#183=LINE('',#1059,#266);
#184=LINE('',#1060,#267);
#185=LINE('',#1062,#268);
#186=LINE('',#1063,#269);
#187=LINE('',#1066,#270);
#188=LINE('',#1068,#271);
#189=LINE('',#1069,#272);
#190=LINE('',#1072,#273);
#191=LINE('',#1074,#274);
#192=LINE('',#1076,#275);
#193=LINE('',#1077,#276);
#194=LINE('',#1079,#277);
#195=LINE('',#1080,#278);
#196=LINE('',#1082,#279);
#197=LINE('',#1084,#280);
#198=LINE('',#1086,#281);
#199=LINE('',#1087,#282);
#200=LINE('',#1089,#283);
#201=LINE('',#1094,#284);
#202=LINE('',#1099,#285);
#203=LINE('',#1102,#286);
#204=LINE('',#1103,#287);
#205=LINE('',#1105,#288);
#206=LINE('',#1107,#289);
#207=VECTOR('',#753,10.);
#208=VECTOR('',#754,10.);
#209=VECTOR('',#755,10.);
#210=VECTOR('',#756,10.);
#211=VECTOR('',#759,10.);
#212=VECTOR('',#760,10.);
#213=VECTOR('',#761,10.);
#214=VECTOR('',#764,10.);
#215=VECTOR('',#765,10.);
#216=VECTOR('',#766,10.);
#217=VECTOR('',#767,10.);
#218=VECTOR('',#770,10.);
#219=VECTOR('',#771,10.);
#220=VECTOR('',#772,10.);
#221=VECTOR('',#775,10.);
#222=VECTOR('',#776,10.);
#223=VECTOR('',#777,10.);
#224=VECTOR('',#778,10.);
#225=VECTOR('',#785,10.);
#226=VECTOR('',#786,10.);
#227=VECTOR('',#787,10.);
#228=VECTOR('',#788,10.);
#229=VECTOR('',#793,10.);
#230=VECTOR('',#794,10.);
#231=VECTOR('',#795,10.);
#232=VECTOR('',#796,10.);
#233=VECTOR('',#799,10.);
#234=VECTOR('',#800,10.);
#235=VECTOR('',#801,10.);
#236=VECTOR('',#802,10.);
#237=VECTOR('',#805,10.);
#238=VECTOR('',#806,10.);
#239=VECTOR('',#807,10.);
#240=VECTOR('',#810,10.);
#241=VECTOR('',#811,10.);
#242=VECTOR('',#812,10.);
#243=VECTOR('',#813,10.);
#244=VECTOR('',#816,10.);
#245=VECTOR('',#817,10.);
#246=VECTOR('',#818,10.);
#247=VECTOR('',#833,10.);
#248=VECTOR('',#834,10.);
#249=VECTOR('',#835,10.);
#250=VECTOR('',#842,10.);
#251=VECTOR('',#843,10.);
#252=VECTOR('',#846,10.);
#253=VECTOR('',#847,10.);
#254=VECTOR('',#848,10.);
#255=VECTOR('',#849,10.);
#256=VECTOR('',#850,10.);
#257=VECTOR('',#851,10.);
#258=VECTOR('',#852,10.);
#259=VECTOR('',#853,10.);
#260=VECTOR('',#856,10.);
#261=VECTOR('',#857,10.);
#262=VECTOR('',#858,10.);
#263=VECTOR('',#861,10.);
#264=VECTOR('',#862,10.);
#265=VECTOR('',#865,10.);
#266=VECTOR('',#866,10.);
#267=VECTOR('',#867,10.);
#268=VECTOR('',#868,10.);
#269=VECTOR('',#869,10.);
#270=VECTOR('',#872,10.);
#271=VECTOR('',#873,10.);
#272=VECTOR('',#874,10.);
#273=VECTOR('',#875,10.);
#274=VECTOR('',#876,10.);
#275=VECTOR('',#877,10.);
#276=VECTOR('',#878,10.);
#277=VECTOR('',#881,10.);
#278=VECTOR('',#882,10.);
#279=VECTOR('',#885,10.);
#280=VECTOR('',#888,10.);
#281=VECTOR('',#889,10.);
#282=VECTOR('',#890,10.);
#283=VECTOR('',#893,10.);
#284=VECTOR('',#900,10.);
#285=VECTOR('',#907,1.49999999999999);
#286=VECTOR('',#910,10.);
#287=VECTOR('',#911,10.);
#288=VECTOR('',#914,10.);
#289=VECTOR('',#917,10.);
#290=VERTEX_POINT('',#922);
#291=VERTEX_POINT('',#923);
#292=VERTEX_POINT('',#925);
#293=VERTEX_POINT('',#927);
#294=VERTEX_POINT('',#931);
#295=VERTEX_POINT('',#933);
#296=VERTEX_POINT('',#937);
#297=VERTEX_POINT('',#938);
#298=VERTEX_POINT('',#940);
#299=VERTEX_POINT('',#942);
#300=VERTEX_POINT('',#946);
#301=VERTEX_POINT('',#948);
#302=VERTEX_POINT('',#952);
#303=VERTEX_POINT('',#953);
#304=VERTEX_POINT('',#955);
#305=VERTEX_POINT('',#957);
#306=VERTEX_POINT('',#963);
#307=VERTEX_POINT('',#964);
#308=VERTEX_POINT('',#966);
#309=VERTEX_POINT('',#968);
#310=VERTEX_POINT('',#973);
#311=VERTEX_POINT('',#974);
#312=VERTEX_POINT('',#976);
#313=VERTEX_POINT('',#978);
#314=VERTEX_POINT('',#982);
#315=VERTEX_POINT('',#983);
#316=VERTEX_POINT('',#985);
#317=VERTEX_POINT('',#987);
#318=VERTEX_POINT('',#991);
#319=VERTEX_POINT('',#993);
#320=VERTEX_POINT('',#997);
#321=VERTEX_POINT('',#998);
#322=VERTEX_POINT('',#1000);
#323=VERTEX_POINT('',#1002);
#324=VERTEX_POINT('',#1006);
#325=VERTEX_POINT('',#1008);
#326=VERTEX_POINT('',#1018);
#327=VERTEX_POINT('',#1020);
#328=VERTEX_POINT('',#1029);
#329=VERTEX_POINT('',#1030);
#330=VERTEX_POINT('',#1032);
#331=VERTEX_POINT('',#1034);
#332=VERTEX_POINT('',#1037);
#333=VERTEX_POINT('',#1038);
#334=VERTEX_POINT('',#1040);
#335=VERTEX_POINT('',#1042);
#336=VERTEX_POINT('',#1046);
#337=VERTEX_POINT('',#1048);
#338=VERTEX_POINT('',#1052);
#339=VERTEX_POINT('',#1056);
#340=VERTEX_POINT('',#1058);
#341=VERTEX_POINT('',#1061);
#342=VERTEX_POINT('',#1065);
#343=VERTEX_POINT('',#1067);
#344=VERTEX_POINT('',#1070);
#345=VERTEX_POINT('',#1071);
#346=VERTEX_POINT('',#1073);
#347=VERTEX_POINT('',#1075);
#348=VERTEX_POINT('',#1085);
#349=VERTEX_POINT('',#1091);
#350=VERTEX_POINT('',#1097);
#351=VERTEX_POINT('',#1101);
#352=EDGE_CURVE('',#290,#291,#124,.T.);
#353=EDGE_CURVE('',#290,#292,#125,.T.);
#354=EDGE_CURVE('',#293,#292,#126,.T.);
#355=EDGE_CURVE('',#291,#293,#127,.T.);
#356=EDGE_CURVE('',#294,#290,#128,.T.);
#357=EDGE_CURVE('',#294,#295,#129,.T.);
#358=EDGE_CURVE('',#292,#295,#130,.T.);
#359=EDGE_CURVE('',#296,#297,#131,.T.);
#360=EDGE_CURVE('',#296,#298,#132,.T.);
#361=EDGE_CURVE('',#299,#298,#133,.T.);
#362=EDGE_CURVE('',#297,#299,#134,.T.);
#363=EDGE_CURVE('',#300,#296,#135,.T.);
#364=EDGE_CURVE('',#300,#301,#136,.T.);
#365=EDGE_CURVE('',#298,#301,#137,.T.);
#366=EDGE_CURVE('',#302,#303,#138,.T.);
#367=EDGE_CURVE('',#302,#304,#139,.T.);
#368=EDGE_CURVE('',#305,#304,#140,.T.);
#369=EDGE_CURVE('',#303,#305,#141,.T.);
#370=EDGE_CURVE('',#291,#294,#34,.T.);
#371=EDGE_CURVE('',#297,#300,#35,.T.);
#372=EDGE_CURVE('',#306,#307,#142,.T.);
#373=EDGE_CURVE('',#307,#308,#143,.T.);
#374=EDGE_CURVE('',#309,#308,#144,.T.);
#375=EDGE_CURVE('',#306,#309,#145,.T.);
#376=EDGE_CURVE('',#295,#293,#36,.T.);
#377=EDGE_CURVE('',#301,#299,#37,.T.);
#378=EDGE_CURVE('',#310,#311,#146,.T.);
#379=EDGE_CURVE('',#311,#312,#147,.T.);
#380=EDGE_CURVE('',#312,#313,#148,.T.);
#381=EDGE_CURVE('',#313,#310,#149,.T.);
#382=EDGE_CURVE('',#314,#315,#150,.T.);
#383=EDGE_CURVE('',#314,#316,#151,.T.);
#384=EDGE_CURVE('',#317,#316,#152,.T.);
#385=EDGE_CURVE('',#315,#317,#153,.T.);
#386=EDGE_CURVE('',#318,#314,#154,.T.);
#387=EDGE_CURVE('',#318,#319,#155,.T.);
#388=EDGE_CURVE('',#316,#319,#156,.T.);
#389=EDGE_CURVE('',#320,#321,#157,.T.);
#390=EDGE_CURVE('',#320,#322,#158,.T.);
#391=EDGE_CURVE('',#323,#322,#159,.T.);
#392=EDGE_CURVE('',#321,#323,#160,.T.);
#393=EDGE_CURVE('',#324,#320,#161,.T.);
#394=EDGE_CURVE('',#324,#325,#162,.T.);
#395=EDGE_CURVE('',#322,#325,#163,.T.);
#396=EDGE_CURVE('',#315,#318,#38,.T.);
#397=EDGE_CURVE('',#319,#317,#39,.T.);
#398=EDGE_CURVE('',#321,#324,#40,.T.);
#399=EDGE_CURVE('',#325,#323,#41,.T.);
#400=EDGE_CURVE('',#303,#326,#164,.T.);
#401=EDGE_CURVE('',#326,#327,#165,.T.);
#402=EDGE_CURVE('',#327,#302,#166,.T.);
#403=EDGE_CURVE('',#304,#309,#167,.T.);
#404=EDGE_CURVE('',#308,#305,#168,.T.);
#405=EDGE_CURVE('',#328,#329,#169,.T.);
#406=EDGE_CURVE('',#330,#328,#170,.T.);
#407=EDGE_CURVE('',#331,#330,#171,.T.);
#408=EDGE_CURVE('',#329,#331,#172,.T.);
#409=EDGE_CURVE('',#332,#333,#173,.T.);
#410=EDGE_CURVE('',#334,#332,#174,.T.);
#411=EDGE_CURVE('',#335,#334,#175,.T.);
#412=EDGE_CURVE('',#333,#335,#176,.T.);
#413=EDGE_CURVE('',#334,#336,#177,.T.);
#414=EDGE_CURVE('',#337,#336,#178,.T.);
#415=EDGE_CURVE('',#337,#335,#179,.T.);
#416=EDGE_CURVE('',#338,#332,#180,.T.);
#417=EDGE_CURVE('',#336,#338,#181,.T.);
#418=EDGE_CURVE('',#339,#329,#182,.T.);
#419=EDGE_CURVE('',#331,#340,#183,.T.);
#420=EDGE_CURVE('',#340,#326,#184,.T.);
#421=EDGE_CURVE('',#307,#341,#185,.T.);
#422=EDGE_CURVE('',#341,#339,#186,.T.);
#423=EDGE_CURVE('',#339,#342,#187,.T.);
#424=EDGE_CURVE('',#343,#341,#188,.T.);
#425=EDGE_CURVE('',#342,#343,#189,.T.);
#426=EDGE_CURVE('',#344,#345,#190,.T.);
#427=EDGE_CURVE('',#346,#344,#191,.T.);
#428=EDGE_CURVE('',#347,#346,#192,.T.);
#429=EDGE_CURVE('',#345,#347,#193,.T.);
#430=EDGE_CURVE('',#310,#344,#194,.T.);
#431=EDGE_CURVE('',#313,#346,#195,.T.);
#432=EDGE_CURVE('',#311,#345,#196,.T.);
#433=EDGE_CURVE('',#330,#343,#197,.T.);
#434=EDGE_CURVE('',#348,#306,#198,.T.);
#435=EDGE_CURVE('',#348,#340,#199,.T.);
#436=EDGE_CURVE('',#328,#342,#200,.T.);
#437=EDGE_CURVE('',#349,#349,#42,.T.);
#438=EDGE_CURVE('',#312,#347,#201,.T.);
#439=EDGE_CURVE('',#350,#350,#43,.T.);
#440=EDGE_CURVE('',#350,#349,#202,.T.);
#441=EDGE_CURVE('',#351,#337,#203,.T.);
#442=EDGE_CURVE('',#333,#351,#204,.T.);
#443=EDGE_CURVE('',#338,#351,#205,.T.);
#444=EDGE_CURVE('',#348,#327,#206,.T.);
#445=ORIENTED_EDGE('',*,*,#352,.F.);
#446=ORIENTED_EDGE('',*,*,#353,.T.);
#447=ORIENTED_EDGE('',*,*,#354,.F.);
#448=ORIENTED_EDGE('',*,*,#355,.F.);
#449=ORIENTED_EDGE('',*,*,#356,.F.);
#450=ORIENTED_EDGE('',*,*,#357,.T.);
#451=ORIENTED_EDGE('',*,*,#358,.F.);
#452=ORIENTED_EDGE('',*,*,#353,.F.);
#453=ORIENTED_EDGE('',*,*,#359,.F.);
#454=ORIENTED_EDGE('',*,*,#360,.T.);
#455=ORIENTED_EDGE('',*,*,#361,.F.);
#456=ORIENTED_EDGE('',*,*,#362,.F.);
#457=ORIENTED_EDGE('',*,*,#363,.F.);
#458=ORIENTED_EDGE('',*,*,#364,.T.);
#459=ORIENTED_EDGE('',*,*,#365,.F.);
#460=ORIENTED_EDGE('',*,*,#360,.F.);
#461=ORIENTED_EDGE('',*,*,#366,.F.);
#462=ORIENTED_EDGE('',*,*,#367,.T.);
#463=ORIENTED_EDGE('',*,*,#368,.F.);
#464=ORIENTED_EDGE('',*,*,#369,.F.);
#465=ORIENTED_EDGE('',*,*,#356,.T.);
#466=ORIENTED_EDGE('',*,*,#352,.T.);
#467=ORIENTED_EDGE('',*,*,#370,.T.);
#468=ORIENTED_EDGE('',*,*,#363,.T.);
#469=ORIENTED_EDGE('',*,*,#359,.T.);
#470=ORIENTED_EDGE('',*,*,#371,.T.);
#471=ORIENTED_EDGE('',*,*,#372,.T.);
#472=ORIENTED_EDGE('',*,*,#373,.T.);
#473=ORIENTED_EDGE('',*,*,#374,.F.);
#474=ORIENTED_EDGE('',*,*,#375,.F.);
#475=ORIENTED_EDGE('',*,*,#354,.T.);
#476=ORIENTED_EDGE('',*,*,#358,.T.);
#477=ORIENTED_EDGE('',*,*,#376,.T.);
#478=ORIENTED_EDGE('',*,*,#361,.T.);
#479=ORIENTED_EDGE('',*,*,#365,.T.);
#480=ORIENTED_EDGE('',*,*,#377,.T.);
#481=ORIENTED_EDGE('',*,*,#378,.T.);
#482=ORIENTED_EDGE('',*,*,#379,.T.);
#483=ORIENTED_EDGE('',*,*,#380,.T.);
#484=ORIENTED_EDGE('',*,*,#381,.T.);
#485=ORIENTED_EDGE('',*,*,#382,.F.);
#486=ORIENTED_EDGE('',*,*,#383,.T.);
#487=ORIENTED_EDGE('',*,*,#384,.F.);
#488=ORIENTED_EDGE('',*,*,#385,.F.);
#489=ORIENTED_EDGE('',*,*,#386,.F.);
#490=ORIENTED_EDGE('',*,*,#387,.T.);
#491=ORIENTED_EDGE('',*,*,#388,.F.);
#492=ORIENTED_EDGE('',*,*,#383,.F.);
#493=ORIENTED_EDGE('',*,*,#389,.F.);
#494=ORIENTED_EDGE('',*,*,#390,.T.);
#495=ORIENTED_EDGE('',*,*,#391,.F.);
#496=ORIENTED_EDGE('',*,*,#392,.F.);
#497=ORIENTED_EDGE('',*,*,#393,.F.);
#498=ORIENTED_EDGE('',*,*,#394,.T.);
#499=ORIENTED_EDGE('',*,*,#395,.F.);
#500=ORIENTED_EDGE('',*,*,#390,.F.);
#501=ORIENTED_EDGE('',*,*,#387,.F.);
#502=ORIENTED_EDGE('',*,*,#396,.F.);
#503=ORIENTED_EDGE('',*,*,#385,.T.);
#504=ORIENTED_EDGE('',*,*,#397,.F.);
#505=ORIENTED_EDGE('',*,*,#394,.F.);
#506=ORIENTED_EDGE('',*,*,#398,.F.);
#507=ORIENTED_EDGE('',*,*,#392,.T.);
#508=ORIENTED_EDGE('',*,*,#399,.F.);
#509=ORIENTED_EDGE('',*,*,#366,.T.);
#510=ORIENTED_EDGE('',*,*,#400,.T.);
#511=ORIENTED_EDGE('',*,*,#401,.T.);
#512=ORIENTED_EDGE('',*,*,#402,.T.);
#513=ORIENTED_EDGE('',*,*,#393,.T.);
#514=ORIENTED_EDGE('',*,*,#389,.T.);
#515=ORIENTED_EDGE('',*,*,#398,.T.);
#516=ORIENTED_EDGE('',*,*,#386,.T.);
#517=ORIENTED_EDGE('',*,*,#382,.T.);
#518=ORIENTED_EDGE('',*,*,#396,.T.);
#519=ORIENTED_EDGE('',*,*,#357,.F.);
#520=ORIENTED_EDGE('',*,*,#370,.F.);
#521=ORIENTED_EDGE('',*,*,#355,.T.);
#522=ORIENTED_EDGE('',*,*,#376,.F.);
#523=ORIENTED_EDGE('',*,*,#364,.F.);
#524=ORIENTED_EDGE('',*,*,#371,.F.);
#525=ORIENTED_EDGE('',*,*,#362,.T.);
#526=ORIENTED_EDGE('',*,*,#377,.F.);
#527=ORIENTED_EDGE('',*,*,#403,.T.);
#528=ORIENTED_EDGE('',*,*,#374,.T.);
#529=ORIENTED_EDGE('',*,*,#404,.T.);
#530=ORIENTED_EDGE('',*,*,#368,.T.);
#531=ORIENTED_EDGE('',*,*,#405,.F.);
#532=ORIENTED_EDGE('',*,*,#406,.F.);
#533=ORIENTED_EDGE('',*,*,#407,.F.);
#534=ORIENTED_EDGE('',*,*,#408,.F.);
#535=ORIENTED_EDGE('',*,*,#409,.F.);
#536=ORIENTED_EDGE('',*,*,#410,.F.);
#537=ORIENTED_EDGE('',*,*,#411,.F.);
#538=ORIENTED_EDGE('',*,*,#412,.F.);
#539=ORIENTED_EDGE('',*,*,#411,.T.);
#540=ORIENTED_EDGE('',*,*,#413,.T.);
#541=ORIENTED_EDGE('',*,*,#414,.F.);
#542=ORIENTED_EDGE('',*,*,#415,.T.);
#543=ORIENTED_EDGE('',*,*,#410,.T.);
#544=ORIENTED_EDGE('',*,*,#416,.F.);
#545=ORIENTED_EDGE('',*,*,#417,.F.);
#546=ORIENTED_EDGE('',*,*,#413,.F.);
#547=ORIENTED_EDGE('',*,*,#418,.T.);
#548=ORIENTED_EDGE('',*,*,#408,.T.);
#549=ORIENTED_EDGE('',*,*,#419,.T.);
#550=ORIENTED_EDGE('',*,*,#420,.T.);
#551=ORIENTED_EDGE('',*,*,#400,.F.);
#552=ORIENTED_EDGE('',*,*,#369,.T.);
#553=ORIENTED_EDGE('',*,*,#404,.F.);
#554=ORIENTED_EDGE('',*,*,#373,.F.);
#555=ORIENTED_EDGE('',*,*,#421,.T.);
#556=ORIENTED_EDGE('',*,*,#422,.T.);
#557=ORIENTED_EDGE('',*,*,#423,.F.);
#558=ORIENTED_EDGE('',*,*,#422,.F.);
#559=ORIENTED_EDGE('',*,*,#424,.F.);
#560=ORIENTED_EDGE('',*,*,#425,.F.);
#561=ORIENTED_EDGE('',*,*,#426,.F.);
#562=ORIENTED_EDGE('',*,*,#427,.F.);
#563=ORIENTED_EDGE('',*,*,#428,.F.);
#564=ORIENTED_EDGE('',*,*,#429,.F.);
#565=ORIENTED_EDGE('',*,*,#427,.T.);
#566=ORIENTED_EDGE('',*,*,#430,.F.);
#567=ORIENTED_EDGE('',*,*,#381,.F.);
#568=ORIENTED_EDGE('',*,*,#431,.T.);
#569=ORIENTED_EDGE('',*,*,#426,.T.);
#570=ORIENTED_EDGE('',*,*,#432,.F.);
#571=ORIENTED_EDGE('',*,*,#378,.F.);
#572=ORIENTED_EDGE('',*,*,#430,.T.);
#573=ORIENTED_EDGE('',*,*,#433,.T.);
#574=ORIENTED_EDGE('',*,*,#424,.T.);
#575=ORIENTED_EDGE('',*,*,#421,.F.);
#576=ORIENTED_EDGE('',*,*,#372,.F.);
#577=ORIENTED_EDGE('',*,*,#434,.F.);
#578=ORIENTED_EDGE('',*,*,#435,.T.);
#579=ORIENTED_EDGE('',*,*,#419,.F.);
#580=ORIENTED_EDGE('',*,*,#407,.T.);
#581=ORIENTED_EDGE('',*,*,#436,.F.);
#582=ORIENTED_EDGE('',*,*,#405,.T.);
#583=ORIENTED_EDGE('',*,*,#418,.F.);
#584=ORIENTED_EDGE('',*,*,#423,.T.);
#585=ORIENTED_EDGE('',*,*,#388,.T.);
#586=ORIENTED_EDGE('',*,*,#397,.T.);
#587=ORIENTED_EDGE('',*,*,#384,.T.);
#588=ORIENTED_EDGE('',*,*,#395,.T.);
#589=ORIENTED_EDGE('',*,*,#399,.T.);
#590=ORIENTED_EDGE('',*,*,#391,.T.);
#591=ORIENTED_EDGE('',*,*,#436,.T.);
#592=ORIENTED_EDGE('',*,*,#425,.T.);
#593=ORIENTED_EDGE('',*,*,#433,.F.);
#594=ORIENTED_EDGE('',*,*,#406,.T.);
#595=ORIENTED_EDGE('',*,*,#437,.T.);
#596=ORIENTED_EDGE('',*,*,#428,.T.);
#597=ORIENTED_EDGE('',*,*,#431,.F.);
#598=ORIENTED_EDGE('',*,*,#380,.F.);
#599=ORIENTED_EDGE('',*,*,#438,.T.);
#600=ORIENTED_EDGE('',*,*,#429,.T.);
#601=ORIENTED_EDGE('',*,*,#438,.F.);
#602=ORIENTED_EDGE('',*,*,#379,.F.);
#603=ORIENTED_EDGE('',*,*,#432,.T.);
#604=ORIENTED_EDGE('',*,*,#439,.F.);
#605=ORIENTED_EDGE('',*,*,#440,.T.);
#606=ORIENTED_EDGE('',*,*,#437,.F.);
#607=ORIENTED_EDGE('',*,*,#440,.F.);
#608=ORIENTED_EDGE('',*,*,#412,.T.);
#609=ORIENTED_EDGE('',*,*,#415,.F.);
#610=ORIENTED_EDGE('',*,*,#441,.F.);
#611=ORIENTED_EDGE('',*,*,#442,.F.);
#612=ORIENTED_EDGE('',*,*,#409,.T.);
#613=ORIENTED_EDGE('',*,*,#442,.T.);
#614=ORIENTED_EDGE('',*,*,#443,.F.);
#615=ORIENTED_EDGE('',*,*,#416,.T.);
#616=ORIENTED_EDGE('',*,*,#435,.F.);
#617=ORIENTED_EDGE('',*,*,#444,.T.);
#618=ORIENTED_EDGE('',*,*,#401,.F.);
#619=ORIENTED_EDGE('',*,*,#420,.F.);
#620=ORIENTED_EDGE('',*,*,#443,.T.);
#621=ORIENTED_EDGE('',*,*,#441,.T.);
#622=ORIENTED_EDGE('',*,*,#414,.T.);
#623=ORIENTED_EDGE('',*,*,#417,.T.);
#624=ORIENTED_EDGE('',*,*,#434,.T.);
#625=ORIENTED_EDGE('',*,*,#375,.T.);
#626=ORIENTED_EDGE('',*,*,#403,.F.);
#627=ORIENTED_EDGE('',*,*,#367,.F.);
#628=ORIENTED_EDGE('',*,*,#402,.F.);
#629=ORIENTED_EDGE('',*,*,#444,.F.);
#630=ORIENTED_EDGE('',*,*,#439,.T.);
#631=PLANE('',#706);
#632=PLANE('',#707);
#633=PLANE('',#708);
#634=PLANE('',#709);
#635=PLANE('',#710);
#636=PLANE('',#713);
#637=PLANE('',#716);
#638=PLANE('',#717);
#639=PLANE('',#718);
#640=PLANE('',#719);
#641=PLANE('',#726);
#642=PLANE('',#729);
#643=PLANE('',#730);
#644=PLANE('',#731);
#645=PLANE('',#732);
#646=PLANE('',#733);
#647=PLANE('',#734);
#648=PLANE('',#735);
#649=PLANE('',#736);
#650=PLANE('',#737);
#651=PLANE('',#738);
#652=PLANE('',#739);
#653=PLANE('',#741);
#654=PLANE('',#742);
#655=PLANE('',#745);
#656=PLANE('',#746);
#657=PLANE('',#747);
#658=PLANE('',#748);
#659=ADVANCED_FACE('',(#44),#631,.F.);
#660=ADVANCED_FACE('',(#45),#632,.F.);
#661=ADVANCED_FACE('',(#46),#633,.F.);
#662=ADVANCED_FACE('',(#47),#634,.F.);
#663=ADVANCED_FACE('',(#48,#20,#21),#635,.T.);
#664=ADVANCED_FACE('',(#49,#22,#23,#24),#636,.T.);
#665=ADVANCED_FACE('',(#50),#637,.F.);
#666=ADVANCED_FACE('',(#51),#638,.F.);
#667=ADVANCED_FACE('',(#52),#639,.F.);
#668=ADVANCED_FACE('',(#53),#640,.F.);
#669=ADVANCED_FACE('',(#54),#15,.F.);
#670=ADVANCED_FACE('',(#55),#16,.F.);
#671=ADVANCED_FACE('',(#56,#25,#26),#641,.T.);
#672=ADVANCED_FACE('',(#57),#17,.F.);
#673=ADVANCED_FACE('',(#58),#18,.F.);
#674=ADVANCED_FACE('',(#59),#642,.T.);
#675=ADVANCED_FACE('',(#60,#27),#643,.F.);
#676=ADVANCED_FACE('',(#61),#644,.F.);
#677=ADVANCED_FACE('',(#62),#645,.F.);
#678=ADVANCED_FACE('',(#63),#646,.T.);
#679=ADVANCED_FACE('',(#64,#28),#647,.F.);
#680=ADVANCED_FACE('',(#65),#648,.F.);
#681=ADVANCED_FACE('',(#66),#649,.F.);
#682=ADVANCED_FACE('',(#67),#650,.T.);
#683=ADVANCED_FACE('',(#68,#29,#30),#651,.T.);
#684=ADVANCED_FACE('',(#69,#31),#652,.T.);
#685=ADVANCED_FACE('',(#70),#653,.F.);
#686=ADVANCED_FACE('',(#71),#654,.F.);
#687=ADVANCED_FACE('',(#72),#19,.F.);
#688=ADVANCED_FACE('',(#73),#655,.F.);
#689=ADVANCED_FACE('',(#74),#656,.F.);
#690=ADVANCED_FACE('',(#75,#32),#657,.T.);
#691=ADVANCED_FACE('',(#76,#33),#658,.T.);
#692=CLOSED_SHELL('',(#659,#660,#661,#662,#663,#664,#665,#666,#667,#668,
#669,#670,#671,#672,#673,#674,#675,#676,#677,#678,#679,#680,#681,#682,#683,
#684,#685,#686,#687,#688,#689,#690,#691));
#693=DERIVED_UNIT_ELEMENT(#695,1.);
#694=DERIVED_UNIT_ELEMENT(#1114,-3.);
#695=(
MASS_UNIT()
NAMED_UNIT(*)
SI_UNIT(.KILO.,.GRAM.)
);
#696=DERIVED_UNIT((#693,#694));
#697=MEASURE_REPRESENTATION_ITEM('density measure',
POSITIVE_RATIO_MEASURE(7850.),#696);
#698=PROPERTY_DEFINITION_REPRESENTATION(#703,#700);
#699=PROPERTY_DEFINITION_REPRESENTATION(#704,#701);
#700=REPRESENTATION('material name',(#702),#1111);
#701=REPRESENTATION('density',(#697),#1111);
#702=DESCRIPTIVE_REPRESENTATION_ITEM('Steel','Steel');
#703=PROPERTY_DEFINITION('material property','material name',#1121);
#704=PROPERTY_DEFINITION('material property','density of part',#1121);
#705=AXIS2_PLACEMENT_3D('',#920,#749,#750);
#706=AXIS2_PLACEMENT_3D('',#921,#751,#752);
#707=AXIS2_PLACEMENT_3D('',#930,#757,#758);
#708=AXIS2_PLACEMENT_3D('',#936,#762,#763);
#709=AXIS2_PLACEMENT_3D('',#945,#768,#769);
#710=AXIS2_PLACEMENT_3D('',#951,#773,#774);
#711=AXIS2_PLACEMENT_3D('',#960,#779,#780);
#712=AXIS2_PLACEMENT_3D('',#961,#781,#782);
#713=AXIS2_PLACEMENT_3D('',#962,#783,#784);
#714=AXIS2_PLACEMENT_3D('',#971,#789,#790);
#715=AXIS2_PLACEMENT_3D('',#972,#791,#792);
#716=AXIS2_PLACEMENT_3D('',#981,#797,#798);
#717=AXIS2_PLACEMENT_3D('',#990,#803,#804);
#718=AXIS2_PLACEMENT_3D('',#996,#808,#809);
#719=AXIS2_PLACEMENT_3D('',#1005,#814,#815);
#720=AXIS2_PLACEMENT_3D('',#1011,#819,#820);
#721=AXIS2_PLACEMENT_3D('',#1012,#821,#822);
#722=AXIS2_PLACEMENT_3D('',#1013,#823,#824);
#723=AXIS2_PLACEMENT_3D('',#1014,#825,#826);
#724=AXIS2_PLACEMENT_3D('',#1015,#827,#828);
#725=AXIS2_PLACEMENT_3D('',#1016,#829,#830);
#726=AXIS2_PLACEMENT_3D('',#1017,#831,#832);
#727=AXIS2_PLACEMENT_3D('',#1023,#836,#837);
#728=AXIS2_PLACEMENT_3D('',#1024,#838,#839);
#729=AXIS2_PLACEMENT_3D('',#1025,#840,#841);
#730=AXIS2_PLACEMENT_3D('',#1028,#844,#845);
#731=AXIS2_PLACEMENT_3D('',#1045,#854,#855);
#732=AXIS2_PLACEMENT_3D('',#1051,#859,#860);
#733=AXIS2_PLACEMENT_3D('',#1055,#863,#864);
#734=AXIS2_PLACEMENT_3D('',#1064,#870,#871);
#735=AXIS2_PLACEMENT_3D('',#1078,#879,#880);
#736=AXIS2_PLACEMENT_3D('',#1081,#883,#884);
#737=AXIS2_PLACEMENT_3D('',#1083,#886,#887);
#738=AXIS2_PLACEMENT_3D('',#1088,#891,#892);
#739=AXIS2_PLACEMENT_3D('',#1090,#894,#895);
#740=AXIS2_PLACEMENT_3D('',#1092,#896,#897);
#741=AXIS2_PLACEMENT_3D('',#1093,#898,#899);
#742=AXIS2_PLACEMENT_3D('',#1095,#901,#902);
#743=AXIS2_PLACEMENT_3D('',#1096,#903,#904);
#744=AXIS2_PLACEMENT_3D('',#1098,#905,#906);
#745=AXIS2_PLACEMENT_3D('',#1100,#908,#909);
#746=AXIS2_PLACEMENT_3D('',#1104,#912,#913);
#747=AXIS2_PLACEMENT_3D('',#1106,#915,#916);
#748=AXIS2_PLACEMENT_3D('',#1108,#918,#919);
#749=DIRECTION('axis',(0.,0.,1.));
#750=DIRECTION('refdir',(1.,0.,0.));
#751=DIRECTION('center_axis',(-0.642787609693152,0.541675220392034,0.541675220439523));
#752=DIRECTION('ref_axis',(0.76604444311343,0.454519477656806,0.454519477696633));
#753=DIRECTION('',(0.766044443113429,0.454519477656801,0.454519477696638));
#754=DIRECTION('',(-9.60192886162294E-15,0.707106781217538,-0.707106781155557));
#755=DIRECTION('',(-0.766044443113429,-0.454519477656798,-0.454519477696641));
#756=DIRECTION('',(0.,0.707106781217538,-0.707106781155557));
#757=DIRECTION('center_axis',(-0.642787609693232,-0.541675220391996,-0.541675220439467));
#758=DIRECTION('ref_axis',(-0.766044443113363,0.454519477656851,0.4545194776967));
#759=DIRECTION('',(-0.766044443113363,0.454519477656857,0.454519477696694));
#760=DIRECTION('',(0.,0.707106781217538,-0.707106781155557));
#761=DIRECTION('',(0.766044443113363,-0.454519477656855,-0.454519477696697));
#762=DIRECTION('center_axis',(-0.642787609684858,0.541675220396955,0.541675220444443));
#763=DIRECTION('ref_axis',(0.766044443120389,0.454519477650941,0.454519477690769));
#764=DIRECTION('',(0.766044443120389,0.454519477650936,0.454519477690773));
#765=DIRECTION('',(-9.60192886162294E-15,0.707106781217538,-0.707106781155557));
#766=DIRECTION('',(-0.766044443120389,-0.454519477650934,-0.454519477690776));
#767=DIRECTION('',(0.,0.707106781217538,-0.707106781155557));
#768=DIRECTION('center_axis',(-0.642787609684737,-0.541675220397036,-0.541675220444507));
#769=DIRECTION('ref_axis',(-0.766044443120491,0.454519477650838,0.4545194776907));
#770=DIRECTION('',(-0.76604444312049,0.454519477650851,0.454519477690688));
#771=DIRECTION('',(0.,0.707106781217538,-0.707106781155557));
#772=DIRECTION('',(0.76604444312049,-0.454519477650848,-0.45451947769069));
#773=DIRECTION('center_axis',(0.,-0.707106781217535,0.70710678115556));
#774=DIRECTION('ref_axis',(1.,0.,0.));
#775=DIRECTION('',(-1.,0.,0.));
#776=DIRECTION('',(0.,0.70710678115556,0.707106781217535));
#777=DIRECTION('',(1.,0.,0.));
#778=DIRECTION('',(0.,0.70710678115556,0.707106781217535));
#779=DIRECTION('center_axis',(0.,0.707106781217535,-0.70710678115556));
#780=DIRECTION('ref_axis',(-1.,0.,0.));
#781=DIRECTION('center_axis',(0.,0.707106781217535,-0.70710678115556));
#782=DIRECTION('ref_axis',(-1.,0.,0.));
#783=DIRECTION('center_axis',(0.,0.70710678121754,-0.707106781155556));
#784=DIRECTION('ref_axis',(-1.,0.,0.));
#785=DIRECTION('',(-1.,0.,0.));
#786=DIRECTION('',(0.,0.707106781155555,0.707106781217539));
#787=DIRECTION('',(-1.,4.54040966386572E-15,4.54040966426367E-15));
#788=DIRECTION('',(0.,0.707106781155555,0.707106781217539));
#789=DIRECTION('center_axis',(0.,-0.70710678121754,0.707106781155556));
#790=DIRECTION('ref_axis',(-1.,0.,0.));
#791=DIRECTION('center_axis',(0.,-0.70710678121754,0.707106781155556));
#792=DIRECTION('ref_axis',(-1.,0.,0.));
#793=DIRECTION('',(1.,0.,0.));
#794=DIRECTION('',(0.,0.707106781155556,0.70710678121754));
#795=DIRECTION('',(-1.,0.,0.));
#796=DIRECTION('',(0.,-0.707106781155556,-0.70710678121754));
#797=DIRECTION('center_axis',(-0.642787609686533,0.541675220443443,-0.541675220395969));
#798=DIRECTION('ref_axis',(0.766044443118984,0.454519477691962,-0.454519477652116));
#799=DIRECTION('',(0.766044443118984,0.454519477691957,-0.454519477652121));
#800=DIRECTION('',(0.,-0.707106781155561,-0.707106781217534));
#801=DIRECTION('',(-0.766044443118984,-0.45451947769196,0.454519477652118));
#802=DIRECTION('',(0.,-0.707106781155556,-0.707106781217539));
#803=DIRECTION('center_axis',(-0.642787609686542,-0.541675220443438,0.541675220395963));
#804=DIRECTION('ref_axis',(-0.766044443118976,0.454519477691959,-0.454519477652132));
#805=DIRECTION('',(-0.766044443118976,0.454519477691964,-0.454519477652127));
#806=DIRECTION('',(0.,-0.707106781155556,-0.707106781217539));
#807=DIRECTION('',(0.766044443118976,-0.454519477691966,0.454519477652124));
#808=DIRECTION('center_axis',(-0.642787609686538,0.54167522044344,-0.541675220395966));
#809=DIRECTION('ref_axis',(0.766044443118979,0.454519477691966,-0.454519477652119));
#810=DIRECTION('',(0.766044443118979,0.454519477691961,-0.454519477652124));
#811=DIRECTION('',(0.,-0.707106781155561,-0.707106781217534));
#812=DIRECTION('',(-0.766044443118979,-0.454519477691963,0.454519477652121));
#813=DIRECTION('',(0.,-0.707106781155556,-0.707106781217539));
#814=DIRECTION('center_axis',(-0.642787609686537,-0.541675220443441,0.541675220395966));
#815=DIRECTION('ref_axis',(-0.76604444311898,0.454519477691955,-0.454519477652128));
#816=DIRECTION('',(-0.76604444311898,0.45451947769196,-0.454519477652123));
#817=DIRECTION('',(0.,-0.707106781155556,-0.707106781217539));
#818=DIRECTION('',(0.76604444311898,-0.454519477691963,0.454519477652121));
#819=DIRECTION('center_axis',(0.,0.707106781155556,0.707106781217539));
#820=DIRECTION('ref_axis',(1.,0.,0.));
#821=DIRECTION('center_axis',(0.,-0.70710678115556,-0.707106781217535));
#822=DIRECTION('ref_axis',(1.,0.,0.));
#823=DIRECTION('center_axis',(0.,0.707106781155556,0.707106781217539));
#824=DIRECTION('ref_axis',(1.,0.,0.));
#825=DIRECTION('center_axis',(0.,0.707106781155556,0.707106781217539));
#826=DIRECTION('ref_axis',(1.,0.,0.));
#827=DIRECTION('center_axis',(0.,-0.70710678115556,-0.707106781217535));
#828=DIRECTION('ref_axis',(1.,0.,0.));
#829=DIRECTION('center_axis',(0.,0.707106781155556,0.707106781217539));
#830=DIRECTION('ref_axis',(1.,0.,0.));
#831=DIRECTION('center_axis',(0.,0.70710678115556,0.707106781217535));
#832=DIRECTION('ref_axis',(1.,0.,0.));
#833=DIRECTION('',(0.,-0.707106781217539,0.707106781155556));
#834=DIRECTION('',(1.,0.,0.));
#835=DIRECTION('',(0.,0.707106781217539,-0.707106781155556));
#836=DIRECTION('center_axis',(0.,-0.707106781217538,0.707106781155557));
#837=DIRECTION('ref_axis',(1.,-3.2744518744811E-14,-3.27445187476812E-14));
#838=DIRECTION('center_axis',(0.,-0.707106781217538,0.707106781155557));
#839=DIRECTION('ref_axis',(1.,-2.42660194682902E-14,-2.42660194704172E-14));
#840=DIRECTION('center_axis',(0.,0.70710678115556,0.707106781217535));
#841=DIRECTION('ref_axis',(1.,0.,0.));
#842=DIRECTION('',(0.,0.707106781217495,-0.7071067811556));
#843=DIRECTION('',(0.,-0.707106781217535,0.70710678115556));
#844=DIRECTION('center_axis',(0.,-0.707106781217634,0.707106781155461));
#845=DIRECTION('ref_axis',(1.,0.,0.));
#846=DIRECTION('',(-1.,-1.74315279849745E-32,1.74315279834465E-32));
#847=DIRECTION('',(0.,0.707106781155555,0.707106781217539));
#848=DIRECTION('',(1.,2.81330894736129E-17,2.81330894760865E-17));
#849=DIRECTION('',(0.,-0.707106781155461,-0.707106781217634));
#850=DIRECTION('',(-7.89255335673622E-28,0.707106781155461,0.707106781217634));
#851=DIRECTION('',(-1.,0.,0.));
#852=DIRECTION('',(7.89255335673622E-28,-0.707106781155461,-0.707106781217634));
#853=DIRECTION('',(1.,0.,0.));
#854=DIRECTION('center_axis',(1.,-4.18691322334025E-15,4.18691322297323E-15));
#855=DIRECTION('ref_axis',(0.,-0.707106781155556,-0.70710678121754));
#856=DIRECTION('',(-5.92118946466751E-15,-0.707106781217539,0.707106781155556));
#857=DIRECTION('',(-7.88860905221012E-28,-0.707106781155556,-0.70710678121754));
#858=DIRECTION('',(5.92118946466751E-15,0.707106781217539,-0.707106781155556));
#859=DIRECTION('center_axis',(0.,-0.707106781155461,-0.707106781217634));
#860=DIRECTION('ref_axis',(-1.,0.,0.));
#861=DIRECTION('',(5.92118946466751E-15,0.707106781217539,-0.707106781155556));
#862=DIRECTION('',(-1.,0.,0.));
#863=DIRECTION('center_axis',(-1.,0.,0.));
#864=DIRECTION('ref_axis',(0.,-0.707106781217539,0.707106781155556));
#865=DIRECTION('',(0.,-0.707106781217634,0.707106781155461));
#866=DIRECTION('',(0.,-0.707106781217539,0.707106781155556));
#867=DIRECTION('',(0.,0.707106781155555,0.707106781217539));
#868=DIRECTION('',(0.,-0.707106781217539,0.707106781155556));
#869=DIRECTION('',(0.,0.707106781155461,0.707106781217634));
#870=DIRECTION('center_axis',(0.,0.707106781217634,-0.707106781155461));
#871=DIRECTION('ref_axis',(-1.,0.,0.));
#872=DIRECTION('',(1.,0.,0.));
#873=DIRECTION('',(-1.,-2.81330894736129E-17,-2.81330894760865E-17));
#874=DIRECTION('',(0.,-0.707106781155555,-0.707106781217539));
#875=DIRECTION('',(1.,0.,0.));
#876=DIRECTION('',(0.,-0.707106781155461,-0.707106781217634));
#877=DIRECTION('',(-1.,0.,0.));
#878=DIRECTION('',(0.,0.707106781155461,0.707106781217634));
#879=DIRECTION('center_axis',(-1.,0.,0.));
#880=DIRECTION('ref_axis',(0.,-0.707106781155554,-0.707106781217541));
#881=DIRECTION('',(0.,-0.707106781217539,0.707106781155556));
#882=DIRECTION('',(0.,-0.707106781217539,0.707106781155556));
#883=DIRECTION('center_axis',(0.,-0.707106781155556,-0.707106781217539));
#884=DIRECTION('ref_axis',(1.,0.,0.));
#885=DIRECTION('',(0.,-0.707106781217539,0.707106781155556));
#886=DIRECTION('center_axis',(3.97861966867882E-17,-0.707106781155556,-0.707106781217539));
#887=DIRECTION('ref_axis',(1.,2.81330894736167E-17,2.81330894760827E-17));
#888=DIRECTION('',(0.,0.707106781217539,-0.707106781155556));
#889=DIRECTION('',(0.,0.707106781217539,-0.707106781155556));
#890=DIRECTION('',(-1.,0.,0.));
#891=DIRECTION('center_axis',(0.,-0.707106781155556,-0.707106781217539));
#892=DIRECTION('ref_axis',(0.,-0.707106781217539,0.707106781155556));
#893=DIRECTION('',(0.,0.707106781217539,-0.707106781155556));
#894=DIRECTION('center_axis',(-1.,0.,0.));
#895=DIRECTION('ref_axis',(0.,-0.707106781217539,0.707106781155556));
#896=DIRECTION('center_axis',(1.,0.,0.));
#897=DIRECTION('ref_axis',(0.,1.,0.));
#898=DIRECTION('center_axis',(0.,0.707106781155556,0.707106781217539));
#899=DIRECTION('ref_axis',(-1.,0.,0.));
#900=DIRECTION('',(0.,-0.707106781217539,0.707106781155556));
#901=DIRECTION('center_axis',(1.,0.,0.));
#902=DIRECTION('ref_axis',(0.,0.707106781155554,0.707106781217541));
#903=DIRECTION('center_axis',(-1.,0.,0.));
#904=DIRECTION('ref_axis',(0.,1.,0.));
#905=DIRECTION('center_axis',(-1.,0.,0.));
#906=DIRECTION('ref_axis',(0.,1.,0.));
#907=DIRECTION('',(-1.,0.,0.));
#908=DIRECTION('center_axis',(0.,0.707106781155461,0.707106781217634));
#909=DIRECTION('ref_axis',(1.,0.,0.));
#910=DIRECTION('',(1.,0.,0.));
#911=DIRECTION('',(-5.92118946466751E-15,-0.707106781217539,0.707106781155556));
#912=DIRECTION('center_axis',(-1.,4.18691322334025E-15,-4.18691322297323E-15));
#913=DIRECTION('ref_axis',(0.,0.707106781155556,0.70710678121754));
#914=DIRECTION('',(7.88860905221012E-28,0.707106781155556,0.70710678121754));
#915=DIRECTION('center_axis',(0.,-0.70710678121754,0.707106781155556));
#916=DIRECTION('ref_axis',(1.,0.,0.));
#917=DIRECTION('',(0.,0.707106781155555,0.707106781217539));
#918=DIRECTION('center_axis',(1.,0.,0.));
#919=DIRECTION('ref_axis',(0.,0.707106781217539,-0.707106781155556));
#920=CARTESIAN_POINT('',(0.,0.,0.));
#921=CARTESIAN_POINT('Origin',(-113.828988939974,224.189788405764,312.674953664991));
#922=CARTESIAN_POINT('',(-113.828988939974,224.189788405764,312.674953664991));
#923=CARTESIAN_POINT('',(-112.459584614228,225.002301236364,313.487466495662));
#924=CARTESIAN_POINT('',(-122.847844697209,218.838603308487,307.323768567245));
#925=CARTESIAN_POINT('',(-113.828988939974,226.806083496269,310.058658574716));
#926=CARTESIAN_POINT('',(-113.828988939974,224.189788405764,312.674953664991));
#927=CARTESIAN_POINT('',(-112.459584614228,227.618596326869,310.871171405387));
#928=CARTESIAN_POINT('',(-117.074934011068,224.880157041898,308.132732120176));
#929=CARTESIAN_POINT('',(-112.459584614247,227.618596326857,310.871171405375));
#930=CARTESIAN_POINT('Origin',(-112.459584614228,223.377275575164,311.86244083432));
#931=CARTESIAN_POINT('',(-112.459584614228,223.377275575164,311.86244083432));
#932=CARTESIAN_POINT('',(-117.23901566949,226.213069929218,314.698235188622));
#933=CARTESIAN_POINT('',(-112.459584614228,225.993570665669,309.246145744044));
#934=CARTESIAN_POINT('',(-112.459584614248,225.993570665681,309.246145744056));
#935=CARTESIAN_POINT('',(-103.646731424409,220.764613697816,304.017188775733));
#936=CARTESIAN_POINT('Origin',(-129.300771590301,224.189788405764,312.674953664991));
#937=CARTESIAN_POINT('',(-129.300771590301,224.189788405764,312.674953664991));
#938=CARTESIAN_POINT('',(-127.931367264537,225.002301236357,313.487466495655));
#939=CARTESIAN_POINT('',(-133.780019969425,221.532102351343,310.017267610336));
#940=CARTESIAN_POINT('',(-129.300771590301,226.806083496269,310.058658574716));
#941=CARTESIAN_POINT('',(-129.300771590301,224.189788405764,312.674953664991));
#942=CARTESIAN_POINT('',(-127.931367264537,227.618596326862,310.871171405379));
#943=CARTESIAN_POINT('',(-128.007109283093,227.573656084791,310.826231163305));
#944=CARTESIAN_POINT('',(-127.931367264532,227.618596326865,310.871171405382));
#945=CARTESIAN_POINT('Origin',(-127.931367264537,223.377275575172,311.862440834328));
#946=CARTESIAN_POINT('',(-127.931367264537,223.377275575172,311.862440834328));
#947=CARTESIAN_POINT('',(-128.171190941718,223.519570886443,312.004736145611));
#948=CARTESIAN_POINT('',(-127.931367264537,225.993570665677,309.246145744052));
#949=CARTESIAN_POINT('',(-127.931367264531,225.993570665674,309.246145744049));
#950=CARTESIAN_POINT('',(-114.578906696472,218.071114655125,301.323689732806));
#951=CARTESIAN_POINT('Origin',(-136.175693683952,217.118594080291,305.603759338898));
#952=CARTESIAN_POINT('',(-103.175693683952,217.118594080291,305.603759338898));
#953=CARTESIAN_POINT('',(-136.175693683952,217.118594080291,305.603759338898));
#954=CARTESIAN_POINT('',(-127.925693683952,217.11859408029,305.603759338897));
#955=CARTESIAN_POINT('',(-103.175693683952,231.260729703402,319.745894963248));
#956=CARTESIAN_POINT('',(-103.175693683952,217.118594080291,305.603759338898));
#957=CARTESIAN_POINT('',(-136.175693683952,231.260729703402,319.745894963248));
#958=CARTESIAN_POINT('',(-136.175693683952,231.260729703402,319.745894963248));
#959=CARTESIAN_POINT('',(-136.175693683952,217.118594080291,305.603759338898));
#960=CARTESIAN_POINT('Origin',(-111.495403199708,224.189788405764,312.674953664991));
#961=CARTESIAN_POINT('Origin',(-126.967185850004,224.189788405764,312.674953664991));
#962=CARTESIAN_POINT('Origin',(-103.175693683952,208.506033486045,291.758608562888));
#963=CARTESIAN_POINT('',(-103.175693683952,208.506033486045,291.758608562888));
#964=CARTESIAN_POINT('',(-136.175693683952,208.506033486045,291.758608562888));
#965=CARTESIAN_POINT('',(-103.175693683952,208.506033486045,291.758608562888));
#966=CARTESIAN_POINT('',(-136.175693683952,233.877024793907,317.129599872973));
#967=CARTESIAN_POINT('',(-136.175693683952,208.506033486045,291.758608562888));
#968=CARTESIAN_POINT('',(-103.175693683952,233.877024793906,317.129599872973));
#969=CARTESIAN_POINT('',(-103.175693683952,233.877024793906,317.129599872973));
#970=CARTESIAN_POINT('',(-103.175693683952,208.506033486045,291.758608562888));
#971=CARTESIAN_POINT('Origin',(-111.495403199708,226.806083496269,310.058658574716));
#972=CARTESIAN_POINT('Origin',(-126.967185850004,226.806083496269,310.058658574716));
#973=CARTESIAN_POINT('',(-130.537693683968,210.556643150876,293.809218227899));
#974=CARTESIAN_POINT('',(-106.537693683936,210.556643150876,293.809218227899));
#975=CARTESIAN_POINT('',(-116.85669368396,210.556643150876,293.809218227899));
#976=CARTESIAN_POINT('',(-106.537693683936,215.647811975196,298.900387052665));
#977=CARTESIAN_POINT('',(-106.537693683936,209.531338318461,292.783913395393));
#978=CARTESIAN_POINT('',(-130.537693683968,215.647811975196,298.900387052665));
#979=CARTESIAN_POINT('',(-104.856693683944,215.647811975197,298.900387052665));
#980=CARTESIAN_POINT('',(-130.537693683968,212.076922730621,295.329497807776));
#981=CARTESIAN_POINT('Origin',(-128.654767761721,209.89767126211,312.824682156445));
#982=CARTESIAN_POINT('',(-128.654767761721,209.89767126211,312.824682156445));
#983=CARTESIAN_POINT('',(-127.28536343596,210.710184092775,312.012169325851));
#984=CARTESIAN_POINT('',(-125.180176243478,211.959261208033,310.763092210703));
#985=CARTESIAN_POINT('',(-128.654767761721,208.129904309221,311.056915203401));
#986=CARTESIAN_POINT('',(-128.654767761721,209.89767126211,312.824682156445));
#987=CARTESIAN_POINT('',(-127.28536343596,208.942417139886,310.244402372807));
#988=CARTESIAN_POINT('',(-119.372599106955,213.637321648658,305.549497864447));
#989=CARTESIAN_POINT('',(-127.28536343596,208.942417139886,310.244402372807));
#990=CARTESIAN_POINT('Origin',(-127.28536343596,209.085158431445,313.637194987039));
#991=CARTESIAN_POINT('',(-127.28536343596,209.085158431445,313.637194987039));
#992=CARTESIAN_POINT('',(-126.175520152828,208.426651743092,314.295701675334));
#993=CARTESIAN_POINT('',(-127.28536343596,207.317391478556,311.869428033995));
#994=CARTESIAN_POINT('',(-127.28536343596,207.317391478556,311.869428033995));
#995=CARTESIAN_POINT('',(-124.0609720901,205.404253561351,313.782565951032));
#996=CARTESIAN_POINT('Origin',(-112.445420008473,209.89767126211,312.824682156445));
#997=CARTESIAN_POINT('',(-112.445420008473,209.89767126211,312.824682156445));
#998=CARTESIAN_POINT('',(-111.076015682712,210.710184092775,312.012169325851));
#999=CARTESIAN_POINT('',(-113.726846353173,209.137358674341,313.584994744147));
#1000=CARTESIAN_POINT('',(-112.445420008473,208.129904309221,311.056915203401));
#1001=CARTESIAN_POINT('',(-112.445420008473,209.89767126211,312.824682156445));
#1002=CARTESIAN_POINT('',(-111.076015682712,208.942417139886,310.244402372807));
#1003=CARTESIAN_POINT('',(-107.919269216649,210.815419114966,308.371400397891));
#1004=CARTESIAN_POINT('',(-111.076015682712,208.942417139886,310.244402372807));
#1005=CARTESIAN_POINT('Origin',(-111.076015682712,209.085158431445,313.637194987039));
#1006=CARTESIAN_POINT('',(-111.076015682712,209.085158431445,313.637194987039));
#1007=CARTESIAN_POINT('',(-114.722190262522,211.248554276785,311.473799141889));
#1008=CARTESIAN_POINT('',(-111.076015682712,207.317391478556,311.869428033995));
#1009=CARTESIAN_POINT('',(-111.076015682712,207.317391478556,311.869428033995));
#1010=CARTESIAN_POINT('',(-112.607642199794,208.226156095044,310.960663417587));
#1011=CARTESIAN_POINT('Origin',(-126.32118202143,208.129904309221,311.056915203401));
#1012=CARTESIAN_POINT('Origin',(-126.32118202143,209.89767126211,312.824682156445));
#1013=CARTESIAN_POINT('Origin',(-126.32118202143,208.129904309221,311.056915203401));
#1014=CARTESIAN_POINT('Origin',(-110.111834268182,208.129904309221,311.056915203401));
#1015=CARTESIAN_POINT('Origin',(-110.111834268182,209.89767126211,312.824682156445));
#1016=CARTESIAN_POINT('Origin',(-110.111834268182,208.129904309221,311.056915203401));
#1017=CARTESIAN_POINT('Origin',(-119.675693683952,212.310267968011,310.412085450755));
#1018=CARTESIAN_POINT('',(-136.175693683952,204.885646765227,317.836706652889));
#1019=CARTESIAN_POINT('',(-136.175693683952,219.734889170795,302.987464248622));
#1020=CARTESIAN_POINT('',(-103.175693683952,204.885646765227,317.836706652889));
#1021=CARTESIAN_POINT('',(-103.175693683952,204.885646765227,317.836706652889));
#1022=CARTESIAN_POINT('',(-103.175693683952,217.613568827143,305.108784592089));
#1023=CARTESIAN_POINT('Origin',(-111.495403199708,226.806083496269,310.058658574716));
#1024=CARTESIAN_POINT('Origin',(-126.967185850004,226.806083496269,310.058658574716));
#1025=CARTESIAN_POINT('Origin',(-119.675693683952,232.568877248654,318.437747418111));
#1026=CARTESIAN_POINT('',(-103.175693683952,231.260729703402,319.745894963248));
#1027=CARTESIAN_POINT('',(-136.175693683952,233.877024793907,317.129599872973));
#1028=CARTESIAN_POINT('Origin',(-106.175693683952,195.707400746009,304.557241301802));
#1029=CARTESIAN_POINT('',(-106.175693683952,205.168489477869,314.018330034494));
#1030=CARTESIAN_POINT('',(-136.175693683952,205.168489477869,314.018330034494));
#1031=CARTESIAN_POINT('',(-106.175693683952,205.168489477869,314.018330034494));
#1032=CARTESIAN_POINT('',(-106.175693683952,195.707400746008,304.557241301803));
#1033=CARTESIAN_POINT('',(-106.175693683952,195.707400746008,304.557241301803));
#1034=CARTESIAN_POINT('',(-136.175693683952,195.707400746008,304.557241301803));
#1035=CARTESIAN_POINT('',(-112.925693683952,195.707400746009,304.557241301802));
#1036=CARTESIAN_POINT('',(-136.175693683952,195.707400746009,304.557241301802));
#1037=CARTESIAN_POINT('',(-130.537693683968,197.758010410839,306.607850966814));
#1038=CARTESIAN_POINT('',(-130.537693683968,202.849179235159,311.699019791581));
#1039=CARTESIAN_POINT('',(-130.537693683968,196.768060917482,305.617901473369));
#1040=CARTESIAN_POINT('',(-106.537693683936,197.758010410839,306.607850966814));
#1041=CARTESIAN_POINT('',(-106.356693683944,197.75801041084,306.607850966813));
#1042=CARTESIAN_POINT('',(-106.537693683936,202.849179235159,311.699019791581));
#1043=CARTESIAN_POINT('',(-106.537693683936,199.242934651527,308.09277520763));
#1044=CARTESIAN_POINT('',(-118.35669368396,202.84917923516,311.69901979158));
#1045=CARTESIAN_POINT('Origin',(-106.537693683936,200.727858891513,313.67891877881));
#1046=CARTESIAN_POINT('',(-106.537693683936,195.707400745308,308.658460632165));
#1047=CARTESIAN_POINT('',(-106.537693683936,195.707400745308,308.658460632165));
#1048=CARTESIAN_POINT('',(-106.537693683936,200.798569569628,313.749629456932));
#1049=CARTESIAN_POINT('',(-106.537693683936,194.71745125195,307.668511138721));
#1050=CARTESIAN_POINT('',(-106.537693683936,200.798569569628,313.749629456932));
#1051=CARTESIAN_POINT('Origin',(-106.537693683936,195.707400745308,308.658460632165));
#1052=CARTESIAN_POINT('',(-130.537693683968,195.707400745308,308.658460632165));
#1053=CARTESIAN_POINT('',(-130.537693683968,195.707400745308,308.658460632165));
#1054=CARTESIAN_POINT('',(-121.356693683944,195.707400745308,308.658460632165));
#1055=CARTESIAN_POINT('Origin',(-136.175693683952,195.778111424129,304.486530623688));
#1056=CARTESIAN_POINT('',(-136.175693683952,215.916512552376,303.270306960929));
#1057=CARTESIAN_POINT('',(-136.175693683952,205.23920015599,313.947619356379));
#1058=CARTESIAN_POINT('',(-136.175693683952,193.656791080477,306.607850967154));
#1059=CARTESIAN_POINT('',(-136.175693683952,195.778111424129,304.486530623688));
#1060=CARTESIAN_POINT('',(-136.175693683952,193.656791080477,306.607850967154));
#1061=CARTESIAN_POINT('',(-136.175693683952,206.455423820514,293.809218228239));
#1062=CARTESIAN_POINT('',(-136.175693683952,208.506033486045,291.758608562888));
#1063=CARTESIAN_POINT('',(-136.175693683952,206.455423820516,293.809218228238));
#1064=CARTESIAN_POINT('Origin',(-136.175693683952,206.455423820516,293.809218228237));
#1065=CARTESIAN_POINT('',(-106.175693683952,215.916512552376,303.270306960929));
#1066=CARTESIAN_POINT('',(-121.175693683952,215.916512552376,303.270306960929));
#1067=CARTESIAN_POINT('',(-106.175693683952,206.455423820514,293.809218228239));
#1068=CARTESIAN_POINT('',(-127.925693683952,206.455423820516,293.809218228237));
#1069=CARTESIAN_POINT('',(-106.175693683952,206.455423820514,293.809218228239));
#1070=CARTESIAN_POINT('',(-130.537693683968,208.506033485346,295.85982789325));
#1071=CARTESIAN_POINT('',(-106.537693683936,208.506033485346,295.85982789325));
#1072=CARTESIAN_POINT('',(-133.35669368396,208.506033485347,295.859827893249));
#1073=CARTESIAN_POINT('',(-130.537693683968,213.597202309666,300.950996718016));
#1074=CARTESIAN_POINT('',(-130.537693683968,210.026313065091,297.380107473126));
#1075=CARTESIAN_POINT('',(-106.537693683936,213.597202309666,300.950996718016));
#1076=CARTESIAN_POINT('',(-121.356693683944,213.597202309666,300.950996718016));
#1077=CARTESIAN_POINT('',(-106.537693683936,207.480728652931,294.834523060743));
#1078=CARTESIAN_POINT('Origin',(-130.537693683968,215.647811975197,298.900387052665));
#1079=CARTESIAN_POINT('',(-130.537693683968,210.556643150876,293.809218227899));
#1080=CARTESIAN_POINT('',(-130.537693683968,215.647811975196,298.900387052665));
#1081=CARTESIAN_POINT('Origin',(-130.537693683968,210.556643150876,293.809218227899));
#1082=CARTESIAN_POINT('',(-106.537693683936,210.556643150876,293.809218227899));
#1083=CARTESIAN_POINT('Origin',(-119.675693683952,201.081412283261,299.183229765021));
#1084=CARTESIAN_POINT('',(-106.175693683952,198.429761853695,301.834880194354));
#1085=CARTESIAN_POINT('',(-103.175693683952,193.656791080477,306.607850967154));
#1086=CARTESIAN_POINT('',(-103.175693683952,206.384713142393,293.879928906354));
#1087=CARTESIAN_POINT('',(-103.175693683952,193.656791080477,306.607850967154));
#1088=CARTESIAN_POINT('Origin',(-106.175693683952,215.845801874254,303.341017639045));
#1089=CARTESIAN_POINT('',(-106.175693683952,215.845801874254,303.341017639045));
#1090=CARTESIAN_POINT('Origin',(-106.175693683952,206.384713142393,293.879928906354));
#1091=CARTESIAN_POINT('',(-106.175693683952,204.177606360772,303.779423842935));
#1092=CARTESIAN_POINT('Origin',(-106.175693683952,205.677606360772,303.779423842935));
#1093=CARTESIAN_POINT('Origin',(-106.537693683936,215.647811975196,298.900387052665));
#1094=CARTESIAN_POINT('',(-106.537693683936,215.647811975196,298.900387052665));
#1095=CARTESIAN_POINT('Origin',(-106.537693683936,210.556643150876,293.809218227899));
#1096=CARTESIAN_POINT('Origin',(-103.175693683952,205.677606360772,303.779423842935));
#1097=CARTESIAN_POINT('',(-103.175693683952,204.177606360772,303.779423842935));
#1098=CARTESIAN_POINT('Origin',(-103.175693683952,205.677606360772,303.779423842935));
#1099=CARTESIAN_POINT('',(-103.175693683952,204.177606360772,303.779423842935));
#1100=CARTESIAN_POINT('Origin',(-130.537693683968,200.798569569628,313.749629456932));
#1101=CARTESIAN_POINT('',(-130.537693683968,200.798569569628,313.749629456932));
#1102=CARTESIAN_POINT('',(-133.35669368396,200.798569569628,313.749629456932));
#1103=CARTESIAN_POINT('',(-130.537693683968,200.798569569628,313.749629456932));
#1104=CARTESIAN_POINT('Origin',(-130.537693683968,195.778111423424,308.729171310287));
#1105=CARTESIAN_POINT('',(-130.537693683968,194.71745125195,307.668511138721));
#1106=CARTESIAN_POINT('Origin',(-136.175693683952,193.656791080477,306.607850967154));
#1107=CARTESIAN_POINT('',(-103.175693683952,193.656791080477,306.607850967154));
#1108=CARTESIAN_POINT('Origin',(-103.175693683952,193.656791080477,306.607850967154));
#1109=UNCERTAINTY_MEASURE_WITH_UNIT(LENGTH_MEASURE(0.01),#1113,
'DISTANCE_ACCURACY_VALUE',
'Maximum model space distance between geometric entities at asserted c
onnectivities');
#1110=UNCERTAINTY_MEASURE_WITH_UNIT(LENGTH_MEASURE(0.01),#1113,
'DISTANCE_ACCURACY_VALUE',
'Maximum model space distance between geometric entities at asserted c
onnectivities');
#1111=(
GEOMETRIC_REPRESENTATION_CONTEXT(3)
GLOBAL_UNCERTAINTY_ASSIGNED_CONTEXT((#1109))
GLOBAL_UNIT_ASSIGNED_CONTEXT((#1113,#1115,#1116))
REPRESENTATION_CONTEXT('','3D')
);
#1112=(
GEOMETRIC_REPRESENTATION_CONTEXT(3)
GLOBAL_UNCERTAINTY_ASSIGNED_CONTEXT((#1110))
GLOBAL_UNIT_ASSIGNED_CONTEXT((#1113,#1115,#1116))
REPRESENTATION_CONTEXT('','3D')
);
#1113=(
LENGTH_UNIT()
NAMED_UNIT(*)
SI_UNIT(.MILLI.,.METRE.)
);
#1114=(
LENGTH_UNIT()
NAMED_UNIT(*)
SI_UNIT($,.METRE.)
);
#1115=(
NAMED_UNIT(*)
PLANE_ANGLE_UNIT()
SI_UNIT($,.RADIAN.)
);
#1116=(
NAMED_UNIT(*)
SI_UNIT($,.STERADIAN.)
SOLID_ANGLE_UNIT()
);
#1117=SHAPE_DEFINITION_REPRESENTATION(#1118,#1119);
#1118=PRODUCT_DEFINITION_SHAPE('',$,#1121);
#1119=SHAPE_REPRESENTATION('',(#705),#1111);
#1120=PRODUCT_DEFINITION_CONTEXT('part definition',#1125,'design');
#1121=PRODUCT_DEFINITION('tensionerouter1(1x)','tensionerouter1(1x) v1',
#1122,#1120);
#1122=PRODUCT_DEFINITION_FORMATION('',$,#1127);
#1123=PRODUCT_RELATED_PRODUCT_CATEGORY('tensionerouter1(1x) v1',
'tensionerouter1(1x) v1',(#1127));
#1124=APPLICATION_PROTOCOL_DEFINITION('international standard',
'automotive_design',2009,#1125);
#1125=APPLICATION_CONTEXT(
'Core Data for Automotive Mechanical Design Process');
#1126=PRODUCT_CONTEXT('part definition',#1125,'mechanical');
#1127=PRODUCT('tensionerouter1(1x)','tensionerouter1(1x) v1',$,(#1126));
#1128=PRESENTATION_STYLE_ASSIGNMENT((#1129));
#1129=SURFACE_STYLE_USAGE(.BOTH.,#1130);
#1130=SURFACE_SIDE_STYLE('',(#1131));
#1131=SURFACE_STYLE_FILL_AREA(#1132);
#1132=FILL_AREA_STYLE('Steel - Satin',(#1133));
#1133=FILL_AREA_STYLE_COLOUR('Steel - Satin',#1134);
#1134=COLOUR_RGB('Steel - Satin',0.627450980392157,0.627450980392157,0.627450980392157);
ENDSEC;
END-ISO-10303-21;
