ISO-10303-21;
HEADER;
/* Generated by software containing ST-Developer
 * from STEP Tools, Inc. (www.steptools.com) 
 */

FILE_DESCRIPTION(
/* description */ (''),
/* implementation_level */ '2;1');

FILE_NAME(
/* name */ 'tensionerinner1(1x).step',
/* time_stamp */ '2025-12-01T16:05:40+05:30',
/* author */ (''),
/* organization */ (''),
/* preprocessor_version */ 'ST-DEVELOPER v20.1',
/* originating_system */ 'Autodesk Translation Framework v14.21.0.0',
/* authorisation */ '');

FILE_SCHEMA (('AUTOMOTIVE_DESIGN { 1 0 10303 214 3 1 1 }'));
ENDSEC;

DATA;
#10=MECHANICAL_DESIGN_GEOMETRIC_PRESENTATION_REPRESENTATION('',(#13),#828);
#11=SHAPE_REPRESENTATION_RELATIONSHIP('SRR','None',#835,#12);
#12=ADVANCED_BREP_SHAPE_REPRESENTATION('',(#14),#827);
#13=STYLED_ITEM('',(#844),#14);
#14=MANIFOLD_SOLID_BREP('Body1',#512);
#15=CYLINDRICAL_SURFACE('',#542,1.49999999999999);
#16=CYLINDRICAL_SURFACE('',#552,1.49999999999999);
#17=CYLINDRICAL_SURFACE('',#553,1.49999999999999);
#18=FACE_BOUND('',#60,.T.);
#19=FACE_BOUND('',#62,.T.);
#20=FACE_BOUND('',#64,.T.);
#21=FACE_BOUND('',#66,.T.);
#22=FACE_BOUND('',#75,.T.);
#23=FACE_BOUND('',#85,.T.);
#24=CIRCLE('',#531,1.49999999999999);
#25=CIRCLE('',#533,1.49999999999999);
#26=CIRCLE('',#535,1.49999999999999);
#27=CIRCLE('',#537,1.49999999999999);
#28=CIRCLE('',#543,1.49999999999999);
#29=CIRCLE('',#544,1.49999999999999);
#30=FACE_OUTER_BOUND('',#55,.T.);
#31=FACE_OUTER_BOUND('',#56,.T.);
#32=FACE_OUTER_BOUND('',#57,.T.);
#33=FACE_OUTER_BOUND('',#58,.T.);
#34=FACE_OUTER_BOUND('',#59,.T.);
#35=FACE_OUTER_BOUND('',#61,.T.);
#36=FACE_OUTER_BOUND('',#63,.T.);
#37=FACE_OUTER_BOUND('',#65,.T.);
#38=FACE_OUTER_BOUND('',#67,.T.);
#39=FACE_OUTER_BOUND('',#68,.T.);
#40=FACE_OUTER_BOUND('',#69,.T.);
#41=FACE_OUTER_BOUND('',#70,.T.);
#42=FACE_OUTER_BOUND('',#71,.T.);
#43=FACE_OUTER_BOUND('',#72,.T.);
#44=FACE_OUTER_BOUND('',#73,.T.);
#45=FACE_OUTER_BOUND('',#74,.T.);
#46=FACE_OUTER_BOUND('',#76,.T.);
#47=FACE_OUTER_BOUND('',#77,.T.);
#48=FACE_OUTER_BOUND('',#78,.T.);
#49=FACE_OUTER_BOUND('',#79,.T.);
#50=FACE_OUTER_BOUND('',#80,.T.);
#51=FACE_OUTER_BOUND('',#81,.T.);
#52=FACE_OUTER_BOUND('',#82,.T.);
#53=FACE_OUTER_BOUND('',#83,.T.);
#54=FACE_OUTER_BOUND('',#84,.T.);
#55=EDGE_LOOP('',(#327,#328,#329,#330));
#56=EDGE_LOOP('',(#331,#332,#333,#334));
#57=EDGE_LOOP('',(#335,#336,#337,#338));
#58=EDGE_LOOP('',(#339,#340,#341,#342));
#59=EDGE_LOOP('',(#343,#344,#345,#346,#347,#348,#349,#350));
#60=EDGE_LOOP('',(#351,#352,#353));
#61=EDGE_LOOP('',(#354,#355,#356,#357));
#62=EDGE_LOOP('',(#358,#359,#360));
#63=EDGE_LOOP('',(#361,#362,#363,#364,#365,#366,#367,#368));
#64=EDGE_LOOP('',(#369,#370,#371));
#65=EDGE_LOOP('',(#372,#373,#374,#375));
#66=EDGE_LOOP('',(#376,#377,#378));
#67=EDGE_LOOP('',(#379,#380,#381,#382));
#68=EDGE_LOOP('',(#383,#384,#385,#386));
#69=EDGE_LOOP('',(#387,#388,#389,#390));
#70=EDGE_LOOP('',(#391,#392,#393,#394));
#71=EDGE_LOOP('',(#395,#396,#397,#398));
#72=EDGE_LOOP('',(#399,#400,#401,#402));
#73=EDGE_LOOP('',(#403,#404,#405,#406));
#74=EDGE_LOOP('',(#407,#408,#409,#410,#411,#412,#413,#414,#415,#416,#417,
#418));
#75=EDGE_LOOP('',(#419));
#76=EDGE_LOOP('',(#420,#421,#422,#423,#424,#425,#426,#427));
#77=EDGE_LOOP('',(#428,#429,#430,#431));
#78=EDGE_LOOP('',(#432,#433,#434,#435,#436,#437,#438,#439));
#79=EDGE_LOOP('',(#440,#441,#442,#443));
#80=EDGE_LOOP('',(#444,#445,#446,#447));
#81=EDGE_LOOP('',(#448,#449,#450,#451));
#82=EDGE_LOOP('',(#452,#453,#454,#455));
#83=EDGE_LOOP('',(#456,#457,#458,#459));
#84=EDGE_LOOP('',(#460,#461,#462,#463));
#85=EDGE_LOOP('',(#464));
#86=LINE('',#688,#149);
#87=LINE('',#690,#150);
#88=LINE('',#692,#151);
#89=LINE('',#693,#152);
#90=LINE('',#697,#153);
#91=LINE('',#699,#154);
#92=LINE('',#701,#155);
#93=LINE('',#702,#156);
#94=LINE('',#705,#157);
#95=LINE('',#707,#158);
#96=LINE('',#708,#159);
#97=LINE('',#711,#160);
#98=LINE('',#713,#161);
#99=LINE('',#714,#162);
#100=LINE('',#718,#163);
#101=LINE('',#720,#164);
#102=LINE('',#722,#165);
#103=LINE('',#724,#166);
#104=LINE('',#726,#167);
#105=LINE('',#728,#168);
#106=LINE('',#730,#169);
#107=LINE('',#731,#170);
#108=LINE('',#736,#171);
#109=LINE('',#738,#172);
#110=LINE('',#740,#173);
#111=LINE('',#741,#174);
#112=LINE('',#746,#175);
#113=LINE('',#748,#176);
#114=LINE('',#750,#177);
#115=LINE('',#752,#178);
#116=LINE('',#754,#179);
#117=LINE('',#756,#180);
#118=LINE('',#758,#181);
#119=LINE('',#759,#182);
#120=LINE('',#764,#183);
#121=LINE('',#766,#184);
#122=LINE('',#768,#185);
#123=LINE('',#769,#186);
#124=LINE('',#773,#187);
#125=LINE('',#775,#188);
#126=LINE('',#776,#189);
#127=LINE('',#779,#190);
#128=LINE('',#780,#191);
#129=LINE('',#783,#192);
#130=LINE('',#784,#193);
#131=LINE('',#786,#194);
#132=LINE('',#791,#195);
#133=LINE('',#795,#196);
#134=LINE('',#797,#197);
#135=LINE('',#798,#198);
#136=LINE('',#801,#199);
#137=LINE('',#802,#200);
#138=LINE('',#805,#201);
#139=LINE('',#806,#202);
#140=LINE('',#807,#203);
#141=LINE('',#808,#204);
#142=LINE('',#810,#205);
#143=LINE('',#811,#206);
#144=LINE('',#812,#207);
#145=LINE('',#814,#208);
#146=LINE('',#816,#209);
#147=LINE('',#817,#210);
#148=LINE('',#818,#211);
#149=VECTOR('',#561,10.);
#150=VECTOR('',#562,10.);
#151=VECTOR('',#563,10.);
#152=VECTOR('',#564,10.);
#153=VECTOR('',#567,10.);
#154=VECTOR('',#568,10.);
#155=VECTOR('',#569,10.);
#156=VECTOR('',#570,10.);
#157=VECTOR('',#573,10.);
#158=VECTOR('',#574,10.);
#159=VECTOR('',#575,10.);
#160=VECTOR('',#578,10.);
#161=VECTOR('',#579,10.);
#162=VECTOR('',#580,10.);
#163=VECTOR('',#583,10.);
#164=VECTOR('',#584,10.);
#165=VECTOR('',#585,10.);
#166=VECTOR('',#586,10.);
#167=VECTOR('',#587,10.);
#168=VECTOR('',#588,10.);
#169=VECTOR('',#589,10.);
#170=VECTOR('',#590,10.);
#171=VECTOR('',#595,10.);
#172=VECTOR('',#596,10.);
#173=VECTOR('',#597,10.);
#174=VECTOR('',#598,10.);
#175=VECTOR('',#603,10.);
#176=VECTOR('',#604,10.);
#177=VECTOR('',#605,10.);
#178=VECTOR('',#606,10.);
#179=VECTOR('',#607,10.);
#180=VECTOR('',#608,10.);
#181=VECTOR('',#609,10.);
#182=VECTOR('',#610,10.);
#183=VECTOR('',#615,10.);
#184=VECTOR('',#616,10.);
#185=VECTOR('',#617,10.);
#186=VECTOR('',#618,10.);
#187=VECTOR('',#623,10.);
#188=VECTOR('',#624,10.);
#189=VECTOR('',#625,10.);
#190=VECTOR('',#628,10.);
#191=VECTOR('',#629,10.);
#192=VECTOR('',#632,10.);
#193=VECTOR('',#633,10.);
#194=VECTOR('',#636,10.);
#195=VECTOR('',#641,1.49999999999999);
#196=VECTOR('',#646,10.);
#197=VECTOR('',#647,10.);
#198=VECTOR('',#648,10.);
#199=VECTOR('',#651,10.);
#200=VECTOR('',#652,10.);
#201=VECTOR('',#655,10.);
#202=VECTOR('',#656,10.);
#203=VECTOR('',#657,10.);
#204=VECTOR('',#658,10.);
#205=VECTOR('',#661,10.);
#206=VECTOR('',#662,10.);
#207=VECTOR('',#663,10.);
#208=VECTOR('',#666,10.);
#209=VECTOR('',#669,10.);
#210=VECTOR('',#670,10.);
#211=VECTOR('',#671,10.);
#212=VERTEX_POINT('',#686);
#213=VERTEX_POINT('',#687);
#214=VERTEX_POINT('',#689);
#215=VERTEX_POINT('',#691);
#216=VERTEX_POINT('',#695);
#217=VERTEX_POINT('',#696);
#218=VERTEX_POINT('',#698);
#219=VERTEX_POINT('',#700);
#220=VERTEX_POINT('',#704);
#221=VERTEX_POINT('',#706);
#222=VERTEX_POINT('',#710);
#223=VERTEX_POINT('',#712);
#224=VERTEX_POINT('',#716);
#225=VERTEX_POINT('',#717);
#226=VERTEX_POINT('',#719);
#227=VERTEX_POINT('',#721);
#228=VERTEX_POINT('',#723);
#229=VERTEX_POINT('',#725);
#230=VERTEX_POINT('',#727);
#231=VERTEX_POINT('',#729);
#232=VERTEX_POINT('',#734);
#233=VERTEX_POINT('',#735);
#234=VERTEX_POINT('',#737);
#235=VERTEX_POINT('',#739);
#236=VERTEX_POINT('',#744);
#237=VERTEX_POINT('',#745);
#238=VERTEX_POINT('',#747);
#239=VERTEX_POINT('',#749);
#240=VERTEX_POINT('',#751);
#241=VERTEX_POINT('',#753);
#242=VERTEX_POINT('',#755);
#243=VERTEX_POINT('',#757);
#244=VERTEX_POINT('',#762);
#245=VERTEX_POINT('',#763);
#246=VERTEX_POINT('',#765);
#247=VERTEX_POINT('',#767);
#248=VERTEX_POINT('',#772);
#249=VERTEX_POINT('',#774);
#250=VERTEX_POINT('',#778);
#251=VERTEX_POINT('',#782);
#252=VERTEX_POINT('',#788);
#253=VERTEX_POINT('',#790);
#254=VERTEX_POINT('',#794);
#255=VERTEX_POINT('',#796);
#256=VERTEX_POINT('',#800);
#257=VERTEX_POINT('',#804);
#258=EDGE_CURVE('',#212,#213,#86,.T.);
#259=EDGE_CURVE('',#214,#212,#87,.T.);
#260=EDGE_CURVE('',#215,#214,#88,.T.);
#261=EDGE_CURVE('',#213,#215,#89,.T.);
#262=EDGE_CURVE('',#216,#217,#90,.T.);
#263=EDGE_CURVE('',#218,#216,#91,.T.);
#264=EDGE_CURVE('',#219,#218,#92,.T.);
#265=EDGE_CURVE('',#217,#219,#93,.T.);
#266=EDGE_CURVE('',#220,#212,#94,.T.);
#267=EDGE_CURVE('',#220,#221,#95,.T.);
#268=EDGE_CURVE('',#214,#221,#96,.T.);
#269=EDGE_CURVE('',#222,#216,#97,.T.);
#270=EDGE_CURVE('',#222,#223,#98,.T.);
#271=EDGE_CURVE('',#218,#223,#99,.T.);
#272=EDGE_CURVE('',#224,#225,#100,.T.);
#273=EDGE_CURVE('',#226,#225,#101,.T.);
#274=EDGE_CURVE('',#226,#227,#102,.T.);
#275=EDGE_CURVE('',#227,#228,#103,.T.);
#276=EDGE_CURVE('',#228,#229,#104,.T.);
#277=EDGE_CURVE('',#230,#229,#105,.T.);
#278=EDGE_CURVE('',#230,#231,#106,.T.);
#279=EDGE_CURVE('',#231,#224,#107,.T.);
#280=EDGE_CURVE('',#223,#219,#24,.T.);
#281=EDGE_CURVE('',#232,#233,#108,.T.);
#282=EDGE_CURVE('',#234,#232,#109,.T.);
#283=EDGE_CURVE('',#235,#234,#110,.T.);
#284=EDGE_CURVE('',#233,#235,#111,.T.);
#285=EDGE_CURVE('',#217,#222,#25,.T.);
#286=EDGE_CURVE('',#236,#237,#112,.T.);
#287=EDGE_CURVE('',#237,#238,#113,.T.);
#288=EDGE_CURVE('',#238,#239,#114,.T.);
#289=EDGE_CURVE('',#240,#239,#115,.T.);
#290=EDGE_CURVE('',#241,#240,#116,.T.);
#291=EDGE_CURVE('',#242,#241,#117,.T.);
#292=EDGE_CURVE('',#243,#242,#118,.T.);
#293=EDGE_CURVE('',#236,#243,#119,.T.);
#294=EDGE_CURVE('',#213,#220,#26,.T.);
#295=EDGE_CURVE('',#244,#245,#120,.T.);
#296=EDGE_CURVE('',#246,#244,#121,.T.);
#297=EDGE_CURVE('',#247,#246,#122,.T.);
#298=EDGE_CURVE('',#245,#247,#123,.T.);
#299=EDGE_CURVE('',#221,#215,#27,.T.);
#300=EDGE_CURVE('',#236,#248,#124,.T.);
#301=EDGE_CURVE('',#249,#248,#125,.T.);
#302=EDGE_CURVE('',#237,#249,#126,.T.);
#303=EDGE_CURVE('',#250,#249,#127,.T.);
#304=EDGE_CURVE('',#238,#250,#128,.T.);
#305=EDGE_CURVE('',#251,#250,#129,.T.);
#306=EDGE_CURVE('',#239,#251,#130,.T.);
#307=EDGE_CURVE('',#248,#251,#131,.T.);
#308=EDGE_CURVE('',#252,#252,#28,.T.);
#309=EDGE_CURVE('',#252,#253,#132,.T.);
#310=EDGE_CURVE('',#253,#253,#29,.T.);
#311=EDGE_CURVE('',#254,#224,#133,.T.);
#312=EDGE_CURVE('',#231,#255,#134,.T.);
#313=EDGE_CURVE('',#255,#254,#135,.T.);
#314=EDGE_CURVE('',#256,#254,#136,.T.);
#315=EDGE_CURVE('',#225,#256,#137,.T.);
#316=EDGE_CURVE('',#257,#256,#138,.T.);
#317=EDGE_CURVE('',#257,#230,#139,.T.);
#318=EDGE_CURVE('',#229,#240,#140,.T.);
#319=EDGE_CURVE('',#243,#226,#141,.T.);
#320=EDGE_CURVE('',#242,#246,#142,.T.);
#321=EDGE_CURVE('',#235,#244,#143,.T.);
#322=EDGE_CURVE('',#234,#227,#144,.T.);
#323=EDGE_CURVE('',#257,#255,#145,.T.);
#324=EDGE_CURVE('',#232,#228,#146,.T.);
#325=EDGE_CURVE('',#233,#245,#147,.T.);
#326=EDGE_CURVE('',#241,#247,#148,.T.);
#327=ORIENTED_EDGE('',*,*,#258,.F.);
#328=ORIENTED_EDGE('',*,*,#259,.F.);
#329=ORIENTED_EDGE('',*,*,#260,.F.);
#330=ORIENTED_EDGE('',*,*,#261,.F.);
#331=ORIENTED_EDGE('',*,*,#262,.F.);
#332=ORIENTED_EDGE('',*,*,#263,.F.);
#333=ORIENTED_EDGE('',*,*,#264,.F.);
#334=ORIENTED_EDGE('',*,*,#265,.F.);
#335=ORIENTED_EDGE('',*,*,#266,.F.);
#336=ORIENTED_EDGE('',*,*,#267,.T.);
#337=ORIENTED_EDGE('',*,*,#268,.F.);
#338=ORIENTED_EDGE('',*,*,#259,.T.);
#339=ORIENTED_EDGE('',*,*,#269,.F.);
#340=ORIENTED_EDGE('',*,*,#270,.T.);
#341=ORIENTED_EDGE('',*,*,#271,.F.);
#342=ORIENTED_EDGE('',*,*,#263,.T.);
#343=ORIENTED_EDGE('',*,*,#272,.T.);
#344=ORIENTED_EDGE('',*,*,#273,.F.);
#345=ORIENTED_EDGE('',*,*,#274,.T.);
#346=ORIENTED_EDGE('',*,*,#275,.T.);
#347=ORIENTED_EDGE('',*,*,#276,.T.);
#348=ORIENTED_EDGE('',*,*,#277,.F.);
#349=ORIENTED_EDGE('',*,*,#278,.T.);
#350=ORIENTED_EDGE('',*,*,#279,.T.);
#351=ORIENTED_EDGE('',*,*,#264,.T.);
#352=ORIENTED_EDGE('',*,*,#271,.T.);
#353=ORIENTED_EDGE('',*,*,#280,.T.);
#354=ORIENTED_EDGE('',*,*,#281,.F.);
#355=ORIENTED_EDGE('',*,*,#282,.F.);
#356=ORIENTED_EDGE('',*,*,#283,.F.);
#357=ORIENTED_EDGE('',*,*,#284,.F.);
#358=ORIENTED_EDGE('',*,*,#269,.T.);
#359=ORIENTED_EDGE('',*,*,#262,.T.);
#360=ORIENTED_EDGE('',*,*,#285,.T.);
#361=ORIENTED_EDGE('',*,*,#286,.T.);
#362=ORIENTED_EDGE('',*,*,#287,.T.);
#363=ORIENTED_EDGE('',*,*,#288,.T.);
#364=ORIENTED_EDGE('',*,*,#289,.F.);
#365=ORIENTED_EDGE('',*,*,#290,.F.);
#366=ORIENTED_EDGE('',*,*,#291,.F.);
#367=ORIENTED_EDGE('',*,*,#292,.F.);
#368=ORIENTED_EDGE('',*,*,#293,.F.);
#369=ORIENTED_EDGE('',*,*,#266,.T.);
#370=ORIENTED_EDGE('',*,*,#258,.T.);
#371=ORIENTED_EDGE('',*,*,#294,.T.);
#372=ORIENTED_EDGE('',*,*,#295,.F.);
#373=ORIENTED_EDGE('',*,*,#296,.F.);
#374=ORIENTED_EDGE('',*,*,#297,.F.);
#375=ORIENTED_EDGE('',*,*,#298,.F.);
#376=ORIENTED_EDGE('',*,*,#260,.T.);
#377=ORIENTED_EDGE('',*,*,#268,.T.);
#378=ORIENTED_EDGE('',*,*,#299,.T.);
#379=ORIENTED_EDGE('',*,*,#286,.F.);
#380=ORIENTED_EDGE('',*,*,#300,.T.);
#381=ORIENTED_EDGE('',*,*,#301,.F.);
#382=ORIENTED_EDGE('',*,*,#302,.F.);
#383=ORIENTED_EDGE('',*,*,#287,.F.);
#384=ORIENTED_EDGE('',*,*,#302,.T.);
#385=ORIENTED_EDGE('',*,*,#303,.F.);
#386=ORIENTED_EDGE('',*,*,#304,.F.);
#387=ORIENTED_EDGE('',*,*,#288,.F.);
#388=ORIENTED_EDGE('',*,*,#304,.T.);
#389=ORIENTED_EDGE('',*,*,#305,.F.);
#390=ORIENTED_EDGE('',*,*,#306,.F.);
#391=ORIENTED_EDGE('',*,*,#305,.T.);
#392=ORIENTED_EDGE('',*,*,#303,.T.);
#393=ORIENTED_EDGE('',*,*,#301,.T.);
#394=ORIENTED_EDGE('',*,*,#307,.T.);
#395=ORIENTED_EDGE('',*,*,#308,.F.);
#396=ORIENTED_EDGE('',*,*,#309,.T.);
#397=ORIENTED_EDGE('',*,*,#310,.F.);
#398=ORIENTED_EDGE('',*,*,#309,.F.);
#399=ORIENTED_EDGE('',*,*,#311,.T.);
#400=ORIENTED_EDGE('',*,*,#279,.F.);
#401=ORIENTED_EDGE('',*,*,#312,.T.);
#402=ORIENTED_EDGE('',*,*,#313,.T.);
#403=ORIENTED_EDGE('',*,*,#272,.F.);
#404=ORIENTED_EDGE('',*,*,#311,.F.);
#405=ORIENTED_EDGE('',*,*,#314,.F.);
#406=ORIENTED_EDGE('',*,*,#315,.F.);
#407=ORIENTED_EDGE('',*,*,#273,.T.);
#408=ORIENTED_EDGE('',*,*,#315,.T.);
#409=ORIENTED_EDGE('',*,*,#316,.F.);
#410=ORIENTED_EDGE('',*,*,#317,.T.);
#411=ORIENTED_EDGE('',*,*,#277,.T.);
#412=ORIENTED_EDGE('',*,*,#318,.T.);
#413=ORIENTED_EDGE('',*,*,#289,.T.);
#414=ORIENTED_EDGE('',*,*,#306,.T.);
#415=ORIENTED_EDGE('',*,*,#307,.F.);
#416=ORIENTED_EDGE('',*,*,#300,.F.);
#417=ORIENTED_EDGE('',*,*,#293,.T.);
#418=ORIENTED_EDGE('',*,*,#319,.T.);
#419=ORIENTED_EDGE('',*,*,#308,.T.);
#420=ORIENTED_EDGE('',*,*,#274,.F.);
#421=ORIENTED_EDGE('',*,*,#319,.F.);
#422=ORIENTED_EDGE('',*,*,#292,.T.);
#423=ORIENTED_EDGE('',*,*,#320,.T.);
#424=ORIENTED_EDGE('',*,*,#296,.T.);
#425=ORIENTED_EDGE('',*,*,#321,.F.);
#426=ORIENTED_EDGE('',*,*,#283,.T.);
#427=ORIENTED_EDGE('',*,*,#322,.T.);
#428=ORIENTED_EDGE('',*,*,#278,.F.);
#429=ORIENTED_EDGE('',*,*,#317,.F.);
#430=ORIENTED_EDGE('',*,*,#323,.T.);
#431=ORIENTED_EDGE('',*,*,#312,.F.);
#432=ORIENTED_EDGE('',*,*,#276,.F.);
#433=ORIENTED_EDGE('',*,*,#324,.F.);
#434=ORIENTED_EDGE('',*,*,#281,.T.);
#435=ORIENTED_EDGE('',*,*,#325,.T.);
#436=ORIENTED_EDGE('',*,*,#298,.T.);
#437=ORIENTED_EDGE('',*,*,#326,.F.);
#438=ORIENTED_EDGE('',*,*,#290,.T.);
#439=ORIENTED_EDGE('',*,*,#318,.F.);
#440=ORIENTED_EDGE('',*,*,#314,.T.);
#441=ORIENTED_EDGE('',*,*,#313,.F.);
#442=ORIENTED_EDGE('',*,*,#323,.F.);
#443=ORIENTED_EDGE('',*,*,#316,.T.);
#444=ORIENTED_EDGE('',*,*,#267,.F.);
#445=ORIENTED_EDGE('',*,*,#294,.F.);
#446=ORIENTED_EDGE('',*,*,#261,.T.);
#447=ORIENTED_EDGE('',*,*,#299,.F.);
#448=ORIENTED_EDGE('',*,*,#265,.T.);
#449=ORIENTED_EDGE('',*,*,#280,.F.);
#450=ORIENTED_EDGE('',*,*,#270,.F.);
#451=ORIENTED_EDGE('',*,*,#285,.F.);
#452=ORIENTED_EDGE('',*,*,#282,.T.);
#453=ORIENTED_EDGE('',*,*,#324,.T.);
#454=ORIENTED_EDGE('',*,*,#275,.F.);
#455=ORIENTED_EDGE('',*,*,#322,.F.);
#456=ORIENTED_EDGE('',*,*,#297,.T.);
#457=ORIENTED_EDGE('',*,*,#320,.F.);
#458=ORIENTED_EDGE('',*,*,#291,.T.);
#459=ORIENTED_EDGE('',*,*,#326,.T.);
#460=ORIENTED_EDGE('',*,*,#321,.T.);
#461=ORIENTED_EDGE('',*,*,#295,.T.);
#462=ORIENTED_EDGE('',*,*,#325,.F.);
#463=ORIENTED_EDGE('',*,*,#284,.T.);
#464=ORIENTED_EDGE('',*,*,#310,.T.);
#465=PLANE('',#526);
#466=PLANE('',#527);
#467=PLANE('',#528);
#468=PLANE('',#529);
#469=PLANE('',#530);
#470=PLANE('',#532);
#471=PLANE('',#534);
#472=PLANE('',#536);
#473=PLANE('',#538);
#474=PLANE('',#539);
#475=PLANE('',#540);
#476=PLANE('',#541);
#477=PLANE('',#545);
#478=PLANE('',#546);
#479=PLANE('',#547);
#480=PLANE('',#548);
#481=PLANE('',#549);
#482=PLANE('',#550);
#483=PLANE('',#551);
#484=PLANE('',#554);
#485=PLANE('',#555);
#486=PLANE('',#556);
#487=ADVANCED_FACE('',(#30),#465,.F.);
#488=ADVANCED_FACE('',(#31),#466,.F.);
#489=ADVANCED_FACE('',(#32),#467,.F.);
#490=ADVANCED_FACE('',(#33),#468,.F.);
#491=ADVANCED_FACE('',(#34,#18),#469,.T.);
#492=ADVANCED_FACE('',(#35,#19),#470,.F.);
#493=ADVANCED_FACE('',(#36,#20),#471,.F.);
#494=ADVANCED_FACE('',(#37,#21),#472,.F.);
#495=ADVANCED_FACE('',(#38),#473,.T.);
#496=ADVANCED_FACE('',(#39),#474,.T.);
#497=ADVANCED_FACE('',(#40),#475,.T.);
#498=ADVANCED_FACE('',(#41),#476,.T.);
#499=ADVANCED_FACE('',(#42),#15,.F.);
#500=ADVANCED_FACE('',(#43),#477,.T.);
#501=ADVANCED_FACE('',(#44),#478,.F.);
#502=ADVANCED_FACE('',(#45,#22),#479,.T.);
#503=ADVANCED_FACE('',(#46),#480,.T.);
#504=ADVANCED_FACE('',(#47),#481,.F.);
#505=ADVANCED_FACE('',(#48),#482,.T.);
#506=ADVANCED_FACE('',(#49),#483,.T.);
#507=ADVANCED_FACE('',(#50),#16,.F.);
#508=ADVANCED_FACE('',(#51),#17,.F.);
#509=ADVANCED_FACE('',(#52),#484,.T.);
#510=ADVANCED_FACE('',(#53),#485,.T.);
#511=ADVANCED_FACE('',(#54,#23),#486,.T.);
#512=CLOSED_SHELL('',(#487,#488,#489,#490,#491,#492,#493,#494,#495,#496,
#497,#498,#499,#500,#501,#502,#503,#504,#505,#506,#507,#508,#509,#510,#511));
#513=DERIVED_UNIT_ELEMENT(#515,1.);
#514=DERIVED_UNIT_ELEMENT(#830,-3.);
#515=(
MASS_UNIT()
NAMED_UNIT(*)
SI_UNIT(.KILO.,.GRAM.)
);
#516=DERIVED_UNIT((#513,#514));
#517=MEASURE_REPRESENTATION_ITEM('density measure',
POSITIVE_RATIO_MEASURE(7850.),#516);
#518=PROPERTY_DEFINITION_REPRESENTATION(#523,#520);
#519=PROPERTY_DEFINITION_REPRESENTATION(#524,#521);
#520=REPRESENTATION('material name',(#522),#827);
#521=REPRESENTATION('density',(#517),#827);
#522=DESCRIPTIVE_REPRESENTATION_ITEM('Steel','Steel');
#523=PROPERTY_DEFINITION('material property','material name',#837);
#524=PROPERTY_DEFINITION('material property','density of part',#837);
#525=AXIS2_PLACEMENT_3D('',#684,#557,#558);
#526=AXIS2_PLACEMENT_3D('',#685,#559,#560);
#527=AXIS2_PLACEMENT_3D('',#694,#565,#566);
#528=AXIS2_PLACEMENT_3D('',#703,#571,#572);
#529=AXIS2_PLACEMENT_3D('',#709,#576,#577);
#530=AXIS2_PLACEMENT_3D('',#715,#581,#582);
#531=AXIS2_PLACEMENT_3D('',#732,#591,#592);
#532=AXIS2_PLACEMENT_3D('',#733,#593,#594);
#533=AXIS2_PLACEMENT_3D('',#742,#599,#600);
#534=AXIS2_PLACEMENT_3D('',#743,#601,#602);
#535=AXIS2_PLACEMENT_3D('',#760,#611,#612);
#536=AXIS2_PLACEMENT_3D('',#761,#613,#614);
#537=AXIS2_PLACEMENT_3D('',#770,#619,#620);
#538=AXIS2_PLACEMENT_3D('',#771,#621,#622);
#539=AXIS2_PLACEMENT_3D('',#777,#626,#627);
#540=AXIS2_PLACEMENT_3D('',#781,#630,#631);
#541=AXIS2_PLACEMENT_3D('',#785,#634,#635);
#542=AXIS2_PLACEMENT_3D('',#787,#637,#638);
#543=AXIS2_PLACEMENT_3D('',#789,#639,#640);
#544=AXIS2_PLACEMENT_3D('',#792,#642,#643);
#545=AXIS2_PLACEMENT_3D('',#793,#644,#645);
#546=AXIS2_PLACEMENT_3D('',#799,#649,#650);
#547=AXIS2_PLACEMENT_3D('',#803,#653,#654);
#548=AXIS2_PLACEMENT_3D('',#809,#659,#660);
#549=AXIS2_PLACEMENT_3D('',#813,#664,#665);
#550=AXIS2_PLACEMENT_3D('',#815,#667,#668);
#551=AXIS2_PLACEMENT_3D('',#819,#672,#673);
#552=AXIS2_PLACEMENT_3D('',#820,#674,#675);
#553=AXIS2_PLACEMENT_3D('',#821,#676,#677);
#554=AXIS2_PLACEMENT_3D('',#822,#678,#679);
#555=AXIS2_PLACEMENT_3D('',#823,#680,#681);
#556=AXIS2_PLACEMENT_3D('',#824,#682,#683);
#557=DIRECTION('axis',(0.,0.,1.));
#558=DIRECTION('refdir',(1.,0.,0.));
#559=DIRECTION('center_axis',(-0.642787609686859,-0.541675220395775,-0.54167522044325));
#560=DIRECTION('ref_axis',(-0.76604444311871,0.454519477652329,0.45451947769221));
#561=DIRECTION('',(0.76604444311871,-0.454519477649427,-0.454519477695112));
#562=DIRECTION('',(-2.507797890918E-14,0.707106781217549,-0.707106781155546));
#563=DIRECTION('',(-0.76604444311871,0.454519477649529,0.45451947769501));
#564=DIRECTION('',(5.39412958744378E-12,-0.707106781213725,0.70710678115937));
#565=DIRECTION('center_axis',(-0.642787609686859,-0.541675220395775,-0.54167522044325));
#566=DIRECTION('ref_axis',(-0.76604444311871,0.454519477652329,0.45451947769221));
#567=DIRECTION('',(0.76604444311871,-0.454519477649529,-0.45451947769501));
#568=DIRECTION('',(-2.507797890918E-14,0.707106781217549,-0.707106781155546));
#569=DIRECTION('',(-0.76604444311871,0.454519477649427,0.454519477695112));
#570=DIRECTION('',(5.39412958744378E-12,-0.707106781213725,0.70710678115937));
#571=DIRECTION('center_axis',(-0.642787609686864,0.541675220395749,0.54167522044327));
#572=DIRECTION('ref_axis',(0.766044443118706,0.454519477652359,0.454519477692187));
#573=DIRECTION('',(-0.766044443118706,-0.454519477655274,-0.454519477689272));
#574=DIRECTION('',(5.39412958744378E-12,-0.707106781213725,0.70710678115937));
#575=DIRECTION('',(0.766044443118706,0.454519477655231,0.454519477689315));
#576=DIRECTION('center_axis',(-0.642787609686864,0.541675220395749,0.54167522044327));
#577=DIRECTION('ref_axis',(0.766044443118706,0.454519477652359,0.454519477692187));
#578=DIRECTION('',(-0.766044443118706,-0.454519477655231,-0.454519477689315));
#579=DIRECTION('',(5.39412958744378E-12,-0.707106781213725,0.70710678115937));
#580=DIRECTION('',(0.766044443118706,0.454519477655274,0.454519477689272));
#581=DIRECTION('center_axis',(5.39412958744378E-12,-0.707106781217539,0.707106781155556));
#582=DIRECTION('ref_axis',(-5.39442564741897E-12,-0.707106781155556,-0.707106781217539));
#583=DIRECTION('',(1.,7.63019530048142E-12,1.74408105493248E-15));
#584=DIRECTION('',(5.39656478950583E-12,-0.707106781155556,-0.707106781217539));
#585=DIRECTION('',(-1.,-7.62662155651128E-12,-5.27355936696949E-15));
#586=DIRECTION('',(5.39659609005259E-12,-0.707106781155554,-0.707106781217541));
#587=DIRECTION('',(1.,7.62662155651128E-12,5.27355936696949E-15));
#588=DIRECTION('',(5.39656478950583E-12,-0.707106781155556,-0.707106781217539));
#589=DIRECTION('',(-1.,-3.81422561004767E-12,3.81422560971332E-12));
#590=DIRECTION('',(0.,0.707106781155556,0.707106781217539));
#591=DIRECTION('center_axis',(-5.39412958744378E-12,0.707106781217539,-0.707106781155556));
#592=DIRECTION('ref_axis',(-2.22044604925531E-16,-0.70710678115937,-0.707106781213725));
#593=DIRECTION('center_axis',(5.26023669067399E-12,-0.707106781217493,0.707106781155602));
#594=DIRECTION('ref_axis',(-5.32929256330174E-12,-0.707106781155602,-0.707106781217493));
#595=DIRECTION('',(1.,7.53541673503832E-12,9.64783808399261E-14));
#596=DIRECTION('',(5.39659609005296E-12,-0.707106781155602,-0.707106781217493));
#597=DIRECTION('',(-1.,-7.53541673503832E-12,-9.64783808399261E-14));
#598=DIRECTION('',(-5.39659609005259E-12,0.707106781155554,0.707106781217541));
#599=DIRECTION('center_axis',(5.26023669067399E-12,-0.707106781217493,0.707106781155602));
#600=DIRECTION('ref_axis',(-2.22044604925531E-16,-0.70710678115937,-0.707106781213725));
#601=DIRECTION('center_axis',(5.39412958744378E-12,-0.707106781217539,0.707106781155556));
#602=DIRECTION('ref_axis',(-5.39442564741897E-12,-0.707106781155556,-0.707106781217539));
#603=DIRECTION('',(-1.,-3.8142256100477E-12,3.81422560971329E-12));
#604=DIRECTION('',(-4.62360308769606E-12,-0.707106781155556,-0.707106781217539));
#605=DIRECTION('',(1.,3.82212296287317E-12,-3.80632825688712E-12));
#606=DIRECTION('',(-5.39659609005259E-12,0.707106781155554,0.707106781217541));
#607=DIRECTION('',(1.,7.62662155651128E-12,5.27355936696949E-15));
#608=DIRECTION('',(5.39659609005259E-12,-0.707106781155554,-0.707106781217541));
#609=DIRECTION('',(-1.,-7.62662155651128E-12,-5.27355936696949E-15));
#610=DIRECTION('',(-5.39659609005259E-12,0.707106781155554,0.707106781217541));
#611=DIRECTION('center_axis',(5.39412958744378E-12,-0.707106781217539,0.707106781155556));
#612=DIRECTION('ref_axis',(-2.22044604925531E-16,-0.70710678115937,-0.707106781213725));
#613=DIRECTION('center_axis',(-5.26023669067399E-12,0.707106781217493,-0.707106781155602));
#614=DIRECTION('ref_axis',(5.32929256330174E-12,0.707106781155602,0.707106781217493));
#615=DIRECTION('',(5.39659609005259E-12,-0.707106781155554,-0.707106781217541));
#616=DIRECTION('',(1.,7.53541673503832E-12,9.64783808399261E-14));
#617=DIRECTION('',(-5.39659609005296E-12,0.707106781155602,0.707106781217493));
#618=DIRECTION('',(-1.,-7.53541673503832E-12,-9.64783808399261E-14));
#619=DIRECTION('center_axis',(-5.26023669067399E-12,0.707106781217493,-0.707106781155602));
#620=DIRECTION('ref_axis',(-2.22044604925531E-16,-0.70710678115937,-0.707106781213725));
#621=DIRECTION('center_axis',(0.,0.70710678115555,0.707106781217545));
#622=DIRECTION('ref_axis',(1.,0.,0.));
#623=DIRECTION('',(0.,0.707106781217545,-0.70710678115555));
#624=DIRECTION('',(1.,0.,0.));
#625=DIRECTION('',(0.,0.707106781217545,-0.70710678115555));
#626=DIRECTION('center_axis',(-1.,3.26938109668162E-12,3.26938109696826E-12));
#627=DIRECTION('ref_axis',(4.62360308769606E-12,0.707106781155556,0.707106781217539));
#628=DIRECTION('',(4.62360308769606E-12,0.707106781155556,0.707106781217539));
#629=DIRECTION('',(0.,0.707106781217545,-0.70710678115555));
#630=DIRECTION('center_axis',(1.11685434731233E-14,-0.70710678115555,-0.707106781217545));
#631=DIRECTION('ref_axis',(-1.,-5.923014618934E-15,-9.87169103253736E-15));
#632=DIRECTION('',(-1.,-5.923014618934E-15,-9.87169103253736E-15));
#633=DIRECTION('',(0.,0.707106781217545,-0.70710678115555));
#634=DIRECTION('center_axis',(0.,0.707106781217545,-0.70710678115555));
#635=DIRECTION('ref_axis',(-1.,0.,0.));
#636=DIRECTION('',(-4.62360308769611E-12,-0.707106781155558,-0.707106781217537));
#637=DIRECTION('center_axis',(-1.,0.,0.));
#638=DIRECTION('ref_axis',(0.,1.,0.));
#639=DIRECTION('center_axis',(-1.,-7.62623297845266E-12,-5.6621374255883E-15));
#640=DIRECTION('ref_axis',(0.,1.,0.));
#641=DIRECTION('',(-1.,0.,0.));
#642=DIRECTION('center_axis',(1.,7.62623297845266E-12,5.6621374255883E-15));
#643=DIRECTION('ref_axis',(0.,1.,0.));
#644=DIRECTION('center_axis',(-1.,0.,0.));
#645=DIRECTION('ref_axis',(0.,0.,1.));
#646=DIRECTION('',(0.,0.707106781217539,-0.707106781155556));
#647=DIRECTION('',(0.,-0.707106781217539,0.707106781155556));
#648=DIRECTION('',(0.,0.707106781155556,0.707106781217539));
#649=DIRECTION('center_axis',(5.3942036023121E-12,-0.707106781155556,-0.707106781217539));
#650=DIRECTION('ref_axis',(-1.,0.,-7.62855589225723E-12));
#651=DIRECTION('',(-1.,0.,0.));
#652=DIRECTION('',(5.38855731843924E-12,-0.707106781217539,0.707106781155556));
#653=DIRECTION('center_axis',(1.,7.62623297845266E-12,5.6621374255883E-15));
#654=DIRECTION('ref_axis',(5.39659609005259E-12,-0.707106781155554,-0.707106781217541));
#655=DIRECTION('',(0.,0.707106781155556,0.707106781217539));
#656=DIRECTION('',(-5.38855731843924E-12,0.707106781217539,-0.707106781155556));
#657=DIRECTION('',(-5.38863398347189E-12,0.70710678121754,-0.707106781155555));
#658=DIRECTION('',(5.39407407629255E-12,-0.707106781217539,0.707106781155556));
#659=DIRECTION('center_axis',(-5.39659609005261E-12,0.707106781155556,0.707106781217539));
#660=DIRECTION('ref_axis',(-1.,-7.62662155651128E-12,-5.27355936696949E-15));
#661=DIRECTION('',(5.39407407629255E-12,-0.707106781217539,0.707106781155556));
#662=DIRECTION('',(-5.38863398347189E-12,0.70710678121754,-0.707106781155555));
#663=DIRECTION('',(5.39407407629255E-12,-0.707106781217539,0.707106781155556));
#664=DIRECTION('center_axis',(-5.3942036023121E-12,0.707106781155556,0.707106781217539));
#665=DIRECTION('ref_axis',(1.,0.,7.62855589225723E-12));
#666=DIRECTION('',(-1.,0.,0.));
#667=DIRECTION('center_axis',(5.39659609005261E-12,-0.707106781155556,-0.707106781217539));
#668=DIRECTION('ref_axis',(1.,7.62662155651128E-12,5.27355936696949E-15));
#669=DIRECTION('',(5.39407407629255E-12,-0.707106781217539,0.707106781155556));
#670=DIRECTION('',(-5.26023669067399E-12,0.707106781217539,-0.707106781155556));
#671=DIRECTION('',(5.39407407629255E-12,-0.707106781217539,0.707106781155556));
#672=DIRECTION('center_axis',(0.,-0.707106781217539,0.707106781155556));
#673=DIRECTION('ref_axis',(0.,-0.707106781155556,-0.707106781217539));
#674=DIRECTION('center_axis',(-5.39412958744378E-12,0.707106781213725,-0.70710678115937));
#675=DIRECTION('ref_axis',(1.,3.81555897988054E-12,-3.81301471878244E-12));
#676=DIRECTION('center_axis',(-5.39412958744378E-12,0.707106781213725,-0.70710678115937));
#677=DIRECTION('ref_axis',(1.,3.82161894722329E-12,-3.806908492147E-12));
#678=DIRECTION('center_axis',(-1.,-7.63011875903885E-12,-1.77635683940025E-15));
#679=DIRECTION('ref_axis',(5.39659609005259E-12,-0.707106781155554,-0.707106781217541));
#680=DIRECTION('center_axis',(-1.,-7.63011875903885E-12,-1.77635683940025E-15));
#681=DIRECTION('ref_axis',(5.39659609005259E-12,-0.707106781155554,-0.707106781217541));
#682=DIRECTION('center_axis',(-1.,-7.62623297845266E-12,-5.6621374255883E-15));
#683=DIRECTION('ref_axis',(-5.39659609005259E-12,0.707106781155554,0.707106781217541));
#684=CARTESIAN_POINT('',(0.,0.,0.));
#685=CARTESIAN_POINT('Origin',(-126.959694168104,199.669192904009,308.377612104061));
#686=CARTESIAN_POINT('',(-128.329098493865,211.088307452377,298.583523217882));
#687=CARTESIAN_POINT('',(-126.959694168105,210.275794621788,297.771010387212));
#688=CARTESIAN_POINT('',(-126.887635788093,210.233040004171,297.72825576959));
#689=CARTESIAN_POINT('',(-128.329098493865,209.037697786847,300.634132883232));
#690=CARTESIAN_POINT('',(-128.329098493864,200.481705734603,309.190124934726));
#691=CARTESIAN_POINT('',(-126.959694168104,208.225184956258,299.821620052562));
#692=CARTESIAN_POINT('',(-126.887635788083,208.182430338635,299.778865434935));
#693=CARTESIAN_POINT('',(-126.959694168105,199.669192904078,308.377612103993));
#694=CARTESIAN_POINT('Origin',(-126.959694168104,199.669192904009,308.377612104061));
#695=CARTESIAN_POINT('',(-128.329098493864,202.532315399646,307.139515269863));
#696=CARTESIAN_POINT('',(-126.959694168104,201.719802569057,306.327002439193));
#697=CARTESIAN_POINT('',(-126.887635788054,201.677047951417,306.284247821549));
#698=CARTESIAN_POINT('',(-128.329098493864,200.481705734603,309.190124934726));
#699=CARTESIAN_POINT('',(-128.329098493864,200.481705734603,309.190124934726));
#700=CARTESIAN_POINT('',(-126.959694168104,199.669192904009,308.377612104061));
#701=CARTESIAN_POINT('',(-126.887635788045,199.62643828588,308.334857486896));
#702=CARTESIAN_POINT('',(-126.959694168105,199.669192904078,308.377612103993));
#703=CARTESIAN_POINT('Origin',(-128.329098493864,200.481705734603,309.190124934726));
#704=CARTESIAN_POINT('',(-126.959694168105,211.900820282976,299.396036048543));
#705=CARTESIAN_POINT('',(-127.647127633054,211.492943295918,298.988159061454));
#706=CARTESIAN_POINT('',(-126.959694168105,209.850210617446,301.446645713893));
#707=CARTESIAN_POINT('',(-126.959694168105,201.294218565274,310.002637765314));
#708=CARTESIAN_POINT('',(-127.647127633045,209.442333630394,301.03876872681));
#709=CARTESIAN_POINT('Origin',(-128.329098493864,200.481705734603,309.190124934726));
#710=CARTESIAN_POINT('',(-126.959694168104,203.344828230245,307.952028100524));
#711=CARTESIAN_POINT('',(-127.647127633016,202.93695124321,307.544151113458));
#712=CARTESIAN_POINT('',(-126.959694168104,201.294218565197,310.002637765391));
#713=CARTESIAN_POINT('',(-126.959694168105,201.294218565274,310.002637765314));
#714=CARTESIAN_POINT('',(-127.647127633007,200.886341577683,309.594760778815));
#715=CARTESIAN_POINT('Origin',(-125.877373298572,200.374305500527,309.082724701601));
#716=CARTESIAN_POINT('',(-122.537693683936,202.849179235165,311.557598435343));
#717=CARTESIAN_POINT('',(-116.175693683936,202.849179234646,311.557598435863));
#718=CARTESIAN_POINT('',(-121.776533491263,202.849179234603,311.557598435863));
#719=CARTESIAN_POINT('',(-116.175693683952,204.970499578113,313.678918779515));
#720=CARTESIAN_POINT('',(-116.175693683952,204.970499578113,313.678918779515));
#721=CARTESIAN_POINT('',(-132.579052913262,204.970499577987,313.678918779515));
#722=CARTESIAN_POINT('',(-119.175693683952,204.97049957809,313.678918779515));
#723=CARTESIAN_POINT('',(-132.579052913191,195.778111422965,304.486530623687));
#724=CARTESIAN_POINT('',(-132.579052913192,195.778111422965,304.486530623687));
#725=CARTESIAN_POINT('',(-116.175693683882,195.778111423091,304.486530623687));
#726=CARTESIAN_POINT('',(-116.579052913191,195.778111423087,304.486530623687));
#727=CARTESIAN_POINT('',(-116.175693683898,197.899431766558,306.607850967339));
#728=CARTESIAN_POINT('',(-116.175693683917,200.374305500602,309.082724701601));
#729=CARTESIAN_POINT('',(-122.537693683968,197.899431767076,306.60785096682));
#730=CARTESIAN_POINT('',(-123.026533491262,197.899431766531,306.607850967366));
#731=CARTESIAN_POINT('',(-122.537693683936,200.374305500559,309.082724701607));
#732=CARTESIAN_POINT('Origin',(-125.995512753575,200.481705734123,309.190124935206));
#733=CARTESIAN_POINT('Origin',(-125.877373298587,202.424915166059,307.032115036249));
#734=CARTESIAN_POINT('',(-132.579052913207,197.828721088496,302.435920958336));
#735=CARTESIAN_POINT('',(-119.175693683898,197.828721088598,302.435920958336));
#736=CARTESIAN_POINT('',(-129.22821310588,197.828721088523,302.435920958335));
#737=CARTESIAN_POINT('',(-132.579052913277,207.021109243518,311.628309114164));
#738=CARTESIAN_POINT('',(-132.57905291326,204.723012204765,309.330212075205));
#739=CARTESIAN_POINT('',(-119.175693683968,207.02110924362,311.628309114164));
#740=CARTESIAN_POINT('',(-122.526533491295,207.021109243596,311.628309114163));
#741=CARTESIAN_POINT('',(-119.175693683898,197.828721088598,302.435920958336));
#742=CARTESIAN_POINT('Origin',(-125.99551275359,202.532315399644,307.139515269843));
#743=CARTESIAN_POINT('Origin',(-125.877373298653,210.980907218791,298.476122984268));
#744=CARTESIAN_POINT('',(-116.175693683936,213.455780953428,300.95099671801));
#745=CARTESIAN_POINT('',(-122.537693683936,213.455780953428,300.95099671801));
#746=CARTESIAN_POINT('',(-124.207533491294,213.455780952878,300.95099671856));
#747=CARTESIAN_POINT('',(-122.537693683968,208.506033485339,296.001249249487));
#748=CARTESIAN_POINT('',(-122.53769368396,209.743470351794,297.238686117137));
#749=CARTESIAN_POINT('',(-116.175693683968,208.506033485339,296.001249249487));
#750=CARTESIAN_POINT('',(-121.02653349131,208.506033484801,296.001249250025));
#751=CARTESIAN_POINT('',(-116.175693683963,206.384713141353,293.879928906354));
#752=CARTESIAN_POINT('',(-116.175693684033,215.577101296376,303.072317062182));
#753=CARTESIAN_POINT('',(-132.579052913272,206.384713141228,293.879928906354));
#754=CARTESIAN_POINT('',(-116.579052913272,206.38471314135,293.879928906354));
#755=CARTESIAN_POINT('',(-132.579052913342,215.577101296251,303.072317062182));
#756=CARTESIAN_POINT('',(-132.579052913272,206.384713141228,293.879928906354));
#757=CARTESIAN_POINT('',(-116.175693684033,215.577101296376,303.072317062182));
#758=CARTESIAN_POINT('',(-119.175693684033,215.577101296353,303.072317062182));
#759=CARTESIAN_POINT('',(-116.175693684033,215.577101296376,303.072317062182));
#760=CARTESIAN_POINT('Origin',(-125.995512753656,211.088307452329,298.583523217816));
#761=CARTESIAN_POINT('Origin',(-125.877373298637,208.930297553261,300.526732649618));
#762=CARTESIAN_POINT('',(-119.175693684017,213.526491630822,305.122926727533));
#763=CARTESIAN_POINT('',(-119.175693683947,204.3341034758,295.930538571705));
#764=CARTESIAN_POINT('',(-119.175693683947,204.3341034758,295.930538571705));
#765=CARTESIAN_POINT('',(-132.579052913327,213.52649163072,305.122926727533));
#766=CARTESIAN_POINT('',(-122.526533491344,213.526491630797,305.122926727532));
#767=CARTESIAN_POINT('',(-132.579052913257,204.334103475697,295.930538571705));
#768=CARTESIAN_POINT('',(-132.579052913309,211.228394591966,302.824829688574));
#769=CARTESIAN_POINT('',(-129.228213105929,204.334103475724,295.930538571704));
#770=CARTESIAN_POINT('Origin',(-125.99551275364,209.03769778681,300.634132883177));
#771=CARTESIAN_POINT('Origin',(-122.537693683936,213.455780953428,300.95099671801));
#772=CARTESIAN_POINT('',(-116.175693683936,214.869994515863,299.536783155699));
#773=CARTESIAN_POINT('',(-116.175693683936,213.455780953428,300.95099671801));
#774=CARTESIAN_POINT('',(-122.537693683936,214.869994515863,299.536783155699));
#775=CARTESIAN_POINT('',(-116.175693683936,214.869994515863,299.536783155699));
#776=CARTESIAN_POINT('',(-122.537693683936,213.455780953428,300.95099671801));
#777=CARTESIAN_POINT('Origin',(-122.537693683968,208.506033485339,296.001249249487));
#778=CARTESIAN_POINT('',(-122.537693683968,209.920247047775,294.587035687176));
#779=CARTESIAN_POINT('',(-122.537693683936,214.869994515863,299.536783155699));
#780=CARTESIAN_POINT('',(-122.537693683968,208.506033485339,296.001249249487));
#781=CARTESIAN_POINT('Origin',(-116.175693683968,208.506033485339,296.001249249487));
#782=CARTESIAN_POINT('',(-116.175693683968,209.920247047775,294.587035687176));
#783=CARTESIAN_POINT('',(-122.537693683968,209.920247047775,294.587035687176));
#784=CARTESIAN_POINT('',(-116.175693683968,208.506033485339,296.001249249487));
#785=CARTESIAN_POINT('Origin',(-119.356693683952,212.395120781819,297.061909421437));
#786=CARTESIAN_POINT('',(-116.175693683968,209.920247047775,294.587035687176));
#787=CARTESIAN_POINT('Origin',(-103.175693683952,205.677606360772,303.779423842935));
#788=CARTESIAN_POINT('',(-116.175693683968,204.177606360772,303.779423842935));
#789=CARTESIAN_POINT('Origin',(-116.175693683968,205.677606360772,303.779423842935));
#790=CARTESIAN_POINT('',(-119.175693683952,204.177606360772,303.779423842935));
#791=CARTESIAN_POINT('',(-103.175693683952,204.177606360772,303.779423842935));
#792=CARTESIAN_POINT('Origin',(-119.175693683898,205.677606360772,303.779423842935));
#793=CARTESIAN_POINT('Origin',(-122.537693683936,199.667198719903,309.789831482237));
#794=CARTESIAN_POINT('',(-122.537693683936,201.43496567273,312.971811997654));
#795=CARTESIAN_POINT('',(-122.537693683952,203.556286016102,310.850491654438));
#796=CARTESIAN_POINT('',(-122.537693683968,196.485218204641,308.022064529132));
#797=CARTESIAN_POINT('',(-122.537693683952,198.606538548003,305.900744185956));
#798=CARTESIAN_POINT('',(-122.537693683952,198.960091938686,310.496938263393));
#799=CARTESIAN_POINT('Origin',(-119.175693683952,204.970499578276,309.436278092396));
#800=CARTESIAN_POINT('',(-116.175693683936,201.43496567273,312.971811997654));
#801=CARTESIAN_POINT('',(-120.175693683936,201.43496567273,312.971811997654));
#802=CARTESIAN_POINT('',(-116.175693683952,204.970499578298,309.436278092396));
#803=CARTESIAN_POINT('Origin',(-116.175693683968,207.091819921765,311.557598436049));
#804=CARTESIAN_POINT('',(-116.175693683968,196.485218204641,308.022064529132));
#805=CARTESIAN_POINT('',(-116.175693683952,198.960091938686,310.496938263393));
#806=CARTESIAN_POINT('',(-116.175693683914,200.020752110225,304.486530623888));
#807=CARTESIAN_POINT('',(-116.175693683898,197.899431766743,302.365210280221));
#808=CARTESIAN_POINT('',(-116.175693683968,207.091819921765,311.557598436049));
#809=CARTESIAN_POINT('Origin',(-119.175693683968,207.091819921742,311.557598436049));
#810=CARTESIAN_POINT('',(-132.579052913342,215.577101296251,303.072317062182));
#811=CARTESIAN_POINT('',(-119.175693683968,207.091819921742,311.557598436049));
#812=CARTESIAN_POINT('',(-132.579052913278,207.09181992164,311.557598436049));
#813=CARTESIAN_POINT('Origin',(-132.579052913224,200.0207521101,304.486530623888));
#814=CARTESIAN_POINT('',(-120.175693683968,196.485218204641,308.022064529132));
#815=CARTESIAN_POINT('Origin',(-132.579052913208,197.899431766618,302.365210280221));
#816=CARTESIAN_POINT('',(-132.579052913208,197.899431766618,302.365210280221));
#817=CARTESIAN_POINT('',(-119.175693683898,197.899431766719,302.365210280221));
#818=CARTESIAN_POINT('',(-132.579052913272,206.384713141228,293.879928906354));
#819=CARTESIAN_POINT('Origin',(-118.175693683952,198.960091938686,310.496938263393));
#820=CARTESIAN_POINT('Origin',(-125.995512753575,200.481705734679,309.19012493465));
#821=CARTESIAN_POINT('Origin',(-125.995512753575,200.481705734679,309.19012493465));
#822=CARTESIAN_POINT('Origin',(-132.579052913278,207.09181992164,311.557598436049));
#823=CARTESIAN_POINT('Origin',(-132.579052913342,215.577101296251,303.072317062182));
#824=CARTESIAN_POINT('Origin',(-119.175693683898,197.89943176672,302.365210280221));
#825=UNCERTAINTY_MEASURE_WITH_UNIT(LENGTH_MEASURE(0.01),#829,
'DISTANCE_ACCURACY_VALUE',
'Maximum model space distance between geometric entities at asserted c
onnectivities');
#826=UNCERTAINTY_MEASURE_WITH_UNIT(LENGTH_MEASURE(0.01),#829,
'DISTANCE_ACCURACY_VALUE',
'Maximum model space distance between geometric entities at asserted c
onnectivities');
#827=(
GEOMETRIC_REPRESENTATION_CONTEXT(3)
GLOBAL_UNCERTAINTY_ASSIGNED_CONTEXT((#825))
GLOBAL_UNIT_ASSIGNED_CONTEXT((#829,#831,#832))
REPRESENTATION_CONTEXT('','3D')
);
#828=(
GEOMETRIC_REPRESENTATION_CONTEXT(3)
GLOBAL_UNCERTAINTY_ASSIGNED_CONTEXT((#826))
GLOBAL_UNIT_ASSIGNED_CONTEXT((#829,#831,#832))
REPRESENTATION_CONTEXT('','3D')
);
#829=(
LENGTH_UNIT()
NAMED_UNIT(*)
SI_UNIT(.MILLI.,.METRE.)
);
#830=(
LENGTH_UNIT()
NAMED_UNIT(*)
SI_UNIT($,.METRE.)
);
#831=(
NAMED_UNIT(*)
PLANE_ANGLE_UNIT()
SI_UNIT($,.RADIAN.)
);
#832=(
NAMED_UNIT(*)
SI_UNIT($,.STERADIAN.)
SOLID_ANGLE_UNIT()
);
#833=SHAPE_DEFINITION_REPRESENTATION(#834,#835);
#834=PRODUCT_DEFINITION_SHAPE('',$,#837);
#835=SHAPE_REPRESENTATION('',(#525),#827);
#836=PRODUCT_DEFINITION_CONTEXT('part definition',#841,'design');
#837=PRODUCT_DEFINITION('tensionerinner1(1x)','tensionerinner1(1x) v2',
#838,#836);
#838=PRODUCT_DEFINITION_FORMATION('',$,#843);
#839=PRODUCT_RELATED_PRODUCT_CATEGORY('tensionerinner1(1x) v2',
'tensionerinner1(1x) v2',(#843));
#840=APPLICATION_PROTOCOL_DEFINITION('international standard',
'automotive_design',2009,#841);
#841=APPLICATION_CONTEXT(
'Core Data for Automotive Mechanical Design Process');
#842=PRODUCT_CONTEXT('part definition',#841,'mechanical');
#843=PRODUCT('tensionerinner1(1x)','tensionerinner1(1x) v2',$,(#842));
#844=PRESENTATION_STYLE_ASSIGNMENT((#845));
#845=SURFACE_STYLE_USAGE(.BOTH.,#846);
#846=SURFACE_SIDE_STYLE('',(#847));
#847=SURFACE_STYLE_FILL_AREA(#848);
#848=FILL_AREA_STYLE('Steel - Satin',(#849));
#849=FILL_AREA_STYLE_COLOUR('Steel - Satin',#850);
#850=COLOUR_RGB('Steel - Satin',0.627450980392157,0.627450980392157,0.627450980392157);
ENDSEC;
END-ISO-10303-21;
