ISO-10303-21;
HEADER;
/* Generated by software containing ST-Developer
 * from STEP Tools, Inc. (www.steptools.com) 
 */

FILE_DESCRIPTION(
/* description */ (''),
/* implementation_level */ '2;1');

FILE_NAME(
/* name */ 'tensionerinner3(1x).step',
/* time_stamp */ '2025-12-01T16:06:20+05:30',
/* author */ (''),
/* organization */ (''),
/* preprocessor_version */ 'ST-DEVELOPER v20.1',
/* originating_system */ 'Autodesk Translation Framework v14.21.0.0',
/* authorisation */ '');

FILE_SCHEMA (('AUTOMOTIVE_DESIGN { 1 0 10303 214 3 1 1 }'));
ENDSEC;

DATA;
#10=MECHANICAL_DESIGN_GEOMETRIC_PRESENTATION_REPRESENTATION('',(#13),#828);
#11=SHAPE_REPRESENTATION_RELATIONSHIP('SRR','None',#835,#12);
#12=ADVANCED_BREP_SHAPE_REPRESENTATION('',(#14),#827);
#13=STYLED_ITEM('',(#844),#14);
#14=MANIFOLD_SOLID_BREP('Body1',#512);
#15=CYLINDRICAL_SURFACE('',#542,1.49999999999999);
#16=CYLINDRICAL_SURFACE('',#552,1.49999999999999);
#17=CYLINDRICAL_SURFACE('',#553,1.49999999999999);
#18=FACE_BOUND('',#60,.T.);
#19=FACE_BOUND('',#62,.T.);
#20=FACE_BOUND('',#64,.T.);
#21=FACE_BOUND('',#66,.T.);
#22=FACE_BOUND('',#75,.T.);
#23=FACE_BOUND('',#85,.T.);
#24=CIRCLE('',#531,1.49999999999999);
#25=CIRCLE('',#533,1.49999999999999);
#26=CIRCLE('',#535,1.49999999999999);
#27=CIRCLE('',#537,1.49999999999999);
#28=CIRCLE('',#543,1.49999999999999);
#29=CIRCLE('',#544,1.49999999999999);
#30=FACE_OUTER_BOUND('',#55,.T.);
#31=FACE_OUTER_BOUND('',#56,.T.);
#32=FACE_OUTER_BOUND('',#57,.T.);
#33=FACE_OUTER_BOUND('',#58,.T.);
#34=FACE_OUTER_BOUND('',#59,.T.);
#35=FACE_OUTER_BOUND('',#61,.T.);
#36=FACE_OUTER_BOUND('',#63,.T.);
#37=FACE_OUTER_BOUND('',#65,.T.);
#38=FACE_OUTER_BOUND('',#67,.T.);
#39=FACE_OUTER_BOUND('',#68,.T.);
#40=FACE_OUTER_BOUND('',#69,.T.);
#41=FACE_OUTER_BOUND('',#70,.T.);
#42=FACE_OUTER_BOUND('',#71,.T.);
#43=FACE_OUTER_BOUND('',#72,.T.);
#44=FACE_OUTER_BOUND('',#73,.T.);
#45=FACE_OUTER_BOUND('',#74,.T.);
#46=FACE_OUTER_BOUND('',#76,.T.);
#47=FACE_OUTER_BOUND('',#77,.T.);
#48=FACE_OUTER_BOUND('',#78,.T.);
#49=FACE_OUTER_BOUND('',#79,.T.);
#50=FACE_OUTER_BOUND('',#80,.T.);
#51=FACE_OUTER_BOUND('',#81,.T.);
#52=FACE_OUTER_BOUND('',#82,.T.);
#53=FACE_OUTER_BOUND('',#83,.T.);
#54=FACE_OUTER_BOUND('',#84,.T.);
#55=EDGE_LOOP('',(#327,#328,#329,#330));
#56=EDGE_LOOP('',(#331,#332,#333,#334));
#57=EDGE_LOOP('',(#335,#336,#337,#338));
#58=EDGE_LOOP('',(#339,#340,#341,#342));
#59=EDGE_LOOP('',(#343,#344,#345,#346,#347,#348,#349,#350));
#60=EDGE_LOOP('',(#351,#352,#353));
#61=EDGE_LOOP('',(#354,#355,#356,#357));
#62=EDGE_LOOP('',(#358,#359,#360));
#63=EDGE_LOOP('',(#361,#362,#363,#364,#365,#366,#367,#368));
#64=EDGE_LOOP('',(#369,#370,#371));
#65=EDGE_LOOP('',(#372,#373,#374,#375));
#66=EDGE_LOOP('',(#376,#377,#378));
#67=EDGE_LOOP('',(#379,#380,#381,#382));
#68=EDGE_LOOP('',(#383,#384,#385,#386));
#69=EDGE_LOOP('',(#387,#388,#389,#390));
#70=EDGE_LOOP('',(#391,#392,#393,#394));
#71=EDGE_LOOP('',(#395,#396,#397,#398));
#72=EDGE_LOOP('',(#399,#400,#401,#402));
#73=EDGE_LOOP('',(#403,#404,#405,#406));
#74=EDGE_LOOP('',(#407,#408,#409,#410,#411,#412,#413,#414,#415,#416,#417,
#418));
#75=EDGE_LOOP('',(#419));
#76=EDGE_LOOP('',(#420,#421,#422,#423,#424,#425,#426,#427));
#77=EDGE_LOOP('',(#428,#429,#430,#431));
#78=EDGE_LOOP('',(#432,#433,#434,#435,#436,#437,#438,#439));
#79=EDGE_LOOP('',(#440,#441,#442,#443));
#80=EDGE_LOOP('',(#444,#445,#446,#447));
#81=EDGE_LOOP('',(#448,#449,#450,#451));
#82=EDGE_LOOP('',(#452,#453,#454,#455));
#83=EDGE_LOOP('',(#456,#457,#458,#459));
#84=EDGE_LOOP('',(#460,#461,#462,#463));
#85=EDGE_LOOP('',(#464));
#86=LINE('',#688,#149);
#87=LINE('',#690,#150);
#88=LINE('',#692,#151);
#89=LINE('',#693,#152);
#90=LINE('',#697,#153);
#91=LINE('',#699,#154);
#92=LINE('',#701,#155);
#93=LINE('',#702,#156);
#94=LINE('',#705,#157);
#95=LINE('',#707,#158);
#96=LINE('',#708,#159);
#97=LINE('',#711,#160);
#98=LINE('',#713,#161);
#99=LINE('',#714,#162);
#100=LINE('',#718,#163);
#101=LINE('',#720,#164);
#102=LINE('',#722,#165);
#103=LINE('',#724,#166);
#104=LINE('',#726,#167);
#105=LINE('',#728,#168);
#106=LINE('',#730,#169);
#107=LINE('',#731,#170);
#108=LINE('',#736,#171);
#109=LINE('',#738,#172);
#110=LINE('',#740,#173);
#111=LINE('',#741,#174);
#112=LINE('',#746,#175);
#113=LINE('',#748,#176);
#114=LINE('',#750,#177);
#115=LINE('',#752,#178);
#116=LINE('',#754,#179);
#117=LINE('',#756,#180);
#118=LINE('',#758,#181);
#119=LINE('',#759,#182);
#120=LINE('',#764,#183);
#121=LINE('',#766,#184);
#122=LINE('',#768,#185);
#123=LINE('',#769,#186);
#124=LINE('',#773,#187);
#125=LINE('',#775,#188);
#126=LINE('',#776,#189);
#127=LINE('',#779,#190);
#128=LINE('',#780,#191);
#129=LINE('',#783,#192);
#130=LINE('',#784,#193);
#131=LINE('',#786,#194);
#132=LINE('',#791,#195);
#133=LINE('',#795,#196);
#134=LINE('',#797,#197);
#135=LINE('',#798,#198);
#136=LINE('',#801,#199);
#137=LINE('',#802,#200);
#138=LINE('',#805,#201);
#139=LINE('',#806,#202);
#140=LINE('',#807,#203);
#141=LINE('',#808,#204);
#142=LINE('',#810,#205);
#143=LINE('',#811,#206);
#144=LINE('',#812,#207);
#145=LINE('',#814,#208);
#146=LINE('',#816,#209);
#147=LINE('',#817,#210);
#148=LINE('',#818,#211);
#149=VECTOR('',#561,10.);
#150=VECTOR('',#562,10.);
#151=VECTOR('',#563,10.);
#152=VECTOR('',#564,10.);
#153=VECTOR('',#567,10.);
#154=VECTOR('',#568,10.);
#155=VECTOR('',#569,10.);
#156=VECTOR('',#570,10.);
#157=VECTOR('',#573,10.);
#158=VECTOR('',#574,10.);
#159=VECTOR('',#575,10.);
#160=VECTOR('',#578,10.);
#161=VECTOR('',#579,10.);
#162=VECTOR('',#580,10.);
#163=VECTOR('',#583,10.);
#164=VECTOR('',#584,10.);
#165=VECTOR('',#585,10.);
#166=VECTOR('',#586,10.);
#167=VECTOR('',#587,10.);
#168=VECTOR('',#588,10.);
#169=VECTOR('',#589,10.);
#170=VECTOR('',#590,10.);
#171=VECTOR('',#595,10.);
#172=VECTOR('',#596,10.);
#173=VECTOR('',#597,10.);
#174=VECTOR('',#598,10.);
#175=VECTOR('',#603,10.);
#176=VECTOR('',#604,10.);
#177=VECTOR('',#605,10.);
#178=VECTOR('',#606,10.);
#179=VECTOR('',#607,10.);
#180=VECTOR('',#608,10.);
#181=VECTOR('',#609,10.);
#182=VECTOR('',#610,10.);
#183=VECTOR('',#615,10.);
#184=VECTOR('',#616,10.);
#185=VECTOR('',#617,10.);
#186=VECTOR('',#618,10.);
#187=VECTOR('',#623,10.);
#188=VECTOR('',#624,10.);
#189=VECTOR('',#625,10.);
#190=VECTOR('',#628,10.);
#191=VECTOR('',#629,10.);
#192=VECTOR('',#632,10.);
#193=VECTOR('',#633,10.);
#194=VECTOR('',#636,10.);
#195=VECTOR('',#641,1.49999999999999);
#196=VECTOR('',#646,10.);
#197=VECTOR('',#647,10.);
#198=VECTOR('',#648,10.);
#199=VECTOR('',#651,10.);
#200=VECTOR('',#652,10.);
#201=VECTOR('',#655,10.);
#202=VECTOR('',#656,10.);
#203=VECTOR('',#657,10.);
#204=VECTOR('',#658,10.);
#205=VECTOR('',#661,10.);
#206=VECTOR('',#662,10.);
#207=VECTOR('',#663,10.);
#208=VECTOR('',#666,10.);
#209=VECTOR('',#669,10.);
#210=VECTOR('',#670,10.);
#211=VECTOR('',#671,10.);
#212=VERTEX_POINT('',#686);
#213=VERTEX_POINT('',#687);
#214=VERTEX_POINT('',#689);
#215=VERTEX_POINT('',#691);
#216=VERTEX_POINT('',#695);
#217=VERTEX_POINT('',#696);
#218=VERTEX_POINT('',#698);
#219=VERTEX_POINT('',#700);
#220=VERTEX_POINT('',#704);
#221=VERTEX_POINT('',#706);
#222=VERTEX_POINT('',#710);
#223=VERTEX_POINT('',#712);
#224=VERTEX_POINT('',#716);
#225=VERTEX_POINT('',#717);
#226=VERTEX_POINT('',#719);
#227=VERTEX_POINT('',#721);
#228=VERTEX_POINT('',#723);
#229=VERTEX_POINT('',#725);
#230=VERTEX_POINT('',#727);
#231=VERTEX_POINT('',#729);
#232=VERTEX_POINT('',#734);
#233=VERTEX_POINT('',#735);
#234=VERTEX_POINT('',#737);
#235=VERTEX_POINT('',#739);
#236=VERTEX_POINT('',#744);
#237=VERTEX_POINT('',#745);
#238=VERTEX_POINT('',#747);
#239=VERTEX_POINT('',#749);
#240=VERTEX_POINT('',#751);
#241=VERTEX_POINT('',#753);
#242=VERTEX_POINT('',#755);
#243=VERTEX_POINT('',#757);
#244=VERTEX_POINT('',#762);
#245=VERTEX_POINT('',#763);
#246=VERTEX_POINT('',#765);
#247=VERTEX_POINT('',#767);
#248=VERTEX_POINT('',#772);
#249=VERTEX_POINT('',#774);
#250=VERTEX_POINT('',#778);
#251=VERTEX_POINT('',#782);
#252=VERTEX_POINT('',#788);
#253=VERTEX_POINT('',#790);
#254=VERTEX_POINT('',#794);
#255=VERTEX_POINT('',#796);
#256=VERTEX_POINT('',#800);
#257=VERTEX_POINT('',#804);
#258=EDGE_CURVE('',#212,#213,#86,.T.);
#259=EDGE_CURVE('',#214,#212,#87,.T.);
#260=EDGE_CURVE('',#215,#214,#88,.T.);
#261=EDGE_CURVE('',#213,#215,#89,.T.);
#262=EDGE_CURVE('',#216,#217,#90,.T.);
#263=EDGE_CURVE('',#218,#216,#91,.T.);
#264=EDGE_CURVE('',#219,#218,#92,.T.);
#265=EDGE_CURVE('',#217,#219,#93,.T.);
#266=EDGE_CURVE('',#220,#212,#94,.T.);
#267=EDGE_CURVE('',#220,#221,#95,.T.);
#268=EDGE_CURVE('',#214,#221,#96,.T.);
#269=EDGE_CURVE('',#222,#216,#97,.T.);
#270=EDGE_CURVE('',#222,#223,#98,.T.);
#271=EDGE_CURVE('',#218,#223,#99,.T.);
#272=EDGE_CURVE('',#224,#225,#100,.T.);
#273=EDGE_CURVE('',#226,#225,#101,.T.);
#274=EDGE_CURVE('',#226,#227,#102,.T.);
#275=EDGE_CURVE('',#227,#228,#103,.T.);
#276=EDGE_CURVE('',#228,#229,#104,.T.);
#277=EDGE_CURVE('',#230,#229,#105,.T.);
#278=EDGE_CURVE('',#230,#231,#106,.T.);
#279=EDGE_CURVE('',#231,#224,#107,.T.);
#280=EDGE_CURVE('',#223,#219,#24,.T.);
#281=EDGE_CURVE('',#232,#233,#108,.T.);
#282=EDGE_CURVE('',#234,#232,#109,.T.);
#283=EDGE_CURVE('',#235,#234,#110,.T.);
#284=EDGE_CURVE('',#233,#235,#111,.T.);
#285=EDGE_CURVE('',#217,#222,#25,.T.);
#286=EDGE_CURVE('',#236,#237,#112,.T.);
#287=EDGE_CURVE('',#237,#238,#113,.T.);
#288=EDGE_CURVE('',#238,#239,#114,.T.);
#289=EDGE_CURVE('',#240,#239,#115,.T.);
#290=EDGE_CURVE('',#241,#240,#116,.T.);
#291=EDGE_CURVE('',#242,#241,#117,.T.);
#292=EDGE_CURVE('',#243,#242,#118,.T.);
#293=EDGE_CURVE('',#236,#243,#119,.T.);
#294=EDGE_CURVE('',#213,#220,#26,.T.);
#295=EDGE_CURVE('',#244,#245,#120,.T.);
#296=EDGE_CURVE('',#246,#244,#121,.T.);
#297=EDGE_CURVE('',#247,#246,#122,.T.);
#298=EDGE_CURVE('',#245,#247,#123,.T.);
#299=EDGE_CURVE('',#221,#215,#27,.T.);
#300=EDGE_CURVE('',#236,#248,#124,.T.);
#301=EDGE_CURVE('',#249,#248,#125,.T.);
#302=EDGE_CURVE('',#237,#249,#126,.T.);
#303=EDGE_CURVE('',#250,#249,#127,.T.);
#304=EDGE_CURVE('',#238,#250,#128,.T.);
#305=EDGE_CURVE('',#251,#250,#129,.T.);
#306=EDGE_CURVE('',#239,#251,#130,.T.);
#307=EDGE_CURVE('',#248,#251,#131,.T.);
#308=EDGE_CURVE('',#252,#252,#28,.T.);
#309=EDGE_CURVE('',#252,#253,#132,.T.);
#310=EDGE_CURVE('',#253,#253,#29,.T.);
#311=EDGE_CURVE('',#254,#224,#133,.T.);
#312=EDGE_CURVE('',#231,#255,#134,.T.);
#313=EDGE_CURVE('',#255,#254,#135,.T.);
#314=EDGE_CURVE('',#256,#254,#136,.T.);
#315=EDGE_CURVE('',#225,#256,#137,.T.);
#316=EDGE_CURVE('',#257,#256,#138,.T.);
#317=EDGE_CURVE('',#257,#230,#139,.T.);
#318=EDGE_CURVE('',#229,#240,#140,.T.);
#319=EDGE_CURVE('',#243,#226,#141,.T.);
#320=EDGE_CURVE('',#242,#246,#142,.T.);
#321=EDGE_CURVE('',#235,#244,#143,.T.);
#322=EDGE_CURVE('',#234,#227,#144,.T.);
#323=EDGE_CURVE('',#257,#255,#145,.T.);
#324=EDGE_CURVE('',#232,#228,#146,.T.);
#325=EDGE_CURVE('',#233,#245,#147,.T.);
#326=EDGE_CURVE('',#241,#247,#148,.T.);
#327=ORIENTED_EDGE('',*,*,#258,.F.);
#328=ORIENTED_EDGE('',*,*,#259,.F.);
#329=ORIENTED_EDGE('',*,*,#260,.F.);
#330=ORIENTED_EDGE('',*,*,#261,.F.);
#331=ORIENTED_EDGE('',*,*,#262,.F.);
#332=ORIENTED_EDGE('',*,*,#263,.F.);
#333=ORIENTED_EDGE('',*,*,#264,.F.);
#334=ORIENTED_EDGE('',*,*,#265,.F.);
#335=ORIENTED_EDGE('',*,*,#266,.F.);
#336=ORIENTED_EDGE('',*,*,#267,.T.);
#337=ORIENTED_EDGE('',*,*,#268,.F.);
#338=ORIENTED_EDGE('',*,*,#259,.T.);
#339=ORIENTED_EDGE('',*,*,#269,.F.);
#340=ORIENTED_EDGE('',*,*,#270,.T.);
#341=ORIENTED_EDGE('',*,*,#271,.F.);
#342=ORIENTED_EDGE('',*,*,#263,.T.);
#343=ORIENTED_EDGE('',*,*,#272,.T.);
#344=ORIENTED_EDGE('',*,*,#273,.F.);
#345=ORIENTED_EDGE('',*,*,#274,.T.);
#346=ORIENTED_EDGE('',*,*,#275,.T.);
#347=ORIENTED_EDGE('',*,*,#276,.T.);
#348=ORIENTED_EDGE('',*,*,#277,.F.);
#349=ORIENTED_EDGE('',*,*,#278,.T.);
#350=ORIENTED_EDGE('',*,*,#279,.T.);
#351=ORIENTED_EDGE('',*,*,#264,.T.);
#352=ORIENTED_EDGE('',*,*,#271,.T.);
#353=ORIENTED_EDGE('',*,*,#280,.T.);
#354=ORIENTED_EDGE('',*,*,#281,.F.);
#355=ORIENTED_EDGE('',*,*,#282,.F.);
#356=ORIENTED_EDGE('',*,*,#283,.F.);
#357=ORIENTED_EDGE('',*,*,#284,.F.);
#358=ORIENTED_EDGE('',*,*,#269,.T.);
#359=ORIENTED_EDGE('',*,*,#262,.T.);
#360=ORIENTED_EDGE('',*,*,#285,.T.);
#361=ORIENTED_EDGE('',*,*,#286,.T.);
#362=ORIENTED_EDGE('',*,*,#287,.T.);
#363=ORIENTED_EDGE('',*,*,#288,.T.);
#364=ORIENTED_EDGE('',*,*,#289,.F.);
#365=ORIENTED_EDGE('',*,*,#290,.F.);
#366=ORIENTED_EDGE('',*,*,#291,.F.);
#367=ORIENTED_EDGE('',*,*,#292,.F.);
#368=ORIENTED_EDGE('',*,*,#293,.F.);
#369=ORIENTED_EDGE('',*,*,#266,.T.);
#370=ORIENTED_EDGE('',*,*,#258,.T.);
#371=ORIENTED_EDGE('',*,*,#294,.T.);
#372=ORIENTED_EDGE('',*,*,#295,.F.);
#373=ORIENTED_EDGE('',*,*,#296,.F.);
#374=ORIENTED_EDGE('',*,*,#297,.F.);
#375=ORIENTED_EDGE('',*,*,#298,.F.);
#376=ORIENTED_EDGE('',*,*,#260,.T.);
#377=ORIENTED_EDGE('',*,*,#268,.T.);
#378=ORIENTED_EDGE('',*,*,#299,.T.);
#379=ORIENTED_EDGE('',*,*,#286,.F.);
#380=ORIENTED_EDGE('',*,*,#300,.T.);
#381=ORIENTED_EDGE('',*,*,#301,.F.);
#382=ORIENTED_EDGE('',*,*,#302,.F.);
#383=ORIENTED_EDGE('',*,*,#287,.F.);
#384=ORIENTED_EDGE('',*,*,#302,.T.);
#385=ORIENTED_EDGE('',*,*,#303,.F.);
#386=ORIENTED_EDGE('',*,*,#304,.F.);
#387=ORIENTED_EDGE('',*,*,#288,.F.);
#388=ORIENTED_EDGE('',*,*,#304,.T.);
#389=ORIENTED_EDGE('',*,*,#305,.F.);
#390=ORIENTED_EDGE('',*,*,#306,.F.);
#391=ORIENTED_EDGE('',*,*,#305,.T.);
#392=ORIENTED_EDGE('',*,*,#303,.T.);
#393=ORIENTED_EDGE('',*,*,#301,.T.);
#394=ORIENTED_EDGE('',*,*,#307,.T.);
#395=ORIENTED_EDGE('',*,*,#308,.F.);
#396=ORIENTED_EDGE('',*,*,#309,.T.);
#397=ORIENTED_EDGE('',*,*,#310,.F.);
#398=ORIENTED_EDGE('',*,*,#309,.F.);
#399=ORIENTED_EDGE('',*,*,#311,.T.);
#400=ORIENTED_EDGE('',*,*,#279,.F.);
#401=ORIENTED_EDGE('',*,*,#312,.T.);
#402=ORIENTED_EDGE('',*,*,#313,.T.);
#403=ORIENTED_EDGE('',*,*,#272,.F.);
#404=ORIENTED_EDGE('',*,*,#311,.F.);
#405=ORIENTED_EDGE('',*,*,#314,.F.);
#406=ORIENTED_EDGE('',*,*,#315,.F.);
#407=ORIENTED_EDGE('',*,*,#273,.T.);
#408=ORIENTED_EDGE('',*,*,#315,.T.);
#409=ORIENTED_EDGE('',*,*,#316,.F.);
#410=ORIENTED_EDGE('',*,*,#317,.T.);
#411=ORIENTED_EDGE('',*,*,#277,.T.);
#412=ORIENTED_EDGE('',*,*,#318,.T.);
#413=ORIENTED_EDGE('',*,*,#289,.T.);
#414=ORIENTED_EDGE('',*,*,#306,.T.);
#415=ORIENTED_EDGE('',*,*,#307,.F.);
#416=ORIENTED_EDGE('',*,*,#300,.F.);
#417=ORIENTED_EDGE('',*,*,#293,.T.);
#418=ORIENTED_EDGE('',*,*,#319,.T.);
#419=ORIENTED_EDGE('',*,*,#308,.T.);
#420=ORIENTED_EDGE('',*,*,#274,.F.);
#421=ORIENTED_EDGE('',*,*,#319,.F.);
#422=ORIENTED_EDGE('',*,*,#292,.T.);
#423=ORIENTED_EDGE('',*,*,#320,.T.);
#424=ORIENTED_EDGE('',*,*,#296,.T.);
#425=ORIENTED_EDGE('',*,*,#321,.F.);
#426=ORIENTED_EDGE('',*,*,#283,.T.);
#427=ORIENTED_EDGE('',*,*,#322,.T.);
#428=ORIENTED_EDGE('',*,*,#278,.F.);
#429=ORIENTED_EDGE('',*,*,#317,.F.);
#430=ORIENTED_EDGE('',*,*,#323,.T.);
#431=ORIENTED_EDGE('',*,*,#312,.F.);
#432=ORIENTED_EDGE('',*,*,#276,.F.);
#433=ORIENTED_EDGE('',*,*,#324,.F.);
#434=ORIENTED_EDGE('',*,*,#281,.T.);
#435=ORIENTED_EDGE('',*,*,#325,.T.);
#436=ORIENTED_EDGE('',*,*,#298,.T.);
#437=ORIENTED_EDGE('',*,*,#326,.F.);
#438=ORIENTED_EDGE('',*,*,#290,.T.);
#439=ORIENTED_EDGE('',*,*,#318,.F.);
#440=ORIENTED_EDGE('',*,*,#314,.T.);
#441=ORIENTED_EDGE('',*,*,#313,.F.);
#442=ORIENTED_EDGE('',*,*,#323,.F.);
#443=ORIENTED_EDGE('',*,*,#316,.T.);
#444=ORIENTED_EDGE('',*,*,#267,.F.);
#445=ORIENTED_EDGE('',*,*,#294,.F.);
#446=ORIENTED_EDGE('',*,*,#261,.T.);
#447=ORIENTED_EDGE('',*,*,#299,.F.);
#448=ORIENTED_EDGE('',*,*,#265,.T.);
#449=ORIENTED_EDGE('',*,*,#280,.F.);
#450=ORIENTED_EDGE('',*,*,#270,.F.);
#451=ORIENTED_EDGE('',*,*,#285,.F.);
#452=ORIENTED_EDGE('',*,*,#282,.T.);
#453=ORIENTED_EDGE('',*,*,#324,.T.);
#454=ORIENTED_EDGE('',*,*,#275,.F.);
#455=ORIENTED_EDGE('',*,*,#322,.F.);
#456=ORIENTED_EDGE('',*,*,#297,.T.);
#457=ORIENTED_EDGE('',*,*,#320,.F.);
#458=ORIENTED_EDGE('',*,*,#291,.T.);
#459=ORIENTED_EDGE('',*,*,#326,.T.);
#460=ORIENTED_EDGE('',*,*,#321,.T.);
#461=ORIENTED_EDGE('',*,*,#295,.T.);
#462=ORIENTED_EDGE('',*,*,#325,.F.);
#463=ORIENTED_EDGE('',*,*,#284,.T.);
#464=ORIENTED_EDGE('',*,*,#310,.T.);
#465=PLANE('',#526);
#466=PLANE('',#527);
#467=PLANE('',#528);
#468=PLANE('',#529);
#469=PLANE('',#530);
#470=PLANE('',#532);
#471=PLANE('',#534);
#472=PLANE('',#536);
#473=PLANE('',#538);
#474=PLANE('',#539);
#475=PLANE('',#540);
#476=PLANE('',#541);
#477=PLANE('',#545);
#478=PLANE('',#546);
#479=PLANE('',#547);
#480=PLANE('',#548);
#481=PLANE('',#549);
#482=PLANE('',#550);
#483=PLANE('',#551);
#484=PLANE('',#554);
#485=PLANE('',#555);
#486=PLANE('',#556);
#487=ADVANCED_FACE('',(#30),#465,.F.);
#488=ADVANCED_FACE('',(#31),#466,.F.);
#489=ADVANCED_FACE('',(#32),#467,.F.);
#490=ADVANCED_FACE('',(#33),#468,.F.);
#491=ADVANCED_FACE('',(#34,#18),#469,.T.);
#492=ADVANCED_FACE('',(#35,#19),#470,.F.);
#493=ADVANCED_FACE('',(#36,#20),#471,.F.);
#494=ADVANCED_FACE('',(#37,#21),#472,.F.);
#495=ADVANCED_FACE('',(#38),#473,.T.);
#496=ADVANCED_FACE('',(#39),#474,.T.);
#497=ADVANCED_FACE('',(#40),#475,.T.);
#498=ADVANCED_FACE('',(#41),#476,.T.);
#499=ADVANCED_FACE('',(#42),#15,.F.);
#500=ADVANCED_FACE('',(#43),#477,.T.);
#501=ADVANCED_FACE('',(#44),#478,.F.);
#502=ADVANCED_FACE('',(#45,#22),#479,.T.);
#503=ADVANCED_FACE('',(#46),#480,.T.);
#504=ADVANCED_FACE('',(#47),#481,.F.);
#505=ADVANCED_FACE('',(#48),#482,.T.);
#506=ADVANCED_FACE('',(#49),#483,.T.);
#507=ADVANCED_FACE('',(#50),#16,.F.);
#508=ADVANCED_FACE('',(#51),#17,.F.);
#509=ADVANCED_FACE('',(#52),#484,.T.);
#510=ADVANCED_FACE('',(#53),#485,.T.);
#511=ADVANCED_FACE('',(#54,#23),#486,.T.);
#512=CLOSED_SHELL('',(#487,#488,#489,#490,#491,#492,#493,#494,#495,#496,
#497,#498,#499,#500,#501,#502,#503,#504,#505,#506,#507,#508,#509,#510,#511));
#513=DERIVED_UNIT_ELEMENT(#515,1.);
#514=DERIVED_UNIT_ELEMENT(#830,-3.);
#515=(
MASS_UNIT()
NAMED_UNIT(*)
SI_UNIT(.KILO.,.GRAM.)
);
#516=DERIVED_UNIT((#513,#514));
#517=MEASURE_REPRESENTATION_ITEM('density measure',
POSITIVE_RATIO_MEASURE(7850.),#516);
#518=PROPERTY_DEFINITION_REPRESENTATION(#523,#520);
#519=PROPERTY_DEFINITION_REPRESENTATION(#524,#521);
#520=REPRESENTATION('material name',(#522),#827);
#521=REPRESENTATION('density',(#517),#827);
#522=DESCRIPTIVE_REPRESENTATION_ITEM('Steel','Steel');
#523=PROPERTY_DEFINITION('material property','material name',#837);
#524=PROPERTY_DEFINITION('material property','density of part',#837);
#525=AXIS2_PLACEMENT_3D('',#684,#557,#558);
#526=AXIS2_PLACEMENT_3D('',#685,#559,#560);
#527=AXIS2_PLACEMENT_3D('',#694,#565,#566);
#528=AXIS2_PLACEMENT_3D('',#703,#571,#572);
#529=AXIS2_PLACEMENT_3D('',#709,#576,#577);
#530=AXIS2_PLACEMENT_3D('',#715,#581,#582);
#531=AXIS2_PLACEMENT_3D('',#732,#591,#592);
#532=AXIS2_PLACEMENT_3D('',#733,#593,#594);
#533=AXIS2_PLACEMENT_3D('',#742,#599,#600);
#534=AXIS2_PLACEMENT_3D('',#743,#601,#602);
#535=AXIS2_PLACEMENT_3D('',#760,#611,#612);
#536=AXIS2_PLACEMENT_3D('',#761,#613,#614);
#537=AXIS2_PLACEMENT_3D('',#770,#619,#620);
#538=AXIS2_PLACEMENT_3D('',#771,#621,#622);
#539=AXIS2_PLACEMENT_3D('',#777,#626,#627);
#540=AXIS2_PLACEMENT_3D('',#781,#630,#631);
#541=AXIS2_PLACEMENT_3D('',#785,#634,#635);
#542=AXIS2_PLACEMENT_3D('',#787,#637,#638);
#543=AXIS2_PLACEMENT_3D('',#789,#639,#640);
#544=AXIS2_PLACEMENT_3D('',#792,#642,#643);
#545=AXIS2_PLACEMENT_3D('',#793,#644,#645);
#546=AXIS2_PLACEMENT_3D('',#799,#649,#650);
#547=AXIS2_PLACEMENT_3D('',#803,#653,#654);
#548=AXIS2_PLACEMENT_3D('',#809,#659,#660);
#549=AXIS2_PLACEMENT_3D('',#813,#664,#665);
#550=AXIS2_PLACEMENT_3D('',#815,#667,#668);
#551=AXIS2_PLACEMENT_3D('',#819,#672,#673);
#552=AXIS2_PLACEMENT_3D('',#820,#674,#675);
#553=AXIS2_PLACEMENT_3D('',#821,#676,#677);
#554=AXIS2_PLACEMENT_3D('',#822,#678,#679);
#555=AXIS2_PLACEMENT_3D('',#823,#680,#681);
#556=AXIS2_PLACEMENT_3D('',#824,#682,#683);
#557=DIRECTION('axis',(0.,0.,1.));
#558=DIRECTION('refdir',(1.,0.,0.));
#559=DIRECTION('center_axis',(2.79609355397479E-12,0.0871557426982085,0.996194698096072));
#560=DIRECTION('ref_axis',(1.17052909305079E-11,-0.996194698096072,0.0871557426982084));
#561=DIRECTION('',(-7.60124049767873E-12,0.996194698096072,-0.0871557426982085));
#562=DIRECTION('',(1.,1.1416630994212E-11,-3.8057780477738E-12));
#563=DIRECTION('',(7.74562500203102E-12,-0.996194698096072,0.0871557426982086));
#564=DIRECTION('',(-1.,-1.14446086144326E-11,-3.81523688246312E-12));
#565=DIRECTION('center_axis',(2.79609355397479E-12,0.0871557426982085,0.996194698096072));
#566=DIRECTION('ref_axis',(1.17052909305079E-11,-0.996194698096072,0.0871557426982084));
#567=DIRECTION('',(-7.74562500203102E-12,0.996194698096072,-0.0871557426982086));
#568=DIRECTION('',(1.,1.1416630994212E-11,-3.8057780477738E-12));
#569=DIRECTION('',(7.60124049767873E-12,-0.996194698096072,0.0871557426982085));
#570=DIRECTION('',(-1.,-1.14446086144326E-11,-3.81523688246312E-12));
#571=DIRECTION('center_axis',(1.10414803139179E-11,-0.996194698087493,-0.0871557427962708));
#572=DIRECTION('ref_axis',(-4.78581899247986E-12,0.0871557427962707,-0.996194698087493));
#573=DIRECTION('',(6.64004991256505E-13,-0.0871557427962707,0.996194698087493));
#574=DIRECTION('',(-1.,-1.14446086144326E-11,-3.81523688246312E-12));
#575=DIRECTION('',(-7.24734190703502E-13,0.0871557427962708,-0.996194698087493));
#576=DIRECTION('center_axis',(1.10414803139179E-11,-0.996194698087493,-0.0871557427962708));
#577=DIRECTION('ref_axis',(-4.78581899247986E-12,0.0871557427962707,-0.996194698087493));
#578=DIRECTION('',(7.24734190703502E-13,-0.0871557427962708,0.996194698087493));
#579=DIRECTION('',(-1.,-1.14446086144326E-11,-3.81523688246312E-12));
#580=DIRECTION('',(-6.64004991256505E-13,0.0871557427962707,-0.996194698087493));
#581=DIRECTION('center_axis',(-1.,-7.63032639103041E-12,-9.54659060940229E-16));
#582=DIRECTION('ref_axis',(-5.39614575812861E-12,0.707106781147928,0.707106781225167));
#583=DIRECTION('',(-5.39478444433185E-12,0.707106781217536,-0.707106781155559));
#584=DIRECTION('',(-5.39603473582977E-12,0.707106781155559,0.707106781217537));
#585=DIRECTION('',(5.3998071809758E-12,-0.707106781217536,0.707106781155559));
#586=DIRECTION('',(-5.39348122287313E-12,0.707106781155559,0.707106781217537));
#587=DIRECTION('',(-5.3998071809758E-12,0.707106781217536,-0.707106781155559));
#588=DIRECTION('',(-5.39603473582977E-12,0.707106781155559,0.707106781217537));
#589=DIRECTION('',(5.39478444436096E-12,-0.707106781221352,0.707106781151743));
#590=DIRECTION('',(5.39620126928247E-12,-0.707106781151743,-0.707106781221353));
#591=DIRECTION('center_axis',(1.,7.63032639103041E-12,9.54659060940229E-16));
#592=DIRECTION('ref_axis',(-1.07903308567258E-11,0.707106781151742,0.707106781221353));
#593=DIRECTION('center_axis',(-1.,-7.77099164825042E-12,4.77841317201043E-14));
#594=DIRECTION('ref_axis',(-5.46126033852157E-12,0.707106781147974,0.707106781225121));
#595=DIRECTION('',(-5.5287902764578E-12,0.707106781217537,-0.707106781155559));
#596=DIRECTION('',(-5.4612603385265E-12,0.707106781155559,0.707106781217537));
#597=DIRECTION('',(5.5287902764578E-12,-0.707106781217537,0.707106781155559));
#598=DIRECTION('',(5.39348122287313E-12,-0.707106781155559,-0.707106781217537));
#599=DIRECTION('center_axis',(-1.,-7.77099164825042E-12,4.77841317201043E-14));
#600=DIRECTION('ref_axis',(-1.07903308567258E-11,0.707106781151742,0.707106781221353));
#601=DIRECTION('center_axis',(-1.,-7.63032639103041E-12,-9.54659060940229E-16));
#602=DIRECTION('ref_axis',(-5.39614575812861E-12,0.707106781147928,0.707106781225167));
#603=DIRECTION('',(5.39478444436096E-12,-0.707106781221352,0.707106781151743));
#604=DIRECTION('',(-5.39620126928565E-12,0.707106781148473,0.707106781224622));
#605=DIRECTION('',(-5.3947844443609E-12,0.707106781221345,-0.707106781151751));
#606=DIRECTION('',(5.39348122287313E-12,-0.707106781155559,-0.707106781217537));
#607=DIRECTION('',(-5.3998071809758E-12,0.707106781217536,-0.707106781155559));
#608=DIRECTION('',(-5.39348122287313E-12,0.707106781155559,0.707106781217537));
#609=DIRECTION('',(5.3998071809758E-12,-0.707106781217536,0.707106781155559));
#610=DIRECTION('',(5.39348122287313E-12,-0.707106781155559,-0.707106781217537));
#611=DIRECTION('center_axis',(-1.,-7.63032639103041E-12,-9.54659060940229E-16));
#612=DIRECTION('ref_axis',(-1.07903308567258E-11,0.707106781151742,0.707106781221353));
#613=DIRECTION('center_axis',(1.,7.77099164825042E-12,-4.77841317201043E-14));
#614=DIRECTION('ref_axis',(5.46126033852157E-12,-0.707106781147974,-0.707106781225121));
#615=DIRECTION('',(-5.39348122287313E-12,0.707106781155559,0.707106781217537));
#616=DIRECTION('',(-5.5287902764578E-12,0.707106781217537,-0.707106781155559));
#617=DIRECTION('',(5.4612603385265E-12,-0.707106781155559,-0.707106781217537));
#618=DIRECTION('',(5.5287902764578E-12,-0.707106781217537,0.707106781155559));
#619=DIRECTION('center_axis',(1.,7.77099164825042E-12,-4.77841317201043E-14));
#620=DIRECTION('ref_axis',(-1.07903308567258E-11,0.707106781151742,0.707106781221353));
#621=DIRECTION('center_axis',(5.38776357429532E-12,-0.707106781151743,-0.707106781221353));
#622=DIRECTION('ref_axis',(-1.07889140318047E-11,0.707106781221352,-0.707106781151743));
#623=DIRECTION('',(1.,1.14385578989484E-11,-3.819267257523E-12));
#624=DIRECTION('',(-1.07889140318047E-11,0.707106781221352,-0.707106781151743));
#625=DIRECTION('',(1.,1.14385578989484E-11,-3.819267257523E-12));
#626=DIRECTION('center_axis',(1.07889140318314E-11,-0.707106781224622,0.707106781148473));
#627=DIRECTION('ref_axis',(5.39620126928565E-12,-0.707106781148473,-0.707106781224622));
#628=DIRECTION('',(5.39620126928565E-12,-0.707106781148473,-0.707106781224622));
#629=DIRECTION('',(1.,1.14385578989484E-11,-3.819267257523E-12));
#630=DIRECTION('center_axis',(-5.38776357429373E-12,0.707106781151751,0.707106781221345));
#631=DIRECTION('ref_axis',(1.07917061676738E-11,-0.707106781221345,0.707106781151751));
#632=DIRECTION('',(1.07917061676738E-11,-0.707106781221345,0.707106781151751));
#633=DIRECTION('',(1.,1.14385578989484E-11,-3.819267257523E-12));
#634=DIRECTION('center_axis',(1.,1.14385578989484E-11,-3.819267257523E-12));
#635=DIRECTION('ref_axis',(1.07889140318047E-11,-0.707106781221352,0.707106781151743));
#636=DIRECTION('',(-5.39869927109106E-12,0.707106781148473,0.707106781224622));
#637=DIRECTION('center_axis',(1.07889140318047E-11,-0.707106781221353,0.707106781151743));
#638=DIRECTION('ref_axis',(0.707106781221355,-0.499999999945382,-0.500000000005393));
#639=DIRECTION('center_axis',(5.40035671333852E-12,-0.707106781217537,0.707106781155559));
#640=DIRECTION('ref_axis',(0.707106781221355,-0.499999999945382,-0.500000000005393));
#641=DIRECTION('',(1.07889140318047E-11,-0.707106781221352,0.707106781151743));
#642=DIRECTION('center_axis',(-5.40035671333852E-12,0.707106781217537,-0.707106781155559));
#643=DIRECTION('ref_axis',(0.707106781221355,-0.499999999945382,-0.500000000005393));
#644=DIRECTION('center_axis',(1.07889140318047E-11,-0.707106781221353,0.707106781151743));
#645=DIRECTION('ref_axis',(-0.70710678115174,-0.500000000005396,-0.500000000043829));
#646=DIRECTION('',(1.,1.14444420809789E-11,-3.81338307549248E-12));
#647=DIRECTION('',(-1.,-1.14444420809789E-11,3.81338307549248E-12));
#648=DIRECTION('',(5.39620126928247E-12,-0.707106781151743,-0.707106781221353));
#649=DIRECTION('center_axis',(-5.3960347358281E-12,0.707106781155557,0.707106781217538));
#650=DIRECTION('ref_axis',(1.61831176336168E-11,-0.707106781217538,0.707106781155557));
#651=DIRECTION('',(1.07889140318047E-11,-0.707106781221352,0.707106781151743));
#652=DIRECTION('',(-1.,-7.63415666046537E-12,3.0976549789416E-15));
#653=DIRECTION('center_axis',(-5.40035671333852E-12,0.707106781217537,-0.707106781155559));
#654=DIRECTION('ref_axis',(-5.39348122287313E-12,0.707106781155559,0.707106781217537));
#655=DIRECTION('',(5.39620126928247E-12,-0.707106781151743,-0.707106781221353));
#656=DIRECTION('',(1.,7.63415666046537E-12,-3.0976549789416E-15));
#657=DIRECTION('',(1.,7.63276888168293E-12,-4.37441145726052E-15));
#658=DIRECTION('',(-1.,-7.63027087987918E-12,-7.88125607246455E-16));
#659=DIRECTION('center_axis',(5.39614575813223E-12,-0.707106781155559,-0.707106781217537));
#660=DIRECTION('ref_axis',(5.3998071809758E-12,-0.707106781217536,0.707106781155559));
#661=DIRECTION('',(-1.,-7.63027087987918E-12,-7.88125607246455E-16));
#662=DIRECTION('',(1.,7.63276888168293E-12,-4.37441145726052E-15));
#663=DIRECTION('',(-1.,-7.63027087987918E-12,-7.88125607246455E-16));
#664=DIRECTION('center_axis',(5.3960347358281E-12,-0.707106781155557,-0.707106781217538));
#665=DIRECTION('ref_axis',(-1.61831176336168E-11,0.707106781217538,-0.707106781155557));
#666=DIRECTION('',(1.07889140318047E-11,-0.707106781221352,0.707106781151743));
#667=DIRECTION('center_axis',(-5.39614575813223E-12,0.707106781155559,0.707106781217537));
#668=DIRECTION('ref_axis',(-5.3998071809758E-12,0.707106781217536,-0.707106781155559));
#669=DIRECTION('',(-1.,-7.63027087987918E-12,-7.88125607246455E-16));
#670=DIRECTION('',(1.,7.72502841502929E-12,-9.37473649395857E-14));
#671=DIRECTION('',(-1.,-7.63027087987918E-12,-7.88125607246455E-16));
#672=DIRECTION('center_axis',(-1.,-1.14445531032814E-11,3.81327205319002E-12));
#673=DIRECTION('ref_axis',(-5.39620126928247E-12,0.707106781151743,0.707106781221353));
#674=DIRECTION('center_axis',(1.,1.14446086144326E-11,3.81523688246312E-12));
#675=DIRECTION('ref_axis',(-5.39477111467694E-12,0.707106781221348,-0.707106781151748));
#676=DIRECTION('center_axis',(1.,1.14446086144326E-11,3.81523688246312E-12));
#677=DIRECTION('ref_axis',(-5.39477111467696E-12,0.707106781221348,-0.707106781151747));
#678=DIRECTION('center_axis',(5.39486138973122E-12,-0.707106781217536,0.707106781155559));
#679=DIRECTION('ref_axis',(-5.39348122287313E-12,0.707106781155559,0.707106781217537));
#680=DIRECTION('center_axis',(5.39486138973122E-12,-0.707106781217536,0.707106781155559));
#681=DIRECTION('ref_axis',(-5.39348122287313E-12,0.707106781155559,0.707106781217537));
#682=DIRECTION('center_axis',(5.40035671333852E-12,-0.707106781217537,0.707106781155559));
#683=DIRECTION('ref_axis',(5.39348122287313E-12,-0.707106781155559,-0.707106781217537));
#684=CARTESIAN_POINT('',(0.,0.,0.));
#685=CARTESIAN_POINT('Origin',(29.516368893094,324.122310020067,358.76100207072));
#686=CARTESIAN_POINT('',(44.5163688924227,322.34148210467,358.916804324877));
#687=CARTESIAN_POINT('',(44.5163688924091,324.122310020238,358.761002070663));
#688=CARTESIAN_POINT('',(44.5163688924084,324.216017607006,358.752803719139));
#689=CARTESIAN_POINT('',(41.6163688924243,322.341482104637,358.916804324888));
#690=CARTESIAN_POINT('',(29.5163688931149,322.341482104499,358.916804324934));
#691=CARTESIAN_POINT('',(41.6163688924104,324.122310020205,358.761002070674));
#692=CARTESIAN_POINT('',(41.6163688924097,324.216017606985,358.752803719149));
#693=CARTESIAN_POINT('',(29.5163688931905,324.122310020066,358.76100207072));
#694=CARTESIAN_POINT('Origin',(29.516368893094,324.122310020067,358.76100207072));
#695=CARTESIAN_POINT('',(32.4163688924243,322.341482104532,358.916804324923));
#696=CARTESIAN_POINT('',(32.4163688924105,324.1223100201,358.761002070709));
#697=CARTESIAN_POINT('',(32.4163688924098,324.216017606917,358.752803719181));
#698=CARTESIAN_POINT('',(29.5163688931149,322.341482104499,358.916804324934));
#699=CARTESIAN_POINT('',(29.5163688931149,322.341482104499,358.916804324934));
#700=CARTESIAN_POINT('',(29.516368893094,324.122310020067,358.76100207072));
#701=CARTESIAN_POINT('',(29.5163688924084,324.216017606896,358.752803719191));
#702=CARTESIAN_POINT('',(29.5163688931905,324.122310020066,358.76100207072));
#703=CARTESIAN_POINT('Origin',(29.516368893115,322.341482104499,358.916804324934));
#704=CARTESIAN_POINT('',(44.5163688924215,322.497284359059,357.135976409324));
#705=CARTESIAN_POINT('',(44.5163688924221,322.419072481408,358.029942261073));
#706=CARTESIAN_POINT('',(41.616368892423,322.497284359026,357.135976409335));
#707=CARTESIAN_POINT('',(29.5163688932153,322.497284358888,357.135976409382));
#708=CARTESIAN_POINT('',(41.6163688924237,322.419072481376,358.029942261072));
#709=CARTESIAN_POINT('Origin',(29.516368893115,322.341482104499,358.916804324934));
#710=CARTESIAN_POINT('',(32.416368892423,322.497284358921,357.13597640937));
#711=CARTESIAN_POINT('',(32.4163688924237,322.419072481274,358.02994226107));
#712=CARTESIAN_POINT('',(29.5163688931064,322.497284358888,357.135976409381));
#713=CARTESIAN_POINT('',(29.5163688932153,322.497284358888,357.135976409382));
#714=CARTESIAN_POINT('',(29.5163688924221,322.419072481242,358.029942261069));
#715=CARTESIAN_POINT('Origin',(29.5163688924086,324.182513849376,357.290573047427));
#716=CARTESIAN_POINT('',(29.5163688931784,324.069150217924,352.454189210733));
#717=CARTESIAN_POINT('',(29.5163688923752,328.567763560054,347.955575869045));
#718=CARTESIAN_POINT('',(29.5163688924054,324.60737175178,351.915967676972));
#719=CARTESIAN_POINT('',(29.5163688923914,326.446443216587,345.834255525392));
#720=CARTESIAN_POINT('',(29.5163688923914,326.446443216587,345.834255525392));
#721=CARTESIAN_POINT('',(29.5163688924799,314.847516670795,357.433182070168));
#722=CARTESIAN_POINT('',(29.5163688924075,324.325122872934,347.955575868859));
#723=CARTESIAN_POINT('',(29.5163688924098,324.039904825818,366.625570225996));
#724=CARTESIAN_POINT('',(29.5163688924098,324.039904825818,366.625570225996));
#725=CARTESIAN_POINT('',(29.516368892322,335.63883137161,355.02664368122));
#726=CARTESIAN_POINT('',(29.5163688923233,335.353613325298,355.311861727507));
#727=CARTESIAN_POINT('',(29.5163688923382,333.517511028143,352.905323337568));
#728=CARTESIAN_POINT('',(29.5163688923572,331.042637294098,350.430449603306));
#729=CARTESIAN_POINT('',(29.5163688931406,329.018897685963,357.403936679305));
#730=CARTESIAN_POINT('',(29.5163688923744,328.673235743295,357.749598621939));
#731=CARTESIAN_POINT('',(29.5163688923906,326.544023951973,354.929062945026));
#732=CARTESIAN_POINT('Origin',(29.5163688924109,323.991576406019,357.266710023576));
#733=CARTESIAN_POINT('Origin',(32.4163688924099,324.182513849398,357.290573047427));
#734=CARTESIAN_POINT('',(32.4163688924097,324.03990482584,366.625570225996));
#735=CARTESIAN_POINT('',(32.4163688923374,333.517511027979,357.147964024687));
#736=CARTESIAN_POINT('',(32.416368892393,326.409306376375,364.256168675669));
#737=CARTESIAN_POINT('',(32.4163688924799,314.847516670818,357.433182070168));
#738=CARTESIAN_POINT('',(32.4163688924648,317.145613709573,359.731279109125));
#739=CARTESIAN_POINT('',(32.4163688924075,324.325122872957,347.955575868859));
#740=CARTESIAN_POINT('',(32.4163688924269,321.955721322422,350.324977419186));
#741=CARTESIAN_POINT('',(32.4163688923374,333.517511027979,357.147964024687));
#742=CARTESIAN_POINT('Origin',(32.4163688924122,323.991576406052,357.266710023587));
#743=CARTESIAN_POINT('Origin',(44.5163688924087,324.182513849491,357.290573047428));
#744=CARTESIAN_POINT('',(44.5163688931098,328.567763560226,347.955575868988));
#745=CARTESIAN_POINT('',(44.5163688931785,324.069150218095,352.454189210675));
#746=CARTESIAN_POINT('',(44.5163688924185,322.888395166759,353.634944261896));
#747=CARTESIAN_POINT('',(44.5163688931407,329.018897686135,357.403936679248));
#748=CARTESIAN_POINT('',(44.5163688923812,327.781460819149,356.166499812129));
#749=CARTESIAN_POINT('',(44.516368893072,333.517511028265,352.90532333756));
#750=CARTESIAN_POINT('',(44.5163688923636,330.087449305875,356.335385059613));
#751=CARTESIAN_POINT('',(44.5163688923212,335.638831371724,355.02664368122));
#752=CARTESIAN_POINT('',(44.5163688923913,326.446443216702,345.834255525393));
#753=CARTESIAN_POINT('',(44.5163688924097,324.039904825932,366.625570225996));
#754=CARTESIAN_POINT('',(44.5163688923233,335.353613325413,355.311861727507));
#755=CARTESIAN_POINT('',(44.5163688924799,314.84751667091,357.433182070168));
#756=CARTESIAN_POINT('',(44.5163688924098,324.039904825932,366.625570225996));
#757=CARTESIAN_POINT('',(44.5163688923913,326.446443216702,345.834255525392));
#758=CARTESIAN_POINT('',(44.5163688924075,324.325122873049,347.955575868859));
#759=CARTESIAN_POINT('',(44.5163688923913,326.446443216702,345.834255525393));
#760=CARTESIAN_POINT('Origin',(44.516368892411,323.99157640619,357.266710023633));
#761=CARTESIAN_POINT('Origin',(41.6163688924099,324.182513849469,357.290573047428));
#762=CARTESIAN_POINT('',(41.6163688924075,324.325122873027,347.955575868859));
#763=CARTESIAN_POINT('',(41.6163688923374,333.517511028049,357.147964024687));
#764=CARTESIAN_POINT('',(41.6163688923374,333.517511028049,357.147964024687));
#765=CARTESIAN_POINT('',(41.6163688924799,314.847516670888,357.433182070168));
#766=CARTESIAN_POINT('',(41.6163688924269,321.955721322493,350.324977419186));
#767=CARTESIAN_POINT('',(41.6163688924097,324.03990482591,366.625570225996));
#768=CARTESIAN_POINT('',(41.6163688924647,317.145613709643,359.731279109125));
#769=CARTESIAN_POINT('',(41.616368892393,326.409306376445,364.256168675668));
#770=CARTESIAN_POINT('Origin',(41.6163688924122,323.991576406157,357.266710023622));
#771=CARTESIAN_POINT('Origin',(44.5163688931785,324.069150218095,352.454189210675));
#772=CARTESIAN_POINT('',(46.5163688931098,328.567763560249,347.95557586898));
#773=CARTESIAN_POINT('',(44.5163688931098,328.567763560226,347.955575868988));
#774=CARTESIAN_POINT('',(46.5163688931785,324.069150218118,352.454189210668));
#775=CARTESIAN_POINT('',(46.5163688931098,328.567763560249,347.95557586898));
#776=CARTESIAN_POINT('',(44.5163688931785,324.069150218095,352.454189210675));
#777=CARTESIAN_POINT('Origin',(44.5163688931407,329.018897686135,357.403936679248));
#778=CARTESIAN_POINT('',(46.5163688931407,329.018897686158,357.40393667924));
#779=CARTESIAN_POINT('',(46.5163688931785,324.069150218118,352.454189210668));
#780=CARTESIAN_POINT('',(44.5163688931407,329.018897686135,357.403936679248));
#781=CARTESIAN_POINT('Origin',(44.516368893072,333.517511028265,352.90532333756));
#782=CARTESIAN_POINT('',(46.516368893072,333.517511028288,352.905323337553));
#783=CARTESIAN_POINT('',(46.5163688931407,329.018897686158,357.40393667924));
#784=CARTESIAN_POINT('',(44.516368893072,333.517511028265,352.90532333756));
#785=CARTESIAN_POINT('Origin',(46.5163688931252,328.793330623203,352.67975627411));
#786=CARTESIAN_POINT('',(46.516368893072,333.517511028288,352.905323337553));
#787=CARTESIAN_POINT('Origin',(37.0163688929507,340.235025449518,341.23806144781));
#788=CARTESIAN_POINT('',(35.9557087212589,331.792637293546,351.180449602803));
#789=CARTESIAN_POINT('Origin',(37.0163688930909,331.042637293628,350.430449602794));
#790=CARTESIAN_POINT('',(35.9557087212913,329.671316949894,353.301769946246));
#791=CARTESIAN_POINT('',(35.9557087211186,340.985025449436,341.988061447818));
#792=CARTESIAN_POINT('Origin',(37.0163688931233,328.921316950014,352.5517699462));
#793=CARTESIAN_POINT('Origin',(28.5163688931596,326.544023951943,354.929062945011));
#794=CARTESIAN_POINT('',(27.5163688931784,324.069150217901,352.45418921074));
#795=CARTESIAN_POINT('',(30.516368892803,324.069150217939,352.454189210755));
#796=CARTESIAN_POINT('',(27.5163688931407,329.01889768594,357.403936679312));
#797=CARTESIAN_POINT('',(30.5163688927291,329.018897685986,357.40393667929));
#798=CARTESIAN_POINT('',(27.5163688931595,326.544023951921,354.929062945026));
#799=CARTESIAN_POINT('Origin',(32.5163688923913,326.446443216424,350.076896212512));
#800=CARTESIAN_POINT('',(27.5163688931097,328.567763560031,347.955575869053));
#801=CARTESIAN_POINT('',(27.5163688931529,325.739336435146,350.78400299366));
#802=CARTESIAN_POINT('',(32.5163688923751,328.567763560077,347.955575869045));
#803=CARTESIAN_POINT('Origin',(32.5163688923913,326.44644321661,345.834255525393));
#804=CARTESIAN_POINT('',(27.516368893072,333.51751102807,352.905323337625));
#805=CARTESIAN_POINT('',(27.5163688930909,331.042637294051,350.430449603339));
#806=CARTESIAN_POINT('',(32.5163688923373,333.517511028151,352.905323337553));
#807=CARTESIAN_POINT('',(32.5163688923212,335.638831371632,355.02664368122));
#808=CARTESIAN_POINT('',(32.5163688923913,326.44644321661,345.834255525393));
#809=CARTESIAN_POINT('Origin',(32.5163688924075,324.325122872958,347.955575868859));
#810=CARTESIAN_POINT('',(44.5163688924799,314.84751667091,357.433182070168));
#811=CARTESIAN_POINT('',(32.5163688924075,324.325122872958,347.955575868859));
#812=CARTESIAN_POINT('',(32.5163688924799,314.847516670818,357.433182070168));
#813=CARTESIAN_POINT('Origin',(32.5163688924259,321.918584482359,364.504249882328));
#814=CARTESIAN_POINT('',(27.5163688931152,330.689083903185,355.733750462232));
#815=CARTESIAN_POINT('Origin',(32.5163688924097,324.03990482584,366.625570225996));
#816=CARTESIAN_POINT('',(32.5163688924097,324.03990482584,366.625570225996));
#817=CARTESIAN_POINT('',(32.5163688923365,333.51751102798,357.147964024687));
#818=CARTESIAN_POINT('',(44.5163688924097,324.039904825932,366.625570225996));
#819=CARTESIAN_POINT('Origin',(27.5163688931124,329.628423731608,351.844663165642));
#820=CARTESIAN_POINT('Origin',(29.5163688931977,323.991576406019,357.266710023576));
#821=CARTESIAN_POINT('Origin',(29.5163688931977,323.991576406019,357.266710023576));
#822=CARTESIAN_POINT('Origin',(32.5163688924799,314.847516670818,357.433182070168));
#823=CARTESIAN_POINT('Origin',(44.5163688924799,314.84751667091,357.433182070168));
#824=CARTESIAN_POINT('Origin',(32.5163688923374,333.51751102798,357.147964024687));
#825=UNCERTAINTY_MEASURE_WITH_UNIT(LENGTH_MEASURE(0.01),#829,
'DISTANCE_ACCURACY_VALUE',
'Maximum model space distance between geometric entities at asserted c
onnectivities');
#826=UNCERTAINTY_MEASURE_WITH_UNIT(LENGTH_MEASURE(0.01),#829,
'DISTANCE_ACCURACY_VALUE',
'Maximum model space distance between geometric entities at asserted c
onnectivities');
#827=(
GEOMETRIC_REPRESENTATION_CONTEXT(3)
GLOBAL_UNCERTAINTY_ASSIGNED_CONTEXT((#825))
GLOBAL_UNIT_ASSIGNED_CONTEXT((#829,#831,#832))
REPRESENTATION_CONTEXT('','3D')
);
#828=(
GEOMETRIC_REPRESENTATION_CONTEXT(3)
GLOBAL_UNCERTAINTY_ASSIGNED_CONTEXT((#826))
GLOBAL_UNIT_ASSIGNED_CONTEXT((#829,#831,#832))
REPRESENTATION_CONTEXT('','3D')
);
#829=(
LENGTH_UNIT()
NAMED_UNIT(*)
SI_UNIT(.MILLI.,.METRE.)
);
#830=(
LENGTH_UNIT()
NAMED_UNIT(*)
SI_UNIT($,.METRE.)
);
#831=(
NAMED_UNIT(*)
PLANE_ANGLE_UNIT()
SI_UNIT($,.RADIAN.)
);
#832=(
NAMED_UNIT(*)
SI_UNIT($,.STERADIAN.)
SOLID_ANGLE_UNIT()
);
#833=SHAPE_DEFINITION_REPRESENTATION(#834,#835);
#834=PRODUCT_DEFINITION_SHAPE('',$,#837);
#835=SHAPE_REPRESENTATION('',(#525),#827);
#836=PRODUCT_DEFINITION_CONTEXT('part definition',#841,'design');
#837=PRODUCT_DEFINITION('tensionerinner3(1x)','tensionerinner3(1x) v1',
#838,#836);
#838=PRODUCT_DEFINITION_FORMATION('',$,#843);
#839=PRODUCT_RELATED_PRODUCT_CATEGORY('tensionerinner3(1x) v1',
'tensionerinner3(1x) v1',(#843));
#840=APPLICATION_PROTOCOL_DEFINITION('international standard',
'automotive_design',2009,#841);
#841=APPLICATION_CONTEXT(
'Core Data for Automotive Mechanical Design Process');
#842=PRODUCT_CONTEXT('part definition',#841,'mechanical');
#843=PRODUCT('tensionerinner3(1x)','tensionerinner3(1x) v1',$,(#842));
#844=PRESENTATION_STYLE_ASSIGNMENT((#845));
#845=SURFACE_STYLE_USAGE(.BOTH.,#846);
#846=SURFACE_SIDE_STYLE('',(#847));
#847=SURFACE_STYLE_FILL_AREA(#848);
#848=FILL_AREA_STYLE('Steel - Satin',(#849));
#849=FILL_AREA_STYLE_COLOUR('Steel - Satin',#850);
#850=COLOUR_RGB('Steel - Satin',0.627450980392157,0.627450980392157,0.627450980392157);
ENDSEC;
END-ISO-10303-21;
