ISO-10303-21;
HEADER;
/* Generated by software containing ST-Developer
 * from STEP Tools, Inc. (www.steptools.com) 
 */

FILE_DESCRIPTION(
/* description */ (''),
/* implementation_level */ '2;1');

FILE_NAME(
/* name */ 'TOOLHEAD(1x).step',
/* time_stamp */ '2025-12-01T16:07:59+05:30',
/* author */ (''),
/* organization */ (''),
/* preprocessor_version */ 'ST-DEVELOPER v20.1',
/* originating_system */ 'Autodesk Translation Framework v14.21.0.0',
/* authorisation */ '');

FILE_SCHEMA (('AUTOMOTIVE_DESIGN { 1 0 10303 214 3 1 1 }'));
ENDSEC;

DATA;
#10=MECHANICAL_DESIGN_GEOMETRIC_PRESENTATION_REPRESENTATION('',(#13),#1815);
#11=SHAPE_REPRESENTATION_RELATIONSHIP('SRR','None',#1822,#12);
#12=ADVANCED_BREP_SHAPE_REPRESENTATION('',(#14),#1814);
#13=STYLED_ITEM('',(#1832),#14);
#14=MANIFOLD_SOLID_BREP('TOOLHEAD',#1095);
#15=FACE_BOUND('',#136,.T.);
#16=FACE_BOUND('',#137,.T.);
#17=FACE_BOUND('',#138,.T.);
#18=FACE_BOUND('',#139,.T.);
#19=FACE_BOUND('',#140,.T.);
#20=FACE_BOUND('',#141,.T.);
#21=FACE_BOUND('',#142,.T.);
#22=FACE_BOUND('',#143,.T.);
#23=FACE_BOUND('',#144,.T.);
#24=FACE_BOUND('',#145,.T.);
#25=FACE_BOUND('',#146,.T.);
#26=FACE_BOUND('',#177,.T.);
#27=FACE_BOUND('',#178,.T.);
#28=FACE_BOUND('',#179,.T.);
#29=FACE_BOUND('',#180,.T.);
#30=FACE_BOUND('',#181,.T.);
#31=FACE_BOUND('',#182,.T.);
#32=FACE_BOUND('',#183,.T.);
#33=FACE_BOUND('',#184,.T.);
#34=FACE_BOUND('',#185,.T.);
#35=FACE_BOUND('',#186,.T.);
#36=FACE_BOUND('',#187,.T.);
#37=FACE_BOUND('',#197,.T.);
#38=FACE_BOUND('',#200,.T.);
#39=FACE_BOUND('',#203,.T.);
#40=PLANE('',#1118);
#41=PLANE('',#1119);
#42=PLANE('',#1121);
#43=PLANE('',#1134);
#44=PLANE('',#1137);
#45=PLANE('',#1140);
#46=PLANE('',#1143);
#47=PLANE('',#1146);
#48=PLANE('',#1147);
#49=PLANE('',#1148);
#50=PLANE('',#1151);
#51=PLANE('',#1153);
#52=PLANE('',#1158);
#53=PLANE('',#1162);
#54=PLANE('',#1169);
#55=PLANE('',#1170);
#56=PLANE('',#1171);
#57=PLANE('',#1172);
#58=PLANE('',#1173);
#59=PLANE('',#1174);
#60=PLANE('',#1175);
#61=PLANE('',#1178);
#62=PLANE('',#1182);
#63=PLANE('',#1184);
#64=PLANE('',#1185);
#65=PLANE('',#1188);
#66=PLANE('',#1189);
#67=PLANE('',#1190);
#68=PLANE('',#1193);
#69=PLANE('',#1196);
#70=PLANE('',#1199);
#71=PLANE('',#1200);
#72=PLANE('',#1201);
#73=PLANE('',#1202);
#74=PLANE('',#1203);
#75=FACE_OUTER_BOUND('',#130,.T.);
#76=FACE_OUTER_BOUND('',#131,.T.);
#77=FACE_OUTER_BOUND('',#132,.T.);
#78=FACE_OUTER_BOUND('',#133,.T.);
#79=FACE_OUTER_BOUND('',#134,.T.);
#80=FACE_OUTER_BOUND('',#135,.T.);
#81=FACE_OUTER_BOUND('',#147,.T.);
#82=FACE_OUTER_BOUND('',#148,.T.);
#83=FACE_OUTER_BOUND('',#149,.T.);
#84=FACE_OUTER_BOUND('',#150,.T.);
#85=FACE_OUTER_BOUND('',#151,.T.);
#86=FACE_OUTER_BOUND('',#152,.T.);
#87=FACE_OUTER_BOUND('',#153,.T.);
#88=FACE_OUTER_BOUND('',#154,.T.);
#89=FACE_OUTER_BOUND('',#155,.T.);
#90=FACE_OUTER_BOUND('',#156,.T.);
#91=FACE_OUTER_BOUND('',#157,.T.);
#92=FACE_OUTER_BOUND('',#158,.T.);
#93=FACE_OUTER_BOUND('',#159,.T.);
#94=FACE_OUTER_BOUND('',#160,.T.);
#95=FACE_OUTER_BOUND('',#161,.T.);
#96=FACE_OUTER_BOUND('',#162,.T.);
#97=FACE_OUTER_BOUND('',#163,.T.);
#98=FACE_OUTER_BOUND('',#164,.T.);
#99=FACE_OUTER_BOUND('',#165,.T.);
#100=FACE_OUTER_BOUND('',#166,.T.);
#101=FACE_OUTER_BOUND('',#167,.T.);
#102=FACE_OUTER_BOUND('',#168,.T.);
#103=FACE_OUTER_BOUND('',#169,.T.);
#104=FACE_OUTER_BOUND('',#170,.T.);
#105=FACE_OUTER_BOUND('',#171,.T.);
#106=FACE_OUTER_BOUND('',#172,.T.);
#107=FACE_OUTER_BOUND('',#173,.T.);
#108=FACE_OUTER_BOUND('',#174,.T.);
#109=FACE_OUTER_BOUND('',#175,.T.);
#110=FACE_OUTER_BOUND('',#176,.T.);
#111=FACE_OUTER_BOUND('',#188,.T.);
#112=FACE_OUTER_BOUND('',#189,.T.);
#113=FACE_OUTER_BOUND('',#190,.T.);
#114=FACE_OUTER_BOUND('',#191,.T.);
#115=FACE_OUTER_BOUND('',#192,.T.);
#116=FACE_OUTER_BOUND('',#193,.T.);
#117=FACE_OUTER_BOUND('',#194,.T.);
#118=FACE_OUTER_BOUND('',#195,.T.);
#119=FACE_OUTER_BOUND('',#196,.T.);
#120=FACE_OUTER_BOUND('',#198,.T.);
#121=FACE_OUTER_BOUND('',#199,.T.);
#122=FACE_OUTER_BOUND('',#201,.T.);
#123=FACE_OUTER_BOUND('',#202,.T.);
#124=FACE_OUTER_BOUND('',#204,.T.);
#125=FACE_OUTER_BOUND('',#205,.T.);
#126=FACE_OUTER_BOUND('',#206,.T.);
#127=FACE_OUTER_BOUND('',#207,.T.);
#128=FACE_OUTER_BOUND('',#208,.T.);
#129=FACE_OUTER_BOUND('',#209,.T.);
#130=EDGE_LOOP('',(#720,#721,#722,#723));
#131=EDGE_LOOP('',(#724,#725,#726,#727));
#132=EDGE_LOOP('',(#728,#729,#730,#731));
#133=EDGE_LOOP('',(#732,#733,#734,#735));
#134=EDGE_LOOP('',(#736,#737,#738,#739));
#135=EDGE_LOOP('',(#740,#741,#742,#743));
#136=EDGE_LOOP('',(#744,#745,#746,#747));
#137=EDGE_LOOP('',(#748,#749,#750,#751));
#138=EDGE_LOOP('',(#752,#753,#754,#755));
#139=EDGE_LOOP('',(#756,#757,#758,#759));
#140=EDGE_LOOP('',(#760));
#141=EDGE_LOOP('',(#761));
#142=EDGE_LOOP('',(#762));
#143=EDGE_LOOP('',(#763,#764,#765,#766));
#144=EDGE_LOOP('',(#767,#768,#769,#770,#771,#772));
#145=EDGE_LOOP('',(#773));
#146=EDGE_LOOP('',(#774));
#147=EDGE_LOOP('',(#775,#776,#777,#778));
#148=EDGE_LOOP('',(#779,#780,#781,#782));
#149=EDGE_LOOP('',(#783,#784,#785,#786,#787,#788,#789));
#150=EDGE_LOOP('',(#790,#791,#792,#793,#794,#795,#796));
#151=EDGE_LOOP('',(#797,#798,#799,#800,#801,#802,#803));
#152=EDGE_LOOP('',(#804,#805,#806,#807,#808,#809,#810));
#153=EDGE_LOOP('',(#811,#812,#813,#814));
#154=EDGE_LOOP('',(#815,#816,#817,#818));
#155=EDGE_LOOP('',(#819,#820,#821,#822));
#156=EDGE_LOOP('',(#823,#824,#825,#826));
#157=EDGE_LOOP('',(#827,#828,#829,#830));
#158=EDGE_LOOP('',(#831,#832,#833,#834));
#159=EDGE_LOOP('',(#835,#836,#837,#838));
#160=EDGE_LOOP('',(#839,#840,#841,#842));
#161=EDGE_LOOP('',(#843,#844,#845,#846));
#162=EDGE_LOOP('',(#847,#848,#849,#850));
#163=EDGE_LOOP('',(#851,#852,#853,#854));
#164=EDGE_LOOP('',(#855,#856,#857,#858));
#165=EDGE_LOOP('',(#859,#860,#861,#862));
#166=EDGE_LOOP('',(#863,#864,#865,#866));
#167=EDGE_LOOP('',(#867,#868,#869,#870));
#168=EDGE_LOOP('',(#871,#872,#873,#874));
#169=EDGE_LOOP('',(#875,#876,#877,#878));
#170=EDGE_LOOP('',(#879,#880,#881,#882));
#171=EDGE_LOOP('',(#883,#884,#885,#886,#887,#888,#889));
#172=EDGE_LOOP('',(#890,#891,#892,#893,#894,#895,#896));
#173=EDGE_LOOP('',(#897,#898,#899,#900,#901,#902,#903));
#174=EDGE_LOOP('',(#904,#905,#906,#907,#908,#909,#910));
#175=EDGE_LOOP('',(#911,#912,#913,#914));
#176=EDGE_LOOP('',(#915,#916,#917,#918));
#177=EDGE_LOOP('',(#919));
#178=EDGE_LOOP('',(#920));
#179=EDGE_LOOP('',(#921));
#180=EDGE_LOOP('',(#922));
#181=EDGE_LOOP('',(#923));
#182=EDGE_LOOP('',(#924,#925,#926,#927));
#183=EDGE_LOOP('',(#928,#929,#930,#931));
#184=EDGE_LOOP('',(#932,#933,#934,#935));
#185=EDGE_LOOP('',(#936,#937,#938,#939));
#186=EDGE_LOOP('',(#940,#941,#942,#943));
#187=EDGE_LOOP('',(#944,#945,#946,#947,#948,#949));
#188=EDGE_LOOP('',(#950,#951,#952,#953));
#189=EDGE_LOOP('',(#954,#955,#956,#957));
#190=EDGE_LOOP('',(#958,#959,#960,#961));
#191=EDGE_LOOP('',(#962,#963,#964,#965));
#192=EDGE_LOOP('',(#966,#967,#968,#969));
#193=EDGE_LOOP('',(#970,#971,#972,#973));
#194=EDGE_LOOP('',(#974,#975,#976,#977));
#195=EDGE_LOOP('',(#978,#979,#980,#981));
#196=EDGE_LOOP('',(#982));
#197=EDGE_LOOP('',(#983));
#198=EDGE_LOOP('',(#984,#985,#986,#987));
#199=EDGE_LOOP('',(#988));
#200=EDGE_LOOP('',(#989));
#201=EDGE_LOOP('',(#990,#991,#992,#993));
#202=EDGE_LOOP('',(#994));
#203=EDGE_LOOP('',(#995));
#204=EDGE_LOOP('',(#996,#997,#998,#999));
#205=EDGE_LOOP('',(#1000,#1001,#1002,#1003));
#206=EDGE_LOOP('',(#1004,#1005,#1006,#1007));
#207=EDGE_LOOP('',(#1008,#1009,#1010,#1011));
#208=EDGE_LOOP('',(#1012,#1013,#1014,#1015));
#209=EDGE_LOOP('',(#1016,#1017,#1018,#1019));
#210=LINE('',#1511,#320);
#211=LINE('',#1517,#321);
#212=LINE('',#1523,#322);
#213=LINE('',#1528,#323);
#214=LINE('',#1530,#324);
#215=LINE('',#1532,#325);
#216=LINE('',#1533,#326);
#217=LINE('',#1536,#327);
#218=LINE('',#1539,#328);
#219=LINE('',#1542,#329);
#220=LINE('',#1543,#330);
#221=LINE('',#1546,#331);
#222=LINE('',#1548,#332);
#223=LINE('',#1550,#333);
#224=LINE('',#1551,#334);
#225=LINE('',#1554,#335);
#226=LINE('',#1556,#336);
#227=LINE('',#1558,#337);
#228=LINE('',#1559,#338);
#229=LINE('',#1562,#339);
#230=LINE('',#1564,#340);
#231=LINE('',#1566,#341);
#232=LINE('',#1567,#342);
#233=LINE('',#1570,#343);
#234=LINE('',#1572,#344);
#235=LINE('',#1574,#345);
#236=LINE('',#1575,#346);
#237=LINE('',#1584,#347);
#238=LINE('',#1588,#348);
#239=LINE('',#1589,#349);
#240=LINE('',#1592,#350);
#241=LINE('',#1596,#351);
#242=LINE('',#1600,#352);
#243=LINE('',#1601,#353);
#244=LINE('',#1609,#354);
#245=LINE('',#1613,#355);
#246=LINE('',#1617,#356);
#247=LINE('',#1618,#357);
#248=LINE('',#1622,#358);
#249=LINE('',#1624,#359);
#250=LINE('',#1629,#360);
#251=LINE('',#1633,#361);
#252=LINE('',#1635,#362);
#253=LINE('',#1637,#363);
#254=LINE('',#1641,#364);
#255=LINE('',#1645,#365);
#256=LINE('',#1647,#366);
#257=LINE('',#1649,#367);
#258=LINE('',#1653,#368);
#259=LINE('',#1654,#369);
#260=LINE('',#1658,#370);
#261=LINE('',#1660,#371);
#262=LINE('',#1663,#372);
#263=LINE('',#1665,#373);
#264=LINE('',#1666,#374);
#265=LINE('',#1668,#375);
#266=LINE('',#1669,#376);
#267=LINE('',#1673,#377);
#268=LINE('',#1675,#378);
#269=LINE('',#1677,#379);
#270=LINE('',#1679,#380);
#271=LINE('',#1685,#381);
#272=LINE('',#1688,#382);
#273=LINE('',#1691,#383);
#274=LINE('',#1693,#384);
#275=LINE('',#1694,#385);
#276=LINE('',#1700,#386);
#277=LINE('',#1703,#387);
#278=LINE('',#1706,#388);
#279=LINE('',#1708,#389);
#280=LINE('',#1709,#390);
#281=LINE('',#1715,#391);
#282=LINE('',#1721,#392);
#283=LINE('',#1723,#393);
#284=LINE('',#1724,#394);
#285=LINE('',#1726,#395);
#286=LINE('',#1727,#396);
#287=LINE('',#1731,#397);
#288=LINE('',#1732,#398);
#289=LINE('',#1733,#399);
#290=LINE('',#1735,#400);
#291=LINE('',#1737,#401);
#292=LINE('',#1740,#402);
#293=LINE('',#1741,#403);
#294=LINE('',#1744,#404);
#295=LINE('',#1745,#405);
#296=LINE('',#1749,#406);
#297=LINE('',#1751,#407);
#298=LINE('',#1752,#408);
#299=LINE('',#1753,#409);
#300=LINE('',#1756,#410);
#301=LINE('',#1758,#411);
#302=LINE('',#1761,#412);
#303=LINE('',#1764,#413);
#304=LINE('',#1766,#414);
#305=LINE('',#1770,#415);
#306=LINE('',#1773,#416);
#307=LINE('',#1775,#417);
#308=LINE('',#1776,#418);
#309=LINE('',#1778,#419);
#310=LINE('',#1780,#420);
#311=LINE('',#1782,#421);
#312=LINE('',#1783,#422);
#313=LINE('',#1786,#423);
#314=LINE('',#1787,#424);
#315=LINE('',#1789,#425);
#316=LINE('',#1791,#426);
#317=LINE('',#1796,#427);
#318=LINE('',#1801,#428);
#319=LINE('',#1806,#429);
#320=VECTOR('',#1210,1.49999999999999);
#321=VECTOR('',#1217,1.49999999999999);
#322=VECTOR('',#1224,1.5);
#323=VECTOR('',#1229,10.);
#324=VECTOR('',#1230,10.);
#325=VECTOR('',#1231,10.);
#326=VECTOR('',#1232,10.);
#327=VECTOR('',#1235,10.);
#328=VECTOR('',#1238,10.);
#329=VECTOR('',#1241,10.);
#330=VECTOR('',#1242,5.686);
#331=VECTOR('',#1243,10.);
#332=VECTOR('',#1244,10.);
#333=VECTOR('',#1245,10.);
#334=VECTOR('',#1246,10.);
#335=VECTOR('',#1247,10.);
#336=VECTOR('',#1248,10.);
#337=VECTOR('',#1249,10.);
#338=VECTOR('',#1250,10.);
#339=VECTOR('',#1251,10.);
#340=VECTOR('',#1252,10.);
#341=VECTOR('',#1253,10.);
#342=VECTOR('',#1254,10.);
#343=VECTOR('',#1255,10.);
#344=VECTOR('',#1256,10.);
#345=VECTOR('',#1257,10.);
#346=VECTOR('',#1258,10.);
#347=VECTOR('',#1265,10.);
#348=VECTOR('',#1268,10.);
#349=VECTOR('',#1269,10.);
#350=VECTOR('',#1270,10.);
#351=VECTOR('',#1273,10.);
#352=VECTOR('',#1276,10.);
#353=VECTOR('',#1277,10.);
#354=VECTOR('',#1286,1.75);
#355=VECTOR('',#1291,1.75);
#356=VECTOR('',#1294,10.);
#357=VECTOR('',#1295,10.);
#358=VECTOR('',#1298,10.);
#359=VECTOR('',#1299,10.);
#360=VECTOR('',#1304,10.);
#361=VECTOR('',#1307,10.);
#362=VECTOR('',#1308,10.);
#363=VECTOR('',#1311,10.);
#364=VECTOR('',#1314,10.);
#365=VECTOR('',#1317,10.);
#366=VECTOR('',#1318,10.);
#367=VECTOR('',#1321,10.);
#368=VECTOR('',#1324,10.);
#369=VECTOR('',#1325,10.);
#370=VECTOR('',#1328,10.);
#371=VECTOR('',#1329,10.);
#372=VECTOR('',#1334,10.);
#373=VECTOR('',#1337,10.);
#374=VECTOR('',#1338,10.);
#375=VECTOR('',#1341,10.);
#376=VECTOR('',#1342,10.);
#377=VECTOR('',#1349,10.);
#378=VECTOR('',#1352,10.);
#379=VECTOR('',#1355,10.);
#380=VECTOR('',#1358,10.);
#381=VECTOR('',#1363,10.);
#382=VECTOR('',#1366,10.);
#383=VECTOR('',#1369,10.);
#384=VECTOR('',#1370,10.);
#385=VECTOR('',#1371,10.);
#386=VECTOR('',#1376,10.);
#387=VECTOR('',#1379,10.);
#388=VECTOR('',#1382,10.);
#389=VECTOR('',#1383,10.);
#390=VECTOR('',#1384,10.);
#391=VECTOR('',#1391,10.);
#392=VECTOR('',#1398,10.);
#393=VECTOR('',#1401,10.);
#394=VECTOR('',#1402,10.);
#395=VECTOR('',#1405,10.);
#396=VECTOR('',#1406,10.);
#397=VECTOR('',#1409,10.);
#398=VECTOR('',#1410,10.);
#399=VECTOR('',#1411,10.);
#400=VECTOR('',#1414,10.);
#401=VECTOR('',#1417,10.);
#402=VECTOR('',#1420,10.);
#403=VECTOR('',#1421,10.);
#404=VECTOR('',#1424,10.);
#405=VECTOR('',#1425,10.);
#406=VECTOR('',#1430,10.);
#407=VECTOR('',#1433,10.);
#408=VECTOR('',#1434,10.);
#409=VECTOR('',#1435,10.);
#410=VECTOR('',#1436,10.);
#411=VECTOR('',#1437,10.);
#412=VECTOR('',#1440,10.);
#413=VECTOR('',#1441,10.);
#414=VECTOR('',#1442,10.);
#415=VECTOR('',#1445,10.);
#416=VECTOR('',#1448,10.);
#417=VECTOR('',#1451,10.);
#418=VECTOR('',#1452,10.);
#419=VECTOR('',#1455,10.);
#420=VECTOR('',#1458,10.);
#421=VECTOR('',#1461,10.);
#422=VECTOR('',#1462,10.);
#423=VECTOR('',#1467,10.);
#424=VECTOR('',#1468,10.);
#425=VECTOR('',#1471,10.);
#426=VECTOR('',#1474,10.);
#427=VECTOR('',#1481,2.25000000000001);
#428=VECTOR('',#1488,2.25);
#429=VECTOR('',#1495,2.25000000000001);
#430=CIRCLE('',#1110,1.49999999999999);
#431=CIRCLE('',#1111,1.49999999999999);
#432=CIRCLE('',#1113,1.49999999999999);
#433=CIRCLE('',#1114,1.49999999999999);
#434=CIRCLE('',#1116,1.5);
#435=CIRCLE('',#1117,1.5);
#436=CIRCLE('',#1120,5.68599999999999);
#437=CIRCLE('',#1122,2.25000000000001);
#438=CIRCLE('',#1123,2.25);
#439=CIRCLE('',#1124,2.25000000000001);
#440=CIRCLE('',#1125,1.50000000000002);
#441=CIRCLE('',#1126,1.4);
#442=CIRCLE('',#1127,1.39999999999998);
#443=CIRCLE('',#1128,1.75);
#444=CIRCLE('',#1129,1.75);
#445=CIRCLE('',#1131,1.75);
#446=CIRCLE('',#1133,1.75);
#447=CIRCLE('',#1135,1.);
#448=CIRCLE('',#1136,2.);
#449=CIRCLE('',#1138,2.);
#450=CIRCLE('',#1139,1.);
#451=CIRCLE('',#1141,2.);
#452=CIRCLE('',#1142,1.);
#453=CIRCLE('',#1144,1.);
#454=CIRCLE('',#1145,2.);
#455=CIRCLE('',#1156,2.);
#456=CIRCLE('',#1157,2.);
#457=CIRCLE('',#1160,2.);
#458=CIRCLE('',#1161,2.);
#459=CIRCLE('',#1164,1.);
#460=CIRCLE('',#1165,1.);
#461=CIRCLE('',#1167,1.);
#462=CIRCLE('',#1168,1.);
#463=CIRCLE('',#1177,5.68599999999999);
#464=CIRCLE('',#1179,1.50000000000002);
#465=CIRCLE('',#1180,1.39999999999998);
#466=CIRCLE('',#1181,1.4);
#467=CIRCLE('',#1191,2.25000000000001);
#468=CIRCLE('',#1194,2.25);
#469=CIRCLE('',#1197,2.25000000000001);
#470=VERTEX_POINT('',#1508);
#471=VERTEX_POINT('',#1510);
#472=VERTEX_POINT('',#1514);
#473=VERTEX_POINT('',#1516);
#474=VERTEX_POINT('',#1520);
#475=VERTEX_POINT('',#1522);
#476=VERTEX_POINT('',#1526);
#477=VERTEX_POINT('',#1527);
#478=VERTEX_POINT('',#1529);
#479=VERTEX_POINT('',#1531);
#480=VERTEX_POINT('',#1535);
#481=VERTEX_POINT('',#1537);
#482=VERTEX_POINT('',#1541);
#483=VERTEX_POINT('',#1544);
#484=VERTEX_POINT('',#1545);
#485=VERTEX_POINT('',#1547);
#486=VERTEX_POINT('',#1549);
#487=VERTEX_POINT('',#1552);
#488=VERTEX_POINT('',#1553);
#489=VERTEX_POINT('',#1555);
#490=VERTEX_POINT('',#1557);
#491=VERTEX_POINT('',#1560);
#492=VERTEX_POINT('',#1561);
#493=VERTEX_POINT('',#1563);
#494=VERTEX_POINT('',#1565);
#495=VERTEX_POINT('',#1568);
#496=VERTEX_POINT('',#1569);
#497=VERTEX_POINT('',#1571);
#498=VERTEX_POINT('',#1573);
#499=VERTEX_POINT('',#1576);
#500=VERTEX_POINT('',#1578);
#501=VERTEX_POINT('',#1580);
#502=VERTEX_POINT('',#1582);
#503=VERTEX_POINT('',#1583);
#504=VERTEX_POINT('',#1585);
#505=VERTEX_POINT('',#1587);
#506=VERTEX_POINT('',#1590);
#507=VERTEX_POINT('',#1591);
#508=VERTEX_POINT('',#1593);
#509=VERTEX_POINT('',#1595);
#510=VERTEX_POINT('',#1597);
#511=VERTEX_POINT('',#1599);
#512=VERTEX_POINT('',#1602);
#513=VERTEX_POINT('',#1604);
#514=VERTEX_POINT('',#1607);
#515=VERTEX_POINT('',#1611);
#516=VERTEX_POINT('',#1615);
#517=VERTEX_POINT('',#1616);
#518=VERTEX_POINT('',#1619);
#519=VERTEX_POINT('',#1621);
#520=VERTEX_POINT('',#1623);
#521=VERTEX_POINT('',#1627);
#522=VERTEX_POINT('',#1628);
#523=VERTEX_POINT('',#1630);
#524=VERTEX_POINT('',#1632);
#525=VERTEX_POINT('',#1634);
#526=VERTEX_POINT('',#1639);
#527=VERTEX_POINT('',#1640);
#528=VERTEX_POINT('',#1642);
#529=VERTEX_POINT('',#1644);
#530=VERTEX_POINT('',#1646);
#531=VERTEX_POINT('',#1651);
#532=VERTEX_POINT('',#1652);
#533=VERTEX_POINT('',#1655);
#534=VERTEX_POINT('',#1657);
#535=VERTEX_POINT('',#1659);
#536=VERTEX_POINT('',#1681);
#537=VERTEX_POINT('',#1682);
#538=VERTEX_POINT('',#1684);
#539=VERTEX_POINT('',#1686);
#540=VERTEX_POINT('',#1690);
#541=VERTEX_POINT('',#1692);
#542=VERTEX_POINT('',#1696);
#543=VERTEX_POINT('',#1697);
#544=VERTEX_POINT('',#1699);
#545=VERTEX_POINT('',#1701);
#546=VERTEX_POINT('',#1705);
#547=VERTEX_POINT('',#1707);
#548=VERTEX_POINT('',#1711);
#549=VERTEX_POINT('',#1713);
#550=VERTEX_POINT('',#1717);
#551=VERTEX_POINT('',#1719);
#552=VERTEX_POINT('',#1729);
#553=VERTEX_POINT('',#1730);
#554=VERTEX_POINT('',#1739);
#555=VERTEX_POINT('',#1743);
#556=VERTEX_POINT('',#1747);
#557=VERTEX_POINT('',#1754);
#558=VERTEX_POINT('',#1755);
#559=VERTEX_POINT('',#1757);
#560=VERTEX_POINT('',#1759);
#561=VERTEX_POINT('',#1762);
#562=VERTEX_POINT('',#1763);
#563=VERTEX_POINT('',#1765);
#564=VERTEX_POINT('',#1767);
#565=VERTEX_POINT('',#1769);
#566=VERTEX_POINT('',#1771);
#567=VERTEX_POINT('',#1793);
#568=VERTEX_POINT('',#1798);
#569=VERTEX_POINT('',#1803);
#570=EDGE_CURVE('',#470,#470,#430,.T.);
#571=EDGE_CURVE('',#470,#471,#210,.T.);
#572=EDGE_CURVE('',#471,#471,#431,.T.);
#573=EDGE_CURVE('',#472,#472,#432,.T.);
#574=EDGE_CURVE('',#472,#473,#211,.T.);
#575=EDGE_CURVE('',#473,#473,#433,.T.);
#576=EDGE_CURVE('',#474,#474,#434,.T.);
#577=EDGE_CURVE('',#474,#475,#212,.T.);
#578=EDGE_CURVE('',#475,#475,#435,.T.);
#579=EDGE_CURVE('',#476,#477,#213,.T.);
#580=EDGE_CURVE('',#478,#476,#214,.T.);
#581=EDGE_CURVE('',#479,#478,#215,.T.);
#582=EDGE_CURVE('',#477,#479,#216,.T.);
#583=EDGE_CURVE('',#476,#480,#217,.T.);
#584=EDGE_CURVE('',#481,#480,#436,.T.);
#585=EDGE_CURVE('',#478,#481,#218,.T.);
#586=EDGE_CURVE('',#477,#482,#219,.T.);
#587=EDGE_CURVE('',#480,#482,#220,.T.);
#588=EDGE_CURVE('',#483,#484,#221,.T.);
#589=EDGE_CURVE('',#485,#484,#222,.T.);
#590=EDGE_CURVE('',#485,#486,#223,.T.);
#591=EDGE_CURVE('',#486,#483,#224,.T.);
#592=EDGE_CURVE('',#487,#488,#225,.T.);
#593=EDGE_CURVE('',#489,#488,#226,.T.);
#594=EDGE_CURVE('',#489,#490,#227,.T.);
#595=EDGE_CURVE('',#490,#487,#228,.T.);
#596=EDGE_CURVE('',#491,#492,#229,.T.);
#597=EDGE_CURVE('',#492,#493,#230,.T.);
#598=EDGE_CURVE('',#494,#493,#231,.T.);
#599=EDGE_CURVE('',#494,#491,#232,.T.);
#600=EDGE_CURVE('',#495,#496,#233,.T.);
#601=EDGE_CURVE('',#496,#497,#234,.T.);
#602=EDGE_CURVE('',#498,#497,#235,.T.);
#603=EDGE_CURVE('',#498,#495,#236,.T.);
#604=EDGE_CURVE('',#499,#499,#437,.T.);
#605=EDGE_CURVE('',#500,#500,#438,.T.);
#606=EDGE_CURVE('',#501,#501,#439,.T.);
#607=EDGE_CURVE('',#502,#503,#237,.T.);
#608=EDGE_CURVE('',#503,#504,#440,.T.);
#609=EDGE_CURVE('',#504,#505,#238,.T.);
#610=EDGE_CURVE('',#505,#502,#239,.T.);
#611=EDGE_CURVE('',#506,#507,#240,.T.);
#612=EDGE_CURVE('',#507,#508,#441,.T.);
#613=EDGE_CURVE('',#508,#509,#241,.T.);
#614=EDGE_CURVE('',#509,#510,#442,.T.);
#615=EDGE_CURVE('',#510,#511,#242,.T.);
#616=EDGE_CURVE('',#506,#511,#243,.T.);
#617=EDGE_CURVE('',#512,#512,#443,.T.);
#618=EDGE_CURVE('',#513,#513,#444,.T.);
#619=EDGE_CURVE('',#514,#514,#445,.T.);
#620=EDGE_CURVE('',#514,#513,#244,.T.);
#621=EDGE_CURVE('',#515,#515,#446,.T.);
#622=EDGE_CURVE('',#515,#512,#245,.T.);
#623=EDGE_CURVE('',#516,#517,#246,.T.);
#624=EDGE_CURVE('',#516,#490,#247,.T.);
#625=EDGE_CURVE('',#518,#489,#447,.F.);
#626=EDGE_CURVE('',#519,#518,#248,.F.);
#627=EDGE_CURVE('',#519,#520,#249,.T.);
#628=EDGE_CURVE('',#517,#520,#448,.F.);
#629=EDGE_CURVE('',#521,#522,#250,.T.);
#630=EDGE_CURVE('',#523,#521,#449,.F.);
#631=EDGE_CURVE('',#524,#523,#251,.T.);
#632=EDGE_CURVE('',#525,#524,#252,.F.);
#633=EDGE_CURVE('',#488,#525,#450,.F.);
#634=EDGE_CURVE('',#487,#522,#253,.T.);
#635=EDGE_CURVE('',#526,#527,#254,.T.);
#636=EDGE_CURVE('',#528,#526,#451,.F.);
#637=EDGE_CURVE('',#529,#528,#255,.T.);
#638=EDGE_CURVE('',#530,#529,#256,.F.);
#639=EDGE_CURVE('',#497,#530,#452,.F.);
#640=EDGE_CURVE('',#496,#527,#257,.T.);
#641=EDGE_CURVE('',#531,#532,#258,.T.);
#642=EDGE_CURVE('',#531,#495,#259,.T.);
#643=EDGE_CURVE('',#533,#498,#453,.F.);
#644=EDGE_CURVE('',#534,#533,#260,.F.);
#645=EDGE_CURVE('',#534,#535,#261,.T.);
#646=EDGE_CURVE('',#532,#535,#454,.F.);
#647=EDGE_CURVE('',#522,#516,#262,.T.);
#648=EDGE_CURVE('',#525,#518,#263,.T.);
#649=EDGE_CURVE('',#524,#519,#264,.T.);
#650=EDGE_CURVE('',#530,#533,#265,.T.);
#651=EDGE_CURVE('',#529,#534,#266,.T.);
#652=EDGE_CURVE('',#520,#523,#267,.T.);
#653=EDGE_CURVE('',#521,#517,#268,.T.);
#654=EDGE_CURVE('',#535,#528,#269,.T.);
#655=EDGE_CURVE('',#526,#532,#270,.T.);
#656=EDGE_CURVE('',#536,#537,#455,.F.);
#657=EDGE_CURVE('',#537,#538,#271,.T.);
#658=EDGE_CURVE('',#538,#539,#456,.F.);
#659=EDGE_CURVE('',#539,#536,#272,.T.);
#660=EDGE_CURVE('',#540,#538,#273,.T.);
#661=EDGE_CURVE('',#541,#537,#274,.T.);
#662=EDGE_CURVE('',#540,#541,#275,.T.);
#663=EDGE_CURVE('',#542,#543,#457,.F.);
#664=EDGE_CURVE('',#543,#544,#276,.T.);
#665=EDGE_CURVE('',#544,#545,#458,.F.);
#666=EDGE_CURVE('',#545,#542,#277,.T.);
#667=EDGE_CURVE('',#546,#543,#278,.T.);
#668=EDGE_CURVE('',#547,#546,#279,.T.);
#669=EDGE_CURVE('',#547,#544,#280,.T.);
#670=EDGE_CURVE('',#548,#485,#459,.F.);
#671=EDGE_CURVE('',#484,#549,#460,.F.);
#672=EDGE_CURVE('',#549,#548,#281,.T.);
#673=EDGE_CURVE('',#550,#494,#461,.F.);
#674=EDGE_CURVE('',#493,#551,#462,.F.);
#675=EDGE_CURVE('',#551,#550,#282,.T.);
#676=EDGE_CURVE('',#549,#547,#283,.F.);
#677=EDGE_CURVE('',#546,#548,#284,.F.);
#678=EDGE_CURVE('',#551,#540,#285,.F.);
#679=EDGE_CURVE('',#541,#550,#286,.F.);
#680=EDGE_CURVE('',#552,#553,#287,.T.);
#681=EDGE_CURVE('',#483,#552,#288,.T.);
#682=EDGE_CURVE('',#553,#486,#289,.T.);
#683=EDGE_CURVE('',#553,#542,#290,.T.);
#684=EDGE_CURVE('',#545,#552,#291,.T.);
#685=EDGE_CURVE('',#554,#536,#292,.T.);
#686=EDGE_CURVE('',#554,#491,#293,.T.);
#687=EDGE_CURVE('',#555,#492,#294,.T.);
#688=EDGE_CURVE('',#539,#555,#295,.T.);
#689=EDGE_CURVE('',#556,#482,#463,.T.);
#690=EDGE_CURVE('',#556,#481,#296,.T.);
#691=EDGE_CURVE('',#556,#479,#297,.T.);
#692=EDGE_CURVE('',#555,#554,#298,.T.);
#693=EDGE_CURVE('',#527,#531,#299,.T.);
#694=EDGE_CURVE('',#557,#558,#300,.T.);
#695=EDGE_CURVE('',#558,#559,#301,.T.);
#696=EDGE_CURVE('',#559,#560,#464,.T.);
#697=EDGE_CURVE('',#560,#557,#302,.T.);
#698=EDGE_CURVE('',#561,#562,#303,.T.);
#699=EDGE_CURVE('',#562,#563,#304,.T.);
#700=EDGE_CURVE('',#563,#564,#465,.T.);
#701=EDGE_CURVE('',#564,#565,#305,.T.);
#702=EDGE_CURVE('',#565,#566,#466,.T.);
#703=EDGE_CURVE('',#566,#561,#306,.T.);
#704=EDGE_CURVE('',#565,#508,#307,.T.);
#705=EDGE_CURVE('',#564,#509,#308,.T.);
#706=EDGE_CURVE('',#566,#507,#309,.T.);
#707=EDGE_CURVE('',#561,#506,#310,.T.);
#708=EDGE_CURVE('',#563,#510,#311,.T.);
#709=EDGE_CURVE('',#562,#511,#312,.T.);
#710=EDGE_CURVE('',#560,#503,#313,.T.);
#711=EDGE_CURVE('',#559,#504,#314,.T.);
#712=EDGE_CURVE('',#557,#502,#315,.T.);
#713=EDGE_CURVE('',#558,#505,#316,.T.);
#714=EDGE_CURVE('',#567,#567,#467,.T.);
#715=EDGE_CURVE('',#499,#567,#317,.T.);
#716=EDGE_CURVE('',#568,#568,#468,.T.);
#717=EDGE_CURVE('',#500,#568,#318,.T.);
#718=EDGE_CURVE('',#569,#569,#469,.T.);
#719=EDGE_CURVE('',#501,#569,#319,.T.);
#720=ORIENTED_EDGE('',*,*,#570,.F.);
#721=ORIENTED_EDGE('',*,*,#571,.T.);
#722=ORIENTED_EDGE('',*,*,#572,.F.);
#723=ORIENTED_EDGE('',*,*,#571,.F.);
#724=ORIENTED_EDGE('',*,*,#573,.F.);
#725=ORIENTED_EDGE('',*,*,#574,.T.);
#726=ORIENTED_EDGE('',*,*,#575,.F.);
#727=ORIENTED_EDGE('',*,*,#574,.F.);
#728=ORIENTED_EDGE('',*,*,#576,.F.);
#729=ORIENTED_EDGE('',*,*,#577,.T.);
#730=ORIENTED_EDGE('',*,*,#578,.F.);
#731=ORIENTED_EDGE('',*,*,#577,.F.);
#732=ORIENTED_EDGE('',*,*,#579,.F.);
#733=ORIENTED_EDGE('',*,*,#580,.F.);
#734=ORIENTED_EDGE('',*,*,#581,.F.);
#735=ORIENTED_EDGE('',*,*,#582,.F.);
#736=ORIENTED_EDGE('',*,*,#580,.T.);
#737=ORIENTED_EDGE('',*,*,#583,.T.);
#738=ORIENTED_EDGE('',*,*,#584,.F.);
#739=ORIENTED_EDGE('',*,*,#585,.F.);
#740=ORIENTED_EDGE('',*,*,#579,.T.);
#741=ORIENTED_EDGE('',*,*,#586,.T.);
#742=ORIENTED_EDGE('',*,*,#587,.F.);
#743=ORIENTED_EDGE('',*,*,#583,.F.);
#744=ORIENTED_EDGE('',*,*,#588,.T.);
#745=ORIENTED_EDGE('',*,*,#589,.F.);
#746=ORIENTED_EDGE('',*,*,#590,.T.);
#747=ORIENTED_EDGE('',*,*,#591,.T.);
#748=ORIENTED_EDGE('',*,*,#592,.T.);
#749=ORIENTED_EDGE('',*,*,#593,.F.);
#750=ORIENTED_EDGE('',*,*,#594,.T.);
#751=ORIENTED_EDGE('',*,*,#595,.T.);
#752=ORIENTED_EDGE('',*,*,#596,.T.);
#753=ORIENTED_EDGE('',*,*,#597,.T.);
#754=ORIENTED_EDGE('',*,*,#598,.F.);
#755=ORIENTED_EDGE('',*,*,#599,.T.);
#756=ORIENTED_EDGE('',*,*,#600,.T.);
#757=ORIENTED_EDGE('',*,*,#601,.T.);
#758=ORIENTED_EDGE('',*,*,#602,.F.);
#759=ORIENTED_EDGE('',*,*,#603,.T.);
#760=ORIENTED_EDGE('',*,*,#604,.T.);
#761=ORIENTED_EDGE('',*,*,#605,.T.);
#762=ORIENTED_EDGE('',*,*,#606,.T.);
#763=ORIENTED_EDGE('',*,*,#607,.T.);
#764=ORIENTED_EDGE('',*,*,#608,.T.);
#765=ORIENTED_EDGE('',*,*,#609,.T.);
#766=ORIENTED_EDGE('',*,*,#610,.T.);
#767=ORIENTED_EDGE('',*,*,#611,.T.);
#768=ORIENTED_EDGE('',*,*,#612,.T.);
#769=ORIENTED_EDGE('',*,*,#613,.T.);
#770=ORIENTED_EDGE('',*,*,#614,.T.);
#771=ORIENTED_EDGE('',*,*,#615,.T.);
#772=ORIENTED_EDGE('',*,*,#616,.F.);
#773=ORIENTED_EDGE('',*,*,#617,.T.);
#774=ORIENTED_EDGE('',*,*,#618,.T.);
#775=ORIENTED_EDGE('',*,*,#619,.F.);
#776=ORIENTED_EDGE('',*,*,#620,.T.);
#777=ORIENTED_EDGE('',*,*,#618,.F.);
#778=ORIENTED_EDGE('',*,*,#620,.F.);
#779=ORIENTED_EDGE('',*,*,#621,.F.);
#780=ORIENTED_EDGE('',*,*,#622,.T.);
#781=ORIENTED_EDGE('',*,*,#617,.F.);
#782=ORIENTED_EDGE('',*,*,#622,.F.);
#783=ORIENTED_EDGE('',*,*,#623,.F.);
#784=ORIENTED_EDGE('',*,*,#624,.T.);
#785=ORIENTED_EDGE('',*,*,#594,.F.);
#786=ORIENTED_EDGE('',*,*,#625,.F.);
#787=ORIENTED_EDGE('',*,*,#626,.F.);
#788=ORIENTED_EDGE('',*,*,#627,.T.);
#789=ORIENTED_EDGE('',*,*,#628,.F.);
#790=ORIENTED_EDGE('',*,*,#629,.F.);
#791=ORIENTED_EDGE('',*,*,#630,.F.);
#792=ORIENTED_EDGE('',*,*,#631,.F.);
#793=ORIENTED_EDGE('',*,*,#632,.F.);
#794=ORIENTED_EDGE('',*,*,#633,.F.);
#795=ORIENTED_EDGE('',*,*,#592,.F.);
#796=ORIENTED_EDGE('',*,*,#634,.T.);
#797=ORIENTED_EDGE('',*,*,#635,.F.);
#798=ORIENTED_EDGE('',*,*,#636,.F.);
#799=ORIENTED_EDGE('',*,*,#637,.F.);
#800=ORIENTED_EDGE('',*,*,#638,.F.);
#801=ORIENTED_EDGE('',*,*,#639,.F.);
#802=ORIENTED_EDGE('',*,*,#601,.F.);
#803=ORIENTED_EDGE('',*,*,#640,.T.);
#804=ORIENTED_EDGE('',*,*,#641,.F.);
#805=ORIENTED_EDGE('',*,*,#642,.T.);
#806=ORIENTED_EDGE('',*,*,#603,.F.);
#807=ORIENTED_EDGE('',*,*,#643,.F.);
#808=ORIENTED_EDGE('',*,*,#644,.F.);
#809=ORIENTED_EDGE('',*,*,#645,.T.);
#810=ORIENTED_EDGE('',*,*,#646,.F.);
#811=ORIENTED_EDGE('',*,*,#647,.F.);
#812=ORIENTED_EDGE('',*,*,#634,.F.);
#813=ORIENTED_EDGE('',*,*,#595,.F.);
#814=ORIENTED_EDGE('',*,*,#624,.F.);
#815=ORIENTED_EDGE('',*,*,#648,.F.);
#816=ORIENTED_EDGE('',*,*,#632,.T.);
#817=ORIENTED_EDGE('',*,*,#649,.T.);
#818=ORIENTED_EDGE('',*,*,#626,.T.);
#819=ORIENTED_EDGE('',*,*,#650,.F.);
#820=ORIENTED_EDGE('',*,*,#638,.T.);
#821=ORIENTED_EDGE('',*,*,#651,.T.);
#822=ORIENTED_EDGE('',*,*,#644,.T.);
#823=ORIENTED_EDGE('',*,*,#643,.T.);
#824=ORIENTED_EDGE('',*,*,#602,.T.);
#825=ORIENTED_EDGE('',*,*,#639,.T.);
#826=ORIENTED_EDGE('',*,*,#650,.T.);
#827=ORIENTED_EDGE('',*,*,#625,.T.);
#828=ORIENTED_EDGE('',*,*,#593,.T.);
#829=ORIENTED_EDGE('',*,*,#633,.T.);
#830=ORIENTED_EDGE('',*,*,#648,.T.);
#831=ORIENTED_EDGE('',*,*,#652,.F.);
#832=ORIENTED_EDGE('',*,*,#627,.F.);
#833=ORIENTED_EDGE('',*,*,#649,.F.);
#834=ORIENTED_EDGE('',*,*,#631,.T.);
#835=ORIENTED_EDGE('',*,*,#628,.T.);
#836=ORIENTED_EDGE('',*,*,#652,.T.);
#837=ORIENTED_EDGE('',*,*,#630,.T.);
#838=ORIENTED_EDGE('',*,*,#653,.T.);
#839=ORIENTED_EDGE('',*,*,#654,.F.);
#840=ORIENTED_EDGE('',*,*,#645,.F.);
#841=ORIENTED_EDGE('',*,*,#651,.F.);
#842=ORIENTED_EDGE('',*,*,#637,.T.);
#843=ORIENTED_EDGE('',*,*,#646,.T.);
#844=ORIENTED_EDGE('',*,*,#654,.T.);
#845=ORIENTED_EDGE('',*,*,#636,.T.);
#846=ORIENTED_EDGE('',*,*,#655,.T.);
#847=ORIENTED_EDGE('',*,*,#656,.T.);
#848=ORIENTED_EDGE('',*,*,#657,.T.);
#849=ORIENTED_EDGE('',*,*,#658,.T.);
#850=ORIENTED_EDGE('',*,*,#659,.T.);
#851=ORIENTED_EDGE('',*,*,#660,.T.);
#852=ORIENTED_EDGE('',*,*,#657,.F.);
#853=ORIENTED_EDGE('',*,*,#661,.F.);
#854=ORIENTED_EDGE('',*,*,#662,.F.);
#855=ORIENTED_EDGE('',*,*,#663,.T.);
#856=ORIENTED_EDGE('',*,*,#664,.T.);
#857=ORIENTED_EDGE('',*,*,#665,.T.);
#858=ORIENTED_EDGE('',*,*,#666,.T.);
#859=ORIENTED_EDGE('',*,*,#664,.F.);
#860=ORIENTED_EDGE('',*,*,#667,.F.);
#861=ORIENTED_EDGE('',*,*,#668,.F.);
#862=ORIENTED_EDGE('',*,*,#669,.T.);
#863=ORIENTED_EDGE('',*,*,#670,.T.);
#864=ORIENTED_EDGE('',*,*,#589,.T.);
#865=ORIENTED_EDGE('',*,*,#671,.T.);
#866=ORIENTED_EDGE('',*,*,#672,.T.);
#867=ORIENTED_EDGE('',*,*,#673,.T.);
#868=ORIENTED_EDGE('',*,*,#598,.T.);
#869=ORIENTED_EDGE('',*,*,#674,.T.);
#870=ORIENTED_EDGE('',*,*,#675,.T.);
#871=ORIENTED_EDGE('',*,*,#672,.F.);
#872=ORIENTED_EDGE('',*,*,#676,.T.);
#873=ORIENTED_EDGE('',*,*,#668,.T.);
#874=ORIENTED_EDGE('',*,*,#677,.T.);
#875=ORIENTED_EDGE('',*,*,#675,.F.);
#876=ORIENTED_EDGE('',*,*,#678,.T.);
#877=ORIENTED_EDGE('',*,*,#662,.T.);
#878=ORIENTED_EDGE('',*,*,#679,.T.);
#879=ORIENTED_EDGE('',*,*,#680,.F.);
#880=ORIENTED_EDGE('',*,*,#681,.F.);
#881=ORIENTED_EDGE('',*,*,#591,.F.);
#882=ORIENTED_EDGE('',*,*,#682,.F.);
#883=ORIENTED_EDGE('',*,*,#683,.F.);
#884=ORIENTED_EDGE('',*,*,#682,.T.);
#885=ORIENTED_EDGE('',*,*,#590,.F.);
#886=ORIENTED_EDGE('',*,*,#670,.F.);
#887=ORIENTED_EDGE('',*,*,#677,.F.);
#888=ORIENTED_EDGE('',*,*,#667,.T.);
#889=ORIENTED_EDGE('',*,*,#663,.F.);
#890=ORIENTED_EDGE('',*,*,#684,.F.);
#891=ORIENTED_EDGE('',*,*,#665,.F.);
#892=ORIENTED_EDGE('',*,*,#669,.F.);
#893=ORIENTED_EDGE('',*,*,#676,.F.);
#894=ORIENTED_EDGE('',*,*,#671,.F.);
#895=ORIENTED_EDGE('',*,*,#588,.F.);
#896=ORIENTED_EDGE('',*,*,#681,.T.);
#897=ORIENTED_EDGE('',*,*,#685,.F.);
#898=ORIENTED_EDGE('',*,*,#686,.T.);
#899=ORIENTED_EDGE('',*,*,#599,.F.);
#900=ORIENTED_EDGE('',*,*,#673,.F.);
#901=ORIENTED_EDGE('',*,*,#679,.F.);
#902=ORIENTED_EDGE('',*,*,#661,.T.);
#903=ORIENTED_EDGE('',*,*,#656,.F.);
#904=ORIENTED_EDGE('',*,*,#597,.F.);
#905=ORIENTED_EDGE('',*,*,#687,.F.);
#906=ORIENTED_EDGE('',*,*,#688,.F.);
#907=ORIENTED_EDGE('',*,*,#658,.F.);
#908=ORIENTED_EDGE('',*,*,#660,.F.);
#909=ORIENTED_EDGE('',*,*,#678,.F.);
#910=ORIENTED_EDGE('',*,*,#674,.F.);
#911=ORIENTED_EDGE('',*,*,#587,.T.);
#912=ORIENTED_EDGE('',*,*,#689,.F.);
#913=ORIENTED_EDGE('',*,*,#690,.T.);
#914=ORIENTED_EDGE('',*,*,#584,.T.);
#915=ORIENTED_EDGE('',*,*,#581,.T.);
#916=ORIENTED_EDGE('',*,*,#585,.T.);
#917=ORIENTED_EDGE('',*,*,#690,.F.);
#918=ORIENTED_EDGE('',*,*,#691,.T.);
#919=ORIENTED_EDGE('',*,*,#572,.T.);
#920=ORIENTED_EDGE('',*,*,#575,.T.);
#921=ORIENTED_EDGE('',*,*,#578,.T.);
#922=ORIENTED_EDGE('',*,*,#619,.T.);
#923=ORIENTED_EDGE('',*,*,#621,.T.);
#924=ORIENTED_EDGE('',*,*,#692,.T.);
#925=ORIENTED_EDGE('',*,*,#685,.T.);
#926=ORIENTED_EDGE('',*,*,#659,.F.);
#927=ORIENTED_EDGE('',*,*,#688,.T.);
#928=ORIENTED_EDGE('',*,*,#693,.T.);
#929=ORIENTED_EDGE('',*,*,#641,.T.);
#930=ORIENTED_EDGE('',*,*,#655,.F.);
#931=ORIENTED_EDGE('',*,*,#635,.T.);
#932=ORIENTED_EDGE('',*,*,#629,.T.);
#933=ORIENTED_EDGE('',*,*,#647,.T.);
#934=ORIENTED_EDGE('',*,*,#623,.T.);
#935=ORIENTED_EDGE('',*,*,#653,.F.);
#936=ORIENTED_EDGE('',*,*,#694,.T.);
#937=ORIENTED_EDGE('',*,*,#695,.T.);
#938=ORIENTED_EDGE('',*,*,#696,.T.);
#939=ORIENTED_EDGE('',*,*,#697,.T.);
#940=ORIENTED_EDGE('',*,*,#684,.T.);
#941=ORIENTED_EDGE('',*,*,#680,.T.);
#942=ORIENTED_EDGE('',*,*,#683,.T.);
#943=ORIENTED_EDGE('',*,*,#666,.F.);
#944=ORIENTED_EDGE('',*,*,#698,.T.);
#945=ORIENTED_EDGE('',*,*,#699,.T.);
#946=ORIENTED_EDGE('',*,*,#700,.T.);
#947=ORIENTED_EDGE('',*,*,#701,.T.);
#948=ORIENTED_EDGE('',*,*,#702,.T.);
#949=ORIENTED_EDGE('',*,*,#703,.T.);
#950=ORIENTED_EDGE('',*,*,#613,.F.);
#951=ORIENTED_EDGE('',*,*,#704,.F.);
#952=ORIENTED_EDGE('',*,*,#701,.F.);
#953=ORIENTED_EDGE('',*,*,#705,.T.);
#954=ORIENTED_EDGE('',*,*,#612,.F.);
#955=ORIENTED_EDGE('',*,*,#706,.F.);
#956=ORIENTED_EDGE('',*,*,#702,.F.);
#957=ORIENTED_EDGE('',*,*,#704,.T.);
#958=ORIENTED_EDGE('',*,*,#611,.F.);
#959=ORIENTED_EDGE('',*,*,#707,.F.);
#960=ORIENTED_EDGE('',*,*,#703,.F.);
#961=ORIENTED_EDGE('',*,*,#706,.T.);
#962=ORIENTED_EDGE('',*,*,#615,.F.);
#963=ORIENTED_EDGE('',*,*,#708,.F.);
#964=ORIENTED_EDGE('',*,*,#699,.F.);
#965=ORIENTED_EDGE('',*,*,#709,.T.);
#966=ORIENTED_EDGE('',*,*,#614,.F.);
#967=ORIENTED_EDGE('',*,*,#705,.F.);
#968=ORIENTED_EDGE('',*,*,#700,.F.);
#969=ORIENTED_EDGE('',*,*,#708,.T.);
#970=ORIENTED_EDGE('',*,*,#608,.F.);
#971=ORIENTED_EDGE('',*,*,#710,.F.);
#972=ORIENTED_EDGE('',*,*,#696,.F.);
#973=ORIENTED_EDGE('',*,*,#711,.T.);
#974=ORIENTED_EDGE('',*,*,#607,.F.);
#975=ORIENTED_EDGE('',*,*,#712,.F.);
#976=ORIENTED_EDGE('',*,*,#697,.F.);
#977=ORIENTED_EDGE('',*,*,#710,.T.);
#978=ORIENTED_EDGE('',*,*,#609,.F.);
#979=ORIENTED_EDGE('',*,*,#711,.F.);
#980=ORIENTED_EDGE('',*,*,#695,.F.);
#981=ORIENTED_EDGE('',*,*,#713,.T.);
#982=ORIENTED_EDGE('',*,*,#714,.F.);
#983=ORIENTED_EDGE('',*,*,#576,.T.);
#984=ORIENTED_EDGE('',*,*,#604,.F.);
#985=ORIENTED_EDGE('',*,*,#715,.T.);
#986=ORIENTED_EDGE('',*,*,#714,.T.);
#987=ORIENTED_EDGE('',*,*,#715,.F.);
#988=ORIENTED_EDGE('',*,*,#716,.F.);
#989=ORIENTED_EDGE('',*,*,#570,.T.);
#990=ORIENTED_EDGE('',*,*,#605,.F.);
#991=ORIENTED_EDGE('',*,*,#717,.T.);
#992=ORIENTED_EDGE('',*,*,#716,.T.);
#993=ORIENTED_EDGE('',*,*,#717,.F.);
#994=ORIENTED_EDGE('',*,*,#718,.F.);
#995=ORIENTED_EDGE('',*,*,#573,.T.);
#996=ORIENTED_EDGE('',*,*,#606,.F.);
#997=ORIENTED_EDGE('',*,*,#719,.T.);
#998=ORIENTED_EDGE('',*,*,#718,.T.);
#999=ORIENTED_EDGE('',*,*,#719,.F.);
#1000=ORIENTED_EDGE('',*,*,#694,.F.);
#1001=ORIENTED_EDGE('',*,*,#712,.T.);
#1002=ORIENTED_EDGE('',*,*,#610,.F.);
#1003=ORIENTED_EDGE('',*,*,#713,.F.);
#1004=ORIENTED_EDGE('',*,*,#698,.F.);
#1005=ORIENTED_EDGE('',*,*,#707,.T.);
#1006=ORIENTED_EDGE('',*,*,#616,.T.);
#1007=ORIENTED_EDGE('',*,*,#709,.F.);
#1008=ORIENTED_EDGE('',*,*,#693,.F.);
#1009=ORIENTED_EDGE('',*,*,#640,.F.);
#1010=ORIENTED_EDGE('',*,*,#600,.F.);
#1011=ORIENTED_EDGE('',*,*,#642,.F.);
#1012=ORIENTED_EDGE('',*,*,#582,.T.);
#1013=ORIENTED_EDGE('',*,*,#691,.F.);
#1014=ORIENTED_EDGE('',*,*,#689,.T.);
#1015=ORIENTED_EDGE('',*,*,#586,.F.);
#1016=ORIENTED_EDGE('',*,*,#692,.F.);
#1017=ORIENTED_EDGE('',*,*,#687,.T.);
#1018=ORIENTED_EDGE('',*,*,#596,.F.);
#1019=ORIENTED_EDGE('',*,*,#686,.F.);
#1020=CYLINDRICAL_SURFACE('',#1109,1.49999999999999);
#1021=CYLINDRICAL_SURFACE('',#1112,1.49999999999999);
#1022=CYLINDRICAL_SURFACE('',#1115,1.5);
#1023=CYLINDRICAL_SURFACE('',#1130,1.75);
#1024=CYLINDRICAL_SURFACE('',#1132,1.75);
#1025=CYLINDRICAL_SURFACE('',#1149,1.);
#1026=CYLINDRICAL_SURFACE('',#1150,1.);
#1027=CYLINDRICAL_SURFACE('',#1152,2.);
#1028=CYLINDRICAL_SURFACE('',#1154,2.);
#1029=CYLINDRICAL_SURFACE('',#1155,2.);
#1030=CYLINDRICAL_SURFACE('',#1159,2.);
#1031=CYLINDRICAL_SURFACE('',#1163,1.);
#1032=CYLINDRICAL_SURFACE('',#1166,1.);
#1033=CYLINDRICAL_SURFACE('',#1176,5.68599999999999);
#1034=CYLINDRICAL_SURFACE('',#1183,1.4);
#1035=CYLINDRICAL_SURFACE('',#1186,1.39999999999998);
#1036=CYLINDRICAL_SURFACE('',#1187,1.50000000000002);
#1037=CYLINDRICAL_SURFACE('',#1192,2.25000000000001);
#1038=CYLINDRICAL_SURFACE('',#1195,2.25);
#1039=CYLINDRICAL_SURFACE('',#1198,2.25000000000001);
#1040=ADVANCED_FACE('',(#75),#1020,.F.);
#1041=ADVANCED_FACE('',(#76),#1021,.F.);
#1042=ADVANCED_FACE('',(#77),#1022,.F.);
#1043=ADVANCED_FACE('',(#78),#40,.F.);
#1044=ADVANCED_FACE('',(#79),#41,.T.);
#1045=ADVANCED_FACE('',(#80,#15,#16,#17,#18,#19,#20,#21,#22,#23,#24,#25),
#42,.F.);
#1046=ADVANCED_FACE('',(#81),#1023,.F.);
#1047=ADVANCED_FACE('',(#82),#1024,.F.);
#1048=ADVANCED_FACE('',(#83),#43,.F.);
#1049=ADVANCED_FACE('',(#84),#44,.F.);
#1050=ADVANCED_FACE('',(#85),#45,.F.);
#1051=ADVANCED_FACE('',(#86),#46,.F.);
#1052=ADVANCED_FACE('',(#87),#47,.F.);
#1053=ADVANCED_FACE('',(#88),#48,.T.);
#1054=ADVANCED_FACE('',(#89),#49,.T.);
#1055=ADVANCED_FACE('',(#90),#1025,.T.);
#1056=ADVANCED_FACE('',(#91),#1026,.T.);
#1057=ADVANCED_FACE('',(#92),#50,.F.);
#1058=ADVANCED_FACE('',(#93),#1027,.T.);
#1059=ADVANCED_FACE('',(#94),#51,.F.);
#1060=ADVANCED_FACE('',(#95),#1028,.T.);
#1061=ADVANCED_FACE('',(#96),#1029,.T.);
#1062=ADVANCED_FACE('',(#97),#52,.F.);
#1063=ADVANCED_FACE('',(#98),#1030,.T.);
#1064=ADVANCED_FACE('',(#99),#53,.F.);
#1065=ADVANCED_FACE('',(#100),#1031,.T.);
#1066=ADVANCED_FACE('',(#101),#1032,.T.);
#1067=ADVANCED_FACE('',(#102),#54,.T.);
#1068=ADVANCED_FACE('',(#103),#55,.T.);
#1069=ADVANCED_FACE('',(#104),#56,.F.);
#1070=ADVANCED_FACE('',(#105),#57,.F.);
#1071=ADVANCED_FACE('',(#106),#58,.F.);
#1072=ADVANCED_FACE('',(#107),#59,.F.);
#1073=ADVANCED_FACE('',(#108),#60,.F.);
#1074=ADVANCED_FACE('',(#109),#1033,.T.);
#1075=ADVANCED_FACE('',(#110,#26,#27,#28,#29,#30,#31,#32,#33,#34,#35,#36),
#61,.T.);
#1076=ADVANCED_FACE('',(#111),#62,.F.);
#1077=ADVANCED_FACE('',(#112),#1034,.F.);
#1078=ADVANCED_FACE('',(#113),#63,.F.);
#1079=ADVANCED_FACE('',(#114),#64,.F.);
#1080=ADVANCED_FACE('',(#115),#1035,.F.);
#1081=ADVANCED_FACE('',(#116),#1036,.F.);
#1082=ADVANCED_FACE('',(#117),#65,.F.);
#1083=ADVANCED_FACE('',(#118),#66,.F.);
#1084=ADVANCED_FACE('',(#119,#37),#67,.T.);
#1085=ADVANCED_FACE('',(#120),#1037,.F.);
#1086=ADVANCED_FACE('',(#121,#38),#68,.T.);
#1087=ADVANCED_FACE('',(#122),#1038,.F.);
#1088=ADVANCED_FACE('',(#123,#39),#69,.T.);
#1089=ADVANCED_FACE('',(#124),#1039,.F.);
#1090=ADVANCED_FACE('',(#125),#70,.T.);
#1091=ADVANCED_FACE('',(#126),#71,.T.);
#1092=ADVANCED_FACE('',(#127),#72,.F.);
#1093=ADVANCED_FACE('',(#128),#73,.T.);
#1094=ADVANCED_FACE('',(#129),#74,.F.);
#1095=CLOSED_SHELL('',(#1040,#1041,#1042,#1043,#1044,#1045,#1046,#1047,
#1048,#1049,#1050,#1051,#1052,#1053,#1054,#1055,#1056,#1057,#1058,#1059,
#1060,#1061,#1062,#1063,#1064,#1065,#1066,#1067,#1068,#1069,#1070,#1071,
#1072,#1073,#1074,#1075,#1076,#1077,#1078,#1079,#1080,#1081,#1082,#1083,
#1084,#1085,#1086,#1087,#1088,#1089,#1090,#1091,#1092,#1093,#1094));
#1096=DERIVED_UNIT_ELEMENT(#1098,1.);
#1097=DERIVED_UNIT_ELEMENT(#1817,-3.);
#1098=(
MASS_UNIT()
NAMED_UNIT(*)
SI_UNIT(.KILO.,.GRAM.)
);
#1099=DERIVED_UNIT((#1096,#1097));
#1100=MEASURE_REPRESENTATION_ITEM('density measure',
POSITIVE_RATIO_MEASURE(7850.),#1099);
#1101=PROPERTY_DEFINITION_REPRESENTATION(#1106,#1103);
#1102=PROPERTY_DEFINITION_REPRESENTATION(#1107,#1104);
#1103=REPRESENTATION('material name',(#1105),#1814);
#1104=REPRESENTATION('density',(#1100),#1814);
#1105=DESCRIPTIVE_REPRESENTATION_ITEM('Steel','Steel');
#1106=PROPERTY_DEFINITION('material property','material name',#1824);
#1107=PROPERTY_DEFINITION('material property','density of part',#1824);
#1108=AXIS2_PLACEMENT_3D('',#1506,#1204,#1205);
#1109=AXIS2_PLACEMENT_3D('',#1507,#1206,#1207);
#1110=AXIS2_PLACEMENT_3D('',#1509,#1208,#1209);
#1111=AXIS2_PLACEMENT_3D('',#1512,#1211,#1212);
#1112=AXIS2_PLACEMENT_3D('',#1513,#1213,#1214);
#1113=AXIS2_PLACEMENT_3D('',#1515,#1215,#1216);
#1114=AXIS2_PLACEMENT_3D('',#1518,#1218,#1219);
#1115=AXIS2_PLACEMENT_3D('',#1519,#1220,#1221);
#1116=AXIS2_PLACEMENT_3D('',#1521,#1222,#1223);
#1117=AXIS2_PLACEMENT_3D('',#1524,#1225,#1226);
#1118=AXIS2_PLACEMENT_3D('',#1525,#1227,#1228);
#1119=AXIS2_PLACEMENT_3D('',#1534,#1233,#1234);
#1120=AXIS2_PLACEMENT_3D('',#1538,#1236,#1237);
#1121=AXIS2_PLACEMENT_3D('',#1540,#1239,#1240);
#1122=AXIS2_PLACEMENT_3D('',#1577,#1259,#1260);
#1123=AXIS2_PLACEMENT_3D('',#1579,#1261,#1262);
#1124=AXIS2_PLACEMENT_3D('',#1581,#1263,#1264);
#1125=AXIS2_PLACEMENT_3D('',#1586,#1266,#1267);
#1126=AXIS2_PLACEMENT_3D('',#1594,#1271,#1272);
#1127=AXIS2_PLACEMENT_3D('',#1598,#1274,#1275);
#1128=AXIS2_PLACEMENT_3D('',#1603,#1278,#1279);
#1129=AXIS2_PLACEMENT_3D('',#1605,#1280,#1281);
#1130=AXIS2_PLACEMENT_3D('',#1606,#1282,#1283);
#1131=AXIS2_PLACEMENT_3D('',#1608,#1284,#1285);
#1132=AXIS2_PLACEMENT_3D('',#1610,#1287,#1288);
#1133=AXIS2_PLACEMENT_3D('',#1612,#1289,#1290);
#1134=AXIS2_PLACEMENT_3D('',#1614,#1292,#1293);
#1135=AXIS2_PLACEMENT_3D('',#1620,#1296,#1297);
#1136=AXIS2_PLACEMENT_3D('',#1625,#1300,#1301);
#1137=AXIS2_PLACEMENT_3D('',#1626,#1302,#1303);
#1138=AXIS2_PLACEMENT_3D('',#1631,#1305,#1306);
#1139=AXIS2_PLACEMENT_3D('',#1636,#1309,#1310);
#1140=AXIS2_PLACEMENT_3D('',#1638,#1312,#1313);
#1141=AXIS2_PLACEMENT_3D('',#1643,#1315,#1316);
#1142=AXIS2_PLACEMENT_3D('',#1648,#1319,#1320);
#1143=AXIS2_PLACEMENT_3D('',#1650,#1322,#1323);
#1144=AXIS2_PLACEMENT_3D('',#1656,#1326,#1327);
#1145=AXIS2_PLACEMENT_3D('',#1661,#1330,#1331);
#1146=AXIS2_PLACEMENT_3D('',#1662,#1332,#1333);
#1147=AXIS2_PLACEMENT_3D('',#1664,#1335,#1336);
#1148=AXIS2_PLACEMENT_3D('',#1667,#1339,#1340);
#1149=AXIS2_PLACEMENT_3D('',#1670,#1343,#1344);
#1150=AXIS2_PLACEMENT_3D('',#1671,#1345,#1346);
#1151=AXIS2_PLACEMENT_3D('',#1672,#1347,#1348);
#1152=AXIS2_PLACEMENT_3D('',#1674,#1350,#1351);
#1153=AXIS2_PLACEMENT_3D('',#1676,#1353,#1354);
#1154=AXIS2_PLACEMENT_3D('',#1678,#1356,#1357);
#1155=AXIS2_PLACEMENT_3D('',#1680,#1359,#1360);
#1156=AXIS2_PLACEMENT_3D('',#1683,#1361,#1362);
#1157=AXIS2_PLACEMENT_3D('',#1687,#1364,#1365);
#1158=AXIS2_PLACEMENT_3D('',#1689,#1367,#1368);
#1159=AXIS2_PLACEMENT_3D('',#1695,#1372,#1373);
#1160=AXIS2_PLACEMENT_3D('',#1698,#1374,#1375);
#1161=AXIS2_PLACEMENT_3D('',#1702,#1377,#1378);
#1162=AXIS2_PLACEMENT_3D('',#1704,#1380,#1381);
#1163=AXIS2_PLACEMENT_3D('',#1710,#1385,#1386);
#1164=AXIS2_PLACEMENT_3D('',#1712,#1387,#1388);
#1165=AXIS2_PLACEMENT_3D('',#1714,#1389,#1390);
#1166=AXIS2_PLACEMENT_3D('',#1716,#1392,#1393);
#1167=AXIS2_PLACEMENT_3D('',#1718,#1394,#1395);
#1168=AXIS2_PLACEMENT_3D('',#1720,#1396,#1397);
#1169=AXIS2_PLACEMENT_3D('',#1722,#1399,#1400);
#1170=AXIS2_PLACEMENT_3D('',#1725,#1403,#1404);
#1171=AXIS2_PLACEMENT_3D('',#1728,#1407,#1408);
#1172=AXIS2_PLACEMENT_3D('',#1734,#1412,#1413);
#1173=AXIS2_PLACEMENT_3D('',#1736,#1415,#1416);
#1174=AXIS2_PLACEMENT_3D('',#1738,#1418,#1419);
#1175=AXIS2_PLACEMENT_3D('',#1742,#1422,#1423);
#1176=AXIS2_PLACEMENT_3D('',#1746,#1426,#1427);
#1177=AXIS2_PLACEMENT_3D('',#1748,#1428,#1429);
#1178=AXIS2_PLACEMENT_3D('',#1750,#1431,#1432);
#1179=AXIS2_PLACEMENT_3D('',#1760,#1438,#1439);
#1180=AXIS2_PLACEMENT_3D('',#1768,#1443,#1444);
#1181=AXIS2_PLACEMENT_3D('',#1772,#1446,#1447);
#1182=AXIS2_PLACEMENT_3D('',#1774,#1449,#1450);
#1183=AXIS2_PLACEMENT_3D('',#1777,#1453,#1454);
#1184=AXIS2_PLACEMENT_3D('',#1779,#1456,#1457);
#1185=AXIS2_PLACEMENT_3D('',#1781,#1459,#1460);
#1186=AXIS2_PLACEMENT_3D('',#1784,#1463,#1464);
#1187=AXIS2_PLACEMENT_3D('',#1785,#1465,#1466);
#1188=AXIS2_PLACEMENT_3D('',#1788,#1469,#1470);
#1189=AXIS2_PLACEMENT_3D('',#1790,#1472,#1473);
#1190=AXIS2_PLACEMENT_3D('',#1792,#1475,#1476);
#1191=AXIS2_PLACEMENT_3D('',#1794,#1477,#1478);
#1192=AXIS2_PLACEMENT_3D('',#1795,#1479,#1480);
#1193=AXIS2_PLACEMENT_3D('',#1797,#1482,#1483);
#1194=AXIS2_PLACEMENT_3D('',#1799,#1484,#1485);
#1195=AXIS2_PLACEMENT_3D('',#1800,#1486,#1487);
#1196=AXIS2_PLACEMENT_3D('',#1802,#1489,#1490);
#1197=AXIS2_PLACEMENT_3D('',#1804,#1491,#1492);
#1198=AXIS2_PLACEMENT_3D('',#1805,#1493,#1494);
#1199=AXIS2_PLACEMENT_3D('',#1807,#1496,#1497);
#1200=AXIS2_PLACEMENT_3D('',#1808,#1498,#1499);
#1201=AXIS2_PLACEMENT_3D('',#1809,#1500,#1501);
#1202=AXIS2_PLACEMENT_3D('',#1810,#1502,#1503);
#1203=AXIS2_PLACEMENT_3D('',#1811,#1504,#1505);
#1204=DIRECTION('axis',(0.,0.,1.));
#1205=DIRECTION('refdir',(1.,0.,0.));
#1206=DIRECTION('center_axis',(0.,-0.707106781186548,-0.707106781186548));
#1207=DIRECTION('ref_axis',(-1.,-6.31801310787999E-16,6.31801310787999E-16));
#1208=DIRECTION('center_axis',(-2.17499478324365E-28,-0.707106781186534,
-0.707106781186561));
#1209=DIRECTION('ref_axis',(-1.,-6.31801310787999E-16,6.31801310787999E-16));
#1210=DIRECTION('',(0.,-0.707106781186548,-0.707106781186548));
#1211=DIRECTION('center_axis',(-3.76967483139668E-13,0.707106781186539,
0.707106781186556));
#1212=DIRECTION('ref_axis',(-1.,-6.31801310787999E-16,6.31801310787999E-16));
#1213=DIRECTION('center_axis',(0.,-0.707106781186548,-0.707106781186548));
#1214=DIRECTION('ref_axis',(-1.,-6.31801310787999E-16,6.31801310787999E-16));
#1215=DIRECTION('center_axis',(-2.17499478324365E-28,-0.707106781186534,
-0.707106781186561));
#1216=DIRECTION('ref_axis',(-1.,-6.31801310787999E-16,6.31801310787999E-16));
#1217=DIRECTION('',(0.,-0.707106781186547,-0.707106781186547));
#1218=DIRECTION('center_axis',(-3.76967483139668E-13,0.707106781186539,
0.707106781186556));
#1219=DIRECTION('ref_axis',(-1.,-6.31801310787999E-16,6.31801310787999E-16));
#1220=DIRECTION('center_axis',(0.,-0.707106781186548,-0.707106781186548));
#1221=DIRECTION('ref_axis',(-1.,-6.31801310787999E-16,6.31801310788E-16));
#1222=DIRECTION('center_axis',(-2.17499478324365E-28,-0.707106781186534,
-0.707106781186561));
#1223=DIRECTION('ref_axis',(-1.,-6.31801310787999E-16,6.31801310788E-16));
#1224=DIRECTION('',(0.,-0.707106781186547,-0.707106781186547));
#1225=DIRECTION('center_axis',(-3.76967483139668E-13,0.707106781186539,
0.707106781186556));
#1226=DIRECTION('ref_axis',(-1.,-6.31801310787999E-16,6.31801310788E-16));
#1227=DIRECTION('center_axis',(-3.76897668598997E-13,0.707106781186557,
-0.707106781186538));
#1228=DIRECTION('ref_axis',(-1.,0.,5.33013794559509E-13));
#1229=DIRECTION('',(1.,5.33422615255993E-13,4.08820696497971E-16));
#1230=DIRECTION('',(-3.76967483139668E-13,0.707106781186538,0.707106781186557));
#1231=DIRECTION('',(-1.,-5.33063160894636E-13,-4.93663351407881E-17));
#1232=DIRECTION('',(3.76967483139668E-13,-0.707106781186538,-0.707106781186557));
#1233=DIRECTION('center_axis',(-1.,-5.33471981591126E-13,3.59454361349766E-16));
#1234=DIRECTION('ref_axis',(3.76967483139668E-13,-0.707106781186539,-0.707106781186556));
#1235=DIRECTION('',(-3.77475828372555E-13,0.707106781186561,-0.707106781186534));
#1236=DIRECTION('center_axis',(1.,5.33471981591126E-13,-3.59454361349766E-16));
#1237=DIRECTION('ref_axis',(-3.82700866736776E-13,0.71884707474534,-0.695168240881348));
#1238=DIRECTION('',(-3.77475828372553E-13,0.707106781186556,-0.707106781186539));
#1239=DIRECTION('center_axis',(3.77475828372552E-13,-0.707106781186534,
-0.707106781186561));
#1240=DIRECTION('ref_axis',(-1.,1.01106370112699E-28,-5.33831435952471E-13));
#1241=DIRECTION('',(-3.77475828372555E-13,0.707106781186561,-0.707106781186534));
#1242=DIRECTION('',(1.,5.33471981591134E-13,3.59454361356926E-16));
#1243=DIRECTION('',(1.,5.33554026904687E-13,2.77409047804366E-16));
#1244=DIRECTION('',(-3.76970640888425E-13,0.707106781186561,-0.707106781186534));
#1245=DIRECTION('',(-1.,-2.66915717976236E-13,-2.66915717976245E-13));
#1246=DIRECTION('',(-7.45134784671256E-29,0.707106781186561,-0.707106781186534));
#1247=DIRECTION('',(-1.,-2.66915717976236E-13,-2.66915717976245E-13));
#1248=DIRECTION('',(1.20322579281258E-16,-0.707106781186561,0.707106781186534));
#1249=DIRECTION('',(1.,2.66915717976236E-13,2.66915717976245E-13));
#1250=DIRECTION('',(3.11393984379939E-30,-0.707106781186561,0.707106781186534));
#1251=DIRECTION('',(-7.45134784671256E-29,0.707106781186561,-0.707106781186534));
#1252=DIRECTION('',(1.,2.66915717976236E-13,2.66915717976245E-13));
#1253=DIRECTION('',(-7.45134784671256E-29,0.707106781186561,-0.707106781186534));
#1254=DIRECTION('',(-1.,-2.66915717976236E-13,-2.66915717976245E-13));
#1255=DIRECTION('',(3.11393984379939E-30,-0.707106781186561,0.707106781186534));
#1256=DIRECTION('',(-1.,-2.66915717976236E-13,-2.66915717976245E-13));
#1257=DIRECTION('',(4.50221754336655E-29,-0.707106781186561,0.707106781186534));
#1258=DIRECTION('',(1.,2.66915717976236E-13,2.66915717976245E-13));
#1259=DIRECTION('center_axis',(3.77475828372552E-13,-0.707106781186534,
-0.707106781186561));
#1260=DIRECTION('ref_axis',(-1.,2.02080565982081E-28,1.0551014607331E-28));
#1261=DIRECTION('center_axis',(3.77475828372552E-13,-0.707106781186534,
-0.707106781186561));
#1262=DIRECTION('ref_axis',(-1.,2.02080565982081E-28,1.0551014607331E-28));
#1263=DIRECTION('center_axis',(3.77475828372552E-13,-0.707106781186534,
-0.707106781186561));
#1264=DIRECTION('ref_axis',(-1.,2.02080565982081E-28,1.0551014607331E-28));
#1265=DIRECTION('',(1.,2.66915717976237E-13,2.66915717976244E-13));
#1266=DIRECTION('center_axis',(3.77475828372552E-13,-0.707106781186534,
-0.707106781186561));
#1267=DIRECTION('ref_axis',(1.18423789293349E-14,0.707106781186557,-0.707106781186538));
#1268=DIRECTION('',(-1.,-2.66915717976237E-13,-2.66915717976244E-13));
#1269=DIRECTION('',(6.82855987795282E-29,0.707106781186561,-0.707106781186534));
#1270=DIRECTION('',(-1.,-2.66915717976237E-13,-2.66915717976244E-13));
#1271=DIRECTION('center_axis',(3.77475828372552E-13,-0.707106781186534,
-0.707106781186561));
#1272=DIRECTION('ref_axis',(-6.8285598779527E-29,-0.707106781186557,0.707106781186538));
#1273=DIRECTION('',(6.82855987795281E-29,0.707106781186561,-0.707106781186534));
#1274=DIRECTION('center_axis',(3.77475828372552E-13,-0.707106781186534,
-0.707106781186561));
#1275=DIRECTION('ref_axis',(-1.,-8.97195690676448E-15,8.97195690676455E-15));
#1276=DIRECTION('',(1.,2.66915717976237E-13,2.66915717976244E-13));
#1277=DIRECTION('',(6.82855987795281E-29,0.707106781186561,-0.707106781186534));
#1278=DIRECTION('center_axis',(3.77475828372552E-13,-0.707106781186534,
-0.707106781186561));
#1279=DIRECTION('ref_axis',(1.,2.24232845327309E-13,-3.18740089049421E-13));
#1280=DIRECTION('center_axis',(3.77475828372552E-13,-0.707106781186534,
-0.707106781186561));
#1281=DIRECTION('ref_axis',(1.,2.24232845327309E-13,-3.18740089049421E-13));
#1282=DIRECTION('center_axis',(6.68267129071747E-14,0.707106781186512,0.707106781186584));
#1283=DIRECTION('ref_axis',(1.,2.24232845327309E-13,-3.18740089049421E-13));
#1284=DIRECTION('center_axis',(-3.76967483139668E-13,0.707106781186539,
0.707106781186556));
#1285=DIRECTION('ref_axis',(1.,2.24232845327309E-13,-3.18740089049421E-13));
#1286=DIRECTION('',(6.68267129071747E-14,0.707106781186512,0.707106781186583));
#1287=DIRECTION('center_axis',(6.68267129071747E-14,0.707106781186512,0.707106781186584));
#1288=DIRECTION('ref_axis',(1.,2.24232845327309E-13,-3.18740089049421E-13));
#1289=DIRECTION('center_axis',(-3.76967483139668E-13,0.707106781186539,
0.707106781186556));
#1290=DIRECTION('ref_axis',(1.,2.24232845327309E-13,-3.18740089049421E-13));
#1291=DIRECTION('',(6.68267129071747E-14,0.707106781186512,0.707106781186584));
#1292=DIRECTION('center_axis',(-3.77083512734835E-13,0.707106781186559,
-0.707106781186536));
#1293=DIRECTION('ref_axis',(1.,2.66638308928451E-13,-2.66638308928441E-13));
#1294=DIRECTION('',(-1.,-2.66556263614881E-13,-2.6655626361489E-13));
#1295=DIRECTION('',(1.4609993970104E-28,0.707106781186536,0.707106781186559));
#1296=DIRECTION('center_axis',(-3.77083512734835E-13,0.707106781186559,
-0.707106781186536));
#1297=DIRECTION('ref_axis',(0.237469154591804,0.686880047976862,0.686880047976907));
#1298=DIRECTION('',(0.887216801234731,-0.326225648598096,-0.32622564859858));
#1299=DIRECTION('',(-1.4609993970104E-28,-0.707106781186536,-0.707106781186559));
#1300=DIRECTION('center_axis',(-3.77083512734835E-13,0.707106781186559,
-0.707106781186536));
#1301=DIRECTION('ref_axis',(0.707106781186673,-0.499999999999899,-0.499999999999924));
#1302=DIRECTION('center_axis',(-1.23103804991562E-28,-0.707106781186559,
0.707106781186536));
#1303=DIRECTION('ref_axis',(-1.,-4.42863338851728E-14,-4.42863338851745E-14));
#1304=DIRECTION('',(1.,2.66556263614881E-13,2.6655626361489E-13));
#1305=DIRECTION('center_axis',(-1.23103804991562E-28,-0.707106781186559,
0.707106781186536));
#1306=DIRECTION('ref_axis',(0.707106781186673,-0.499999999999899,-0.499999999999924));
#1307=DIRECTION('',(-1.4609993970104E-28,-0.707106781186536,-0.707106781186559));
#1308=DIRECTION('',(-0.887216801234731,0.326225648598332,0.326225648598343));
#1309=DIRECTION('center_axis',(-1.23103804991562E-28,-0.707106781186559,
0.707106781186536));
#1310=DIRECTION('ref_axis',(0.237469154591804,0.686880047976862,0.686880047976907));
#1311=DIRECTION('',(-1.4609993970104E-28,-0.707106781186536,-0.707106781186559));
#1312=DIRECTION('center_axis',(1.04088135712089E-28,-0.70710678118656,0.707106781186535));
#1313=DIRECTION('ref_axis',(-1.,7.6628613640188E-14,7.66286136401909E-14));
#1314=DIRECTION('',(1.,2.6655626361488E-13,2.6655626361489E-13));
#1315=DIRECTION('center_axis',(1.04088135712089E-28,-0.70710678118656,0.707106781186535));
#1316=DIRECTION('ref_axis',(0.707106781186673,-0.499999999999899,-0.499999999999924));
#1317=DIRECTION('',(-1.4609993970104E-28,-0.707106781186535,-0.70710678118656));
#1318=DIRECTION('',(-0.887216801234723,0.326225648598342,0.326225648598354));
#1319=DIRECTION('center_axis',(1.04088135712089E-28,-0.70710678118656,0.707106781186535));
#1320=DIRECTION('ref_axis',(0.237469154591811,0.686880047976865,0.686880047976901));
#1321=DIRECTION('',(-1.4609993970104E-28,-0.707106781186535,-0.70710678118656));
#1322=DIRECTION('center_axis',(-3.11393984379954E-30,0.70710678118656,-0.707106781186535));
#1323=DIRECTION('ref_axis',(1.,-1.01106370113791E-28,-1.0551014607331E-28));
#1324=DIRECTION('',(-1.,-2.6655626361488E-13,-2.6655626361489E-13));
#1325=DIRECTION('',(1.4609993970104E-28,0.707106781186535,0.70710678118656));
#1326=DIRECTION('center_axis',(-3.11393984379954E-30,0.70710678118656,-0.707106781186535));
#1327=DIRECTION('ref_axis',(0.237469154591811,0.686880047976865,0.686880047976901));
#1328=DIRECTION('',(0.887216801234723,-0.326225648598342,-0.326225648598354));
#1329=DIRECTION('',(-1.4609993970104E-28,-0.707106781186535,-0.70710678118656));
#1330=DIRECTION('center_axis',(-3.11393984379954E-30,0.70710678118656,-0.707106781186535));
#1331=DIRECTION('ref_axis',(0.707106781186673,-0.499999999999899,-0.499999999999924));
#1332=DIRECTION('center_axis',(1.,-1.01106370113791E-28,-1.0551014607331E-28));
#1333=DIRECTION('ref_axis',(-1.0551014607331E-28,-2.0463051881433E-27,-1.));
#1334=DIRECTION('',(-3.11393984380031E-30,0.707106781186556,-0.707106781186539));
#1335=DIRECTION('center_axis',(0.461352736641729,0.627357016535704,0.627357016535727));
#1336=DIRECTION('ref_axis',(0.805613740871595,-1.29376805286342E-27,-0.592441136754425));
#1337=DIRECTION('',(-1.45932800815973E-16,0.707106781186561,-0.707106781186534));
#1338=DIRECTION('',(-3.11393984379939E-30,0.707106781186561,-0.707106781186534));
#1339=DIRECTION('center_axis',(0.461352736641743,0.627357016535698,0.627357016535722));
#1340=DIRECTION('ref_axis',(0.805613740871584,-1.29376805286345E-27,-0.59244113675444));
#1341=DIRECTION('',(5.12204430693458E-17,0.707106781186561,-0.707106781186534));
#1342=DIRECTION('',(-3.11393984379939E-30,0.707106781186561,-0.707106781186534));
#1343=DIRECTION('center_axis',(3.1139398437994E-30,-0.707106781186561,0.707106781186534));
#1344=DIRECTION('ref_axis',(0.237469154591811,0.686880047976865,0.686880047976901));
#1345=DIRECTION('center_axis',(1.203225792813E-16,-0.707106781186561,0.707106781186534));
#1346=DIRECTION('ref_axis',(0.237469154591804,0.686880047976862,0.686880047976907));
#1347=DIRECTION('center_axis',(-1.,1.01106370113791E-28,1.0551014607331E-28));
#1348=DIRECTION('ref_axis',(-3.11393984379787E-30,0.707106781186568,-0.707106781186527));
#1349=DIRECTION('',(3.11393984380031E-30,-0.707106781186556,0.707106781186539));
#1350=DIRECTION('center_axis',(3.11393984380031E-30,-0.707106781186556,
0.707106781186539));
#1351=DIRECTION('ref_axis',(0.707106781186673,-0.499999999999899,-0.499999999999924));
#1352=DIRECTION('',(-3.11393984380031E-30,0.707106781186556,-0.707106781186539));
#1353=DIRECTION('center_axis',(-1.,1.01106370113791E-28,1.0551014607331E-28));
#1354=DIRECTION('ref_axis',(-3.11393984380201E-30,0.707106781186548,-0.707106781186547));
#1355=DIRECTION('',(3.11393984380031E-30,-0.707106781186556,0.707106781186539));
#1356=DIRECTION('center_axis',(3.11393984380031E-30,-0.707106781186556,
0.707106781186539));
#1357=DIRECTION('ref_axis',(0.707106781186673,-0.499999999999899,-0.499999999999924));
#1358=DIRECTION('',(-3.11393984380031E-30,0.707106781186556,-0.707106781186539));
#1359=DIRECTION('center_axis',(-7.45134784671265E-29,0.707106781186556,
-0.707106781186539));
#1360=DIRECTION('ref_axis',(-0.70710678118642,-0.500000000000084,-0.500000000000097));
#1361=DIRECTION('center_axis',(7.45134784671257E-29,-0.70710678118656,0.707106781186535));
#1362=DIRECTION('ref_axis',(-0.70710678118642,-0.500000000000084,-0.500000000000097));
#1363=DIRECTION('',(-7.45134784671265E-29,0.707106781186556,-0.707106781186539));
#1364=DIRECTION('center_axis',(-7.45134784671257E-29,0.70710678118656,-0.707106781186535));
#1365=DIRECTION('ref_axis',(-0.70710678118642,-0.500000000000084,-0.500000000000097));
#1366=DIRECTION('',(7.45134784671265E-29,-0.707106781186556,0.707106781186539));
#1367=DIRECTION('center_axis',(1.,-5.06192721796466E-29,-1.55997244007455E-28));
#1368=DIRECTION('ref_axis',(7.45134784671256E-29,-0.707106781186561,0.707106781186534));
#1369=DIRECTION('',(-1.46099939701041E-28,-0.707106781186535,-0.70710678118656));
#1370=DIRECTION('',(-1.46099939701041E-28,-0.707106781186535,-0.70710678118656));
#1371=DIRECTION('',(7.45134784671256E-29,-0.707106781186561,0.707106781186534));
#1372=DIRECTION('center_axis',(-3.76735679689475E-13,0.707106781186556,
-0.707106781186539));
#1373=DIRECTION('ref_axis',(-0.707106781186414,-0.500000000000273,-0.499999999999915));
#1374=DIRECTION('center_axis',(3.7849581053534E-13,-0.707106781186559,0.707106781186536));
#1375=DIRECTION('ref_axis',(-0.707106781186414,-0.500000000000273,-0.499999999999915));
#1376=DIRECTION('',(-3.76735679689475E-13,0.707106781186556,-0.707106781186539));
#1377=DIRECTION('center_axis',(-3.77083512734835E-13,0.707106781186559,
-0.707106781186536));
#1378=DIRECTION('ref_axis',(-0.707106781186414,-0.500000000000273,-0.499999999999915));
#1379=DIRECTION('',(3.76735679689475E-13,-0.707106781186556,0.707106781186539));
#1380=DIRECTION('center_axis',(1.,2.66392353823355E-13,-2.66392353823346E-13));
#1381=DIRECTION('ref_axis',(3.76735679689475E-13,-0.707106781186561,0.707106781186534));
#1382=DIRECTION('',(-1.46099939701041E-28,-0.707106781186536,-0.707106781186559));
#1383=DIRECTION('',(3.76735679689475E-13,-0.707106781186561,0.707106781186534));
#1384=DIRECTION('',(-1.46099939701041E-28,-0.707106781186536,-0.707106781186559));
#1385=DIRECTION('center_axis',(-3.76970640888425E-13,0.707106781186561,
-0.707106781186534));
#1386=DIRECTION('ref_axis',(-0.23746915459246,0.686880047976702,0.68688004797684));
#1387=DIRECTION('center_axis',(3.7849581053534E-13,-0.707106781186559,0.707106781186536));
#1388=DIRECTION('ref_axis',(-0.23746915459246,0.686880047976702,0.68688004797684));
#1389=DIRECTION('center_axis',(-3.77083512734835E-13,0.707106781186559,
-0.707106781186536));
#1390=DIRECTION('ref_axis',(-0.23746915459246,0.686880047976702,0.68688004797684));
#1391=DIRECTION('',(3.7694503066689E-13,-0.707106781186561,0.707106781186534));
#1392=DIRECTION('center_axis',(-7.45134784671256E-29,0.707106781186561,
-0.707106781186534));
#1393=DIRECTION('ref_axis',(-0.237469154592461,0.686880047976762,0.68688004797678));
#1394=DIRECTION('center_axis',(7.45134784671257E-29,-0.70710678118656,0.707106781186535));
#1395=DIRECTION('ref_axis',(-0.237469154592461,0.686880047976762,0.68688004797678));
#1396=DIRECTION('center_axis',(-7.45134784671257E-29,0.70710678118656,-0.707106781186535));
#1397=DIRECTION('ref_axis',(-0.237469154592461,0.686880047976762,0.68688004797678));
#1398=DIRECTION('',(7.45134784671256E-29,-0.707106781186561,0.707106781186534));
#1399=DIRECTION('center_axis',(-0.461352736642249,0.627357016535389,0.627357016535659));
#1400=DIRECTION('ref_axis',(0.805613740871245,1.17153579059024E-27,0.5924411367549));
#1401=DIRECTION('',(0.88721680123446,0.326225648598937,0.326225648598474));
#1402=DIRECTION('',(-0.88721680123446,-0.326225648598937,-0.326225648598473));
#1403=DIRECTION('center_axis',(-0.46135273664225,0.627357016535512,0.627357016535536));
#1404=DIRECTION('ref_axis',(0.805613740871189,1.1715357905904E-27,0.592441136754977));
#1405=DIRECTION('',(0.88721680123446,0.3262256485987,0.326225648598712));
#1406=DIRECTION('',(-0.88721680123446,-0.3262256485987,-0.326225648598712));
#1407=DIRECTION('center_axis',(-1.,5.06192721796466E-29,1.55997244007455E-28));
#1408=DIRECTION('ref_axis',(1.55997244007455E-28,2.0463051881433E-27,1.));
#1409=DIRECTION('',(7.45134784671265E-29,-0.707106781186556,0.707106781186539));
#1410=DIRECTION('',(-1.46099939701041E-28,-0.707106781186536,-0.707106781186559));
#1411=DIRECTION('',(1.46099939701041E-28,0.707106781186536,0.707106781186559));
#1412=DIRECTION('center_axis',(3.7849581053534E-13,-0.707106781186559,0.707106781186536));
#1413=DIRECTION('ref_axis',(-1.,-2.67636954280243E-13,2.67636954280233E-13));
#1414=DIRECTION('',(1.,2.66556263614881E-13,2.66556263614889E-13));
#1415=DIRECTION('center_axis',(-3.77083512734835E-13,0.707106781186559,
-0.707106781186536));
#1416=DIRECTION('ref_axis',(1.,2.66638308928451E-13,-2.66638308928441E-13));
#1417=DIRECTION('',(-1.,-5.3319457254333E-13,8.20453135528675E-17));
#1418=DIRECTION('center_axis',(7.45134784671257E-29,-0.70710678118656,0.707106781186535));
#1419=DIRECTION('ref_axis',(-1.,5.06192721796466E-29,1.55997244007455E-28));
#1420=DIRECTION('',(1.,2.6655626361488E-13,2.6655626361489E-13));
#1421=DIRECTION('',(1.46099939701041E-28,0.707106781186535,0.70710678118656));
#1422=DIRECTION('center_axis',(-7.45134784671257E-29,0.70710678118656,-0.707106781186535));
#1423=DIRECTION('ref_axis',(1.,-5.06192721796466E-29,-1.55997244007455E-28));
#1424=DIRECTION('',(1.46099939701041E-28,0.707106781186535,0.70710678118656));
#1425=DIRECTION('',(-1.,-2.6655626361488E-13,-2.6655626361489E-13));
#1426=DIRECTION('center_axis',(1.,5.33471981591134E-13,3.59454361356926E-16));
#1427=DIRECTION('ref_axis',(-3.82700866736776E-13,0.71884707474534,-0.695168240881348));
#1428=DIRECTION('center_axis',(1.,5.33471981591126E-13,-3.59454361349816E-16));
#1429=DIRECTION('ref_axis',(-3.82700866736776E-13,0.71884707474534,-0.695168240881348));
#1430=DIRECTION('',(-1.,-5.33112527229777E-13,2.06484341942691E-28));
#1431=DIRECTION('center_axis',(3.76967483139668E-13,-0.707106781186539,
-0.707106781186556));
#1432=DIRECTION('ref_axis',(-1.,-5.33112527229777E-13,1.05510146074401E-28));
#1433=DIRECTION('',(3.77475828372553E-13,-0.707106781186556,0.707106781186539));
#1434=DIRECTION('',(7.45134784671265E-29,-0.707106781186556,0.707106781186539));
#1435=DIRECTION('',(-3.11393984380031E-30,0.707106781186556,-0.707106781186539));
#1436=DIRECTION('',(-6.82855987795268E-29,-0.707106781186556,0.707106781186539));
#1437=DIRECTION('',(1.,2.66556263614881E-13,2.66556263614889E-13));
#1438=DIRECTION('center_axis',(-3.76967483139668E-13,0.707106781186539,
0.707106781186556));
#1439=DIRECTION('ref_axis',(1.18423789293349E-14,0.707106781186557,-0.707106781186538));
#1440=DIRECTION('',(-1.,-2.66556263614881E-13,-2.66556263614889E-13));
#1441=DIRECTION('',(6.82855987795268E-29,0.707106781186556,-0.707106781186539));
#1442=DIRECTION('',(-1.,-2.66556263614881E-13,-2.66556263614889E-13));
#1443=DIRECTION('center_axis',(-3.76967483139668E-13,0.707106781186539,
0.707106781186556));
#1444=DIRECTION('ref_axis',(-1.,-8.97195690676448E-15,8.97195690676455E-15));
#1445=DIRECTION('',(-6.82855987795268E-29,-0.707106781186556,0.707106781186539));
#1446=DIRECTION('center_axis',(-3.76967483139668E-13,0.707106781186539,
0.707106781186556));
#1447=DIRECTION('ref_axis',(-6.8285598779527E-29,-0.707106781186557,0.707106781186538));
#1448=DIRECTION('',(1.,2.66556263614881E-13,2.66556263614889E-13));
#1449=DIRECTION('center_axis',(-1.,2.02080565982081E-28,1.0551014607331E-28));
#1450=DIRECTION('ref_axis',(-6.82855987795268E-29,-0.707106781186556,0.707106781186539));
#1451=DIRECTION('',(2.17499478324365E-28,0.707106781186538,0.707106781186557));
#1452=DIRECTION('',(2.17499478324365E-28,0.707106781186538,0.707106781186557));
#1453=DIRECTION('center_axis',(2.17499478324365E-28,0.707106781186538,0.707106781186557));
#1454=DIRECTION('ref_axis',(-6.8285598779527E-29,-0.707106781186557,0.707106781186538));
#1455=DIRECTION('',(2.17499478324365E-28,0.707106781186538,0.707106781186557));
#1456=DIRECTION('center_axis',(-6.8285598779527E-29,-0.707106781186557,
0.707106781186538));
#1457=DIRECTION('ref_axis',(1.,-2.02080565982081E-28,-1.0551014607331E-28));
#1458=DIRECTION('',(2.17499478324365E-28,0.707106781186538,0.707106781186557));
#1459=DIRECTION('center_axis',(6.8285598779527E-29,0.707106781186557,-0.707106781186538));
#1460=DIRECTION('ref_axis',(-1.,2.02080565982081E-28,1.0551014607331E-28));
#1461=DIRECTION('',(2.17499478324365E-28,0.707106781186538,0.707106781186557));
#1462=DIRECTION('',(2.17499478324365E-28,0.707106781186538,0.707106781186557));
#1463=DIRECTION('center_axis',(2.17499478324365E-28,0.707106781186538,0.707106781186557));
#1464=DIRECTION('ref_axis',(-1.,-8.97195690676448E-15,8.97195690676455E-15));
#1465=DIRECTION('center_axis',(2.17499478324365E-28,0.707106781186538,0.707106781186557));
#1466=DIRECTION('ref_axis',(1.18423789293349E-14,0.707106781186557,-0.707106781186538));
#1467=DIRECTION('',(2.17499478324365E-28,0.707106781186538,0.707106781186557));
#1468=DIRECTION('',(2.17499478324365E-28,0.707106781186538,0.707106781186557));
#1469=DIRECTION('center_axis',(6.8285598779527E-29,0.707106781186557,-0.707106781186538));
#1470=DIRECTION('ref_axis',(-1.,2.02080565982081E-28,1.0551014607331E-28));
#1471=DIRECTION('',(2.17499478324365E-28,0.707106781186538,0.707106781186557));
#1472=DIRECTION('center_axis',(-6.8285598779527E-29,-0.707106781186557,
0.707106781186538));
#1473=DIRECTION('ref_axis',(1.,-2.02080565982081E-28,-1.0551014607331E-28));
#1474=DIRECTION('',(2.17499478324365E-28,0.707106781186538,0.707106781186557));
#1475=DIRECTION('center_axis',(2.17499478324365E-28,0.707106781186534,0.707106781186561));
#1476=DIRECTION('ref_axis',(-1.,2.02080565982081E-28,1.0551014607331E-28));
#1477=DIRECTION('center_axis',(-2.17499478324365E-28,-0.707106781186534,
-0.707106781186561));
#1478=DIRECTION('ref_axis',(-1.,2.02080565982081E-28,1.0551014607331E-28));
#1479=DIRECTION('center_axis',(-2.17499478324365E-28,-0.707106781186535,
-0.70710678118656));
#1480=DIRECTION('ref_axis',(-1.,2.02080565982081E-28,1.0551014607331E-28));
#1481=DIRECTION('',(-2.17499478324365E-28,-0.707106781186535,-0.70710678118656));
#1482=DIRECTION('center_axis',(2.17499478324365E-28,0.707106781186534,0.707106781186561));
#1483=DIRECTION('ref_axis',(-1.,2.02080565982081E-28,1.0551014607331E-28));
#1484=DIRECTION('center_axis',(-2.17499478324365E-28,-0.707106781186534,
-0.707106781186561));
#1485=DIRECTION('ref_axis',(-1.,2.02080565982081E-28,1.0551014607331E-28));
#1486=DIRECTION('center_axis',(-2.17499478324365E-28,-0.707106781186535,
-0.70710678118656));
#1487=DIRECTION('ref_axis',(-1.,2.02080565982081E-28,1.0551014607331E-28));
#1488=DIRECTION('',(-2.17499478324365E-28,-0.707106781186535,-0.70710678118656));
#1489=DIRECTION('center_axis',(2.17499478324365E-28,0.707106781186534,0.707106781186561));
#1490=DIRECTION('ref_axis',(-1.,2.02080565982081E-28,1.0551014607331E-28));
#1491=DIRECTION('center_axis',(-2.17499478324365E-28,-0.707106781186534,
-0.707106781186561));
#1492=DIRECTION('ref_axis',(-1.,2.02080565982081E-28,1.0551014607331E-28));
#1493=DIRECTION('center_axis',(-2.17499478324365E-28,-0.707106781186535,
-0.70710678118656));
#1494=DIRECTION('ref_axis',(-1.,2.02080565982081E-28,1.0551014607331E-28));
#1495=DIRECTION('',(-2.17499478324365E-28,-0.707106781186535,-0.70710678118656));
#1496=DIRECTION('center_axis',(1.,-2.02080565982081E-28,-1.0551014607331E-28));
#1497=DIRECTION('ref_axis',(-6.82855987795282E-29,-0.707106781186561,0.707106781186534));
#1498=DIRECTION('center_axis',(-1.,2.02080565982081E-28,1.0551014607331E-28));
#1499=DIRECTION('ref_axis',(6.82855987795281E-29,0.707106781186561,-0.707106781186534));
#1500=DIRECTION('center_axis',(1.,-1.01106370113791E-28,-1.0551014607331E-28));
#1501=DIRECTION('ref_axis',(-1.0551014607331E-28,-2.0463051881433E-27,-1.));
#1502=DIRECTION('center_axis',(1.,5.33471981591126E-13,-3.59454361349816E-16));
#1503=DIRECTION('ref_axis',(-3.76967483139668E-13,0.707106781186539,0.707106781186556));
#1504=DIRECTION('center_axis',(-1.,5.06192721796466E-29,1.55997244007455E-28));
#1505=DIRECTION('ref_axis',(1.55997244007455E-28,2.0463051881433E-27,1.));
#1506=CARTESIAN_POINT('',(0.,0.,0.));
#1507=CARTESIAN_POINT('Origin',(-38.9007498751491,104.578546573124,177.419401935328));
#1508=CARTESIAN_POINT('',(-37.4007498751491,104.578546573124,177.419401935328));
#1509=CARTESIAN_POINT('Origin',(-38.9007498751491,104.578546573124,177.419401935328));
#1510=CARTESIAN_POINT('',(-37.4007498751491,104.1607902459,177.001645608104));
#1511=CARTESIAN_POINT('',(-37.4007498751491,104.578546573124,177.419401935328));
#1512=CARTESIAN_POINT('Origin',(-38.9007498751491,104.1607902459,177.001645608104));
#1513=CARTESIAN_POINT('Origin',(-50.4007498751491,104.578546573124,177.419401935328));
#1514=CARTESIAN_POINT('',(-48.9007498751491,104.578546573124,177.419401935328));
#1515=CARTESIAN_POINT('Origin',(-50.4007498751491,104.578546573124,177.419401935328));
#1516=CARTESIAN_POINT('',(-48.9007498751491,104.1607902459,177.001645608104));
#1517=CARTESIAN_POINT('',(-48.9007498751491,104.578546573124,177.419401935328));
#1518=CARTESIAN_POINT('Origin',(-50.4007498751491,104.1607902459,177.001645608104));
#1519=CARTESIAN_POINT('Origin',(-61.816274732739,104.578546573124,177.419401935328));
#1520=CARTESIAN_POINT('',(-60.316274732739,104.578546573124,177.419401935328));
#1521=CARTESIAN_POINT('Origin',(-61.816274732739,104.578546573124,177.419401935328));
#1522=CARTESIAN_POINT('',(-60.316274732739,104.1607902459,177.001645608104));
#1523=CARTESIAN_POINT('',(-60.316274732739,104.578546573124,177.419401935328));
#1524=CARTESIAN_POINT('Origin',(-61.816274732739,104.1607902459,177.001645608104));
#1525=CARTESIAN_POINT('Origin',(-42.4785075831807,68.0403080615344,191.895680888945));
#1526=CARTESIAN_POINT('',(-67.4785075831885,82.606821746428,206.462194573852));
#1527=CARTESIAN_POINT('',(-33.4785075831884,82.6068217464461,206.462194573852));
#1528=CARTESIAN_POINT('',(-29.9785075831885,82.606821746448,206.462194573852));
#1529=CARTESIAN_POINT('',(-67.4785075831863,78.6535315132768,202.508904340701));
#1530=CARTESIAN_POINT('',(-67.4785075831835,73.3469197873989,197.202292614823));
#1531=CARTESIAN_POINT('',(-33.4785075831863,78.6535315132949,202.508904340701));
#1532=CARTESIAN_POINT('',(-29.9785075831863,78.6535315132968,202.508904340701));
#1533=CARTESIAN_POINT('',(-33.4785075831779,62.7336963356636,186.589069163069));
#1534=CARTESIAN_POINT('Origin',(-67.4785075831852,76.4579649576925,204.704470896285));
#1535=CARTESIAN_POINT('',(-67.4785075832032,110.269402641946,178.799613678335));
#1536=CARTESIAN_POINT('',(-67.4785075831905,86.4269401443777,202.642076175903));
#1537=CARTESIAN_POINT('',(-67.4785075832032,110.336157951122,170.826277902857));
#1538=CARTESIAN_POINT('Origin',(-67.4785075832011,106.24879348412,174.779004520508));
#1539=CARTESIAN_POINT('',(-67.4785075831886,82.9417546003708,198.220681253607));
#1540=CARTESIAN_POINT('Origin',(-17.4785075831873,80.4112551908704,208.657761129436));
#1541=CARTESIAN_POINT('',(-33.4785075832032,110.269402641969,178.799613678339));
#1542=CARTESIAN_POINT('',(-33.478507583194,93.064775888616,196.0042404317));
#1543=CARTESIAN_POINT('',(-67.4785075832032,110.269402641946,178.799613678335));
#1544=CARTESIAN_POINT('',(-40.8785072761852,95.9561208314319,193.112895488889));
#1545=CARTESIAN_POINT('',(-35.1340452915012,95.9561208314257,193.112895488881));
#1546=CARTESIAN_POINT('',(-36.1785074296904,95.9561208314252,193.112895488881));
#1547=CARTESIAN_POINT('',(-35.1340452914989,91.7134801443064,197.355536176));
#1548=CARTESIAN_POINT('',(-35.134045291495,84.2974716010054,204.771544719301));
#1549=CARTESIAN_POINT('',(-40.878507276183,91.7134801443126,197.355536176008));
#1550=CARTESIAN_POINT('',(-36.1785074296862,91.7134801443052,197.355536176001));
#1551=CARTESIAN_POINT('',(-40.8785072761852,86.062367667584,203.006648652719));
#1552=CARTESIAN_POINT('',(-60.0785087007364,91.7134801443061,197.355536176015));
#1553=CARTESIAN_POINT('',(-65.8229706705218,91.7134801442864,197.355536175995));
#1554=CARTESIAN_POINT('',(-39.7785081419618,91.7134801442934,197.355536176002));
#1555=CARTESIAN_POINT('',(-65.8229706705218,95.956120831405,193.112895488877));
#1556=CARTESIAN_POINT('',(-65.8229706705218,83.2368114292147,205.832204891066));
#1557=CARTESIAN_POINT('',(-60.0785087007364,95.9561208314257,193.112895488895));
#1558=CARTESIAN_POINT('',(-39.7785081419629,95.956120831413,193.112895488883));
#1559=CARTESIAN_POINT('',(-60.0785087007364,88.1836880111333,200.885328309151));
#1560=CARTESIAN_POINT('',(-40.8785072761864,98.0462339069845,191.022782413337));
#1561=CARTESIAN_POINT('',(-40.8785072761864,102.291792415246,186.777223905075));
#1562=CARTESIAN_POINT('',(-40.8785072761864,89.22874454892,199.840271771383));
#1563=CARTESIAN_POINT('',(-35.1340453064009,102.291792415239,186.777223905068));
#1564=CARTESIAN_POINT('',(-36.1785074296868,102.291792415239,186.777223905067));
#1565=CARTESIAN_POINT('',(-35.1340453064009,98.0462339069773,191.022782413329));
#1566=CARTESIAN_POINT('',(-35.1340453064009,85.8813894969591,203.187626823347));
#1567=CARTESIAN_POINT('',(-35.6785074296868,98.0462339069772,191.022782413329));
#1568=CARTESIAN_POINT('',(-60.0785087007364,102.291792415251,186.77722390507));
#1569=CARTESIAN_POINT('',(-60.0785087007364,98.0462339069887,191.022782413332));
#1570=CARTESIAN_POINT('',(-60.0785087007364,91.3515238030458,197.717492517239));
#1571=CARTESIAN_POINT('',(-65.8229706705219,98.0462339069691,191.022782413313));
#1572=CARTESIAN_POINT('',(-39.7785081419618,98.0462339069761,191.02278241332));
#1573=CARTESIAN_POINT('',(-65.8229706705219,102.291792415231,186.777223905051));
#1574=CARTESIAN_POINT('',(-65.8229706705219,84.8199998698854,204.249016450396));
#1575=CARTESIAN_POINT('',(-39.7785081419629,102.291792415238,186.777223905058));
#1576=CARTESIAN_POINT('',(-59.5662747327391,108.114080479057,180.954935841261));
#1577=CARTESIAN_POINT('Origin',(-61.8162747327391,108.114080479052,180.954935841256));
#1578=CARTESIAN_POINT('',(-36.6507498751491,108.114080479057,180.954935841261));
#1579=CARTESIAN_POINT('Origin',(-38.9007498751491,108.114080479052,180.954935841256));
#1580=CARTESIAN_POINT('',(-48.1507498751491,108.114080479057,180.954935841261));
#1581=CARTESIAN_POINT('Origin',(-50.4007498751491,108.114080479052,180.954935841256));
#1582=CARTESIAN_POINT('',(-59.4232817488159,100.378121171831,188.690895148454));
#1583=CARTESIAN_POINT('',(-55.4232817488159,100.378121171832,188.690895148455));
#1584=CARTESIAN_POINT('',(-36.4508946660027,100.378121171837,188.69089514846));
#1585=CARTESIAN_POINT('',(-55.4232817488159,98.2568008282726,190.812215492015));
#1586=CARTESIAN_POINT('Origin',(-55.4232817488159,99.3174610000624,189.751555320245));
#1587=CARTESIAN_POINT('',(-59.4232817488159,98.2568008282715,190.812215492014));
#1588=CARTESIAN_POINT('',(-38.4508946660027,98.2568008282771,190.812215492019));
#1589=CARTESIAN_POINT('',(-59.4232817488159,98.2568008282874,190.812215492029));
#1590=CARTESIAN_POINT('',(-41.5665961487775,98.2098072726286,190.859209047666));
#1591=CARTESIAN_POINT('',(-45.6665961487775,98.2098072726274,190.859209047665));
#1592=CARTESIAN_POINT('',(-31.5725518659835,98.2098072726312,190.859209047669));
#1593=CARTESIAN_POINT('',(-47.0665961487775,99.1997567662883,189.869259554003));
#1594=CARTESIAN_POINT('Origin',(-45.6665961487775,99.1997567662961,189.869259554011));
#1595=CARTESIAN_POINT('',(-47.0665961487775,99.3411781225256,189.727838197766));
#1596=CARTESIAN_POINT('',(-47.0665961487775,89.8762166566941,199.192799663597));
#1597=CARTESIAN_POINT('',(-45.6665961487775,100.331127616187,188.737888704105));
#1598=CARTESIAN_POINT('Origin',(-45.6665961487776,99.3411781225334,189.727838197774));
#1599=CARTESIAN_POINT('',(-41.5665961487775,100.331127616188,188.737888704106));
#1600=CARTESIAN_POINT('',(-29.5225518659835,100.331127616191,188.73788870411));
#1601=CARTESIAN_POINT('',(-41.5665961487775,98.2098072726397,190.859209047677));
#1602=CARTESIAN_POINT('',(-59.6636471633473,85.0813909756079,203.987625344703));
#1603=CARTESIAN_POINT('Origin',(-57.9136471633473,85.0813909756083,203.987625344703));
#1604=CARTESIAN_POINT('',(-44.6636471633474,85.0813909756112,203.987625344699));
#1605=CARTESIAN_POINT('Origin',(-42.9136471633474,85.0813909756116,203.987625344698));
#1606=CARTESIAN_POINT('Origin',(-42.913647163348,78.9728309408328,197.879065309919));
#1607=CARTESIAN_POINT('',(-44.6636471633478,81.1281007424601,200.034335111547));
#1608=CARTESIAN_POINT('Origin',(-42.9136471633478,81.1281007424605,200.034335111547));
#1609=CARTESIAN_POINT('',(-44.663647163348,78.9728309408324,197.879065309919));
#1610=CARTESIAN_POINT('Origin',(-57.9136471633479,78.9728309408295,197.879065309923));
#1611=CARTESIAN_POINT('',(-59.6636471633477,81.1281007424568,200.034335111552));
#1612=CARTESIAN_POINT('Origin',(-57.9136471633477,81.1281007424572,200.034335111551));
#1613=CARTESIAN_POINT('',(-59.6636471633479,78.9728309408291,197.879065309924));
#1614=CARTESIAN_POINT('Origin',(-63.0785087007364,95.9561208314254,193.112895488895));
#1615=CARTESIAN_POINT('',(-60.0785087007364,92.0028305982558,189.159605255725));
#1616=CARTESIAN_POINT('',(-65.0785087007356,92.0028305982542,189.159605255725));
#1617=CARTESIAN_POINT('',(-39.7785081419608,92.0028305982617,189.159605255731));
#1618=CARTESIAN_POINT('',(-60.0785087007364,95.9561208314257,193.112895488895));
#1619=CARTESIAN_POINT('',(-65.3616179338797,95.8763710667543,193.033145724226));
#1620=CARTESIAN_POINT('Origin',(-65.8229706705215,95.2490140502192,192.405788707689));
#1621=CARTESIAN_POINT('',(-63.0785087007364,95.0368820158641,192.193656673334));
#1622=CARTESIAN_POINT('',(-63.9695666352526,95.3645200319853,192.521294689456));
#1623=CARTESIAN_POINT('',(-63.0785087007364,93.4170441606278,190.573818818098));
#1624=CARTESIAN_POINT('',(-63.0785087007364,95.9561208314254,193.112895488895));
#1625=CARTESIAN_POINT('Origin',(-65.0785087007364,93.4170441606278,190.573818818098));
#1626=CARTESIAN_POINT('Origin',(-62.0785087007364,91.713480144306,197.355536176015));
#1627=CARTESIAN_POINT('',(-65.0785087007356,87.7601899111354,193.402245942844));
#1628=CARTESIAN_POINT('',(-60.0785087007364,87.7601899111362,193.402245942845));
#1629=CARTESIAN_POINT('',(-39.7785081419597,87.7601899111421,193.402245942851));
#1630=CARTESIAN_POINT('',(-63.0785087007364,89.1744034735084,194.816459505217));
#1631=CARTESIAN_POINT('Origin',(-65.0785087007364,89.1744034735084,194.816459505217));
#1632=CARTESIAN_POINT('',(-63.0785087007364,90.7942413287447,196.436297360453));
#1633=CARTESIAN_POINT('',(-63.0785087007364,91.713480144306,197.355536176015));
#1634=CARTESIAN_POINT('',(-65.3616179338797,91.6337303796356,197.275786411344));
#1635=CARTESIAN_POINT('',(-63.575989809054,90.9771629066504,196.619218938359));
#1636=CARTESIAN_POINT('Origin',(-65.8229706705215,91.0063733630999,196.648429394808));
#1637=CARTESIAN_POINT('',(-60.0785087007364,91.7134801443061,197.355536176015));
#1638=CARTESIAN_POINT('Origin',(-62.0785087007364,98.0462339069887,191.022782413332));
#1639=CARTESIAN_POINT('',(-65.0785087007356,94.092943673818,187.069492180161));
#1640=CARTESIAN_POINT('',(-60.0785087007364,94.0929436738188,187.069492180162));
#1641=CARTESIAN_POINT('',(-39.7785081419597,94.0929436738247,187.069492180168));
#1642=CARTESIAN_POINT('',(-63.0785087007364,95.5071572361911,188.483705742534));
#1643=CARTESIAN_POINT('Origin',(-65.0785087007364,95.5071572361911,188.483705742534));
#1644=CARTESIAN_POINT('',(-63.0785087007364,97.1269950914273,190.103543597771));
#1645=CARTESIAN_POINT('',(-63.0785087007364,98.0462339069887,191.022782413332));
#1646=CARTESIAN_POINT('',(-65.3616179338798,97.9664841423183,190.943032648662));
#1647=CARTESIAN_POINT('',(-63.575989809054,97.309916669333,190.286465175677));
#1648=CARTESIAN_POINT('Origin',(-65.8229706705215,97.3391271257826,190.315675632126));
#1649=CARTESIAN_POINT('',(-60.0785087007364,98.0462339069887,191.022782413332));
#1650=CARTESIAN_POINT('Origin',(-63.0785087007364,102.291792415251,186.77722390507));
#1651=CARTESIAN_POINT('',(-60.0785087007364,98.3385021820807,182.8239336719));
#1652=CARTESIAN_POINT('',(-65.0785087007356,98.3385021820799,182.8239336719));
#1653=CARTESIAN_POINT('',(-39.7785081419608,98.3385021820867,182.823933671906));
#1654=CARTESIAN_POINT('',(-60.0785087007364,102.291792415251,186.77722390507));
#1655=CARTESIAN_POINT('',(-65.3616179338798,102.21204265058,186.6974741404));
#1656=CARTESIAN_POINT('Origin',(-65.8229706705215,101.584685634045,186.070117123864));
#1657=CARTESIAN_POINT('',(-63.0785087007364,101.372553599689,185.857985089509));
#1658=CARTESIAN_POINT('',(-63.9695666352506,101.70019161581,186.18562310563));
#1659=CARTESIAN_POINT('',(-63.0785087007364,99.752715744453,184.238147234273));
#1660=CARTESIAN_POINT('',(-63.0785087007364,102.291792415251,186.77722390507));
#1661=CARTESIAN_POINT('Origin',(-65.0785087007364,99.752715744453,184.238147234273));
#1662=CARTESIAN_POINT('Origin',(-60.0785087007364,95.9561208314257,193.112895488895));
#1663=CARTESIAN_POINT('',(-60.0785087007364,84.230397777982,196.932038076));
#1664=CARTESIAN_POINT('Origin',(-64.3285087007364,85.6027482598011,202.547029244938));
#1665=CARTESIAN_POINT('',(-65.3616179338797,83.1570616645639,205.752455126416));
#1666=CARTESIAN_POINT('',(-63.0785087007364,85.1431288520302,202.087409837167));
#1667=CARTESIAN_POINT('Origin',(-64.3285087007364,88.7691251411425,199.380652363597));
#1668=CARTESIAN_POINT('',(-65.3616179338798,84.7402501052346,204.169266685745));
#1669=CARTESIAN_POINT('',(-63.0785087007364,88.3095057333715,198.921032955826));
#1670=CARTESIAN_POINT('Origin',(-65.8229706705215,84.1128930886989,203.541909669209));
#1671=CARTESIAN_POINT('Origin',(-65.8229706705215,82.5297046480282,205.12509810988));
#1672=CARTESIAN_POINT('Origin',(-63.0785087007364,91.713480144306,197.355536176015));
#1673=CARTESIAN_POINT('',(-63.0785087007364,83.523290996794,200.467571981931));
#1674=CARTESIAN_POINT('Origin',(-65.0785087007364,83.523290996794,200.467571981931));
#1675=CARTESIAN_POINT('',(-65.0785087007356,82.1090774344209,199.053358419558));
#1676=CARTESIAN_POINT('Origin',(-63.0785087007364,98.0462339069888,191.022782413332));
#1677=CARTESIAN_POINT('',(-63.0785087007364,86.6896678781353,197.30119510059));
#1678=CARTESIAN_POINT('Origin',(-65.0785087007364,86.6896678781353,197.30119510059));
#1679=CARTESIAN_POINT('',(-65.0785087007356,85.2754543157622,195.886981538217));
#1680=CARTESIAN_POINT('Origin',(-35.8785072761864,88.8124471322741,195.178415846475));
#1681=CARTESIAN_POINT('',(-35.8785072761856,94.0929436738258,187.069492180178));
#1682=CARTESIAN_POINT('',(-37.8785072761864,95.5071572361989,188.483705742551));
#1683=CARTESIAN_POINT('Origin',(-35.8785072761864,95.5071572361989,188.483705742551));
#1684=CARTESIAN_POINT('',(-37.8785072761864,99.7527157444608,184.238147234289));
#1685=CARTESIAN_POINT('',(-37.8785072761864,88.8124471322741,195.178415846475));
#1686=CARTESIAN_POINT('',(-35.8785072761856,98.3385021820878,182.823933671916));
#1687=CARTESIAN_POINT('Origin',(-35.8785072761864,99.7527157444608,184.238147234289));
#1688=CARTESIAN_POINT('',(-35.8785072761856,87.398233569901,193.764202284102));
#1689=CARTESIAN_POINT('Origin',(-37.8785072761864,102.291792415246,186.777223905075));
#1690=CARTESIAN_POINT('',(-37.8785072761864,101.372553599696,185.857985089524));
#1691=CARTESIAN_POINT('',(-37.8785072761864,102.291792415246,186.777223905075));
#1692=CARTESIAN_POINT('',(-37.8785072761864,97.1269950914341,190.103543597786));
#1693=CARTESIAN_POINT('',(-37.8785072761864,98.0462339069845,191.022782413337));
#1694=CARTESIAN_POINT('',(-37.8785072761864,90.4322849875093,196.798253701711));
#1695=CARTESIAN_POINT('Origin',(-35.8785072612824,85.6446113403669,198.346251638383));
#1696=CARTESIAN_POINT('',(-35.8785072612835,87.7601899111547,193.402245942849));
#1697=CARTESIAN_POINT('',(-37.8785072612843,89.1744034735273,194.816459505222));
#1698=CARTESIAN_POINT('Origin',(-35.8785072612843,89.1744034735278,194.816459505222));
#1699=CARTESIAN_POINT('',(-37.8785072612866,93.4170441606466,190.573818818103));
#1700=CARTESIAN_POINT('',(-37.8785072612824,85.6446113403664,198.346251638383));
#1701=CARTESIAN_POINT('',(-35.8785072612858,92.002830598274,189.159605255729));
#1702=CARTESIAN_POINT('Origin',(-35.8785072612866,93.4170441606471,190.573818818103));
#1703=CARTESIAN_POINT('',(-35.8785072612817,84.2303977779938,196.932038076009));
#1704=CARTESIAN_POINT('Origin',(-37.8785072612866,95.9561208314321,193.112895488889));
#1705=CARTESIAN_POINT('',(-37.8785072612843,90.7942413287625,196.436297360458));
#1706=CARTESIAN_POINT('',(-37.8785072612843,91.7134801443128,197.355536176008));
#1707=CARTESIAN_POINT('',(-37.8785072612866,95.0368820158818,192.193656673338));
#1708=CARTESIAN_POINT('',(-37.8785072612824,87.2644491956015,199.966089493618));
#1709=CARTESIAN_POINT('',(-37.8785072612866,95.9561208314321,193.112895488889));
#1710=CARTESIAN_POINT('Origin',(-35.1340452914946,83.5903648198188,204.064437938114));
#1711=CARTESIAN_POINT('',(-35.5953980281408,91.6337303796553,197.275786411349));
#1712=CARTESIAN_POINT('Origin',(-35.1340452914985,91.0063733631199,196.648429394813));
#1713=CARTESIAN_POINT('',(-35.5953980281431,95.8763710667746,193.03314572423));
#1714=CARTESIAN_POINT('Origin',(-35.1340452915008,95.2490140502392,192.405788707694));
#1715=CARTESIAN_POINT('',(-35.5953980281368,84.2177218363542,204.69179495465));
#1716=CARTESIAN_POINT('Origin',(-35.1340453064006,85.1742827157726,202.480520042161));
#1717=CARTESIAN_POINT('',(-35.5953980430428,97.9664841423263,190.943032648678));
#1718=CARTESIAN_POINT('Origin',(-35.1340453064006,97.3391271257908,190.315675632143));
#1719=CARTESIAN_POINT('',(-35.5953980430428,102.212042650588,186.697474140417));
#1720=CARTESIAN_POINT('Origin',(-35.1340453064006,101.584685634053,186.070117123881));
#1721=CARTESIAN_POINT('',(-35.5953980430428,85.8016397323081,203.107877058696));
#1722=CARTESIAN_POINT('Origin',(-36.6285072612824,87.7240686033735,200.42570890139));
#1723=CARTESIAN_POINT('',(-37.3810261588355,95.2198035916308,192.376578249087));
#1724=CARTESIAN_POINT('',(-36.9874493267731,91.1218793448829,196.763935376577));
#1725=CARTESIAN_POINT('Origin',(-36.6285072761864,90.8919043952809,197.257873109482));
#1726=CARTESIAN_POINT('',(-37.3810261678715,101.555475177601,186.040906667429));
#1727=CARTESIAN_POINT('',(-36.9874493416752,97.4546331075543,190.431181613906));
#1728=CARTESIAN_POINT('Origin',(-40.8785072761852,91.7134801443126,197.355536176008));
#1729=CARTESIAN_POINT('',(-40.8785072761852,92.0028305982724,189.159605255729));
#1730=CARTESIAN_POINT('',(-40.878507276183,87.7601899111531,193.402245942849));
#1731=CARTESIAN_POINT('',(-40.8785072761852,82.1090774344327,199.053358419568));
#1732=CARTESIAN_POINT('',(-40.8785072761852,95.9561208314319,193.112895488889));
#1733=CARTESIAN_POINT('',(-40.878507276183,91.7134801443126,197.355536176008));
#1734=CARTESIAN_POINT('Origin',(-37.8785072612843,91.7134801443128,197.355536176008));
#1735=CARTESIAN_POINT('',(-36.1785074296841,87.7601899111539,193.402245942849));
#1736=CARTESIAN_POINT('Origin',(-38.8785072761853,95.9561208314319,193.112895488889));
#1737=CARTESIAN_POINT('',(-36.1785074296883,92.0028305982739,189.159605255729));
#1738=CARTESIAN_POINT('Origin',(-37.8785072761864,98.0462339069845,191.022782413337));
#1739=CARTESIAN_POINT('',(-40.8785072761864,94.092943673825,187.069492180177));
#1740=CARTESIAN_POINT('',(-35.6785074296847,94.0929436738259,187.069492180178));
#1741=CARTESIAN_POINT('',(-40.8785072761864,98.0462339069845,191.022782413337));
#1742=CARTESIAN_POINT('Origin',(-38.8785072761864,102.291792415246,186.777223905075));
#1743=CARTESIAN_POINT('',(-40.8785072761864,98.3385021820821,182.82393367191));
#1744=CARTESIAN_POINT('',(-40.8785072761864,102.291792415246,186.777223905075));
#1745=CARTESIAN_POINT('',(-36.1785074296847,98.3385021820877,182.823933671916));
#1746=CARTESIAN_POINT('Origin',(-67.478507583201,106.24879348412,174.779004520508));
#1747=CARTESIAN_POINT('',(-33.4785075832032,110.336157951144,170.826277902861));
#1748=CARTESIAN_POINT('Origin',(-33.4785075832011,106.248793484138,174.779004520508));
#1749=CARTESIAN_POINT('',(-67.4785075832032,110.336157951122,170.826277902857));
#1750=CARTESIAN_POINT('Origin',(-17.4785075831852,76.4579649577191,204.704470896285));
#1751=CARTESIAN_POINT('',(-33.4785075831886,82.9417546003889,198.220681253607));
#1752=CARTESIAN_POINT('',(-40.8785072761864,85.2754543157687,195.886981538232));
#1753=CARTESIAN_POINT('',(-60.0785087007364,87.3982335698945,193.764202284087));
#1754=CARTESIAN_POINT('',(-59.4232817488159,96.4248309386957,184.737604915318));
#1755=CARTESIAN_POINT('',(-59.4232817488159,94.303510595136,186.858925258878));
#1756=CARTESIAN_POINT('',(-59.4232817488159,92.9251875908678,188.237248263114));
#1757=CARTESIAN_POINT('',(-55.4232817488159,94.303510595136,186.858925258878));
#1758=CARTESIAN_POINT('',(-38.4508946660005,94.3035105951258,186.858925258868));
#1759=CARTESIAN_POINT('',(-55.4232817488159,96.4248309386957,184.737604915318));
#1760=CARTESIAN_POINT('Origin',(-55.4232817488159,95.3641707669112,185.798265087094));
#1761=CARTESIAN_POINT('',(-36.4508946660005,96.424830938686,184.737604915309));
#1762=CARTESIAN_POINT('',(-41.5665961487775,94.2565170394883,186.905918814526));
#1763=CARTESIAN_POINT('',(-41.5665961487775,96.377837383048,184.784598470966));
#1764=CARTESIAN_POINT('',(-41.5665961487775,91.8410306412689,189.321405212723));
#1765=CARTESIAN_POINT('',(-45.6665961487775,96.377837383048,184.784598470966));
#1766=CARTESIAN_POINT('',(-29.5225518659814,96.3778373830401,184.784598470958));
#1767=CARTESIAN_POINT('',(-47.0665961487775,95.3878878893868,185.774547964627));
#1768=CARTESIAN_POINT('Origin',(-45.6665961487776,95.3878878893822,185.774547964623));
#1769=CARTESIAN_POINT('',(-47.0665961487775,95.2464665331495,185.915969320865));
#1770=CARTESIAN_POINT('',(-47.0665961487775,85.9229264235428,195.239509430446));
#1771=CARTESIAN_POINT('',(-45.6665961487775,94.2565170394883,186.905918814526));
#1772=CARTESIAN_POINT('Origin',(-45.6665961487775,95.2464665331448,185.91596932086));
#1773=CARTESIAN_POINT('',(-31.5725518659814,94.2565170394799,186.905918814517));
#1774=CARTESIAN_POINT('Origin',(-47.0665961487775,95.3878878893868,185.774547964627));
#1775=CARTESIAN_POINT('',(-47.0665961487775,95.2464665331495,185.915969320865));
#1776=CARTESIAN_POINT('',(-47.0665961487775,95.3878878893868,185.774547964627));
#1777=CARTESIAN_POINT('Origin',(-45.6665961487775,95.2464665331495,185.915969320865));
#1778=CARTESIAN_POINT('',(-45.6665961487775,94.2565170394883,186.905918814526));
#1779=CARTESIAN_POINT('Origin',(-45.6665961487775,94.2565170394883,186.905918814526));
#1780=CARTESIAN_POINT('',(-41.5665961487775,94.2565170394883,186.905918814526));
#1781=CARTESIAN_POINT('Origin',(-41.5665961487775,96.377837383048,184.784598470966));
#1782=CARTESIAN_POINT('',(-45.6665961487775,96.377837383048,184.784598470966));
#1783=CARTESIAN_POINT('',(-41.5665961487775,96.377837383048,184.784598470966));
#1784=CARTESIAN_POINT('Origin',(-45.6665961487776,95.3878878893868,185.774547964627));
#1785=CARTESIAN_POINT('Origin',(-55.4232817488159,95.3641707669159,185.798265087098));
#1786=CARTESIAN_POINT('',(-55.4232817488159,96.4248309386957,184.737604915318));
#1787=CARTESIAN_POINT('',(-55.4232817488159,94.303510595136,186.858925258878));
#1788=CARTESIAN_POINT('Origin',(-55.4232817488159,96.4248309386957,184.737604915318));
#1789=CARTESIAN_POINT('',(-59.4232817488159,96.4248309386957,184.737604915318));
#1790=CARTESIAN_POINT('Origin',(-59.4232817488159,94.303510595136,186.858925258878));
#1791=CARTESIAN_POINT('',(-59.4232817488159,94.303510595136,186.858925258878));
#1792=CARTESIAN_POINT('Origin',(-61.8162747327391,104.578546573124,177.419401935328));
#1793=CARTESIAN_POINT('',(-59.5662747327391,104.578546573124,177.419401935328));
#1794=CARTESIAN_POINT('Origin',(-61.8162747327391,104.578546573124,177.419401935328));
#1795=CARTESIAN_POINT('Origin',(-61.8162747327391,108.114080479057,180.954935841261));
#1796=CARTESIAN_POINT('',(-59.5662747327391,108.114080479057,180.954935841261));
#1797=CARTESIAN_POINT('Origin',(-38.9007498751491,104.578546573124,177.419401935328));
#1798=CARTESIAN_POINT('',(-36.6507498751491,104.578546573124,177.419401935328));
#1799=CARTESIAN_POINT('Origin',(-38.9007498751491,104.578546573124,177.419401935328));
#1800=CARTESIAN_POINT('Origin',(-38.9007498751491,108.114080479057,180.954935841261));
#1801=CARTESIAN_POINT('',(-36.6507498751491,108.114080479057,180.954935841261));
#1802=CARTESIAN_POINT('Origin',(-50.4007498751491,104.578546573124,177.419401935328));
#1803=CARTESIAN_POINT('',(-48.1507498751491,104.578546573124,177.419401935328));
#1804=CARTESIAN_POINT('Origin',(-50.4007498751491,104.578546573124,177.419401935328));
#1805=CARTESIAN_POINT('Origin',(-50.4007498751491,108.114080479057,180.954935841261));
#1806=CARTESIAN_POINT('',(-48.1507498751491,108.114080479057,180.954935841261));
#1807=CARTESIAN_POINT('Origin',(-59.4232817488159,100.378121171847,188.69089514847));
#1808=CARTESIAN_POINT('Origin',(-41.5665961487775,98.2098072726397,190.859209047677));
#1809=CARTESIAN_POINT('Origin',(-60.0785087007364,102.291792415251,186.77722390507));
#1810=CARTESIAN_POINT('Origin',(-33.4785075831739,55.2315180542036,183.478023992778));
#1811=CARTESIAN_POINT('Origin',(-40.8785072761864,98.0462339069845,191.022782413337));
#1812=UNCERTAINTY_MEASURE_WITH_UNIT(LENGTH_MEASURE(0.01),#1816,
'DISTANCE_ACCURACY_VALUE',
'Maximum model space distance between geometric entities at asserted c
onnectivities');
#1813=UNCERTAINTY_MEASURE_WITH_UNIT(LENGTH_MEASURE(0.01),#1816,
'DISTANCE_ACCURACY_VALUE',
'Maximum model space distance between geometric entities at asserted c
onnectivities');
#1814=(
GEOMETRIC_REPRESENTATION_CONTEXT(3)
GLOBAL_UNCERTAINTY_ASSIGNED_CONTEXT((#1812))
GLOBAL_UNIT_ASSIGNED_CONTEXT((#1816,#1818,#1819))
REPRESENTATION_CONTEXT('','3D')
);
#1815=(
GEOMETRIC_REPRESENTATION_CONTEXT(3)
GLOBAL_UNCERTAINTY_ASSIGNED_CONTEXT((#1813))
GLOBAL_UNIT_ASSIGNED_CONTEXT((#1816,#1818,#1819))
REPRESENTATION_CONTEXT('','3D')
);
#1816=(
LENGTH_UNIT()
NAMED_UNIT(*)
SI_UNIT(.MILLI.,.METRE.)
);
#1817=(
LENGTH_UNIT()
NAMED_UNIT(*)
SI_UNIT($,.METRE.)
);
#1818=(
NAMED_UNIT(*)
PLANE_ANGLE_UNIT()
SI_UNIT($,.RADIAN.)
);
#1819=(
NAMED_UNIT(*)
SI_UNIT($,.STERADIAN.)
SOLID_ANGLE_UNIT()
);
#1820=SHAPE_DEFINITION_REPRESENTATION(#1821,#1822);
#1821=PRODUCT_DEFINITION_SHAPE('',$,#1824);
#1822=SHAPE_REPRESENTATION('',(#1108),#1814);
#1823=PRODUCT_DEFINITION_CONTEXT('part definition',#1828,'design');
#1824=PRODUCT_DEFINITION('TOOLHEAD(1x)','TOOLHEAD(1x) v1',#1825,#1823);
#1825=PRODUCT_DEFINITION_FORMATION('',$,#1830);
#1826=PRODUCT_RELATED_PRODUCT_CATEGORY('TOOLHEAD(1x) v1',
'TOOLHEAD(1x) v1',(#1830));
#1827=APPLICATION_PROTOCOL_DEFINITION('international standard',
'automotive_design',2009,#1828);
#1828=APPLICATION_CONTEXT(
'Core Data for Automotive Mechanical Design Process');
#1829=PRODUCT_CONTEXT('part definition',#1828,'mechanical');
#1830=PRODUCT('TOOLHEAD(1x)','TOOLHEAD(1x) v1',$,(#1829));
#1831=PRESENTATION_STYLE_ASSIGNMENT((#1833));
#1832=PRESENTATION_STYLE_ASSIGNMENT((#1834));
#1833=SURFACE_STYLE_USAGE(.BOTH.,#1835);
#1834=SURFACE_STYLE_USAGE(.BOTH.,#1836);
#1835=SURFACE_SIDE_STYLE('',(#1837));
#1836=SURFACE_SIDE_STYLE('',(#1838));
#1837=SURFACE_STYLE_FILL_AREA(#1839);
#1838=SURFACE_STYLE_FILL_AREA(#1840);
#1839=FILL_AREA_STYLE('Steel - Satin',(#1841));
#1840=FILL_AREA_STYLE('Aluminum - Anodized Glossy (Grey)',(#1842));
#1841=FILL_AREA_STYLE_COLOUR('Steel - Satin',#1843);
#1842=FILL_AREA_STYLE_COLOUR('Aluminum - Anodized Glossy (Grey)',#1844);
#1843=COLOUR_RGB('Steel - Satin',0.627450980392157,0.627450980392157,0.627450980392157);
#1844=COLOUR_RGB('Aluminum - Anodized Glossy (Grey)',0.537254901960784,
0.537254901960784,0.537254901960784);
ENDSEC;
END-ISO-10303-21;
