ISO-10303-21;
HEADER;
/* Generated by software containing ST-Developer
 * from STEP Tools, Inc. (www.steptools.com) 
 */

FILE_DESCRIPTION(
/* description */ (''),
/* implementation_level */ '2;1');

FILE_NAME(
/* name */ 'XY(1x).step',
/* time_stamp */ '2025-11-23T22:19:42+05:30',
/* author */ (''),
/* organization */ (''),
/* preprocessor_version */ 'ST-DEVELOPER v20.1',
/* originating_system */ 'Autodesk Translation Framework v14.21.0.0',
/* authorisation */ '');

FILE_SCHEMA (('AUTOMOTIVE_DESIGN { 1 0 10303 214 3 1 1 }'));
ENDSEC;

DATA;
#10=MECHANICAL_DESIGN_GEOMETRIC_PRESENTATION_REPRESENTATION('',(#13),#1885);
#11=SHAPE_REPRESENTATION_RELATIONSHIP('SRR','None',#1892,#12);
#12=ADVANCED_BREP_SHAPE_REPRESENTATION('',(#14),#1884);
#13=STYLED_ITEM('',(#1902),#14);
#14=MANIFOLD_SOLID_BREP('corexyxy1 (1)',#1124);
#15=ELLIPSE('',#1224,1.4142135623731,1.);
#16=ELLIPSE('',#1230,1.41421356237311,1.);
#17=ELLIPSE('',#1234,1.41421356237309,1.);
#18=ELLIPSE('',#1237,1.41421356237309,1.);
#19=CYLINDRICAL_SURFACE('',#1142,6.5);
#20=CYLINDRICAL_SURFACE('',#1150,1.75000000000001);
#21=CYLINDRICAL_SURFACE('',#1153,1.75000000000001);
#22=CYLINDRICAL_SURFACE('',#1156,1.75000000000001);
#23=CYLINDRICAL_SURFACE('',#1159,1.75000000000001);
#24=CYLINDRICAL_SURFACE('',#1162,1.5);
#25=CYLINDRICAL_SURFACE('',#1165,1.50000000000002);
#26=CYLINDRICAL_SURFACE('',#1168,1.50000000000002);
#27=CYLINDRICAL_SURFACE('',#1171,1.5);
#28=CYLINDRICAL_SURFACE('',#1174,1.50000000000002);
#29=CYLINDRICAL_SURFACE('',#1177,1.49999999999999);
#30=CYLINDRICAL_SURFACE('',#1180,6.09182051503922);
#31=CYLINDRICAL_SURFACE('',#1186,1.5);
#32=CYLINDRICAL_SURFACE('',#1196,1.50000000000002);
#33=CYLINDRICAL_SURFACE('',#1200,1.49999999999999);
#34=CYLINDRICAL_SURFACE('',#1204,6.083);
#35=CYLINDRICAL_SURFACE('',#1212,6.5);
#36=CYLINDRICAL_SURFACE('',#1215,2.5);
#37=CYLINDRICAL_SURFACE('',#1216,1.50000000000002);
#38=CYLINDRICAL_SURFACE('',#1238,1.);
#39=CYLINDRICAL_SURFACE('',#1239,1.5);
#40=FACE_BOUND('',#175,.T.);
#41=FACE_BOUND('',#192,.T.);
#42=FACE_BOUND('',#209,.T.);
#43=FACE_BOUND('',#212,.T.);
#44=FACE_BOUND('',#213,.T.);
#45=FACE_BOUND('',#215,.T.);
#46=FACE_BOUND('',#221,.T.);
#47=FACE_BOUND('',#222,.T.);
#48=FACE_BOUND('',#223,.T.);
#49=FACE_BOUND('',#224,.T.);
#50=FACE_BOUND('',#227,.T.);
#51=FACE_BOUND('',#228,.T.);
#52=FACE_BOUND('',#229,.T.);
#53=FACE_BOUND('',#230,.T.);
#54=FACE_BOUND('',#232,.T.);
#55=FACE_BOUND('',#233,.T.);
#56=FACE_BOUND('',#234,.T.);
#57=FACE_BOUND('',#235,.T.);
#58=FACE_BOUND('',#236,.T.);
#59=FACE_BOUND('',#241,.T.);
#60=FACE_BOUND('',#242,.T.);
#61=FACE_BOUND('',#243,.T.);
#62=FACE_BOUND('',#244,.T.);
#63=FACE_BOUND('',#245,.T.);
#64=FACE_BOUND('',#252,.T.);
#65=FACE_BOUND('',#258,.T.);
#66=FACE_BOUND('',#262,.T.);
#67=FACE_BOUND('',#263,.T.);
#68=CIRCLE('',#1140,2.5);
#69=CIRCLE('',#1143,6.5);
#70=CIRCLE('',#1144,6.5);
#71=CIRCLE('',#1145,6.5);
#72=CIRCLE('',#1146,6.5);
#73=CIRCLE('',#1147,6.5);
#74=CIRCLE('',#1151,1.75000000000001);
#75=CIRCLE('',#1152,1.75000000000001);
#76=CIRCLE('',#1154,1.75000000000001);
#77=CIRCLE('',#1155,1.75000000000001);
#78=CIRCLE('',#1157,1.75000000000001);
#79=CIRCLE('',#1158,1.75000000000001);
#80=CIRCLE('',#1160,1.75000000000001);
#81=CIRCLE('',#1161,1.75000000000001);
#82=CIRCLE('',#1163,1.5);
#83=CIRCLE('',#1164,1.5);
#84=CIRCLE('',#1166,1.50000000000002);
#85=CIRCLE('',#1167,1.50000000000002);
#86=CIRCLE('',#1169,1.50000000000002);
#87=CIRCLE('',#1170,1.50000000000002);
#88=CIRCLE('',#1172,1.5);
#89=CIRCLE('',#1173,1.5);
#90=CIRCLE('',#1175,1.50000000000002);
#91=CIRCLE('',#1176,1.50000000000002);
#92=CIRCLE('',#1178,1.49999999999999);
#93=CIRCLE('',#1179,1.49999999999999);
#94=CIRCLE('',#1181,6.09182051503922);
#95=CIRCLE('',#1182,6.09182051503922);
#96=CIRCLE('',#1187,1.5);
#97=CIRCLE('',#1188,1.5);
#98=CIRCLE('',#1197,1.50000000000002);
#99=CIRCLE('',#1198,1.50000000000002);
#100=CIRCLE('',#1201,1.49999999999999);
#101=CIRCLE('',#1202,1.49999999999999);
#102=CIRCLE('',#1205,6.083);
#103=CIRCLE('',#1206,6.083);
#104=CIRCLE('',#1211,6.5);
#105=CIRCLE('',#1214,2.5);
#106=CIRCLE('',#1217,1.50000000000002);
#107=CIRCLE('',#1218,1.50000000000002);
#108=CIRCLE('',#1240,1.5);
#109=CIRCLE('',#1241,1.5);
#110=FACE_OUTER_BOUND('',#173,.T.);
#111=FACE_OUTER_BOUND('',#174,.T.);
#112=FACE_OUTER_BOUND('',#176,.T.);
#113=FACE_OUTER_BOUND('',#177,.T.);
#114=FACE_OUTER_BOUND('',#178,.T.);
#115=FACE_OUTER_BOUND('',#179,.T.);
#116=FACE_OUTER_BOUND('',#180,.T.);
#117=FACE_OUTER_BOUND('',#181,.T.);
#118=FACE_OUTER_BOUND('',#182,.T.);
#119=FACE_OUTER_BOUND('',#183,.T.);
#120=FACE_OUTER_BOUND('',#184,.T.);
#121=FACE_OUTER_BOUND('',#185,.T.);
#122=FACE_OUTER_BOUND('',#186,.T.);
#123=FACE_OUTER_BOUND('',#187,.T.);
#124=FACE_OUTER_BOUND('',#188,.T.);
#125=FACE_OUTER_BOUND('',#189,.T.);
#126=FACE_OUTER_BOUND('',#190,.T.);
#127=FACE_OUTER_BOUND('',#191,.T.);
#128=FACE_OUTER_BOUND('',#193,.T.);
#129=FACE_OUTER_BOUND('',#194,.T.);
#130=FACE_OUTER_BOUND('',#195,.T.);
#131=FACE_OUTER_BOUND('',#196,.T.);
#132=FACE_OUTER_BOUND('',#197,.T.);
#133=FACE_OUTER_BOUND('',#198,.T.);
#134=FACE_OUTER_BOUND('',#199,.T.);
#135=FACE_OUTER_BOUND('',#200,.T.);
#136=FACE_OUTER_BOUND('',#201,.T.);
#137=FACE_OUTER_BOUND('',#202,.T.);
#138=FACE_OUTER_BOUND('',#203,.T.);
#139=FACE_OUTER_BOUND('',#204,.T.);
#140=FACE_OUTER_BOUND('',#205,.T.);
#141=FACE_OUTER_BOUND('',#206,.T.);
#142=FACE_OUTER_BOUND('',#207,.T.);
#143=FACE_OUTER_BOUND('',#208,.T.);
#144=FACE_OUTER_BOUND('',#210,.T.);
#145=FACE_OUTER_BOUND('',#211,.T.);
#146=FACE_OUTER_BOUND('',#214,.T.);
#147=FACE_OUTER_BOUND('',#216,.T.);
#148=FACE_OUTER_BOUND('',#217,.T.);
#149=FACE_OUTER_BOUND('',#218,.T.);
#150=FACE_OUTER_BOUND('',#219,.T.);
#151=FACE_OUTER_BOUND('',#220,.T.);
#152=FACE_OUTER_BOUND('',#225,.T.);
#153=FACE_OUTER_BOUND('',#226,.T.);
#154=FACE_OUTER_BOUND('',#231,.T.);
#155=FACE_OUTER_BOUND('',#237,.T.);
#156=FACE_OUTER_BOUND('',#238,.T.);
#157=FACE_OUTER_BOUND('',#239,.T.);
#158=FACE_OUTER_BOUND('',#240,.T.);
#159=FACE_OUTER_BOUND('',#246,.T.);
#160=FACE_OUTER_BOUND('',#247,.T.);
#161=FACE_OUTER_BOUND('',#248,.T.);
#162=FACE_OUTER_BOUND('',#249,.T.);
#163=FACE_OUTER_BOUND('',#250,.T.);
#164=FACE_OUTER_BOUND('',#251,.T.);
#165=FACE_OUTER_BOUND('',#253,.T.);
#166=FACE_OUTER_BOUND('',#254,.T.);
#167=FACE_OUTER_BOUND('',#255,.T.);
#168=FACE_OUTER_BOUND('',#256,.T.);
#169=FACE_OUTER_BOUND('',#257,.T.);
#170=FACE_OUTER_BOUND('',#259,.T.);
#171=FACE_OUTER_BOUND('',#260,.T.);
#172=FACE_OUTER_BOUND('',#261,.T.);
#173=EDGE_LOOP('',(#719,#720,#721,#722,#723));
#174=EDGE_LOOP('',(#724,#725,#726,#727,#728,#729));
#175=EDGE_LOOP('',(#730));
#176=EDGE_LOOP('',(#731,#732,#733,#734));
#177=EDGE_LOOP('',(#735,#736,#737,#738,#739,#740,#741,#742,#743));
#178=EDGE_LOOP('',(#744,#745));
#179=EDGE_LOOP('',(#746,#747,#748,#749,#750,#751,#752,#753));
#180=EDGE_LOOP('',(#754,#755,#756,#757));
#181=EDGE_LOOP('',(#758,#759,#760,#761));
#182=EDGE_LOOP('',(#762,#763,#764,#765));
#183=EDGE_LOOP('',(#766,#767,#768,#769));
#184=EDGE_LOOP('',(#770,#771,#772,#773));
#185=EDGE_LOOP('',(#774,#775,#776,#777));
#186=EDGE_LOOP('',(#778,#779,#780,#781));
#187=EDGE_LOOP('',(#782,#783,#784,#785));
#188=EDGE_LOOP('',(#786,#787,#788,#789));
#189=EDGE_LOOP('',(#790,#791,#792,#793));
#190=EDGE_LOOP('',(#794,#795,#796,#797));
#191=EDGE_LOOP('',(#798));
#192=EDGE_LOOP('',(#799));
#193=EDGE_LOOP('',(#800,#801,#802,#803));
#194=EDGE_LOOP('',(#804,#805,#806,#807));
#195=EDGE_LOOP('',(#808,#809,#810,#811));
#196=EDGE_LOOP('',(#812));
#197=EDGE_LOOP('',(#813));
#198=EDGE_LOOP('',(#814));
#199=EDGE_LOOP('',(#815,#816,#817,#818,#819));
#200=EDGE_LOOP('',(#820,#821,#822,#823));
#201=EDGE_LOOP('',(#824,#825,#826,#827));
#202=EDGE_LOOP('',(#828,#829,#830,#831));
#203=EDGE_LOOP('',(#832,#833,#834,#835));
#204=EDGE_LOOP('',(#836));
#205=EDGE_LOOP('',(#837,#838,#839,#840));
#206=EDGE_LOOP('',(#841));
#207=EDGE_LOOP('',(#842,#843,#844,#845));
#208=EDGE_LOOP('',(#846));
#209=EDGE_LOOP('',(#847));
#210=EDGE_LOOP('',(#848,#849,#850,#851));
#211=EDGE_LOOP('',(#852,#853,#854,#855,#856));
#212=EDGE_LOOP('',(#857));
#213=EDGE_LOOP('',(#858));
#214=EDGE_LOOP('',(#859));
#215=EDGE_LOOP('',(#860));
#216=EDGE_LOOP('',(#861,#862,#863,#864,#865));
#217=EDGE_LOOP('',(#866));
#218=EDGE_LOOP('',(#867,#868,#869,#870));
#219=EDGE_LOOP('',(#871,#872,#873,#874));
#220=EDGE_LOOP('',(#875,#876,#877,#878,#879,#880,#881,#882,#883,#884,#885));
#221=EDGE_LOOP('',(#886));
#222=EDGE_LOOP('',(#887));
#223=EDGE_LOOP('',(#888));
#224=EDGE_LOOP('',(#889));
#225=EDGE_LOOP('',(#890,#891,#892,#893));
#226=EDGE_LOOP('',(#894,#895,#896,#897,#898,#899,#900,#901));
#227=EDGE_LOOP('',(#902));
#228=EDGE_LOOP('',(#903));
#229=EDGE_LOOP('',(#904));
#230=EDGE_LOOP('',(#905));
#231=EDGE_LOOP('',(#906,#907,#908,#909));
#232=EDGE_LOOP('',(#910));
#233=EDGE_LOOP('',(#911));
#234=EDGE_LOOP('',(#912));
#235=EDGE_LOOP('',(#913));
#236=EDGE_LOOP('',(#914));
#237=EDGE_LOOP('',(#915,#916,#917,#918,#919));
#238=EDGE_LOOP('',(#920,#921,#922,#923));
#239=EDGE_LOOP('',(#924,#925,#926,#927));
#240=EDGE_LOOP('',(#928,#929,#930,#931));
#241=EDGE_LOOP('',(#932));
#242=EDGE_LOOP('',(#933));
#243=EDGE_LOOP('',(#934));
#244=EDGE_LOOP('',(#935));
#245=EDGE_LOOP('',(#936));
#246=EDGE_LOOP('',(#937,#938,#939,#940,#941,#942,#943,#944));
#247=EDGE_LOOP('',(#945,#946,#947,#948,#949));
#248=EDGE_LOOP('',(#950,#951,#952,#953));
#249=EDGE_LOOP('',(#954,#955,#956,#957));
#250=EDGE_LOOP('',(#958,#959,#960,#961,#962));
#251=EDGE_LOOP('',(#963,#964,#965,#966,#967,#968,#969,#970,#971,#972,#973,
#974));
#252=EDGE_LOOP('',(#975));
#253=EDGE_LOOP('',(#976,#977,#978,#979,#980));
#254=EDGE_LOOP('',(#981,#982,#983,#984,#985,#986,#987,#988));
#255=EDGE_LOOP('',(#989,#990,#991,#992));
#256=EDGE_LOOP('',(#993,#994,#995,#996));
#257=EDGE_LOOP('',(#997,#998,#999,#1000));
#258=EDGE_LOOP('',(#1001));
#259=EDGE_LOOP('',(#1002,#1003,#1004,#1005));
#260=EDGE_LOOP('',(#1006,#1007,#1008,#1009));
#261=EDGE_LOOP('',(#1010,#1011,#1012,#1013,#1014,#1015,#1016));
#262=EDGE_LOOP('',(#1017));
#263=EDGE_LOOP('',(#1018));
#264=LINE('',#1575,#368);
#265=LINE('',#1577,#369);
#266=LINE('',#1579,#370);
#267=LINE('',#1581,#371);
#268=LINE('',#1582,#372);
#269=LINE('',#1586,#373);
#270=LINE('',#1588,#374);
#271=LINE('',#1590,#375);
#272=LINE('',#1592,#376);
#273=LINE('',#1594,#377);
#274=LINE('',#1595,#378);
#275=LINE('',#1601,#379);
#276=LINE('',#1603,#380);
#277=LINE('',#1605,#381);
#278=LINE('',#1606,#382);
#279=LINE('',#1610,#383);
#280=LINE('',#1614,#384);
#281=LINE('',#1621,#385);
#282=LINE('',#1624,#386);
#283=LINE('',#1627,#387);
#284=LINE('',#1628,#388);
#285=LINE('',#1630,#389);
#286=LINE('',#1631,#390);
#287=LINE('',#1636,#391);
#288=LINE('',#1642,#392);
#289=LINE('',#1648,#393);
#290=LINE('',#1654,#394);
#291=LINE('',#1660,#395);
#292=LINE('',#1666,#396);
#293=LINE('',#1672,#397);
#294=LINE('',#1678,#398);
#295=LINE('',#1684,#399);
#296=LINE('',#1690,#400);
#297=LINE('',#1696,#401);
#298=LINE('',#1702,#402);
#299=LINE('',#1704,#403);
#300=LINE('',#1706,#404);
#301=LINE('',#1707,#405);
#302=LINE('',#1710,#406);
#303=LINE('',#1712,#407);
#304=LINE('',#1713,#408);
#305=LINE('',#1718,#409);
#306=LINE('',#1726,#410);
#307=LINE('',#1728,#411);
#308=LINE('',#1730,#412);
#309=LINE('',#1732,#413);
#310=LINE('',#1733,#414);
#311=LINE('',#1736,#415);
#312=LINE('',#1738,#416);
#313=LINE('',#1739,#417);
#314=LINE('',#1742,#418);
#315=LINE('',#1744,#419);
#316=LINE('',#1745,#420);
#317=LINE('',#1748,#421);
#318=LINE('',#1749,#422);
#319=LINE('',#1754,#423);
#320=LINE('',#1761,#424);
#321=LINE('',#1768,#425);
#322=LINE('',#1774,#426);
#323=LINE('',#1776,#427);
#324=LINE('',#1778,#428);
#325=LINE('',#1779,#429);
#326=LINE('',#1781,#430);
#327=LINE('',#1782,#431);
#328=LINE('',#1787,#432);
#329=LINE('',#1792,#433);
#330=LINE('',#1797,#434);
#331=LINE('',#1800,#435);
#332=LINE('',#1801,#436);
#333=LINE('',#1802,#437);
#334=LINE('',#1804,#438);
#335=LINE('',#1806,#439);
#336=LINE('',#1807,#440);
#337=LINE('',#1808,#441);
#338=LINE('',#1812,#442);
#339=LINE('',#1814,#443);
#340=LINE('',#1816,#444);
#341=LINE('',#1817,#445);
#342=LINE('',#1821,#446);
#343=LINE('',#1822,#447);
#344=LINE('',#1824,#448);
#345=LINE('',#1826,#449);
#346=LINE('',#1830,#450);
#347=LINE('',#1832,#451);
#348=LINE('',#1834,#452);
#349=LINE('',#1835,#453);
#350=LINE('',#1837,#454);
#351=LINE('',#1841,#455);
#352=LINE('',#1842,#456);
#353=LINE('',#1844,#457);
#354=LINE('',#1845,#458);
#355=LINE('',#1850,#459);
#356=LINE('',#1853,#460);
#357=LINE('',#1854,#461);
#358=LINE('',#1858,#462);
#359=LINE('',#1863,#463);
#360=LINE('',#1867,#464);
#361=LINE('',#1869,#465);
#362=LINE('',#1870,#466);
#363=LINE('',#1873,#467);
#364=LINE('',#1874,#468);
#365=LINE('',#1877,#469);
#366=LINE('',#1878,#470);
#367=LINE('',#1880,#471);
#368=VECTOR('',#1251,10.);
#369=VECTOR('',#1252,10.);
#370=VECTOR('',#1253,10.);
#371=VECTOR('',#1254,10.);
#372=VECTOR('',#1255,10.);
#373=VECTOR('',#1258,10.);
#374=VECTOR('',#1259,10.);
#375=VECTOR('',#1260,10.);
#376=VECTOR('',#1261,10.);
#377=VECTOR('',#1262,10.);
#378=VECTOR('',#1263,10.);
#379=VECTOR('',#1268,10.);
#380=VECTOR('',#1269,10.);
#381=VECTOR('',#1270,10.);
#382=VECTOR('',#1271,10.);
#383=VECTOR('',#1274,10.);
#384=VECTOR('',#1277,6.5);
#385=VECTOR('',#1284,10.);
#386=VECTOR('',#1289,10.);
#387=VECTOR('',#1292,10.);
#388=VECTOR('',#1293,10.);
#389=VECTOR('',#1294,10.);
#390=VECTOR('',#1295,10.);
#391=VECTOR('',#1300,1.75000000000001);
#392=VECTOR('',#1307,1.75000000000001);
#393=VECTOR('',#1314,1.75000000000001);
#394=VECTOR('',#1321,1.75000000000001);
#395=VECTOR('',#1328,1.5);
#396=VECTOR('',#1335,1.50000000000002);
#397=VECTOR('',#1342,1.50000000000002);
#398=VECTOR('',#1349,1.5);
#399=VECTOR('',#1356,1.50000000000002);
#400=VECTOR('',#1363,1.49999999999999);
#401=VECTOR('',#1370,6.09182051503922);
#402=VECTOR('',#1377,10.);
#403=VECTOR('',#1378,10.);
#404=VECTOR('',#1379,10.);
#405=VECTOR('',#1380,10.);
#406=VECTOR('',#1383,10.);
#407=VECTOR('',#1384,10.);
#408=VECTOR('',#1385,10.);
#409=VECTOR('',#1390,1.5);
#410=VECTOR('',#1401,10.);
#411=VECTOR('',#1402,10.);
#412=VECTOR('',#1403,10.);
#413=VECTOR('',#1404,10.);
#414=VECTOR('',#1405,10.);
#415=VECTOR('',#1408,10.);
#416=VECTOR('',#1409,10.);
#417=VECTOR('',#1410,10.);
#418=VECTOR('',#1413,10.);
#419=VECTOR('',#1414,10.);
#420=VECTOR('',#1415,10.);
#421=VECTOR('',#1418,10.);
#422=VECTOR('',#1419,10.);
#423=VECTOR('',#1424,1.50000000000002);
#424=VECTOR('',#1433,1.49999999999999);
#425=VECTOR('',#1442,6.083);
#426=VECTOR('',#1449,10.);
#427=VECTOR('',#1450,10.);
#428=VECTOR('',#1451,10.);
#429=VECTOR('',#1452,10.);
#430=VECTOR('',#1455,10.);
#431=VECTOR('',#1456,10.);
#432=VECTOR('',#1463,6.5);
#433=VECTOR('',#1470,2.5);
#434=VECTOR('',#1475,1.50000000000002);
#435=VECTOR('',#1480,10.);
#436=VECTOR('',#1481,10.);
#437=VECTOR('',#1482,10.);
#438=VECTOR('',#1485,10.);
#439=VECTOR('',#1488,10.);
#440=VECTOR('',#1489,10.);
#441=VECTOR('',#1490,10.);
#442=VECTOR('',#1493,10.);
#443=VECTOR('',#1494,10.);
#444=VECTOR('',#1495,10.);
#445=VECTOR('',#1496,10.);
#446=VECTOR('',#1501,10.);
#447=VECTOR('',#1502,10.);
#448=VECTOR('',#1505,10.);
#449=VECTOR('',#1508,10.);
#450=VECTOR('',#1511,10.);
#451=VECTOR('',#1512,10.);
#452=VECTOR('',#1513,10.);
#453=VECTOR('',#1514,10.);
#454=VECTOR('',#1517,10.);
#455=VECTOR('',#1522,10.);
#456=VECTOR('',#1523,10.);
#457=VECTOR('',#1526,10.);
#458=VECTOR('',#1527,10.);
#459=VECTOR('',#1534,10.);
#460=VECTOR('',#1537,10.);
#461=VECTOR('',#1538,10.);
#462=VECTOR('',#1545,10.);
#463=VECTOR('',#1550,1.5);
#464=VECTOR('',#1555,10.);
#465=VECTOR('',#1556,10.);
#466=VECTOR('',#1557,10.);
#467=VECTOR('',#1560,10.);
#468=VECTOR('',#1561,10.);
#469=VECTOR('',#1564,10.);
#470=VECTOR('',#1565,10.);
#471=VECTOR('',#1568,10.);
#472=VERTEX_POINT('',#1573);
#473=VERTEX_POINT('',#1574);
#474=VERTEX_POINT('',#1576);
#475=VERTEX_POINT('',#1578);
#476=VERTEX_POINT('',#1580);
#477=VERTEX_POINT('',#1584);
#478=VERTEX_POINT('',#1585);
#479=VERTEX_POINT('',#1587);
#480=VERTEX_POINT('',#1589);
#481=VERTEX_POINT('',#1591);
#482=VERTEX_POINT('',#1593);
#483=VERTEX_POINT('',#1596);
#484=VERTEX_POINT('',#1599);
#485=VERTEX_POINT('',#1600);
#486=VERTEX_POINT('',#1602);
#487=VERTEX_POINT('',#1604);
#488=VERTEX_POINT('',#1608);
#489=VERTEX_POINT('',#1609);
#490=VERTEX_POINT('',#1611);
#491=VERTEX_POINT('',#1613);
#492=VERTEX_POINT('',#1615);
#493=VERTEX_POINT('',#1618);
#494=VERTEX_POINT('',#1620);
#495=VERTEX_POINT('',#1626);
#496=VERTEX_POINT('',#1629);
#497=VERTEX_POINT('',#1633);
#498=VERTEX_POINT('',#1635);
#499=VERTEX_POINT('',#1639);
#500=VERTEX_POINT('',#1641);
#501=VERTEX_POINT('',#1645);
#502=VERTEX_POINT('',#1647);
#503=VERTEX_POINT('',#1651);
#504=VERTEX_POINT('',#1653);
#505=VERTEX_POINT('',#1657);
#506=VERTEX_POINT('',#1659);
#507=VERTEX_POINT('',#1663);
#508=VERTEX_POINT('',#1665);
#509=VERTEX_POINT('',#1669);
#510=VERTEX_POINT('',#1671);
#511=VERTEX_POINT('',#1675);
#512=VERTEX_POINT('',#1677);
#513=VERTEX_POINT('',#1681);
#514=VERTEX_POINT('',#1683);
#515=VERTEX_POINT('',#1687);
#516=VERTEX_POINT('',#1689);
#517=VERTEX_POINT('',#1693);
#518=VERTEX_POINT('',#1695);
#519=VERTEX_POINT('',#1700);
#520=VERTEX_POINT('',#1701);
#521=VERTEX_POINT('',#1703);
#522=VERTEX_POINT('',#1705);
#523=VERTEX_POINT('',#1709);
#524=VERTEX_POINT('',#1711);
#525=VERTEX_POINT('',#1715);
#526=VERTEX_POINT('',#1717);
#527=VERTEX_POINT('',#1724);
#528=VERTEX_POINT('',#1725);
#529=VERTEX_POINT('',#1727);
#530=VERTEX_POINT('',#1729);
#531=VERTEX_POINT('',#1731);
#532=VERTEX_POINT('',#1735);
#533=VERTEX_POINT('',#1737);
#534=VERTEX_POINT('',#1741);
#535=VERTEX_POINT('',#1743);
#536=VERTEX_POINT('',#1747);
#537=VERTEX_POINT('',#1751);
#538=VERTEX_POINT('',#1753);
#539=VERTEX_POINT('',#1758);
#540=VERTEX_POINT('',#1760);
#541=VERTEX_POINT('',#1765);
#542=VERTEX_POINT('',#1767);
#543=VERTEX_POINT('',#1772);
#544=VERTEX_POINT('',#1773);
#545=VERTEX_POINT('',#1775);
#546=VERTEX_POINT('',#1777);
#547=VERTEX_POINT('',#1784);
#548=VERTEX_POINT('',#1789);
#549=VERTEX_POINT('',#1794);
#550=VERTEX_POINT('',#1796);
#551=VERTEX_POINT('',#1810);
#552=VERTEX_POINT('',#1811);
#553=VERTEX_POINT('',#1813);
#554=VERTEX_POINT('',#1815);
#555=VERTEX_POINT('',#1819);
#556=VERTEX_POINT('',#1828);
#557=VERTEX_POINT('',#1829);
#558=VERTEX_POINT('',#1831);
#559=VERTEX_POINT('',#1833);
#560=VERTEX_POINT('',#1839);
#561=VERTEX_POINT('',#1848);
#562=VERTEX_POINT('',#1852);
#563=VERTEX_POINT('',#1860);
#564=VERTEX_POINT('',#1862);
#565=VERTEX_POINT('',#1866);
#566=VERTEX_POINT('',#1868);
#567=VERTEX_POINT('',#1872);
#568=VERTEX_POINT('',#1876);
#569=EDGE_CURVE('',#472,#473,#264,.T.);
#570=EDGE_CURVE('',#473,#474,#265,.T.);
#571=EDGE_CURVE('',#474,#475,#266,.T.);
#572=EDGE_CURVE('',#476,#475,#267,.T.);
#573=EDGE_CURVE('',#472,#476,#268,.T.);
#574=EDGE_CURVE('',#477,#478,#269,.T.);
#575=EDGE_CURVE('',#477,#479,#270,.T.);
#576=EDGE_CURVE('',#480,#479,#271,.T.);
#577=EDGE_CURVE('',#481,#480,#272,.T.);
#578=EDGE_CURVE('',#482,#481,#273,.T.);
#579=EDGE_CURVE('',#482,#478,#274,.T.);
#580=EDGE_CURVE('',#483,#483,#68,.T.);
#581=EDGE_CURVE('',#484,#485,#275,.T.);
#582=EDGE_CURVE('',#486,#484,#276,.T.);
#583=EDGE_CURVE('',#486,#487,#277,.T.);
#584=EDGE_CURVE('',#485,#487,#278,.T.);
#585=EDGE_CURVE('',#488,#489,#279,.T.);
#586=EDGE_CURVE('',#490,#488,#69,.T.);
#587=EDGE_CURVE('',#490,#491,#280,.T.);
#588=EDGE_CURVE('',#491,#492,#70,.T.);
#589=EDGE_CURVE('',#492,#491,#71,.T.);
#590=EDGE_CURVE('',#493,#490,#72,.T.);
#591=EDGE_CURVE('',#494,#493,#281,.T.);
#592=EDGE_CURVE('',#489,#494,#73,.T.);
#593=EDGE_CURVE('',#489,#494,#282,.T.);
#594=EDGE_CURVE('',#475,#495,#283,.T.);
#595=EDGE_CURVE('',#474,#488,#284,.T.);
#596=EDGE_CURVE('',#493,#496,#285,.T.);
#597=EDGE_CURVE('',#496,#495,#286,.T.);
#598=EDGE_CURVE('',#497,#497,#74,.T.);
#599=EDGE_CURVE('',#497,#498,#287,.T.);
#600=EDGE_CURVE('',#498,#498,#75,.T.);
#601=EDGE_CURVE('',#499,#499,#76,.T.);
#602=EDGE_CURVE('',#499,#500,#288,.T.);
#603=EDGE_CURVE('',#500,#500,#77,.T.);
#604=EDGE_CURVE('',#501,#501,#78,.T.);
#605=EDGE_CURVE('',#501,#502,#289,.T.);
#606=EDGE_CURVE('',#502,#502,#79,.T.);
#607=EDGE_CURVE('',#503,#503,#80,.T.);
#608=EDGE_CURVE('',#503,#504,#290,.T.);
#609=EDGE_CURVE('',#504,#504,#81,.T.);
#610=EDGE_CURVE('',#505,#505,#82,.T.);
#611=EDGE_CURVE('',#505,#506,#291,.T.);
#612=EDGE_CURVE('',#506,#506,#83,.T.);
#613=EDGE_CURVE('',#507,#507,#84,.T.);
#614=EDGE_CURVE('',#507,#508,#292,.T.);
#615=EDGE_CURVE('',#508,#508,#85,.T.);
#616=EDGE_CURVE('',#509,#509,#86,.T.);
#617=EDGE_CURVE('',#509,#510,#293,.T.);
#618=EDGE_CURVE('',#510,#510,#87,.T.);
#619=EDGE_CURVE('',#511,#511,#88,.T.);
#620=EDGE_CURVE('',#511,#512,#294,.T.);
#621=EDGE_CURVE('',#512,#512,#89,.T.);
#622=EDGE_CURVE('',#513,#513,#90,.T.);
#623=EDGE_CURVE('',#513,#514,#295,.T.);
#624=EDGE_CURVE('',#514,#514,#91,.T.);
#625=EDGE_CURVE('',#515,#515,#92,.T.);
#626=EDGE_CURVE('',#515,#516,#296,.T.);
#627=EDGE_CURVE('',#516,#516,#93,.T.);
#628=EDGE_CURVE('',#517,#517,#94,.T.);
#629=EDGE_CURVE('',#517,#518,#297,.T.);
#630=EDGE_CURVE('',#518,#518,#95,.T.);
#631=EDGE_CURVE('',#519,#520,#298,.T.);
#632=EDGE_CURVE('',#521,#520,#299,.T.);
#633=EDGE_CURVE('',#522,#521,#300,.T.);
#634=EDGE_CURVE('',#522,#519,#301,.T.);
#635=EDGE_CURVE('',#495,#523,#302,.T.);
#636=EDGE_CURVE('',#496,#524,#303,.T.);
#637=EDGE_CURVE('',#524,#523,#304,.T.);
#638=EDGE_CURVE('',#525,#525,#96,.T.);
#639=EDGE_CURVE('',#525,#526,#305,.T.);
#640=EDGE_CURVE('',#526,#526,#97,.T.);
#641=EDGE_CURVE('',#527,#528,#306,.T.);
#642=EDGE_CURVE('',#529,#527,#307,.T.);
#643=EDGE_CURVE('',#530,#529,#308,.T.);
#644=EDGE_CURVE('',#531,#530,#309,.T.);
#645=EDGE_CURVE('',#528,#531,#310,.T.);
#646=EDGE_CURVE('',#532,#531,#311,.T.);
#647=EDGE_CURVE('',#533,#530,#312,.T.);
#648=EDGE_CURVE('',#532,#533,#313,.T.);
#649=EDGE_CURVE('',#527,#534,#314,.T.);
#650=EDGE_CURVE('',#535,#534,#315,.T.);
#651=EDGE_CURVE('',#529,#535,#316,.T.);
#652=EDGE_CURVE('',#536,#528,#317,.T.);
#653=EDGE_CURVE('',#536,#534,#318,.T.);
#654=EDGE_CURVE('',#537,#537,#98,.T.);
#655=EDGE_CURVE('',#537,#538,#319,.T.);
#656=EDGE_CURVE('',#538,#538,#99,.T.);
#657=EDGE_CURVE('',#539,#539,#100,.T.);
#658=EDGE_CURVE('',#539,#540,#320,.T.);
#659=EDGE_CURVE('',#540,#540,#101,.T.);
#660=EDGE_CURVE('',#541,#541,#102,.T.);
#661=EDGE_CURVE('',#541,#542,#321,.T.);
#662=EDGE_CURVE('',#542,#542,#103,.T.);
#663=EDGE_CURVE('',#543,#544,#322,.T.);
#664=EDGE_CURVE('',#545,#543,#323,.T.);
#665=EDGE_CURVE('',#545,#546,#324,.T.);
#666=EDGE_CURVE('',#544,#546,#325,.T.);
#667=EDGE_CURVE('',#487,#536,#326,.T.);
#668=EDGE_CURVE('',#535,#486,#327,.T.);
#669=EDGE_CURVE('',#547,#547,#104,.T.);
#670=EDGE_CURVE('',#491,#547,#328,.T.);
#671=EDGE_CURVE('',#548,#548,#105,.T.);
#672=EDGE_CURVE('',#483,#548,#329,.T.);
#673=EDGE_CURVE('',#549,#549,#106,.T.);
#674=EDGE_CURVE('',#549,#550,#330,.T.);
#675=EDGE_CURVE('',#550,#550,#107,.T.);
#676=EDGE_CURVE('',#524,#545,#331,.T.);
#677=EDGE_CURVE('',#519,#473,#332,.T.);
#678=EDGE_CURVE('',#546,#522,#333,.T.);
#679=EDGE_CURVE('',#544,#521,#334,.T.);
#680=EDGE_CURVE('',#532,#482,#335,.T.);
#681=EDGE_CURVE('',#543,#533,#336,.T.);
#682=EDGE_CURVE('',#520,#478,#337,.T.);
#683=EDGE_CURVE('',#551,#552,#338,.T.);
#684=EDGE_CURVE('',#553,#551,#339,.T.);
#685=EDGE_CURVE('',#554,#553,#340,.T.);
#686=EDGE_CURVE('',#552,#554,#341,.T.);
#687=EDGE_CURVE('',#476,#555,#15,.T.);
#688=EDGE_CURVE('',#553,#475,#342,.T.);
#689=EDGE_CURVE('',#551,#555,#343,.T.);
#690=EDGE_CURVE('',#554,#495,#344,.T.);
#691=EDGE_CURVE('',#552,#523,#345,.T.);
#692=EDGE_CURVE('',#556,#557,#346,.T.);
#693=EDGE_CURVE('',#558,#556,#347,.T.);
#694=EDGE_CURVE('',#559,#558,#348,.T.);
#695=EDGE_CURVE('',#557,#559,#349,.T.);
#696=EDGE_CURVE('',#485,#481,#350,.T.);
#697=EDGE_CURVE('',#560,#480,#16,.T.);
#698=EDGE_CURVE('',#558,#560,#351,.T.);
#699=EDGE_CURVE('',#556,#481,#352,.T.);
#700=EDGE_CURVE('',#559,#484,#353,.T.);
#701=EDGE_CURVE('',#557,#485,#354,.T.);
#702=EDGE_CURVE('',#555,#561,#17,.T.);
#703=EDGE_CURVE('',#523,#561,#355,.T.);
#704=EDGE_CURVE('',#561,#562,#356,.T.);
#705=EDGE_CURVE('',#562,#484,#357,.T.);
#706=EDGE_CURVE('',#562,#560,#18,.T.);
#707=EDGE_CURVE('',#479,#472,#358,.T.);
#708=EDGE_CURVE('',#563,#563,#108,.T.);
#709=EDGE_CURVE('',#563,#564,#359,.T.);
#710=EDGE_CURVE('',#564,#564,#109,.T.);
#711=EDGE_CURVE('',#477,#565,#360,.T.);
#712=EDGE_CURVE('',#565,#566,#361,.T.);
#713=EDGE_CURVE('',#566,#479,#362,.T.);
#714=EDGE_CURVE('',#567,#566,#363,.T.);
#715=EDGE_CURVE('',#472,#567,#364,.T.);
#716=EDGE_CURVE('',#568,#567,#365,.T.);
#717=EDGE_CURVE('',#473,#568,#366,.T.);
#718=EDGE_CURVE('',#568,#565,#367,.T.);
#719=ORIENTED_EDGE('',*,*,#569,.T.);
#720=ORIENTED_EDGE('',*,*,#570,.T.);
#721=ORIENTED_EDGE('',*,*,#571,.T.);
#722=ORIENTED_EDGE('',*,*,#572,.F.);
#723=ORIENTED_EDGE('',*,*,#573,.F.);
#724=ORIENTED_EDGE('',*,*,#574,.F.);
#725=ORIENTED_EDGE('',*,*,#575,.T.);
#726=ORIENTED_EDGE('',*,*,#576,.F.);
#727=ORIENTED_EDGE('',*,*,#577,.F.);
#728=ORIENTED_EDGE('',*,*,#578,.F.);
#729=ORIENTED_EDGE('',*,*,#579,.T.);
#730=ORIENTED_EDGE('',*,*,#580,.T.);
#731=ORIENTED_EDGE('',*,*,#581,.F.);
#732=ORIENTED_EDGE('',*,*,#582,.F.);
#733=ORIENTED_EDGE('',*,*,#583,.T.);
#734=ORIENTED_EDGE('',*,*,#584,.F.);
#735=ORIENTED_EDGE('',*,*,#585,.F.);
#736=ORIENTED_EDGE('',*,*,#586,.F.);
#737=ORIENTED_EDGE('',*,*,#587,.T.);
#738=ORIENTED_EDGE('',*,*,#588,.T.);
#739=ORIENTED_EDGE('',*,*,#589,.T.);
#740=ORIENTED_EDGE('',*,*,#587,.F.);
#741=ORIENTED_EDGE('',*,*,#590,.F.);
#742=ORIENTED_EDGE('',*,*,#591,.F.);
#743=ORIENTED_EDGE('',*,*,#592,.F.);
#744=ORIENTED_EDGE('',*,*,#593,.F.);
#745=ORIENTED_EDGE('',*,*,#592,.T.);
#746=ORIENTED_EDGE('',*,*,#594,.F.);
#747=ORIENTED_EDGE('',*,*,#571,.F.);
#748=ORIENTED_EDGE('',*,*,#595,.T.);
#749=ORIENTED_EDGE('',*,*,#585,.T.);
#750=ORIENTED_EDGE('',*,*,#593,.T.);
#751=ORIENTED_EDGE('',*,*,#591,.T.);
#752=ORIENTED_EDGE('',*,*,#596,.T.);
#753=ORIENTED_EDGE('',*,*,#597,.T.);
#754=ORIENTED_EDGE('',*,*,#598,.F.);
#755=ORIENTED_EDGE('',*,*,#599,.T.);
#756=ORIENTED_EDGE('',*,*,#600,.F.);
#757=ORIENTED_EDGE('',*,*,#599,.F.);
#758=ORIENTED_EDGE('',*,*,#601,.F.);
#759=ORIENTED_EDGE('',*,*,#602,.T.);
#760=ORIENTED_EDGE('',*,*,#603,.F.);
#761=ORIENTED_EDGE('',*,*,#602,.F.);
#762=ORIENTED_EDGE('',*,*,#604,.F.);
#763=ORIENTED_EDGE('',*,*,#605,.T.);
#764=ORIENTED_EDGE('',*,*,#606,.F.);
#765=ORIENTED_EDGE('',*,*,#605,.F.);
#766=ORIENTED_EDGE('',*,*,#607,.F.);
#767=ORIENTED_EDGE('',*,*,#608,.T.);
#768=ORIENTED_EDGE('',*,*,#609,.F.);
#769=ORIENTED_EDGE('',*,*,#608,.F.);
#770=ORIENTED_EDGE('',*,*,#610,.F.);
#771=ORIENTED_EDGE('',*,*,#611,.T.);
#772=ORIENTED_EDGE('',*,*,#612,.F.);
#773=ORIENTED_EDGE('',*,*,#611,.F.);
#774=ORIENTED_EDGE('',*,*,#613,.F.);
#775=ORIENTED_EDGE('',*,*,#614,.T.);
#776=ORIENTED_EDGE('',*,*,#615,.T.);
#777=ORIENTED_EDGE('',*,*,#614,.F.);
#778=ORIENTED_EDGE('',*,*,#616,.F.);
#779=ORIENTED_EDGE('',*,*,#617,.T.);
#780=ORIENTED_EDGE('',*,*,#618,.T.);
#781=ORIENTED_EDGE('',*,*,#617,.F.);
#782=ORIENTED_EDGE('',*,*,#619,.F.);
#783=ORIENTED_EDGE('',*,*,#620,.T.);
#784=ORIENTED_EDGE('',*,*,#621,.T.);
#785=ORIENTED_EDGE('',*,*,#620,.F.);
#786=ORIENTED_EDGE('',*,*,#622,.F.);
#787=ORIENTED_EDGE('',*,*,#623,.T.);
#788=ORIENTED_EDGE('',*,*,#624,.F.);
#789=ORIENTED_EDGE('',*,*,#623,.F.);
#790=ORIENTED_EDGE('',*,*,#625,.F.);
#791=ORIENTED_EDGE('',*,*,#626,.T.);
#792=ORIENTED_EDGE('',*,*,#627,.F.);
#793=ORIENTED_EDGE('',*,*,#626,.F.);
#794=ORIENTED_EDGE('',*,*,#628,.F.);
#795=ORIENTED_EDGE('',*,*,#629,.T.);
#796=ORIENTED_EDGE('',*,*,#630,.F.);
#797=ORIENTED_EDGE('',*,*,#629,.F.);
#798=ORIENTED_EDGE('',*,*,#628,.T.);
#799=ORIENTED_EDGE('',*,*,#627,.T.);
#800=ORIENTED_EDGE('',*,*,#631,.T.);
#801=ORIENTED_EDGE('',*,*,#632,.F.);
#802=ORIENTED_EDGE('',*,*,#633,.F.);
#803=ORIENTED_EDGE('',*,*,#634,.T.);
#804=ORIENTED_EDGE('',*,*,#635,.F.);
#805=ORIENTED_EDGE('',*,*,#597,.F.);
#806=ORIENTED_EDGE('',*,*,#636,.T.);
#807=ORIENTED_EDGE('',*,*,#637,.T.);
#808=ORIENTED_EDGE('',*,*,#638,.F.);
#809=ORIENTED_EDGE('',*,*,#639,.T.);
#810=ORIENTED_EDGE('',*,*,#640,.T.);
#811=ORIENTED_EDGE('',*,*,#639,.F.);
#812=ORIENTED_EDGE('',*,*,#640,.F.);
#813=ORIENTED_EDGE('',*,*,#607,.T.);
#814=ORIENTED_EDGE('',*,*,#604,.T.);
#815=ORIENTED_EDGE('',*,*,#641,.F.);
#816=ORIENTED_EDGE('',*,*,#642,.F.);
#817=ORIENTED_EDGE('',*,*,#643,.F.);
#818=ORIENTED_EDGE('',*,*,#644,.F.);
#819=ORIENTED_EDGE('',*,*,#645,.F.);
#820=ORIENTED_EDGE('',*,*,#646,.T.);
#821=ORIENTED_EDGE('',*,*,#644,.T.);
#822=ORIENTED_EDGE('',*,*,#647,.F.);
#823=ORIENTED_EDGE('',*,*,#648,.F.);
#824=ORIENTED_EDGE('',*,*,#642,.T.);
#825=ORIENTED_EDGE('',*,*,#649,.T.);
#826=ORIENTED_EDGE('',*,*,#650,.F.);
#827=ORIENTED_EDGE('',*,*,#651,.F.);
#828=ORIENTED_EDGE('',*,*,#641,.T.);
#829=ORIENTED_EDGE('',*,*,#652,.F.);
#830=ORIENTED_EDGE('',*,*,#653,.T.);
#831=ORIENTED_EDGE('',*,*,#649,.F.);
#832=ORIENTED_EDGE('',*,*,#654,.F.);
#833=ORIENTED_EDGE('',*,*,#655,.T.);
#834=ORIENTED_EDGE('',*,*,#656,.T.);
#835=ORIENTED_EDGE('',*,*,#655,.F.);
#836=ORIENTED_EDGE('',*,*,#656,.F.);
#837=ORIENTED_EDGE('',*,*,#657,.F.);
#838=ORIENTED_EDGE('',*,*,#658,.T.);
#839=ORIENTED_EDGE('',*,*,#659,.T.);
#840=ORIENTED_EDGE('',*,*,#658,.F.);
#841=ORIENTED_EDGE('',*,*,#659,.F.);
#842=ORIENTED_EDGE('',*,*,#660,.F.);
#843=ORIENTED_EDGE('',*,*,#661,.T.);
#844=ORIENTED_EDGE('',*,*,#662,.F.);
#845=ORIENTED_EDGE('',*,*,#661,.F.);
#846=ORIENTED_EDGE('',*,*,#660,.T.);
#847=ORIENTED_EDGE('',*,*,#657,.T.);
#848=ORIENTED_EDGE('',*,*,#663,.F.);
#849=ORIENTED_EDGE('',*,*,#664,.F.);
#850=ORIENTED_EDGE('',*,*,#665,.T.);
#851=ORIENTED_EDGE('',*,*,#666,.F.);
#852=ORIENTED_EDGE('',*,*,#667,.F.);
#853=ORIENTED_EDGE('',*,*,#583,.F.);
#854=ORIENTED_EDGE('',*,*,#668,.F.);
#855=ORIENTED_EDGE('',*,*,#650,.T.);
#856=ORIENTED_EDGE('',*,*,#653,.F.);
#857=ORIENTED_EDGE('',*,*,#601,.T.);
#858=ORIENTED_EDGE('',*,*,#598,.T.);
#859=ORIENTED_EDGE('',*,*,#669,.F.);
#860=ORIENTED_EDGE('',*,*,#624,.T.);
#861=ORIENTED_EDGE('',*,*,#589,.F.);
#862=ORIENTED_EDGE('',*,*,#588,.F.);
#863=ORIENTED_EDGE('',*,*,#670,.T.);
#864=ORIENTED_EDGE('',*,*,#669,.T.);
#865=ORIENTED_EDGE('',*,*,#670,.F.);
#866=ORIENTED_EDGE('',*,*,#671,.F.);
#867=ORIENTED_EDGE('',*,*,#580,.F.);
#868=ORIENTED_EDGE('',*,*,#672,.T.);
#869=ORIENTED_EDGE('',*,*,#671,.T.);
#870=ORIENTED_EDGE('',*,*,#672,.F.);
#871=ORIENTED_EDGE('',*,*,#673,.F.);
#872=ORIENTED_EDGE('',*,*,#674,.T.);
#873=ORIENTED_EDGE('',*,*,#675,.F.);
#874=ORIENTED_EDGE('',*,*,#674,.F.);
#875=ORIENTED_EDGE('',*,*,#665,.F.);
#876=ORIENTED_EDGE('',*,*,#676,.F.);
#877=ORIENTED_EDGE('',*,*,#636,.F.);
#878=ORIENTED_EDGE('',*,*,#596,.F.);
#879=ORIENTED_EDGE('',*,*,#590,.T.);
#880=ORIENTED_EDGE('',*,*,#586,.T.);
#881=ORIENTED_EDGE('',*,*,#595,.F.);
#882=ORIENTED_EDGE('',*,*,#570,.F.);
#883=ORIENTED_EDGE('',*,*,#677,.F.);
#884=ORIENTED_EDGE('',*,*,#634,.F.);
#885=ORIENTED_EDGE('',*,*,#678,.F.);
#886=ORIENTED_EDGE('',*,*,#621,.F.);
#887=ORIENTED_EDGE('',*,*,#618,.F.);
#888=ORIENTED_EDGE('',*,*,#615,.F.);
#889=ORIENTED_EDGE('',*,*,#630,.T.);
#890=ORIENTED_EDGE('',*,*,#666,.T.);
#891=ORIENTED_EDGE('',*,*,#678,.T.);
#892=ORIENTED_EDGE('',*,*,#633,.T.);
#893=ORIENTED_EDGE('',*,*,#679,.F.);
#894=ORIENTED_EDGE('',*,*,#680,.F.);
#895=ORIENTED_EDGE('',*,*,#648,.T.);
#896=ORIENTED_EDGE('',*,*,#681,.F.);
#897=ORIENTED_EDGE('',*,*,#663,.T.);
#898=ORIENTED_EDGE('',*,*,#679,.T.);
#899=ORIENTED_EDGE('',*,*,#632,.T.);
#900=ORIENTED_EDGE('',*,*,#682,.T.);
#901=ORIENTED_EDGE('',*,*,#579,.F.);
#902=ORIENTED_EDGE('',*,*,#662,.T.);
#903=ORIENTED_EDGE('',*,*,#654,.T.);
#904=ORIENTED_EDGE('',*,*,#638,.T.);
#905=ORIENTED_EDGE('',*,*,#673,.T.);
#906=ORIENTED_EDGE('',*,*,#683,.F.);
#907=ORIENTED_EDGE('',*,*,#684,.F.);
#908=ORIENTED_EDGE('',*,*,#685,.F.);
#909=ORIENTED_EDGE('',*,*,#686,.F.);
#910=ORIENTED_EDGE('',*,*,#613,.T.);
#911=ORIENTED_EDGE('',*,*,#619,.T.);
#912=ORIENTED_EDGE('',*,*,#625,.T.);
#913=ORIENTED_EDGE('',*,*,#622,.T.);
#914=ORIENTED_EDGE('',*,*,#616,.T.);
#915=ORIENTED_EDGE('',*,*,#687,.F.);
#916=ORIENTED_EDGE('',*,*,#572,.T.);
#917=ORIENTED_EDGE('',*,*,#688,.F.);
#918=ORIENTED_EDGE('',*,*,#684,.T.);
#919=ORIENTED_EDGE('',*,*,#689,.T.);
#920=ORIENTED_EDGE('',*,*,#685,.T.);
#921=ORIENTED_EDGE('',*,*,#688,.T.);
#922=ORIENTED_EDGE('',*,*,#594,.T.);
#923=ORIENTED_EDGE('',*,*,#690,.F.);
#924=ORIENTED_EDGE('',*,*,#686,.T.);
#925=ORIENTED_EDGE('',*,*,#690,.T.);
#926=ORIENTED_EDGE('',*,*,#635,.T.);
#927=ORIENTED_EDGE('',*,*,#691,.F.);
#928=ORIENTED_EDGE('',*,*,#692,.F.);
#929=ORIENTED_EDGE('',*,*,#693,.F.);
#930=ORIENTED_EDGE('',*,*,#694,.F.);
#931=ORIENTED_EDGE('',*,*,#695,.F.);
#932=ORIENTED_EDGE('',*,*,#603,.T.);
#933=ORIENTED_EDGE('',*,*,#609,.T.);
#934=ORIENTED_EDGE('',*,*,#675,.T.);
#935=ORIENTED_EDGE('',*,*,#606,.T.);
#936=ORIENTED_EDGE('',*,*,#600,.T.);
#937=ORIENTED_EDGE('',*,*,#696,.F.);
#938=ORIENTED_EDGE('',*,*,#584,.T.);
#939=ORIENTED_EDGE('',*,*,#667,.T.);
#940=ORIENTED_EDGE('',*,*,#652,.T.);
#941=ORIENTED_EDGE('',*,*,#645,.T.);
#942=ORIENTED_EDGE('',*,*,#646,.F.);
#943=ORIENTED_EDGE('',*,*,#680,.T.);
#944=ORIENTED_EDGE('',*,*,#578,.T.);
#945=ORIENTED_EDGE('',*,*,#697,.F.);
#946=ORIENTED_EDGE('',*,*,#698,.F.);
#947=ORIENTED_EDGE('',*,*,#693,.T.);
#948=ORIENTED_EDGE('',*,*,#699,.T.);
#949=ORIENTED_EDGE('',*,*,#577,.T.);
#950=ORIENTED_EDGE('',*,*,#695,.T.);
#951=ORIENTED_EDGE('',*,*,#700,.T.);
#952=ORIENTED_EDGE('',*,*,#581,.T.);
#953=ORIENTED_EDGE('',*,*,#701,.F.);
#954=ORIENTED_EDGE('',*,*,#692,.T.);
#955=ORIENTED_EDGE('',*,*,#701,.T.);
#956=ORIENTED_EDGE('',*,*,#696,.T.);
#957=ORIENTED_EDGE('',*,*,#699,.F.);
#958=ORIENTED_EDGE('',*,*,#702,.F.);
#959=ORIENTED_EDGE('',*,*,#689,.F.);
#960=ORIENTED_EDGE('',*,*,#683,.T.);
#961=ORIENTED_EDGE('',*,*,#691,.T.);
#962=ORIENTED_EDGE('',*,*,#703,.T.);
#963=ORIENTED_EDGE('',*,*,#704,.F.);
#964=ORIENTED_EDGE('',*,*,#703,.F.);
#965=ORIENTED_EDGE('',*,*,#637,.F.);
#966=ORIENTED_EDGE('',*,*,#676,.T.);
#967=ORIENTED_EDGE('',*,*,#664,.T.);
#968=ORIENTED_EDGE('',*,*,#681,.T.);
#969=ORIENTED_EDGE('',*,*,#647,.T.);
#970=ORIENTED_EDGE('',*,*,#643,.T.);
#971=ORIENTED_EDGE('',*,*,#651,.T.);
#972=ORIENTED_EDGE('',*,*,#668,.T.);
#973=ORIENTED_EDGE('',*,*,#582,.T.);
#974=ORIENTED_EDGE('',*,*,#705,.F.);
#975=ORIENTED_EDGE('',*,*,#610,.T.);
#976=ORIENTED_EDGE('',*,*,#706,.F.);
#977=ORIENTED_EDGE('',*,*,#705,.T.);
#978=ORIENTED_EDGE('',*,*,#700,.F.);
#979=ORIENTED_EDGE('',*,*,#694,.T.);
#980=ORIENTED_EDGE('',*,*,#698,.T.);
#981=ORIENTED_EDGE('',*,*,#702,.T.);
#982=ORIENTED_EDGE('',*,*,#704,.T.);
#983=ORIENTED_EDGE('',*,*,#706,.T.);
#984=ORIENTED_EDGE('',*,*,#697,.T.);
#985=ORIENTED_EDGE('',*,*,#576,.T.);
#986=ORIENTED_EDGE('',*,*,#707,.T.);
#987=ORIENTED_EDGE('',*,*,#573,.T.);
#988=ORIENTED_EDGE('',*,*,#687,.T.);
#989=ORIENTED_EDGE('',*,*,#708,.F.);
#990=ORIENTED_EDGE('',*,*,#709,.T.);
#991=ORIENTED_EDGE('',*,*,#710,.F.);
#992=ORIENTED_EDGE('',*,*,#709,.F.);
#993=ORIENTED_EDGE('',*,*,#575,.F.);
#994=ORIENTED_EDGE('',*,*,#711,.T.);
#995=ORIENTED_EDGE('',*,*,#712,.T.);
#996=ORIENTED_EDGE('',*,*,#713,.T.);
#997=ORIENTED_EDGE('',*,*,#707,.F.);
#998=ORIENTED_EDGE('',*,*,#713,.F.);
#999=ORIENTED_EDGE('',*,*,#714,.F.);
#1000=ORIENTED_EDGE('',*,*,#715,.F.);
#1001=ORIENTED_EDGE('',*,*,#708,.T.);
#1002=ORIENTED_EDGE('',*,*,#569,.F.);
#1003=ORIENTED_EDGE('',*,*,#715,.T.);
#1004=ORIENTED_EDGE('',*,*,#716,.F.);
#1005=ORIENTED_EDGE('',*,*,#717,.F.);
#1006=ORIENTED_EDGE('',*,*,#718,.F.);
#1007=ORIENTED_EDGE('',*,*,#716,.T.);
#1008=ORIENTED_EDGE('',*,*,#714,.T.);
#1009=ORIENTED_EDGE('',*,*,#712,.F.);
#1010=ORIENTED_EDGE('',*,*,#574,.T.);
#1011=ORIENTED_EDGE('',*,*,#682,.F.);
#1012=ORIENTED_EDGE('',*,*,#631,.F.);
#1013=ORIENTED_EDGE('',*,*,#677,.T.);
#1014=ORIENTED_EDGE('',*,*,#717,.T.);
#1015=ORIENTED_EDGE('',*,*,#718,.T.);
#1016=ORIENTED_EDGE('',*,*,#711,.F.);
#1017=ORIENTED_EDGE('',*,*,#612,.T.);
#1018=ORIENTED_EDGE('',*,*,#710,.T.);
#1019=PLANE('',#1138);
#1020=PLANE('',#1139);
#1021=PLANE('',#1141);
#1022=PLANE('',#1148);
#1023=PLANE('',#1149);
#1024=PLANE('',#1183);
#1025=PLANE('',#1184);
#1026=PLANE('',#1185);
#1027=PLANE('',#1189);
#1028=PLANE('',#1190);
#1029=PLANE('',#1191);
#1030=PLANE('',#1192);
#1031=PLANE('',#1193);
#1032=PLANE('',#1194);
#1033=PLANE('',#1195);
#1034=PLANE('',#1199);
#1035=PLANE('',#1203);
#1036=PLANE('',#1207);
#1037=PLANE('',#1208);
#1038=PLANE('',#1209);
#1039=PLANE('',#1210);
#1040=PLANE('',#1213);
#1041=PLANE('',#1219);
#1042=PLANE('',#1220);
#1043=PLANE('',#1221);
#1044=PLANE('',#1222);
#1045=PLANE('',#1223);
#1046=PLANE('',#1225);
#1047=PLANE('',#1226);
#1048=PLANE('',#1227);
#1049=PLANE('',#1228);
#1050=PLANE('',#1229);
#1051=PLANE('',#1231);
#1052=PLANE('',#1232);
#1053=PLANE('',#1233);
#1054=PLANE('',#1235);
#1055=PLANE('',#1236);
#1056=PLANE('',#1242);
#1057=PLANE('',#1243);
#1058=PLANE('',#1244);
#1059=PLANE('',#1245);
#1060=PLANE('',#1246);
#1061=ADVANCED_FACE('',(#110),#1019,.F.);
#1062=ADVANCED_FACE('',(#111,#40),#1020,.F.);
#1063=ADVANCED_FACE('',(#112),#1021,.F.);
#1064=ADVANCED_FACE('',(#113),#19,.T.);
#1065=ADVANCED_FACE('',(#114),#1022,.T.);
#1066=ADVANCED_FACE('',(#115),#1023,.T.);
#1067=ADVANCED_FACE('',(#116),#20,.F.);
#1068=ADVANCED_FACE('',(#117),#21,.F.);
#1069=ADVANCED_FACE('',(#118),#22,.F.);
#1070=ADVANCED_FACE('',(#119),#23,.F.);
#1071=ADVANCED_FACE('',(#120),#24,.F.);
#1072=ADVANCED_FACE('',(#121),#25,.F.);
#1073=ADVANCED_FACE('',(#122),#26,.F.);
#1074=ADVANCED_FACE('',(#123),#27,.F.);
#1075=ADVANCED_FACE('',(#124),#28,.F.);
#1076=ADVANCED_FACE('',(#125),#29,.F.);
#1077=ADVANCED_FACE('',(#126),#30,.T.);
#1078=ADVANCED_FACE('',(#127,#41),#1024,.T.);
#1079=ADVANCED_FACE('',(#128),#1025,.T.);
#1080=ADVANCED_FACE('',(#129),#1026,.F.);
#1081=ADVANCED_FACE('',(#130),#31,.F.);
#1082=ADVANCED_FACE('',(#131),#1027,.T.);
#1083=ADVANCED_FACE('',(#132),#1028,.T.);
#1084=ADVANCED_FACE('',(#133),#1029,.T.);
#1085=ADVANCED_FACE('',(#134),#1030,.T.);
#1086=ADVANCED_FACE('',(#135),#1031,.T.);
#1087=ADVANCED_FACE('',(#136),#1032,.F.);
#1088=ADVANCED_FACE('',(#137),#1033,.F.);
#1089=ADVANCED_FACE('',(#138),#32,.F.);
#1090=ADVANCED_FACE('',(#139),#1034,.T.);
#1091=ADVANCED_FACE('',(#140),#33,.F.);
#1092=ADVANCED_FACE('',(#141),#1035,.T.);
#1093=ADVANCED_FACE('',(#142),#34,.T.);
#1094=ADVANCED_FACE('',(#143,#42),#1036,.T.);
#1095=ADVANCED_FACE('',(#144),#1037,.T.);
#1096=ADVANCED_FACE('',(#145,#43,#44),#1038,.T.);
#1097=ADVANCED_FACE('',(#146,#45),#1039,.T.);
#1098=ADVANCED_FACE('',(#147),#35,.T.);
#1099=ADVANCED_FACE('',(#148),#1040,.F.);
#1100=ADVANCED_FACE('',(#149),#36,.F.);
#1101=ADVANCED_FACE('',(#150),#37,.F.);
#1102=ADVANCED_FACE('',(#151,#46,#47,#48,#49),#1041,.F.);
#1103=ADVANCED_FACE('',(#152),#1042,.T.);
#1104=ADVANCED_FACE('',(#153,#50,#51,#52,#53),#1043,.F.);
#1105=ADVANCED_FACE('',(#154,#54,#55,#56,#57,#58),#1044,.T.);
#1106=ADVANCED_FACE('',(#155),#1045,.T.);
#1107=ADVANCED_FACE('',(#156),#1046,.T.);
#1108=ADVANCED_FACE('',(#157),#1047,.T.);
#1109=ADVANCED_FACE('',(#158,#59,#60,#61,#62,#63),#1048,.F.);
#1110=ADVANCED_FACE('',(#159),#1049,.T.);
#1111=ADVANCED_FACE('',(#160),#1050,.T.);
#1112=ADVANCED_FACE('',(#161),#1051,.T.);
#1113=ADVANCED_FACE('',(#162),#1052,.T.);
#1114=ADVANCED_FACE('',(#163),#1053,.T.);
#1115=ADVANCED_FACE('',(#164,#64),#1054,.F.);
#1116=ADVANCED_FACE('',(#165),#1055,.T.);
#1117=ADVANCED_FACE('',(#166),#38,.T.);
#1118=ADVANCED_FACE('',(#167),#39,.F.);
#1119=ADVANCED_FACE('',(#168),#1056,.T.);
#1120=ADVANCED_FACE('',(#169,#65),#1057,.T.);
#1121=ADVANCED_FACE('',(#170),#1058,.T.);
#1122=ADVANCED_FACE('',(#171),#1059,.T.);
#1123=ADVANCED_FACE('',(#172,#66,#67),#1060,.T.);
#1124=CLOSED_SHELL('',(#1061,#1062,#1063,#1064,#1065,#1066,#1067,#1068,
#1069,#1070,#1071,#1072,#1073,#1074,#1075,#1076,#1077,#1078,#1079,#1080,
#1081,#1082,#1083,#1084,#1085,#1086,#1087,#1088,#1089,#1090,#1091,#1092,
#1093,#1094,#1095,#1096,#1097,#1098,#1099,#1100,#1101,#1102,#1103,#1104,
#1105,#1106,#1107,#1108,#1109,#1110,#1111,#1112,#1113,#1114,#1115,#1116,
#1117,#1118,#1119,#1120,#1121,#1122,#1123));
#1125=DERIVED_UNIT_ELEMENT(#1127,1.);
#1126=DERIVED_UNIT_ELEMENT(#1887,-3.);
#1127=(
MASS_UNIT()
NAMED_UNIT(*)
SI_UNIT(.KILO.,.GRAM.)
);
#1128=DERIVED_UNIT((#1125,#1126));
#1129=MEASURE_REPRESENTATION_ITEM('density measure',
POSITIVE_RATIO_MEASURE(7850.),#1128);
#1130=PROPERTY_DEFINITION_REPRESENTATION(#1135,#1132);
#1131=PROPERTY_DEFINITION_REPRESENTATION(#1136,#1133);
#1132=REPRESENTATION('material name',(#1134),#1884);
#1133=REPRESENTATION('density',(#1129),#1884);
#1134=DESCRIPTIVE_REPRESENTATION_ITEM('Steel','Steel');
#1135=PROPERTY_DEFINITION('material property','material name',#1894);
#1136=PROPERTY_DEFINITION('material property','density of part',#1894);
#1137=AXIS2_PLACEMENT_3D('',#1571,#1247,#1248);
#1138=AXIS2_PLACEMENT_3D('',#1572,#1249,#1250);
#1139=AXIS2_PLACEMENT_3D('',#1583,#1256,#1257);
#1140=AXIS2_PLACEMENT_3D('',#1597,#1264,#1265);
#1141=AXIS2_PLACEMENT_3D('',#1598,#1266,#1267);
#1142=AXIS2_PLACEMENT_3D('',#1607,#1272,#1273);
#1143=AXIS2_PLACEMENT_3D('',#1612,#1275,#1276);
#1144=AXIS2_PLACEMENT_3D('',#1616,#1278,#1279);
#1145=AXIS2_PLACEMENT_3D('',#1617,#1280,#1281);
#1146=AXIS2_PLACEMENT_3D('',#1619,#1282,#1283);
#1147=AXIS2_PLACEMENT_3D('',#1622,#1285,#1286);
#1148=AXIS2_PLACEMENT_3D('',#1623,#1287,#1288);
#1149=AXIS2_PLACEMENT_3D('',#1625,#1290,#1291);
#1150=AXIS2_PLACEMENT_3D('',#1632,#1296,#1297);
#1151=AXIS2_PLACEMENT_3D('',#1634,#1298,#1299);
#1152=AXIS2_PLACEMENT_3D('',#1637,#1301,#1302);
#1153=AXIS2_PLACEMENT_3D('',#1638,#1303,#1304);
#1154=AXIS2_PLACEMENT_3D('',#1640,#1305,#1306);
#1155=AXIS2_PLACEMENT_3D('',#1643,#1308,#1309);
#1156=AXIS2_PLACEMENT_3D('',#1644,#1310,#1311);
#1157=AXIS2_PLACEMENT_3D('',#1646,#1312,#1313);
#1158=AXIS2_PLACEMENT_3D('',#1649,#1315,#1316);
#1159=AXIS2_PLACEMENT_3D('',#1650,#1317,#1318);
#1160=AXIS2_PLACEMENT_3D('',#1652,#1319,#1320);
#1161=AXIS2_PLACEMENT_3D('',#1655,#1322,#1323);
#1162=AXIS2_PLACEMENT_3D('',#1656,#1324,#1325);
#1163=AXIS2_PLACEMENT_3D('',#1658,#1326,#1327);
#1164=AXIS2_PLACEMENT_3D('',#1661,#1329,#1330);
#1165=AXIS2_PLACEMENT_3D('',#1662,#1331,#1332);
#1166=AXIS2_PLACEMENT_3D('',#1664,#1333,#1334);
#1167=AXIS2_PLACEMENT_3D('',#1667,#1336,#1337);
#1168=AXIS2_PLACEMENT_3D('',#1668,#1338,#1339);
#1169=AXIS2_PLACEMENT_3D('',#1670,#1340,#1341);
#1170=AXIS2_PLACEMENT_3D('',#1673,#1343,#1344);
#1171=AXIS2_PLACEMENT_3D('',#1674,#1345,#1346);
#1172=AXIS2_PLACEMENT_3D('',#1676,#1347,#1348);
#1173=AXIS2_PLACEMENT_3D('',#1679,#1350,#1351);
#1174=AXIS2_PLACEMENT_3D('',#1680,#1352,#1353);
#1175=AXIS2_PLACEMENT_3D('',#1682,#1354,#1355);
#1176=AXIS2_PLACEMENT_3D('',#1685,#1357,#1358);
#1177=AXIS2_PLACEMENT_3D('',#1686,#1359,#1360);
#1178=AXIS2_PLACEMENT_3D('',#1688,#1361,#1362);
#1179=AXIS2_PLACEMENT_3D('',#1691,#1364,#1365);
#1180=AXIS2_PLACEMENT_3D('',#1692,#1366,#1367);
#1181=AXIS2_PLACEMENT_3D('',#1694,#1368,#1369);
#1182=AXIS2_PLACEMENT_3D('',#1697,#1371,#1372);
#1183=AXIS2_PLACEMENT_3D('',#1698,#1373,#1374);
#1184=AXIS2_PLACEMENT_3D('',#1699,#1375,#1376);
#1185=AXIS2_PLACEMENT_3D('',#1708,#1381,#1382);
#1186=AXIS2_PLACEMENT_3D('',#1714,#1386,#1387);
#1187=AXIS2_PLACEMENT_3D('',#1716,#1388,#1389);
#1188=AXIS2_PLACEMENT_3D('',#1719,#1391,#1392);
#1189=AXIS2_PLACEMENT_3D('',#1720,#1393,#1394);
#1190=AXIS2_PLACEMENT_3D('',#1721,#1395,#1396);
#1191=AXIS2_PLACEMENT_3D('',#1722,#1397,#1398);
#1192=AXIS2_PLACEMENT_3D('',#1723,#1399,#1400);
#1193=AXIS2_PLACEMENT_3D('',#1734,#1406,#1407);
#1194=AXIS2_PLACEMENT_3D('',#1740,#1411,#1412);
#1195=AXIS2_PLACEMENT_3D('',#1746,#1416,#1417);
#1196=AXIS2_PLACEMENT_3D('',#1750,#1420,#1421);
#1197=AXIS2_PLACEMENT_3D('',#1752,#1422,#1423);
#1198=AXIS2_PLACEMENT_3D('',#1755,#1425,#1426);
#1199=AXIS2_PLACEMENT_3D('',#1756,#1427,#1428);
#1200=AXIS2_PLACEMENT_3D('',#1757,#1429,#1430);
#1201=AXIS2_PLACEMENT_3D('',#1759,#1431,#1432);
#1202=AXIS2_PLACEMENT_3D('',#1762,#1434,#1435);
#1203=AXIS2_PLACEMENT_3D('',#1763,#1436,#1437);
#1204=AXIS2_PLACEMENT_3D('',#1764,#1438,#1439);
#1205=AXIS2_PLACEMENT_3D('',#1766,#1440,#1441);
#1206=AXIS2_PLACEMENT_3D('',#1769,#1443,#1444);
#1207=AXIS2_PLACEMENT_3D('',#1770,#1445,#1446);
#1208=AXIS2_PLACEMENT_3D('',#1771,#1447,#1448);
#1209=AXIS2_PLACEMENT_3D('',#1780,#1453,#1454);
#1210=AXIS2_PLACEMENT_3D('',#1783,#1457,#1458);
#1211=AXIS2_PLACEMENT_3D('',#1785,#1459,#1460);
#1212=AXIS2_PLACEMENT_3D('',#1786,#1461,#1462);
#1213=AXIS2_PLACEMENT_3D('',#1788,#1464,#1465);
#1214=AXIS2_PLACEMENT_3D('',#1790,#1466,#1467);
#1215=AXIS2_PLACEMENT_3D('',#1791,#1468,#1469);
#1216=AXIS2_PLACEMENT_3D('',#1793,#1471,#1472);
#1217=AXIS2_PLACEMENT_3D('',#1795,#1473,#1474);
#1218=AXIS2_PLACEMENT_3D('',#1798,#1476,#1477);
#1219=AXIS2_PLACEMENT_3D('',#1799,#1478,#1479);
#1220=AXIS2_PLACEMENT_3D('',#1803,#1483,#1484);
#1221=AXIS2_PLACEMENT_3D('',#1805,#1486,#1487);
#1222=AXIS2_PLACEMENT_3D('',#1809,#1491,#1492);
#1223=AXIS2_PLACEMENT_3D('',#1818,#1497,#1498);
#1224=AXIS2_PLACEMENT_3D('',#1820,#1499,#1500);
#1225=AXIS2_PLACEMENT_3D('',#1823,#1503,#1504);
#1226=AXIS2_PLACEMENT_3D('',#1825,#1506,#1507);
#1227=AXIS2_PLACEMENT_3D('',#1827,#1509,#1510);
#1228=AXIS2_PLACEMENT_3D('',#1836,#1515,#1516);
#1229=AXIS2_PLACEMENT_3D('',#1838,#1518,#1519);
#1230=AXIS2_PLACEMENT_3D('',#1840,#1520,#1521);
#1231=AXIS2_PLACEMENT_3D('',#1843,#1524,#1525);
#1232=AXIS2_PLACEMENT_3D('',#1846,#1528,#1529);
#1233=AXIS2_PLACEMENT_3D('',#1847,#1530,#1531);
#1234=AXIS2_PLACEMENT_3D('',#1849,#1532,#1533);
#1235=AXIS2_PLACEMENT_3D('',#1851,#1535,#1536);
#1236=AXIS2_PLACEMENT_3D('',#1855,#1539,#1540);
#1237=AXIS2_PLACEMENT_3D('',#1856,#1541,#1542);
#1238=AXIS2_PLACEMENT_3D('',#1857,#1543,#1544);
#1239=AXIS2_PLACEMENT_3D('',#1859,#1546,#1547);
#1240=AXIS2_PLACEMENT_3D('',#1861,#1548,#1549);
#1241=AXIS2_PLACEMENT_3D('',#1864,#1551,#1552);
#1242=AXIS2_PLACEMENT_3D('',#1865,#1553,#1554);
#1243=AXIS2_PLACEMENT_3D('',#1871,#1558,#1559);
#1244=AXIS2_PLACEMENT_3D('',#1875,#1562,#1563);
#1245=AXIS2_PLACEMENT_3D('',#1879,#1566,#1567);
#1246=AXIS2_PLACEMENT_3D('',#1881,#1569,#1570);
#1247=DIRECTION('axis',(0.,0.,1.));
#1248=DIRECTION('refdir',(1.,0.,0.));
#1249=DIRECTION('center_axis',(-1.,0.,0.));
#1250=DIRECTION('ref_axis',(0.,0.,1.));
#1251=DIRECTION('',(0.,0.707106781186548,0.707106781186548));
#1252=DIRECTION('',(0.,0.70710678118655,0.707106781186545));
#1253=DIRECTION('',(0.,-0.707106781186548,0.707106781186548));
#1254=DIRECTION('',(0.,0.70710678118655,0.707106781186545));
#1255=DIRECTION('',(0.,-0.707106781186548,0.707106781186548));
#1256=DIRECTION('center_axis',(-1.,0.,0.));
#1257=DIRECTION('ref_axis',(0.,0.,1.));
#1258=DIRECTION('',(0.,-0.707106781186545,0.70710678118655));
#1259=DIRECTION('',(0.,-0.707106781186548,-0.707106781186548));
#1260=DIRECTION('',(0.,-0.707106781186548,0.707106781186548));
#1261=DIRECTION('',(0.,-0.70710678118655,-0.707106781186545));
#1262=DIRECTION('',(0.,0.707106781186547,-0.707106781186547));
#1263=DIRECTION('',(0.,-0.70710678118655,-0.707106781186545));
#1264=DIRECTION('center_axis',(-1.,0.,0.));
#1265=DIRECTION('ref_axis',(0.,2.73691106313441E-48,-1.));
#1266=DIRECTION('center_axis',(1.,7.7503514673546E-18,7.7503514673546E-18));
#1267=DIRECTION('ref_axis',(1.09606521582911E-17,-0.70710678118655,-0.707106781186545));
#1268=DIRECTION('',(-1.09606521582911E-17,0.70710678118655,0.707106781186545));
#1269=DIRECTION('',(0.,0.707106781186547,-0.707106781186547));
#1270=DIRECTION('',(-1.09606521582911E-17,0.70710678118655,0.707106781186545));
#1271=DIRECTION('',(-1.30963236218332E-32,-0.707106781186547,0.707106781186548));
#1272=DIRECTION('center_axis',(0.,-0.707106781088774,0.707106781284321));
#1273=DIRECTION('ref_axis',(1.,-5.84533372384547E-16,-5.84533372222897E-16));
#1274=DIRECTION('',(0.,-0.707106781088774,0.707106781284321));
#1275=DIRECTION('center_axis',(1.0960652158291E-17,-0.707106781186545,0.70710678118655));
#1276=DIRECTION('ref_axis',(1.,-5.76783020837441E-16,-5.92283723772146E-16));
#1277=DIRECTION('',(0.,0.707106781088773,-0.707106781284321));
#1278=DIRECTION('center_axis',(1.99572176804525E-15,-0.707106781186542,
0.707106781186553));
#1279=DIRECTION('ref_axis',(1.,8.26655023047545E-16,-1.99572176804525E-15));
#1280=DIRECTION('center_axis',(1.99572176804525E-15,-0.707106781186542,
0.707106781186553));
#1281=DIRECTION('ref_axis',(1.,8.26655023047545E-16,-1.99572176804525E-15));
#1282=DIRECTION('center_axis',(1.0960652158291E-17,-0.707106781186545,0.70710678118655));
#1283=DIRECTION('ref_axis',(1.,-5.76783020837441E-16,-5.92283723772146E-16));
#1284=DIRECTION('',(0.,0.707106781088774,-0.707106781284321));
#1285=DIRECTION('center_axis',(1.99572176804525E-15,-0.707106781186542,
0.707106781186553));
#1286=DIRECTION('ref_axis',(1.,8.26655023047545E-16,-1.99572176804525E-15));
#1287=DIRECTION('center_axis',(1.99572176804525E-15,-0.707106781186542,
0.707106781186553));
#1288=DIRECTION('ref_axis',(1.,8.26655023047545E-16,-1.99572176804525E-15));
#1289=DIRECTION('',(-1.,-1.4111883955464E-15,1.4111883955464E-15));
#1290=DIRECTION('center_axis',(0.,0.707106781186548,0.707106781186547));
#1291=DIRECTION('ref_axis',(1.,0.,0.));
#1292=DIRECTION('',(-1.,-7.75035146735454E-18,7.75035146735456E-18));
#1293=DIRECTION('',(-1.,-7.75035146735454E-18,7.75035146735456E-18));
#1294=DIRECTION('',(-1.,-7.75035146735454E-18,7.75035146735456E-18));
#1295=DIRECTION('',(0.,-0.707106781186548,0.707106781186548));
#1296=DIRECTION('center_axis',(0.,0.707106781186545,-0.70710678118655));
#1297=DIRECTION('ref_axis',(-1.,0.,0.));
#1298=DIRECTION('center_axis',(-1.0960652158291E-17,0.707106781186545,-0.70710678118655));
#1299=DIRECTION('ref_axis',(-1.,0.,0.));
#1300=DIRECTION('',(0.,0.707106781186545,-0.70710678118655));
#1301=DIRECTION('center_axis',(1.0960652158291E-17,-0.707106781186545,0.70710678118655));
#1302=DIRECTION('ref_axis',(-1.,0.,0.));
#1303=DIRECTION('center_axis',(0.,0.707106781186545,-0.70710678118655));
#1304=DIRECTION('ref_axis',(-1.,0.,0.));
#1305=DIRECTION('center_axis',(-1.0960652158291E-17,0.707106781186545,-0.70710678118655));
#1306=DIRECTION('ref_axis',(-1.,0.,0.));
#1307=DIRECTION('',(0.,0.707106781186545,-0.70710678118655));
#1308=DIRECTION('center_axis',(1.0960652158291E-17,-0.707106781186545,0.70710678118655));
#1309=DIRECTION('ref_axis',(-1.,0.,0.));
#1310=DIRECTION('center_axis',(0.,0.707106781186548,-0.707106781186548));
#1311=DIRECTION('ref_axis',(-1.,-2.39475631942092E-30,-2.11302028184199E-30));
#1312=DIRECTION('center_axis',(9.24724468059749E-16,0.707106781186544,-0.707106781186551));
#1313=DIRECTION('ref_axis',(-1.,6.72896768007327E-16,-6.72896768007332E-16));
#1314=DIRECTION('',(0.,0.707106781186547,-0.707106781186547));
#1315=DIRECTION('center_axis',(1.0960652158291E-17,-0.707106781186545,0.70710678118655));
#1316=DIRECTION('ref_axis',(-1.,-2.39475631942092E-30,-2.11302028184199E-30));
#1317=DIRECTION('center_axis',(0.,0.707106781186548,-0.707106781186548));
#1318=DIRECTION('ref_axis',(-1.,-2.39475631942092E-30,-2.11302028184199E-30));
#1319=DIRECTION('center_axis',(9.24724468059749E-16,0.707106781186544,-0.707106781186551));
#1320=DIRECTION('ref_axis',(-1.,6.72896768007327E-16,-6.72896768007332E-16));
#1321=DIRECTION('',(0.,0.707106781186547,-0.707106781186547));
#1322=DIRECTION('center_axis',(1.0960652158291E-17,-0.707106781186545,0.70710678118655));
#1323=DIRECTION('ref_axis',(-1.,-2.39475631942092E-30,-2.11302028184199E-30));
#1324=DIRECTION('center_axis',(0.,0.707106781186548,0.707106781186547));
#1325=DIRECTION('ref_axis',(1.,0.,0.));
#1326=DIRECTION('center_axis',(0.,0.707106781186548,0.707106781186548));
#1327=DIRECTION('ref_axis',(1.,0.,0.));
#1328=DIRECTION('',(0.,0.707106781186548,0.707106781186547));
#1329=DIRECTION('center_axis',(-4.93038065763132E-32,-0.70710678118655,
-0.707106781186545));
#1330=DIRECTION('ref_axis',(1.,0.,0.));
#1331=DIRECTION('center_axis',(0.,0.707106781186546,-0.70710678118655));
#1332=DIRECTION('ref_axis',(1.,0.,0.));
#1333=DIRECTION('center_axis',(-1.0960652158291E-17,0.707106781186545,-0.70710678118655));
#1334=DIRECTION('ref_axis',(1.,0.,0.));
#1335=DIRECTION('',(0.,0.707106781186546,-0.70710678118655));
#1336=DIRECTION('center_axis',(-1.0960652158291E-17,0.707106781186545,-0.70710678118655));
#1337=DIRECTION('ref_axis',(1.,0.,0.));
#1338=DIRECTION('center_axis',(0.,0.707106781186546,-0.70710678118655));
#1339=DIRECTION('ref_axis',(1.,0.,0.));
#1340=DIRECTION('center_axis',(-1.0960652158291E-17,0.707106781186545,-0.70710678118655));
#1341=DIRECTION('ref_axis',(1.,0.,0.));
#1342=DIRECTION('',(0.,0.707106781186546,-0.70710678118655));
#1343=DIRECTION('center_axis',(-1.0960652158291E-17,0.707106781186545,-0.70710678118655));
#1344=DIRECTION('ref_axis',(1.,0.,0.));
#1345=DIRECTION('center_axis',(0.,0.707106781186546,-0.707106781186549));
#1346=DIRECTION('ref_axis',(1.,0.,0.));
#1347=DIRECTION('center_axis',(-1.0960652158291E-17,0.707106781186545,-0.70710678118655));
#1348=DIRECTION('ref_axis',(1.,0.,0.));
#1349=DIRECTION('',(0.,0.707106781186546,-0.707106781186549));
#1350=DIRECTION('center_axis',(-1.0960652158291E-17,0.707106781186545,-0.70710678118655));
#1351=DIRECTION('ref_axis',(1.,0.,0.));
#1352=DIRECTION('center_axis',(0.,0.707106781186545,-0.70710678118655));
#1353=DIRECTION('ref_axis',(1.,0.,0.));
#1354=DIRECTION('center_axis',(-1.0960652158291E-17,0.707106781186545,-0.70710678118655));
#1355=DIRECTION('ref_axis',(1.,0.,0.));
#1356=DIRECTION('',(0.,0.707106781186545,-0.70710678118655));
#1357=DIRECTION('center_axis',(1.99572176804525E-15,-0.707106781186542,
0.707106781186553));
#1358=DIRECTION('ref_axis',(1.,2.31769345317282E-15,-2.31769345317285E-15));
#1359=DIRECTION('center_axis',(0.,0.707106781186545,-0.70710678118655));
#1360=DIRECTION('ref_axis',(1.,0.,0.));
#1361=DIRECTION('center_axis',(-1.0960652158291E-17,0.707106781186545,-0.70710678118655));
#1362=DIRECTION('ref_axis',(1.,0.,0.));
#1363=DIRECTION('',(0.,0.707106781186545,-0.70710678118655));
#1364=DIRECTION('center_axis',(3.5279927723689E-33,-0.707106781186545,0.70710678118655));
#1365=DIRECTION('ref_axis',(-1.,-2.49466761331917E-33,2.49466761331919E-33));
#1366=DIRECTION('center_axis',(0.,0.707106781186542,-0.707106781186553));
#1367=DIRECTION('ref_axis',(-1.,0.,0.));
#1368=DIRECTION('center_axis',(0.,0.707106781186545,-0.70710678118655));
#1369=DIRECTION('ref_axis',(-1.,0.,0.));
#1370=DIRECTION('',(0.,-0.707106781186542,0.707106781186553));
#1371=DIRECTION('center_axis',(1.0960652158291E-17,-0.707106781186545,0.70710678118655));
#1372=DIRECTION('ref_axis',(-1.,0.,0.));
#1373=DIRECTION('center_axis',(0.,0.707106781186545,-0.70710678118655));
#1374=DIRECTION('ref_axis',(-1.,0.,0.));
#1375=DIRECTION('center_axis',(1.,6.85910823788933E-15,-6.85910823788938E-15));
#1376=DIRECTION('ref_axis',(-9.70024389580814E-15,0.707106781186545,-0.70710678118655));
#1377=DIRECTION('',(-9.70024389580814E-15,0.707106781186545,-0.70710678118655));
#1378=DIRECTION('',(-3.31321580192825E-29,-0.707106781186548,-0.707106781186548));
#1379=DIRECTION('',(-9.70024389580814E-15,0.707106781186545,-0.70710678118655));
#1380=DIRECTION('',(-7.88860905221012E-31,-0.70710678118655,-0.707106781186545));
#1381=DIRECTION('center_axis',(1.,7.7503514673546E-18,7.7503514673546E-18));
#1382=DIRECTION('ref_axis',(1.09606521582911E-17,-0.70710678118655,-0.707106781186545));
#1383=DIRECTION('',(1.09606521582911E-17,-0.70710678118655,-0.707106781186545));
#1384=DIRECTION('',(0.,-0.707106781186549,-0.707106781186546));
#1385=DIRECTION('',(0.,-0.707106781186548,0.707106781186548));
#1386=DIRECTION('center_axis',(0.,0.707106781186545,-0.70710678118655));
#1387=DIRECTION('ref_axis',(1.,0.,0.));
#1388=DIRECTION('center_axis',(0.,0.707106781186548,-0.707106781186548));
#1389=DIRECTION('ref_axis',(1.,0.,0.));
#1390=DIRECTION('',(0.,0.707106781186545,-0.70710678118655));
#1391=DIRECTION('center_axis',(0.,0.707106781186545,-0.70710678118655));
#1392=DIRECTION('ref_axis',(1.,0.,0.));
#1393=DIRECTION('center_axis',(0.,-0.707106781186545,0.70710678118655));
#1394=DIRECTION('ref_axis',(1.,0.,0.));
#1395=DIRECTION('center_axis',(0.,0.707106781186545,-0.70710678118655));
#1396=DIRECTION('ref_axis',(-1.,0.,0.));
#1397=DIRECTION('center_axis',(0.,0.707106781186545,-0.70710678118655));
#1398=DIRECTION('ref_axis',(-1.,0.,0.));
#1399=DIRECTION('center_axis',(0.,0.707106781186546,-0.707106781186549));
#1400=DIRECTION('ref_axis',(0.,-0.707106781186549,-0.707106781186546));
#1401=DIRECTION('',(-2.2186712959341E-31,0.707106781186549,0.707106781186546));
#1402=DIRECTION('',(-2.2186712959341E-31,0.707106781186549,0.707106781186546));
#1403=DIRECTION('',(1.,0.,0.));
#1404=DIRECTION('',(0.,-0.707106781186549,-0.707106781186546));
#1405=DIRECTION('',(-1.,0.,0.));
#1406=DIRECTION('center_axis',(-1.,0.,0.));
#1407=DIRECTION('ref_axis',(0.,0.,1.));
#1408=DIRECTION('',(0.,0.707106781186547,-0.707106781186547));
#1409=DIRECTION('',(0.,0.707106781186545,-0.70710678118655));
#1410=DIRECTION('',(0.,-0.707106781186549,-0.707106781186546));
#1411=DIRECTION('center_axis',(1.,2.87850279802721E-16,-2.87850279802723E-16));
#1412=DIRECTION('ref_axis',(4.070817696299E-16,-0.707106781186547,0.707106781186548));
#1413=DIRECTION('',(-4.070817696299E-16,0.707106781186547,-0.707106781186548));
#1414=DIRECTION('',(8.62816615085482E-31,0.707106781186548,0.707106781186548));
#1415=DIRECTION('',(-4.070817696299E-16,0.707106781186547,-0.707106781186548));
#1416=DIRECTION('center_axis',(1.,2.87850279802721E-16,-2.87850279802723E-16));
#1417=DIRECTION('ref_axis',(4.070817696299E-16,-0.707106781186547,0.707106781186548));
#1418=DIRECTION('',(4.070817696299E-16,-0.707106781186547,0.707106781186548));
#1419=DIRECTION('',(0.,-0.707106781186548,-0.707106781186547));
#1420=DIRECTION('center_axis',(0.,0.707106781186545,-0.70710678118655));
#1421=DIRECTION('ref_axis',(1.,0.,0.));
#1422=DIRECTION('center_axis',(0.,0.707106781186548,-0.707106781186548));
#1423=DIRECTION('ref_axis',(1.,0.,0.));
#1424=DIRECTION('',(0.,0.707106781186545,-0.70710678118655));
#1425=DIRECTION('center_axis',(0.,0.707106781186545,-0.70710678118655));
#1426=DIRECTION('ref_axis',(1.,0.,0.));
#1427=DIRECTION('center_axis',(0.,-0.707106781186545,0.70710678118655));
#1428=DIRECTION('ref_axis',(1.,0.,0.));
#1429=DIRECTION('center_axis',(0.,0.707106781186545,-0.70710678118655));
#1430=DIRECTION('ref_axis',(1.,0.,0.));
#1431=DIRECTION('center_axis',(0.,0.707106781186548,-0.707106781186547));
#1432=DIRECTION('ref_axis',(1.,0.,0.));
#1433=DIRECTION('',(0.,0.707106781186545,-0.70710678118655));
#1434=DIRECTION('center_axis',(0.,0.707106781186545,-0.70710678118655));
#1435=DIRECTION('ref_axis',(1.,0.,0.));
#1436=DIRECTION('center_axis',(0.,-0.707106781186545,0.70710678118655));
#1437=DIRECTION('ref_axis',(1.,0.,0.));
#1438=DIRECTION('center_axis',(0.,-0.707106781186548,0.707106781186547));
#1439=DIRECTION('ref_axis',(1.,0.,0.));
#1440=DIRECTION('center_axis',(0.,-0.707106781186548,0.707106781186547));
#1441=DIRECTION('ref_axis',(1.,0.,0.));
#1442=DIRECTION('',(0.,0.707106781186548,-0.707106781186547));
#1443=DIRECTION('center_axis',(0.,0.707106781186548,-0.707106781186548));
#1444=DIRECTION('ref_axis',(1.,0.,0.));
#1445=DIRECTION('center_axis',(0.,-0.707106781186548,0.707106781186547));
#1446=DIRECTION('ref_axis',(1.,0.,0.));
#1447=DIRECTION('center_axis',(-1.,8.97042031199489E-16,-8.97042031199495E-16));
#1448=DIRECTION('ref_axis',(-1.26860900654103E-15,-0.707106781186545,0.70710678118655));
#1449=DIRECTION('',(-4.53595020502082E-30,0.707106781186548,0.707106781186548));
#1450=DIRECTION('',(-9.52445049970774E-46,0.707106781186548,-0.707106781186548));
#1451=DIRECTION('',(-9.86076131526264E-32,0.70710678118655,0.707106781186545));
#1452=DIRECTION('',(-1.26860900654103E-15,-0.707106781186545,0.70710678118655));
#1453=DIRECTION('center_axis',(1.0960652158291E-17,-0.707106781186545,0.70710678118655));
#1454=DIRECTION('ref_axis',(1.,1.55007029347092E-17,-3.08148791101958E-33));
#1455=DIRECTION('',(1.,7.75035146735454E-18,-7.75035146735456E-18));
#1456=DIRECTION('',(-1.,-7.75035146735456E-18,7.75035146735456E-18));
#1457=DIRECTION('center_axis',(-1.99572176804525E-15,0.707106781186542,
-0.707106781186553));
#1458=DIRECTION('ref_axis',(-1.,-8.26655023047546E-16,1.99572176804525E-15));
#1459=DIRECTION('center_axis',(1.99572176804525E-15,-0.707106781186542,
0.707106781186553));
#1460=DIRECTION('ref_axis',(1.,8.26655023047545E-16,-1.99572176804525E-15));
#1461=DIRECTION('center_axis',(1.99572176804525E-15,-0.707106781186542,
0.707106781186553));
#1462=DIRECTION('ref_axis',(1.,8.26655023047545E-16,-1.99572176804525E-15));
#1463=DIRECTION('',(-1.99572176804525E-15,0.707106781186542,-0.707106781186553));
#1464=DIRECTION('center_axis',(-1.,0.,2.22044604925031E-16));
#1465=DIRECTION('ref_axis',(2.22044604925031E-16,0.,1.));
#1466=DIRECTION('center_axis',(-1.,6.16297582203915E-33,2.22044604925031E-16));
#1467=DIRECTION('ref_axis',(-2.22044604925031E-16,2.73691106313441E-48,
-1.));
#1468=DIRECTION('center_axis',(-1.,0.,0.));
#1469=DIRECTION('ref_axis',(0.,2.73691106313441E-48,-1.));
#1470=DIRECTION('',(-1.,0.,0.));
#1471=DIRECTION('center_axis',(0.,0.707106781186545,-0.70710678118655));
#1472=DIRECTION('ref_axis',(-1.,0.,0.));
#1473=DIRECTION('center_axis',(0.,0.707106781186548,-0.707106781186548));
#1474=DIRECTION('ref_axis',(-1.,0.,0.));
#1475=DIRECTION('',(0.,0.707106781186545,-0.70710678118655));
#1476=DIRECTION('center_axis',(1.0960652158291E-17,-0.707106781186545,0.70710678118655));
#1477=DIRECTION('ref_axis',(-1.,0.,0.));
#1478=DIRECTION('center_axis',(1.0960652158291E-17,-0.707106781186545,0.70710678118655));
#1479=DIRECTION('ref_axis',(1.0960652158291E-17,0.70710678118655,0.707106781186545));
#1480=DIRECTION('',(1.,7.75035146735455E-18,-7.75035146735455E-18));
#1481=DIRECTION('',(1.,0.,0.));
#1482=DIRECTION('',(1.,7.75035146735449E-18,-7.75035146735462E-18));
#1483=DIRECTION('center_axis',(4.93038065763132E-32,0.70710678118655,0.707106781186545));
#1484=DIRECTION('ref_axis',(9.70024389580814E-15,-0.707106781186545,0.70710678118655));
#1485=DIRECTION('',(1.,-3.4863055968421E-32,-3.4863055968421E-32));
#1486=DIRECTION('center_axis',(0.,0.707106781186548,-0.707106781186548));
#1487=DIRECTION('ref_axis',(-1.,0.,0.));
#1488=DIRECTION('',(1.,0.,0.));
#1489=DIRECTION('',(-1.,-2.87850279802721E-16,2.87850279802723E-16));
#1490=DIRECTION('',(1.,-3.4863055968421E-32,-3.4863055968421E-32));
#1491=DIRECTION('center_axis',(1.0960652158291E-17,-0.707106781186545,0.70710678118655));
#1492=DIRECTION('ref_axis',(1.,1.55007029347092E-17,-4.62223186652937E-33));
#1493=DIRECTION('',(-1.,-7.75035146735455E-18,7.75035146735455E-18));
#1494=DIRECTION('',(0.,-0.70710678118655,-0.707106781186545));
#1495=DIRECTION('',(1.,7.75035146735454E-18,-7.75035146735456E-18));
#1496=DIRECTION('',(-1.09606521582911E-17,0.70710678118655,0.707106781186545));
#1497=DIRECTION('center_axis',(0.707106781186549,-0.499999999999997,0.500000000000001));
#1498=DIRECTION('ref_axis',(0.577350269189625,0.,-0.816496580927726));
#1499=DIRECTION('center_axis',(-0.707106781186549,0.499999999999997,-0.500000000000001));
#1500=DIRECTION('ref_axis',(0.707106781186546,0.500000000000003,-0.499999999999999));
#1501=DIRECTION('',(0.577350269189623,0.816496580927728,0.));
#1502=DIRECTION('',(0.57735026918963,0.,-0.816496580927723));
#1503=DIRECTION('center_axis',(7.75035146735456E-18,0.,1.));
#1504=DIRECTION('ref_axis',(1.,0.,-7.75035146735456E-18));
#1505=DIRECTION('',(-0.577350269189628,0.816496580927725,0.));
#1506=DIRECTION('center_axis',(-0.707106781186546,-0.5,0.500000000000003));
#1507=DIRECTION('ref_axis',(0.577350269189629,0.,0.816496580927724));
#1508=DIRECTION('',(-0.57735026918963,0.,-0.816496580927723));
#1509=DIRECTION('center_axis',(1.0960652158291E-17,-0.707106781186545,0.70710678118655));
#1510=DIRECTION('ref_axis',(1.0960652158291E-17,0.70710678118655,0.707106781186545));
#1511=DIRECTION('',(-1.,-7.75035146735454E-18,7.75035146735456E-18));
#1512=DIRECTION('',(0.,0.70710678118655,0.707106781186545));
#1513=DIRECTION('',(1.,7.75035146735455E-18,-7.75035146735455E-18));
#1514=DIRECTION('',(1.09606521582911E-17,-0.70710678118655,-0.707106781186545));
#1515=DIRECTION('center_axis',(0.,0.707106781186548,0.707106781186547));
#1516=DIRECTION('ref_axis',(1.,0.,0.));
#1517=DIRECTION('',(1.,7.75035146735454E-18,-7.75035146735456E-18));
#1518=DIRECTION('center_axis',(0.707106781186553,0.499999999999994,-0.499999999999998));
#1519=DIRECTION('ref_axis',(-0.577350269189621,0.,-0.81649658092773));
#1520=DIRECTION('center_axis',(-0.707106781186553,-0.499999999999994,0.499999999999998));
#1521=DIRECTION('ref_axis',(0.707106781186542,-0.500000000000006,0.500000000000002));
#1522=DIRECTION('',(0.577350269189628,-0.816496580927725,0.));
#1523=DIRECTION('',(0.577350269189625,-5.12790049702285E-15,0.816496580927726));
#1524=DIRECTION('center_axis',(-0.707106781186548,0.499999999999998,-0.500000000000001));
#1525=DIRECTION('ref_axis',(-0.577350269189626,0.,0.816496580927726));
#1526=DIRECTION('',(-0.577350269189625,-0.816496580927726,0.));
#1527=DIRECTION('',(-0.577350269189625,-5.12790049702285E-15,0.816496580927726));
#1528=DIRECTION('center_axis',(-7.75035146735449E-18,1.,6.28036983473511E-15));
#1529=DIRECTION('ref_axis',(0.,-6.28036983473511E-15,1.));
#1530=DIRECTION('center_axis',(7.7503514673546E-18,-1.,6.28036983473511E-15));
#1531=DIRECTION('ref_axis',(0.,-6.28036983473511E-15,-1.));
#1532=DIRECTION('center_axis',(-7.7503514673546E-18,1.,-6.28036983473511E-15));
#1533=DIRECTION('ref_axis',(0.,-6.27969898303608E-15,-1.));
#1534=DIRECTION('',(1.,7.75035146735455E-18,-7.75035146735455E-18));
#1535=DIRECTION('center_axis',(0.,0.707106781186548,0.707106781186548));
#1536=DIRECTION('ref_axis',(1.,0.,0.));
#1537=DIRECTION('',(0.,0.707106781186548,-0.707106781186548));
#1538=DIRECTION('',(-1.,-7.75035146735455E-18,7.75035146735455E-18));
#1539=DIRECTION('center_axis',(-7.7503514673546E-18,6.28036983473511E-15,
-1.));
#1540=DIRECTION('ref_axis',(-1.,0.,7.7503514673546E-18));
#1541=DIRECTION('center_axis',(7.7503514673546E-18,-6.28036983473511E-15,
1.));
#1542=DIRECTION('ref_axis',(0.,-1.,-6.27969898303608E-15));
#1543=DIRECTION('center_axis',(0.,-0.707106781186548,0.707106781186548));
#1544=DIRECTION('ref_axis',(0.707106781186553,-0.499999999999996,-0.499999999999996));
#1545=DIRECTION('',(0.,-0.707106781186548,0.707106781186548));
#1546=DIRECTION('center_axis',(0.,0.707106781186547,0.707106781186548));
#1547=DIRECTION('ref_axis',(1.,0.,0.));
#1548=DIRECTION('center_axis',(0.,0.707106781186548,0.707106781186547));
#1549=DIRECTION('ref_axis',(1.,0.,0.));
#1550=DIRECTION('',(0.,0.707106781186547,0.707106781186547));
#1551=DIRECTION('center_axis',(-4.93038065763132E-32,-0.70710678118655,
-0.707106781186545));
#1552=DIRECTION('ref_axis',(1.,0.,0.));
#1553=DIRECTION('center_axis',(0.,0.707106781186548,-0.707106781186548));
#1554=DIRECTION('ref_axis',(-1.,0.,0.));
#1555=DIRECTION('',(1.,0.,0.));
#1556=DIRECTION('',(0.,-0.707106781186547,-0.707106781186547));
#1557=DIRECTION('',(-1.,0.,0.));
#1558=DIRECTION('center_axis',(0.,-0.707106781186548,-0.707106781186547));
#1559=DIRECTION('ref_axis',(0.,0.707106781186547,-0.707106781186548));
#1560=DIRECTION('',(0.,0.707106781186547,-0.707106781186548));
#1561=DIRECTION('',(1.,0.,0.));
#1562=DIRECTION('center_axis',(0.,-0.707106781186548,0.707106781186548));
#1563=DIRECTION('ref_axis',(0.,-0.707106781186548,-0.707106781186548));
#1564=DIRECTION('',(0.,-0.707106781186548,-0.707106781186548));
#1565=DIRECTION('',(1.,0.,0.));
#1566=DIRECTION('center_axis',(1.,0.,0.));
#1567=DIRECTION('ref_axis',(0.,0.,-1.));
#1568=DIRECTION('',(0.,0.707106781186548,-0.707106781186548));
#1569=DIRECTION('center_axis',(4.93038065763132E-32,0.70710678118655,0.707106781186545));
#1570=DIRECTION('ref_axis',(-1.26860900654103E-15,-0.707106781186545,0.70710678118655));
#1571=CARTESIAN_POINT('',(0.,0.,0.));
#1572=CARTESIAN_POINT('Origin',(-150.687516887444,90.9431763155722,162.201055121355));
#1573=CARTESIAN_POINT('',(-150.687516887444,53.8957307288654,172.959684797108));
#1574=CARTESIAN_POINT('',(-150.687514562863,57.7706758897678,176.834629958011));
#1575=CARTESIAN_POINT('',(-150.687516887444,62.4054072870549,181.469361355298));
#1576=CARTESIAN_POINT('',(-150.687516887444,84.8542798227749,203.918233891018));
#1577=CARTESIAN_POINT('',(-150.687516887444,67.0569518243814,186.120905892624));
#1578=CARTESIAN_POINT('',(-150.687516887444,81.8872601377011,206.885254313661));
#1579=CARTESIAN_POINT('',(-150.687516887444,82.5943669188876,206.178147532475));
#1580=CARTESIAN_POINT('',(-150.687516887444,50.9287106750066,175.926704850967));
#1581=CARTESIAN_POINT('',(-150.687516887444,70.260303058062,195.258297234022));
#1582=CARTESIAN_POINT('',(-150.687516887444,77.7987683600955,149.056647165878));
#1583=CARTESIAN_POINT('Origin',(-150.687516887444,90.9431763155722,162.201055121355));
#1584=CARTESIAN_POINT('',(-150.687514562863,73.3270250758718,161.278280771907));
#1585=CARTESIAN_POINT('',(-150.687514562863,71.9128115134987,162.69249433428));
#1586=CARTESIAN_POINT('',(-150.687516887444,68.0256687145229,166.579637133256));
#1587=CARTESIAN_POINT('',(-150.687516887444,69.4520799149694,157.403335611004));
#1588=CARTESIAN_POINT('',(-150.687516887444,76.0242838927078,163.975539588743));
#1589=CARTESIAN_POINT('',(-150.687516887444,80.9807488754349,145.874666650539));
#1590=CARTESIAN_POINT('',(-150.687516887444,77.7987683600955,149.056647165878));
#1591=CARTESIAN_POINT('',(-150.687516887444,111.939297969344,176.833215744448));
#1592=CARTESIAN_POINT('',(-150.687516887444,94.1419699709509,159.035887746055));
#1593=CARTESIAN_POINT('',(-150.687516887444,98.9964154465059,189.776098267287));
#1594=CARTESIAN_POINT('',(-150.687516887444,111.939297969344,176.833215744448));
#1595=CARTESIAN_POINT('',(-150.687516887444,84.4369101373758,175.216592958157));
#1596=CARTESIAN_POINT('',(-150.687516887444,91.8468221212218,174.874124594072));
#1597=CARTESIAN_POINT('Origin',(-150.687516887444,91.8468221212218,172.374124594072));
#1598=CARTESIAN_POINT('Origin',(-214.190517304677,115.691914025886,186.949792831669));
#1599=CARTESIAN_POINT('',(-214.190517304677,80.2736420942483,145.167559869352));
#1600=CARTESIAN_POINT('',(-214.190517304677,111.939297969344,176.833215744448));
#1601=CARTESIAN_POINT('',(-214.190517304677,106.516338826108,171.410256601212));
#1602=CARTESIAN_POINT('',(-214.190517304677,77.0916615789089,148.349540384692));
#1603=CARTESIAN_POINT('',(-214.190517304677,77.091661578909,148.349540384692));
#1604=CARTESIAN_POINT('',(-214.190517304677,108.75731782279,180.015196628573));
#1605=CARTESIAN_POINT('',(-214.190517304677,90.9431763155722,162.201055121355));
#1606=CARTESIAN_POINT('',(-214.190517304677,108.757317454005,180.015196259788));
#1607=CARTESIAN_POINT('Origin',(-167.891099172707,80.5538346230971,199.617677072013));
#1608=CARTESIAN_POINT('',(-165.597330266851,84.8542801915598,203.918234259803));
#1609=CARTESIAN_POINT('',(-165.597330266851,84.8542717676431,203.918242683719));
#1610=CARTESIAN_POINT('',(-165.597330266851,84.8543360018178,203.918178449545));
#1611=CARTESIAN_POINT('',(-174.391099172707,80.5537788134338,199.617732881677));
#1612=CARTESIAN_POINT('Origin',(-167.891099172707,80.5537788134338,199.617732881677));
#1613=CARTESIAN_POINT('',(-174.391099172707,80.5538346237326,199.617677071378));
#1614=CARTESIAN_POINT('',(-174.391099172707,80.5538346230971,199.617677072013));
#1615=CARTESIAN_POINT('',(-161.391099172707,80.5538346230971,199.617677072013));
#1616=CARTESIAN_POINT('Origin',(-167.891099172707,80.5538346230971,199.617677072013));
#1617=CARTESIAN_POINT('Origin',(-167.891099172707,80.5538346230971,199.617677072013));
#1618=CARTESIAN_POINT('',(-170.184868078564,84.8542801915598,203.918234259803));
#1619=CARTESIAN_POINT('Origin',(-167.891099172707,80.5537788134338,199.617732881677));
#1620=CARTESIAN_POINT('',(-170.184868078564,84.8542717676431,203.918242683719));
#1621=CARTESIAN_POINT('',(-170.184868078564,84.8543360018178,203.918178449545));
#1622=CARTESIAN_POINT('Origin',(-167.891099172707,80.5537703895171,199.617741305593));
#1623=CARTESIAN_POINT('Origin',(-167.891099172707,80.5537703895171,199.617741305593));
#1624=CARTESIAN_POINT('',(-177.040808030076,84.8542717676431,203.918242683719));
#1625=CARTESIAN_POINT('Origin',(-186.190516887444,82.5943669188876,206.178147532475));
#1626=CARTESIAN_POINT('',(-214.190517304677,81.887260137701,206.885254313661));
#1627=CARTESIAN_POINT('',(-193.190516991752,81.8872601377011,206.885254313661));
#1628=CARTESIAN_POINT('',(-190.234672308811,84.8542801915598,203.918234259803));
#1629=CARTESIAN_POINT('',(-214.190517304677,84.8542801915598,203.918234259803));
#1630=CARTESIAN_POINT('',(-190.234672308811,84.8542801915598,203.918234259803));
#1631=CARTESIAN_POINT('',(-214.190517304677,82.5943669188876,206.178147532475));
#1632=CARTESIAN_POINT('Origin',(-189.911686832686,86.621615980056,162.122135472958));
#1633=CARTESIAN_POINT('',(-188.161686832686,88.7429363236154,160.000815129398));
#1634=CARTESIAN_POINT('Origin',(-189.911686832686,88.7429363236154,160.000815129398));
#1635=CARTESIAN_POINT('',(-188.161686832686,93.339130401328,155.404621051686));
#1636=CARTESIAN_POINT('',(-188.161686832686,86.621615980056,162.122135472958));
#1637=CARTESIAN_POINT('Origin',(-189.911686832686,93.339130401328,155.404621051686));
#1638=CARTESIAN_POINT('Origin',(-209.911686832686,86.621615980056,162.122135472958));
#1639=CARTESIAN_POINT('',(-208.161686832686,88.7429363236154,160.000815129398));
#1640=CARTESIAN_POINT('Origin',(-209.911686832686,88.7429363236154,160.000815129398));
#1641=CARTESIAN_POINT('',(-208.161686832686,93.339130401328,155.404621051686));
#1642=CARTESIAN_POINT('',(-208.161686832686,86.621615980056,162.122135472958));
#1643=CARTESIAN_POINT('Origin',(-209.911686832686,93.339130401328,155.404621051686));
#1644=CARTESIAN_POINT('Origin',(-209.911686832686,99.7030914320071,170.253863456603));
#1645=CARTESIAN_POINT('',(-208.161686832686,99.7030914320071,170.253863456603));
#1646=CARTESIAN_POINT('Origin',(-209.911686832686,99.7030914320071,170.253863456603));
#1647=CARTESIAN_POINT('',(-208.161686832686,103.945732119126,166.011222769484));
#1648=CARTESIAN_POINT('',(-208.161686832686,99.7030914320071,170.253863456603));
#1649=CARTESIAN_POINT('Origin',(-209.911686832686,103.945732119126,166.011222769484));
#1650=CARTESIAN_POINT('Origin',(-189.911686832686,99.7030914320071,170.253863456603));
#1651=CARTESIAN_POINT('',(-188.161686832686,99.7030914320071,170.253863456603));
#1652=CARTESIAN_POINT('Origin',(-189.911686832686,99.7030914320071,170.253863456603));
#1653=CARTESIAN_POINT('',(-188.161686832686,103.945732119126,166.011222769484));
#1654=CARTESIAN_POINT('',(-188.161686832686,99.7030914320071,170.253863456603));
#1655=CARTESIAN_POINT('Origin',(-189.911686832686,103.945732119126,166.011222769484));
#1656=CARTESIAN_POINT('Origin',(-160.000002384186,63.2231255295621,166.460717121158));
#1657=CARTESIAN_POINT('',(-161.500002384186,61.1018051860024,164.339396777598));
#1658=CARTESIAN_POINT('Origin',(-160.000002384186,61.1018051860024,164.339396777598));
#1659=CARTESIAN_POINT('',(-161.500002384186,65.6838571280913,168.921448719687));
#1660=CARTESIAN_POINT('',(-161.500002384186,63.2231255295621,166.460717121158));
#1661=CARTESIAN_POINT('Origin',(-160.000002384186,65.6838571280913,168.921448719687));
#1662=CARTESIAN_POINT('Origin',(-200.000002980232,59.1233710778839,182.707151691471));
#1663=CARTESIAN_POINT('',(-201.500002980232,57.0020507343243,184.828472035031));
#1664=CARTESIAN_POINT('Origin',(-200.000002980232,57.0020507343243,184.828472035031));
#1665=CARTESIAN_POINT('',(-201.500002980232,61.3832843505561,180.447238418799));
#1666=CARTESIAN_POINT('',(-201.500002980232,59.1233710778839,182.707151691471));
#1667=CARTESIAN_POINT('Origin',(-200.000002980232,61.3832843505562,180.447238418799));
#1668=CARTESIAN_POINT('Origin',(-200.000002980232,76.0939340792422,199.677714692829));
#1669=CARTESIAN_POINT('',(-201.500002980232,73.9726137356826,201.799035036389));
#1670=CARTESIAN_POINT('Origin',(-200.000002980232,73.9726137356826,201.799035036389));
#1671=CARTESIAN_POINT('',(-201.500002980232,78.3538473519144,197.417801420157));
#1672=CARTESIAN_POINT('',(-201.500002980232,76.0939340792422,199.677714692829));
#1673=CARTESIAN_POINT('Origin',(-200.000002980232,78.3538473519144,197.417801420157));
#1674=CARTESIAN_POINT('Origin',(-160.000002384186,62.6589050365002,186.242685650088));
#1675=CARTESIAN_POINT('',(-161.500002384186,60.5375846929406,188.364005993647));
#1676=CARTESIAN_POINT('Origin',(-160.000002384186,60.5375846929406,188.364005993647));
#1677=CARTESIAN_POINT('',(-161.500002384186,64.9188183091725,183.982772377415));
#1678=CARTESIAN_POINT('',(-161.500002384186,62.6589050365002,186.242685650088));
#1679=CARTESIAN_POINT('Origin',(-160.000002384186,64.9188183091725,183.982772377415));
#1680=CARTESIAN_POINT('Origin',(-167.978918248915,78.2842598273509,201.868040440938));
#1681=CARTESIAN_POINT('',(-169.478918248915,76.1629394837913,203.989360784498));
#1682=CARTESIAN_POINT('Origin',(-167.978918248915,76.1629394837913,203.989360784498));
#1683=CARTESIAN_POINT('',(-169.478918248915,87.5014525297808,192.650847738508));
#1684=CARTESIAN_POINT('',(-169.478918248915,78.2842598273509,201.868040440938));
#1685=CARTESIAN_POINT('Origin',(-167.978918248915,87.5014525297808,192.650847738508));
#1686=CARTESIAN_POINT('Origin',(-179.760872775216,67.9320054625724,191.51578607616));
#1687=CARTESIAN_POINT('',(-181.260872775216,65.8106851190128,193.637106419719));
#1688=CARTESIAN_POINT('Origin',(-179.760872775216,65.8106851190128,193.637106419719));
#1689=CARTESIAN_POINT('',(-181.260872775216,71.2525789070245,188.195212631708));
#1690=CARTESIAN_POINT('',(-181.260872775216,67.9320054625724,191.51578607616));
#1691=CARTESIAN_POINT('Origin',(-179.760872775216,71.2525789070245,188.195212631708));
#1692=CARTESIAN_POINT('Origin',(-179.760872775216,70.1919187352447,189.255872803488));
#1693=CARTESIAN_POINT('',(-173.669052260177,71.2525789070245,188.195212631708));
#1694=CARTESIAN_POINT('Origin',(-179.760872775216,71.2525789070245,188.195212631708));
#1695=CARTESIAN_POINT('',(-173.669052260177,70.1919187352447,189.255872803488));
#1696=CARTESIAN_POINT('',(-173.669052260177,70.1919187352447,189.255872803488));
#1697=CARTESIAN_POINT('Origin',(-179.760872775216,70.1919187352447,189.255872803488));
#1698=CARTESIAN_POINT('Origin',(-179.760872775216,71.2525789070245,188.195212631708));
#1699=CARTESIAN_POINT('Origin',(-166.528514562863,73.1414095458105,175.303390223351));
#1700=CARTESIAN_POINT('',(-166.528514562863,57.7706758897679,176.834629958011));
#1701=CARTESIAN_POINT('',(-166.528514562863,71.9128115134988,162.69249433428));
#1702=CARTESIAN_POINT('',(-166.528514562863,66.2216625851188,168.38364326266));
#1703=CARTESIAN_POINT('',(-166.528514562863,86.3823375769192,177.1620203977));
#1704=CARTESIAN_POINT('',(-166.528514562863,86.1946007265141,176.974283547295));
#1705=CARTESIAN_POINT('',(-166.528514562863,72.2402019531883,191.304156021431));
#1706=CARTESIAN_POINT('',(-166.528514562863,80.6911886485393,182.85316932608));
#1707=CARTESIAN_POINT('',(-166.528514562863,65.88209390744,184.946047975683));
#1708=CARTESIAN_POINT('Origin',(-214.190517304677,89.5289631219841,213.112743735571));
#1709=CARTESIAN_POINT('',(-214.190517304677,50.2216038938201,175.219598069781));
#1710=CARTESIAN_POINT('',(-214.190517304677,82.634671913219,207.632666089179));
#1711=CARTESIAN_POINT('',(-214.190517304677,53.1886239476788,172.252578015922));
#1712=CARTESIAN_POINT('',(-214.190517304677,55.3099442912385,174.373898359481));
#1713=CARTESIAN_POINT('',(-214.190517304677,49.5144971126335,175.926704850967));
#1714=CARTESIAN_POINT('Origin',(-160.000002384186,62.6589050365002,186.242685650088));
#1715=CARTESIAN_POINT('',(-161.500002384186,79.0609539329033,169.840636753684));
#1716=CARTESIAN_POINT('Origin',(-160.000002384186,79.0609539329033,169.840636753684));
#1717=CARTESIAN_POINT('',(-161.500002384186,88.8218559404024,160.079734746185));
#1718=CARTESIAN_POINT('',(-161.500002384186,62.6589050365002,186.242685650088));
#1719=CARTESIAN_POINT('Origin',(-160.000002384186,88.8218559404024,160.079734746185));
#1720=CARTESIAN_POINT('Origin',(-160.000002384186,88.8218559404024,160.079734746185));
#1721=CARTESIAN_POINT('Origin',(-189.911686832686,99.7030914320071,170.253863456603));
#1722=CARTESIAN_POINT('Origin',(-209.911686832686,99.7030914320071,170.253863456603));
#1723=CARTESIAN_POINT('Origin',(-186.190516887444,101.117735790066,187.654777923727));
#1724=CARTESIAN_POINT('',(-186.190516887444,74.4018273832754,160.938869516937));
#1725=CARTESIAN_POINT('',(-186.190516887444,101.117735790066,187.654777923727));
#1726=CARTESIAN_POINT('',(-186.190516887444,87.7597815866705,174.296823720332));
#1727=CARTESIAN_POINT('',(-186.190516887444,69.4520799149695,155.989122048631));
#1728=CARTESIAN_POINT('',(-186.190516887444,87.7597815866705,174.296823720332));
#1729=CARTESIAN_POINT('',(-189.785516887444,69.4520799149695,155.989122048631));
#1730=CARTESIAN_POINT('',(-186.190516887444,69.4520799149695,155.989122048631));
#1731=CARTESIAN_POINT('',(-189.785516887444,101.117735790066,187.654777923727));
#1732=CARTESIAN_POINT('',(-189.785516887444,101.117735790066,187.654777923727));
#1733=CARTESIAN_POINT('',(-186.190516887444,101.117735790066,187.654777923727));
#1734=CARTESIAN_POINT('Origin',(-189.785516887444,85.2849078525176,173.943270329739));
#1735=CARTESIAN_POINT('',(-189.785516887444,98.9964154465059,189.776098267287));
#1736=CARTESIAN_POINT('',(-189.785516887444,98.9964154465059,189.776098267287));
#1737=CARTESIAN_POINT('',(-189.785516887444,67.3307595714099,158.110442392191));
#1738=CARTESIAN_POINT('',(-189.785516887444,67.3307595714099,158.110442392191));
#1739=CARTESIAN_POINT('',(-189.785516887444,69.4520799149695,160.23176273575));
#1740=CARTESIAN_POINT('Origin',(-186.190516887444,85.2233895625543,150.117307337658));
#1741=CARTESIAN_POINT('',(-186.190516887444,82.0414090472148,153.299287852998));
#1742=CARTESIAN_POINT('',(-186.190516887444,79.8395669189476,155.501129981265));
#1743=CARTESIAN_POINT('',(-186.190516887444,77.0916615789089,148.349540384692));
#1744=CARTESIAN_POINT('',(-186.190516887444,86.509263244142,157.767142049925));
#1745=CARTESIAN_POINT('',(-186.190516887444,74.8898194506417,150.551382512959));
#1746=CARTESIAN_POINT('Origin',(-186.190516887444,85.2233895625543,150.117307337658));
#1747=CARTESIAN_POINT('',(-186.190516887444,108.757317454005,180.015196259788));
#1748=CARTESIAN_POINT('',(-186.190516887444,106.776534583206,181.995979130587));
#1749=CARTESIAN_POINT('',(-186.190516887444,90.9431763155722,162.201055121355));
#1750=CARTESIAN_POINT('Origin',(-167.978918248915,78.2842598273509,201.868040440938));
#1751=CARTESIAN_POINT('',(-169.478918248915,94.686308723754,185.465991544535));
#1752=CARTESIAN_POINT('Origin',(-167.978918248915,94.686308723754,185.465991544535));
#1753=CARTESIAN_POINT('',(-169.478918248915,96.9836986558291,183.16860161246));
#1754=CARTESIAN_POINT('',(-169.478918248915,78.2842598273509,201.868040440938));
#1755=CARTESIAN_POINT('Origin',(-167.978918248915,96.9836986558291,183.16860161246));
#1756=CARTESIAN_POINT('Origin',(-167.978918248915,96.9836986558291,183.16860161246));
#1757=CARTESIAN_POINT('Origin',(-179.760872775216,67.9320054625724,191.51578607616));
#1758=CARTESIAN_POINT('',(-181.260872775216,77.9857698228492,181.462021715883));
#1759=CARTESIAN_POINT('Origin',(-179.760872775216,77.9857698228492,181.462021715883));
#1760=CARTESIAN_POINT('',(-181.260872775216,86.6314442910506,172.816347247681));
#1761=CARTESIAN_POINT('',(-181.260872775216,67.9320054625724,191.51578607616));
#1762=CARTESIAN_POINT('Origin',(-179.760872775216,86.6314442910506,172.816347247681));
#1763=CARTESIAN_POINT('Origin',(-179.760872775216,86.6314442910506,172.816347247681));
#1764=CARTESIAN_POINT('Origin',(-179.45688625774,80.8521989507049,177.77427808892));
#1765=CARTESIAN_POINT('',(-185.53988625774,77.5751125732958,181.051364466329));
#1766=CARTESIAN_POINT('Origin',(-179.45688625774,77.5751125732958,181.051364466329));
#1767=CARTESIAN_POINT('',(-185.53988625774,83.9233971094222,174.703079930203));
#1768=CARTESIAN_POINT('',(-185.53988625774,80.8521989507049,177.77427808892));
#1769=CARTESIAN_POINT('Origin',(-179.45688625774,83.9233971094222,174.703079930203));
#1770=CARTESIAN_POINT('Origin',(-179.45688625774,77.5751125732958,181.051364466329));
#1771=CARTESIAN_POINT('Origin',(-170.190514562863,64.6762807148356,166.838261392377));
#1772=CARTESIAN_POINT('',(-170.190514562863,67.3307595714099,158.110442392191));
#1773=CARTESIAN_POINT('',(-170.190514562863,86.3823375769192,177.1620203977));
#1774=CARTESIAN_POINT('',(-170.190514562863,81.9620363110267,172.741719131808));
#1775=CARTESIAN_POINT('',(-170.190514562863,53.188623947679,172.252578015922));
#1776=CARTESIAN_POINT('',(-170.190514562863,65.6011763846275,159.840025578973));
#1777=CARTESIAN_POINT('',(-170.190514562863,72.2402019531883,191.304156021431));
#1778=CARTESIAN_POINT('',(-170.190514562863,61.6495294919526,180.713483560195));
#1779=CARTESIAN_POINT('',(-170.190514562863,80.6911886485392,182.85316932608));
#1780=CARTESIAN_POINT('Origin',(-200.19051709606,103.317545170729,174.575423976512));
#1781=CARTESIAN_POINT('',(-193.190516991752,108.757317454005,180.015196259788));
#1782=CARTESIAN_POINT('',(-207.190517200369,77.0916615789089,148.349540384692));
#1783=CARTESIAN_POINT('Origin',(-167.891099172707,87.5110582431915,192.660453451919));
#1784=CARTESIAN_POINT('',(-174.391099172707,87.5110582431915,192.660453451919));
#1785=CARTESIAN_POINT('Origin',(-167.891099172707,87.5110582431915,192.660453451919));
#1786=CARTESIAN_POINT('Origin',(-167.891099172707,84.3859998237375,195.785511871373));
#1787=CARTESIAN_POINT('',(-174.391099172707,84.3859998237375,195.785511871373));
#1788=CARTESIAN_POINT('Origin',(-162.687516887438,80.6134323000605,160.329809747807));
#1789=CARTESIAN_POINT('',(-162.687516887438,91.8468221212218,174.874124594072));
#1790=CARTESIAN_POINT('Origin',(-162.687516887438,91.8468221212218,172.374124594072));
#1791=CARTESIAN_POINT('Origin',(-152.687516887438,91.8468221212218,172.374124594072));
#1792=CARTESIAN_POINT('',(-152.687516887438,91.8468221212218,174.874124594072));
#1793=CARTESIAN_POINT('Origin',(-163.017932938058,77.7530206168837,171.078287849942));
#1794=CARTESIAN_POINT('',(-161.517932938058,79.0258128230224,169.805495643803));
#1795=CARTESIAN_POINT('Origin',(-163.017932938058,79.0258128230224,169.805495643803));
#1796=CARTESIAN_POINT('',(-161.517932938058,93.382908908234,155.448399558592));
#1797=CARTESIAN_POINT('',(-161.517932938058,77.7530206168837,171.078287849942));
#1798=CARTESIAN_POINT('Origin',(-163.017932938058,93.382908908234,155.448399558592));
#1799=CARTESIAN_POINT('Origin',(-194.278827730178,67.0737649644205,186.137719032663));
#1800=CARTESIAN_POINT('',(-204.234672517427,53.1886239476789,172.252578015922));
#1801=CARTESIAN_POINT('',(-152.687514562863,57.7706758897678,176.834629958011));
#1802=CARTESIAN_POINT('',(-181.31917114652,72.2402019531883,191.304156021431));
#1803=CARTESIAN_POINT('Origin',(-168.359514562863,80.6911886485392,182.85316932608));
#1804=CARTESIAN_POINT('',(-169.775015725154,86.3823375769192,177.1620203977));
#1805=CARTESIAN_POINT('Origin',(-171.190516887444,93.5566429788378,184.336325799619));
#1806=CARTESIAN_POINT('',(-152.687516887444,98.9964154465059,189.776098267287));
#1807=CARTESIAN_POINT('',(-171.190516887444,67.3307595714099,158.110442392191));
#1808=CARTESIAN_POINT('',(-166.314765725154,71.9128115134988,162.69249433428));
#1809=CARTESIAN_POINT('Origin',(-200.19051709606,75.0332739232674,202.859695223974));
#1810=CARTESIAN_POINT('',(-152.687516887444,50.2216038938201,178.048025194527));
#1811=CARTESIAN_POINT('',(-212.190517304677,50.2216038938201,178.048025194527));
#1812=CARTESIAN_POINT('',(-207.190517200369,50.2216038938201,178.048025194527));
#1813=CARTESIAN_POINT('',(-152.687516887444,79.0588330129549,206.885254313661));
#1814=CARTESIAN_POINT('',(-152.687516887444,68.8460894956889,196.672510796395));
#1815=CARTESIAN_POINT('',(-212.190517304677,79.0588330129549,206.885254313661));
#1816=CARTESIAN_POINT('',(-193.190516991752,79.0588330129549,206.885254313661));
#1817=CARTESIAN_POINT('',(-212.190517304677,81.2204583508459,209.046879651552));
#1818=CARTESIAN_POINT('Origin',(-151.687516887444,69.5531962768754,195.965404015209));
#1819=CARTESIAN_POINT('',(-150.980410106258,50.2216038938201,175.633811632154));
#1820=CARTESIAN_POINT('Origin',(-151.687516887444,50.2216038938201,176.633811632154));
#1821=CARTESIAN_POINT('',(-152.687516887444,79.0588330129549,206.885254313661));
#1822=CARTESIAN_POINT('',(-152.687516887444,50.2216038938201,178.048025194527));
#1823=CARTESIAN_POINT('Origin',(-193.190516991752,80.473046575328,206.885254313661));
#1824=CARTESIAN_POINT('',(-212.190517304677,79.0588330129549,206.885254313661));
#1825=CARTESIAN_POINT('Origin',(-213.190517304677,81.9275651320325,208.339772870366));
#1826=CARTESIAN_POINT('',(-212.190517304677,50.2216038938201,178.048025194527));
#1827=CARTESIAN_POINT('Origin',(-194.278827730178,95.5729966733631,157.638487323721));
#1828=CARTESIAN_POINT('',(-152.687516887444,111.939297969344,174.004788619702));
#1829=CARTESIAN_POINT('',(-212.190517304677,111.939297969344,174.004788619702));
#1830=CARTESIAN_POINT('',(-190.234672308811,111.939297969344,174.004788619702));
#1831=CARTESIAN_POINT('',(-152.687516887444,83.1020692189946,145.167559869352));
#1832=CARTESIAN_POINT('',(-152.687516887444,95.5561835333239,157.621674183682));
#1833=CARTESIAN_POINT('',(-212.190517304677,83.1020692189946,145.167559869352));
#1834=CARTESIAN_POINT('',(-204.234672517427,83.1020692189946,145.167559869352));
#1835=CARTESIAN_POINT('',(-212.190517304677,107.930552388481,169.996043038839));
#1836=CARTESIAN_POINT('Origin',(-186.190516887444,108.757317454005,180.015196259788));
#1837=CARTESIAN_POINT('',(-190.234672308811,111.939297969344,176.833215744448));
#1838=CARTESIAN_POINT('Origin',(-151.687516887444,94.8490767521374,158.328780964868));
#1839=CARTESIAN_POINT('',(-150.980410106258,80.6878556566215,145.167559869352));
#1840=CARTESIAN_POINT('Origin',(-151.687516887444,81.6878556566215,145.167559869352));
#1841=CARTESIAN_POINT('',(-152.687516887444,83.1020692189946,145.167559869352));
#1842=CARTESIAN_POINT('',(-152.687516887444,111.939297969344,174.004788619702));
#1843=CARTESIAN_POINT('Origin',(-213.190517304677,107.223445607295,170.703149820025));
#1844=CARTESIAN_POINT('',(-212.190517304677,83.1020692189946,145.167559869352));
#1845=CARTESIAN_POINT('',(-212.190517304677,111.939297969344,174.004788619702));
#1846=CARTESIAN_POINT('Origin',(-190.234672308811,111.939297969344,175.419002182075));
#1847=CARTESIAN_POINT('Origin',(-207.190517200369,50.2216038938201,176.633811632154));
#1848=CARTESIAN_POINT('',(-151.687516887444,50.2216038938201,175.219598069781));
#1849=CARTESIAN_POINT('Origin',(-151.687516887444,50.2216038938201,176.633811632154));
#1850=CARTESIAN_POINT('',(-207.190517200369,50.2216038938201,175.219598069781));
#1851=CARTESIAN_POINT('Origin',(-214.190517304677,77.0916615789089,148.349540384692));
#1852=CARTESIAN_POINT('',(-151.687516887444,80.2736420942484,145.167559869352));
#1853=CARTESIAN_POINT('',(-151.687516887444,77.0916615789089,148.349540384692));
#1854=CARTESIAN_POINT('',(-204.234672517427,80.2736420942484,145.167559869352));
#1855=CARTESIAN_POINT('Origin',(-204.234672517427,81.6878556566215,145.167559869352));
#1856=CARTESIAN_POINT('Origin',(-151.687516887444,81.6878556566215,145.167559869352));
#1857=CARTESIAN_POINT('Origin',(-151.687516887444,77.7987683600955,149.056647165878));
#1858=CARTESIAN_POINT('',(-150.687516887444,77.7987683600955,149.056647165878));
#1859=CARTESIAN_POINT('Origin',(-140.044056023647,61.8310332453069,165.024382280667));
#1860=CARTESIAN_POINT('',(-141.544056023647,61.8310332453069,165.024382280667));
#1861=CARTESIAN_POINT('Origin',(-140.044056023647,61.8310332453069,165.024382280667));
#1862=CARTESIAN_POINT('',(-141.544056023647,65.7059784062093,168.899327441569));
#1863=CARTESIAN_POINT('',(-141.544056023647,61.8310332453069,165.024382280667));
#1864=CARTESIAN_POINT('Origin',(-140.044056023647,65.7059784062093,168.899327441569));
#1865=CARTESIAN_POINT('Origin',(-150.687516887444,69.4520799149694,157.403335611004));
#1866=CARTESIAN_POINT('',(-130.687516887444,73.3270250758718,161.278280771907));
#1867=CARTESIAN_POINT('',(-150.687516887444,73.3270250758718,161.278280771907));
#1868=CARTESIAN_POINT('',(-130.687516887444,69.4520799149694,157.403335611004));
#1869=CARTESIAN_POINT('',(-130.687516887444,73.3270250758718,161.278280771907));
#1870=CARTESIAN_POINT('',(-150.687516887444,69.4520799149694,157.403335611004));
#1871=CARTESIAN_POINT('Origin',(-150.687516887444,53.8957307288654,172.959684797108));
#1872=CARTESIAN_POINT('',(-130.687516887444,53.8957307288654,172.959684797108));
#1873=CARTESIAN_POINT('',(-130.687516887444,53.8957307288654,172.959684797108));
#1874=CARTESIAN_POINT('',(-150.687516887444,53.8957307288654,172.959684797108));
#1875=CARTESIAN_POINT('Origin',(-150.687516887444,57.7706758897678,176.834629958011));
#1876=CARTESIAN_POINT('',(-130.687516887444,57.7706758897678,176.834629958011));
#1877=CARTESIAN_POINT('',(-130.687516887444,57.7706758897678,176.834629958011));
#1878=CARTESIAN_POINT('',(-150.687516887444,57.7706758897678,176.834629958011));
#1879=CARTESIAN_POINT('Origin',(-130.687516887444,62.904271121182,167.826089565694));
#1880=CARTESIAN_POINT('',(-130.687516887444,71.9128115134987,162.69249433428));
#1881=CARTESIAN_POINT('Origin',(-161.439014562863,66.2216625851188,168.38364326266));
#1882=UNCERTAINTY_MEASURE_WITH_UNIT(LENGTH_MEASURE(0.01),#1886,
'DISTANCE_ACCURACY_VALUE',
'Maximum model space distance between geometric entities at asserted c
onnectivities');
#1883=UNCERTAINTY_MEASURE_WITH_UNIT(LENGTH_MEASURE(0.01),#1886,
'DISTANCE_ACCURACY_VALUE',
'Maximum model space distance between geometric entities at asserted c
onnectivities');
#1884=(
GEOMETRIC_REPRESENTATION_CONTEXT(3)
GLOBAL_UNCERTAINTY_ASSIGNED_CONTEXT((#1882))
GLOBAL_UNIT_ASSIGNED_CONTEXT((#1886,#1888,#1889))
REPRESENTATION_CONTEXT('','3D')
);
#1885=(
GEOMETRIC_REPRESENTATION_CONTEXT(3)
GLOBAL_UNCERTAINTY_ASSIGNED_CONTEXT((#1883))
GLOBAL_UNIT_ASSIGNED_CONTEXT((#1886,#1888,#1889))
REPRESENTATION_CONTEXT('','3D')
);
#1886=(
LENGTH_UNIT()
NAMED_UNIT(*)
SI_UNIT(.MILLI.,.METRE.)
);
#1887=(
LENGTH_UNIT()
NAMED_UNIT(*)
SI_UNIT($,.METRE.)
);
#1888=(
NAMED_UNIT(*)
PLANE_ANGLE_UNIT()
SI_UNIT($,.RADIAN.)
);
#1889=(
NAMED_UNIT(*)
SI_UNIT($,.STERADIAN.)
SOLID_ANGLE_UNIT()
);
#1890=SHAPE_DEFINITION_REPRESENTATION(#1891,#1892);
#1891=PRODUCT_DEFINITION_SHAPE('',$,#1894);
#1892=SHAPE_REPRESENTATION('',(#1137),#1884);
#1893=PRODUCT_DEFINITION_CONTEXT('part definition',#1898,'design');
#1894=PRODUCT_DEFINITION('XY(1x)','XY(1x) v1',#1895,#1893);
#1895=PRODUCT_DEFINITION_FORMATION('',$,#1900);
#1896=PRODUCT_RELATED_PRODUCT_CATEGORY('XY(1x) v1','XY(1x) v1',(#1900));
#1897=APPLICATION_PROTOCOL_DEFINITION('international standard',
'automotive_design',2009,#1898);
#1898=APPLICATION_CONTEXT(
'Core Data for Automotive Mechanical Design Process');
#1899=PRODUCT_CONTEXT('part definition',#1898,'mechanical');
#1900=PRODUCT('XY(1x)','XY(1x) v1',$,(#1899));
#1901=PRESENTATION_STYLE_ASSIGNMENT((#1903));
#1902=PRESENTATION_STYLE_ASSIGNMENT((#1904));
#1903=SURFACE_STYLE_USAGE(.BOTH.,#1905);
#1904=SURFACE_STYLE_USAGE(.BOTH.,#1906);
#1905=SURFACE_SIDE_STYLE('',(#1907));
#1906=SURFACE_SIDE_STYLE('',(#1908));
#1907=SURFACE_STYLE_FILL_AREA(#1909);
#1908=SURFACE_STYLE_FILL_AREA(#1910);
#1909=FILL_AREA_STYLE('Steel - Satin',(#1911));
#1910=FILL_AREA_STYLE('Aluminum - Anodized Glossy (Grey)',(#1912));
#1911=FILL_AREA_STYLE_COLOUR('Steel - Satin',#1913);
#1912=FILL_AREA_STYLE_COLOUR('Aluminum - Anodized Glossy (Grey)',#1914);
#1913=COLOUR_RGB('Steel - Satin',0.627450980392157,0.627450980392157,0.627450980392157);
#1914=COLOUR_RGB('Aluminum - Anodized Glossy (Grey)',0.537254901960784,
0.537254901960784,0.537254901960784);
ENDSEC;
END-ISO-10303-21;
