ISO-10303-21;
HEADER;
/* Generated by software containing ST-Developer
 * from STEP Tools, Inc. (www.steptools.com) 
 */

FILE_DESCRIPTION(
/* description */ (''),
/* implementation_level */ '2;1');

FILE_NAME(
/* name */ 'xypulley2(1x).step',
/* time_stamp */ '2025-12-01T16:09:49+05:30',
/* author */ (''),
/* organization */ (''),
/* preprocessor_version */ 'ST-DEVELOPER v20.1',
/* originating_system */ 'Autodesk Translation Framework v14.21.0.0',
/* authorisation */ '');

FILE_SCHEMA (('AUTOMOTIVE_DESIGN { 1 0 10303 214 3 1 1 }'));
ENDSEC;

DATA;
#10=MECHANICAL_DESIGN_GEOMETRIC_PRESENTATION_REPRESENTATION('',(#13),#1517);
#11=SHAPE_REPRESENTATION_RELATIONSHIP('SRR','None',#1524,#12);
#12=ADVANCED_BREP_SHAPE_REPRESENTATION('',(#14),#1516);
#13=STYLED_ITEM('',(#1534),#14);
#14=MANIFOLD_SOLID_BREP('xy2pule1',#949);
#15=FACE_BOUND('',#88,.T.);
#16=FACE_BOUND('',#100,.T.);
#17=FACE_BOUND('',#101,.T.);
#18=FACE_BOUND('',#103,.T.);
#19=FACE_BOUND('',#104,.T.);
#20=FACE_BOUND('',#106,.T.);
#21=FACE_BOUND('',#107,.T.);
#22=FACE_BOUND('',#109,.T.);
#23=FACE_BOUND('',#110,.T.);
#24=FACE_BOUND('',#114,.T.);
#25=CIRCLE('',#966,1.49999999999999);
#26=CIRCLE('',#967,1.49999999999999);
#27=CIRCLE('',#978,1.49999999999999);
#28=CIRCLE('',#979,1.49999999999999);
#29=CIRCLE('',#981,1.49999999999999);
#30=CIRCLE('',#982,1.49999999999999);
#31=CIRCLE('',#984,1.5);
#32=CIRCLE('',#986,1.5);
#33=CIRCLE('',#988,1.5);
#34=CIRCLE('',#990,1.5);
#35=CYLINDRICAL_SURFACE('',#965,1.49999999999999);
#36=CYLINDRICAL_SURFACE('',#977,1.49999999999999);
#37=CYLINDRICAL_SURFACE('',#980,1.49999999999999);
#38=CYLINDRICAL_SURFACE('',#999,1.5);
#39=CYLINDRICAL_SURFACE('',#1000,1.5);
#40=FACE_OUTER_BOUND('',#84,.T.);
#41=FACE_OUTER_BOUND('',#85,.T.);
#42=FACE_OUTER_BOUND('',#86,.T.);
#43=FACE_OUTER_BOUND('',#87,.T.);
#44=FACE_OUTER_BOUND('',#89,.T.);
#45=FACE_OUTER_BOUND('',#90,.T.);
#46=FACE_OUTER_BOUND('',#91,.T.);
#47=FACE_OUTER_BOUND('',#92,.T.);
#48=FACE_OUTER_BOUND('',#93,.T.);
#49=FACE_OUTER_BOUND('',#94,.T.);
#50=FACE_OUTER_BOUND('',#95,.T.);
#51=FACE_OUTER_BOUND('',#96,.T.);
#52=FACE_OUTER_BOUND('',#97,.T.);
#53=FACE_OUTER_BOUND('',#98,.T.);
#54=FACE_OUTER_BOUND('',#99,.T.);
#55=FACE_OUTER_BOUND('',#102,.T.);
#56=FACE_OUTER_BOUND('',#105,.T.);
#57=FACE_OUTER_BOUND('',#108,.T.);
#58=FACE_OUTER_BOUND('',#111,.T.);
#59=FACE_OUTER_BOUND('',#112,.T.);
#60=FACE_OUTER_BOUND('',#113,.T.);
#61=FACE_OUTER_BOUND('',#115,.T.);
#62=FACE_OUTER_BOUND('',#116,.T.);
#63=FACE_OUTER_BOUND('',#117,.T.);
#64=FACE_OUTER_BOUND('',#118,.T.);
#65=FACE_OUTER_BOUND('',#119,.T.);
#66=FACE_OUTER_BOUND('',#120,.T.);
#67=FACE_OUTER_BOUND('',#121,.T.);
#68=FACE_OUTER_BOUND('',#122,.T.);
#69=FACE_OUTER_BOUND('',#123,.T.);
#70=FACE_OUTER_BOUND('',#124,.T.);
#71=FACE_OUTER_BOUND('',#125,.T.);
#72=FACE_OUTER_BOUND('',#126,.T.);
#73=FACE_OUTER_BOUND('',#127,.T.);
#74=FACE_OUTER_BOUND('',#128,.T.);
#75=FACE_OUTER_BOUND('',#129,.T.);
#76=FACE_OUTER_BOUND('',#130,.T.);
#77=FACE_OUTER_BOUND('',#131,.T.);
#78=FACE_OUTER_BOUND('',#132,.T.);
#79=FACE_OUTER_BOUND('',#133,.T.);
#80=FACE_OUTER_BOUND('',#134,.T.);
#81=FACE_OUTER_BOUND('',#135,.T.);
#82=FACE_OUTER_BOUND('',#136,.T.);
#83=FACE_OUTER_BOUND('',#137,.T.);
#84=EDGE_LOOP('',(#602,#603,#604,#605));
#85=EDGE_LOOP('',(#606,#607,#608,#609));
#86=EDGE_LOOP('',(#610,#611,#612,#613));
#87=EDGE_LOOP('',(#614,#615,#616,#617));
#88=EDGE_LOOP('',(#618,#619,#620));
#89=EDGE_LOOP('',(#621,#622,#623,#624));
#90=EDGE_LOOP('',(#625,#626,#627,#628));
#91=EDGE_LOOP('',(#629,#630,#631,#632));
#92=EDGE_LOOP('',(#633,#634,#635,#636));
#93=EDGE_LOOP('',(#637,#638,#639,#640));
#94=EDGE_LOOP('',(#641,#642,#643,#644));
#95=EDGE_LOOP('',(#645,#646,#647,#648));
#96=EDGE_LOOP('',(#649,#650,#651,#652));
#97=EDGE_LOOP('',(#653,#654,#655,#656));
#98=EDGE_LOOP('',(#657,#658,#659,#660));
#99=EDGE_LOOP('',(#661,#662,#663,#664,#665,#666,#667,#668,#669,#670));
#100=EDGE_LOOP('',(#671,#672,#673));
#101=EDGE_LOOP('',(#674,#675,#676));
#102=EDGE_LOOP('',(#677,#678,#679,#680,#681,#682,#683,#684,#685,#686));
#103=EDGE_LOOP('',(#687,#688,#689));
#104=EDGE_LOOP('',(#690,#691,#692));
#105=EDGE_LOOP('',(#693,#694,#695,#696,#697,#698,#699,#700,#701,#702));
#106=EDGE_LOOP('',(#703,#704,#705));
#107=EDGE_LOOP('',(#706,#707,#708));
#108=EDGE_LOOP('',(#709,#710,#711,#712,#713,#714,#715,#716,#717,#718));
#109=EDGE_LOOP('',(#719,#720,#721));
#110=EDGE_LOOP('',(#722,#723,#724));
#111=EDGE_LOOP('',(#725,#726,#727,#728,#729,#730));
#112=EDGE_LOOP('',(#731,#732,#733,#734,#735,#736,#737,#738,#739,#740,#741,
#742,#743));
#113=EDGE_LOOP('',(#744,#745,#746,#747));
#114=EDGE_LOOP('',(#748,#749,#750));
#115=EDGE_LOOP('',(#751,#752,#753,#754));
#116=EDGE_LOOP('',(#755,#756,#757,#758));
#117=EDGE_LOOP('',(#759,#760,#761,#762));
#118=EDGE_LOOP('',(#763,#764,#765,#766));
#119=EDGE_LOOP('',(#767,#768,#769,#770,#771,#772));
#120=EDGE_LOOP('',(#773,#774,#775,#776));
#121=EDGE_LOOP('',(#777,#778,#779,#780));
#122=EDGE_LOOP('',(#781,#782,#783,#784));
#123=EDGE_LOOP('',(#785,#786,#787,#788));
#124=EDGE_LOOP('',(#789,#790,#791,#792));
#125=EDGE_LOOP('',(#793,#794,#795,#796));
#126=EDGE_LOOP('',(#797,#798,#799,#800));
#127=EDGE_LOOP('',(#801,#802,#803,#804));
#128=EDGE_LOOP('',(#805,#806,#807,#808));
#129=EDGE_LOOP('',(#809,#810,#811,#812));
#130=EDGE_LOOP('',(#813,#814,#815,#816));
#131=EDGE_LOOP('',(#817,#818,#819,#820,#821,#822,#823,#824,#825,#826));
#132=EDGE_LOOP('',(#827,#828,#829,#830));
#133=EDGE_LOOP('',(#831,#832,#833,#834));
#134=EDGE_LOOP('',(#835,#836,#837,#838));
#135=EDGE_LOOP('',(#839,#840,#841,#842,#843,#844,#845,#846,#847,#848,#849));
#136=EDGE_LOOP('',(#850,#851,#852,#853,#854,#855,#856,#857,#858,#859,#860,
#861));
#137=EDGE_LOOP('',(#862,#863,#864,#865));
#138=LINE('',#1253,#260);
#139=LINE('',#1255,#261);
#140=LINE('',#1257,#262);
#141=LINE('',#1258,#263);
#142=LINE('',#1261,#264);
#143=LINE('',#1263,#265);
#144=LINE('',#1264,#266);
#145=LINE('',#1271,#267);
#146=LINE('',#1273,#268);
#147=LINE('',#1275,#269);
#148=LINE('',#1276,#270);
#149=LINE('',#1280,#271);
#150=LINE('',#1282,#272);
#151=LINE('',#1284,#273);
#152=LINE('',#1285,#274);
#153=LINE('',#1289,#275);
#154=LINE('',#1291,#276);
#155=LINE('',#1293,#277);
#156=LINE('',#1294,#278);
#157=LINE('',#1297,#279);
#158=LINE('',#1299,#280);
#159=LINE('',#1300,#281);
#160=LINE('',#1303,#282);
#161=LINE('',#1305,#283);
#162=LINE('',#1306,#284);
#163=LINE('',#1310,#285);
#164=LINE('',#1312,#286);
#165=LINE('',#1314,#287);
#166=LINE('',#1315,#288);
#167=LINE('',#1318,#289);
#168=LINE('',#1320,#290);
#169=LINE('',#1321,#291);
#170=LINE('',#1325,#292);
#171=LINE('',#1327,#293);
#172=LINE('',#1329,#294);
#173=LINE('',#1330,#295);
#174=LINE('',#1333,#296);
#175=LINE('',#1335,#297);
#176=LINE('',#1336,#298);
#177=LINE('',#1346,#299);
#178=LINE('',#1348,#300);
#179=LINE('',#1350,#301);
#180=LINE('',#1352,#302);
#181=LINE('',#1354,#303);
#182=LINE('',#1356,#304);
#183=LINE('',#1358,#305);
#184=LINE('',#1360,#306);
#185=LINE('',#1362,#307);
#186=LINE('',#1363,#308);
#187=LINE('',#1368,#309);
#188=LINE('',#1370,#310);
#189=LINE('',#1372,#311);
#190=LINE('',#1374,#312);
#191=LINE('',#1376,#313);
#192=LINE('',#1377,#314);
#193=LINE('',#1379,#315);
#194=LINE('',#1381,#316);
#195=LINE('',#1382,#317);
#196=LINE('',#1387,#318);
#197=LINE('',#1389,#319);
#198=LINE('',#1391,#320);
#199=LINE('',#1393,#321);
#200=LINE('',#1395,#322);
#201=LINE('',#1397,#323);
#202=LINE('',#1399,#324);
#203=LINE('',#1401,#325);
#204=LINE('',#1403,#326);
#205=LINE('',#1404,#327);
#206=LINE('',#1409,#328);
#207=LINE('',#1411,#329);
#208=LINE('',#1413,#330);
#209=LINE('',#1415,#331);
#210=LINE('',#1417,#332);
#211=LINE('',#1419,#333);
#212=LINE('',#1420,#334);
#213=LINE('',#1422,#335);
#214=LINE('',#1423,#336);
#215=LINE('',#1428,#337);
#216=LINE('',#1430,#338);
#217=LINE('',#1432,#339);
#218=LINE('',#1434,#340);
#219=LINE('',#1436,#341);
#220=LINE('',#1437,#342);
#221=LINE('',#1440,#343);
#222=LINE('',#1442,#344);
#223=LINE('',#1443,#345);
#224=LINE('',#1445,#346);
#225=LINE('',#1446,#347);
#226=LINE('',#1447,#348);
#227=LINE('',#1448,#349);
#228=LINE('',#1449,#350);
#229=LINE('',#1452,#351);
#230=LINE('',#1454,#352);
#231=LINE('',#1455,#353);
#232=LINE('',#1458,#354);
#233=LINE('',#1460,#355);
#234=LINE('',#1461,#356);
#235=LINE('',#1464,#357);
#236=LINE('',#1465,#358);
#237=LINE('',#1468,#359);
#238=LINE('',#1469,#360);
#239=LINE('',#1471,#361);
#240=LINE('',#1473,#362);
#241=LINE('',#1478,#363);
#242=LINE('',#1479,#364);
#243=LINE('',#1481,#365);
#244=LINE('',#1482,#366);
#245=LINE('',#1484,#367);
#246=LINE('',#1486,#368);
#247=LINE('',#1488,#369);
#248=LINE('',#1490,#370);
#249=LINE('',#1491,#371);
#250=LINE('',#1495,#372);
#251=LINE('',#1498,#373);
#252=LINE('',#1499,#374);
#253=LINE('',#1500,#375);
#254=LINE('',#1501,#376);
#255=LINE('',#1504,#377);
#256=LINE('',#1505,#378);
#257=LINE('',#1507,#379);
#258=LINE('',#1509,#380);
#259=LINE('',#1511,#381);
#260=VECTOR('',#1021,10.);
#261=VECTOR('',#1022,10.);
#262=VECTOR('',#1023,10.);
#263=VECTOR('',#1024,10.);
#264=VECTOR('',#1027,10.);
#265=VECTOR('',#1028,10.);
#266=VECTOR('',#1029,10.);
#267=VECTOR('',#1038,10.);
#268=VECTOR('',#1039,10.);
#269=VECTOR('',#1040,10.);
#270=VECTOR('',#1041,10.);
#271=VECTOR('',#1044,10.);
#272=VECTOR('',#1045,10.);
#273=VECTOR('',#1046,10.);
#274=VECTOR('',#1047,10.);
#275=VECTOR('',#1050,10.);
#276=VECTOR('',#1051,10.);
#277=VECTOR('',#1052,10.);
#278=VECTOR('',#1053,10.);
#279=VECTOR('',#1056,10.);
#280=VECTOR('',#1057,10.);
#281=VECTOR('',#1058,10.);
#282=VECTOR('',#1061,10.);
#283=VECTOR('',#1062,10.);
#284=VECTOR('',#1063,10.);
#285=VECTOR('',#1066,10.);
#286=VECTOR('',#1067,10.);
#287=VECTOR('',#1068,10.);
#288=VECTOR('',#1069,10.);
#289=VECTOR('',#1072,10.);
#290=VECTOR('',#1073,10.);
#291=VECTOR('',#1074,10.);
#292=VECTOR('',#1077,10.);
#293=VECTOR('',#1078,10.);
#294=VECTOR('',#1079,10.);
#295=VECTOR('',#1080,10.);
#296=VECTOR('',#1083,10.);
#297=VECTOR('',#1084,10.);
#298=VECTOR('',#1085,10.);
#299=VECTOR('',#1100,10.);
#300=VECTOR('',#1101,10.);
#301=VECTOR('',#1102,10.);
#302=VECTOR('',#1103,10.);
#303=VECTOR('',#1104,10.);
#304=VECTOR('',#1105,10.);
#305=VECTOR('',#1106,10.);
#306=VECTOR('',#1107,10.);
#307=VECTOR('',#1108,10.);
#308=VECTOR('',#1109,10.);
#309=VECTOR('',#1114,10.);
#310=VECTOR('',#1115,10.);
#311=VECTOR('',#1116,10.);
#312=VECTOR('',#1117,10.);
#313=VECTOR('',#1118,10.);
#314=VECTOR('',#1119,10.);
#315=VECTOR('',#1120,10.);
#316=VECTOR('',#1121,10.);
#317=VECTOR('',#1122,10.);
#318=VECTOR('',#1127,10.);
#319=VECTOR('',#1128,10.);
#320=VECTOR('',#1129,10.);
#321=VECTOR('',#1130,10.);
#322=VECTOR('',#1131,10.);
#323=VECTOR('',#1132,10.);
#324=VECTOR('',#1133,10.);
#325=VECTOR('',#1134,10.);
#326=VECTOR('',#1135,10.);
#327=VECTOR('',#1136,10.);
#328=VECTOR('',#1141,10.);
#329=VECTOR('',#1142,10.);
#330=VECTOR('',#1143,10.);
#331=VECTOR('',#1144,10.);
#332=VECTOR('',#1145,10.);
#333=VECTOR('',#1146,10.);
#334=VECTOR('',#1147,10.);
#335=VECTOR('',#1148,10.);
#336=VECTOR('',#1149,10.);
#337=VECTOR('',#1154,10.);
#338=VECTOR('',#1155,10.);
#339=VECTOR('',#1156,10.);
#340=VECTOR('',#1157,10.);
#341=VECTOR('',#1158,10.);
#342=VECTOR('',#1159,10.);
#343=VECTOR('',#1162,10.);
#344=VECTOR('',#1163,10.);
#345=VECTOR('',#1164,10.);
#346=VECTOR('',#1165,10.);
#347=VECTOR('',#1166,10.);
#348=VECTOR('',#1167,10.);
#349=VECTOR('',#1168,10.);
#350=VECTOR('',#1169,10.);
#351=VECTOR('',#1172,10.);
#352=VECTOR('',#1173,10.);
#353=VECTOR('',#1174,10.);
#354=VECTOR('',#1177,10.);
#355=VECTOR('',#1178,10.);
#356=VECTOR('',#1179,10.);
#357=VECTOR('',#1182,10.);
#358=VECTOR('',#1183,10.);
#359=VECTOR('',#1186,10.);
#360=VECTOR('',#1187,10.);
#361=VECTOR('',#1190,10.);
#362=VECTOR('',#1193,10.);
#363=VECTOR('',#1200,10.);
#364=VECTOR('',#1201,10.);
#365=VECTOR('',#1204,10.);
#366=VECTOR('',#1205,10.);
#367=VECTOR('',#1208,10.);
#368=VECTOR('',#1211,10.);
#369=VECTOR('',#1214,10.);
#370=VECTOR('',#1217,10.);
#371=VECTOR('',#1218,10.);
#372=VECTOR('',#1225,10.);
#373=VECTOR('',#1228,10.);
#374=VECTOR('',#1229,10.);
#375=VECTOR('',#1230,10.);
#376=VECTOR('',#1231,10.);
#377=VECTOR('',#1234,10.);
#378=VECTOR('',#1235,10.);
#379=VECTOR('',#1238,10.);
#380=VECTOR('',#1241,10.);
#381=VECTOR('',#1244,10.);
#382=VERTEX_POINT('',#1251);
#383=VERTEX_POINT('',#1252);
#384=VERTEX_POINT('',#1254);
#385=VERTEX_POINT('',#1256);
#386=VERTEX_POINT('',#1260);
#387=VERTEX_POINT('',#1262);
#388=VERTEX_POINT('',#1269);
#389=VERTEX_POINT('',#1270);
#390=VERTEX_POINT('',#1272);
#391=VERTEX_POINT('',#1274);
#392=VERTEX_POINT('',#1278);
#393=VERTEX_POINT('',#1279);
#394=VERTEX_POINT('',#1281);
#395=VERTEX_POINT('',#1283);
#396=VERTEX_POINT('',#1287);
#397=VERTEX_POINT('',#1288);
#398=VERTEX_POINT('',#1290);
#399=VERTEX_POINT('',#1292);
#400=VERTEX_POINT('',#1296);
#401=VERTEX_POINT('',#1298);
#402=VERTEX_POINT('',#1302);
#403=VERTEX_POINT('',#1304);
#404=VERTEX_POINT('',#1308);
#405=VERTEX_POINT('',#1309);
#406=VERTEX_POINT('',#1311);
#407=VERTEX_POINT('',#1313);
#408=VERTEX_POINT('',#1317);
#409=VERTEX_POINT('',#1319);
#410=VERTEX_POINT('',#1323);
#411=VERTEX_POINT('',#1324);
#412=VERTEX_POINT('',#1326);
#413=VERTEX_POINT('',#1328);
#414=VERTEX_POINT('',#1332);
#415=VERTEX_POINT('',#1334);
#416=VERTEX_POINT('',#1344);
#417=VERTEX_POINT('',#1345);
#418=VERTEX_POINT('',#1347);
#419=VERTEX_POINT('',#1349);
#420=VERTEX_POINT('',#1351);
#421=VERTEX_POINT('',#1353);
#422=VERTEX_POINT('',#1355);
#423=VERTEX_POINT('',#1357);
#424=VERTEX_POINT('',#1359);
#425=VERTEX_POINT('',#1361);
#426=VERTEX_POINT('',#1366);
#427=VERTEX_POINT('',#1367);
#428=VERTEX_POINT('',#1369);
#429=VERTEX_POINT('',#1371);
#430=VERTEX_POINT('',#1373);
#431=VERTEX_POINT('',#1375);
#432=VERTEX_POINT('',#1378);
#433=VERTEX_POINT('',#1380);
#434=VERTEX_POINT('',#1385);
#435=VERTEX_POINT('',#1386);
#436=VERTEX_POINT('',#1388);
#437=VERTEX_POINT('',#1390);
#438=VERTEX_POINT('',#1392);
#439=VERTEX_POINT('',#1394);
#440=VERTEX_POINT('',#1396);
#441=VERTEX_POINT('',#1398);
#442=VERTEX_POINT('',#1400);
#443=VERTEX_POINT('',#1402);
#444=VERTEX_POINT('',#1407);
#445=VERTEX_POINT('',#1408);
#446=VERTEX_POINT('',#1410);
#447=VERTEX_POINT('',#1412);
#448=VERTEX_POINT('',#1414);
#449=VERTEX_POINT('',#1416);
#450=VERTEX_POINT('',#1418);
#451=VERTEX_POINT('',#1421);
#452=VERTEX_POINT('',#1426);
#453=VERTEX_POINT('',#1427);
#454=VERTEX_POINT('',#1429);
#455=VERTEX_POINT('',#1431);
#456=VERTEX_POINT('',#1433);
#457=VERTEX_POINT('',#1435);
#458=VERTEX_POINT('',#1439);
#459=VERTEX_POINT('',#1441);
#460=VERTEX_POINT('',#1444);
#461=VERTEX_POINT('',#1451);
#462=VERTEX_POINT('',#1453);
#463=VERTEX_POINT('',#1457);
#464=VERTEX_POINT('',#1459);
#465=VERTEX_POINT('',#1463);
#466=VERTEX_POINT('',#1467);
#467=VERTEX_POINT('',#1477);
#468=VERTEX_POINT('',#1497);
#469=VERTEX_POINT('',#1503);
#470=EDGE_CURVE('',#382,#383,#138,.T.);
#471=EDGE_CURVE('',#383,#384,#139,.T.);
#472=EDGE_CURVE('',#384,#385,#140,.T.);
#473=EDGE_CURVE('',#385,#382,#141,.T.);
#474=EDGE_CURVE('',#386,#382,#142,.T.);
#475=EDGE_CURVE('',#385,#387,#143,.T.);
#476=EDGE_CURVE('',#386,#387,#144,.T.);
#477=EDGE_CURVE('',#384,#387,#25,.T.);
#478=EDGE_CURVE('',#383,#386,#26,.T.);
#479=EDGE_CURVE('',#388,#389,#145,.T.);
#480=EDGE_CURVE('',#390,#388,#146,.T.);
#481=EDGE_CURVE('',#391,#390,#147,.T.);
#482=EDGE_CURVE('',#391,#389,#148,.T.);
#483=EDGE_CURVE('',#392,#393,#149,.T.);
#484=EDGE_CURVE('',#393,#394,#150,.T.);
#485=EDGE_CURVE('',#394,#395,#151,.T.);
#486=EDGE_CURVE('',#395,#392,#152,.T.);
#487=EDGE_CURVE('',#396,#397,#153,.T.);
#488=EDGE_CURVE('',#397,#398,#154,.T.);
#489=EDGE_CURVE('',#398,#399,#155,.T.);
#490=EDGE_CURVE('',#399,#396,#156,.T.);
#491=EDGE_CURVE('',#400,#392,#157,.T.);
#492=EDGE_CURVE('',#395,#401,#158,.T.);
#493=EDGE_CURVE('',#400,#401,#159,.T.);
#494=EDGE_CURVE('',#402,#396,#160,.T.);
#495=EDGE_CURVE('',#399,#403,#161,.T.);
#496=EDGE_CURVE('',#402,#403,#162,.T.);
#497=EDGE_CURVE('',#404,#405,#163,.T.);
#498=EDGE_CURVE('',#406,#405,#164,.T.);
#499=EDGE_CURVE('',#406,#407,#165,.T.);
#500=EDGE_CURVE('',#407,#404,#166,.T.);
#501=EDGE_CURVE('',#405,#408,#167,.T.);
#502=EDGE_CURVE('',#409,#408,#168,.T.);
#503=EDGE_CURVE('',#409,#406,#169,.T.);
#504=EDGE_CURVE('',#410,#411,#170,.T.);
#505=EDGE_CURVE('',#412,#411,#171,.T.);
#506=EDGE_CURVE('',#412,#413,#172,.T.);
#507=EDGE_CURVE('',#413,#410,#173,.T.);
#508=EDGE_CURVE('',#414,#410,#174,.T.);
#509=EDGE_CURVE('',#413,#415,#175,.T.);
#510=EDGE_CURVE('',#415,#414,#176,.T.);
#511=EDGE_CURVE('',#402,#397,#27,.T.);
#512=EDGE_CURVE('',#398,#403,#28,.T.);
#513=EDGE_CURVE('',#401,#394,#29,.T.);
#514=EDGE_CURVE('',#393,#400,#30,.T.);
#515=EDGE_CURVE('',#416,#417,#177,.T.);
#516=EDGE_CURVE('',#418,#416,#178,.T.);
#517=EDGE_CURVE('',#419,#418,#179,.T.);
#518=EDGE_CURVE('',#420,#419,#180,.T.);
#519=EDGE_CURVE('',#420,#421,#181,.T.);
#520=EDGE_CURVE('',#421,#422,#182,.T.);
#521=EDGE_CURVE('',#422,#423,#183,.T.);
#522=EDGE_CURVE('',#423,#424,#184,.T.);
#523=EDGE_CURVE('',#425,#424,#185,.T.);
#524=EDGE_CURVE('',#417,#425,#186,.T.);
#525=EDGE_CURVE('',#414,#411,#31,.T.);
#526=EDGE_CURVE('',#426,#427,#187,.T.);
#527=EDGE_CURVE('',#428,#426,#188,.T.);
#528=EDGE_CURVE('',#428,#429,#189,.T.);
#529=EDGE_CURVE('',#429,#430,#190,.T.);
#530=EDGE_CURVE('',#430,#431,#191,.T.);
#531=EDGE_CURVE('',#391,#431,#192,.T.);
#532=EDGE_CURVE('',#432,#390,#193,.T.);
#533=EDGE_CURVE('',#433,#432,#194,.T.);
#534=EDGE_CURVE('',#433,#427,#195,.T.);
#535=EDGE_CURVE('',#415,#412,#32,.T.);
#536=EDGE_CURVE('',#434,#435,#196,.T.);
#537=EDGE_CURVE('',#434,#436,#197,.T.);
#538=EDGE_CURVE('',#437,#436,#198,.T.);
#539=EDGE_CURVE('',#437,#438,#199,.T.);
#540=EDGE_CURVE('',#439,#438,#200,.T.);
#541=EDGE_CURVE('',#440,#439,#201,.T.);
#542=EDGE_CURVE('',#440,#441,#202,.T.);
#543=EDGE_CURVE('',#442,#441,#203,.T.);
#544=EDGE_CURVE('',#443,#442,#204,.T.);
#545=EDGE_CURVE('',#435,#443,#205,.T.);
#546=EDGE_CURVE('',#407,#409,#33,.T.);
#547=EDGE_CURVE('',#444,#445,#206,.T.);
#548=EDGE_CURVE('',#446,#444,#207,.T.);
#549=EDGE_CURVE('',#447,#446,#208,.T.);
#550=EDGE_CURVE('',#448,#447,#209,.T.);
#551=EDGE_CURVE('',#449,#448,#210,.T.);
#552=EDGE_CURVE('',#450,#449,#211,.T.);
#553=EDGE_CURVE('',#388,#450,#212,.T.);
#554=EDGE_CURVE('',#389,#451,#213,.T.);
#555=EDGE_CURVE('',#451,#445,#214,.T.);
#556=EDGE_CURVE('',#408,#404,#34,.T.);
#557=EDGE_CURVE('',#452,#453,#215,.T.);
#558=EDGE_CURVE('',#454,#452,#216,.T.);
#559=EDGE_CURVE('',#455,#454,#217,.T.);
#560=EDGE_CURVE('',#456,#455,#218,.T.);
#561=EDGE_CURVE('',#457,#456,#219,.T.);
#562=EDGE_CURVE('',#453,#457,#220,.T.);
#563=EDGE_CURVE('',#453,#458,#221,.T.);
#564=EDGE_CURVE('',#458,#459,#222,.T.);
#565=EDGE_CURVE('',#441,#459,#223,.T.);
#566=EDGE_CURVE('',#440,#460,#224,.T.);
#567=EDGE_CURVE('',#460,#449,#225,.T.);
#568=EDGE_CURVE('',#448,#427,#226,.T.);
#569=EDGE_CURVE('',#433,#418,#227,.T.);
#570=EDGE_CURVE('',#416,#452,#228,.T.);
#571=EDGE_CURVE('',#420,#461,#229,.T.);
#572=EDGE_CURVE('',#461,#462,#230,.T.);
#573=EDGE_CURVE('',#421,#462,#231,.T.);
#574=EDGE_CURVE('',#435,#463,#232,.T.);
#575=EDGE_CURVE('',#463,#464,#233,.T.);
#576=EDGE_CURVE('',#434,#464,#234,.T.);
#577=EDGE_CURVE('',#443,#465,#235,.T.);
#578=EDGE_CURVE('',#465,#463,#236,.T.);
#579=EDGE_CURVE('',#442,#466,#237,.T.);
#580=EDGE_CURVE('',#466,#465,#238,.T.);
#581=EDGE_CURVE('',#459,#466,#239,.T.);
#582=EDGE_CURVE('',#464,#458,#240,.T.);
#583=EDGE_CURVE('',#450,#467,#241,.T.);
#584=EDGE_CURVE('',#467,#460,#242,.T.);
#585=EDGE_CURVE('',#444,#429,#243,.T.);
#586=EDGE_CURVE('',#445,#430,#244,.T.);
#587=EDGE_CURVE('',#417,#454,#245,.T.);
#588=EDGE_CURVE('',#447,#426,#246,.T.);
#589=EDGE_CURVE('',#446,#428,#247,.T.);
#590=EDGE_CURVE('',#424,#456,#248,.T.);
#591=EDGE_CURVE('',#425,#455,#249,.T.);
#592=EDGE_CURVE('',#423,#457,#250,.T.);
#593=EDGE_CURVE('',#462,#468,#251,.T.);
#594=EDGE_CURVE('',#437,#468,#252,.T.);
#595=EDGE_CURVE('',#436,#451,#253,.T.);
#596=EDGE_CURVE('',#431,#422,#254,.T.);
#597=EDGE_CURVE('',#468,#469,#255,.T.);
#598=EDGE_CURVE('',#438,#469,#256,.T.);
#599=EDGE_CURVE('',#469,#461,#257,.T.);
#600=EDGE_CURVE('',#419,#432,#258,.T.);
#601=EDGE_CURVE('',#467,#439,#259,.T.);
#602=ORIENTED_EDGE('',*,*,#470,.T.);
#603=ORIENTED_EDGE('',*,*,#471,.T.);
#604=ORIENTED_EDGE('',*,*,#472,.T.);
#605=ORIENTED_EDGE('',*,*,#473,.T.);
#606=ORIENTED_EDGE('',*,*,#474,.T.);
#607=ORIENTED_EDGE('',*,*,#473,.F.);
#608=ORIENTED_EDGE('',*,*,#475,.T.);
#609=ORIENTED_EDGE('',*,*,#476,.F.);
#610=ORIENTED_EDGE('',*,*,#476,.T.);
#611=ORIENTED_EDGE('',*,*,#477,.F.);
#612=ORIENTED_EDGE('',*,*,#471,.F.);
#613=ORIENTED_EDGE('',*,*,#478,.T.);
#614=ORIENTED_EDGE('',*,*,#479,.F.);
#615=ORIENTED_EDGE('',*,*,#480,.F.);
#616=ORIENTED_EDGE('',*,*,#481,.F.);
#617=ORIENTED_EDGE('',*,*,#482,.T.);
#618=ORIENTED_EDGE('',*,*,#474,.F.);
#619=ORIENTED_EDGE('',*,*,#478,.F.);
#620=ORIENTED_EDGE('',*,*,#470,.F.);
#621=ORIENTED_EDGE('',*,*,#483,.T.);
#622=ORIENTED_EDGE('',*,*,#484,.T.);
#623=ORIENTED_EDGE('',*,*,#485,.T.);
#624=ORIENTED_EDGE('',*,*,#486,.T.);
#625=ORIENTED_EDGE('',*,*,#487,.T.);
#626=ORIENTED_EDGE('',*,*,#488,.T.);
#627=ORIENTED_EDGE('',*,*,#489,.T.);
#628=ORIENTED_EDGE('',*,*,#490,.T.);
#629=ORIENTED_EDGE('',*,*,#491,.T.);
#630=ORIENTED_EDGE('',*,*,#486,.F.);
#631=ORIENTED_EDGE('',*,*,#492,.T.);
#632=ORIENTED_EDGE('',*,*,#493,.F.);
#633=ORIENTED_EDGE('',*,*,#494,.T.);
#634=ORIENTED_EDGE('',*,*,#490,.F.);
#635=ORIENTED_EDGE('',*,*,#495,.T.);
#636=ORIENTED_EDGE('',*,*,#496,.F.);
#637=ORIENTED_EDGE('',*,*,#497,.T.);
#638=ORIENTED_EDGE('',*,*,#498,.F.);
#639=ORIENTED_EDGE('',*,*,#499,.T.);
#640=ORIENTED_EDGE('',*,*,#500,.T.);
#641=ORIENTED_EDGE('',*,*,#501,.T.);
#642=ORIENTED_EDGE('',*,*,#502,.F.);
#643=ORIENTED_EDGE('',*,*,#503,.T.);
#644=ORIENTED_EDGE('',*,*,#498,.T.);
#645=ORIENTED_EDGE('',*,*,#504,.T.);
#646=ORIENTED_EDGE('',*,*,#505,.F.);
#647=ORIENTED_EDGE('',*,*,#506,.T.);
#648=ORIENTED_EDGE('',*,*,#507,.T.);
#649=ORIENTED_EDGE('',*,*,#508,.T.);
#650=ORIENTED_EDGE('',*,*,#507,.F.);
#651=ORIENTED_EDGE('',*,*,#509,.T.);
#652=ORIENTED_EDGE('',*,*,#510,.T.);
#653=ORIENTED_EDGE('',*,*,#488,.F.);
#654=ORIENTED_EDGE('',*,*,#511,.F.);
#655=ORIENTED_EDGE('',*,*,#496,.T.);
#656=ORIENTED_EDGE('',*,*,#512,.F.);
#657=ORIENTED_EDGE('',*,*,#493,.T.);
#658=ORIENTED_EDGE('',*,*,#513,.T.);
#659=ORIENTED_EDGE('',*,*,#484,.F.);
#660=ORIENTED_EDGE('',*,*,#514,.T.);
#661=ORIENTED_EDGE('',*,*,#515,.F.);
#662=ORIENTED_EDGE('',*,*,#516,.F.);
#663=ORIENTED_EDGE('',*,*,#517,.F.);
#664=ORIENTED_EDGE('',*,*,#518,.F.);
#665=ORIENTED_EDGE('',*,*,#519,.T.);
#666=ORIENTED_EDGE('',*,*,#520,.T.);
#667=ORIENTED_EDGE('',*,*,#521,.T.);
#668=ORIENTED_EDGE('',*,*,#522,.T.);
#669=ORIENTED_EDGE('',*,*,#523,.F.);
#670=ORIENTED_EDGE('',*,*,#524,.F.);
#671=ORIENTED_EDGE('',*,*,#508,.F.);
#672=ORIENTED_EDGE('',*,*,#525,.T.);
#673=ORIENTED_EDGE('',*,*,#504,.F.);
#674=ORIENTED_EDGE('',*,*,#487,.F.);
#675=ORIENTED_EDGE('',*,*,#494,.F.);
#676=ORIENTED_EDGE('',*,*,#511,.T.);
#677=ORIENTED_EDGE('',*,*,#526,.F.);
#678=ORIENTED_EDGE('',*,*,#527,.F.);
#679=ORIENTED_EDGE('',*,*,#528,.T.);
#680=ORIENTED_EDGE('',*,*,#529,.T.);
#681=ORIENTED_EDGE('',*,*,#530,.T.);
#682=ORIENTED_EDGE('',*,*,#531,.F.);
#683=ORIENTED_EDGE('',*,*,#481,.T.);
#684=ORIENTED_EDGE('',*,*,#532,.F.);
#685=ORIENTED_EDGE('',*,*,#533,.F.);
#686=ORIENTED_EDGE('',*,*,#534,.T.);
#687=ORIENTED_EDGE('',*,*,#506,.F.);
#688=ORIENTED_EDGE('',*,*,#535,.F.);
#689=ORIENTED_EDGE('',*,*,#509,.F.);
#690=ORIENTED_EDGE('',*,*,#489,.F.);
#691=ORIENTED_EDGE('',*,*,#512,.T.);
#692=ORIENTED_EDGE('',*,*,#495,.F.);
#693=ORIENTED_EDGE('',*,*,#536,.F.);
#694=ORIENTED_EDGE('',*,*,#537,.T.);
#695=ORIENTED_EDGE('',*,*,#538,.F.);
#696=ORIENTED_EDGE('',*,*,#539,.T.);
#697=ORIENTED_EDGE('',*,*,#540,.F.);
#698=ORIENTED_EDGE('',*,*,#541,.F.);
#699=ORIENTED_EDGE('',*,*,#542,.T.);
#700=ORIENTED_EDGE('',*,*,#543,.F.);
#701=ORIENTED_EDGE('',*,*,#544,.F.);
#702=ORIENTED_EDGE('',*,*,#545,.F.);
#703=ORIENTED_EDGE('',*,*,#503,.F.);
#704=ORIENTED_EDGE('',*,*,#546,.F.);
#705=ORIENTED_EDGE('',*,*,#499,.F.);
#706=ORIENTED_EDGE('',*,*,#492,.F.);
#707=ORIENTED_EDGE('',*,*,#485,.F.);
#708=ORIENTED_EDGE('',*,*,#513,.F.);
#709=ORIENTED_EDGE('',*,*,#547,.F.);
#710=ORIENTED_EDGE('',*,*,#548,.F.);
#711=ORIENTED_EDGE('',*,*,#549,.F.);
#712=ORIENTED_EDGE('',*,*,#550,.F.);
#713=ORIENTED_EDGE('',*,*,#551,.F.);
#714=ORIENTED_EDGE('',*,*,#552,.F.);
#715=ORIENTED_EDGE('',*,*,#553,.F.);
#716=ORIENTED_EDGE('',*,*,#479,.T.);
#717=ORIENTED_EDGE('',*,*,#554,.T.);
#718=ORIENTED_EDGE('',*,*,#555,.T.);
#719=ORIENTED_EDGE('',*,*,#497,.F.);
#720=ORIENTED_EDGE('',*,*,#556,.F.);
#721=ORIENTED_EDGE('',*,*,#501,.F.);
#722=ORIENTED_EDGE('',*,*,#491,.F.);
#723=ORIENTED_EDGE('',*,*,#514,.F.);
#724=ORIENTED_EDGE('',*,*,#483,.F.);
#725=ORIENTED_EDGE('',*,*,#557,.F.);
#726=ORIENTED_EDGE('',*,*,#558,.F.);
#727=ORIENTED_EDGE('',*,*,#559,.F.);
#728=ORIENTED_EDGE('',*,*,#560,.F.);
#729=ORIENTED_EDGE('',*,*,#561,.F.);
#730=ORIENTED_EDGE('',*,*,#562,.F.);
#731=ORIENTED_EDGE('',*,*,#563,.T.);
#732=ORIENTED_EDGE('',*,*,#564,.T.);
#733=ORIENTED_EDGE('',*,*,#565,.F.);
#734=ORIENTED_EDGE('',*,*,#542,.F.);
#735=ORIENTED_EDGE('',*,*,#566,.T.);
#736=ORIENTED_EDGE('',*,*,#567,.T.);
#737=ORIENTED_EDGE('',*,*,#551,.T.);
#738=ORIENTED_EDGE('',*,*,#568,.T.);
#739=ORIENTED_EDGE('',*,*,#534,.F.);
#740=ORIENTED_EDGE('',*,*,#569,.T.);
#741=ORIENTED_EDGE('',*,*,#516,.T.);
#742=ORIENTED_EDGE('',*,*,#570,.T.);
#743=ORIENTED_EDGE('',*,*,#557,.T.);
#744=ORIENTED_EDGE('',*,*,#571,.T.);
#745=ORIENTED_EDGE('',*,*,#572,.T.);
#746=ORIENTED_EDGE('',*,*,#573,.F.);
#747=ORIENTED_EDGE('',*,*,#519,.F.);
#748=ORIENTED_EDGE('',*,*,#475,.F.);
#749=ORIENTED_EDGE('',*,*,#472,.F.);
#750=ORIENTED_EDGE('',*,*,#477,.T.);
#751=ORIENTED_EDGE('',*,*,#536,.T.);
#752=ORIENTED_EDGE('',*,*,#574,.T.);
#753=ORIENTED_EDGE('',*,*,#575,.T.);
#754=ORIENTED_EDGE('',*,*,#576,.F.);
#755=ORIENTED_EDGE('',*,*,#545,.T.);
#756=ORIENTED_EDGE('',*,*,#577,.T.);
#757=ORIENTED_EDGE('',*,*,#578,.T.);
#758=ORIENTED_EDGE('',*,*,#574,.F.);
#759=ORIENTED_EDGE('',*,*,#544,.T.);
#760=ORIENTED_EDGE('',*,*,#579,.T.);
#761=ORIENTED_EDGE('',*,*,#580,.T.);
#762=ORIENTED_EDGE('',*,*,#577,.F.);
#763=ORIENTED_EDGE('',*,*,#543,.T.);
#764=ORIENTED_EDGE('',*,*,#565,.T.);
#765=ORIENTED_EDGE('',*,*,#581,.T.);
#766=ORIENTED_EDGE('',*,*,#579,.F.);
#767=ORIENTED_EDGE('',*,*,#564,.F.);
#768=ORIENTED_EDGE('',*,*,#582,.F.);
#769=ORIENTED_EDGE('',*,*,#575,.F.);
#770=ORIENTED_EDGE('',*,*,#578,.F.);
#771=ORIENTED_EDGE('',*,*,#580,.F.);
#772=ORIENTED_EDGE('',*,*,#581,.F.);
#773=ORIENTED_EDGE('',*,*,#510,.F.);
#774=ORIENTED_EDGE('',*,*,#535,.T.);
#775=ORIENTED_EDGE('',*,*,#505,.T.);
#776=ORIENTED_EDGE('',*,*,#525,.F.);
#777=ORIENTED_EDGE('',*,*,#502,.T.);
#778=ORIENTED_EDGE('',*,*,#556,.T.);
#779=ORIENTED_EDGE('',*,*,#500,.F.);
#780=ORIENTED_EDGE('',*,*,#546,.T.);
#781=ORIENTED_EDGE('',*,*,#583,.F.);
#782=ORIENTED_EDGE('',*,*,#552,.T.);
#783=ORIENTED_EDGE('',*,*,#567,.F.);
#784=ORIENTED_EDGE('',*,*,#584,.F.);
#785=ORIENTED_EDGE('',*,*,#529,.F.);
#786=ORIENTED_EDGE('',*,*,#585,.F.);
#787=ORIENTED_EDGE('',*,*,#547,.T.);
#788=ORIENTED_EDGE('',*,*,#586,.T.);
#789=ORIENTED_EDGE('',*,*,#515,.T.);
#790=ORIENTED_EDGE('',*,*,#587,.T.);
#791=ORIENTED_EDGE('',*,*,#558,.T.);
#792=ORIENTED_EDGE('',*,*,#570,.F.);
#793=ORIENTED_EDGE('',*,*,#526,.T.);
#794=ORIENTED_EDGE('',*,*,#568,.F.);
#795=ORIENTED_EDGE('',*,*,#550,.T.);
#796=ORIENTED_EDGE('',*,*,#588,.T.);
#797=ORIENTED_EDGE('',*,*,#528,.F.);
#798=ORIENTED_EDGE('',*,*,#589,.F.);
#799=ORIENTED_EDGE('',*,*,#548,.T.);
#800=ORIENTED_EDGE('',*,*,#585,.T.);
#801=ORIENTED_EDGE('',*,*,#523,.T.);
#802=ORIENTED_EDGE('',*,*,#590,.T.);
#803=ORIENTED_EDGE('',*,*,#560,.T.);
#804=ORIENTED_EDGE('',*,*,#591,.F.);
#805=ORIENTED_EDGE('',*,*,#524,.T.);
#806=ORIENTED_EDGE('',*,*,#591,.T.);
#807=ORIENTED_EDGE('',*,*,#559,.T.);
#808=ORIENTED_EDGE('',*,*,#587,.F.);
#809=ORIENTED_EDGE('',*,*,#527,.T.);
#810=ORIENTED_EDGE('',*,*,#588,.F.);
#811=ORIENTED_EDGE('',*,*,#549,.T.);
#812=ORIENTED_EDGE('',*,*,#589,.T.);
#813=ORIENTED_EDGE('',*,*,#522,.F.);
#814=ORIENTED_EDGE('',*,*,#592,.T.);
#815=ORIENTED_EDGE('',*,*,#561,.T.);
#816=ORIENTED_EDGE('',*,*,#590,.F.);
#817=ORIENTED_EDGE('',*,*,#573,.T.);
#818=ORIENTED_EDGE('',*,*,#593,.T.);
#819=ORIENTED_EDGE('',*,*,#594,.F.);
#820=ORIENTED_EDGE('',*,*,#538,.T.);
#821=ORIENTED_EDGE('',*,*,#595,.T.);
#822=ORIENTED_EDGE('',*,*,#554,.F.);
#823=ORIENTED_EDGE('',*,*,#482,.F.);
#824=ORIENTED_EDGE('',*,*,#531,.T.);
#825=ORIENTED_EDGE('',*,*,#596,.T.);
#826=ORIENTED_EDGE('',*,*,#520,.F.);
#827=ORIENTED_EDGE('',*,*,#539,.F.);
#828=ORIENTED_EDGE('',*,*,#594,.T.);
#829=ORIENTED_EDGE('',*,*,#597,.T.);
#830=ORIENTED_EDGE('',*,*,#598,.F.);
#831=ORIENTED_EDGE('',*,*,#597,.F.);
#832=ORIENTED_EDGE('',*,*,#593,.F.);
#833=ORIENTED_EDGE('',*,*,#572,.F.);
#834=ORIENTED_EDGE('',*,*,#599,.F.);
#835=ORIENTED_EDGE('',*,*,#569,.F.);
#836=ORIENTED_EDGE('',*,*,#533,.T.);
#837=ORIENTED_EDGE('',*,*,#600,.F.);
#838=ORIENTED_EDGE('',*,*,#517,.T.);
#839=ORIENTED_EDGE('',*,*,#480,.T.);
#840=ORIENTED_EDGE('',*,*,#553,.T.);
#841=ORIENTED_EDGE('',*,*,#583,.T.);
#842=ORIENTED_EDGE('',*,*,#601,.T.);
#843=ORIENTED_EDGE('',*,*,#540,.T.);
#844=ORIENTED_EDGE('',*,*,#598,.T.);
#845=ORIENTED_EDGE('',*,*,#599,.T.);
#846=ORIENTED_EDGE('',*,*,#571,.F.);
#847=ORIENTED_EDGE('',*,*,#518,.T.);
#848=ORIENTED_EDGE('',*,*,#600,.T.);
#849=ORIENTED_EDGE('',*,*,#532,.T.);
#850=ORIENTED_EDGE('',*,*,#563,.F.);
#851=ORIENTED_EDGE('',*,*,#562,.T.);
#852=ORIENTED_EDGE('',*,*,#592,.F.);
#853=ORIENTED_EDGE('',*,*,#521,.F.);
#854=ORIENTED_EDGE('',*,*,#596,.F.);
#855=ORIENTED_EDGE('',*,*,#530,.F.);
#856=ORIENTED_EDGE('',*,*,#586,.F.);
#857=ORIENTED_EDGE('',*,*,#555,.F.);
#858=ORIENTED_EDGE('',*,*,#595,.F.);
#859=ORIENTED_EDGE('',*,*,#537,.F.);
#860=ORIENTED_EDGE('',*,*,#576,.T.);
#861=ORIENTED_EDGE('',*,*,#582,.T.);
#862=ORIENTED_EDGE('',*,*,#566,.F.);
#863=ORIENTED_EDGE('',*,*,#541,.T.);
#864=ORIENTED_EDGE('',*,*,#601,.F.);
#865=ORIENTED_EDGE('',*,*,#584,.T.);
#866=PLANE('',#963);
#867=PLANE('',#964);
#868=PLANE('',#968);
#869=PLANE('',#969);
#870=PLANE('',#970);
#871=PLANE('',#971);
#872=PLANE('',#972);
#873=PLANE('',#973);
#874=PLANE('',#974);
#875=PLANE('',#975);
#876=PLANE('',#976);
#877=PLANE('',#983);
#878=PLANE('',#985);
#879=PLANE('',#987);
#880=PLANE('',#989);
#881=PLANE('',#991);
#882=PLANE('',#992);
#883=PLANE('',#993);
#884=PLANE('',#994);
#885=PLANE('',#995);
#886=PLANE('',#996);
#887=PLANE('',#997);
#888=PLANE('',#998);
#889=PLANE('',#1001);
#890=PLANE('',#1002);
#891=PLANE('',#1003);
#892=PLANE('',#1004);
#893=PLANE('',#1005);
#894=PLANE('',#1006);
#895=PLANE('',#1007);
#896=PLANE('',#1008);
#897=PLANE('',#1009);
#898=PLANE('',#1010);
#899=PLANE('',#1011);
#900=PLANE('',#1012);
#901=PLANE('',#1013);
#902=PLANE('',#1014);
#903=PLANE('',#1015);
#904=PLANE('',#1016);
#905=ADVANCED_FACE('',(#40),#866,.T.);
#906=ADVANCED_FACE('',(#41),#867,.T.);
#907=ADVANCED_FACE('',(#42),#35,.F.);
#908=ADVANCED_FACE('',(#43,#15),#868,.F.);
#909=ADVANCED_FACE('',(#44),#869,.T.);
#910=ADVANCED_FACE('',(#45),#870,.T.);
#911=ADVANCED_FACE('',(#46),#871,.T.);
#912=ADVANCED_FACE('',(#47),#872,.T.);
#913=ADVANCED_FACE('',(#48),#873,.T.);
#914=ADVANCED_FACE('',(#49),#874,.T.);
#915=ADVANCED_FACE('',(#50),#875,.T.);
#916=ADVANCED_FACE('',(#51),#876,.T.);
#917=ADVANCED_FACE('',(#52),#36,.F.);
#918=ADVANCED_FACE('',(#53),#37,.F.);
#919=ADVANCED_FACE('',(#54,#16,#17),#877,.F.);
#920=ADVANCED_FACE('',(#55,#18,#19),#878,.T.);
#921=ADVANCED_FACE('',(#56,#20,#21),#879,.T.);
#922=ADVANCED_FACE('',(#57,#22,#23),#880,.F.);
#923=ADVANCED_FACE('',(#58),#881,.F.);
#924=ADVANCED_FACE('',(#59),#882,.F.);
#925=ADVANCED_FACE('',(#60,#24),#883,.F.);
#926=ADVANCED_FACE('',(#61),#884,.F.);
#927=ADVANCED_FACE('',(#62),#885,.F.);
#928=ADVANCED_FACE('',(#63),#886,.F.);
#929=ADVANCED_FACE('',(#64),#887,.F.);
#930=ADVANCED_FACE('',(#65),#888,.F.);
#931=ADVANCED_FACE('',(#66),#38,.F.);
#932=ADVANCED_FACE('',(#67),#39,.F.);
#933=ADVANCED_FACE('',(#68),#889,.F.);
#934=ADVANCED_FACE('',(#69),#890,.F.);
#935=ADVANCED_FACE('',(#70),#891,.F.);
#936=ADVANCED_FACE('',(#71),#892,.F.);
#937=ADVANCED_FACE('',(#72),#893,.F.);
#938=ADVANCED_FACE('',(#73),#894,.F.);
#939=ADVANCED_FACE('',(#74),#895,.F.);
#940=ADVANCED_FACE('',(#75),#896,.F.);
#941=ADVANCED_FACE('',(#76),#897,.F.);
#942=ADVANCED_FACE('',(#77),#898,.F.);
#943=ADVANCED_FACE('',(#78),#899,.F.);
#944=ADVANCED_FACE('',(#79),#900,.F.);
#945=ADVANCED_FACE('',(#80),#901,.T.);
#946=ADVANCED_FACE('',(#81),#902,.T.);
#947=ADVANCED_FACE('',(#82),#903,.F.);
#948=ADVANCED_FACE('',(#83),#904,.T.);
#949=CLOSED_SHELL('',(#905,#906,#907,#908,#909,#910,#911,#912,#913,#914,
#915,#916,#917,#918,#919,#920,#921,#922,#923,#924,#925,#926,#927,#928,#929,
#930,#931,#932,#933,#934,#935,#936,#937,#938,#939,#940,#941,#942,#943,#944,
#945,#946,#947,#948));
#950=DERIVED_UNIT_ELEMENT(#952,1.);
#951=DERIVED_UNIT_ELEMENT(#1519,-3.);
#952=(
MASS_UNIT()
NAMED_UNIT(*)
SI_UNIT(.KILO.,.GRAM.)
);
#953=DERIVED_UNIT((#950,#951));
#954=MEASURE_REPRESENTATION_ITEM('density measure',
POSITIVE_RATIO_MEASURE(7850.),#953);
#955=PROPERTY_DEFINITION_REPRESENTATION(#960,#957);
#956=PROPERTY_DEFINITION_REPRESENTATION(#961,#958);
#957=REPRESENTATION('material name',(#959),#1516);
#958=REPRESENTATION('density',(#954),#1516);
#959=DESCRIPTIVE_REPRESENTATION_ITEM('Steel','Steel');
#960=PROPERTY_DEFINITION('material property','material name',#1526);
#961=PROPERTY_DEFINITION('material property','density of part',#1526);
#962=AXIS2_PLACEMENT_3D('',#1249,#1017,#1018);
#963=AXIS2_PLACEMENT_3D('',#1250,#1019,#1020);
#964=AXIS2_PLACEMENT_3D('',#1259,#1025,#1026);
#965=AXIS2_PLACEMENT_3D('',#1265,#1030,#1031);
#966=AXIS2_PLACEMENT_3D('',#1266,#1032,#1033);
#967=AXIS2_PLACEMENT_3D('',#1267,#1034,#1035);
#968=AXIS2_PLACEMENT_3D('',#1268,#1036,#1037);
#969=AXIS2_PLACEMENT_3D('',#1277,#1042,#1043);
#970=AXIS2_PLACEMENT_3D('',#1286,#1048,#1049);
#971=AXIS2_PLACEMENT_3D('',#1295,#1054,#1055);
#972=AXIS2_PLACEMENT_3D('',#1301,#1059,#1060);
#973=AXIS2_PLACEMENT_3D('',#1307,#1064,#1065);
#974=AXIS2_PLACEMENT_3D('',#1316,#1070,#1071);
#975=AXIS2_PLACEMENT_3D('',#1322,#1075,#1076);
#976=AXIS2_PLACEMENT_3D('',#1331,#1081,#1082);
#977=AXIS2_PLACEMENT_3D('',#1337,#1086,#1087);
#978=AXIS2_PLACEMENT_3D('',#1338,#1088,#1089);
#979=AXIS2_PLACEMENT_3D('',#1339,#1090,#1091);
#980=AXIS2_PLACEMENT_3D('',#1340,#1092,#1093);
#981=AXIS2_PLACEMENT_3D('',#1341,#1094,#1095);
#982=AXIS2_PLACEMENT_3D('',#1342,#1096,#1097);
#983=AXIS2_PLACEMENT_3D('',#1343,#1098,#1099);
#984=AXIS2_PLACEMENT_3D('',#1364,#1110,#1111);
#985=AXIS2_PLACEMENT_3D('',#1365,#1112,#1113);
#986=AXIS2_PLACEMENT_3D('',#1383,#1123,#1124);
#987=AXIS2_PLACEMENT_3D('',#1384,#1125,#1126);
#988=AXIS2_PLACEMENT_3D('',#1405,#1137,#1138);
#989=AXIS2_PLACEMENT_3D('',#1406,#1139,#1140);
#990=AXIS2_PLACEMENT_3D('',#1424,#1150,#1151);
#991=AXIS2_PLACEMENT_3D('',#1425,#1152,#1153);
#992=AXIS2_PLACEMENT_3D('',#1438,#1160,#1161);
#993=AXIS2_PLACEMENT_3D('',#1450,#1170,#1171);
#994=AXIS2_PLACEMENT_3D('',#1456,#1175,#1176);
#995=AXIS2_PLACEMENT_3D('',#1462,#1180,#1181);
#996=AXIS2_PLACEMENT_3D('',#1466,#1184,#1185);
#997=AXIS2_PLACEMENT_3D('',#1470,#1188,#1189);
#998=AXIS2_PLACEMENT_3D('',#1472,#1191,#1192);
#999=AXIS2_PLACEMENT_3D('',#1474,#1194,#1195);
#1000=AXIS2_PLACEMENT_3D('',#1475,#1196,#1197);
#1001=AXIS2_PLACEMENT_3D('',#1476,#1198,#1199);
#1002=AXIS2_PLACEMENT_3D('',#1480,#1202,#1203);
#1003=AXIS2_PLACEMENT_3D('',#1483,#1206,#1207);
#1004=AXIS2_PLACEMENT_3D('',#1485,#1209,#1210);
#1005=AXIS2_PLACEMENT_3D('',#1487,#1212,#1213);
#1006=AXIS2_PLACEMENT_3D('',#1489,#1215,#1216);
#1007=AXIS2_PLACEMENT_3D('',#1492,#1219,#1220);
#1008=AXIS2_PLACEMENT_3D('',#1493,#1221,#1222);
#1009=AXIS2_PLACEMENT_3D('',#1494,#1223,#1224);
#1010=AXIS2_PLACEMENT_3D('',#1496,#1226,#1227);
#1011=AXIS2_PLACEMENT_3D('',#1502,#1232,#1233);
#1012=AXIS2_PLACEMENT_3D('',#1506,#1236,#1237);
#1013=AXIS2_PLACEMENT_3D('',#1508,#1239,#1240);
#1014=AXIS2_PLACEMENT_3D('',#1510,#1242,#1243);
#1015=AXIS2_PLACEMENT_3D('',#1512,#1245,#1246);
#1016=AXIS2_PLACEMENT_3D('',#1513,#1247,#1248);
#1017=DIRECTION('axis',(0.,0.,1.));
#1018=DIRECTION('refdir',(1.,0.,0.));
#1019=DIRECTION('center_axis',(-3.1490525559551E-30,-0.0636138063919639,
-0.997974590676699));
#1020=DIRECTION('ref_axis',(2.00729779580608E-31,-0.997974590676699,0.0636138063919639));
#1021=DIRECTION('',(1.1801605100888E-15,0.997974590676699,-0.0636138063919639));
#1022=DIRECTION('',(1.,9.34198976216542E-43,-3.15544362088405E-30));
#1023=DIRECTION('',(5.33711043909942E-14,-0.997974590676699,0.0636138063919639));
#1024=DIRECTION('',(-1.,-9.34198976216542E-43,3.15544362088405E-30));
#1025=DIRECTION('center_axis',(3.49146994564872E-31,0.993859535760704,0.110649099307305));
#1026=DIRECTION('ref_axis',(-3.136067732171E-30,0.110649099307305,-0.993859535760704));
#1027=DIRECTION('',(-5.06018967879342E-14,-0.110649099307305,0.993859535760704));
#1028=DIRECTION('',(-8.83898383609304E-15,0.110649099307305,-0.993859535760704));
#1029=DIRECTION('',(1.,9.34198976216542E-43,-3.15544362088405E-30));
#1030=DIRECTION('center_axis',(1.,9.34198976216542E-43,-3.15544362088405E-30));
#1031=DIRECTION('ref_axis',(-9.34198976216542E-43,1.,-3.13890856008759E-43));
#1032=DIRECTION('center_axis',(-1.,-5.32907051820074E-14,2.96059473233375E-15));
#1033=DIRECTION('ref_axis',(-9.34198976216542E-43,1.,-3.13890856008759E-43));
#1034=DIRECTION('center_axis',(-1.,-2.07762934684445E-15,-5.11458438288768E-14));
#1035=DIRECTION('ref_axis',(-9.34198976216542E-43,1.,-3.13890856008759E-43));
#1036=DIRECTION('center_axis',(1.,2.07762934684445E-15,5.11458438288768E-14));
#1037=DIRECTION('ref_axis',(3.46964672009611E-14,0.707106781186546,-0.707106781186549));
#1038=DIRECTION('',(-3.46964672009611E-14,-0.707106781186546,0.707106781186549));
#1039=DIRECTION('',(-3.76346788008528E-14,0.707106781186549,0.707106781186546));
#1040=DIRECTION('',(3.46964672009611E-14,0.707106781186546,-0.707106781186549));
#1041=DIRECTION('',(-3.76346788008528E-14,0.707106781186549,0.707106781186546));
#1042=DIRECTION('center_axis',(0.766044443119573,0.454519477671541,-0.454519477671543));
#1043=DIRECTION('ref_axis',(0.64278760968583,-0.541675220420122,0.541675220420124));
#1044=DIRECTION('',(-0.64278760968583,0.541675220420106,-0.541675220420139));
#1045=DIRECTION('',(-3.5527136788005E-14,0.707106781186549,0.707106781186546));
#1046=DIRECTION('',(0.64278760968583,-0.541675220420104,0.541675220420141));
#1047=DIRECTION('',(-2.23123558197828E-30,-0.707106781186549,-0.707106781186546));
#1048=DIRECTION('center_axis',(0.766044443119573,0.454519477671541,-0.454519477671543));
#1049=DIRECTION('ref_axis',(0.64278760968583,-0.541675220420122,0.541675220420124));
#1050=DIRECTION('',(-0.64278760968583,0.541675220420104,-0.541675220420141));
#1051=DIRECTION('',(-3.5527136788005E-14,0.707106781186549,0.707106781186546));
#1052=DIRECTION('',(0.64278760968583,-0.541675220420104,0.541675220420141));
#1053=DIRECTION('',(-2.23123558197828E-30,-0.707106781186549,-0.707106781186546));
#1054=DIRECTION('center_axis',(-0.766044443119572,0.454519477671542,-0.454519477671544));
#1055=DIRECTION('ref_axis',(0.642787609685831,0.541675220420121,-0.541675220420123));
#1056=DIRECTION('',(-0.642787609685831,-0.541675220420138,0.541675220420106));
#1057=DIRECTION('',(0.642787609685831,0.541675220420138,-0.541675220420106));
#1058=DIRECTION('',(-3.5527136788005E-14,0.707106781186549,0.707106781186546));
#1059=DIRECTION('center_axis',(-0.766044443119572,0.454519477671542,-0.454519477671544));
#1060=DIRECTION('ref_axis',(0.642787609685831,0.541675220420121,-0.541675220420123));
#1061=DIRECTION('',(-0.642787609685831,-0.541675220420138,0.541675220420106));
#1062=DIRECTION('',(0.642787609685831,0.541675220420138,-0.541675220420106));
#1063=DIRECTION('',(-3.5527136788005E-14,0.707106781186549,0.707106781186546));
#1064=DIRECTION('center_axis',(-0.766044443118826,0.454519477672171,-0.454519477672173));
#1065=DIRECTION('ref_axis',(0.642787609686721,0.541675220419593,-0.541675220419595));
#1066=DIRECTION('',(-0.642787609686721,-0.54167522041961,0.541675220419578));
#1067=DIRECTION('',(-2.23123558197828E-30,-0.707106781186549,-0.707106781186546));
#1068=DIRECTION('',(0.642787609686721,0.54167522041961,-0.541675220419578));
#1069=DIRECTION('',(-2.23123558197828E-30,-0.707106781186549,-0.707106781186546));
#1070=DIRECTION('center_axis',(0.766044443118838,0.454519477672161,-0.454519477672163));
#1071=DIRECTION('ref_axis',(0.642787609686707,-0.541675220419602,0.541675220419604));
#1072=DIRECTION('',(-0.642787609686707,0.541675220419586,-0.541675220419619));
#1073=DIRECTION('',(-2.23123558197828E-30,-0.707106781186549,-0.707106781186546));
#1074=DIRECTION('',(0.642787609686707,-0.541675220419584,0.541675220419621));
#1075=DIRECTION('center_axis',(0.766044443118838,0.454519477672161,-0.454519477672163));
#1076=DIRECTION('ref_axis',(0.642787609686707,-0.541675220419602,0.541675220419604));
#1077=DIRECTION('',(-0.642787609686707,0.541675220419584,-0.541675220419621));
#1078=DIRECTION('',(-2.23123558197828E-30,-0.707106781186549,-0.707106781186546));
#1079=DIRECTION('',(0.642787609686707,-0.541675220419584,0.541675220419621));
#1080=DIRECTION('',(-2.23123558197828E-30,-0.707106781186549,-0.707106781186546));
#1081=DIRECTION('center_axis',(-0.766044443118826,0.454519477672171,-0.454519477672173));
#1082=DIRECTION('ref_axis',(0.642787609686721,0.541675220419593,-0.541675220419595));
#1083=DIRECTION('',(-0.642787609686721,-0.54167522041961,0.541675220419578));
#1084=DIRECTION('',(0.642787609686721,0.54167522041961,-0.541675220419578));
#1085=DIRECTION('',(-2.23123558197828E-30,-0.707106781186549,-0.707106781186546));
#1086=DIRECTION('center_axis',(-3.5527136788005E-14,0.707106781186549,0.707106781186546));
#1087=DIRECTION('ref_axis',(1.57389981103438E-12,0.707106781186546,-0.707106781186549));
#1088=DIRECTION('center_axis',(-3.79603237014742E-14,0.707106781186549,
0.707106781186546));
#1089=DIRECTION('ref_axis',(1.,5.19634816442891E-14,-1.72052296640847E-15));
#1090=DIRECTION('center_axis',(3.79603237014742E-14,-0.707106781186549,
-0.707106781186546));
#1091=DIRECTION('ref_axis',(1.,5.36840046106976E-14,-1.5777218104425E-29));
#1092=DIRECTION('center_axis',(-3.5527136788005E-14,0.707106781186549,0.707106781186546));
#1093=DIRECTION('ref_axis',(1.22842129052594E-12,0.707106781186546,-0.707106781186549));
#1094=DIRECTION('center_axis',(-3.79603237014742E-14,0.707106781186549,
0.707106781186546));
#1095=DIRECTION('ref_axis',(1.,5.19634816442891E-14,-1.72052296640847E-15));
#1096=DIRECTION('center_axis',(3.79603237014742E-14,-0.707106781186549,
-0.707106781186546));
#1097=DIRECTION('ref_axis',(1.,5.36840046106976E-14,-2.20881053461931E-29));
#1098=DIRECTION('center_axis',(-3.79603237014742E-14,0.707106781186549,
0.707106781186546));
#1099=DIRECTION('ref_axis',(1.,5.36840046106976E-14,-1.5777218104425E-29));
#1100=DIRECTION('',(3.66104597269269E-30,-0.707106781186546,0.707106781186549));
#1101=DIRECTION('',(-1.,-5.37252111304494E-14,4.12065197518132E-17));
#1102=DIRECTION('',(-3.83741319076281E-14,0.707106781186546,-0.707106781186549));
#1103=DIRECTION('',(-1.,-5.39766111993797E-14,2.92606588682152E-16));
#1104=DIRECTION('',(3.79603237014741E-14,-0.707106781186546,0.707106781186549));
#1105=DIRECTION('',(-1.,-5.32907051820074E-14,2.96059473233375E-15));
#1106=DIRECTION('',(-3.79603237014741E-14,0.707106781186546,-0.707106781186549));
#1107=DIRECTION('',(1.,2.51650552248369E-14,2.51650552248369E-14));
#1108=DIRECTION('',(3.79603237014741E-14,-0.707106781186546,0.707106781186549));
#1109=DIRECTION('',(-1.,-2.68420023053488E-14,-2.68420023053489E-14));
#1110=DIRECTION('center_axis',(-3.79603237014742E-14,0.707106781186549,
0.707106781186546));
#1111=DIRECTION('ref_axis',(1.,9.34198976216542E-43,-3.15544362088405E-30));
#1112=DIRECTION('center_axis',(-3.79603237014742E-14,0.707106781186549,
0.707106781186546));
#1113=DIRECTION('ref_axis',(1.,5.36840046106976E-14,-1.5777218104425E-29));
#1114=DIRECTION('',(-3.66104597269269E-30,0.707106781186546,-0.707106781186549));
#1115=DIRECTION('',(1.,2.68420023053488E-14,2.68420023053489E-14));
#1116=DIRECTION('',(3.79603237014741E-14,-0.707106781186546,0.707106781186549));
#1117=DIRECTION('',(-1.,-2.51650552248369E-14,-2.51650552248369E-14));
#1118=DIRECTION('',(3.79603237014741E-14,-0.707106781186546,0.707106781186549));
#1119=DIRECTION('',(-1.,-5.32907051820074E-14,2.96059473233375E-15));
#1120=DIRECTION('',(1.,5.39766111993797E-14,-2.92606588682152E-16));
#1121=DIRECTION('',(3.83741319076281E-14,-0.707106781186546,0.707106781186549));
#1122=DIRECTION('',(-1.,-2.90033037161734E-14,2.47631139340277E-14));
#1123=DIRECTION('center_axis',(-3.79603237014742E-14,0.707106781186549,
0.707106781186546));
#1124=DIRECTION('ref_axis',(1.,9.34198976216542E-43,-3.15544362088405E-30));
#1125=DIRECTION('center_axis',(-3.79603237014742E-14,0.707106781186549,
0.707106781186546));
#1126=DIRECTION('ref_axis',(1.,5.36840046106976E-14,-2.20881053461931E-29));
#1127=DIRECTION('',(1.,2.84120947640327E-14,2.5271909846665E-14));
#1128=DIRECTION('',(3.79603237014741E-14,-0.707106781186546,0.707106781186549));
#1129=DIRECTION('',(-1.,-5.32907051820074E-14,1.48029736616688E-15));
#1130=DIRECTION('',(3.46964672009611E-14,0.707106781186546,-0.707106781186549));
#1131=DIRECTION('',(1.,5.39766111993797E-14,-2.92606588682158E-16));
#1132=DIRECTION('',(3.83741319076281E-14,-0.707106781186546,0.707106781186549));
#1133=DIRECTION('',(-1.,-5.37252111304494E-14,4.12065197518195E-17));
#1134=DIRECTION('',(3.55271367880049E-14,0.707106781186546,-0.707106781186549));
#1135=DIRECTION('',(1.,-2.42092606961864E-16,5.39260972176596E-14));
#1136=DIRECTION('',(4.51702167733206E-13,0.707106781186546,-0.707106781186549));
#1137=DIRECTION('center_axis',(-3.79603237014742E-14,0.707106781186549,
0.707106781186546));
#1138=DIRECTION('ref_axis',(1.,9.34198976216542E-43,-3.15544362088405E-30));
#1139=DIRECTION('center_axis',(-3.55271367880051E-14,0.707106781186548,
0.707106781186548));
#1140=DIRECTION('ref_axis',(1.,9.34198976216558E-43,5.02429586778809E-14));
#1141=DIRECTION('',(-1.,-2.51214793389404E-14,-2.51214793389405E-14));
#1142=DIRECTION('',(2.2312355819796E-30,-0.707106781186548,0.707106781186548));
#1143=DIRECTION('',(-1.,-2.51214793389404E-14,-2.51214793389405E-14));
#1144=DIRECTION('',(2.2312355819796E-30,-0.707106781186548,0.707106781186548));
#1145=DIRECTION('',(-1.,-5.32907051820074E-14,1.48029736616688E-15));
#1146=DIRECTION('',(3.46964672009611E-14,0.707106781186546,-0.707106781186549));
#1147=DIRECTION('',(-1.,-5.39766111993797E-14,2.92606588682158E-16));
#1148=DIRECTION('',(-1.,-5.32907051820074E-14,1.48029736616688E-15));
#1149=DIRECTION('',(-3.79603237014742E-14,0.707106781186548,-0.707106781186548));
#1150=DIRECTION('center_axis',(3.55271367880051E-14,-0.707106781186548,
-0.707106781186548));
#1151=DIRECTION('ref_axis',(1.,9.34198976216542E-43,-3.15544362088405E-30));
#1152=DIRECTION('center_axis',(8.02728021781488E-16,0.707106781186547,0.707106781186548));
#1153=DIRECTION('ref_axis',(1.,9.34198976216542E-43,-1.1352288553003E-15));
#1154=DIRECTION('',(-1.,1.73592677568488E-15,1.73592677568488E-15));
#1155=DIRECTION('',(-2.2312355819796E-30,0.707106781186548,-0.707106781186548));
#1156=DIRECTION('',(1.,9.86076131535607E-32,-3.05683600773142E-30));
#1157=DIRECTION('',(-2.2312355819796E-30,0.707106781186548,-0.707106781186548));
#1158=DIRECTION('',(1.,9.86076131535607E-32,-3.05683600773142E-30));
#1159=DIRECTION('',(2.2312355819796E-30,-0.707106781186548,0.707106781186548));
#1160=DIRECTION('center_axis',(3.80185985205653E-14,-0.707106781186546,
0.707106781186549));
#1161=DIRECTION('ref_axis',(-1.,-5.37252111304494E-14,4.12065197518195E-17));
#1162=DIRECTION('',(2.23123558197828E-30,0.707106781186549,0.707106781186546));
#1163=DIRECTION('',(1.,3.37156063803464E-14,-3.37156065925669E-14));
#1164=DIRECTION('',(2.23123558197828E-30,0.707106781186549,0.707106781186546));
#1165=DIRECTION('',(3.5527136788005E-14,-0.707106781186549,-0.707106781186546));
#1166=DIRECTION('',(3.55271367880051E-14,-0.707106781186548,-0.707106781186548));
#1167=DIRECTION('',(-8.02728021781488E-16,-0.707106781186547,-0.707106781186548));
#1168=DIRECTION('',(3.5527136788005E-14,-0.707106781186549,-0.707106781186546));
#1169=DIRECTION('',(-8.02728021781488E-16,-0.707106781186547,-0.707106781186548));
#1170=DIRECTION('center_axis',(-1.,-5.32907051820074E-14,2.96059473233375E-15));
#1171=DIRECTION('ref_axis',(2.96059473233375E-15,3.13890856008762E-43,1.));
#1172=DIRECTION('',(-3.76346788008528E-14,0.707106781186549,0.707106781186546));
#1173=DIRECTION('',(3.79603237014741E-14,-0.707106781186546,0.707106781186549));
#1174=DIRECTION('',(-3.5527136788005E-14,0.707106781186549,0.707106781186546));
#1175=DIRECTION('center_axis',(-2.22044604925031E-15,0.707106781186546,
-0.707106781186549));
#1176=DIRECTION('ref_axis',(-1.,2.61682076447296E-15,5.75700568184049E-15));
#1177=DIRECTION('',(2.23123558197828E-30,0.707106781186549,0.707106781186546));
#1178=DIRECTION('',(-1.,2.61682076447296E-15,5.75700568184049E-15));
#1179=DIRECTION('',(2.23123558197828E-30,0.707106781186549,0.707106781186546));
#1180=DIRECTION('center_axis',(-1.,3.19401665880813E-13,-3.19401665880814E-13));
#1181=DIRECTION('ref_axis',(-4.51702167733206E-13,-0.707106781186546,0.707106781186549));
#1182=DIRECTION('',(2.23123558197828E-30,0.707106781186549,0.707106781186546));
#1183=DIRECTION('',(-4.51702167733206E-13,-0.707106781186546,0.707106781186549));
#1184=DIRECTION('center_axis',(3.83026943495901E-14,0.707106781186546,-0.707106781186549));
#1185=DIRECTION('ref_axis',(-1.,2.70644687565772E-14,-2.71037210680444E-14));
#1186=DIRECTION('',(2.23123558197828E-30,0.707106781186549,0.707106781186546));
#1187=DIRECTION('',(-1.,2.70644687565772E-14,-2.71037210680444E-14));
#1188=DIRECTION('center_axis',(-1.,2.51214793389402E-14,-2.51214793389403E-14));
#1189=DIRECTION('ref_axis',(-3.55271367880049E-14,-0.707106781186546,0.707106781186549));
#1190=DIRECTION('',(-3.55271367880049E-14,-0.707106781186546,0.707106781186549));
#1191=DIRECTION('center_axis',(-2.23123558197828E-30,-0.707106781186549,
-0.707106781186546));
#1192=DIRECTION('ref_axis',(-1.,-9.34198976216542E-43,3.15544362088405E-30));
#1193=DIRECTION('',(-2.0675740379548E-12,0.70710678118655,-0.707106781186545));
#1194=DIRECTION('center_axis',(-2.23123558197828E-30,-0.707106781186549,
-0.707106781186546));
#1195=DIRECTION('ref_axis',(1.21420113207003E-12,0.707106781186546,-0.707106781186549));
#1196=DIRECTION('center_axis',(-2.23123558197828E-30,-0.707106781186549,
-0.707106781186546));
#1197=DIRECTION('ref_axis',(1.2139562027102E-12,0.707106781186546,-0.707106781186549));
#1198=DIRECTION('center_axis',(-1.,-5.87372097924264E-16,-4.96555865799566E-14));
#1199=DIRECTION('ref_axis',(3.46964672009611E-14,0.707106781186546,-0.707106781186549));
#1200=DIRECTION('',(-3.55271367880051E-14,0.707106781186548,0.707106781186548));
#1201=DIRECTION('',(-3.83741319076281E-14,0.707106781186546,-0.707106781186549));
#1202=DIRECTION('center_axis',(-2.2312355819796E-30,0.707106781186548,-0.707106781186547));
#1203=DIRECTION('ref_axis',(1.,9.34198976216542E-43,-3.15544362088405E-30));
#1204=DIRECTION('',(-8.02728021781488E-16,-0.707106781186547,-0.707106781186548));
#1205=DIRECTION('',(-8.02728021781488E-16,-0.707106781186547,-0.707106781186548));
#1206=DIRECTION('center_axis',(-1.,5.67614427650151E-16,5.67614427650154E-16));
#1207=DIRECTION('ref_axis',(-2.2312355819796E-30,0.707106781186548,-0.707106781186548));
#1208=DIRECTION('',(-8.02728021781488E-16,-0.707106781186547,-0.707106781186548));
#1209=DIRECTION('center_axis',(-1.,5.67614427650151E-16,5.67614427650154E-16));
#1210=DIRECTION('ref_axis',(-2.2312355819796E-30,0.707106781186548,-0.707106781186548));
#1211=DIRECTION('',(-8.02728021781488E-16,-0.707106781186547,-0.707106781186548));
#1212=DIRECTION('center_axis',(-1.,5.67614427650151E-16,5.67614427650154E-16));
#1213=DIRECTION('ref_axis',(-2.2312355819796E-30,0.707106781186548,-0.707106781186548));
#1214=DIRECTION('',(-8.02728021781488E-16,-0.707106781186547,-0.707106781186548));
#1215=DIRECTION('center_axis',(-1.,5.67614427650151E-16,5.67614427650154E-16));
#1216=DIRECTION('ref_axis',(-2.2312355819796E-30,0.707106781186548,-0.707106781186548));
#1217=DIRECTION('',(-8.02728021781488E-16,-0.707106781186547,-0.707106781186548));
#1218=DIRECTION('',(-8.02728021781488E-16,-0.707106781186547,-0.707106781186548));
#1219=DIRECTION('center_axis',(-2.2312355819796E-30,0.707106781186548,-0.707106781186547));
#1220=DIRECTION('ref_axis',(1.,9.34198976216542E-43,-3.15544362088405E-30));
#1221=DIRECTION('center_axis',(-2.2312355819796E-30,0.707106781186548,-0.707106781186547));
#1222=DIRECTION('ref_axis',(1.,9.34198976216542E-43,-3.15544362088405E-30));
#1223=DIRECTION('center_axis',(-2.2312355819796E-30,0.707106781186548,-0.707106781186547));
#1224=DIRECTION('ref_axis',(1.,9.34198976216542E-43,-3.15544362088405E-30));
#1225=DIRECTION('',(-8.02728021781488E-16,-0.707106781186547,-0.707106781186548));
#1226=DIRECTION('center_axis',(-3.79603237014741E-14,0.707106781186546,
-0.707106781186549));
#1227=DIRECTION('ref_axis',(1.,5.36840046106976E-14,-1.5777218104425E-29));
#1228=DIRECTION('',(-1.,-5.36840046106976E-14,1.2621774483541E-29));
#1229=DIRECTION('',(-3.76346788008528E-14,0.707106781186549,0.707106781186546));
#1230=DIRECTION('',(3.5527136788005E-14,-0.707106781186549,-0.707106781186546));
#1231=DIRECTION('',(3.5527136788005E-14,-0.707106781186549,-0.707106781186546));
#1232=DIRECTION('center_axis',(1.,2.07762934684445E-15,5.11458438288768E-14));
#1233=DIRECTION('ref_axis',(3.46964672009611E-14,0.707106781186546,-0.707106781186549));
#1234=DIRECTION('',(3.46964672009611E-14,0.707106781186546,-0.707106781186549));
#1235=DIRECTION('',(-3.76346788008528E-14,0.707106781186549,0.707106781186546));
#1236=DIRECTION('center_axis',(7.51102257674522E-14,-0.707106781186552,
-0.707106781186543));
#1237=DIRECTION('ref_axis',(-1.,-9.34198976216575E-43,-1.06221899953237E-13));
#1238=DIRECTION('',(1.,5.39766111993797E-14,-2.92606588682148E-16));
#1239=DIRECTION('center_axis',(1.,5.22560882329713E-14,-2.0131295550906E-15));
#1240=DIRECTION('ref_axis',(-3.5527136788005E-14,0.707106781186549,0.707106781186546));
#1241=DIRECTION('',(-3.5527136788005E-14,0.707106781186549,0.707106781186546));
#1242=DIRECTION('center_axis',(-3.83741319076281E-14,0.707106781186546,
-0.707106781186549));
#1243=DIRECTION('ref_axis',(-1.,3.91770590230187E-42,5.42692177880617E-14));
#1244=DIRECTION('',(-3.5527136788005E-14,0.707106781186549,0.707106781186546));
#1245=DIRECTION('center_axis',(1.,5.32907051820074E-14,-1.48029736616688E-15));
#1246=DIRECTION('ref_axis',(-1.48029736616688E-15,-3.1389085600876E-43,
-1.));
#1247=DIRECTION('center_axis',(1.,5.22560882329713E-14,-2.0131295550906E-15));
#1248=DIRECTION('ref_axis',(-3.5527136788005E-14,0.707106781186549,0.707106781186546));
#1249=CARTESIAN_POINT('',(0.,0.,0.));
#1250=CARTESIAN_POINT('Origin',(490.812705501924,-60.6303278208947,-40.94754521094));
#1251=CARTESIAN_POINT('',(487.852097435267,-62.4143375265446,-40.8338272374797));
#1252=CARTESIAN_POINT('',(487.852097435267,-60.6303278208947,-40.94754521094));
#1253=CARTESIAN_POINT('',(487.852097435267,-67.6269391068069,-40.5015608342836));
#1254=CARTESIAN_POINT('',(490.812705501924,-60.6303278208947,-40.94754521094));
#1255=CARTESIAN_POINT('',(490.812705501923,-60.6303278208811,-40.9475452109409));
#1256=CARTESIAN_POINT('',(490.812705501924,-62.4143375265446,-40.8338272374797));
#1257=CARTESIAN_POINT('',(490.812705501924,-67.6269391068069,-40.5015608342836));
#1258=CARTESIAN_POINT('',(490.812705501924,-62.4143375265446,-40.8338272374797));
#1259=CARTESIAN_POINT('Origin',(490.812705501924,-62.4143375265446,-40.8338272374797));
#1260=CARTESIAN_POINT('',(487.852097435267,-62.2165378341165,-42.6104807459214));
#1261=CARTESIAN_POINT('',(487.852097435267,-62.4092062693949,-40.8799166216737));
#1262=CARTESIAN_POINT('',(490.812705501924,-62.2165378341165,-42.6104807459214));
#1263=CARTESIAN_POINT('',(490.812705501924,-62.4092062693949,-40.8799166216737));
#1264=CARTESIAN_POINT('',(490.812705501923,-62.216537834116,-42.6104807459255));
#1265=CARTESIAN_POINT('Origin',(490.812705501923,-60.7257485304696,-42.4445070969639));
#1266=CARTESIAN_POINT('Origin',(490.812705501924,-60.7257485304696,-42.4445070969639));
#1267=CARTESIAN_POINT('Origin',(487.852097435267,-60.7257485304696,-42.4445070969639));
#1268=CARTESIAN_POINT('Origin',(487.852097435267,-74.7667680925911,-42.3023784258453));
#1269=CARTESIAN_POINT('',(487.852097435267,-47.0574617922777,-42.9593685920118));
#1270=CARTESIAN_POINT('',(487.852097435266,-61.2406100255176,-28.7762203587718));
#1271=CARTESIAN_POINT('',(487.852097435267,-54.2579304572509,-35.7588999270386));
#1272=CARTESIAN_POINT('',(487.852097435268,-60.5836198593512,-56.4855266590852));
#1273=CARTESIAN_POINT('',(487.852097435268,-60.5836198593512,-56.4855266590852));
#1274=CARTESIAN_POINT('',(487.852097435267,-74.766768092591,-42.3023784258453));
#1275=CARTESIAN_POINT('',(487.852097435268,-64.2382433015223,-52.8309032169141));
#1276=CARTESIAN_POINT('',(487.852097435267,-74.766768092591,-42.3023784258453));
#1277=CARTESIAN_POINT('Origin',(476.442807397606,-53.0835543876379,-31.2764217471603));
#1278=CARTESIAN_POINT('',(477.591874062283,-56.8802965973165,-33.1365337869735));
#1279=CARTESIAN_POINT('',(476.442807397606,-55.9119815123838,-34.1048488719062));
#1280=CARTESIAN_POINT('',(471.848724692276,-52.040561583717,-37.9762688005733));
#1281=CARTESIAN_POINT('',(476.442807397606,-53.0835543876379,-31.2764217471603));
#1282=CARTESIAN_POINT('',(476.442807397602,-53.0835543876344,-31.2764217471632));
#1283=CARTESIAN_POINT('',(477.591874062283,-54.0518694725706,-30.3081066622276));
#1284=CARTESIAN_POINT('',(471.848724692276,-49.2121344589708,-35.1478416758272));
#1285=CARTESIAN_POINT('',(477.591874062283,-54.0518694725706,-30.3081066622276));
#1286=CARTESIAN_POINT('Origin',(476.442807397606,-53.0835543876379,-31.2764217471603));
#1287=CARTESIAN_POINT('',(477.591874062283,-72.5277750079496,-48.7840121976066));
#1288=CARTESIAN_POINT('',(476.442807397606,-71.559459923017,-49.7523272825393));
#1289=CARTESIAN_POINT('',(471.848724692276,-67.6880399943504,-53.6237472112061));
#1290=CARTESIAN_POINT('',(476.442807397606,-69.4381395794573,-47.6310069389797));
#1291=CARTESIAN_POINT('',(476.442807397602,-69.4381395794544,-47.6310069389826));
#1292=CARTESIAN_POINT('',(477.591874062283,-70.40645466439,-46.6626918540469));
#1293=CARTESIAN_POINT('',(471.848724692276,-65.5667196507907,-51.5024268676465));
#1294=CARTESIAN_POINT('',(477.591874062283,-54.0518694725706,-30.3081066622276));
#1295=CARTESIAN_POINT('Origin',(477.591874062283,-54.0518694725706,-30.3081066622276));
#1296=CARTESIAN_POINT('',(478.740940726961,-55.9119815123838,-34.1048488719061));
#1297=CARTESIAN_POINT('',(479.111868382534,-55.599401872445,-34.4174285118449));
#1298=CARTESIAN_POINT('',(478.740940726961,-53.0835543876379,-31.2764217471603));
#1299=CARTESIAN_POINT('',(479.111868382534,-52.7709747476988,-31.5890013870987));
#1300=CARTESIAN_POINT('',(478.740940726967,-53.0835543876324,-31.2764217471651));
#1301=CARTESIAN_POINT('Origin',(477.591874062283,-54.0518694725706,-30.3081066622276));
#1302=CARTESIAN_POINT('',(478.740940726961,-71.5594599230169,-49.7523272825392));
#1303=CARTESIAN_POINT('',(479.111868382535,-71.2468802830778,-50.0649069224783));
#1304=CARTESIAN_POINT('',(478.740940726961,-69.4381395794573,-47.6310069389796));
#1305=CARTESIAN_POINT('',(479.111868382535,-69.1255599395182,-47.9435865789186));
#1306=CARTESIAN_POINT('',(478.740940726967,-69.4381395794518,-47.6310069389851));
#1307=CARTESIAN_POINT('Origin',(457.220680560081,-54.6556449083741,-29.704331226424));
#1308=CARTESIAN_POINT('',(458.36974722476,-56.5157569481891,-33.5010734361018));
#1309=CARTESIAN_POINT('',(457.220680560081,-57.4840720331205,-32.5327583511705));
#1310=CARTESIAN_POINT('',(463.159341910081,-52.4795796513739,-37.5372507329168));
#1311=CARTESIAN_POINT('',(457.220680560081,-54.6556449083741,-29.704331226424));
#1312=CARTESIAN_POINT('',(457.220680560081,-54.6556449083741,-29.704331226424));
#1313=CARTESIAN_POINT('',(458.36974722476,-53.6873298234427,-30.6726463113554));
#1314=CARTESIAN_POINT('',(463.159341910081,-49.6511525266278,-34.7088236081706));
#1315=CARTESIAN_POINT('',(458.369747224764,-72.1632353588191,-49.1485518467376));
#1316=CARTESIAN_POINT('Origin',(456.071613895403,-53.6873298234427,-30.6726463113555));
#1317=CARTESIAN_POINT('',(456.071613895403,-56.5157569481891,-33.5010734361019));
#1318=CARTESIAN_POINT('',(455.475750597142,-56.0136247064322,-34.0032056778589));
#1319=CARTESIAN_POINT('',(456.071613895403,-53.6873298234427,-30.6726463113555));
#1320=CARTESIAN_POINT('',(456.071613895402,-72.163235358821,-49.1485518467357));
#1321=CARTESIAN_POINT('',(455.475750597141,-53.185197581686,-31.1747785531128));
#1322=CARTESIAN_POINT('Origin',(456.071613895403,-53.6873298234427,-30.6726463113555));
#1323=CARTESIAN_POINT('',(457.220680560081,-73.1315504437537,-48.1802367618036));
#1324=CARTESIAN_POINT('',(456.071613895403,-72.1632353588223,-49.148551846735));
#1325=CARTESIAN_POINT('',(455.475750597142,-71.6611031170657,-49.6506840884917));
#1326=CARTESIAN_POINT('',(456.071613895403,-70.0419150152627,-47.0272315031754));
#1327=CARTESIAN_POINT('',(456.071613895402,-72.163235358821,-49.1485518467357));
#1328=CARTESIAN_POINT('',(457.220680560081,-71.0102301001941,-46.0589164182439));
#1329=CARTESIAN_POINT('',(455.475750597142,-69.539782773506,-47.5293637449321));
#1330=CARTESIAN_POINT('',(457.220680560081,-54.6556449083741,-29.704331226424));
#1331=CARTESIAN_POINT('Origin',(457.220680560081,-54.6556449083741,-29.704331226424));
#1332=CARTESIAN_POINT('',(458.36974722476,-72.1632353588223,-49.148551846735));
#1333=CARTESIAN_POINT('',(463.159341910081,-68.1270580620068,-53.1847291435502));
#1334=CARTESIAN_POINT('',(458.36974722476,-70.0419150152626,-47.0272315031753));
#1335=CARTESIAN_POINT('',(463.159341910081,-66.0057377184472,-51.0634087999906));
#1336=CARTESIAN_POINT('',(458.369747224764,-72.1632353588191,-49.1485518467376));
#1337=CARTESIAN_POINT('Origin',(477.591874062287,-68.7563603629439,-48.312786155493));
#1338=CARTESIAN_POINT('Origin',(477.591874062287,-70.8776807065036,-50.4341064990527));
#1339=CARTESIAN_POINT('Origin',(477.591874062287,-68.7563603629439,-48.312786155493));
#1340=CARTESIAN_POINT('Origin',(477.591874062286,-52.4017751711242,-31.9582009636734));
#1341=CARTESIAN_POINT('Origin',(477.591874062286,-52.4017751711242,-31.9582009636734));
#1342=CARTESIAN_POINT('Origin',(477.591874062286,-55.2302022958704,-34.7866280884196));
#1343=CARTESIAN_POINT('Origin',(468.761200204448,-62.9227292996174,-58.3890579059394));
#1344=CARTESIAN_POINT('',(459.709694906967,-62.7047075449495,-58.6070796606077));
#1345=CARTESIAN_POINT('',(459.709694906967,-64.8260278885092,-56.485759317048));
#1346=CARTESIAN_POINT('',(459.709694906967,-63.8743785940634,-57.4374086114938));
#1347=CARTESIAN_POINT('',(467.852099819451,-62.7047075449415,-58.6070796606153));
#1348=CARTESIAN_POINT('',(487.812705501923,-62.7047075449404,-58.6070796606153));
#1349=CARTESIAN_POINT('',(467.852099819451,-62.7049402029119,-58.6068470026449));
#1350=CARTESIAN_POINT('',(467.85209981945,-55.9400497313502,-65.3717374742066));
#1351=CARTESIAN_POINT('',(490.812705501923,-62.7049402029107,-58.6068470026449));
#1352=CARTESIAN_POINT('',(478.286952853186,-62.7049402029113,-58.6068470026449));
#1353=CARTESIAN_POINT('',(490.812705501924,-76.8880884361505,-44.423698769405));
#1354=CARTESIAN_POINT('',(490.812705501924,-76.8880884361505,-44.423698769405));
#1355=CARTESIAN_POINT('',(446.709694906974,-76.8880884361529,-44.4236987694049));
#1356=CARTESIAN_POINT('',(449.709694906974,-76.8880884361527,-44.423698769405));
#1357=CARTESIAN_POINT('',(446.709694906967,-74.7255228251212,-46.5862643804366));
#1358=CARTESIAN_POINT('',(446.709694906973,-62.7047075449426,-58.6070796606153));
#1359=CARTESIAN_POINT('',(449.709694906967,-74.7255228251211,-46.5862643804366));
#1360=CARTESIAN_POINT('',(448.209694906971,-74.7255228251211,-46.5862643804367));
#1361=CARTESIAN_POINT('',(449.709694906973,-64.8260278885094,-56.4857593170483));
#1362=CARTESIAN_POINT('',(449.709694906973,-62.7047075449424,-58.6070796606153));
#1363=CARTESIAN_POINT('',(459.235447555708,-64.8260278885092,-56.485759317048));
#1364=CARTESIAN_POINT('Origin',(457.220680560084,-71.4814561423101,-49.8303310632466));
#1365=CARTESIAN_POINT('Origin',(468.761200204448,-60.8014089560577,-56.2677375623797));
#1366=CARTESIAN_POINT('',(459.709694906967,-62.7047075449495,-54.3644389734884));
#1367=CARTESIAN_POINT('',(459.709694906967,-60.5833872013899,-56.485759317048));
#1368=CARTESIAN_POINT('',(459.709694906967,-61.7530582505038,-55.3160882679342));
#1369=CARTESIAN_POINT('',(449.709694906973,-62.7047075449498,-54.3644389734887));
#1370=CARTESIAN_POINT('',(459.235447555708,-62.7047075449495,-54.3644389734884));
#1371=CARTESIAN_POINT('',(449.709694906967,-72.6042024815614,-44.464944036877));
#1372=CARTESIAN_POINT('',(449.709694906973,-60.5833872013828,-56.4857593170557));
#1373=CARTESIAN_POINT('',(446.709694906967,-72.6042024815616,-44.464944036877));
#1374=CARTESIAN_POINT('',(448.209694906971,-72.6042024815615,-44.464944036877));
#1375=CARTESIAN_POINT('',(446.709694906973,-74.7667680925933,-42.3023784258453));
#1376=CARTESIAN_POINT('',(446.709694906973,-60.583387201383,-56.4857593170557));
#1377=CARTESIAN_POINT('',(449.709694906973,-74.7667680925931,-42.3023784258453));
#1378=CARTESIAN_POINT('',(467.852099819451,-60.5836198593522,-56.4855266590852));
#1379=CARTESIAN_POINT('',(478.286952853186,-60.5836198593517,-56.4855266590852));
#1380=CARTESIAN_POINT('',(467.852099819451,-60.5833872013818,-56.4857593170557));
#1381=CARTESIAN_POINT('',(467.85209981945,-53.8187293877906,-63.2504171306469));
#1382=CARTESIAN_POINT('',(460.351897363209,-60.5833872013824,-56.4857593170559));
#1383=CARTESIAN_POINT('Origin',(457.220680560084,-69.3601357987505,-47.7090107196869));
#1384=CARTESIAN_POINT('Origin',(468.761200204447,-44.446823764238,-39.9131523705601));
#1385=CARTESIAN_POINT('',(446.709694906963,-56.2496172897456,-28.1103588450536));
#1386=CARTESIAN_POINT('',(449.709694906963,-56.2496172897455,-28.1103588450535));
#1387=CARTESIAN_POINT('',(459.235447555705,-56.2496172897453,-28.1103588450533));
#1388=CARTESIAN_POINT('',(446.709694906973,-58.4121829007736,-25.9477932340257));
#1389=CARTESIAN_POINT('',(446.709694906972,-44.2288020095633,-40.131174125236));
#1390=CARTESIAN_POINT('',(487.852097435266,-58.4121829007714,-25.9477932340257));
#1391=CARTESIAN_POINT('',(449.709694906973,-58.4121829007734,-25.9477932340257));
#1392=CARTESIAN_POINT('',(487.852097435267,-44.2290346675315,-40.1309414672656));
#1393=CARTESIAN_POINT('',(487.852097435266,-58.4121829007714,-25.9477932340257));
#1394=CARTESIAN_POINT('',(467.85209981945,-44.2290346675326,-40.1309414672656));
#1395=CARTESIAN_POINT('',(478.286952853185,-44.229034667532,-40.1309414672656));
#1396=CARTESIAN_POINT('',(467.85209981945,-44.2288020095621,-40.131174125236));
#1397=CARTESIAN_POINT('',(467.85209981945,-37.4641441959709,-46.8958319388273));
#1398=CARTESIAN_POINT('',(459.709694906964,-44.2288020095697,-40.1311741252288));
#1399=CARTESIAN_POINT('',(487.812705501923,-44.2288020095611,-40.131174125236));
#1400=CARTESIAN_POINT('',(459.709694906964,-46.3501223531339,-38.0098537816647));
#1401=CARTESIAN_POINT('',(459.709694906964,-44.3378128869061,-40.0221632478925));
#1402=CARTESIAN_POINT('',(449.709694906969,-46.3501223531339,-38.0098537816652));
#1403=CARTESIAN_POINT('',(464.235447555705,-46.3501223531339,-38.0098537816644));
#1404=CARTESIAN_POINT('',(449.70969490697,-45.3984730586832,-38.9615030761159));
#1405=CARTESIAN_POINT('Origin',(457.220680560084,-53.0055506069308,-31.3544255278673));
#1406=CARTESIAN_POINT('Origin',(468.761200204447,-47.2752508889842,-42.7415794953062));
#1407=CARTESIAN_POINT('',(449.709694906967,-59.0780444144877,-30.9387859698032));
#1408=CARTESIAN_POINT('',(446.709694906967,-59.0780444144877,-30.9387859698032));
#1409=CARTESIAN_POINT('',(457.735447555707,-59.0780444144877,-30.9387859698032));
#1410=CARTESIAN_POINT('',(449.709694906967,-49.1785494778761,-40.8382809064149));
#1411=CARTESIAN_POINT('',(449.709694906967,-53.1766476517363,-36.8401827325551));
#1412=CARTESIAN_POINT('',(459.709694906967,-49.1785494778761,-40.8382809064149));
#1413=CARTESIAN_POINT('',(459.235447555707,-49.178549477876,-40.8382809064149));
#1414=CARTESIAN_POINT('',(459.709694906967,-47.0572291343164,-42.9596012499746));
#1415=CARTESIAN_POINT('',(459.709694906967,-48.2269001834302,-41.7899302008607));
#1416=CARTESIAN_POINT('',(467.85209981945,-47.0572291343083,-42.9596012499822));
#1417=CARTESIAN_POINT('',(449.70969490697,-47.0572291343126,-42.9596012499779));
#1418=CARTESIAN_POINT('',(467.85209981945,-47.0574617922787,-42.9593685920118));
#1419=CARTESIAN_POINT('',(467.852097435267,-50.7120852344489,-39.3047451498416));
#1420=CARTESIAN_POINT('',(478.286952853185,-47.0574617922782,-42.9593685920118));
#1421=CARTESIAN_POINT('',(446.709694906973,-61.2406100255198,-28.7762203587718));
#1422=CARTESIAN_POINT('',(449.709694906973,-61.2406100255196,-28.7762203587718));
#1423=CARTESIAN_POINT('',(446.709694906972,-47.0572291343112,-42.9596012499801));
#1424=CARTESIAN_POINT('Origin',(457.220680560084,-55.8339777316769,-34.1828526526134));
#1425=CARTESIAN_POINT('Origin',(453.209694906967,-68.7152027352792,-52.596759570766));
#1426=CARTESIAN_POINT('',(459.709694906967,-62.7047950951935,-58.6071672108517));
#1427=CARTESIAN_POINT('',(446.709694906973,-62.7047950951863,-58.6071672108589));
#1428=CARTESIAN_POINT('',(446.709694906967,-62.7047950951935,-58.6071672108517));
#1429=CARTESIAN_POINT('',(459.709694906967,-64.8261154387532,-56.4858468672921));
#1430=CARTESIAN_POINT('',(459.709694906967,-62.7047950951935,-58.6071672108517));
#1431=CARTESIAN_POINT('',(449.709694906967,-64.8261154387532,-56.4858468672921));
#1432=CARTESIAN_POINT('',(459.709694906967,-64.8261154387532,-56.4858468672921));
#1433=CARTESIAN_POINT('',(449.709694906967,-74.7256103753648,-46.5863519306804));
#1434=CARTESIAN_POINT('',(449.709694906967,-62.7047950951935,-58.6071672108517));
#1435=CARTESIAN_POINT('',(446.709694906967,-74.7256103753648,-46.5863519306804));
#1436=CARTESIAN_POINT('',(449.709694906967,-74.7256103753648,-46.5863519306804));
#1437=CARTESIAN_POINT('',(446.709694906967,-74.7256103753648,-46.5863519306804));
#1438=CARTESIAN_POINT('Origin',(467.85209981945,-44.2288020095621,-40.131174125236));
#1439=CARTESIAN_POINT('',(446.709694906928,-44.2287144593259,-40.1310865749841));
#1440=CARTESIAN_POINT('',(446.709694906928,-62.7047075449492,-58.6070796606074));
#1441=CARTESIAN_POINT('',(459.709694906964,-44.2287144593255,-40.1310865749846));
#1442=CARTESIAN_POINT('',(464.700378381727,-44.2287144593253,-40.1310865749848));
#1443=CARTESIAN_POINT('',(459.709694906964,-62.7047075449488,-58.6070796606079));
#1444=CARTESIAN_POINT('',(467.85209981945,-46.3501223531218,-42.2524944687957));
#1445=CARTESIAN_POINT('',(467.85209981945,-44.2288020095621,-40.131174125236));
#1446=CARTESIAN_POINT('',(467.85209981945,-46.3501223531218,-42.2524944687957));
#1447=CARTESIAN_POINT('',(459.709694906967,-47.0572291343164,-42.9596012499746));
#1448=CARTESIAN_POINT('',(467.852099819451,-60.5833872013818,-56.4857593170557));
#1449=CARTESIAN_POINT('',(459.709694906967,-47.0572291343164,-42.9596012499746));
#1450=CARTESIAN_POINT('Origin',(490.812705501924,-74.7667680925909,-42.3023784258453));
#1451=CARTESIAN_POINT('',(490.812705501922,-44.2289471172873,-40.1308539170216));
#1452=CARTESIAN_POINT('',(490.812705501923,-60.583619859351,-56.4855266590852));
#1453=CARTESIAN_POINT('',(490.812705501923,-58.4120953505272,-25.9477056837817));
#1454=CARTESIAN_POINT('',(490.812705501923,-58.4120953505272,-25.9477056837817));
#1455=CARTESIAN_POINT('',(490.812705501924,-74.7667680925909,-42.3023784258453));
#1456=CARTESIAN_POINT('Origin',(449.709694906963,-74.7255228251244,-46.5862643804323));
#1457=CARTESIAN_POINT('',(449.709694906963,-56.249529739501,-28.110271294809));
#1458=CARTESIAN_POINT('',(449.709694906963,-74.7255228251244,-46.5862643804323));
#1459=CARTESIAN_POINT('',(446.709694906963,-56.249529739501,-28.110271294809));
#1460=CARTESIAN_POINT('',(449.709694906963,-56.249529739501,-28.110271294809));
#1461=CARTESIAN_POINT('',(446.709694906963,-74.7255228251244,-46.5862643804323));
#1462=CARTESIAN_POINT('Origin',(449.709694906969,-64.8260278885127,-56.485759317044));
#1463=CARTESIAN_POINT('',(449.709694906969,-46.3500348028894,-38.0097662314207));
#1464=CARTESIAN_POINT('',(449.709694906969,-64.8260278885127,-56.485759317044));
#1465=CARTESIAN_POINT('',(449.709694906969,-46.3500348028894,-38.0097662314207));
#1466=CARTESIAN_POINT('Origin',(459.709694906964,-64.826027888513,-56.4857593170437));
#1467=CARTESIAN_POINT('',(459.709694906964,-46.3500348028897,-38.0097662314205));
#1468=CARTESIAN_POINT('',(459.709694906964,-64.826027888513,-56.4857593170437));
#1469=CARTESIAN_POINT('',(459.709694906964,-46.3500348028897,-38.0097662314205));
#1470=CARTESIAN_POINT('Origin',(459.709694906964,-62.7047075449533,-58.6070796606034));
#1471=CARTESIAN_POINT('',(459.709694906964,-44.22871445933,-40.1310865749801));
#1472=CARTESIAN_POINT('Origin',(453.209694906946,-50.2391220994133,-34.1206789348968));
#1473=CARTESIAN_POINT('',(446.70969490697,-58.4120953505327,-25.9477056837774));
#1474=CARTESIAN_POINT('Origin',(457.220680560084,-71.4814561423101,-49.8303310632466));
#1475=CARTESIAN_POINT('Origin',(457.220680560084,-71.4814561423101,-49.8303310632466));
#1476=CARTESIAN_POINT('Origin',(467.852097435266,-60.5335032443321,-28.0691135775853));
#1477=CARTESIAN_POINT('',(467.85209981945,-46.3503550110922,-42.2522618108252));
#1478=CARTESIAN_POINT('',(467.852097435267,-46.3503550110922,-42.2522618108252));
#1479=CARTESIAN_POINT('',(467.85209981945,-39.5854645395305,-49.0171522823869));
#1480=CARTESIAN_POINT('Origin',(446.709694906967,-59.0780444144877,-30.9387859698032));
#1481=CARTESIAN_POINT('',(449.709694906967,-59.0780444144877,-30.9387859698032));
#1482=CARTESIAN_POINT('',(446.709694906967,-59.0780444144877,-30.9387859698032));
#1483=CARTESIAN_POINT('Origin',(459.709694906967,-49.1785494778761,-40.8382809064149));
#1484=CARTESIAN_POINT('',(459.709694906967,-49.1785494778761,-40.8382809064149));
#1485=CARTESIAN_POINT('Origin',(459.709694906967,-49.1785494778761,-40.8382809064149));
#1486=CARTESIAN_POINT('',(459.709694906967,-49.1785494778761,-40.8382809064149));
#1487=CARTESIAN_POINT('Origin',(449.709694906967,-59.0780444144877,-30.9387859698032));
#1488=CARTESIAN_POINT('',(449.709694906967,-49.1785494778761,-40.8382809064149));
#1489=CARTESIAN_POINT('Origin',(449.709694906967,-59.0780444144877,-30.9387859698032));
#1490=CARTESIAN_POINT('',(449.709694906967,-59.0780444144877,-30.9387859698032));
#1491=CARTESIAN_POINT('',(449.709694906967,-49.1785494778761,-40.8382809064149));
#1492=CARTESIAN_POINT('Origin',(449.709694906967,-49.1785494778761,-40.8382809064149));
#1493=CARTESIAN_POINT('Origin',(449.709694906967,-49.1785494778761,-40.8382809064149));
#1494=CARTESIAN_POINT('Origin',(446.709694906967,-59.0780444144877,-30.9387859698032));
#1495=CARTESIAN_POINT('',(446.709694906967,-59.0780444144877,-30.9387859698032));
#1496=CARTESIAN_POINT('Origin',(449.709694906973,-74.7667680925931,-42.3023784258453));
#1497=CARTESIAN_POINT('',(487.852097435266,-58.4120953505273,-25.9477056837817));
#1498=CARTESIAN_POINT('',(449.709694906973,-58.4120953505294,-25.9477056837817));
#1499=CARTESIAN_POINT('',(487.852097435267,-74.766768092591,-42.3023784258453));
#1500=CARTESIAN_POINT('',(446.709694906973,-58.4121829007736,-25.9477932340257));
#1501=CARTESIAN_POINT('',(446.709694906973,-74.7667680925933,-42.3023784258453));
#1502=CARTESIAN_POINT('Origin',(487.852097435267,-74.7667680925911,-42.3023784258453));
#1503=CARTESIAN_POINT('',(487.852097435267,-44.2289471172875,-40.1308539170216));
#1504=CARTESIAN_POINT('',(487.852097435267,-47.8835705594586,-36.4762304748504));
#1505=CARTESIAN_POINT('',(487.852097435268,-60.5836198593512,-56.4855266590852));
#1506=CARTESIAN_POINT('Origin',(468.761200204447,-44.4467362139946,-39.9130648203166));
#1507=CARTESIAN_POINT('',(478.286952853185,-44.228947117288,-40.1308539170216));
#1508=CARTESIAN_POINT('Origin',(467.85209981945,-48.9573701630831,-72.3544170424738));
#1509=CARTESIAN_POINT('',(467.852099819451,-60.5836198593522,-56.4855266590852));
#1510=CARTESIAN_POINT('Origin',(487.812705501923,-60.5836198593512,-56.4855266590852));
#1511=CARTESIAN_POINT('',(467.85209981945,-44.2290346675325,-40.1309414672656));
#1512=CARTESIAN_POINT('Origin',(446.709694906972,-44.2288020095633,-40.131174125236));
#1513=CARTESIAN_POINT('Origin',(467.852099819449,-32.6027849712634,-55.9998318506541));
#1514=UNCERTAINTY_MEASURE_WITH_UNIT(LENGTH_MEASURE(0.01),#1518,
'DISTANCE_ACCURACY_VALUE',
'Maximum model space distance between geometric entities at asserted c
onnectivities');
#1515=UNCERTAINTY_MEASURE_WITH_UNIT(LENGTH_MEASURE(0.01),#1518,
'DISTANCE_ACCURACY_VALUE',
'Maximum model space distance between geometric entities at asserted c
onnectivities');
#1516=(
GEOMETRIC_REPRESENTATION_CONTEXT(3)
GLOBAL_UNCERTAINTY_ASSIGNED_CONTEXT((#1514))
GLOBAL_UNIT_ASSIGNED_CONTEXT((#1518,#1520,#1521))
REPRESENTATION_CONTEXT('','3D')
);
#1517=(
GEOMETRIC_REPRESENTATION_CONTEXT(3)
GLOBAL_UNCERTAINTY_ASSIGNED_CONTEXT((#1515))
GLOBAL_UNIT_ASSIGNED_CONTEXT((#1518,#1520,#1521))
REPRESENTATION_CONTEXT('','3D')
);
#1518=(
LENGTH_UNIT()
NAMED_UNIT(*)
SI_UNIT(.MILLI.,.METRE.)
);
#1519=(
LENGTH_UNIT()
NAMED_UNIT(*)
SI_UNIT($,.METRE.)
);
#1520=(
NAMED_UNIT(*)
PLANE_ANGLE_UNIT()
SI_UNIT($,.RADIAN.)
);
#1521=(
NAMED_UNIT(*)
SI_UNIT($,.STERADIAN.)
SOLID_ANGLE_UNIT()
);
#1522=SHAPE_DEFINITION_REPRESENTATION(#1523,#1524);
#1523=PRODUCT_DEFINITION_SHAPE('',$,#1526);
#1524=SHAPE_REPRESENTATION('',(#962),#1516);
#1525=PRODUCT_DEFINITION_CONTEXT('part definition',#1530,'design');
#1526=PRODUCT_DEFINITION('xypulley2(1x)','xypulley2(1x) v1',#1527,#1525);
#1527=PRODUCT_DEFINITION_FORMATION('',$,#1532);
#1528=PRODUCT_RELATED_PRODUCT_CATEGORY('xypulley2(1x) v1',
'xypulley2(1x) v1',(#1532));
#1529=APPLICATION_PROTOCOL_DEFINITION('international standard',
'automotive_design',2009,#1530);
#1530=APPLICATION_CONTEXT(
'Core Data for Automotive Mechanical Design Process');
#1531=PRODUCT_CONTEXT('part definition',#1530,'mechanical');
#1532=PRODUCT('xypulley2(1x)','xypulley2(1x) v1',$,(#1531));
#1533=PRESENTATION_STYLE_ASSIGNMENT((#1535));
#1534=PRESENTATION_STYLE_ASSIGNMENT((#1536));
#1535=SURFACE_STYLE_USAGE(.BOTH.,#1537);
#1536=SURFACE_STYLE_USAGE(.BOTH.,#1538);
#1537=SURFACE_SIDE_STYLE('',(#1539));
#1538=SURFACE_SIDE_STYLE('',(#1540));
#1539=SURFACE_STYLE_FILL_AREA(#1541);
#1540=SURFACE_STYLE_FILL_AREA(#1542);
#1541=FILL_AREA_STYLE('Steel - Satin',(#1543));
#1542=FILL_AREA_STYLE('Aluminum - Anodized Glossy (Grey)',(#1544));
#1543=FILL_AREA_STYLE_COLOUR('Steel - Satin',#1545);
#1544=FILL_AREA_STYLE_COLOUR('Aluminum - Anodized Glossy (Grey)',#1546);
#1545=COLOUR_RGB('Steel - Satin',0.627450980392157,0.627450980392157,0.627450980392157);
#1546=COLOUR_RGB('Aluminum - Anodized Glossy (Grey)',0.537254901960784,
0.537254901960784,0.537254901960784);
ENDSEC;
END-ISO-10303-21;
